<svg aria-roledescription="er" role="graphics-document document" viewBox="0 0 603.625 510" style="max-width: 603.625px;" xmlns="http://www.w3.org/2000/svg" width="100%" id="diagram_data_model_1"><style>#diagram_data_model_1{font-family:Arial,Noto Sans CJK KR,sans-serif;font-size:16px;fill:#333;}#diagram_data_model_1 .error-icon{fill:#552222;}#diagram_data_model_1 .error-text{fill:#552222;stroke:#552222;}#diagram_data_model_1 .edge-thickness-normal{stroke-width:2px;}#diagram_data_model_1 .edge-thickness-thick{stroke-width:3.5px;}#diagram_data_model_1 .edge-pattern-solid{stroke-dasharray:0;}#diagram_data_model_1 .edge-pattern-dashed{stroke-dasharray:3;}#diagram_data_model_1 .edge-pattern-dotted{stroke-dasharray:2;}#diagram_data_model_1 .marker{fill:#333333;stroke:#333333;}#diagram_data_model_1 .marker.cross{stroke:#333333;}#diagram_data_model_1 svg{font-family:Arial,Noto Sans CJK KR,sans-serif;font-size:16px;}#diagram_data_model_1 .entityBox{fill:#ECECFF;stroke:#9370DB;}#diagram_data_model_1 .attributeBoxOdd{fill:#ffffff;stroke:#9370DB;}#diagram_data_model_1 .attributeBoxEven{fill:#f2f2f2;stroke:#9370DB;}#diagram_data_model_1 .relationshipLabelBox{fill:hsl(80, 100%, 96.2745098039%);opacity:0.7;background-color:hsl(80, 100%, 96.2745098039%);}#diagram_data_model_1 .relationshipLabelBox rect{opacity:0.5;}#diagram_data_model_1 .relationshipLine{stroke:#333333;}#diagram_data_model_1 .entityTitleText{text-anchor:middle;font-size:18px;fill:#333;}#diagram_data_model_1 #MD_PARENT_START{fill:#f5f5f5!important;stroke:#333333!important;stroke-width:1;}#diagram_data_model_1 #MD_PARENT_END{fill:#f5f5f5!important;stroke:#333333!important;stroke-width:1;}#diagram_data_model_1 :root{--mermaid-font-family:Arial,Noto Sans CJK KR,sans-serif;}</style><g></g><defs><marker orient="auto" markerHeight="240" markerWidth="190" refY="7" refX="0" id="MD_PARENT_START"><path d="M 18,7 L9,13 L1,7 L9,1 Z"></path></marker></defs><defs><marker orient="auto" markerHeight="28" markerWidth="20" refY="7" refX="19" id="MD_PARENT_END"><path d="M 18,7 L9,13 L1,7 L9,1 Z"></path></marker></defs><defs><marker orient="auto" markerHeight="18" markerWidth="18" refY="9" refX="0" id="ONLY_ONE_START"><path d="M9,0 L9,18 M15,0 L15,18" fill="none" stroke="gray"></path></marker></defs><defs><marker orient="auto" markerHeight="18" markerWidth="18" refY="9" refX="18" id="ONLY_ONE_END"><path d="M3,0 L3,18 M9,0 L9,18" fill="none" stroke="gray"></path></marker></defs><defs><marker orient="auto" markerHeight="18" markerWidth="30" refY="9" refX="0" id="ZERO_OR_ONE_START"><circle r="6" cy="9" cx="21" fill="white" stroke="gray"></circle><path d="M9,0 L9,18" fill="none" stroke="gray"></path></marker></defs><defs><marker orient="auto" markerHeight="18" markerWidth="30" refY="9" refX="30" id="ZERO_OR_ONE_END"><circle r="6" cy="9" cx="9" fill="white" stroke="gray"></circle><path d="M21,0 L21,18" fill="none" stroke="gray"></path></marker></defs><defs><marker orient="auto" markerHeight="36" markerWidth="45" refY="18" refX="18" id="ONE_OR_MORE_START"><path d="M0,18 Q 18,0 36,18 Q 18,36 0,18 M42,9 L42,27" fill="none" stroke="gray"></path></marker></defs><defs><marker orient="auto" markerHeight="36" markerWidth="45" refY="18" refX="27" id="ONE_OR_MORE_END"><path d="M3,9 L3,27 M9,18 Q27,0 45,18 Q27,36 9,18" fill="none" stroke="gray"></path></marker></defs><defs><marker orient="auto" markerHeight="36" markerWidth="57" refY="18" refX="18" id="ZERO_OR_MORE_START"><circle r="6" cy="18" cx="48" fill="white" stroke="gray"></circle><path d="M0,18 Q18,0 36,18 Q18,36 0,18" fill="none" stroke="gray"></path></marker></defs><defs><marker orient="auto" markerHeight="36" markerWidth="57" refY="18" refX="39" id="ZERO_OR_MORE_END"><circle r="6" cy="18" cx="9" fill="white" stroke="gray"></circle><path d="M21,18 Q39,0 57,18 Q39,36 21,18" fill="none" stroke="gray"></path></marker></defs><path style="stroke: gray; fill: none;" marker-start="url(#ONLY_ONE_START)" marker-end="url(#ZERO_OR_MORE_END)" d="M98.571,95L93.81,103.333C89.048,111.667,79.524,128.333,74.762,146C70,163.667,70,182.333,70,191.667L70,201" class="er relationshipLine"></path><path style="stroke: gray; fill: none;" marker-start="url(#ONLY_ONE_START)" marker-end="url(#ZERO_OR_MORE_END)" d="M170,89.226L184.65,98.522C199.299,107.817,228.599,126.409,251.083,144.038C273.567,161.667,289.235,178.333,297.069,186.667L304.903,195" class="er relationshipLine"></path><path style="stroke: gray; fill: none;" marker-start="url(#ONLY_ONE_START)" marker-end="url(#ZERO_OR_MORE_END)" d="M473.209,95L462.456,103.333C451.704,111.667,430.2,128.333,413.842,145C397.483,161.667,386.272,178.333,380.666,186.667L375.06,195" class="er relationshipLine"></path><path style="stroke: gray; fill: none;" marker-start="url(#ONLY_ONE_START)" marker-end="url(#ZERO_OR_MORE_END)" d="M543.022,95L547.784,103.333C552.546,111.667,562.07,128.333,566.832,152.25C571.594,176.167,571.594,207.333,571.594,238.5C571.594,269.667,571.594,300.833,558.541,324.75C545.488,348.667,519.383,365.333,506.33,373.667L493.277,382" class="er relationshipLine"></path><path style="stroke: gray; fill: none;" marker-start="url(#ONLY_ONE_START)" marker-end="url(#ZERO_OR_MORE_END)" d="M322.535,282L318.079,290.333C313.622,298.667,304.71,315.333,309.3,332C313.89,348.667,331.982,365.333,341.029,373.667L350.075,382" class="er relationshipLine"></path><path style="stroke: gray; fill: none;" marker-start="url(#ONLY_ONE_START)" marker-end="url(#ZERO_OR_MORE_END)" d="M375.06,282L380.666,290.333C386.272,298.667,397.483,315.333,403.089,332C408.695,348.667,408.695,365.333,408.695,373.667L408.695,382" class="er relationshipLine"></path><g transform="translate(70,20 )" id="entity-PartDef-53a2d3fc-7f8a-5c2d-a5ba-149c728d5e9b"><rect height="75" width="100" y="0" x="0" class="er entityBox"></rect><text style="dominant-baseline: middle; text-anchor: middle; font-family: Arial, &quot;Noto Sans CJK KR&quot;, sans-serif; font-size: 12px;" transform="translate(50,37.5)" y="0" x="0" id="text-entity-PartDef-53a2d3fc-7f8a-5c2d-a5ba-149c728d5e9b" class="er entityLabel">PartDef</text></g><g transform="translate(20,201 )" id="entity-Port-04c26244-4a32-557b-921e-3ed044554cd6"><rect height="75" width="100" y="0" x="0" class="er entityBox"></rect><text style="dominant-baseline: middle; text-anchor: middle; font-family: Arial, &quot;Noto Sans CJK KR&quot;, sans-serif; font-size: 12px;" transform="translate(50,37.5)" y="0" x="0" id="text-entity-Port-04c26244-4a32-557b-921e-3ed044554cd6" class="er entityLabel">Port</text></g><g transform="translate(220,195 )" id="entity-PartInstance-37b038ee-5b1a-57ac-885c-818c16f3ff8b"><rect height="87" width="251.59375" y="0" x="0" class="er entityBox"></rect><text style="dominant-baseline: middle; text-anchor: middle; font-family: Arial, &quot;Noto Sans CJK KR&quot;, sans-serif; font-size: 12px;" transform="translate(125.796875,12)" y="0" x="0" id="text-entity-PartInstance-37b038ee-5b1a-57ac-885c-818c16f3ff8b" class="er entityLabel">PartInstance</text><rect height="21" width="69.0625" y="24" x="0" class="er attributeBoxOdd"></rect><text style="dominant-baseline: middle; font-family: Arial, &quot;Noto Sans CJK KR&quot;, sans-serif; font-size: 10.2px;" transform="translate(5,34.5)" y="0" x="0" id="text-entity-PartInstance-37b038ee-5b1a-57ac-885c-818c16f3ff8b-attr-1-type" class="er entityLabel">int</text><rect height="21" width="63.234375" y="24" x="69.0625" class="er attributeBoxOdd"></rect><text style="dominant-baseline: middle; font-family: Arial, &quot;Noto Sans CJK KR&quot;, sans-serif; font-size: 10.2px;" transform="translate(74.0625,34.5)" y="0" x="0" id="text-entity-PartInstance-37b038ee-5b1a-57ac-885c-818c16f3ff8b-attr-1-name" class="er entityLabel">array_index</text><rect height="21" width="119.296875" y="24" x="132.296875" class="er attributeBoxOdd"></rect><text style="dominant-baseline: middle; font-family: Arial, &quot;Noto Sans CJK KR&quot;, sans-serif; font-size: 10.2px;" transform="translate(137.296875,34.5)" y="0" x="0" id="text-entity-PartInstance-37b038ee-5b1a-57ac-885c-818c16f3ff8b-attr-1-comment" class="er entityLabel">identity inside this graph</text><rect height="21" width="69.0625" y="45" x="0" class="er attributeBoxEven"></rect><text style="dominant-baseline: middle; font-family: Arial, &quot;Noto Sans CJK KR&quot;, sans-serif; font-size: 10.2px;" transform="translate(5,55.5)" y="0" x="0" id="text-entity-PartInstance-37b038ee-5b1a-57ac-885c-818c16f3ff8b-attr-2-type" class="er entityLabel">PartDef</text><rect height="21" width="63.234375" y="45" x="69.0625" class="er attributeBoxEven"></rect><text style="dominant-baseline: middle; font-family: Arial, &quot;Noto Sans CJK KR&quot;, sans-serif; font-size: 10.2px;" transform="translate(74.0625,55.5)" y="0" x="0" id="text-entity-PartInstance-37b038ee-5b1a-57ac-885c-818c16f3ff8b-attr-2-name" class="er entityLabel">part_def</text><rect height="21" width="119.296875" y="45" x="132.296875" class="er attributeBoxEven"></rect><text style="dominant-baseline: middle; font-family: Arial, &quot;Noto Sans CJK KR&quot;, sans-serif; font-size: 10.2px;" transform="translate(137.296875,55.5)" y="0" x="0" id="text-entity-PartInstance-37b038ee-5b1a-57ac-885c-818c16f3ff8b-attr-2-comment" class="er entityLabel">resource reference</text><rect height="21" width="69.0625" y="66" x="0" class="er attributeBoxOdd"></rect><text style="dominant-baseline: middle; font-family: Arial, &quot;Noto Sans CJK KR&quot;, sans-serif; font-size: 10.2px;" transform="translate(5,76.5)" y="0" x="0" id="text-entity-PartInstance-37b038ee-5b1a-57ac-885c-818c16f3ff8b-attr-3-type" class="er entityLabel">Transform3D</text><rect height="21" width="63.234375" y="66" x="69.0625" class="er attributeBoxOdd"></rect><text style="dominant-baseline: middle; font-family: Arial, &quot;Noto Sans CJK KR&quot;, sans-serif; font-size: 10.2px;" transform="translate(74.0625,76.5)" y="0" x="0" id="text-entity-PartInstance-37b038ee-5b1a-57ac-885c-818c16f3ff8b-attr-3-name" class="er entityLabel">transform</text><rect height="21" width="119.296875" y="66" x="132.296875" class="er attributeBoxOdd"></rect><text style="dominant-baseline: middle; font-family: Arial, &quot;Noto Sans CJK KR&quot;, sans-serif; font-size: 10.2px;" transform="translate(137.296875,76.5)" y="0" x="0" id="text-entity-PartInstance-37b038ee-5b1a-57ac-885c-818c16f3ff8b-attr-3-comment" class="er entityLabel">assembly pose</text></g><g transform="translate(459.5625,20 )" id="entity-ConnectionGraph-2ced5a87-b750-5a19-bf84-0369d3da7f5b"><rect height="75" width="124.0625" y="0" x="0" class="er entityBox"></rect><text style="dominant-baseline: middle; text-anchor: middle; font-family: Arial, &quot;Noto Sans CJK KR&quot;, sans-serif; font-size: 12px;" transform="translate(62.03125,37.5)" y="0" x="0" id="text-entity-ConnectionGraph-2ced5a87-b750-5a19-bf84-0369d3da7f5b" class="er entityLabel">ConnectionGraph</text></g><g transform="translate(314.1689453125,382 )" id="entity-Link-4a61f919-0a00-593c-b3b2-55e484dad3b2"><rect height="108" width="189.052734375" y="0" x="0" class="er entityBox"></rect><text style="dominant-baseline: middle; text-anchor: middle; font-family: Arial, &quot;Noto Sans CJK KR&quot;, sans-serif; font-size: 12px;" transform="translate(94.5263671875,12)" y="0" x="0" id="text-entity-Link-4a61f919-0a00-593c-b3b2-55e484dad3b2" class="er entityLabel">Link</text><rect height="21" width="64.12200927734375" y="24" x="0" class="er attributeBoxOdd"></rect><text style="dominant-baseline: middle; font-family: Arial, &quot;Noto Sans CJK KR&quot;, sans-serif; font-size: 10.2px;" transform="translate(5,34.5)" y="0" x="0" id="text-entity-Link-4a61f919-0a00-593c-b3b2-55e484dad3b2-attr-1-type" class="er entityLabel">int</text><rect height="21" width="39.05572509765625" y="24" x="64.12200927734375" class="er attributeBoxOdd"></rect><text style="dominant-baseline: middle; font-family: Arial, &quot;Noto Sans CJK KR&quot;, sans-serif; font-size: 10.2px;" transform="translate(69.12200927734375,34.5)" y="0" x="0" id="text-entity-Link-4a61f919-0a00-593c-b3b2-55e484dad3b2-attr-1-name" class="er entityLabel">a_part</text><rect height="21" width="85.875" y="24" x="103.177734375" class="er attributeBoxOdd"></rect><text style="dominant-baseline: middle; font-family: Arial, &quot;Noto Sans CJK KR&quot;, sans-serif; font-size: 10.2px;" transform="translate(108.177734375,34.5)" y="0" x="0" id="text-entity-Link-4a61f919-0a00-593c-b3b2-55e484dad3b2-attr-1-comment" class="er entityLabel">parts array index</text><rect height="21" width="64.12200927734375" y="45" x="0" class="er attributeBoxEven"></rect><text style="dominant-baseline: middle; font-family: Arial, &quot;Noto Sans CJK KR&quot;, sans-serif; font-size: 10.2px;" transform="translate(5,55.5)" y="0" x="0" id="text-entity-Link-4a61f919-0a00-593c-b3b2-55e484dad3b2-attr-2-type" class="er entityLabel">StringName</text><rect height="21" width="39.05572509765625" y="45" x="64.12200927734375" class="er attributeBoxEven"></rect><text style="dominant-baseline: middle; font-family: Arial, &quot;Noto Sans CJK KR&quot;, sans-serif; font-size: 10.2px;" transform="translate(69.12200927734375,55.5)" y="0" x="0" id="text-entity-Link-4a61f919-0a00-593c-b3b2-55e484dad3b2-attr-2-name" class="er entityLabel">a_port</text><rect height="21" width="85.875" y="45" x="103.177734375" class="er attributeBoxEven"></rect><text style="dominant-baseline: middle; font-family: Arial, &quot;Noto Sans CJK KR&quot;, sans-serif; font-size: 10.2px;" transform="translate(108.177734375,55.5)" y="0" x="0" id="text-entity-Link-4a61f919-0a00-593c-b3b2-55e484dad3b2-attr-2-comment" class="er entityLabel">port id on a_part</text><rect height="21" width="64.12200927734375" y="66" x="0" class="er attributeBoxOdd"></rect><text style="dominant-baseline: middle; font-family: Arial, &quot;Noto Sans CJK KR&quot;, sans-serif; font-size: 10.2px;" transform="translate(5,76.5)" y="0" x="0" id="text-entity-Link-4a61f919-0a00-593c-b3b2-55e484dad3b2-attr-3-type" class="er entityLabel">int</text><rect height="21" width="39.05572509765625" y="66" x="64.12200927734375" class="er attributeBoxOdd"></rect><text style="dominant-baseline: middle; font-family: Arial, &quot;Noto Sans CJK KR&quot;, sans-serif; font-size: 10.2px;" transform="translate(69.12200927734375,76.5)" y="0" x="0" id="text-entity-Link-4a61f919-0a00-593c-b3b2-55e484dad3b2-attr-3-name" class="er entityLabel">b_part</text><rect height="21" width="85.875" y="66" x="103.177734375" class="er attributeBoxOdd"></rect><text style="dominant-baseline: middle; font-family: Arial, &quot;Noto Sans CJK KR&quot;, sans-serif; font-size: 10.2px;" transform="translate(108.177734375,76.5)" y="0" x="0" id="text-entity-Link-4a61f919-0a00-593c-b3b2-55e484dad3b2-attr-3-comment" class="er entityLabel">parts array index</text><rect height="21" width="64.12200927734375" y="87" x="0" class="er attributeBoxEven"></rect><text style="dominant-baseline: middle; font-family: Arial, &quot;Noto Sans CJK KR&quot;, sans-serif; font-size: 10.2px;" transform="translate(5,97.5)" y="0" x="0" id="text-entity-Link-4a61f919-0a00-593c-b3b2-55e484dad3b2-attr-4-type" class="er entityLabel">StringName</text><rect height="21" width="39.05572509765625" y="87" x="64.12200927734375" class="er attributeBoxEven"></rect><text style="dominant-baseline: middle; font-family: Arial, &quot;Noto Sans CJK KR&quot;, sans-serif; font-size: 10.2px;" transform="translate(69.12200927734375,97.5)" y="0" x="0" id="text-entity-Link-4a61f919-0a00-593c-b3b2-55e484dad3b2-attr-4-name" class="er entityLabel">b_port</text><rect height="21" width="85.875" y="87" x="103.177734375" class="er attributeBoxEven"></rect><text style="dominant-baseline: middle; font-family: Arial, &quot;Noto Sans CJK KR&quot;, sans-serif; font-size: 10.2px;" transform="translate(108.177734375,97.5)" y="0" x="0" id="text-entity-Link-4a61f919-0a00-593c-b3b2-55e484dad3b2-attr-4-comment" class="er entityLabel">port id on b_part</text></g><rect height="14" width="38.703125" y="138.48443603515625" x="55.551002502441406" class="er relationshipLabelBox"></rect><text style="text-anchor: middle; dominant-baseline: middle; font-family: Arial, &quot;Noto Sans CJK KR&quot;, sans-serif; font-size: 12px;" y="145.48443603515625" x="74.9025650024414" id="rel1" class="er relationshipLabel">defines</text><rect height="14" width="56.046875" y="129.8648223876953" x="213.6248321533203" class="er relationshipLabelBox"></rect><text style="text-anchor: middle; dominant-baseline: middle; font-family: Arial, &quot;Noto Sans CJK KR&quot;, sans-serif; font-size: 12px;" y="136.8648223876953" x="241.6482696533203" id="rel2" class="er relationshipLabel">reused_by</text><rect height="14" width="26.6875" y="132.9749298095703" x="405.5796203613281" class="er relationshipLabelBox"></rect><text style="text-anchor: middle; dominant-baseline: middle; font-family: Arial, &quot;Noto Sans CJK KR&quot;, sans-serif; font-size: 12px;" y="139.9749298095703" x="418.9233703613281" id="rel3" class="er relationshipLabel">parts</text><rect height="14.000015258789062" width="24.015625" y="245.0500259399414" x="559.5459594726562" class="er relationshipLabelBox"></rect><text style="text-anchor: middle; dominant-baseline: middle; font-family: Arial, &quot;Noto Sans CJK KR&quot;, sans-serif; font-size: 12px;" y="252.05003356933594" x="571.5537719726562" id="rel4" class="er relationshipLabel">links</text><rect height="14" width="59.716796875" y="330.7125244140625" x="281.51556396484375" class="er relationshipLabelBox"></rect><text style="text-anchor: middle; dominant-baseline: middle; font-family: Arial, &quot;Noto Sans CJK KR&quot;, sans-serif; font-size: 12px;" y="337.7125244140625" x="311.37396240234375" id="rel5" class="er relationshipLabel">endpoint_a</text><rect height="14" width="59.716796875" y="321.7377014160156" x="372.0637512207031" class="er relationshipLabelBox"></rect><text style="text-anchor: middle; dominant-baseline: middle; font-family: Arial, &quot;Noto Sans CJK KR&quot;, sans-serif; font-size: 12px;" y="328.7377014160156" x="401.9221496582031" id="rel6" class="er relationshipLabel">endpoint_b</text></svg>