# Blender 5.2.1 LTS
# www.blender.org
mtllib kit_motor_12.mtl
o kit_motor_12
v -0.020000 0.000000 -0.026000
v 0.020000 0.000000 -0.026000
v 0.027000 0.000000 -0.004000
v -0.020000 -0.005072 -0.025500
v 0.020000 -0.005072 -0.025500
v 0.027000 -0.001236 -0.003804
v -0.020000 -0.009950 -0.024021
v 0.020000 -0.009950 -0.024021
v 0.027000 -0.002351 -0.003236
v -0.020000 -0.014445 -0.021618
v 0.027000 -0.003236 -0.002351
v 0.020000 -0.014445 -0.021618
v -0.020000 -0.018385 -0.018385
v 0.027000 -0.003804 -0.001236
v 0.020000 -0.018385 -0.018385
v -0.020000 -0.021618 -0.014445
v 0.020000 -0.021618 -0.014445
v 0.027000 -0.004000 0.000000
v -0.020000 -0.024021 -0.009950
v 0.020000 -0.024021 -0.009950
v 0.027000 -0.003804 0.001236
v -0.020000 -0.025500 -0.005072
v 0.027000 -0.003236 0.002351
v 0.020000 -0.025500 -0.005072
v -0.020000 -0.026000 0.000000
v 0.027000 -0.002351 0.003236
v 0.020000 -0.026000 0.000000
v -0.020000 -0.025500 0.005072
v 0.027000 -0.001236 0.003804
v 0.020000 -0.025500 0.005072
v -0.020000 -0.024021 0.009950
v 0.027000 0.000000 0.004000
v 0.020000 -0.024021 0.009950
v -0.020000 -0.021618 0.014445
v 0.020000 -0.021618 0.014445
v 0.027000 0.001236 0.003804
v -0.020000 -0.018385 0.018385
v 0.020000 -0.018385 0.018385
v 0.027000 0.002351 0.003236
v -0.020000 -0.014445 0.021618
v 0.020000 -0.014445 0.021618
v 0.027000 0.003236 0.002351
v -0.020000 -0.009950 0.024021
v 0.020000 -0.009950 0.024021
v 0.027000 0.003804 0.001236
v -0.020000 -0.005072 0.025500
v 0.027000 0.004000 0.000000
v 0.020000 -0.005072 0.025500
v -0.020000 0.000000 0.026000
v 0.027000 0.003804 -0.001236
v 0.020000 0.000000 0.026000
v -0.020000 0.005072 0.025500
v 0.027000 0.003236 -0.002351
v 0.020000 0.005072 0.025500
v -0.020000 0.009950 0.024021
v 0.027000 0.002351 -0.003236
v 0.020000 0.009950 0.024021
v -0.020000 0.014445 0.021618
v 0.027000 0.001236 -0.003804
v 0.020000 0.014445 0.021618
v -0.020000 0.018385 0.018385
v 0.020000 0.018385 0.018385
v -0.020000 0.021618 0.014445
v 0.020000 0.021618 0.014445
v -0.020000 0.024021 0.009950
v 0.020000 0.024021 0.009950
v -0.020000 0.025500 0.005072
v 0.020000 0.025500 0.005072
v -0.020000 0.026000 0.000000
v 0.020000 0.026000 0.000000
v -0.020000 0.025500 -0.005072
v 0.020000 0.025500 -0.005072
v -0.020000 0.024021 -0.009950
v 0.020000 0.024021 -0.009950
v -0.020000 0.021618 -0.014445
v 0.020000 0.021618 -0.014445
v -0.020000 0.018385 -0.018385
v 0.020000 0.018385 -0.018385
v -0.020000 0.014445 -0.021618
v 0.020000 0.014445 -0.021618
v -0.020000 0.009950 -0.024021
v 0.020000 0.009950 -0.024021
v -0.020000 0.005072 -0.025500
v 0.020000 0.005072 -0.025500
v 0.020000 0.003804 0.001236
v 0.020000 0.004000 0.000000
v 0.020000 0.003236 -0.002351
v 0.020000 0.003236 0.002351
v 0.020000 0.003804 -0.001236
v 0.020000 0.002351 0.003236
v 0.020000 0.000000 -0.004000
v 0.020000 -0.001236 -0.003804
v 0.020000 0.001236 -0.003804
v 0.020000 0.002351 -0.003236
v 0.020000 0.000000 0.004000
v 0.020000 0.001236 0.003804
v 0.020000 -0.001236 0.003804
v 0.020000 -0.003236 0.002351
v 0.020000 -0.003236 -0.002351
v 0.020000 -0.004000 0.000000
v 0.020000 -0.003804 0.001236
v 0.020000 -0.003804 -0.001236
v 0.020000 -0.002351 0.003236
v 0.020000 -0.002351 -0.003236
v 0.020000 -0.008000 -0.010000
v 0.020000 -0.008152 -0.009235
v 0.020000 -0.008152 -0.010765
v 0.020000 -0.009235 -0.011848
v 0.020000 -0.009235 -0.008152
v 0.020000 -0.008586 -0.011414
v 0.020000 -0.008586 -0.008586
v 0.020000 -0.010765 -0.008152
v 0.020000 -0.010765 -0.011848
v 0.020000 -0.012000 -0.010000
v 0.020000 -0.011848 -0.010765
v 0.020000 -0.011848 -0.009235
v 0.020000 -0.011414 -0.008586
v 0.020000 -0.011414 -0.011414
v 0.020000 -0.010000 -0.008000
v 0.020000 -0.010000 -0.012000
v -0.020000 -0.008000 -0.010000
v -0.020000 -0.008152 -0.009235
v -0.020000 -0.008152 -0.010765
v -0.020000 -0.009235 -0.008152
v -0.020000 -0.008586 -0.008586
v -0.020000 -0.009235 -0.011848
v -0.020000 -0.008586 -0.011414
v -0.020000 -0.010765 -0.008152
v -0.020000 -0.010765 -0.011848
v -0.020000 -0.012000 -0.010000
v -0.020000 -0.011848 -0.010765
v -0.020000 -0.011848 -0.009235
v -0.020000 -0.011414 -0.011414
v -0.020000 -0.011414 -0.008586
v -0.020000 -0.010000 -0.008000
v -0.020000 -0.010000 -0.012000
v 0.020000 -0.008000 0.010000
v 0.020000 -0.008152 0.010765
v 0.020000 -0.008575 0.008601
v 0.020000 -0.008152 0.009235
v 0.020000 -0.009235 0.011848
v 0.020000 -0.008586 0.011414
v 0.020000 -0.009235 0.008152
v 0.020000 -0.008586 0.008586
v 0.020000 -0.010765 0.011848
v 0.020000 -0.010765 0.008152
v 0.020000 -0.012000 0.010000
v 0.020000 -0.011848 0.009235
v 0.020000 -0.011848 0.010765
v 0.020000 -0.011414 0.008586
v 0.020000 -0.011414 0.011414
v 0.020000 -0.010000 0.012000
v 0.020000 -0.010000 0.008000
v -0.020000 -0.010765 0.008152
v -0.020000 -0.010765 0.011848
v -0.020000 -0.012000 0.010000
v -0.020000 -0.011848 0.009235
v -0.020000 -0.011848 0.010765
v -0.020000 -0.011414 0.008586
v -0.020000 -0.011414 0.011414
v -0.020000 -0.010000 0.012000
v -0.020000 -0.010000 0.008000
v -0.020000 -0.008000 0.010000
v -0.020000 -0.008152 0.010765
v -0.020000 -0.008152 0.009235
v -0.020000 -0.008586 0.008586
v -0.020000 -0.009235 0.011848
v -0.020000 -0.009235 0.008152
v -0.020000 -0.008586 0.011414
v 0.020000 0.012000 -0.010000
v 0.020000 0.011848 -0.009235
v 0.020000 0.011848 -0.010765
v 0.020000 0.010765 -0.011848
v 0.020000 0.010765 -0.008152
v 0.020000 0.011414 -0.011414
v 0.020000 0.011414 -0.008586
v 0.020000 0.009235 -0.008152
v 0.020000 0.009235 -0.011848
v 0.020000 0.008000 -0.010000
v 0.020000 0.008152 -0.010765
v 0.020000 0.008152 -0.009235
v 0.020000 0.008586 -0.011414
v 0.020000 0.008586 -0.008586
v 0.020000 0.010000 -0.012000
v 0.020000 0.010000 -0.008000
v -0.020000 0.012000 -0.010000
v -0.020000 0.011848 -0.009235
v -0.020000 0.011848 -0.010765
v -0.020000 0.010765 -0.008152
v -0.020000 0.010765 -0.011848
v -0.020000 0.010000 -0.008000
v -0.020000 0.011414 -0.008586
v -0.020000 0.011414 -0.011414
v -0.020000 0.010000 -0.012000
v -0.020000 0.009235 -0.008152
v -0.020000 0.009235 -0.011848
v -0.020000 0.008000 -0.010000
v -0.020000 0.008152 -0.010765
v -0.020000 0.008152 -0.009235
v -0.020000 0.008586 -0.008586
v -0.020000 0.008586 -0.011414
v 0.020000 0.012000 0.010000
v 0.020000 0.011848 0.010765
v 0.020000 0.011848 0.009235
v 0.020000 0.010765 0.011848
v 0.020000 0.010765 0.008152
v 0.020000 0.011414 0.011414
v 0.020000 0.011414 0.008586
v 0.020000 0.008586 0.011414
v 0.020000 0.009235 0.011848
v 0.020000 0.009235 0.008152
v 0.020000 0.008000 0.010000
v 0.020000 0.008152 0.009235
v 0.020000 0.008152 0.010765
v 0.020000 0.008586 0.008586
v 0.020000 0.010000 0.008000
v 0.020000 0.010000 0.012000
v -0.020000 0.011848 0.009235
v -0.020000 0.010765 0.008152
v -0.020000 0.011414 0.008586
v -0.020000 0.009235 0.008152
v -0.020000 0.008586 0.008586
v -0.020000 0.008152 0.009235
v -0.020000 0.010000 0.008000
v -0.020000 0.012000 0.010000
v -0.020000 0.008000 0.010000
v -0.020000 0.011848 0.010765
v -0.020000 0.010765 0.011848
v -0.020000 0.011414 0.011414
v -0.020000 0.009235 0.011848
v -0.020000 0.008152 0.010765
v -0.020000 0.010000 0.012000
v -0.020000 0.008586 0.011414
vn -0.0000 -0.0981 -0.9952
vn -0.0000 -0.2902 -0.9570
vn -0.0000 -0.4715 -0.8819
vn -0.0000 -0.6343 -0.7731
vn -0.0000 -0.7731 -0.6343
vn -0.0000 -0.8819 -0.4715
vn -0.0000 -0.9570 -0.2902
vn -0.0000 -0.9952 -0.0981
vn -0.0000 -0.9952 0.0981
vn -0.0000 -0.9570 0.2902
vn -0.0000 -0.8819 0.4715
vn -0.0000 -0.7731 0.6343
vn -0.0000 -0.6343 0.7731
vn -0.0000 -0.4715 0.8819
vn -0.0000 -0.2902 0.9570
vn -0.0000 -0.0981 0.9952
vn -0.0000 0.0981 0.9952
vn -0.0000 0.2902 0.9570
vn -0.0000 0.4715 0.8819
vn -0.0000 0.6343 0.7731
vn -0.0000 0.7731 0.6343
vn -0.0000 0.8819 0.4715
vn -0.0000 0.9570 0.2902
vn -0.0000 0.9952 0.0981
vn -0.0000 0.9952 -0.0981
vn -0.0000 0.9570 -0.2902
vn -0.0000 0.8819 -0.4715
vn -0.0000 0.7731 -0.6343
vn -0.0000 0.6343 -0.7731
vn -0.0000 0.4715 -0.8819
vn 1.0000 -0.0000 -0.0000
vn -0.0000 0.2902 -0.9570
vn -0.0000 0.0981 -0.9952
vn -1.0000 -0.0000 -0.0000
vn -0.0000 -0.1566 -0.9877
vn -0.0000 -0.4539 -0.8910
vn -0.0000 -0.7071 -0.7071
vn -0.0000 -0.8910 -0.4539
vn -0.0000 -0.9877 -0.1566
vn -0.0000 -0.9877 0.1566
vn -0.0000 -0.8910 0.4539
vn -0.0000 -0.7071 0.7071
vn -0.0000 -0.4539 0.8910
vn -0.0000 -0.1566 0.9877
vn -0.0000 0.1566 0.9877
vn -0.0000 0.4539 0.8910
vn -0.0000 0.7071 0.7071
vn -0.0000 0.8910 0.4539
vn -0.0000 0.9877 0.1566
vn -0.0000 0.9877 -0.1566
vn -0.0000 0.8910 -0.4539
vn -0.0000 0.7071 -0.7071
vn -0.0000 0.4539 -0.8910
vn -0.0000 0.1566 -0.9877
vn -0.0000 0.1949 0.9808
vn -0.0000 0.5559 0.8313
vn -0.0000 0.8313 0.5559
vn -0.0000 0.9808 0.1949
vn -0.0000 0.9808 -0.1949
vn -0.0000 0.8313 -0.5559
vn -0.0000 0.5559 -0.8313
vn -0.0000 0.1949 -0.9808
vn -0.0000 -0.1949 -0.9808
vn -0.0000 -0.5559 -0.8313
vn -0.0000 -0.8313 -0.5559
vn -0.0000 -0.9808 -0.1949
vn -0.0000 -0.9808 0.1949
vn -0.0000 -0.8313 0.5559
vn -0.0000 -0.5559 0.8313
vn -0.0000 -0.1949 0.9808
vn 0.0008 -0.8064 0.5913
vn -1.0000 0.0001 -0.0000
vn -1.0000 -0.0001 -0.0000
vn -0.0000 -0.8318 0.5550
s 0
usemtl DetailGraphite
f 1//1 5//1 4//1
f 4//2 8//2 7//2
f 7//3 12//3 10//3
f 10//4 15//4 13//4
f 13//5 17//5 16//5
f 16//6 20//6 19//6
f 31//11 35//11 34//11
f 34//12 38//12 37//12
f 37//13 41//13 40//13
f 40//14 44//14 43//14
f 43//15 48//15 46//15
f 46//16 51//16 49//16
f 49//17 54//17 52//17
f 52//18 57//18 55//18
f 55//19 60//19 58//19
f 58//20 62//20 61//20
f 61//21 64//21 63//21
f 63//22 66//22 65//22
f 73//27 76//27 75//27
f 75//28 78//28 77//28
f 77//29 80//29 79//29
f 79//30 82//30 81//30
f 76//31 184//31 5//31
f 60//31 209//31 210//31
f 104//31 107//31 5//31
f 30//31 115//31 114//31
f 48//31 145//31 152//31
f 103//31 153//31 146//31
f 81//32 84//32 83//32
f 83//33 2//33 1//33
f 19//34 129//34 81//34
f 19//34 157//34 159//34
f 65//34 81//34 188//34
f 198//34 201//34 123//34
f 189//34 219//34 220//34
f 91//35 6//35 92//35
f 92//36 9//36 104//36
f 104//37 11//37 99//37
f 99//38 14//38 102//38
f 102//39 18//39 100//39
f 100//40 21//40 101//40
f 101//41 23//41 98//41
f 98//42 26//42 103//42
f 103//43 29//43 97//43
f 97//44 32//44 95//44
f 95//45 36//45 96//45
f 96//46 39//46 90//46
f 90//47 42//47 88//47
f 88//48 45//48 85//48
f 85//49 47//49 86//49
f 86//50 50//50 89//50
f 89//51 53//51 87//51
f 87//52 56//52 94//52
f 18//31 53//31 42//31
f 94//53 59//53 93//53
f 93//54 3//54 91//54
f 129//55 120//55 136//55
f 133//56 113//56 129//56
f 115//57 133//57 131//57
f 114//58 131//58 130//58
f 116//59 130//59 132//59
f 117//60 132//60 134//60
f 112//61 134//61 128//61
f 119//62 128//62 135//62
f 109//63 135//63 124//63
f 111//64 124//64 125//64
f 122//65 111//65 125//65
f 121//66 106//66 122//66
f 123//67 105//67 121//67
f 127//68 107//68 123//68
f 126//69 110//69 127//69
f 136//70 108//70 126//70
f 154//55 153//55 162//55
f 159//56 146//56 154//56
f 148//57 159//57 157//57
f 147//58 157//58 156//58
f 149//59 156//59 158//59
f 151//60 158//60 160//60
f 145//61 160//61 155//61
f 152//62 155//62 161//62
f 152//63 167//63 141//63
f 142//64 167//64 169//64
f 164//65 142//65 169//65
f 163//66 138//66 164//66
f 165//67 137//67 163//67
f 144//71 139//71 165//71
f 168//69 144//69 166//69
f 162//70 143//70 168//70
f 196//55 184//55 194//55
f 201//56 178//56 196//56
f 180//57 201//57 198//57
f 179//58 198//58 197//58
f 181//59 197//59 199//59
f 183//60 199//60 200//60
f 177//61 200//61 195//61
f 185//62 195//62 191//62
f 174//63 191//63 189//63
f 176//64 189//64 192//64
f 187//65 176//65 192//65
f 186//66 171//66 187//66
f 188//67 170//67 186//67
f 193//68 172//68 188//68
f 190//69 175//69 193//69
f 194//70 173//70 190//70
f 221//55 216//55 224//55
f 222//56 211//56 221//56
f 213//57 222//57 223//57
f 212//58 223//58 226//58
f 214//59 226//59 231//59
f 209//60 231//60 233//60
f 210//61 233//61 230//61
f 217//62 230//62 232//62
f 205//63 232//63 228//63
f 207//64 228//64 229//64
f 227//65 207//65 229//65
f 225//66 203//66 227//66
f 218//67 202//67 225//67
f 220//68 204//68 218//68
f 219//69 208//69 220//69
f 224//70 206//70 219//70
f 1//1 2//1 5//1
f 4//2 5//2 8//2
f 7//3 8//3 12//3
f 10//4 12//4 15//4
f 13//5 15//5 17//5
f 16//6 17//6 20//6
f 31//11 33//11 35//11
f 34//12 35//12 38//12
f 37//13 38//13 41//13
f 40//14 41//14 44//14
f 43//15 44//15 48//15
f 46//16 48//16 51//16
f 49//17 51//17 54//17
f 52//18 54//18 57//18
f 55//19 57//19 60//19
f 58//20 60//20 62//20
f 61//21 62//21 64//21
f 63//22 64//22 66//22
f 73//27 74//27 76//27
f 75//28 76//28 78//28
f 77//29 78//29 80//29
f 79//30 80//30 82//30
f 84//31 82//31 80//31
f 80//31 78//31 76//31
f 76//31 172//31 175//31
f 76//31 175//31 173//31
f 84//31 80//31 76//31
f 5//31 2//31 84//31
f 178//31 182//31 5//31
f 76//31 173//31 184//31
f 184//31 178//31 5//31
f 5//31 84//31 76//31
f 202//31 66//31 64//31
f 64//31 62//31 60//31
f 60//31 57//31 96//31
f 90//31 88//31 215//31
f 60//31 96//31 90//31
f 202//31 64//31 60//31
f 203//31 202//31 60//31
f 90//31 215//31 213//31
f 90//31 213//31 212//31
f 207//31 203//31 60//31
f 205//31 207//31 60//31
f 90//31 212//31 214//31
f 90//31 214//31 209//31
f 217//31 205//31 60//31
f 210//31 217//31 60//31
f 60//31 90//31 209//31
f 211//31 215//31 88//31
f 211//31 88//31 85//31
f 216//31 211//31 85//31
f 216//31 85//31 86//31
f 206//31 216//31 86//31
f 206//31 86//31 89//31
f 208//31 206//31 89//31
f 208//31 89//31 87//31
f 66//31 202//31 204//31
f 66//31 204//31 208//31
f 70//31 68//31 66//31
f 74//31 72//31 70//31
f 172//31 76//31 74//31
f 170//31 172//31 74//31
f 74//31 70//31 66//31
f 66//31 208//31 87//31
f 66//31 87//31 94//31
f 170//31 74//31 66//31
f 171//31 170//31 66//31
f 176//31 171//31 66//31
f 174//31 176//31 66//31
f 174//31 66//31 94//31
f 185//31 174//31 94//31
f 185//31 94//31 93//31
f 177//31 185//31 93//31
f 177//31 93//31 91//31
f 183//31 177//31 91//31
f 183//31 91//31 92//31
f 181//31 183//31 92//31
f 104//31 99//31 111//31
f 181//31 92//31 104//31
f 179//31 181//31 104//31
f 104//31 111//31 106//31
f 104//31 106//31 105//31
f 180//31 179//31 104//31
f 5//31 182//31 180//31
f 110//31 108//31 5//31
f 104//31 105//31 107//31
f 107//31 110//31 5//31
f 5//31 180//31 104//31
f 109//31 111//31 99//31
f 109//31 99//31 102//31
f 119//31 109//31 102//31
f 100//31 101//31 33//31
f 119//31 102//31 100//31
f 112//31 119//31 100//31
f 100//31 33//31 30//31
f 30//31 27//31 24//31
f 24//31 20//31 17//31
f 17//31 15//31 12//31
f 12//31 8//31 5//31
f 5//31 108//31 120//31
f 5//31 120//31 113//31
f 17//31 12//31 5//31
f 30//31 24//31 17//31
f 112//31 100//31 30//31
f 117//31 112//31 30//31
f 30//31 17//31 5//31
f 5//31 113//31 118//31
f 5//31 118//31 115//31
f 116//31 117//31 30//31
f 114//31 116//31 30//31
f 30//31 5//31 115//31
f 140//31 139//31 97//31
f 95//31 96//31 57//31
f 140//31 97//31 95//31
f 137//31 140//31 95//31
f 95//31 57//31 54//31
f 54//31 51//31 48//31
f 48//31 44//31 41//31
f 41//31 38//31 35//31
f 35//31 33//31 147//31
f 35//31 147//31 149//31
f 48//31 41//31 35//31
f 95//31 54//31 48//31
f 138//31 137//31 95//31
f 142//31 138//31 95//31
f 48//31 35//31 149//31
f 48//31 149//31 151//31
f 142//31 95//31 48//31
f 141//31 142//31 48//31
f 48//31 151//31 145//31
f 152//31 141//31 48//31
f 148//31 147//31 33//31
f 33//31 101//31 98//31
f 103//31 97//31 139//31
f 33//31 98//31 103//31
f 150//31 148//31 33//31
f 146//31 150//31 33//31
f 103//31 139//31 144//31
f 103//31 144//31 143//31
f 146//31 33//31 103//31
f 103//31 143//31 153//31
f 81//32 82//32 84//32
f 83//33 84//33 2//33
f 81//34 83//34 1//34
f 1//34 4//34 7//34
f 7//34 10//34 13//34
f 13//34 16//34 19//34
f 19//34 130//34 131//34
f 19//34 131//34 133//34
f 7//34 13//34 19//34
f 81//34 1//34 7//34
f 126//34 127//34 81//34
f 136//34 126//34 81//34
f 81//34 7//34 19//34
f 19//34 133//34 129//34
f 129//34 136//34 81//34
f 132//34 130//34 19//34
f 19//34 22//34 25//34
f 25//34 28//34 31//34
f 31//34 34//34 37//34
f 37//34 40//34 43//34
f 43//34 161//34 155//34
f 43//34 155//34 160//34
f 31//34 37//34 43//34
f 19//34 25//34 31//34
f 134//34 132//34 19//34
f 162//34 135//34 128//34
f 128//34 134//34 19//34
f 19//34 31//34 43//34
f 43//34 160//34 158//34
f 43//72 158//72 156//72
f 162//34 128//34 19//34
f 154//34 162//34 19//34
f 19//34 43//34 156//34
f 19//34 156//34 157//34
f 159//34 154//34 19//34
f 187//34 192//34 65//34
f 65//34 67//34 69//34
f 69//34 71//34 73//34
f 73//34 75//34 77//34
f 77//34 79//34 81//34
f 81//34 194//34 190//34
f 81//34 190//34 193//34
f 73//34 77//34 81//34
f 65//34 69//34 73//34
f 186//34 187//34 65//34
f 81//34 193//34 188//34
f 188//34 186//34 65//34
f 65//34 73//34 81//34
f 167//34 161//34 43//34
f 43//34 46//34 49//34
f 49//34 52//34 55//34
f 55//34 58//34 61//34
f 61//34 63//34 65//34
f 65//34 225//34 227//34
f 65//34 227//34 229//34
f 55//34 61//34 65//34
f 43//34 49//34 55//34
f 169//34 167//34 43//34
f 164//34 169//34 43//34
f 43//34 55//34 65//34
f 65//34 229//34 228//34
f 65//34 228//34 232//34
f 163//73 164//73 43//73
f 43//34 65//34 232//34
f 43//34 232//34 230//34
f 163//34 43//34 230//34
f 163//34 230//34 233//34
f 165//34 163//34 233//34
f 165//34 233//34 231//34
f 166//34 165//34 231//34
f 166//34 231//34 226//34
f 135//34 162//34 168//34
f 168//34 166//34 226//34
f 168//34 226//34 223//34
f 124//34 135//34 168//34
f 125//34 124//34 168//34
f 168//34 223//34 222//34
f 221//34 224//34 191//34
f 168//34 222//34 221//34
f 122//34 125//34 168//34
f 121//34 122//34 168//34
f 168//34 221//34 191//34
f 168//34 191//34 195//34
f 121//34 168//34 195//34
f 121//34 195//34 200//34
f 81//34 127//34 123//34
f 123//34 121//34 200//34
f 123//34 200//34 199//34
f 194//34 81//34 123//34
f 196//34 194//34 123//34
f 123//34 199//34 197//34
f 123//34 197//34 198//34
f 201//34 196//34 123//34
f 225//34 65//34 192//34
f 189//34 191//34 224//34
f 225//34 192//34 189//34
f 218//34 225//34 189//34
f 189//34 224//34 219//34
f 220//34 218//34 189//34
f 91//35 3//35 6//35
f 92//36 6//36 9//36
f 104//37 9//37 11//37
f 99//38 11//38 14//38
f 102//39 14//39 18//39
f 100//40 18//40 21//40
f 101//41 21//41 23//41
f 98//42 23//42 26//42
f 103//43 26//43 29//43
f 97//44 29//44 32//44
f 95//45 32//45 36//45
f 96//46 36//46 39//46
f 90//47 39//47 42//47
f 88//48 42//48 45//48
f 85//49 45//49 47//49
f 86//50 47//50 50//50
f 89//51 50//51 53//51
f 87//52 53//52 56//52
f 42//31 39//31 36//31
f 36//31 32//31 29//31
f 29//31 26//31 23//31
f 23//31 21//31 18//31
f 18//31 14//31 11//31
f 11//31 9//31 6//31
f 6//31 3//31 59//31
f 59//31 56//31 53//31
f 53//31 50//31 47//31
f 47//31 45//31 42//31
f 42//31 36//31 29//31
f 29//31 23//31 18//31
f 18//31 11//31 6//31
f 6//31 59//31 53//31
f 53//31 47//31 42//31
f 42//31 29//31 18//31
f 18//31 6//31 53//31
f 94//53 56//53 59//53
f 93//54 59//54 3//54
f 129//55 113//55 120//55
f 133//56 118//56 113//56
f 115//57 118//57 133//57
f 114//58 115//58 131//58
f 116//59 114//59 130//59
f 117//60 116//60 132//60
f 112//61 117//61 134//61
f 119//62 112//62 128//62
f 109//63 119//63 135//63
f 111//64 109//64 124//64
f 122//65 106//65 111//65
f 121//66 105//66 106//66
f 123//67 107//67 105//67
f 127//68 110//68 107//68
f 126//69 108//69 110//69
f 136//70 120//70 108//70
f 154//55 146//55 153//55
f 159//56 150//56 146//56
f 148//57 150//57 159//57
f 147//58 148//58 157//58
f 149//59 147//59 156//59
f 151//60 149//60 158//60
f 145//61 151//61 160//61
f 152//62 145//62 155//62
f 152//63 161//63 167//63
f 142//64 141//64 167//64
f 164//65 138//65 142//65
f 163//66 137//66 138//66
f 165//67 140//67 137//67
f 165//68 166//68 144//68
f 139//74 140//74 165//74
f 168//69 143//69 144//69
f 162//70 153//70 143//70
f 196//55 178//55 184//55
f 201//56 182//56 178//56
f 180//57 182//57 201//57
f 179//58 180//58 198//58
f 181//59 179//59 197//59
f 183//60 181//60 199//60
f 177//61 183//61 200//61
f 185//62 177//62 195//62
f 174//63 185//63 191//63
f 176//64 174//64 189//64
f 187//65 171//65 176//65
f 186//66 170//66 171//66
f 188//67 172//67 170//67
f 193//68 175//68 172//68
f 190//69 173//69 175//69
f 194//70 184//70 173//70
f 221//55 211//55 216//55
f 222//56 215//56 211//56
f 213//57 215//57 222//57
f 212//58 213//58 223//58
f 214//59 212//59 226//59
f 209//60 214//60 231//60
f 210//61 209//61 233//61
f 217//62 210//62 230//62
f 205//63 217//63 232//63
f 207//64 205//64 228//64
f 227//65 203//65 207//65
f 225//66 202//66 203//66
f 218//67 204//67 202//67
f 220//68 208//68 204//68
f 219//69 206//69 208//69
f 224//70 216//70 206//70
usemtl DetailTeal
f 19//7 24//7 22//7
f 22//8 27//8 25//8
f 25//9 30//9 28//9
f 28//10 33//10 31//10
f 65//23 68//23 67//23
f 67//24 70//24 69//24
f 69//25 72//25 71//25
f 71//26 74//26 73//26
f 19//7 20//7 24//7
f 22//8 24//8 27//8
f 25//9 27//9 30//9
f 28//10 30//10 33//10
f 65//23 66//23 68//23
f 67//24 68//24 70//24
f 69//25 70//25 72//25
f 71//26 72//26 74//26
