# Blender 5.2.1 LTS
# www.blender.org
mtllib kit_beam_140.mtl
o kit_beam_140
v -0.010000 -0.070000 0.002000
v -0.010000 0.070000 0.002000
v -0.010000 -0.070000 -0.002000
v -0.010000 0.070000 -0.002000
v 0.010000 -0.070000 0.002000
v 0.010000 0.070000 0.002000
v 0.010000 -0.070000 -0.002000
v 0.010000 0.070000 -0.002000
v -0.002000 -0.060000 -0.002000
v -0.001848 -0.060765 -0.002000
v -0.001848 -0.059235 -0.002000
v -0.000765 -0.061848 -0.002000
v -0.000765 -0.058152 -0.002000
v 0.000000 -0.062000 -0.002000
v -0.001414 -0.061414 -0.002000
v -0.001414 -0.058586 -0.002000
v 0.000765 -0.061848 -0.002000
v 0.000765 -0.058152 -0.002000
v 0.002000 -0.060000 -0.002000
v 0.001848 -0.060765 -0.002000
v 0.001848 -0.059235 -0.002000
v 0.001414 -0.061414 -0.002000
v 0.001414 -0.058586 -0.002000
v 0.000000 -0.058000 -0.002000
v -0.002000 -0.060000 0.002000
v -0.001848 -0.060765 0.002000
v -0.001848 -0.059235 0.002000
v -0.000765 -0.058152 0.002000
v -0.000765 -0.061848 0.002000
v -0.001414 -0.058586 0.002000
v -0.001414 -0.061414 0.002000
v 0.000765 -0.061848 0.002000
v 0.000765 -0.058152 0.002000
v 0.002000 -0.060000 0.002000
v 0.001848 -0.059235 0.002000
v 0.001848 -0.060765 0.002000
v 0.001414 -0.058586 0.002000
v 0.000000 -0.062000 0.002000
v 0.001414 -0.061414 0.002000
v 0.000000 -0.058000 0.002000
v -0.002000 -0.040000 -0.002000
v -0.001414 -0.041414 -0.002000
v -0.001848 -0.040765 -0.002000
v -0.001848 -0.039235 -0.002000
v 0.000000 -0.038000 -0.002000
v -0.000765 -0.041848 -0.002000
v -0.000765 -0.038152 -0.002000
v -0.001414 -0.038586 -0.002000
v 0.000000 -0.042000 -0.002000
v 0.000059 -0.041988 -0.002000
v 0.000765 -0.038152 -0.002000
v 0.000602 -0.041880 -0.002000
v 0.001414 -0.041414 -0.002000
v 0.002000 -0.040000 -0.002000
v 0.001848 -0.040765 -0.002000
v 0.001848 -0.039235 -0.002000
v 0.000765 -0.041848 -0.002000
v 0.001414 -0.038586 -0.002000
v 0.000000 -0.038000 0.002000
v 0.000765 -0.041848 0.002000
v 0.000765 -0.038152 0.002000
v 0.002000 -0.040000 0.002000
v 0.001848 -0.040765 0.002000
v 0.001848 -0.039235 0.002000
v 0.001414 -0.041414 0.002000
v 0.001414 -0.038586 0.002000
v 0.000000 -0.042000 0.002000
v -0.000059 -0.041988 0.002000
v -0.000765 -0.038152 0.002000
v -0.000602 -0.041880 0.002000
v -0.002000 -0.040000 0.002000
v -0.001848 -0.039235 0.002000
v -0.001414 -0.041414 0.002000
v -0.001848 -0.040765 0.002000
v -0.001414 -0.038586 0.002000
v -0.000765 -0.041848 0.002000
v -0.002000 -0.020000 -0.002000
v -0.001414 -0.021414 -0.002000
v -0.001848 -0.020765 -0.002000
v -0.001848 -0.019235 -0.002000
v -0.000765 -0.021848 -0.002000
v -0.000765 -0.018152 -0.002000
v 0.000000 -0.018000 -0.002000
v 0.000000 -0.022000 -0.002000
v -0.001414 -0.018586 -0.002000
v 0.000336 -0.021933 -0.002000
v 0.000765 -0.018152 -0.002000
v 0.000864 -0.021782 -0.002000
v 0.000765 -0.021848 -0.002000
v 0.002000 -0.020000 -0.002000
v 0.001848 -0.019235 -0.002000
v 0.001848 -0.020765 -0.002000
v 0.001414 -0.018586 -0.002000
v 0.001414 -0.021414 -0.002000
v 0.000765 -0.021848 0.002000
v 0.000000 -0.022000 0.002000
v 0.000000 -0.018000 0.002000
v 0.000765 -0.018152 0.002000
v 0.001414 -0.021414 0.002000
v 0.001414 -0.018586 0.002000
v 0.002000 -0.020000 0.002000
v 0.001848 -0.020765 0.002000
v 0.001848 -0.019235 0.002000
v -0.000336 -0.021933 0.002000
v -0.000765 -0.021848 0.002000
v -0.000864 -0.021782 0.002000
v -0.000765 -0.018152 0.002000
v -0.002000 -0.020000 0.002000
v -0.001848 -0.020765 0.002000
v -0.001848 -0.019235 0.002000
v -0.001414 -0.021414 0.002000
v -0.001414 -0.018586 0.002000
v -0.002000 0.000000 -0.002000
v -0.001414 -0.001414 -0.002000
v -0.001848 -0.000765 -0.002000
v -0.001848 0.000765 -0.002000
v 0.000000 0.002000 -0.002000
v -0.000765 -0.001848 -0.002000
v -0.000765 0.001848 -0.002000
v -0.001414 0.001414 -0.002000
v 0.000000 -0.002000 -0.002000
v 0.000765 0.001848 -0.002000
v 0.000742 -0.001852 -0.002000
v 0.000765 -0.001848 -0.002000
v 0.001414 0.001414 -0.002000
v 0.001267 -0.001513 -0.002000
v 0.001414 -0.001414 -0.002000
v 0.002000 0.000000 -0.002000
v 0.001848 -0.000765 -0.002000
v 0.001848 0.000765 -0.002000
v 0.000000 0.002000 0.002000
v 0.000765 0.001848 0.002000
v 0.000765 -0.001848 0.002000
v 0.002000 0.000000 0.002000
v 0.001848 0.000765 0.002000
v 0.001414 -0.001414 0.002000
v 0.001848 -0.000765 0.002000
v 0.001414 0.001414 0.002000
v -0.000765 0.001848 0.002000
v 0.000000 -0.002000 0.002000
v -0.000742 -0.001852 0.002000
v -0.001414 0.001414 0.002000
v -0.000765 -0.001848 0.002000
v -0.001267 -0.001513 0.002000
v -0.002000 0.000000 0.002000
v -0.001848 0.000765 0.002000
v -0.001414 -0.001414 0.002000
v -0.001848 -0.000765 0.002000
v -0.001414 0.021414 -0.002000
v 0.000000 0.018000 -0.002000
v 0.000000 0.022000 -0.002000
v -0.000765 0.018152 -0.002000
v -0.001174 0.018425 -0.002000
v -0.000765 0.021848 -0.002000
v 0.001414 0.021414 -0.002000
v 0.001848 0.019235 -0.002000
v 0.002000 0.020000 -0.002000
v 0.001848 0.020765 -0.002000
v 0.000765 0.018152 -0.002000
v 0.001414 0.018586 -0.002000
v 0.000765 0.021848 -0.002000
v -0.001414 0.018586 -0.002000
v -0.001453 0.018644 -0.002000
v -0.002000 0.020000 -0.002000
v -0.001848 0.019235 -0.002000
v -0.001848 0.020765 -0.002000
v -0.002000 0.020000 0.002000
v -0.001848 0.019235 0.002000
v -0.001848 0.020765 0.002000
v -0.001414 0.018586 0.002000
v -0.001414 0.021414 0.002000
v -0.000765 0.018152 0.002000
v 0.000000 0.018000 0.002000
v 0.000000 0.022000 0.002000
v 0.001414 0.021414 0.002000
v 0.000765 0.021848 0.002000
v 0.000765 0.018152 0.002000
v 0.001174 0.018425 0.002000
v -0.000765 0.021848 0.002000
v 0.001414 0.018586 0.002000
v 0.001453 0.018644 0.002000
v 0.002000 0.020000 0.002000
v 0.001848 0.020765 0.002000
v 0.001848 0.019235 0.002000
v -0.002000 0.040000 -0.002000
v -0.001848 0.039235 -0.002000
v -0.001848 0.040765 -0.002000
v -0.000765 0.038152 -0.002000
v -0.000765 0.041848 -0.002000
v -0.001414 0.038586 -0.002000
v -0.001414 0.041414 -0.002000
v 0.000765 0.038152 -0.002000
v 0.000765 0.041848 -0.002000
v 0.001848 0.039235 -0.002000
v 0.002000 0.040000 -0.002000
v 0.001848 0.040765 -0.002000
v 0.001414 0.038586 -0.002000
v 0.001414 0.041414 -0.002000
v 0.000000 0.042000 -0.002000
v 0.000000 0.038000 -0.002000
v -0.002000 0.040000 0.002000
v -0.001848 0.039235 0.002000
v -0.001848 0.040765 0.002000
v -0.000765 0.041848 0.002000
v -0.000765 0.038152 0.002000
v -0.001414 0.041414 0.002000
v -0.001414 0.038586 0.002000
v 0.000765 0.038152 0.002000
v 0.000765 0.041848 0.002000
v 0.002000 0.040000 0.002000
v 0.001848 0.040765 0.002000
v 0.001848 0.039235 0.002000
v 0.001414 0.041414 0.002000
v 0.001414 0.038586 0.002000
v 0.000000 0.042000 0.002000
v 0.000000 0.038000 0.002000
v -0.002000 0.060000 -0.002000
v -0.001848 0.059235 -0.002000
v -0.001848 0.060765 -0.002000
v -0.000765 0.058152 -0.002000
v -0.001414 0.058586 -0.002000
v -0.000765 0.061848 -0.002000
v -0.001414 0.061414 -0.002000
v 0.000765 0.058152 -0.002000
v 0.000765 0.061848 -0.002000
v 0.002000 0.060000 -0.002000
v 0.001848 0.060765 -0.002000
v 0.001848 0.059235 -0.002000
v 0.001414 0.061414 -0.002000
v 0.001414 0.058586 -0.002000
v 0.000000 0.062000 -0.002000
v 0.000000 0.058000 -0.002000
v -0.002000 0.060000 0.002000
v -0.001848 0.059235 0.002000
v -0.001848 0.060765 0.002000
v -0.000765 0.058152 0.002000
v -0.001414 0.058586 0.002000
v -0.000765 0.061848 0.002000
v -0.001414 0.061414 0.002000
v 0.000765 0.058152 0.002000
v 0.000765 0.061848 0.002000
v 0.002000 0.060000 0.002000
v 0.001848 0.060765 0.002000
v 0.001848 0.059235 0.002000
v 0.001414 0.061414 0.002000
v 0.001414 0.058586 0.002000
v 0.000000 0.062000 0.002000
v 0.000000 0.058000 0.002000
vn -1.0000 -0.0000 -0.0000
vn -0.0000 -0.0000 -1.0000
vn 1.0000 -0.0000 -0.0000
vn -0.0000 -0.0000 1.0000
vn -0.0000 -1.0000 -0.0000
vn -0.0000 1.0000 -0.0000
vn -0.1949 -0.9808 -0.0000
vn -0.5559 -0.8313 -0.0000
vn -0.8313 -0.5559 -0.0000
vn -0.9808 -0.1949 -0.0000
vn -0.9808 0.1949 -0.0000
vn -0.8313 0.5559 -0.0000
vn -0.5559 0.8313 -0.0000
vn -0.1949 0.9808 -0.0000
vn 0.1949 0.9808 -0.0000
vn 0.5559 0.8313 -0.0000
vn 0.8313 0.5559 -0.0000
vn 0.9808 0.1949 -0.0000
vn 0.9808 -0.1949 -0.0000
vn 0.8313 -0.5559 -0.0000
vn 0.5559 -0.8313 -0.0000
vn 0.1949 -0.9808 -0.0000
vn -0.1945 0.9809 0.0001
vn 0.1945 0.9809 -0.0001
vn -0.5561 0.8311 -0.0000
vn 0.5561 0.8311 -0.0000
vn -0.5551 0.8318 -0.0002
vn -0.1956 0.9807 0.0001
vn 0.1713 0.9852 -0.0047
vn -0.5552 0.8317 0.0002
vn 0.5552 0.8317 -0.0002
vn 0.8314 0.5557 -0.0000
vn -0.0000 0.0010 1.0000
vn -0.1993 0.9799 -0.0000
vn 0.1993 0.9799 -0.0000
vn -0.0000 0.0010 -1.0000
vn -0.5547 0.8320 -0.0000
vn 0.5547 0.8320 -0.0000
vn -0.5586 0.8294 -0.0000
vn -0.1713 0.9852 -0.0000
vn 0.1956 0.9807 -0.0000
vn -0.5571 0.8305 -0.0000
vn 0.5571 0.8305 -0.0000
vn 0.8298 0.5580 -0.0000
s 0
usemtl ChassisMetal
f 1//1 4//1 3//1
f 118//2 121//2 85//2
f 4//2 225//2 231//2
f 8//2 128//2 157//2
f 162//2 125//2 163//2
f 124//2 83//2 123//2
f 89//2 45//2 86//2
f 13//2 52//2 24//2
f 7//2 12//2 14//2
f 7//3 6//3 5//3
f 1//4 32//4 38//4
f 133//4 140//4 100//4
f 2//4 145//4 167//4
f 6//4 238//4 247//4
f 180//4 142//4 181//4
f 143//4 97//4 141//4
f 105//4 59//4 104//4
f 70//4 33//4 68//4
f 3//5 5//5 1//5
f 8//6 2//6 6//6
f 24//7 33//7 40//7
f 18//8 37//8 33//8
f 37//9 21//9 35//9
f 35//10 19//10 34//10
f 34//11 20//11 36//11
f 36//12 22//12 39//12
f 39//13 17//13 32//13
f 32//14 14//14 38//14
f 38//15 12//15 29//15
f 29//16 15//16 31//16
f 15//17 26//17 31//17
f 10//18 25//18 26//18
f 9//19 27//19 25//19
f 11//20 30//20 27//20
f 16//21 28//21 30//21
f 13//22 40//22 28//22
f 45//7 61//7 59//7
f 51//8 66//8 61//8
f 66//9 56//9 64//9
f 64//10 54//10 62//10
f 62//11 55//11 63//11
f 63//12 53//12 65//12
f 65//13 57//13 60//13
f 50//23 67//23 57//23
f 68//24 49//24 76//24
f 76//16 42//16 73//16
f 42//17 74//17 73//17
f 43//18 71//18 74//18
f 41//19 72//19 71//19
f 44//20 75//20 72//20
f 48//21 69//21 75//21
f 47//22 59//22 69//22
f 83//7 98//7 97//7
f 87//8 100//8 98//8
f 100//9 91//9 103//9
f 103//10 90//10 101//10
f 101//11 92//11 102//11
f 102//12 94//12 99//12
f 94//25 88//25 95//25
f 89//14 84//14 96//14
f 96//15 81//15 105//15
f 106//26 81//26 111//26
f 78//17 109//17 111//17
f 79//18 108//18 109//18
f 77//19 110//19 108//19
f 80//20 112//20 110//20
f 85//21 107//21 112//21
f 82//22 97//22 107//22
f 117//7 132//7 131//7
f 122//8 138//8 132//8
f 138//9 130//9 135//9
f 135//10 128//10 134//10
f 134//11 129//11 137//11
f 137//12 127//12 136//12
f 136//27 126//27 124//27
f 133//28 123//28 121//28
f 141//29 121//29 143//29
f 143//16 114//16 147//16
f 114//17 148//17 147//17
f 115//18 145//18 148//18
f 113//19 146//19 145//19
f 116//20 142//20 146//20
f 119//21 142//21 120//21
f 119//22 131//22 139//22
f 151//7 176//7 174//7
f 161//8 175//8 176//8
f 175//9 158//9 183//9
f 183//10 157//10 182//10
f 182//11 156//11 184//11
f 184//12 160//12 180//12
f 178//30 160//30 177//30
f 177//14 150//14 173//14
f 173//15 152//15 172//15
f 153//31 170//31 152//31
f 170//32 163//32 165//32
f 165//18 167//18 168//18
f 164//19 169//19 167//19
f 166//20 171//20 169//20
f 149//21 179//21 171//21
f 154//22 174//22 179//22
f 199//7 209//7 215//7
f 193//8 213//8 209//8
f 213//9 196//9 211//9
f 211//10 195//10 210//10
f 210//11 194//11 212//11
f 212//12 197//12 214//12
f 214//13 192//13 208//13
f 208//14 200//14 216//14
f 216//15 188//15 205//15
f 205//16 190//16 207//16
f 190//17 202//17 207//17
f 186//18 201//18 202//18
f 185//19 203//19 201//19
f 187//20 206//20 203//20
f 191//21 204//21 206//21
f 189//22 215//22 204//22
f 231//7 241//7 247//7
f 225//8 245//8 241//8
f 245//9 227//9 243//9
f 243//10 226//10 242//10
f 242//11 228//11 244//11
f 244//12 230//12 246//12
f 246//13 224//13 240//13
f 240//14 232//14 248//14
f 248//15 220//15 236//15
f 236//16 221//16 237//16
f 221//17 234//17 237//17
f 218//18 233//18 234//18
f 217//19 235//19 233//19
f 219//20 239//20 235//20
f 223//21 238//21 239//21
f 222//22 247//22 238//22
f 1//1 2//1 4//1
f 10//2 15//2 3//2
f 4//2 189//2 191//2
f 4//2 191//2 187//2
f 9//2 10//2 3//2
f 11//2 9//2 3//2
f 4//2 187//2 185//2
f 4//2 185//2 186//2
f 11//2 3//2 4//2
f 50//2 13//2 16//2
f 16//2 11//2 4//2
f 49//2 50//2 16//2
f 46//2 49//2 16//2
f 188//2 200//2 158//2
f 188//2 158//2 155//2
f 190//2 188//2 155//2
f 190//2 155//2 161//2
f 186//2 190//2 161//2
f 186//2 161//2 151//2
f 42//2 46//2 16//2
f 43//2 42//2 16//2
f 4//2 186//2 151//2
f 4//2 151//2 154//2
f 41//2 43//2 16//2
f 41//2 16//2 4//2
f 4//2 154//2 149//2
f 4//2 149//2 166//2
f 44//2 41//2 4//2
f 86//2 47//2 48//2
f 48//2 44//2 4//2
f 4//2 166//2 164//2
f 165//2 163//2 122//2
f 164//2 165//2 122//2
f 164//2 122//2 117//2
f 84//2 86//2 48//2
f 81//2 84//2 48//2
f 4//2 164//2 117//2
f 4//2 117//2 119//2
f 78//2 81//2 48//2
f 79//2 78//2 48//2
f 4//2 119//2 120//2
f 4//2 120//2 116//2
f 77//2 79//2 48//2
f 77//2 48//2 4//2
f 4//2 116//2 113//2
f 77//2 4//2 113//2
f 80//2 77//2 113//2
f 80//2 113//2 115//2
f 123//2 82//2 85//2
f 85//2 80//2 115//2
f 85//2 115//2 114//2
f 121//2 123//2 85//2
f 85//2 114//2 118//2
f 222//2 223//2 4//2
f 4//2 8//2 229//2
f 4//2 229//2 225//2
f 231//2 222//2 4//2
f 227//2 229//2 8//2
f 7//2 22//2 20//2
f 7//2 20//2 19//2
f 226//2 227//2 8//2
f 228//2 226//2 8//2
f 8//2 7//2 19//2
f 8//2 19//2 21//2
f 230//2 228//2 8//2
f 8//2 21//2 23//2
f 18//2 24//2 52//2
f 8//2 23//2 18//2
f 18//2 52//2 57//2
f 18//2 57//2 53//2
f 4//2 223//2 219//2
f 199//2 189//2 4//2
f 193//2 199//2 4//2
f 4//2 219//2 217//2
f 4//2 217//2 218//2
f 198//2 193//2 4//2
f 196//2 198//2 4//2
f 4//2 218//2 221//2
f 196//2 4//2 221//2
f 195//2 196//2 221//2
f 195//2 221//2 220//2
f 195//2 220//2 232//2
f 195//2 232//2 224//2
f 195//2 224//2 230//2
f 18//2 53//2 55//2
f 18//2 55//2 54//2
f 195//2 230//2 8//2
f 194//2 195//2 8//2
f 8//2 18//2 54//2
f 8//2 54//2 56//2
f 8//2 56//2 58//2
f 51//2 45//2 88//2
f 8//2 58//2 51//2
f 51//2 88//2 94//2
f 51//2 94//2 92//2
f 158//2 200//2 192//2
f 157//2 158//2 192//2
f 157//2 192//2 197//2
f 157//2 197//2 194//2
f 51//2 92//2 90//2
f 8//2 51//2 90//2
f 157//2 194//2 8//2
f 8//2 90//2 91//2
f 8//2 91//2 93//2
f 8//2 93//2 87//2
f 87//2 83//2 126//2
f 87//2 126//2 127//2
f 125//2 153//2 152//2
f 130//2 125//2 152//2
f 130//2 152//2 150//2
f 128//2 130//2 150//2
f 128//2 150//2 159//2
f 87//2 127//2 129//2
f 128//2 159//2 160//2
f 87//2 129//2 128//2
f 128//2 160//2 156//2
f 8//2 87//2 128//2
f 128//2 156//2 157//2
f 162//2 153//2 125//2
f 125//2 122//2 163//2
f 124//2 126//2 83//2
f 83//2 82//2 123//2
f 89//2 88//2 45//2
f 45//2 47//2 86//2
f 13//2 50//2 52//2
f 17//2 22//2 7//2
f 7//2 3//2 15//2
f 7//2 15//2 12//2
f 14//2 17//2 7//2
f 7//3 8//3 6//3
f 29//4 31//4 1//4
f 1//4 5//4 39//4
f 1//4 39//4 32//4
f 38//4 29//4 1//4
f 36//4 39//4 5//4
f 6//4 209//4 213//4
f 6//4 213//4 211//4
f 34//4 36//4 5//4
f 35//4 34//4 5//4
f 6//4 211//4 210//4
f 6//4 210//4 212//4
f 35//4 5//4 6//4
f 68//4 33//4 37//4
f 37//4 35//4 6//4
f 67//4 68//4 37//4
f 60//4 67//4 37//4
f 208//4 216//4 169//4
f 208//4 169//4 171//4
f 214//4 208//4 171//4
f 214//4 171//4 179//4
f 212//4 214//4 179//4
f 212//4 179//4 174//4
f 65//4 60//4 37//4
f 63//4 65//4 37//4
f 6//4 212//4 174//4
f 6//4 174//4 176//4
f 62//4 63//4 37//4
f 62//4 37//4 6//4
f 6//4 176//4 175//4
f 6//4 175//4 183//4
f 64//4 62//4 6//4
f 104//4 61//4 66//4
f 66//4 64//4 6//4
f 6//4 183//4 182//4
f 184//4 181//4 139//4
f 182//4 184//4 139//4
f 182//4 139//4 131//4
f 96//4 104//4 66//4
f 95//4 96//4 66//4
f 6//4 182//4 131//4
f 6//4 131//4 132//4
f 99//4 95//4 66//4
f 102//4 99//4 66//4
f 6//4 132//4 138//4
f 6//4 138//4 135//4
f 101//4 102//4 66//4
f 101//4 66//4 6//4
f 6//4 135//4 134//4
f 101//4 6//4 134//4
f 103//4 101//4 134//4
f 103//4 134//4 137//4
f 141//4 98//4 100//4
f 100//4 103//4 137//4
f 100//4 137//4 136//4
f 140//4 141//4 100//4
f 100//4 136//4 133//4
f 1//4 31//4 26//4
f 1//4 26//4 25//4
f 235//4 239//4 2//4
f 233//4 235//4 2//4
f 2//4 1//4 25//4
f 2//4 25//4 27//4
f 234//4 233//4 2//4
f 237//4 234//4 2//4
f 2//4 27//4 30//4
f 28//4 40//4 70//4
f 2//4 30//4 28//4
f 28//4 70//4 76//4
f 28//4 76//4 73//4
f 6//4 245//4 243//4
f 215//4 209//4 6//4
f 204//4 215//4 6//4
f 6//4 243//4 242//4
f 6//4 242//4 244//4
f 206//4 204//4 6//4
f 203//4 206//4 6//4
f 6//4 244//4 246//4
f 203//4 6//4 246//4
f 201//4 203//4 246//4
f 201//4 246//4 240//4
f 201//4 240//4 248//4
f 201//4 248//4 236//4
f 201//4 236//4 237//4
f 28//4 73//4 74//4
f 28//4 74//4 71//4
f 201//4 237//4 2//4
f 202//4 201//4 2//4
f 2//4 28//4 71//4
f 2//4 71//4 72//4
f 2//4 72//4 75//4
f 69//4 59//4 106//4
f 2//4 75//4 69//4
f 69//4 106//4 111//4
f 69//4 111//4 109//4
f 169//4 216//4 205//4
f 167//4 169//4 205//4
f 167//4 205//4 207//4
f 167//4 207//4 202//4
f 69//4 109//4 108//4
f 2//4 69//4 108//4
f 167//4 202//4 2//4
f 2//4 108//4 110//4
f 2//4 110//4 112//4
f 2//4 112//4 107//4
f 107//4 97//4 144//4
f 107//4 144//4 147//4
f 142//4 178//4 177//4
f 146//4 142//4 177//4
f 146//4 177//4 173//4
f 145//4 146//4 173//4
f 145//4 173//4 172//4
f 107//4 147//4 148//4
f 145//4 172//4 170//4
f 107//4 148//4 145//4
f 145//4 170//4 168//4
f 2//4 107//4 145//4
f 145//4 168//4 167//4
f 241//4 245//4 6//4
f 6//4 2//4 239//4
f 6//4 239//4 238//4
f 247//4 241//4 6//4
f 180//4 178//4 142//4
f 142//4 139//4 181//4
f 143//4 144//4 97//4
f 97//4 98//4 141//4
f 105//4 106//4 59//4
f 59//4 61//4 104//4
f 70//4 40//4 33//4
f 3//5 7//5 5//5
f 8//6 4//6 2//6
f 24//7 18//7 33//7
f 18//8 23//8 37//8
f 37//9 23//9 21//9
f 35//10 21//10 19//10
f 34//11 19//11 20//11
f 36//12 20//12 22//12
f 39//13 22//13 17//13
f 32//14 17//14 14//14
f 38//15 14//15 12//15
f 29//16 12//16 15//16
f 15//17 10//17 26//17
f 10//18 9//18 25//18
f 9//19 11//19 27//19
f 11//20 16//20 30//20
f 16//21 13//21 28//21
f 13//22 24//22 40//22
f 45//7 51//7 61//7
f 51//8 58//8 66//8
f 66//9 58//9 56//9
f 64//10 56//10 54//10
f 62//11 54//11 55//11
f 63//12 55//12 53//12
f 65//13 53//13 57//13
f 57//33 52//33 50//33
f 50//34 49//34 67//34
f 67//14 60//14 57//14
f 68//35 67//35 49//35
f 49//15 46//15 76//15
f 76//36 70//36 68//36
f 76//16 46//16 42//16
f 42//17 43//17 74//17
f 43//18 41//18 71//18
f 41//19 44//19 72//19
f 44//20 48//20 75//20
f 48//21 47//21 69//21
f 47//22 45//22 59//22
f 83//7 87//7 98//7
f 87//8 93//8 100//8
f 100//9 93//9 91//9
f 103//10 91//10 90//10
f 101//11 90//11 92//11
f 102//12 92//12 94//12
f 95//13 99//13 94//13
f 88//37 89//37 95//37
f 96//14 95//14 89//14
f 89//4 86//4 84//4
f 105//2 104//2 96//2
f 96//15 84//15 81//15
f 106//38 105//38 81//38
f 81//16 78//16 111//16
f 78//17 79//17 109//17
f 79//18 77//18 108//18
f 77//19 80//19 110//19
f 80//20 85//20 112//20
f 85//21 82//21 107//21
f 82//22 83//22 97//22
f 117//7 122//7 132//7
f 122//8 125//8 138//8
f 138//9 125//9 130//9
f 135//10 130//10 128//10
f 134//11 128//11 129//11
f 137//12 129//12 127//12
f 124//13 133//13 136//13
f 136//39 127//39 126//39
f 121//14 140//14 133//14
f 133//40 124//40 123//40
f 141//41 140//41 121//41
f 121//15 118//15 143//15
f 147//4 144//4 143//4
f 143//16 118//16 114//16
f 114//17 115//17 148//17
f 115//18 113//18 145//18
f 113//19 116//19 146//19
f 116//20 120//20 142//20
f 119//21 139//21 142//21
f 119//22 117//22 131//22
f 151//7 161//7 176//7
f 161//8 155//8 175//8
f 175//9 155//9 158//9
f 183//10 158//10 157//10
f 182//11 157//11 156//11
f 180//4 181//4 184//4
f 184//12 156//12 160//12
f 178//42 180//42 160//42
f 160//13 159//13 177//13
f 177//14 159//14 150//14
f 173//15 150//15 152//15
f 153//43 162//43 170//43
f 170//16 172//16 152//16
f 165//17 168//17 170//17
f 170//44 162//44 163//44
f 165//18 164//18 167//18
f 164//19 166//19 169//19
f 166//20 149//20 171//20
f 149//21 154//21 179//21
f 154//22 151//22 174//22
f 199//7 193//7 209//7
f 193//8 198//8 213//8
f 213//9 198//9 196//9
f 211//10 196//10 195//10
f 210//11 195//11 194//11
f 212//12 194//12 197//12
f 214//13 197//13 192//13
f 208//14 192//14 200//14
f 216//15 200//15 188//15
f 205//16 188//16 190//16
f 190//17 186//17 202//17
f 186//18 185//18 201//18
f 185//19 187//19 203//19
f 187//20 191//20 206//20
f 191//21 189//21 204//21
f 189//22 199//22 215//22
f 231//7 225//7 241//7
f 225//8 229//8 245//8
f 245//9 229//9 227//9
f 243//10 227//10 226//10
f 242//11 226//11 228//11
f 244//12 228//12 230//12
f 246//13 230//13 224//13
f 240//14 224//14 232//14
f 248//15 232//15 220//15
f 236//16 220//16 221//16
f 221//17 218//17 234//17
f 218//18 217//18 233//18
f 217//19 219//19 235//19
f 219//20 223//20 239//20
f 223//21 222//21 238//21
f 222//22 231//22 247//22
