# Blender 5.2.1 LTS
# www.blender.org
mtllib kit_controller_16.mtl
o kit_controller_16
v -0.060000 -0.040000 0.004000
v -0.060000 0.040000 0.004000
v -0.060000 -0.040000 -0.004000
v -0.060000 0.040000 -0.004000
v 0.060000 -0.040000 0.004000
v 0.060000 0.040000 0.004000
v 0.060000 -0.040000 -0.004000
v 0.060000 0.040000 -0.004000
v -0.010000 -0.011000 -0.005000
v -0.010000 -0.010000 -0.004000
v -0.011000 -0.010000 -0.005000
v -0.010000 -0.010866 -0.004501
v -0.010499 -0.010866 -0.005000
v -0.010478 -0.010737 -0.004522
v -0.010499 -0.010000 -0.004134
v -0.010000 -0.010499 -0.004134
v -0.010478 -0.010478 -0.004263
v -0.010866 -0.010499 -0.005000
v -0.010866 -0.010000 -0.004501
v -0.010737 -0.010478 -0.004522
v -0.010000 0.010000 -0.004000
v -0.010000 0.011000 -0.005000
v -0.011000 0.010000 -0.005000
v -0.010000 0.010499 -0.004134
v -0.010499 0.010000 -0.004134
v -0.010478 0.010478 -0.004263
v -0.010499 0.010866 -0.005000
v -0.010000 0.010866 -0.004501
v -0.010478 0.010737 -0.004522
v -0.010866 0.010000 -0.004501
v -0.010866 0.010499 -0.005000
v -0.010737 0.010478 -0.004522
v -0.010000 -0.011000 -0.013000
v -0.011000 -0.010000 -0.013000
v -0.010000 -0.010000 -0.014000
v -0.010499 -0.010866 -0.013000
v -0.010000 -0.010866 -0.013499
v -0.010478 -0.010737 -0.013478
v -0.010866 -0.010000 -0.013499
v -0.010866 -0.010499 -0.013000
v -0.010737 -0.010478 -0.013478
v -0.010000 -0.010499 -0.013866
v -0.010499 -0.010000 -0.013866
v -0.010478 -0.010478 -0.013737
v -0.010000 0.011000 -0.013000
v -0.010000 0.010000 -0.014000
v -0.011000 0.010000 -0.013000
v -0.010000 0.010866 -0.013499
v -0.010499 0.010866 -0.013000
v -0.010478 0.010737 -0.013478
v -0.010499 0.010000 -0.013866
v -0.010000 0.010499 -0.013866
v -0.010478 0.010478 -0.013737
v -0.010866 0.010499 -0.013000
v -0.010866 0.010000 -0.013499
v -0.010737 0.010478 -0.013478
v 0.010000 -0.011000 -0.005000
v 0.011000 -0.010000 -0.005000
v 0.010000 -0.010000 -0.004000
v 0.010499 -0.010866 -0.005000
v 0.010000 -0.010866 -0.004501
v 0.010478 -0.010737 -0.004522
v 0.010866 -0.010000 -0.004501
v 0.010866 -0.010499 -0.005000
v 0.010737 -0.010478 -0.004522
v 0.010000 -0.010499 -0.004134
v 0.010499 -0.010000 -0.004134
v 0.010478 -0.010478 -0.004263
v 0.010000 0.011000 -0.005000
v 0.010000 0.010000 -0.004000
v 0.011000 0.010000 -0.005000
v 0.010000 0.010866 -0.004501
v 0.010499 0.010866 -0.005000
v 0.010478 0.010737 -0.004522
v 0.010499 0.010000 -0.004134
v 0.010000 0.010499 -0.004134
v 0.010478 0.010478 -0.004263
v 0.010866 0.010499 -0.005000
v 0.010866 0.010000 -0.004501
v 0.010737 0.010478 -0.004522
v 0.010000 -0.011000 -0.013000
v 0.010000 -0.010000 -0.014000
v 0.011000 -0.010000 -0.013000
v 0.010000 -0.010866 -0.013499
v 0.010499 -0.010866 -0.013000
v 0.010478 -0.010737 -0.013478
v 0.010499 -0.010000 -0.013866
v 0.010000 -0.010499 -0.013866
v 0.010478 -0.010478 -0.013737
v 0.010866 -0.010499 -0.013000
v 0.010866 -0.010000 -0.013499
v 0.010737 -0.010478 -0.013478
v 0.010000 0.011000 -0.013000
v 0.011000 0.010000 -0.013000
v 0.010000 0.010000 -0.014000
v 0.010499 0.010866 -0.013000
v 0.010000 0.010866 -0.013499
v 0.010478 0.010737 -0.013478
v 0.010866 0.010000 -0.013499
v 0.010866 0.010499 -0.013000
v 0.010737 0.010478 -0.013478
v 0.010000 0.010499 -0.013866
v 0.010499 0.010000 -0.013866
v 0.010478 0.010478 -0.013737
v -0.044500 -0.032000 -0.008500
v -0.044500 -0.031500 -0.008000
v -0.045000 -0.031500 -0.008500
v -0.044500 -0.031933 -0.008250
v -0.044750 -0.031933 -0.008500
v -0.044739 -0.031868 -0.008261
v -0.044750 -0.031500 -0.008067
v -0.044500 -0.031750 -0.008067
v -0.044739 -0.031739 -0.008132
v -0.044933 -0.031750 -0.008500
v -0.044933 -0.031500 -0.008250
v -0.044868 -0.031739 -0.008261
v -0.044500 -0.024500 -0.008000
v -0.044500 -0.024000 -0.008500
v -0.045000 -0.024500 -0.008500
v -0.044500 -0.024250 -0.008067
v -0.044750 -0.024500 -0.008067
v -0.044739 -0.024261 -0.008132
v -0.044750 -0.024067 -0.008500
v -0.044500 -0.024067 -0.008250
v -0.044739 -0.024132 -0.008261
v -0.044933 -0.024500 -0.008250
v -0.044933 -0.024250 -0.008500
v -0.044868 -0.024261 -0.008261
v -0.044500 -0.032000 -0.015500
v -0.045000 -0.031500 -0.015500
v -0.044500 -0.031500 -0.016000
v -0.044750 -0.031933 -0.015500
v -0.044500 -0.031933 -0.015750
v -0.044739 -0.031868 -0.015739
v -0.044933 -0.031500 -0.015750
v -0.044933 -0.031750 -0.015500
v -0.044868 -0.031739 -0.015739
v -0.044500 -0.031750 -0.015933
v -0.044750 -0.031500 -0.015933
v -0.044739 -0.031739 -0.015868
v -0.044500 -0.024000 -0.015500
v -0.044500 -0.024500 -0.016000
v -0.045000 -0.024500 -0.015500
v -0.044500 -0.024067 -0.015750
v -0.044750 -0.024067 -0.015500
v -0.044739 -0.024132 -0.015739
v -0.044750 -0.024500 -0.015933
v -0.044500 -0.024250 -0.015933
v -0.044739 -0.024261 -0.015868
v -0.044933 -0.024250 -0.015500
v -0.044933 -0.024500 -0.015750
v -0.044868 -0.024261 -0.015739
v -0.035500 -0.032000 -0.008500
v -0.035000 -0.031500 -0.008500
v -0.035500 -0.031500 -0.008000
v -0.035250 -0.031933 -0.008500
v -0.035500 -0.031933 -0.008250
v -0.035261 -0.031868 -0.008261
v -0.035067 -0.031500 -0.008250
v -0.035067 -0.031750 -0.008500
v -0.035132 -0.031739 -0.008261
v -0.035500 -0.031750 -0.008067
v -0.035250 -0.031500 -0.008067
v -0.035261 -0.031739 -0.008132
v -0.035500 -0.024000 -0.008500
v -0.035500 -0.024500 -0.008000
v -0.035000 -0.024500 -0.008500
v -0.035500 -0.024067 -0.008250
v -0.035250 -0.024067 -0.008500
v -0.035261 -0.024132 -0.008261
v -0.035250 -0.024500 -0.008067
v -0.035500 -0.024250 -0.008067
v -0.035261 -0.024261 -0.008132
v -0.035067 -0.024250 -0.008500
v -0.035067 -0.024500 -0.008250
v -0.035132 -0.024261 -0.008261
v -0.035500 -0.032000 -0.015500
v -0.035500 -0.031500 -0.016000
v -0.035000 -0.031500 -0.015500
v -0.035500 -0.031933 -0.015750
v -0.035250 -0.031933 -0.015500
v -0.035261 -0.031868 -0.015739
v -0.035250 -0.031500 -0.015933
v -0.035500 -0.031750 -0.015933
v -0.035261 -0.031739 -0.015868
v -0.035067 -0.031750 -0.015500
v -0.035067 -0.031500 -0.015750
v -0.035132 -0.031739 -0.015739
v -0.035500 -0.024000 -0.015500
v -0.035000 -0.024500 -0.015500
v -0.035500 -0.024500 -0.016000
v -0.035250 -0.024067 -0.015500
v -0.035500 -0.024067 -0.015750
v -0.035261 -0.024132 -0.015739
v -0.035067 -0.024500 -0.015750
v -0.035067 -0.024250 -0.015500
v -0.035132 -0.024261 -0.015739
v -0.035500 -0.024250 -0.015933
v -0.035250 -0.024500 -0.015933
v -0.035261 -0.024261 -0.015868
v -0.043000 -0.029000 -0.016000
v -0.043000 -0.027000 -0.016000
v -0.043000 -0.029000 -0.016200
v -0.043000 -0.027000 -0.016200
v -0.037000 -0.029000 -0.016000
v -0.037000 -0.027000 -0.016000
v -0.037000 -0.029000 -0.016200
v -0.037000 -0.027000 -0.016200
v -0.044500 -0.023500 -0.008000
v -0.045000 -0.023500 -0.008500
v -0.044500 -0.023933 -0.008250
v -0.044750 -0.023933 -0.008500
v -0.044739 -0.023868 -0.008261
v -0.044750 -0.023500 -0.008067
v -0.044500 -0.023750 -0.008067
v -0.044739 -0.023739 -0.008132
v -0.044933 -0.023750 -0.008500
v -0.044933 -0.023500 -0.008250
v -0.044868 -0.023739 -0.008261
v -0.044500 -0.016500 -0.008000
v -0.044500 -0.016000 -0.008500
v -0.045000 -0.016500 -0.008500
v -0.044500 -0.016250 -0.008067
v -0.044750 -0.016500 -0.008067
v -0.044739 -0.016261 -0.008132
v -0.044750 -0.016067 -0.008500
v -0.044500 -0.016067 -0.008250
v -0.044739 -0.016132 -0.008261
v -0.044933 -0.016500 -0.008250
v -0.044933 -0.016250 -0.008500
v -0.044868 -0.016261 -0.008261
v -0.045000 -0.023500 -0.015500
v -0.044500 -0.023500 -0.016000
v -0.044750 -0.023933 -0.015500
v -0.044500 -0.023933 -0.015750
v -0.044739 -0.023868 -0.015739
v -0.044933 -0.023500 -0.015750
v -0.044933 -0.023750 -0.015500
v -0.044868 -0.023739 -0.015739
v -0.044500 -0.023750 -0.015933
v -0.044750 -0.023500 -0.015933
v -0.044739 -0.023739 -0.015868
v -0.044500 -0.016000 -0.015500
v -0.044500 -0.016500 -0.016000
v -0.045000 -0.016500 -0.015500
v -0.044500 -0.016067 -0.015750
v -0.044750 -0.016067 -0.015500
v -0.044739 -0.016132 -0.015739
v -0.044750 -0.016500 -0.015933
v -0.044500 -0.016250 -0.015933
v -0.044739 -0.016261 -0.015868
v -0.044933 -0.016250 -0.015500
v -0.044933 -0.016500 -0.015750
v -0.044868 -0.016261 -0.015739
v -0.035000 -0.023500 -0.008500
v -0.035500 -0.023500 -0.008000
v -0.035250 -0.023933 -0.008500
v -0.035500 -0.023933 -0.008250
v -0.035261 -0.023868 -0.008261
v -0.035067 -0.023500 -0.008250
v -0.035067 -0.023750 -0.008500
v -0.035132 -0.023739 -0.008261
v -0.035500 -0.023750 -0.008067
v -0.035250 -0.023500 -0.008067
v -0.035261 -0.023739 -0.008132
v -0.035500 -0.016000 -0.008500
v -0.035500 -0.016500 -0.008000
v -0.035000 -0.016500 -0.008500
v -0.035500 -0.016067 -0.008250
v -0.035250 -0.016067 -0.008500
v -0.035261 -0.016132 -0.008261
v -0.035250 -0.016500 -0.008067
v -0.035500 -0.016250 -0.008067
v -0.035261 -0.016261 -0.008132
v -0.035067 -0.016250 -0.008500
v -0.035067 -0.016500 -0.008250
v -0.035132 -0.016261 -0.008261
v -0.035500 -0.023500 -0.016000
v -0.035000 -0.023500 -0.015500
v -0.035500 -0.023933 -0.015750
v -0.035250 -0.023933 -0.015500
v -0.035261 -0.023868 -0.015739
v -0.035250 -0.023500 -0.015933
v -0.035500 -0.023750 -0.015933
v -0.035261 -0.023739 -0.015868
v -0.035067 -0.023750 -0.015500
v -0.035067 -0.023500 -0.015750
v -0.035132 -0.023739 -0.015739
v -0.035500 -0.016000 -0.015500
v -0.035000 -0.016500 -0.015500
v -0.035500 -0.016500 -0.016000
v -0.035250 -0.016067 -0.015500
v -0.035500 -0.016067 -0.015750
v -0.035261 -0.016132 -0.015739
v -0.035067 -0.016500 -0.015750
v -0.035067 -0.016250 -0.015500
v -0.035132 -0.016261 -0.015739
v -0.035500 -0.016250 -0.015933
v -0.035250 -0.016500 -0.015933
v -0.035261 -0.016261 -0.015868
v -0.043000 -0.021000 -0.016000
v -0.043000 -0.019000 -0.016000
v -0.043000 -0.021000 -0.016200
v -0.043000 -0.019000 -0.016200
v -0.037000 -0.021000 -0.016000
v -0.037000 -0.019000 -0.016000
v -0.037000 -0.021000 -0.016200
v -0.037000 -0.019000 -0.016200
v -0.043000 -0.013000 -0.016000
v -0.043000 -0.011000 -0.016000
v -0.043000 -0.013000 -0.016200
v -0.043000 -0.011000 -0.016200
v -0.037000 -0.013000 -0.016000
v -0.037000 -0.011000 -0.016000
v -0.037000 -0.013000 -0.016200
v -0.037000 -0.011000 -0.016200
v -0.043000 -0.005000 -0.016000
v -0.043000 -0.003000 -0.016000
v -0.043000 -0.005000 -0.016200
v -0.043000 -0.003000 -0.016200
v -0.037000 -0.005000 -0.016000
v -0.037000 -0.003000 -0.016000
v -0.037000 -0.005000 -0.016200
v -0.037000 -0.003000 -0.016200
v -0.043000 0.003000 -0.016000
v -0.043000 0.005000 -0.016000
v -0.043000 0.003000 -0.016200
v -0.043000 0.005000 -0.016200
v -0.037000 0.003000 -0.016000
v -0.037000 0.005000 -0.016000
v -0.037000 0.003000 -0.016200
v -0.037000 0.005000 -0.016200
v -0.043000 0.011000 -0.016000
v -0.043000 0.013000 -0.016000
v -0.043000 0.011000 -0.016200
v -0.043000 0.013000 -0.016200
v -0.037000 0.011000 -0.016000
v -0.037000 0.013000 -0.016000
v -0.037000 0.011000 -0.016200
v -0.037000 0.013000 -0.016200
v -0.043000 0.019000 -0.016000
v -0.043000 0.021000 -0.016000
v -0.043000 0.019000 -0.016200
v -0.043000 0.021000 -0.016200
v -0.037000 0.019000 -0.016000
v -0.037000 0.021000 -0.016000
v -0.037000 0.019000 -0.016200
v -0.037000 0.021000 -0.016200
v -0.043000 0.027000 -0.016000
v -0.043000 0.029000 -0.016000
v -0.043000 0.027000 -0.016200
v -0.043000 0.029000 -0.016200
v -0.037000 0.027000 -0.016000
v -0.037000 0.029000 -0.016000
v -0.037000 0.027000 -0.016200
v -0.037000 0.029000 -0.016200
v 0.035500 -0.032000 -0.008500
v 0.035500 -0.031500 -0.008000
v 0.035000 -0.031500 -0.008500
v 0.035500 -0.031933 -0.008250
v 0.035250 -0.031933 -0.008500
v 0.035261 -0.031868 -0.008261
v 0.035250 -0.031500 -0.008067
v 0.035500 -0.031750 -0.008067
v 0.035261 -0.031739 -0.008132
v 0.035067 -0.031750 -0.008500
v 0.035067 -0.031500 -0.008250
v 0.035132 -0.031739 -0.008261
v 0.035500 -0.024500 -0.008000
v 0.035500 -0.024000 -0.008500
v 0.035000 -0.024500 -0.008500
v 0.035500 -0.024250 -0.008067
v 0.035250 -0.024500 -0.008067
v 0.035261 -0.024261 -0.008132
v 0.035250 -0.024067 -0.008500
v 0.035500 -0.024067 -0.008250
v 0.035261 -0.024132 -0.008261
v 0.035067 -0.024500 -0.008250
v 0.035067 -0.024250 -0.008500
v 0.035132 -0.024261 -0.008261
v 0.035500 -0.032000 -0.015500
v 0.035000 -0.031500 -0.015500
v 0.035500 -0.031500 -0.016000
v 0.035250 -0.031933 -0.015500
v 0.035500 -0.031933 -0.015750
v 0.035261 -0.031868 -0.015739
v 0.035067 -0.031500 -0.015750
v 0.035067 -0.031750 -0.015500
v 0.035132 -0.031739 -0.015739
v 0.035500 -0.031750 -0.015933
v 0.035250 -0.031500 -0.015933
v 0.035261 -0.031739 -0.015868
v 0.035500 -0.024000 -0.015500
v 0.035500 -0.024500 -0.016000
v 0.035000 -0.024500 -0.015500
v 0.035500 -0.024067 -0.015750
v 0.035250 -0.024067 -0.015500
v 0.035261 -0.024132 -0.015739
v 0.035250 -0.024500 -0.015933
v 0.035500 -0.024250 -0.015933
v 0.035261 -0.024261 -0.015868
v 0.035067 -0.024250 -0.015500
v 0.035067 -0.024500 -0.015750
v 0.035132 -0.024261 -0.015739
v 0.044500 -0.032000 -0.008500
v 0.045000 -0.031500 -0.008500
v 0.044500 -0.031500 -0.008000
v 0.044750 -0.031933 -0.008500
v 0.044500 -0.031933 -0.008250
v 0.044739 -0.031868 -0.008261
v 0.044933 -0.031500 -0.008250
v 0.044933 -0.031750 -0.008500
v 0.044868 -0.031739 -0.008261
v 0.044500 -0.031750 -0.008067
v 0.044750 -0.031500 -0.008067
v 0.044739 -0.031739 -0.008132
v 0.044500 -0.024000 -0.008500
v 0.044500 -0.024500 -0.008000
v 0.045000 -0.024500 -0.008500
v 0.044500 -0.024067 -0.008250
v 0.044750 -0.024067 -0.008500
v 0.044739 -0.024132 -0.008261
v 0.044750 -0.024500 -0.008067
v 0.044500 -0.024250 -0.008067
v 0.044739 -0.024261 -0.008132
v 0.044933 -0.024250 -0.008500
v 0.044933 -0.024500 -0.008250
v 0.044868 -0.024261 -0.008261
v 0.044500 -0.032000 -0.015500
v 0.044500 -0.031500 -0.016000
v 0.045000 -0.031500 -0.015500
v 0.044500 -0.031933 -0.015750
v 0.044750 -0.031933 -0.015500
v 0.044739 -0.031868 -0.015739
v 0.044750 -0.031500 -0.015933
v 0.044500 -0.031750 -0.015933
v 0.044739 -0.031739 -0.015868
v 0.044933 -0.031750 -0.015500
v 0.044933 -0.031500 -0.015750
v 0.044868 -0.031739 -0.015739
v 0.044500 -0.024000 -0.015500
v 0.045000 -0.024500 -0.015500
v 0.044500 -0.024500 -0.016000
v 0.044750 -0.024067 -0.015500
v 0.044500 -0.024067 -0.015750
v 0.044739 -0.024132 -0.015739
v 0.044933 -0.024500 -0.015750
v 0.044933 -0.024250 -0.015500
v 0.044868 -0.024261 -0.015739
v 0.044500 -0.024250 -0.015933
v 0.044750 -0.024500 -0.015933
v 0.044739 -0.024261 -0.015868
v 0.037000 -0.029000 -0.016000
v 0.037000 -0.027000 -0.016000
v 0.037000 -0.029000 -0.016200
v 0.037000 -0.027000 -0.016200
v 0.043000 -0.029000 -0.016000
v 0.043000 -0.027000 -0.016000
v 0.043000 -0.029000 -0.016200
v 0.043000 -0.027000 -0.016200
v 0.035500 -0.023500 -0.008000
v 0.035000 -0.023500 -0.008500
v 0.035500 -0.023933 -0.008250
v 0.035250 -0.023933 -0.008500
v 0.035261 -0.023868 -0.008261
v 0.035250 -0.023500 -0.008067
v 0.035500 -0.023750 -0.008067
v 0.035261 -0.023739 -0.008132
v 0.035067 -0.023750 -0.008500
v 0.035067 -0.023500 -0.008250
v 0.035132 -0.023739 -0.008261
v 0.035500 -0.016500 -0.008000
v 0.035500 -0.016000 -0.008500
v 0.035000 -0.016500 -0.008500
v 0.035500 -0.016250 -0.008067
v 0.035250 -0.016500 -0.008067
v 0.035261 -0.016261 -0.008132
v 0.035250 -0.016067 -0.008500
v 0.035500 -0.016067 -0.008250
v 0.035261 -0.016132 -0.008261
v 0.035067 -0.016500 -0.008250
v 0.035067 -0.016250 -0.008500
v 0.035132 -0.016261 -0.008261
v 0.035000 -0.023500 -0.015500
v 0.035500 -0.023500 -0.016000
v 0.035250 -0.023933 -0.015500
v 0.035500 -0.023933 -0.015750
v 0.035261 -0.023868 -0.015739
v 0.035067 -0.023500 -0.015750
v 0.035067 -0.023750 -0.015500
v 0.035132 -0.023739 -0.015739
v 0.035500 -0.023750 -0.015933
v 0.035250 -0.023500 -0.015933
v 0.035261 -0.023739 -0.015868
v 0.035500 -0.016000 -0.015500
v 0.035500 -0.016500 -0.016000
v 0.035000 -0.016500 -0.015500
v 0.035500 -0.016067 -0.015750
v 0.035250 -0.016067 -0.015500
v 0.035261 -0.016132 -0.015739
v 0.035250 -0.016500 -0.015933
v 0.035500 -0.016250 -0.015933
v 0.035261 -0.016261 -0.015868
v 0.035067 -0.016250 -0.015500
v 0.035067 -0.016500 -0.015750
v 0.035132 -0.016261 -0.015739
v 0.045000 -0.023500 -0.008500
v 0.044500 -0.023500 -0.008000
v 0.044750 -0.023933 -0.008500
v 0.044500 -0.023933 -0.008250
v 0.044739 -0.023868 -0.008261
v 0.044933 -0.023500 -0.008250
v 0.044933 -0.023750 -0.008500
v 0.044868 -0.023739 -0.008261
v 0.044500 -0.023750 -0.008067
v 0.044750 -0.023500 -0.008067
v 0.044739 -0.023739 -0.008132
v 0.044500 -0.016000 -0.008500
v 0.044500 -0.016500 -0.008000
v 0.045000 -0.016500 -0.008500
v 0.044500 -0.016067 -0.008250
v 0.044750 -0.016067 -0.008500
v 0.044739 -0.016132 -0.008261
v 0.044750 -0.016500 -0.008067
v 0.044500 -0.016250 -0.008067
v 0.044739 -0.016261 -0.008132
v 0.044933 -0.016250 -0.008500
v 0.044933 -0.016500 -0.008250
v 0.044868 -0.016261 -0.008261
v 0.044500 -0.023500 -0.016000
v 0.045000 -0.023500 -0.015500
v 0.044500 -0.023933 -0.015750
v 0.044750 -0.023933 -0.015500
v 0.044739 -0.023868 -0.015739
v 0.044750 -0.023500 -0.015933
v 0.044500 -0.023750 -0.015933
v 0.044739 -0.023739 -0.015868
v 0.044933 -0.023750 -0.015500
v 0.044933 -0.023500 -0.015750
v 0.044868 -0.023739 -0.015739
v 0.044500 -0.016000 -0.015500
v 0.045000 -0.016500 -0.015500
v 0.044500 -0.016500 -0.016000
v 0.044750 -0.016067 -0.015500
v 0.044500 -0.016067 -0.015750
v 0.044739 -0.016132 -0.015739
v 0.044933 -0.016500 -0.015750
v 0.044933 -0.016250 -0.015500
v 0.044868 -0.016261 -0.015739
v 0.044500 -0.016250 -0.015933
v 0.044750 -0.016500 -0.015933
v 0.044739 -0.016261 -0.015868
v 0.037000 -0.021000 -0.016000
v 0.037000 -0.019000 -0.016000
v 0.037000 -0.021000 -0.016200
v 0.037000 -0.019000 -0.016200
v 0.043000 -0.021000 -0.016000
v 0.043000 -0.019000 -0.016000
v 0.043000 -0.021000 -0.016200
v 0.043000 -0.019000 -0.016200
v 0.037000 -0.013000 -0.016000
v 0.037000 -0.011000 -0.016000
v 0.037000 -0.013000 -0.016200
v 0.037000 -0.011000 -0.016200
v 0.043000 -0.013000 -0.016000
v 0.043000 -0.011000 -0.016000
v 0.043000 -0.013000 -0.016200
v 0.043000 -0.011000 -0.016200
v 0.037000 -0.005000 -0.016000
v 0.037000 -0.003000 -0.016000
v 0.037000 -0.005000 -0.016200
v 0.037000 -0.003000 -0.016200
v 0.043000 -0.005000 -0.016000
v 0.043000 -0.003000 -0.016000
v 0.043000 -0.005000 -0.016200
v 0.043000 -0.003000 -0.016200
v 0.037000 0.003000 -0.016000
v 0.037000 0.005000 -0.016000
v 0.037000 0.003000 -0.016200
v 0.037000 0.005000 -0.016200
v 0.043000 0.003000 -0.016000
v 0.043000 0.005000 -0.016000
v 0.043000 0.003000 -0.016200
v 0.043000 0.005000 -0.016200
v 0.037000 0.011000 -0.016000
v 0.037000 0.013000 -0.016000
v 0.037000 0.011000 -0.016200
v 0.037000 0.013000 -0.016200
v 0.043000 0.011000 -0.016000
v 0.043000 0.013000 -0.016000
v 0.043000 0.011000 -0.016200
v 0.043000 0.013000 -0.016200
v 0.037000 0.019000 -0.016000
v 0.037000 0.021000 -0.016000
v 0.037000 0.019000 -0.016200
v 0.037000 0.021000 -0.016200
v 0.043000 0.019000 -0.016000
v 0.043000 0.021000 -0.016000
v 0.043000 0.019000 -0.016200
v 0.043000 0.021000 -0.016200
v 0.037000 0.027000 -0.016000
v 0.037000 0.029000 -0.016000
v 0.037000 0.027000 -0.016200
v 0.037000 0.029000 -0.016200
v 0.043000 0.027000 -0.016000
v 0.043000 0.029000 -0.016000
v 0.043000 0.027000 -0.016200
v 0.043000 0.029000 -0.016200
v -0.052000 -0.030000 -0.004000
v -0.051848 -0.030765 -0.004000
v -0.051848 -0.029235 -0.004000
v -0.050765 -0.031848 -0.004000
v -0.051414 -0.031414 -0.004000
v -0.050765 -0.028152 -0.004000
v -0.051414 -0.028586 -0.004000
v -0.049235 -0.031848 -0.004000
v -0.049235 -0.028152 -0.004000
v -0.048000 -0.030000 -0.004000
v -0.048152 -0.029235 -0.004000
v -0.048152 -0.030765 -0.004000
v -0.048586 -0.028586 -0.004000
v -0.048586 -0.031414 -0.004000
v -0.050000 -0.032000 -0.004000
v -0.050000 -0.028000 -0.004000
v -0.052000 -0.030000 0.004000
v -0.051848 -0.030765 0.004000
v -0.051848 -0.029235 0.004000
v -0.050765 -0.028152 0.004000
v -0.050765 -0.031848 0.004000
v -0.051414 -0.028586 0.004000
v -0.051414 -0.031414 0.004000
v -0.049235 -0.031848 0.004000
v -0.049235 -0.028152 0.004000
v -0.048000 -0.030000 0.004000
v -0.048152 -0.029235 0.004000
v -0.048152 -0.030765 0.004000
v -0.048586 -0.028586 0.004000
v -0.048586 -0.031414 0.004000
v -0.050000 -0.032000 0.004000
v -0.050000 -0.028000 0.004000
v -0.052000 0.030000 -0.004000
v -0.051848 0.029235 -0.004000
v -0.051848 0.030765 -0.004000
v -0.050765 0.028152 -0.004000
v -0.050765 0.031848 -0.004000
v -0.051414 0.028586 -0.004000
v -0.051414 0.031414 -0.004000
v -0.048586 0.028586 -0.004000
v -0.049235 0.028152 -0.004000
v -0.049235 0.031848 -0.004000
v -0.048000 0.030000 -0.004000
v -0.048152 0.030765 -0.004000
v -0.048152 0.029235 -0.004000
v -0.048586 0.031414 -0.004000
v -0.050000 0.028000 -0.004000
v -0.050000 0.032000 -0.004000
v -0.052000 0.030000 0.004000
v -0.051848 0.029235 0.004000
v -0.051848 0.030765 0.004000
v -0.050765 0.028152 0.004000
v -0.050765 0.031848 0.004000
v -0.051414 0.028586 0.004000
v -0.051414 0.031414 0.004000
v -0.048586 0.028586 0.004000
v -0.049235 0.028152 0.004000
v -0.049235 0.031848 0.004000
v -0.048000 0.030000 0.004000
v -0.048152 0.030765 0.004000
v -0.048152 0.029235 0.004000
v -0.048586 0.031414 0.004000
v -0.050000 0.028000 0.004000
v -0.050000 0.032000 0.004000
v 0.048000 -0.030000 -0.004000
v 0.048152 -0.030765 -0.004000
v 0.048152 -0.029235 -0.004000
v 0.049235 -0.031848 -0.004000
v 0.049235 -0.028152 -0.004000
v 0.048586 -0.031414 -0.004000
v 0.048586 -0.028586 -0.004000
v 0.050765 -0.031848 -0.004000
v 0.050765 -0.028152 -0.004000
v 0.052000 -0.030000 -0.004000
v 0.051848 -0.030765 -0.004000
v 0.051848 -0.029235 -0.004000
v 0.051414 -0.031414 -0.004000
v 0.051414 -0.028586 -0.004000
v 0.050000 -0.028000 -0.004000
v 0.050000 -0.032000 -0.004000
v 0.048000 -0.030000 0.004000
v 0.048152 -0.030765 0.004000
v 0.048152 -0.029235 0.004000
v 0.049235 -0.031848 0.004000
v 0.049235 -0.028152 0.004000
v 0.048586 -0.031414 0.004000
v 0.048586 -0.028586 0.004000
v 0.050765 -0.031848 0.004000
v 0.050765 -0.028152 0.004000
v 0.052000 -0.030000 0.004000
v 0.051848 -0.030765 0.004000
v 0.051848 -0.029235 0.004000
v 0.051414 -0.031414 0.004000
v 0.051414 -0.028586 0.004000
v 0.050000 -0.028000 0.004000
v 0.050000 -0.032000 0.004000
v 0.048000 0.030000 -0.004000
v 0.048152 0.029235 -0.004000
v 0.048152 0.030765 -0.004000
v 0.049235 0.028152 -0.004000
v 0.048586 0.028586 -0.004000
v 0.049235 0.031848 -0.004000
v 0.048586 0.031414 -0.004000
v 0.050765 0.028152 -0.004000
v 0.050765 0.031848 -0.004000
v 0.052000 0.030000 -0.004000
v 0.051848 0.030765 -0.004000
v 0.051848 0.029235 -0.004000
v 0.051414 0.031414 -0.004000
v 0.051414 0.028586 -0.004000
v 0.050000 0.032000 -0.004000
v 0.050000 0.028000 -0.004000
v 0.048000 0.030000 0.004000
v 0.048152 0.029235 0.004000
v 0.048152 0.030765 0.004000
v 0.049235 0.028152 0.004000
v 0.048586 0.028586 0.004000
v 0.049235 0.031848 0.004000
v 0.048586 0.031414 0.004000
v 0.050765 0.028152 0.004000
v 0.050765 0.031848 0.004000
v 0.052000 0.030000 0.004000
v 0.051848 0.030765 0.004000
v 0.051848 0.029235 0.004000
v 0.051414 0.031414 0.004000
v 0.051414 0.028586 0.004000
v 0.050000 0.032000 0.004000
v 0.050000 0.028000 0.004000
vn -1.0000 -0.0000 -0.0000
vn -0.0000 -0.0000 -1.0000
vn 1.0000 -0.0000 -0.0000
vn -0.0000 -0.0000 1.0000
vn -0.0000 -1.0000 -0.0000
vn -0.0000 1.0000 -0.0000
vn -0.2503 -0.9319 0.2625
vn -0.2166 -0.6903 0.6903
vn -0.2625 -0.2503 0.9319
vn -0.6903 -0.2166 0.6903
vn -0.9319 -0.2625 0.2503
vn -0.6903 -0.6903 0.2166
vn -0.5773 -0.5774 0.5773
vn -0.2503 0.2625 0.9319
vn -0.2166 0.6903 0.6903
vn -0.2625 0.9319 0.2503
vn -0.6903 0.6903 0.2166
vn -0.9319 0.2503 0.2625
vn -0.6903 0.2166 0.6903
vn -0.5773 0.5774 0.5773
vn -0.2625 -0.9319 -0.2503
vn -0.6903 -0.6903 -0.2166
vn -0.9319 -0.2503 -0.2625
vn -0.6903 -0.2166 -0.6903
vn -0.2503 -0.2625 -0.9319
vn -0.2166 -0.6903 -0.6903
vn -0.5773 -0.5774 -0.5773
vn -0.2503 0.9319 -0.2625
vn -0.2166 0.6903 -0.6903
vn -0.2625 0.2503 -0.9319
vn -0.6903 0.2166 -0.6903
vn -0.9319 0.2625 -0.2503
vn -0.6903 0.6903 -0.2166
vn -0.5773 0.5774 -0.5773
vn 0.2625 -0.9319 0.2503
vn 0.6903 -0.6903 0.2166
vn 0.9319 -0.2503 0.2625
vn 0.6903 -0.2166 0.6903
vn 0.2503 -0.2625 0.9319
vn 0.2166 -0.6903 0.6903
vn 0.5773 -0.5774 0.5773
vn 0.2503 0.9319 0.2625
vn 0.2166 0.6903 0.6903
vn 0.2625 0.2503 0.9319
vn 0.6903 0.2166 0.6903
vn 0.9319 0.2625 0.2503
vn 0.6903 0.6903 0.2166
vn 0.5773 0.5774 0.5773
vn 0.2503 -0.9319 -0.2625
vn 0.2166 -0.6903 -0.6903
vn 0.2625 -0.2503 -0.9319
vn 0.6903 -0.2166 -0.6903
vn 0.9319 -0.2625 -0.2503
vn 0.6903 -0.6903 -0.2166
vn 0.5773 -0.5774 -0.5773
vn 0.2625 0.9319 -0.2503
vn 0.6903 0.6903 -0.2166
vn 0.9319 0.2503 -0.2625
vn 0.6903 0.2166 -0.6903
vn 0.2503 0.2625 -0.9319
vn 0.2166 0.6903 -0.6903
vn 0.5773 0.5774 -0.5773
vn -0.2594 -0.9658 -0.0000
vn -0.7071 -0.7071 -0.0000
vn -0.9658 -0.2593 -0.0000
vn -0.2593 -0.0000 0.9658
vn -0.7071 -0.0000 0.7071
vn -0.9658 -0.0000 0.2593
vn -0.2594 0.9658 -0.0000
vn -0.7071 0.7071 -0.0000
vn -0.9658 0.2593 -0.0000
vn -0.2593 -0.0000 -0.9658
vn -0.7071 -0.0000 -0.7071
vn -0.9658 -0.0000 -0.2593
vn -0.0000 -0.9658 -0.2593
vn -0.0000 -0.7071 -0.7071
vn -0.0000 -0.2593 -0.9658
vn -0.0000 0.9658 -0.2593
vn -0.0000 0.7071 -0.7071
vn -0.0000 0.2593 -0.9658
vn 0.9658 -0.0000 -0.2593
vn 0.7071 -0.0000 -0.7071
vn 0.2594 -0.0000 -0.9658
vn 0.2594 -0.9658 -0.0000
vn 0.7071 -0.7071 -0.0000
vn 0.9658 -0.2593 -0.0000
vn 0.2594 0.9658 -0.0000
vn 0.7071 0.7071 -0.0000
vn 0.9658 0.2593 -0.0000
vn 0.2593 -0.0000 0.9658
vn 0.7071 -0.0000 0.7071
vn 0.9658 -0.0000 0.2593
vn -0.0000 -0.9658 0.2593
vn -0.0000 -0.7071 0.7071
vn -0.0000 -0.2593 0.9658
vn -0.0000 0.9658 0.2593
vn -0.0000 0.7071 0.7071
vn -0.0000 0.2593 0.9658
vn -0.2496 -0.9314 0.2648
vn -0.2194 -0.6899 0.6899
vn -0.2648 -0.2496 0.9314
vn -0.6899 -0.2194 0.6899
vn -0.9314 -0.2648 0.2496
vn -0.6899 -0.6899 0.2194
vn -0.5774 -0.5774 0.5773
vn -0.2496 0.2648 0.9314
vn -0.2194 0.6899 0.6899
vn -0.2648 0.9314 0.2496
vn -0.6899 0.6899 0.2194
vn -0.9314 0.2496 0.2648
vn -0.6899 0.2194 0.6899
vn -0.5774 0.5774 0.5773
vn -0.2648 -0.9314 -0.2496
vn -0.6899 -0.6899 -0.2194
vn -0.9314 -0.2496 -0.2648
vn -0.6899 -0.2194 -0.6899
vn -0.2496 -0.2648 -0.9314
vn -0.2194 -0.6899 -0.6899
vn -0.5774 -0.5774 -0.5773
vn -0.2496 0.9314 -0.2648
vn -0.2194 0.6899 -0.6899
vn -0.2648 0.2496 -0.9314
vn -0.6899 0.2194 -0.6899
vn -0.9314 0.2648 -0.2496
vn -0.6899 0.6899 -0.2194
vn -0.5774 0.5774 -0.5773
vn 0.2648 -0.9314 0.2496
vn 0.6899 -0.6899 0.2194
vn 0.9314 -0.2496 0.2648
vn 0.6899 -0.2194 0.6899
vn 0.2496 -0.2648 0.9314
vn 0.2194 -0.6899 0.6899
vn 0.5773 -0.5773 0.5774
vn 0.2496 0.9314 0.2648
vn 0.2194 0.6899 0.6899
vn 0.2648 0.2496 0.9314
vn 0.6899 0.2194 0.6899
vn 0.9314 0.2648 0.2496
vn 0.6899 0.6899 0.2194
vn 0.5773 0.5773 0.5774
vn 0.2496 -0.9314 -0.2648
vn 0.2194 -0.6899 -0.6899
vn 0.2648 -0.2496 -0.9314
vn 0.6899 -0.2194 -0.6899
vn 0.9314 -0.2648 -0.2496
vn 0.6899 -0.6899 -0.2194
vn 0.5773 -0.5774 -0.5774
vn 0.2648 0.9314 -0.2496
vn 0.6899 0.6899 -0.2194
vn 0.9314 0.2496 -0.2648
vn 0.6899 0.2194 -0.6899
vn 0.2496 0.2648 -0.9314
vn 0.2194 0.6899 -0.6899
vn 0.5773 0.5774 -0.5774
vn -0.2589 -0.9659 -0.0000
vn -0.9659 -0.2589 -0.0000
vn -0.2589 -0.0000 0.9659
vn -0.9659 -0.0000 0.2589
vn -0.2589 0.9659 -0.0000
vn -0.9659 0.2589 -0.0000
vn -0.2589 -0.0000 -0.9659
vn -0.9659 -0.0000 -0.2589
vn -0.0000 -0.9659 -0.2589
vn -0.0000 -0.2589 -0.9659
vn -0.0000 0.9659 -0.2589
vn -0.0000 0.2589 -0.9659
vn 0.9659 -0.0000 -0.2589
vn 0.2589 -0.0000 -0.9659
vn 0.2589 -0.9659 -0.0000
vn 0.9659 -0.2589 -0.0000
vn 0.2589 0.9659 -0.0000
vn 0.9659 0.2589 -0.0000
vn 0.2589 -0.0000 0.9659
vn 0.9659 -0.0000 0.2589
vn -0.0000 -0.9659 0.2589
vn -0.0000 -0.2589 0.9659
vn -0.0000 0.9659 0.2589
vn -0.0000 0.2589 0.9659
vn -0.5773 -0.5773 0.5774
vn -0.5773 0.5773 0.5774
vn -0.5773 -0.5774 -0.5774
vn -0.5773 0.5774 -0.5774
vn 0.5774 -0.5774 0.5773
vn 0.5774 0.5774 0.5773
vn 0.5774 -0.5774 -0.5773
vn 0.5774 0.5774 -0.5773
vn -0.1949 -0.9808 -0.0000
vn -0.5559 -0.8313 -0.0000
vn -0.8313 -0.5559 -0.0000
vn -0.9808 -0.1949 -0.0000
vn -0.9808 0.1949 -0.0000
vn -0.8313 0.5559 -0.0000
vn -0.5559 0.8313 -0.0000
vn -0.1949 0.9808 -0.0000
vn 0.1949 0.9808 -0.0000
vn 0.5559 0.8313 -0.0000
vn 0.8313 0.5559 -0.0000
vn 0.9808 0.1949 -0.0000
vn 0.9808 -0.1949 -0.0000
vn 0.8313 -0.5559 -0.0000
vn 0.5559 -0.8313 -0.0000
vn 0.1949 -0.9808 -0.0000
vn -0.2625 -0.9319 0.2503
vn -0.2503 -0.2625 0.9319
vn -0.9319 -0.2503 0.2625
vn -0.2625 0.2503 0.9319
vn -0.2503 0.9319 0.2625
vn -0.9319 0.2625 0.2503
vn -0.2503 -0.9319 -0.2625
vn -0.9319 -0.2625 -0.2503
vn -0.2625 -0.2503 -0.9319
vn -0.2625 0.9319 -0.2503
vn -0.2503 0.2625 -0.9319
vn -0.9319 0.2503 -0.2625
vn 0.2503 -0.9319 0.2625
vn 0.9319 -0.2625 0.2503
vn 0.2625 -0.2503 0.9319
vn 0.2625 0.9319 0.2503
vn 0.2503 0.2625 0.9319
vn 0.9319 0.2503 0.2625
vn 0.2625 -0.9319 -0.2503
vn 0.2503 -0.2625 -0.9319
vn 0.9319 -0.2503 -0.2625
vn 0.2503 0.9319 -0.2625
vn 0.9319 0.2625 -0.2503
vn 0.2625 0.2503 -0.9319
vn -0.2593 -0.9658 -0.0000
vn -0.2593 0.9658 -0.0000
vn -0.2594 -0.0000 -0.9658
vn -0.0000 -0.2594 -0.9658
vn -0.0000 0.2594 -0.9658
vn 0.2593 -0.0000 -0.9658
vn 0.2593 -0.9658 -0.0000
vn 0.2593 0.9658 -0.0000
vn -0.2648 -0.9314 0.2496
vn -0.2496 -0.2648 0.9314
vn -0.9314 -0.2496 0.2648
vn -0.2648 0.2496 0.9314
vn -0.2496 0.9314 0.2648
vn -0.9314 0.2648 0.2496
vn -0.2496 -0.9314 -0.2648
vn -0.9314 -0.2648 -0.2496
vn -0.2648 -0.2496 -0.9314
vn -0.2648 0.9314 -0.2496
vn -0.2496 0.2648 -0.9314
vn -0.9314 0.2496 -0.2648
vn 0.2496 -0.9314 0.2648
vn 0.9314 -0.2648 0.2496
vn 0.2648 -0.2496 0.9314
vn 0.2648 0.9314 0.2496
vn 0.2496 0.2648 0.9314
vn 0.9314 0.2496 0.2648
vn 0.2648 -0.9314 -0.2496
vn 0.2496 -0.2648 -0.9314
vn 0.9314 -0.2496 -0.2648
vn 0.2496 0.9314 -0.2648
vn 0.9314 0.2648 -0.2496
vn 0.2648 0.2496 -0.9314
s 0
usemtl BoardBody
f 1//1 4//1 3//1
f 3//2 4//2 611//2
f 656//2 4//2 8//2
f 8//2 677//2 716//2
f 8//2 7//2 684//2
f 617//2 4//2 642//2
f 7//3 6//3 5//3
f 639//4 1//4 5//4
f 693//4 6//4 732//4
f 5//4 6//4 700//4
f 2//4 633//4 662//4
f 2//4 1//4 627//4
f 3//5 5//5 1//5
f 8//6 2//6 6//6
f 624//187 633//187 640//187
f 617//188 637//188 633//188
f 637//189 619//189 635//189
f 635//190 618//190 634//190
f 634//191 620//191 636//191
f 636//192 622//192 638//192
f 638//193 616//193 632//193
f 632//194 623//194 639//194
f 639//195 612//195 629//195
f 629//196 613//196 631//196
f 613//197 626//197 631//197
f 610//198 625//198 626//198
f 609//199 627//199 625//199
f 611//200 630//200 627//200
f 615//201 628//201 630//201
f 614//202 640//202 628//202
f 656//187 666//187 672//187
f 650//188 670//188 666//188
f 670//189 652//189 668//189
f 668//190 651//190 667//190
f 667//191 653//191 669//191
f 669//192 648//192 664//192
f 664//193 649//193 665//193
f 665//194 655//194 671//194
f 671//195 644//195 660//195
f 660//196 646//196 662//196
f 646//197 658//197 662//197
f 642//198 657//198 658//198
f 641//199 659//199 657//199
f 643//200 663//200 659//200
f 647//201 661//201 663//201
f 645//202 672//202 661//202
f 687//187 697//187 703//187
f 681//188 702//188 697//188
f 702//189 684//189 700//189
f 700//190 682//190 698//190
f 698//191 683//191 699//191
f 699//192 685//192 701//192
f 701//193 680//193 696//193
f 696//194 688//194 704//194
f 704//195 676//195 692//195
f 692//196 678//196 694//196
f 678//197 690//197 694//197
f 674//198 689//198 690//198
f 673//199 691//199 689//199
f 675//200 695//200 691//200
f 679//201 693//201 695//201
f 677//202 703//202 693//202
f 719//187 729//187 735//187
f 713//188 733//188 729//188
f 733//189 715//189 731//189
f 731//190 714//190 730//190
f 730//191 716//191 732//191
f 732//192 718//192 734//192
f 734//193 712//193 728//193
f 728//194 720//194 736//194
f 736//195 708//195 724//195
f 724//196 709//196 725//196
f 709//197 722//197 725//197
f 706//198 721//198 722//198
f 705//199 723//199 721//199
f 707//200 727//200 723//200
f 711//201 726//201 727//201
f 710//202 735//202 726//202
f 1//1 2//1 4//1
f 610//2 613//2 3//2
f 4//2 624//2 614//2
f 4//2 614//2 615//2
f 609//2 610//2 3//2
f 4//2 615//2 611//2
f 611//2 609//2 3//2
f 680//2 685//2 7//2
f 3//2 613//2 612//2
f 3//2 612//2 623//2
f 688//2 680//2 7//2
f 676//2 688//2 7//2
f 7//2 3//2 623//2
f 7//2 623//2 616//2
f 678//2 676//2 7//2
f 678//2 7//2 616//2
f 678//2 616//2 622//2
f 674//2 678//2 622//2
f 674//2 622//2 620//2
f 673//2 674//2 620//2
f 673//2 620//2 618//2
f 675//2 673//2 618//2
f 675//2 618//2 619//2
f 720//2 677//2 679//2
f 679//2 675//2 619//2
f 621//2 617//2 655//2
f 679//2 619//2 621//2
f 708//2 720//2 679//2
f 709//2 708//2 679//2
f 679//2 621//2 655//2
f 679//2 655//2 649//2
f 706//2 709//2 679//2
f 705//2 706//2 679//2
f 679//2 649//2 648//2
f 679//2 648//2 653//2
f 705//2 679//2 653//2
f 705//2 653//2 651//2
f 707//2 705//2 651//2
f 707//2 651//2 652//2
f 711//2 707//2 652//2
f 711//2 652//2 654//2
f 710//2 711//2 654//2
f 710//2 654//2 650//2
f 719//2 710//2 650//2
f 719//2 650//2 656//2
f 8//2 717//2 713//2
f 8//2 713//2 719//2
f 645//2 647//2 4//2
f 8//2 719//2 656//2
f 656//2 645//2 4//2
f 715//2 717//2 8//2
f 8//2 687//2 677//2
f 677//2 720//2 712//2
f 677//2 712//2 718//2
f 714//2 715//2 8//2
f 677//2 718//2 716//2
f 716//2 714//2 8//2
f 681//2 687//2 8//2
f 7//2 685//2 683//2
f 7//2 683//2 682//2
f 686//2 681//2 8//2
f 7//2 682//2 684//2
f 684//2 686//2 8//2
f 644//2 655//2 617//2
f 617//2 624//2 4//2
f 4//2 647//2 643//2
f 4//2 643//2 641//2
f 646//2 644//2 617//2
f 4//2 641//2 642//2
f 642//2 646//2 617//2
f 7//3 8//3 6//3
f 729//4 733//4 6//4
f 2//4 663//4 661//4
f 2//4 661//4 672//4
f 735//4 729//4 6//4
f 726//4 735//4 6//4
f 6//4 2//4 672//4
f 6//4 672//4 666//4
f 727//4 726//4 6//4
f 727//4 6//4 666//4
f 727//4 666//4 670//4
f 723//4 727//4 670//4
f 723//4 670//4 668//4
f 721//4 723//4 668//4
f 721//4 668//4 667//4
f 722//4 721//4 667//4
f 722//4 667//4 669//4
f 725//4 722//4 669//4
f 725//4 669//4 664//4
f 693//4 736//4 724//4
f 724//4 725//4 664//4
f 665//4 671//4 637//4
f 724//4 664//4 665//4
f 695//4 693//4 724//4
f 691//4 695//4 724//4
f 724//4 665//4 637//4
f 724//4 637//4 635//4
f 689//4 691//4 724//4
f 689//4 724//4 635//4
f 689//4 635//4 634//4
f 690//4 689//4 634//4
f 690//4 634//4 636//4
f 694//4 690//4 636//4
f 694//4 636//4 638//4
f 692//4 694//4 638//4
f 692//4 638//4 632//4
f 704//4 692//4 632//4
f 704//4 632//4 639//4
f 5//4 701//4 696//4
f 5//4 696//4 704//4
f 629//4 631//4 1//4
f 5//4 704//4 639//4
f 639//4 629//4 1//4
f 728//4 736//4 693//4
f 693//4 703//4 6//4
f 6//4 733//4 731//4
f 6//4 731//4 730//4
f 734//4 728//4 693//4
f 6//4 730//4 732//4
f 732//4 734//4 693//4
f 699//4 701//4 5//4
f 6//4 703//4 697//4
f 6//4 697//4 702//4
f 698//4 699//4 5//4
f 6//4 702//4 700//4
f 700//4 698//4 5//4
f 659//4 663//4 2//4
f 2//4 640//4 633//4
f 633//4 637//4 671//4
f 633//4 671//4 660//4
f 657//4 659//4 2//4
f 658//4 657//4 2//4
f 633//4 660//4 662//4
f 662//4 658//4 2//4
f 628//4 640//4 2//4
f 1//4 631//4 626//4
f 1//4 626//4 625//4
f 630//4 628//4 2//4
f 1//4 625//4 627//4
f 627//4 630//4 2//4
f 3//5 7//5 5//5
f 8//6 4//6 2//6
f 624//187 617//187 633//187
f 617//188 621//188 637//188
f 637//189 621//189 619//189
f 635//190 619//190 618//190
f 634//191 618//191 620//191
f 636//192 620//192 622//192
f 638//193 622//193 616//193
f 632//194 616//194 623//194
f 639//195 623//195 612//195
f 629//196 612//196 613//196
f 613//197 610//197 626//197
f 610//198 609//198 625//198
f 609//199 611//199 627//199
f 611//200 615//200 630//200
f 615//201 614//201 628//201
f 614//202 624//202 640//202
f 656//187 650//187 666//187
f 650//188 654//188 670//188
f 670//189 654//189 652//189
f 668//190 652//190 651//190
f 667//191 651//191 653//191
f 669//192 653//192 648//192
f 664//193 648//193 649//193
f 665//194 649//194 655//194
f 671//195 655//195 644//195
f 660//196 644//196 646//196
f 646//197 642//197 658//197
f 642//198 641//198 657//198
f 641//199 643//199 659//199
f 643//200 647//200 663//200
f 647//201 645//201 661//201
f 645//202 656//202 672//202
f 687//187 681//187 697//187
f 681//188 686//188 702//188
f 702//189 686//189 684//189
f 700//190 684//190 682//190
f 698//191 682//191 683//191
f 699//192 683//192 685//192
f 701//193 685//193 680//193
f 696//194 680//194 688//194
f 704//195 688//195 676//195
f 692//196 676//196 678//196
f 678//197 674//197 690//197
f 674//198 673//198 689//198
f 673//199 675//199 691//199
f 675//200 679//200 695//200
f 679//201 677//201 693//201
f 677//202 687//202 703//202
f 719//187 713//187 729//187
f 713//188 717//188 733//188
f 733//189 717//189 715//189
f 731//190 715//190 714//190
f 730//191 714//191 716//191
f 732//192 716//192 718//192
f 734//193 718//193 712//193
f 728//194 712//194 720//194
f 736//195 720//195 708//195
f 724//196 708//196 709//196
f 709//197 706//197 722//197
f 706//198 705//198 721//198
f 705//199 707//199 723//199
f 707//200 711//200 727//200
f 711//201 710//201 726//201
f 710//202 719//202 735//202
usemtl Black
f 9//7 14//7 13//7
f 12//8 17//8 14//8
f 10//9 17//9 16//9
f 15//10 20//10 17//10
f 11//11 20//11 19//11
f 18//12 14//12 20//12
f 14//13 17//13 20//13
f 21//14 26//14 25//14
f 24//15 29//15 26//15
f 22//16 29//16 28//16
f 27//17 32//17 29//17
f 23//18 32//18 31//18
f 30//19 26//19 32//19
f 26//20 29//20 32//20
f 33//21 38//21 37//21
f 36//22 41//22 38//22
f 34//23 41//23 40//23
f 39//24 44//24 41//24
f 35//25 44//25 43//25
f 42//26 38//26 44//26
f 38//27 41//27 44//27
f 45//28 50//28 49//28
f 48//29 53//29 50//29
f 46//30 53//30 52//30
f 51//31 56//31 53//31
f 47//32 56//32 55//32
f 54//33 50//33 56//33
f 50//34 53//34 56//34
f 57//35 62//35 61//35
f 60//36 65//36 62//36
f 58//37 65//37 64//37
f 63//38 68//38 65//38
f 59//39 68//39 67//39
f 66//40 62//40 68//40
f 62//41 65//41 68//41
f 69//42 74//42 73//42
f 72//43 77//43 74//43
f 70//44 77//44 76//44
f 75//45 80//45 77//45
f 71//46 80//46 79//46
f 78//47 74//47 80//47
f 74//48 77//48 80//48
f 81//49 86//49 85//49
f 84//50 89//50 86//50
f 82//51 89//51 88//51
f 87//52 92//52 89//52
f 83//53 92//53 91//53
f 90//54 86//54 92//54
f 86//55 89//55 92//55
f 93//56 98//56 97//56
f 96//57 101//57 98//57
f 94//58 101//58 100//58
f 99//59 104//59 101//59
f 95//60 104//60 103//60
f 102//61 98//61 104//61
f 98//62 101//62 104//62
f 33//63 13//63 36//63
f 36//64 18//64 40//64
f 40//65 11//65 34//65
f 10//66 25//66 15//66
f 15//67 30//67 19//67
f 19//68 23//68 11//68
f 22//69 49//69 27//69
f 27//70 54//70 31//70
f 31//71 47//71 23//71
f 46//72 43//72 51//72
f 51//73 39//73 55//73
f 55//74 34//74 47//74
f 81//75 37//75 84//75
f 84//76 42//76 88//76
f 88//77 35//77 82//77
f 45//78 97//78 48//78
f 48//79 102//79 52//79
f 52//80 95//80 46//80
f 94//81 91//81 99//81
f 99//82 87//82 103//82
f 103//83 82//83 95//83
f 57//84 85//84 60//84
f 60//85 90//85 64//85
f 64//86 83//86 58//86
f 93//87 73//87 96//87
f 96//88 78//88 100//88
f 100//89 71//89 94//89
f 70//90 67//90 75//90
f 75//91 63//91 79//91
f 79//92 58//92 71//92
f 9//93 61//93 12//93
f 12//94 66//94 16//94
f 16//95 59//95 10//95
f 69//96 28//96 72//96
f 72//97 24//97 76//97
f 76//98 21//98 70//98
f 33//5 57//5 9//5
f 11//1 47//1 34//1
f 59//4 21//4 10//4
f 93//6 22//6 69//6
f 35//2 95//2 82//2
f 83//3 71//3 58//3
f 105//99 110//99 109//99
f 108//100 113//100 110//100
f 106//101 113//101 112//101
f 111//102 116//102 113//102
f 107//103 116//103 115//103
f 114//104 110//104 116//104
f 110//105 113//105 116//105
f 117//106 122//106 121//106
f 120//107 125//107 122//107
f 118//108 125//108 124//108
f 123//109 128//109 125//109
f 119//110 128//110 127//110
f 126//111 122//111 128//111
f 122//112 125//112 128//112
f 129//113 134//113 133//113
f 132//114 137//114 134//114
f 130//115 137//115 136//115
f 135//116 140//116 137//116
f 131//117 140//117 139//117
f 138//118 134//118 140//118
f 134//119 137//119 140//119
f 141//120 146//120 145//120
f 144//121 149//121 146//121
f 142//122 149//122 148//122
f 147//123 152//123 149//123
f 143//124 152//124 151//124
f 150//125 146//125 152//125
f 146//126 149//126 152//126
f 153//127 158//127 157//127
f 156//128 161//128 158//128
f 154//129 161//129 160//129
f 159//130 164//130 161//130
f 155//131 164//131 163//131
f 162//132 158//132 164//132
f 158//133 161//133 164//133
f 165//134 170//134 169//134
f 168//135 173//135 170//135
f 166//136 173//136 172//136
f 171//137 176//137 173//137
f 167//138 176//138 175//138
f 174//139 170//139 176//139
f 170//140 173//140 176//140
f 177//141 182//141 181//141
f 180//142 185//142 182//142
f 178//143 185//143 184//143
f 183//144 188//144 185//144
f 179//145 188//145 187//145
f 186//146 182//146 188//146
f 182//147 185//147 188//147
f 189//148 194//148 193//148
f 192//149 197//149 194//149
f 190//150 197//150 196//150
f 195//151 200//151 197//151
f 191//152 200//152 199//152
f 198//153 194//153 200//153
f 194//154 197//154 200//154
f 129//155 109//155 132//155
f 132//64 114//64 136//64
f 136//156 107//156 130//156
f 106//157 121//157 111//157
f 111//67 126//67 115//67
f 115//158 119//158 107//158
f 118//159 145//159 123//159
f 123//70 150//70 127//70
f 127//160 143//160 119//160
f 142//161 139//161 147//161
f 147//73 135//73 151//73
f 151//162 130//162 143//162
f 177//163 133//163 180//163
f 180//76 138//76 184//76
f 184//164 131//164 178//164
f 141//165 193//165 144//165
f 144//79 198//79 148//79
f 148//166 191//166 142//166
f 190//167 187//167 195//167
f 195//82 183//82 199//82
f 199//168 178//168 191//168
f 153//169 181//169 156//169
f 156//85 186//85 160//85
f 160//170 179//170 154//170
f 189//171 169//171 192//171
f 192//88 174//88 196//88
f 196//172 167//172 190//172
f 166//173 163//173 171//173
f 171//91 159//91 175//91
f 175//174 154//174 167//174
f 105//175 157//175 108//175
f 108//94 162//94 112//94
f 112//176 155//176 106//176
f 165//177 124//177 168//177
f 168//97 120//97 172//97
f 172//178 117//178 166//178
f 129//5 153//5 105//5
f 107//1 143//1 130//1
f 155//4 117//4 106//4
f 131//2 191//2 178//2
f 179//3 167//3 154//3
f 118//99 213//99 212//99
f 211//100 216//100 213//100
f 209//101 216//101 215//101
f 214//102 219//102 216//102
f 210//103 219//103 218//103
f 217//104 213//104 219//104
f 213//105 216//105 219//105
f 220//106 225//106 224//106
f 223//107 228//107 225//107
f 221//108 228//108 227//108
f 226//109 231//109 228//109
f 222//110 231//110 230//110
f 229//111 225//111 231//111
f 225//112 228//112 231//112
f 141//113 236//113 235//113
f 234//114 239//114 236//114
f 232//115 239//115 238//115
f 237//116 242//116 239//116
f 233//117 242//117 241//117
f 240//118 236//118 242//118
f 236//119 239//119 242//119
f 243//120 248//120 247//120
f 246//121 251//121 248//121
f 244//122 251//122 250//122
f 249//123 254//123 251//123
f 245//124 254//124 253//124
f 252//125 248//125 254//125
f 248//126 251//126 254//126
f 165//127 259//127 258//127
f 257//128 262//128 259//128
f 255//129 262//129 261//129
f 260//130 265//130 262//130
f 256//131 265//131 264//131
f 263//132 259//132 265//132
f 259//133 262//133 265//133
f 266//134 271//134 270//134
f 269//135 274//135 271//135
f 267//136 274//136 273//136
f 272//137 277//137 274//137
f 268//138 277//138 276//138
f 275//139 271//139 277//139
f 271//140 274//140 277//140
f 189//141 282//141 281//141
f 280//142 285//142 282//142
f 278//143 285//143 284//143
f 283//144 288//144 285//144
f 279//145 288//145 287//145
f 286//146 282//146 288//146
f 282//147 285//147 288//147
f 289//148 294//148 293//148
f 292//149 297//149 294//149
f 290//150 297//150 296//150
f 295//151 300//151 297//151
f 291//152 300//152 299//152
f 298//153 294//153 300//153
f 294//154 297//154 300//154
f 141//155 212//155 234//155
f 234//64 217//64 238//64
f 238//156 210//156 232//156
f 209//157 224//157 214//157
f 214//67 229//67 218//67
f 218//158 222//158 210//158
f 221//159 247//159 226//159
f 226//70 252//70 230//70
f 230//160 245//160 222//160
f 244//161 241//161 249//161
f 249//73 237//73 253//73
f 253//162 232//162 245//162
f 189//163 235//163 280//163
f 280//76 240//76 284//76
f 284//164 233//164 278//164
f 243//165 293//165 246//165
f 246//79 298//79 250//79
f 250//166 291//166 244//166
f 290//167 287//167 295//167
f 295//82 283//82 299//82
f 299//168 278//168 291//168
f 165//169 281//169 257//169
f 257//85 286//85 261//85
f 261//170 279//170 255//170
f 289//171 270//171 292//171
f 292//88 275//88 296//88
f 296//172 268//172 290//172
f 267//173 264//173 272//173
f 272//91 260//91 276//91
f 276//174 255//174 268//174
f 118//175 258//175 211//175
f 211//94 263//94 215//94
f 215//176 256//176 209//176
f 266//177 227//177 269//177
f 269//97 223//97 273//97
f 273//178 220//178 267//178
f 210//1 245//1 232//1
f 256//4 220//4 209//4
f 289//6 221//6 266//6
f 233//2 291//2 278//2
f 279//3 268//3 255//3
f 357//99 362//99 361//99
f 360//100 365//100 362//100
f 358//101 365//101 364//101
f 363//102 368//102 365//102
f 359//103 368//103 367//103
f 366//104 362//104 368//104
f 362//179 365//179 368//179
f 369//106 374//106 373//106
f 372//107 377//107 374//107
f 370//108 377//108 376//108
f 375//109 380//109 377//109
f 371//110 380//110 379//110
f 378//111 374//111 380//111
f 374//180 377//180 380//180
f 381//113 386//113 385//113
f 384//114 389//114 386//114
f 382//115 389//115 388//115
f 387//116 392//116 389//116
f 383//117 392//117 391//117
f 390//118 386//118 392//118
f 386//181 389//181 392//181
f 393//120 398//120 397//120
f 396//121 401//121 398//121
f 394//122 401//122 400//122
f 399//123 404//123 401//123
f 395//124 404//124 403//124
f 402//125 398//125 404//125
f 398//182 401//182 404//182
f 405//127 410//127 409//127
f 408//128 413//128 410//128
f 406//129 413//129 412//129
f 411//130 416//130 413//130
f 407//131 416//131 415//131
f 414//132 410//132 416//132
f 410//183 413//183 416//183
f 417//134 422//134 421//134
f 420//135 425//135 422//135
f 418//136 425//136 424//136
f 423//137 428//137 425//137
f 419//138 428//138 427//138
f 426//139 422//139 428//139
f 422//184 425//184 428//184
f 429//141 434//141 433//141
f 432//142 437//142 434//142
f 430//143 437//143 436//143
f 435//144 440//144 437//144
f 431//145 440//145 439//145
f 438//146 434//146 440//146
f 434//185 437//185 440//185
f 441//148 446//148 445//148
f 444//149 449//149 446//149
f 442//150 449//150 448//150
f 447//151 452//151 449//151
f 443//152 452//152 451//152
f 450//153 446//153 452//153
f 446//186 449//186 452//186
f 381//155 361//155 384//155
f 384//64 366//64 388//64
f 388//156 359//156 382//156
f 358//157 373//157 363//157
f 363//67 378//67 367//67
f 367//158 371//158 359//158
f 370//159 397//159 375//159
f 375//70 402//70 379//70
f 379//160 395//160 371//160
f 394//161 391//161 399//161
f 399//73 387//73 403//73
f 403//162 382//162 395//162
f 429//163 385//163 432//163
f 432//76 390//76 436//76
f 436//164 383//164 430//164
f 393//165 445//165 396//165
f 396//79 450//79 400//79
f 400//166 443//166 394//166
f 442//167 439//167 447//167
f 447//82 435//82 451//82
f 451//168 430//168 443//168
f 405//169 433//169 408//169
f 408//85 438//85 412//85
f 412//170 431//170 406//170
f 441//171 421//171 444//171
f 444//88 426//88 448//88
f 448//172 419//172 442//172
f 418//173 415//173 423//173
f 423//91 411//91 427//91
f 427//174 406//174 419//174
f 357//175 409//175 360//175
f 360//94 414//94 364//94
f 364//176 407//176 358//176
f 417//177 376//177 420//177
f 420//97 372//97 424//97
f 424//178 369//178 418//178
f 381//5 405//5 357//5
f 359//1 395//1 382//1
f 407//4 369//4 358//4
f 383//2 443//2 430//2
f 431//3 419//3 406//3
f 370//99 465//99 464//99
f 463//100 468//100 465//100
f 461//101 468//101 467//101
f 466//102 471//102 468//102
f 462//103 471//103 470//103
f 469//104 465//104 471//104
f 465//179 468//179 471//179
f 472//106 477//106 476//106
f 475//107 480//107 477//107
f 473//108 480//108 479//108
f 478//109 483//109 480//109
f 474//110 483//110 482//110
f 481//111 477//111 483//111
f 477//180 480//180 483//180
f 393//113 488//113 487//113
f 486//114 491//114 488//114
f 484//115 491//115 490//115
f 489//116 494//116 491//116
f 485//117 494//117 493//117
f 492//118 488//118 494//118
f 488//181 491//181 494//181
f 495//120 500//120 499//120
f 498//121 503//121 500//121
f 496//122 503//122 502//122
f 501//123 506//123 503//123
f 497//124 506//124 505//124
f 504//125 500//125 506//125
f 500//182 503//182 506//182
f 417//127 511//127 510//127
f 509//128 514//128 511//128
f 507//129 514//129 513//129
f 512//130 517//130 514//130
f 508//131 517//131 516//131
f 515//132 511//132 517//132
f 511//183 514//183 517//183
f 518//134 523//134 522//134
f 521//135 526//135 523//135
f 519//136 526//136 525//136
f 524//137 529//137 526//137
f 520//138 529//138 528//138
f 527//139 523//139 529//139
f 523//184 526//184 529//184
f 441//141 534//141 533//141
f 532//142 537//142 534//142
f 530//143 537//143 536//143
f 535//144 540//144 537//144
f 531//145 540//145 539//145
f 538//146 534//146 540//146
f 534//185 537//185 540//185
f 541//148 546//148 545//148
f 544//149 549//149 546//149
f 542//150 549//150 548//150
f 547//151 552//151 549//151
f 543//152 552//152 551//152
f 550//153 546//153 552//153
f 546//186 549//186 552//186
f 393//155 464//155 486//155
f 486//64 469//64 490//64
f 490//156 462//156 484//156
f 461//157 476//157 466//157
f 466//67 481//67 470//67
f 470//158 474//158 462//158
f 473//159 499//159 478//159
f 478//70 504//70 482//70
f 482//160 497//160 474//160
f 496//161 493//161 501//161
f 501//73 489//73 505//73
f 505//162 484//162 497//162
f 441//163 487//163 532//163
f 532//76 492//76 536//76
f 536//164 485//164 530//164
f 495//165 545//165 498//165
f 498//79 550//79 502//79
f 502//166 543//166 496//166
f 542//167 539//167 547//167
f 547//82 535//82 551//82
f 551//168 530//168 543//168
f 417//169 533//169 509//169
f 509//85 538//85 513//85
f 513//170 531//170 507//170
f 541//171 522//171 544//171
f 544//88 527//88 548//88
f 548//172 520//172 542//172
f 519//173 516//173 524//173
f 524//91 512//91 528//91
f 528//174 507//174 520//174
f 370//175 510//175 463//175
f 463//94 515//94 467//94
f 467//176 508//176 461//176
f 518//177 479//177 521//177
f 521//97 475//97 525//97
f 525//178 472//178 519//178
f 462//1 497//1 484//1
f 508//4 472//4 461//4
f 541//6 473//6 518//6
f 485//2 543//2 530//2
f 531//3 520//3 507//3
f 9//203 12//203 14//203
f 12//8 16//8 17//8
f 10//204 15//204 17//204
f 15//10 19//10 20//10
f 11//205 18//205 20//205
f 18//12 13//12 14//12
f 21//206 24//206 26//206
f 24//15 28//15 29//15
f 22//207 27//207 29//207
f 27//17 31//17 32//17
f 23//208 30//208 32//208
f 30//19 25//19 26//19
f 33//209 36//209 38//209
f 36//22 40//22 41//22
f 34//210 39//210 41//210
f 39//24 43//24 44//24
f 35//211 42//211 44//211
f 42//26 37//26 38//26
f 45//212 48//212 50//212
f 48//29 52//29 53//29
f 46//213 51//213 53//213
f 51//31 55//31 56//31
f 47//214 54//214 56//214
f 54//33 49//33 50//33
f 57//215 60//215 62//215
f 60//36 64//36 65//36
f 58//216 63//216 65//216
f 63//38 67//38 68//38
f 59//217 66//217 68//217
f 66//40 61//40 62//40
f 69//218 72//218 74//218
f 72//43 76//43 77//43
f 70//219 75//219 77//219
f 75//45 79//45 80//45
f 71//220 78//220 80//220
f 78//47 73//47 74//47
f 81//221 84//221 86//221
f 84//50 88//50 89//50
f 82//222 87//222 89//222
f 87//52 91//52 92//52
f 83//223 90//223 92//223
f 90//54 85//54 86//54
f 93//224 96//224 98//224
f 96//57 100//57 101//57
f 94//225 99//225 101//225
f 99//59 103//59 104//59
f 95//226 102//226 104//226
f 102//61 97//61 98//61
f 33//227 9//227 13//227
f 36//64 13//64 18//64
f 40//65 18//65 11//65
f 10//66 21//66 25//66
f 15//67 25//67 30//67
f 19//68 30//68 23//68
f 22//228 45//228 49//228
f 27//70 49//70 54//70
f 31//71 54//71 47//71
f 46//229 35//229 43//229
f 51//73 43//73 39//73
f 55//74 39//74 34//74
f 81//75 33//75 37//75
f 84//76 37//76 42//76
f 88//230 42//230 35//230
f 45//78 93//78 97//78
f 48//79 97//79 102//79
f 52//231 102//231 95//231
f 94//81 83//81 91//81
f 99//82 91//82 87//82
f 103//232 87//232 82//232
f 57//233 81//233 85//233
f 60//85 85//85 90//85
f 64//86 90//86 83//86
f 93//234 69//234 73//234
f 96//88 73//88 78//88
f 100//89 78//89 71//89
f 70//90 59//90 67//90
f 75//91 67//91 63//91
f 79//92 63//92 58//92
f 9//93 57//93 61//93
f 12//94 61//94 66//94
f 16//95 66//95 59//95
f 69//96 22//96 28//96
f 72//97 28//97 24//97
f 76//98 24//98 21//98
f 33//5 81//5 57//5
f 11//1 23//1 47//1
f 59//4 70//4 21//4
f 93//6 45//6 22//6
f 35//2 46//2 95//2
f 83//3 94//3 71//3
f 105//235 108//235 110//235
f 108//100 112//100 113//100
f 106//236 111//236 113//236
f 111//102 115//102 116//102
f 107//237 114//237 116//237
f 114//104 109//104 110//104
f 117//238 120//238 122//238
f 120//107 124//107 125//107
f 118//239 123//239 125//239
f 123//109 127//109 128//109
f 119//240 126//240 128//240
f 126//111 121//111 122//111
f 129//241 132//241 134//241
f 132//114 136//114 137//114
f 130//242 135//242 137//242
f 135//116 139//116 140//116
f 131//243 138//243 140//243
f 138//118 133//118 134//118
f 141//244 144//244 146//244
f 144//121 148//121 149//121
f 142//245 147//245 149//245
f 147//123 151//123 152//123
f 143//246 150//246 152//246
f 150//125 145//125 146//125
f 153//247 156//247 158//247
f 156//128 160//128 161//128
f 154//248 159//248 161//248
f 159//130 163//130 164//130
f 155//249 162//249 164//249
f 162//132 157//132 158//132
f 165//250 168//250 170//250
f 168//135 172//135 173//135
f 166//251 171//251 173//251
f 171//137 175//137 176//137
f 167//252 174//252 176//252
f 174//139 169//139 170//139
f 177//253 180//253 182//253
f 180//142 184//142 185//142
f 178//254 183//254 185//254
f 183//144 187//144 188//144
f 179//255 186//255 188//255
f 186//146 181//146 182//146
f 189//256 192//256 194//256
f 192//149 196//149 197//149
f 190//257 195//257 197//257
f 195//151 199//151 200//151
f 191//258 198//258 200//258
f 198//153 193//153 194//153
f 129//155 105//155 109//155
f 132//64 109//64 114//64
f 136//156 114//156 107//156
f 106//157 117//157 121//157
f 111//67 121//67 126//67
f 115//158 126//158 119//158
f 118//159 141//159 145//159
f 123//70 145//70 150//70
f 127//160 150//160 143//160
f 142//161 131//161 139//161
f 147//73 139//73 135//73
f 151//162 135//162 130//162
f 177//163 129//163 133//163
f 180//76 133//76 138//76
f 184//164 138//164 131//164
f 141//165 189//165 193//165
f 144//79 193//79 198//79
f 148//166 198//166 191//166
f 190//167 179//167 187//167
f 195//82 187//82 183//82
f 199//168 183//168 178//168
f 153//169 177//169 181//169
f 156//85 181//85 186//85
f 160//170 186//170 179//170
f 189//171 165//171 169//171
f 192//88 169//88 174//88
f 196//172 174//172 167//172
f 166//173 155//173 163//173
f 171//91 163//91 159//91
f 175//174 159//174 154//174
f 105//175 153//175 157//175
f 108//94 157//94 162//94
f 112//176 162//176 155//176
f 165//177 118//177 124//177
f 168//97 124//97 120//97
f 172//178 120//178 117//178
f 129//5 177//5 153//5
f 107//1 119//1 143//1
f 155//4 166//4 117//4
f 131//2 142//2 191//2
f 179//3 190//3 167//3
f 118//235 211//235 213//235
f 211//100 215//100 216//100
f 209//236 214//236 216//236
f 214//102 218//102 219//102
f 210//237 217//237 219//237
f 217//104 212//104 213//104
f 220//238 223//238 225//238
f 223//107 227//107 228//107
f 221//239 226//239 228//239
f 226//109 230//109 231//109
f 222//240 229//240 231//240
f 229//111 224//111 225//111
f 141//241 234//241 236//241
f 234//114 238//114 239//114
f 232//242 237//242 239//242
f 237//116 241//116 242//116
f 233//243 240//243 242//243
f 240//118 235//118 236//118
f 243//244 246//244 248//244
f 246//121 250//121 251//121
f 244//245 249//245 251//245
f 249//123 253//123 254//123
f 245//246 252//246 254//246
f 252//125 247//125 248//125
f 165//247 257//247 259//247
f 257//128 261//128 262//128
f 255//248 260//248 262//248
f 260//130 264//130 265//130
f 256//249 263//249 265//249
f 263//132 258//132 259//132
f 266//250 269//250 271//250
f 269//135 273//135 274//135
f 267//251 272//251 274//251
f 272//137 276//137 277//137
f 268//252 275//252 277//252
f 275//139 270//139 271//139
f 189//253 280//253 282//253
f 280//142 284//142 285//142
f 278//254 283//254 285//254
f 283//144 287//144 288//144
f 279//255 286//255 288//255
f 286//146 281//146 282//146
f 289//256 292//256 294//256
f 292//149 296//149 297//149
f 290//257 295//257 297//257
f 295//151 299//151 300//151
f 291//258 298//258 300//258
f 298//153 293//153 294//153
f 141//155 118//155 212//155
f 234//64 212//64 217//64
f 238//156 217//156 210//156
f 209//157 220//157 224//157
f 214//67 224//67 229//67
f 218//158 229//158 222//158
f 221//159 243//159 247//159
f 226//70 247//70 252//70
f 230//160 252//160 245//160
f 244//161 233//161 241//161
f 249//73 241//73 237//73
f 253//162 237//162 232//162
f 189//163 141//163 235//163
f 280//76 235//76 240//76
f 284//164 240//164 233//164
f 243//165 289//165 293//165
f 246//79 293//79 298//79
f 250//166 298//166 291//166
f 290//167 279//167 287//167
f 295//82 287//82 283//82
f 299//168 283//168 278//168
f 165//169 189//169 281//169
f 257//85 281//85 286//85
f 261//170 286//170 279//170
f 289//171 266//171 270//171
f 292//88 270//88 275//88
f 296//172 275//172 268//172
f 267//173 256//173 264//173
f 272//91 264//91 260//91
f 276//174 260//174 255//174
f 118//175 165//175 258//175
f 211//94 258//94 263//94
f 215//176 263//176 256//176
f 266//177 221//177 227//177
f 269//97 227//97 223//97
f 273//178 223//178 220//178
f 210//1 222//1 245//1
f 256//4 267//4 220//4
f 289//6 243//6 221//6
f 233//2 244//2 291//2
f 279//3 290//3 268//3
f 357//235 360//235 362//235
f 360//100 364//100 365//100
f 358//236 363//236 365//236
f 363//102 367//102 368//102
f 359//237 366//237 368//237
f 366//104 361//104 362//104
f 369//238 372//238 374//238
f 372//107 376//107 377//107
f 370//239 375//239 377//239
f 375//109 379//109 380//109
f 371//240 378//240 380//240
f 378//111 373//111 374//111
f 381//241 384//241 386//241
f 384//114 388//114 389//114
f 382//242 387//242 389//242
f 387//116 391//116 392//116
f 383//243 390//243 392//243
f 390//118 385//118 386//118
f 393//244 396//244 398//244
f 396//121 400//121 401//121
f 394//245 399//245 401//245
f 399//123 403//123 404//123
f 395//246 402//246 404//246
f 402//125 397//125 398//125
f 405//247 408//247 410//247
f 408//128 412//128 413//128
f 406//248 411//248 413//248
f 411//130 415//130 416//130
f 407//249 414//249 416//249
f 414//132 409//132 410//132
f 417//250 420//250 422//250
f 420//135 424//135 425//135
f 418//251 423//251 425//251
f 423//137 427//137 428//137
f 419//252 426//252 428//252
f 426//139 421//139 422//139
f 429//253 432//253 434//253
f 432//142 436//142 437//142
f 430//254 435//254 437//254
f 435//144 439//144 440//144
f 431//255 438//255 440//255
f 438//146 433//146 434//146
f 441//256 444//256 446//256
f 444//149 448//149 449//149
f 442//257 447//257 449//257
f 447//151 451//151 452//151
f 443//258 450//258 452//258
f 450//153 445//153 446//153
f 381//155 357//155 361//155
f 384//64 361//64 366//64
f 388//156 366//156 359//156
f 358//157 369//157 373//157
f 363//67 373//67 378//67
f 367//158 378//158 371//158
f 370//159 393//159 397//159
f 375//70 397//70 402//70
f 379//160 402//160 395//160
f 394//161 383//161 391//161
f 399//73 391//73 387//73
f 403//162 387//162 382//162
f 429//163 381//163 385//163
f 432//76 385//76 390//76
f 436//164 390//164 383//164
f 393//165 441//165 445//165
f 396//79 445//79 450//79
f 400//166 450//166 443//166
f 442//167 431//167 439//167
f 447//82 439//82 435//82
f 451//168 435//168 430//168
f 405//169 429//169 433//169
f 408//85 433//85 438//85
f 412//170 438//170 431//170
f 441//171 417//171 421//171
f 444//88 421//88 426//88
f 448//172 426//172 419//172
f 418//173 407//173 415//173
f 423//91 415//91 411//91
f 427//174 411//174 406//174
f 357//175 405//175 409//175
f 360//94 409//94 414//94
f 364//176 414//176 407//176
f 417//177 370//177 376//177
f 420//97 376//97 372//97
f 424//178 372//178 369//178
f 381//5 429//5 405//5
f 359//1 371//1 395//1
f 407//4 418//4 369//4
f 383//2 394//2 443//2
f 431//3 442//3 419//3
f 370//235 463//235 465//235
f 463//100 467//100 468//100
f 461//236 466//236 468//236
f 466//102 470//102 471//102
f 462//237 469//237 471//237
f 469//104 464//104 465//104
f 472//238 475//238 477//238
f 475//107 479//107 480//107
f 473//239 478//239 480//239
f 478//109 482//109 483//109
f 474//240 481//240 483//240
f 481//111 476//111 477//111
f 393//241 486//241 488//241
f 486//114 490//114 491//114
f 484//242 489//242 491//242
f 489//116 493//116 494//116
f 485//243 492//243 494//243
f 492//118 487//118 488//118
f 495//244 498//244 500//244
f 498//121 502//121 503//121
f 496//245 501//245 503//245
f 501//123 505//123 506//123
f 497//246 504//246 506//246
f 504//125 499//125 500//125
f 417//247 509//247 511//247
f 509//128 513//128 514//128
f 507//248 512//248 514//248
f 512//130 516//130 517//130
f 508//249 515//249 517//249
f 515//132 510//132 511//132
f 518//250 521//250 523//250
f 521//135 525//135 526//135
f 519//251 524//251 526//251
f 524//137 528//137 529//137
f 520//252 527//252 529//252
f 527//139 522//139 523//139
f 441//253 532//253 534//253
f 532//142 536//142 537//142
f 530//254 535//254 537//254
f 535//144 539//144 540//144
f 531//255 538//255 540//255
f 538//146 533//146 534//146
f 541//256 544//256 546//256
f 544//149 548//149 549//149
f 542//257 547//257 549//257
f 547//151 551//151 552//151
f 543//258 550//258 552//258
f 550//153 545//153 546//153
f 393//155 370//155 464//155
f 486//64 464//64 469//64
f 490//156 469//156 462//156
f 461//157 472//157 476//157
f 466//67 476//67 481//67
f 470//158 481//158 474//158
f 473//159 495//159 499//159
f 478//70 499//70 504//70
f 482//160 504//160 497//160
f 496//161 485//161 493//161
f 501//73 493//73 489//73
f 505//162 489//162 484//162
f 441//163 393//163 487//163
f 532//76 487//76 492//76
f 536//164 492//164 485//164
f 495//165 541//165 545//165
f 498//79 545//79 550//79
f 502//166 550//166 543//166
f 542//167 531//167 539//167
f 547//82 539//82 535//82
f 551//168 535//168 530//168
f 417//169 441//169 533//169
f 509//85 533//85 538//85
f 513//170 538//170 531//170
f 541//171 518//171 522//171
f 544//88 522//88 527//88
f 548//172 527//172 520//172
f 519//173 508//173 516//173
f 524//91 516//91 512//91
f 528//174 512//174 507//174
f 370//175 417//175 510//175
f 463//94 510//94 515//94
f 467//176 515//176 508//176
f 518//177 473//177 479//177
f 521//97 479//97 475//97
f 525//178 475//178 472//178
f 462//1 474//1 497//1
f 508//4 519//4 472//4
f 541//6 495//6 473//6
f 485//2 496//2 543//2
f 531//3 542//3 520//3
usemtl Gold
f 201//1 204//1 203//1
f 203//2 208//2 207//2
f 207//3 206//3 205//3
f 205//4 202//4 201//4
f 203//5 205//5 201//5
f 208//6 202//6 206//6
f 301//1 304//1 303//1
f 303//2 308//2 307//2
f 307//3 306//3 305//3
f 305//4 302//4 301//4
f 303//5 305//5 301//5
f 308//6 302//6 306//6
f 309//1 312//1 311//1
f 311//2 316//2 315//2
f 315//3 314//3 313//3
f 313//4 310//4 309//4
f 311//5 313//5 309//5
f 316//6 310//6 314//6
f 317//1 320//1 319//1
f 319//2 324//2 323//2
f 323//3 322//3 321//3
f 321//4 318//4 317//4
f 319//5 321//5 317//5
f 324//6 318//6 322//6
f 325//1 328//1 327//1
f 327//2 332//2 331//2
f 331//3 330//3 329//3
f 329//4 326//4 325//4
f 327//5 329//5 325//5
f 332//6 326//6 330//6
f 333//1 336//1 335//1
f 335//2 340//2 339//2
f 339//3 338//3 337//3
f 337//4 334//4 333//4
f 335//5 337//5 333//5
f 340//6 334//6 338//6
f 341//1 344//1 343//1
f 343//2 348//2 347//2
f 347//3 346//3 345//3
f 345//4 342//4 341//4
f 343//5 345//5 341//5
f 348//6 342//6 346//6
f 349//1 352//1 351//1
f 351//2 356//2 355//2
f 355//3 354//3 353//3
f 353//4 350//4 349//4
f 351//5 353//5 349//5
f 356//6 350//6 354//6
f 453//1 456//1 455//1
f 455//2 460//2 459//2
f 459//3 458//3 457//3
f 457//4 454//4 453//4
f 455//5 457//5 453//5
f 460//6 454//6 458//6
f 553//1 556//1 555//1
f 555//2 560//2 559//2
f 559//3 558//3 557//3
f 557//4 554//4 553//4
f 555//5 557//5 553//5
f 560//6 554//6 558//6
f 561//1 564//1 563//1
f 563//2 568//2 567//2
f 567//3 566//3 565//3
f 565//4 562//4 561//4
f 563//5 565//5 561//5
f 568//6 562//6 566//6
f 569//1 572//1 571//1
f 571//2 576//2 575//2
f 575//3 574//3 573//3
f 573//4 570//4 569//4
f 571//5 573//5 569//5
f 576//6 570//6 574//6
f 577//1 580//1 579//1
f 579//2 584//2 583//2
f 583//3 582//3 581//3
f 581//4 578//4 577//4
f 579//5 581//5 577//5
f 584//6 578//6 582//6
f 585//1 588//1 587//1
f 587//2 592//2 591//2
f 591//3 590//3 589//3
f 589//4 586//4 585//4
f 587//5 589//5 585//5
f 592//6 586//6 590//6
f 593//1 596//1 595//1
f 595//2 600//2 599//2
f 599//3 598//3 597//3
f 597//4 594//4 593//4
f 595//5 597//5 593//5
f 600//6 594//6 598//6
f 601//1 604//1 603//1
f 603//2 608//2 607//2
f 607//3 606//3 605//3
f 605//4 602//4 601//4
f 603//5 605//5 601//5
f 608//6 602//6 606//6
f 201//1 202//1 204//1
f 203//2 204//2 208//2
f 207//3 208//3 206//3
f 205//4 206//4 202//4
f 203//5 207//5 205//5
f 208//6 204//6 202//6
f 301//1 302//1 304//1
f 303//2 304//2 308//2
f 307//3 308//3 306//3
f 305//4 306//4 302//4
f 303//5 307//5 305//5
f 308//6 304//6 302//6
f 309//1 310//1 312//1
f 311//2 312//2 316//2
f 315//3 316//3 314//3
f 313//4 314//4 310//4
f 311//5 315//5 313//5
f 316//6 312//6 310//6
f 317//1 318//1 320//1
f 319//2 320//2 324//2
f 323//3 324//3 322//3
f 321//4 322//4 318//4
f 319//5 323//5 321//5
f 324//6 320//6 318//6
f 325//1 326//1 328//1
f 327//2 328//2 332//2
f 331//3 332//3 330//3
f 329//4 330//4 326//4
f 327//5 331//5 329//5
f 332//6 328//6 326//6
f 333//1 334//1 336//1
f 335//2 336//2 340//2
f 339//3 340//3 338//3
f 337//4 338//4 334//4
f 335//5 339//5 337//5
f 340//6 336//6 334//6
f 341//1 342//1 344//1
f 343//2 344//2 348//2
f 347//3 348//3 346//3
f 345//4 346//4 342//4
f 343//5 347//5 345//5
f 348//6 344//6 342//6
f 349//1 350//1 352//1
f 351//2 352//2 356//2
f 355//3 356//3 354//3
f 353//4 354//4 350//4
f 351//5 355//5 353//5
f 356//6 352//6 350//6
f 453//1 454//1 456//1
f 455//2 456//2 460//2
f 459//3 460//3 458//3
f 457//4 458//4 454//4
f 455//5 459//5 457//5
f 460//6 456//6 454//6
f 553//1 554//1 556//1
f 555//2 556//2 560//2
f 559//3 560//3 558//3
f 557//4 558//4 554//4
f 555//5 559//5 557//5
f 560//6 556//6 554//6
f 561//1 562//1 564//1
f 563//2 564//2 568//2
f 567//3 568//3 566//3
f 565//4 566//4 562//4
f 563//5 567//5 565//5
f 568//6 564//6 562//6
f 569//1 570//1 572//1
f 571//2 572//2 576//2
f 575//3 576//3 574//3
f 573//4 574//4 570//4
f 571//5 575//5 573//5
f 576//6 572//6 570//6
f 577//1 578//1 580//1
f 579//2 580//2 584//2
f 583//3 584//3 582//3
f 581//4 582//4 578//4
f 579//5 583//5 581//5
f 584//6 580//6 578//6
f 585//1 586//1 588//1
f 587//2 588//2 592//2
f 591//3 592//3 590//3
f 589//4 590//4 586//4
f 587//5 591//5 589//5
f 592//6 588//6 586//6
f 593//1 594//1 596//1
f 595//2 596//2 600//2
f 599//3 600//3 598//3
f 597//4 598//4 594//4
f 595//5 599//5 597//5
f 600//6 596//6 594//6
f 601//1 602//1 604//1
f 603//2 604//2 608//2
f 607//3 608//3 606//3
f 605//4 606//4 602//4
f 603//5 607//5 605//5
f 608//6 604//6 602//6
