# Blender 5.2.1 LTS
# www.blender.org
mtllib kit_angle_bracket.mtl
o kit_angle_bracket
v -0.030000 -0.020000 0.020000
v -0.030000 -0.020000 -0.016000
v -0.030000 -0.016000 0.020000
v -0.030000 0.020000 -0.016000
v -0.030000 -0.020000 -0.020000
v -0.030000 0.020000 -0.020000
v -0.030000 -0.016000 -0.020000
v 0.030000 -0.020000 -0.016000
v 0.030000 -0.020000 0.020000
v 0.030000 0.020000 -0.016000
v 0.030000 -0.016000 0.020000
v 0.030000 -0.020000 -0.020000
v 0.030000 -0.016000 -0.020000
v 0.030000 0.020000 -0.020000
v -0.030000 -0.016000 -0.016000
v -0.030000 -0.016000 -0.016400
v 0.030000 -0.016000 -0.016000
v -0.030000 -0.016400 -0.016000
v -0.030000 -0.016364 -0.016364
v -0.022000 -0.020000 0.000000
v -0.021848 -0.020000 0.000765
v -0.021848 -0.020000 -0.000765
v -0.020765 -0.020000 0.001848
v -0.021414 -0.020000 0.001414
v -0.020765 -0.020000 -0.001848
v -0.021414 -0.020000 -0.001414
v -0.019235 -0.020000 0.001848
v -0.019235 -0.020000 -0.001848
v -0.018000 -0.020000 0.000000
v -0.018152 -0.020000 -0.000765
v -0.018152 -0.020000 0.000765
v -0.018586 -0.020000 -0.001414
v -0.018586 -0.020000 0.001414
v -0.020000 -0.020000 0.002000
v -0.020000 -0.020000 -0.002000
v -0.022000 -0.016000 0.000000
v -0.021848 -0.016000 0.000765
v -0.021848 -0.016000 -0.000765
v -0.020765 -0.016000 -0.001848
v -0.020765 -0.016000 0.001848
v -0.021414 -0.016000 -0.001414
v -0.021414 -0.016000 0.001414
v -0.019235 -0.016000 0.001848
v -0.019235 -0.016000 -0.001848
v -0.018000 -0.016000 0.000000
v -0.018152 -0.016000 -0.000765
v -0.018152 -0.016000 0.000765
v -0.018586 -0.016000 -0.001414
v -0.018586 -0.016000 0.001414
v -0.020000 -0.016000 0.002000
v -0.020000 -0.016000 -0.002000
v -0.022000 0.000000 -0.020000
v -0.021848 -0.000765 -0.020000
v -0.021848 0.000765 -0.020000
v -0.020765 -0.001848 -0.020000
v -0.021414 -0.001414 -0.020000
v -0.020765 0.001848 -0.020000
v -0.021414 0.001414 -0.020000
v -0.019235 -0.001848 -0.020000
v -0.019235 0.001848 -0.020000
v -0.018000 0.000000 -0.020000
v -0.018152 0.000765 -0.020000
v -0.018152 -0.000765 -0.020000
v -0.018586 0.001414 -0.020000
v -0.018586 -0.001414 -0.020000
v -0.020000 -0.002000 -0.020000
v -0.020000 0.002000 -0.020000
v -0.022000 0.000000 -0.016000
v -0.021848 -0.000765 -0.016000
v -0.021848 0.000765 -0.016000
v -0.020765 0.001848 -0.016000
v -0.020765 -0.001848 -0.016000
v -0.021414 0.001414 -0.016000
v -0.021414 -0.001414 -0.016000
v -0.019235 -0.001848 -0.016000
v -0.019235 0.001848 -0.016000
v -0.018000 0.000000 -0.016000
v -0.018152 0.000765 -0.016000
v -0.018152 -0.000765 -0.016000
v -0.018586 0.001414 -0.016000
v -0.018586 -0.001414 -0.016000
v -0.020000 -0.002000 -0.016000
v -0.020000 0.002000 -0.016000
v -0.002000 -0.020000 0.000000
v -0.001707 -0.020000 0.000976
v -0.001848 -0.020000 0.000765
v -0.001848 -0.020000 -0.000765
v -0.000765 -0.020000 -0.001848
v 0.000000 -0.020000 -0.002000
v -0.001414 -0.020000 -0.001414
v 0.000765 -0.020000 0.001848
v 0.001414 -0.020000 -0.001414
v 0.002000 -0.020000 0.000000
v 0.001848 -0.020000 0.000765
v 0.001848 -0.020000 -0.000765
v 0.001414 -0.020000 0.001414
v 0.000765 -0.020000 -0.001848
v 0.000000 -0.020000 0.002000
v -0.001414 -0.020000 0.001414
v -0.000765 -0.020000 0.001848
v 0.000765 -0.016000 0.001848
v 0.001414 -0.016000 0.001414
v -0.002000 -0.016000 0.000000
v -0.001848 -0.016000 0.000765
v -0.001848 -0.016000 -0.000765
v -0.000765 -0.016000 0.001848
v -0.001414 -0.016000 -0.001414
v -0.001414 -0.016000 0.001414
v -0.000765 -0.016000 -0.001848
v 0.000765 -0.016000 -0.001848
v 0.000000 -0.016000 -0.002000
v 0.002000 -0.016000 0.000000
v 0.001848 -0.016000 0.000765
v 0.001848 -0.016000 -0.000765
v 0.001414 -0.016000 -0.001414
v 0.000000 -0.016000 0.002000
v 0.000000 0.002000 -0.020000
v 0.001414 0.001414 -0.020000
v 0.000765 0.001848 -0.020000
v -0.001848 -0.000765 -0.020000
v -0.002000 0.000000 -0.020000
v -0.001848 0.000765 -0.020000
v -0.001414 -0.001414 -0.020000
v -0.001414 0.001414 -0.020000
v -0.000765 -0.001848 -0.020000
v -0.000765 0.001848 -0.020000
v 0.000765 -0.001848 -0.020000
v 0.000000 -0.002000 -0.020000
v 0.002000 0.000000 -0.020000
v 0.001848 -0.000765 -0.020000
v 0.001848 0.000765 -0.020000
v 0.001414 -0.001414 -0.020000
v -0.002000 0.000000 -0.016000
v -0.001848 -0.000765 -0.016000
v -0.001848 0.000765 -0.016000
v 0.000000 -0.002000 -0.016000
v -0.000765 -0.001848 -0.016000
v -0.001707 0.000976 -0.016000
v -0.001414 -0.001414 -0.016000
v 0.001414 -0.001414 -0.016000
v 0.000765 0.001848 -0.016000
v 0.002000 0.000000 -0.016000
v 0.001848 -0.000765 -0.016000
v 0.001848 0.000765 -0.016000
v 0.000765 -0.001848 -0.016000
v 0.001414 0.001414 -0.016000
v -0.001414 0.001414 -0.016000
v -0.000765 0.001848 -0.016000
v 0.000000 0.002000 -0.016000
v 0.018000 -0.020000 0.000000
v 0.018152 -0.020000 0.000765
v 0.018152 -0.020000 -0.000765
v 0.019235 -0.020000 0.001848
v 0.019235 -0.020000 -0.001848
v 0.018586 -0.020000 0.001414
v 0.018586 -0.020000 -0.001414
v 0.020765 -0.020000 0.001848
v 0.020765 -0.020000 -0.001848
v 0.022000 -0.020000 0.000000
v 0.021848 -0.020000 0.000765
v 0.021848 -0.020000 -0.000765
v 0.021414 -0.020000 0.001414
v 0.021414 -0.020000 -0.001414
v 0.020000 -0.020000 -0.002000
v 0.020000 -0.020000 0.002000
v 0.018000 -0.016000 0.000000
v 0.018152 -0.016000 0.000765
v 0.018152 -0.016000 -0.000765
v 0.019235 -0.016000 0.001848
v 0.019235 -0.016000 -0.001848
v 0.018586 -0.016000 0.001414
v 0.018586 -0.016000 -0.001414
v 0.020765 -0.016000 0.001848
v 0.020765 -0.016000 -0.001848
v 0.022000 -0.016000 0.000000
v 0.021848 -0.016000 0.000765
v 0.021848 -0.016000 -0.000765
v 0.021414 -0.016000 0.001414
v 0.021414 -0.016000 -0.001414
v 0.020000 -0.016000 -0.002000
v 0.020000 -0.016000 0.002000
v 0.018000 0.000000 -0.020000
v 0.018152 -0.000765 -0.020000
v 0.018152 0.000765 -0.020000
v 0.019235 -0.001848 -0.020000
v 0.019235 0.001848 -0.020000
v 0.018586 -0.001414 -0.020000
v 0.018586 0.001414 -0.020000
v 0.020765 -0.001848 -0.020000
v 0.020765 0.001848 -0.020000
v 0.022000 0.000000 -0.020000
v 0.021848 -0.000765 -0.020000
v 0.021848 0.000765 -0.020000
v 0.021414 -0.001414 -0.020000
v 0.021414 0.001414 -0.020000
v 0.020000 0.002000 -0.020000
v 0.020000 -0.002000 -0.020000
v 0.018000 0.000000 -0.016000
v 0.018152 -0.000765 -0.016000
v 0.018152 0.000765 -0.016000
v 0.019235 -0.001848 -0.016000
v 0.019235 0.001848 -0.016000
v 0.018586 -0.001414 -0.016000
v 0.018586 0.001414 -0.016000
v 0.020765 -0.001848 -0.016000
v 0.020765 0.001848 -0.016000
v 0.022000 0.000000 -0.016000
v 0.021848 -0.000765 -0.016000
v 0.021848 0.000765 -0.016000
v 0.021414 -0.001414 -0.016000
v 0.021414 0.001414 -0.016000
v 0.020000 0.002000 -0.016000
v 0.020000 -0.002000 -0.016000
vn -1.0000 -0.0000 -0.0000
vn -0.0000 -0.0000 -1.0000
vn 1.0000 -0.0000 -0.0000
vn -0.0000 -0.0000 1.0000
vn -0.0000 -1.0000 -0.0000
vn -0.0000 1.0000 -0.0000
vn -0.1949 -0.0000 0.9808
vn -0.5559 -0.0000 0.8313
vn -0.8313 -0.0000 0.5559
vn -0.9808 -0.0000 0.1949
vn -0.9808 -0.0000 -0.1949
vn -0.8313 -0.0000 -0.5559
vn -0.5559 -0.0000 -0.8313
vn -0.1949 -0.0000 -0.9808
vn 0.1949 -0.0000 -0.9808
vn 0.5559 -0.0000 -0.8313
vn 0.8313 -0.0000 -0.5559
vn 0.9808 -0.0000 -0.1949
vn 0.9808 -0.0000 0.1949
vn 0.8313 -0.0000 0.5559
vn 0.5559 -0.0000 0.8313
vn 0.1949 -0.0000 0.9808
vn -0.1949 -0.9808 -0.0000
vn -0.5559 -0.8313 -0.0000
vn -0.8313 -0.5559 -0.0000
vn -0.9808 -0.1949 -0.0000
vn -0.9808 0.1949 -0.0000
vn -0.8313 0.5559 -0.0000
vn -0.5559 0.8313 -0.0000
vn -0.1949 0.9808 -0.0000
vn 0.1949 0.9808 -0.0000
vn 0.5559 0.8313 -0.0000
vn 0.8313 0.5559 -0.0000
vn 0.9808 0.1949 -0.0000
vn 0.9808 -0.1949 -0.0000
vn 0.8313 -0.5559 -0.0000
vn 0.5559 -0.8313 -0.0000
vn 0.1949 -0.9808 -0.0000
vn 0.8314 -0.0001 -0.5556
vn 0.8312 -0.5560 -0.0000
vn 0.0001 -1.0000 -0.0000
vn 0.8312 -0.0000 -0.5560
vn 0.8314 -0.5556 -0.0000
s 0
usemtl BracketMetal
f 18//1 1//1 15//1
f 15//1 19//1 18//1
f 19//1 7//1 2//1
f 7//2 12//2 5//2
f 17//3 9//3 8//3
f 17//3 12//3 13//3
f 9//4 3//4 1//4
f 1//5 2//5 20//5
f 35//5 2//5 84//5
f 88//5 2//5 8//5
f 9//5 96//5 94//5
f 116//6 11//6 181//6
f 180//6 114//6 170//6
f 45//6 47//6 105//6
f 15//6 3//6 36//6
f 16//1 4//1 7//1
f 19//1 16//1 7//1
f 7//2 6//2 52//2
f 117//2 14//2 196//2
f 130//2 185//2 197//2
f 61//2 62//2 120//2
f 15//1 16//1 19//1
f 13//3 10//3 17//3
f 1//1 3//1 15//1
f 82//4 15//4 133//4
f 137//4 15//4 17//4
f 10//4 146//4 144//4
f 4//4 15//4 68//4
f 18//1 2//1 1//1
f 5//5 8//5 2//5
f 14//6 4//6 10//6
f 51//7 28//7 44//7
f 44//8 32//8 48//8
f 32//9 46//9 48//9
f 30//10 45//10 46//10
f 29//11 47//11 45//11
f 31//12 49//12 47//12
f 33//13 43//13 49//13
f 27//14 50//14 43//14
f 34//15 40//15 50//15
f 23//16 42//16 40//16
f 42//17 21//17 37//17
f 37//18 20//18 36//18
f 36//19 22//19 38//19
f 38//20 26//20 41//20
f 41//21 25//21 39//21
f 39//22 35//22 51//22
f 67//23 76//23 83//23
f 60//24 80//24 76//24
f 80//25 62//25 78//25
f 78//26 61//26 77//26
f 77//27 63//27 79//27
f 79//28 65//28 81//28
f 81//29 59//29 75//29
f 75//30 66//30 82//30
f 82//31 55//31 72//31
f 72//32 56//32 74//32
f 56//33 69//33 74//33
f 53//34 68//34 69//34
f 52//35 70//35 68//35
f 54//36 73//36 70//36
f 58//37 71//37 73//37
f 57//38 83//38 71//38
f 111//7 97//7 110//7
f 110//8 92//8 115//8
f 92//9 114//9 115//9
f 95//10 112//10 114//10
f 93//11 113//11 112//11
f 94//12 102//12 113//12
f 96//13 101//13 102//13
f 91//14 116//14 101//14
f 98//15 106//15 116//15
f 100//16 108//16 106//16
f 108//39 85//39 86//39
f 104//18 84//18 103//18
f 103//19 87//19 105//19
f 105//20 90//20 107//20
f 107//21 88//21 109//21
f 109//22 89//22 111//22
f 117//23 141//23 149//23
f 119//24 146//24 141//24
f 146//25 131//25 144//25
f 144//26 129//26 142//26
f 142//27 130//27 143//27
f 143//28 132//28 140//28
f 140//29 127//29 145//29
f 145//30 128//30 136//30
f 136//31 125//31 137//31
f 137//32 123//32 139//32
f 123//33 134//33 139//33
f 120//34 133//34 134//34
f 121//35 135//35 133//35
f 138//40 122//40 147//40
f 124//37 148//37 147//37
f 126//38 149//38 148//38
f 180//7 158//7 174//7
f 174//8 163//8 179//8
f 163//9 177//9 179//9
f 161//10 175//10 177//10
f 159//11 176//11 175//11
f 160//12 178//12 176//12
f 162//13 173//13 178//13
f 157//14 181//14 173//14
f 165//15 169//15 181//15
f 153//16 171//16 169//16
f 171//17 151//17 167//17
f 167//18 150//18 166//18
f 166//19 152//19 168//19
f 168//20 156//20 172//20
f 172//21 154//21 170//21
f 170//22 164//22 180//22
f 196//23 206//23 212//23
f 190//24 211//24 206//24
f 211//25 193//25 209//25
f 209//26 191//26 207//26
f 207//27 192//27 208//27
f 208//28 194//28 210//28
f 210//29 189//29 205//29
f 205//30 197//30 213//30
f 213//31 185//31 201//31
f 201//32 187//32 203//32
f 187//33 199//33 203//33
f 183//34 198//34 199//34
f 182//35 200//35 198//35
f 184//36 204//36 200//36
f 188//37 202//37 204//37
f 186//38 212//38 202//38
f 7//1 5//1 2//1
f 2//1 18//1 19//1
f 7//2 13//2 12//2
f 17//3 11//3 9//3
f 17//3 8//3 12//3
f 9//4 11//4 3//4
f 24//5 23//5 1//5
f 2//5 25//5 26//5
f 2//5 26//5 22//5
f 21//5 24//5 1//5
f 2//5 22//5 20//5
f 20//5 21//5 1//5
f 86//5 85//5 32//5
f 86//5 32//5 28//5
f 2//5 87//5 84//5
f 84//5 86//5 28//5
f 35//5 25//5 2//5
f 84//5 28//5 35//5
f 152//5 150//5 95//5
f 152//5 95//5 92//5
f 156//5 152//5 92//5
f 156//5 92//5 97//5
f 154//5 156//5 97//5
f 154//5 97//5 89//5
f 8//5 158//5 164//5
f 164//5 154//5 89//5
f 8//5 164//5 89//5
f 90//5 87//5 2//5
f 8//5 89//5 88//5
f 88//5 90//5 2//5
f 163//5 158//5 8//5
f 9//5 1//5 23//5
f 9//5 23//5 34//5
f 161//5 163//5 8//5
f 159//5 161//5 8//5
f 9//5 34//5 27//5
f 9//5 27//5 33//5
f 159//5 8//5 9//5
f 160//5 159//5 9//5
f 9//5 33//5 31//5
f 9//5 31//5 29//5
f 162//5 160//5 9//5
f 157//5 162//5 9//5
f 9//5 29//5 30//5
f 30//5 32//5 85//5
f 30//5 85//5 99//5
f 165//5 157//5 9//5
f 153//5 165//5 9//5
f 30//5 99//5 100//5
f 30//5 100//5 98//5
f 155//5 153//5 9//5
f 95//5 150//5 151//5
f 151//41 155//41 9//41
f 9//5 30//5 98//5
f 9//5 98//5 91//5
f 95//5 151//5 9//5
f 93//5 95//5 9//5
f 9//5 91//5 96//5
f 94//5 93//5 9//5
f 167//6 166//6 114//6
f 167//6 114//6 112//6
f 171//6 167//6 112//6
f 171//6 112//6 113//6
f 169//6 171//6 113//6
f 169//6 113//6 102//6
f 181//6 169//6 102//6
f 181//6 102//6 101//6
f 181//6 101//6 116//6
f 17//6 174//6 179//6
f 40//6 3//6 11//6
f 50//6 40//6 11//6
f 17//6 179//6 177//6
f 17//6 177//6 175//6
f 43//6 50//6 11//6
f 103//6 49//6 43//6
f 104//6 103//6 43//6
f 11//6 17//6 175//6
f 11//6 175//6 176//6
f 108//6 104//6 43//6
f 106//6 108//6 43//6
f 11//6 176//6 178//6
f 11//6 178//6 173//6
f 106//6 43//6 11//6
f 116//6 106//6 11//6
f 11//6 173//6 181//6
f 180//6 174//6 17//6
f 114//6 166//6 168//6
f 114//6 168//6 172//6
f 180//6 17//6 114//6
f 114//6 172//6 170//6
f 115//6 114//6 17//6
f 17//6 15//6 39//6
f 17//6 39//6 51//6
f 110//6 115//6 17//6
f 111//6 110//6 17//6
f 17//6 51//6 44//6
f 17//6 44//6 48//6
f 109//6 111//6 17//6
f 109//6 17//6 48//6
f 109//6 48//6 46//6
f 107//6 109//6 46//6
f 107//6 46//6 45//6
f 49//6 103//6 105//6
f 105//6 107//6 45//6
f 47//6 49//6 105//6
f 41//6 39//6 15//6
f 3//6 40//6 42//6
f 3//6 42//6 37//6
f 38//6 41//6 15//6
f 3//6 37//6 36//6
f 36//6 38//6 15//6
f 16//1 15//1 4//1
f 4//1 6//1 7//1
f 56//2 55//2 7//2
f 6//2 57//2 58//2
f 6//2 58//2 54//2
f 53//2 56//2 7//2
f 6//2 54//2 52//2
f 52//2 53//2 7//2
f 182//2 130//2 129//2
f 182//2 129//2 131//2
f 184//2 182//2 131//2
f 184//2 131//2 118//2
f 188//2 184//2 118//2
f 188//2 118//2 119//2
f 186//2 188//2 119//2
f 186//2 119//2 117//2
f 196//2 186//2 117//2
f 13//2 189//2 194//2
f 57//2 6//2 14//2
f 67//2 57//2 14//2
f 13//2 194//2 192//2
f 13//2 192//2 191//2
f 60//2 67//2 14//2
f 121//2 64//2 60//2
f 122//2 121//2 60//2
f 14//2 13//2 191//2
f 14//2 191//2 193//2
f 124//2 122//2 60//2
f 126//2 124//2 60//2
f 14//2 193//2 195//2
f 14//2 195//2 190//2
f 126//2 60//2 14//2
f 117//2 126//2 14//2
f 14//2 190//2 196//2
f 197//2 189//2 13//2
f 130//2 182//2 183//2
f 130//2 183//2 187//2
f 197//2 13//2 130//2
f 130//2 187//2 185//2
f 132//2 130//2 13//2
f 13//2 7//2 55//2
f 13//2 55//2 66//2
f 127//2 132//2 13//2
f 128//2 127//2 13//2
f 13//2 66//2 59//2
f 13//2 59//2 65//2
f 125//2 128//2 13//2
f 125//2 13//2 65//2
f 125//2 65//2 63//2
f 123//2 125//2 63//2
f 123//2 63//2 61//2
f 64//2 121//2 120//2
f 120//2 123//2 61//2
f 62//2 64//2 120//2
f 13//3 14//3 10//3
f 135//4 138//4 81//4
f 135//4 81//4 75//4
f 15//4 134//4 133//4
f 133//4 135//4 75//4
f 82//4 72//4 15//4
f 133//4 75//4 82//4
f 199//4 198//4 143//4
f 199//4 143//4 140//4
f 203//4 199//4 140//4
f 203//4 140//4 145//4
f 201//4 203//4 145//4
f 201//4 145//4 136//4
f 17//4 205//4 213//4
f 213//4 201//4 136//4
f 17//4 213//4 136//4
f 139//4 134//4 15//4
f 17//4 136//4 137//4
f 137//4 139//4 15//4
f 210//4 205//4 17//4
f 10//4 4//4 71//4
f 10//4 71//4 83//4
f 208//4 210//4 17//4
f 207//4 208//4 17//4
f 10//4 83//4 76//4
f 10//4 76//4 80//4
f 207//4 17//4 10//4
f 209//4 207//4 10//4
f 10//4 80//4 78//4
f 10//4 78//4 77//4
f 211//4 209//4 10//4
f 206//4 211//4 10//4
f 10//4 77//4 79//4
f 79//4 81//4 138//4
f 79//4 138//4 147//4
f 212//4 206//4 10//4
f 202//4 212//4 10//4
f 79//4 147//4 148//4
f 79//4 148//4 149//4
f 204//4 202//4 10//4
f 143//4 198//4 200//4
f 200//4 204//4 10//4
f 10//4 79//4 149//4
f 10//4 149//4 141//4
f 143//4 200//4 10//4
f 142//4 143//4 10//4
f 10//4 141//4 146//4
f 144//4 142//4 10//4
f 73//4 71//4 4//4
f 15//4 72//4 74//4
f 15//4 74//4 69//4
f 70//4 73//4 4//4
f 15//4 69//4 68//4
f 68//4 70//4 4//4
f 5//5 12//5 8//5
f 14//6 6//6 4//6
f 51//7 35//7 28//7
f 44//8 28//8 32//8
f 32//9 30//9 46//9
f 30//10 29//10 45//10
f 29//11 31//11 47//11
f 31//12 33//12 49//12
f 33//13 27//13 43//13
f 27//14 34//14 50//14
f 34//15 23//15 40//15
f 23//16 24//16 42//16
f 42//17 24//17 21//17
f 37//18 21//18 20//18
f 36//19 20//19 22//19
f 38//20 22//20 26//20
f 41//21 26//21 25//21
f 39//22 25//22 35//22
f 67//23 60//23 76//23
f 60//24 64//24 80//24
f 80//25 64//25 62//25
f 78//26 62//26 61//26
f 77//27 61//27 63//27
f 79//28 63//28 65//28
f 81//29 65//29 59//29
f 75//30 59//30 66//30
f 82//31 66//31 55//31
f 72//32 55//32 56//32
f 56//33 53//33 69//33
f 53//34 52//34 68//34
f 52//35 54//35 70//35
f 54//36 58//36 73//36
f 58//37 57//37 71//37
f 57//38 67//38 83//38
f 111//7 89//7 97//7
f 110//8 97//8 92//8
f 92//9 95//9 114//9
f 95//10 93//10 112//10
f 93//11 94//11 113//11
f 94//12 96//12 102//12
f 96//13 91//13 101//13
f 91//14 98//14 116//14
f 98//15 100//15 106//15
f 100//16 99//16 108//16
f 86//17 104//17 108//17
f 108//42 99//42 85//42
f 104//18 86//18 84//18
f 103//19 84//19 87//19
f 105//20 87//20 90//20
f 107//21 90//21 88//21
f 109//22 88//22 89//22
f 117//23 119//23 141//23
f 119//24 118//24 146//24
f 146//25 118//25 131//25
f 144//26 131//26 129//26
f 142//27 129//27 130//27
f 143//28 130//28 132//28
f 140//29 132//29 127//29
f 145//30 127//30 128//30
f 136//31 128//31 125//31
f 137//32 125//32 123//32
f 123//33 120//33 134//33
f 120//34 121//34 133//34
f 121//35 122//35 135//35
f 138//43 135//43 122//43
f 122//36 124//36 147//36
f 124//37 126//37 148//37
f 126//38 117//38 149//38
f 180//7 164//7 158//7
f 174//8 158//8 163//8
f 163//9 161//9 177//9
f 161//10 159//10 175//10
f 159//11 160//11 176//11
f 160//12 162//12 178//12
f 162//13 157//13 173//13
f 157//14 165//14 181//14
f 165//15 153//15 169//15
f 153//16 155//16 171//16
f 171//17 155//17 151//17
f 167//18 151//18 150//18
f 166//19 150//19 152//19
f 168//20 152//20 156//20
f 172//21 156//21 154//21
f 170//22 154//22 164//22
f 196//23 190//23 206//23
f 190//24 195//24 211//24
f 211//25 195//25 193//25
f 209//26 193//26 191//26
f 207//27 191//27 192//27
f 208//28 192//28 194//28
f 210//29 194//29 189//29
f 205//30 189//30 197//30
f 213//31 197//31 185//31
f 201//32 185//32 187//32
f 187//33 183//33 199//33
f 183//34 182//34 198//34
f 182//35 184//35 200//35
f 184//36 188//36 204//36
f 188//37 186//37 202//37
f 186//38 196//38 212//38
