# Blender 5.2.1 LTS
# www.blender.org
mtllib kit_u_bracket_large.mtl
o kit_u_bracket_large
v -0.045000 -0.042000 0.030000
v 0.041000 -0.042000 0.030000
v 0.041000 0.014000 0.030000
v -0.045000 -0.038000 0.030000
v 0.041000 -0.042000 -0.030000
v 0.041000 0.014000 -0.030000
v -0.045000 0.014000 0.030000
v -0.045000 -0.042000 -0.030000
v 0.045000 -0.042000 0.030000
v 0.045000 0.014000 0.030000
v -0.045000 -0.038000 -0.030000
v 0.045000 -0.042000 -0.030000
v 0.045000 0.014000 -0.030000
v -0.045000 0.014000 -0.030000
v -0.041000 -0.042000 0.030000
v 0.045000 -0.038000 0.030000
v -0.041000 0.014000 0.030000
v -0.041000 -0.042000 -0.030000
v 0.045000 -0.038000 -0.030000
v -0.041000 0.014000 -0.030000
v -0.041000 -0.038000 -0.030000
v -0.041000 -0.038000 0.030000
v -0.041286 -0.038000 0.030000
v -0.041000 -0.038178 0.030000
v -0.041274 -0.038166 0.030000
v 0.041000 -0.038000 -0.030000
v 0.041286 -0.038000 -0.030000
v 0.041000 -0.038000 0.030000
v 0.041000 -0.038186 -0.030000
v 0.041273 -0.038173 -0.030000
v -0.045000 0.000000 0.004000
v -0.045000 -0.001531 0.003696
v -0.045000 0.001531 0.003696
v -0.045000 -0.003696 0.001531
v -0.045000 0.003696 0.001531
v -0.045000 -0.002828 0.002828
v -0.045000 0.002828 0.002828
v -0.045000 -0.003696 -0.001531
v -0.045000 0.003696 -0.001531
v -0.045000 0.000000 -0.004000
v -0.045000 -0.001531 -0.003696
v -0.045000 0.001531 -0.003696
v -0.045000 -0.002828 -0.002828
v -0.045000 0.002828 -0.002828
v -0.045000 0.004000 0.000000
v -0.045000 -0.004000 0.000000
v -0.041000 0.000000 0.004000
v -0.041000 -0.001531 0.003696
v -0.041000 0.001531 0.003696
v -0.041000 -0.003696 0.001531
v -0.041000 0.003696 0.001531
v -0.041000 -0.002828 0.002828
v -0.041000 0.002828 0.002828
v -0.041000 -0.003696 -0.001531
v -0.041000 0.003696 -0.001531
v -0.041000 0.000000 -0.004000
v -0.041000 -0.001531 -0.003696
v -0.041000 0.001531 -0.003696
v -0.041000 -0.002828 -0.002828
v -0.041000 0.002828 -0.002828
v -0.041000 0.004000 0.000000
v -0.041000 -0.004000 0.000000
v 0.041000 0.000000 0.004000
v 0.041000 -0.001531 0.003696
v 0.041000 0.001531 0.003696
v 0.041000 -0.003696 0.001531
v 0.041000 -0.002828 0.002828
v 0.041000 0.003696 0.001531
v 0.041000 0.002828 0.002828
v 0.041000 -0.003696 -0.001531
v 0.041000 0.003696 -0.001531
v 0.041000 0.000000 -0.004000
v 0.041000 0.001531 -0.003696
v 0.041000 -0.001531 -0.003696
v 0.041000 0.002828 -0.002828
v 0.041000 -0.002828 -0.002828
v 0.041000 0.004000 0.000000
v 0.041000 -0.004000 0.000000
v 0.045000 0.000000 0.004000
v 0.045000 -0.001531 0.003696
v 0.045000 0.001531 0.003696
v 0.045000 -0.003696 0.001531
v 0.045000 0.003696 0.001531
v 0.045000 -0.002828 0.002828
v 0.045000 0.002828 0.002828
v 0.045000 -0.003696 -0.001531
v 0.045000 0.003696 -0.001531
v 0.045000 0.000000 -0.004000
v 0.045000 -0.001531 -0.003696
v 0.045000 0.001531 -0.003696
v 0.045000 -0.002828 -0.002828
v 0.045000 0.002828 -0.002828
v 0.045000 0.004000 0.000000
v 0.045000 -0.004000 0.000000
v -0.022000 -0.042000 0.000000
v -0.021848 -0.042000 0.000765
v -0.021848 -0.042000 -0.000765
v -0.020765 -0.042000 0.001848
v -0.021414 -0.042000 0.001414
v -0.020765 -0.042000 -0.001848
v -0.021414 -0.042000 -0.001414
v -0.019235 -0.042000 0.001848
v -0.019235 -0.042000 -0.001848
v -0.018000 -0.042000 0.000000
v -0.018152 -0.042000 -0.000765
v -0.018152 -0.042000 0.000765
v -0.018586 -0.042000 -0.001414
v -0.018586 -0.042000 0.001414
v -0.020000 -0.042000 0.002000
v -0.020000 -0.042000 -0.002000
v -0.022000 -0.038000 0.000000
v -0.021848 -0.038000 0.000765
v -0.021848 -0.038000 -0.000765
v -0.020765 -0.038000 -0.001848
v -0.020765 -0.038000 0.001848
v -0.021414 -0.038000 -0.001414
v -0.021414 -0.038000 0.001414
v -0.019235 -0.038000 0.001848
v -0.019235 -0.038000 -0.001848
v -0.018000 -0.038000 0.000000
v -0.018152 -0.038000 -0.000765
v -0.018152 -0.038000 0.000765
v -0.018586 -0.038000 -0.001414
v -0.018586 -0.038000 0.001414
v -0.020000 -0.038000 0.002000
v -0.020000 -0.038000 -0.002000
v -0.001414 -0.042000 -0.001414
v -0.000765 -0.042000 -0.001848
v 0.000765 -0.042000 -0.001848
v 0.000000 -0.042000 -0.002000
v 0.002000 -0.042000 0.000000
v 0.001848 -0.042000 -0.000765
v 0.001848 -0.042000 0.000765
v 0.001414 -0.042000 -0.001414
v -0.002000 -0.042000 0.000000
v -0.001848 -0.042000 0.000765
v -0.001848 -0.042000 -0.000765
v -0.000765 -0.042000 0.001848
v 0.000765 -0.042000 0.001848
v 0.001414 -0.042000 0.001414
v 0.000000 -0.042000 0.002000
v -0.001414 -0.042000 0.001414
v -0.000765 -0.038000 0.001848
v -0.001414 -0.038000 0.001414
v 0.000765 -0.038000 0.001848
v 0.000000 -0.038000 0.002000
v 0.002000 -0.038000 0.000000
v 0.001848 -0.038000 -0.000765
v 0.001414 -0.038000 0.001414
v 0.001848 -0.038000 0.000765
v -0.002000 -0.038000 0.000000
v -0.001848 -0.038000 0.000765
v -0.001848 -0.038000 -0.000765
v -0.000765 -0.038000 -0.001848
v 0.000765 -0.038000 -0.001848
v 0.001414 -0.038000 -0.001414
v 0.000000 -0.038000 -0.002000
v -0.001414 -0.038000 -0.001414
v 0.018000 -0.042000 0.000000
v 0.018152 -0.042000 0.000765
v 0.018152 -0.042000 -0.000765
v 0.019235 -0.042000 0.001848
v 0.019235 -0.042000 -0.001848
v 0.018586 -0.042000 0.001414
v 0.018586 -0.042000 -0.001414
v 0.020765 -0.042000 0.001848
v 0.020765 -0.042000 -0.001848
v 0.022000 -0.042000 0.000000
v 0.021848 -0.042000 0.000765
v 0.021848 -0.042000 -0.000765
v 0.021414 -0.042000 0.001414
v 0.021414 -0.042000 -0.001414
v 0.020000 -0.042000 -0.002000
v 0.020000 -0.042000 0.002000
v 0.018000 -0.038000 0.000000
v 0.018152 -0.038000 0.000765
v 0.018152 -0.038000 -0.000765
v 0.019235 -0.038000 0.001848
v 0.019235 -0.038000 -0.001848
v 0.018586 -0.038000 0.001414
v 0.018586 -0.038000 -0.001414
v 0.020765 -0.038000 0.001848
v 0.020765 -0.038000 -0.001848
v 0.022000 -0.038000 0.000000
v 0.021848 -0.038000 0.000765
v 0.021848 -0.038000 -0.000765
v 0.021414 -0.038000 0.001414
v 0.021414 -0.038000 -0.001414
v 0.020000 -0.038000 -0.002000
v 0.020000 -0.038000 0.002000
v -0.045000 -0.020000 -0.018000
v -0.045000 -0.020765 -0.018152
v -0.045000 -0.019235 -0.018152
v -0.045000 -0.021848 -0.019235
v -0.045000 -0.018152 -0.019235
v -0.045000 -0.021414 -0.018586
v -0.045000 -0.018586 -0.018586
v -0.045000 -0.021848 -0.020765
v -0.045000 -0.018152 -0.020765
v -0.045000 -0.020000 -0.022000
v -0.045000 -0.020765 -0.021848
v -0.045000 -0.019235 -0.021848
v -0.045000 -0.021414 -0.021414
v -0.045000 -0.018586 -0.021414
v -0.045000 -0.018000 -0.020000
v -0.045000 -0.022000 -0.020000
v -0.041000 -0.018586 -0.018586
v -0.041000 -0.019235 -0.018152
v -0.041000 -0.022000 -0.020000
v -0.041000 -0.018000 -0.020000
v -0.041000 -0.018152 -0.019235
v -0.041000 -0.021414 -0.021414
v -0.041000 -0.020000 -0.022000
v -0.041000 -0.020765 -0.021848
v -0.041000 -0.019235 -0.021848
v -0.041000 -0.021848 -0.020765
v -0.041000 -0.018586 -0.021414
v -0.041000 -0.018152 -0.020765
v -0.041000 -0.020000 -0.018000
v -0.041000 -0.021848 -0.019235
v -0.041000 -0.020651 -0.018129
v -0.041000 -0.020765 -0.018152
v -0.041000 -0.021414 -0.018586
v -0.045000 -0.020000 0.022000
v -0.045000 -0.020765 0.021848
v -0.045000 -0.019235 0.021848
v -0.045000 -0.021848 0.020765
v -0.045000 -0.021414 0.021414
v -0.045000 -0.018152 0.020765
v -0.045000 -0.018586 0.021414
v -0.045000 -0.021848 0.019235
v -0.045000 -0.018152 0.019235
v -0.045000 -0.020000 0.018000
v -0.045000 -0.019235 0.018152
v -0.045000 -0.020765 0.018152
v -0.045000 -0.018586 0.018586
v -0.045000 -0.021414 0.018586
v -0.045000 -0.022000 0.020000
v -0.045000 -0.018000 0.020000
v -0.041000 -0.020000 0.022000
v -0.041000 -0.020765 0.021848
v -0.041000 -0.019235 0.021848
v -0.041000 -0.018152 0.020765
v -0.041000 -0.021848 0.020765
v -0.041000 -0.018586 0.021414
v -0.041000 -0.021414 0.021414
v -0.041000 -0.021848 0.019235
v -0.041000 -0.018152 0.019235
v -0.041000 -0.020000 0.018000
v -0.041000 -0.019235 0.018152
v -0.041000 -0.020765 0.018152
v -0.041000 -0.018586 0.018586
v -0.041000 -0.021414 0.018586
v -0.041000 -0.022000 0.020000
v -0.041000 -0.018000 0.020000
v 0.041000 -0.020000 -0.018000
v 0.041000 -0.020765 -0.018152
v 0.041000 -0.019235 -0.018152
v 0.041000 -0.021848 -0.019235
v 0.041000 -0.018152 -0.019235
v 0.041000 -0.021414 -0.018586
v 0.041000 -0.018586 -0.018586
v 0.041000 -0.021848 -0.020765
v 0.041000 -0.018152 -0.020765
v 0.041000 -0.020000 -0.022000
v 0.041000 -0.020765 -0.021848
v 0.041000 -0.019235 -0.021848
v 0.041000 -0.021414 -0.021414
v 0.041000 -0.018586 -0.021414
v 0.041000 -0.018000 -0.020000
v 0.041000 -0.022000 -0.020000
v 0.045000 -0.018586 -0.018586
v 0.045000 -0.019235 -0.018152
v 0.045000 -0.022000 -0.020000
v 0.045000 -0.018000 -0.020000
v 0.045000 -0.018152 -0.019235
v 0.045000 -0.021414 -0.021414
v 0.045000 -0.020000 -0.022000
v 0.045000 -0.020765 -0.021848
v 0.045000 -0.019235 -0.021848
v 0.045000 -0.021848 -0.020765
v 0.045000 -0.018586 -0.021414
v 0.045000 -0.018152 -0.020765
v 0.045000 -0.020000 -0.018000
v 0.045000 -0.021848 -0.019235
v 0.045000 -0.020651 -0.018129
v 0.045000 -0.020765 -0.018152
v 0.045000 -0.021414 -0.018586
v 0.041000 -0.020000 0.022000
v 0.041000 -0.020765 0.021848
v 0.041000 -0.019235 0.021848
v 0.041000 -0.021848 0.020765
v 0.041000 -0.021414 0.021414
v 0.041000 -0.018152 0.020765
v 0.041000 -0.018586 0.021414
v 0.041000 -0.021848 0.019235
v 0.041000 -0.018152 0.019235
v 0.041000 -0.020000 0.018000
v 0.041000 -0.019235 0.018152
v 0.041000 -0.020765 0.018152
v 0.041000 -0.018586 0.018586
v 0.041000 -0.021414 0.018586
v 0.041000 -0.022000 0.020000
v 0.041000 -0.018000 0.020000
v 0.045000 -0.020000 0.022000
v 0.045000 -0.020765 0.021848
v 0.045000 -0.019235 0.021848
v 0.045000 -0.018152 0.020765
v 0.045000 -0.021848 0.020765
v 0.045000 -0.018586 0.021414
v 0.045000 -0.021414 0.021414
v 0.045000 -0.021848 0.019235
v 0.045000 -0.018152 0.019235
v 0.045000 -0.020000 0.018000
v 0.045000 -0.019235 0.018152
v 0.045000 -0.020765 0.018152
v 0.045000 -0.018586 0.018586
v 0.045000 -0.021414 0.018586
v 0.045000 -0.022000 0.020000
v 0.045000 -0.018000 0.020000
vn -0.0000 -0.0000 1.0000
vn -0.0000 -0.0000 -1.0000
vn 1.0000 -0.0000 -0.0000
vn -0.0000 -1.0000 -0.0000
vn -0.0000 1.0000 -0.0000
vn -1.0000 -0.0000 -0.0000
vn -0.0000 0.1948 0.9809
vn -0.0000 0.5562 0.8311
vn -0.0000 0.8311 0.5562
vn -0.0000 0.9809 0.1948
vn -0.0000 0.9809 -0.1948
vn -0.0000 0.8311 -0.5562
vn -0.0000 0.5562 -0.8311
vn -0.0000 0.1948 -0.9809
vn -0.0000 -0.1948 -0.9809
vn -0.0000 -0.5562 -0.8311
vn -0.0000 -0.8311 -0.5562
vn -0.0000 -0.9809 -0.1948
vn -0.0000 -0.9809 0.1948
vn -0.0000 -0.8311 0.5562
vn -0.0000 -0.5562 0.8311
vn -0.0000 -0.1948 0.9809
vn -0.1949 -0.0000 0.9808
vn -0.5559 -0.0000 0.8313
vn -0.8313 -0.0000 0.5559
vn -0.9808 -0.0000 0.1949
vn -0.9808 -0.0000 -0.1949
vn -0.8313 -0.0000 -0.5559
vn -0.5559 -0.0000 -0.8313
vn -0.1949 -0.0000 -0.9808
vn 0.1949 -0.0000 -0.9808
vn 0.5559 -0.0000 -0.8313
vn 0.8313 -0.0000 -0.5559
vn 0.9808 -0.0000 -0.1949
vn 0.9808 -0.0000 0.1949
vn 0.8313 -0.0000 0.5559
vn 0.5559 -0.0000 0.8313
vn 0.1949 -0.0000 0.9808
vn -0.0000 0.1949 0.9808
vn -0.0000 0.5559 0.8313
vn -0.0000 0.8313 0.5559
vn -0.0000 0.9808 0.1949
vn -0.0000 0.9808 -0.1949
vn -0.0000 0.8313 -0.5559
vn -0.0000 0.5559 -0.8313
vn 0.0001 0.1944 -0.9809
vn -0.0000 -0.1949 -0.9808
vn -0.0000 -0.5559 -0.8313
vn -0.0000 -0.8313 -0.5559
vn -0.0000 -0.9808 -0.1949
vn -0.0000 -0.9808 0.1949
vn -0.0000 -0.8313 0.5559
vn -0.0000 -0.5559 0.8313
vn -0.0000 -0.1949 0.9808
vn -0.0000 0.1949 -0.9808
vn -1.0000 -0.0000 -0.0001
vn 1.0000 -0.0000 -0.0001
vn -0.0000 0.1978 -0.9802
s 0
usemtl BracketMetal
f 24//1 22//1 23//1
f 28//1 2//1 9//1
f 29//2 18//2 26//2
f 30//2 19//2 5//2
f 26//2 30//2 29//2
f 11//2 18//2 8//2
f 12//3 16//3 9//3
f 28//1 22//1 24//1
f 28//1 24//1 15//1
f 28//1 9//1 16//1
f 24//1 23//1 25//1
f 25//1 4//1 15//1
f 15//4 18//4 95//4
f 128//4 127//4 18//4
f 2//4 174//4 166//4
f 104//4 105//4 136//4
f 28//5 187//5 182//5
f 26//5 156//5 179//5
f 120//5 122//5 153//5
f 21//5 22//5 111//5
f 7//6 14//6 45//6
f 239//6 46//6 38//6
f 4//6 7//6 224//6
f 14//6 11//6 200//6
f 15//1 2//1 28//1
f 11//2 20//2 21//2
f 12//3 19//3 16//3
f 20//3 210//3 218//3
f 47//3 49//3 255//3
f 17//3 22//3 240//3
f 20//3 17//3 61//3
f 11//2 21//2 18//2
f 23//1 17//1 4//1
f 26//2 27//2 30//2
f 8//4 15//4 1//4
f 20//5 7//5 17//5
f 3//6 6//6 77//6
f 304//6 78//6 70//6
f 28//6 3//6 289//6
f 6//6 26//6 265//6
f 5//2 29//2 30//2
f 27//2 6//2 19//2
f 19//2 12//2 5//2
f 13//3 275//3 283//3
f 79//3 81//3 320//3
f 10//3 16//3 305//3
f 13//3 10//3 93//3
f 30//2 27//2 19//2
f 16//1 3//1 28//1
f 18//2 21//2 26//2
f 5//4 9//4 2//4
f 13//5 3//5 10//5
f 40//7 57//7 56//7
f 41//8 59//8 57//8
f 43//9 54//9 59//9
f 38//10 62//10 54//10
f 46//11 50//11 62//11
f 34//12 52//12 50//12
f 32//13 52//13 36//13
f 31//14 48//14 32//14
f 33//15 47//15 31//15
f 37//16 49//16 33//16
f 35//17 53//17 37//17
f 45//18 51//18 35//18
f 39//19 61//19 45//19
f 44//20 55//20 39//20
f 44//21 58//21 60//21
f 42//22 56//22 58//22
f 72//7 89//7 88//7
f 74//8 91//8 89//8
f 76//9 86//9 91//9
f 70//10 94//10 86//10
f 78//11 82//11 94//11
f 66//12 84//12 82//12
f 64//13 84//13 67//13
f 63//14 80//14 64//14
f 65//15 79//15 63//15
f 69//16 81//16 65//16
f 68//17 85//17 69//17
f 77//18 83//18 68//18
f 71//19 93//19 77//19
f 75//20 87//20 71//20
f 75//21 90//21 92//21
f 73//22 88//22 90//22
f 126//23 103//23 119//23
f 119//24 107//24 123//24
f 107//25 121//25 123//25
f 105//26 120//26 121//26
f 104//27 122//27 120//27
f 106//28 124//28 122//28
f 108//29 118//29 124//29
f 102//30 125//30 118//30
f 109//31 115//31 125//31
f 98//32 117//32 115//32
f 117//33 96//33 112//33
f 112//34 95//34 111//34
f 111//35 97//35 113//35
f 113//36 101//36 116//36
f 116//37 100//37 114//37
f 114//38 110//38 126//38
f 157//23 129//23 155//23
f 155//24 134//24 156//24
f 134//25 148//25 156//25
f 132//26 147//26 148//26
f 131//27 150//27 147//27
f 133//28 149//28 150//28
f 140//29 145//29 149//29
f 139//30 146//30 145//30
f 141//31 143//31 146//31
f 138//32 144//32 143//32
f 144//33 136//33 152//33
f 152//34 135//34 151//34
f 151//35 137//35 153//35
f 153//36 127//36 158//36
f 158//37 128//37 154//37
f 154//38 130//38 157//38
f 189//23 167//23 183//23
f 183//24 172//24 188//24
f 172//25 186//25 188//25
f 170//26 184//26 186//26
f 168//27 185//27 184//27
f 169//28 187//28 185//28
f 171//29 182//29 187//29
f 166//30 190//30 182//30
f 174//31 178//31 190//31
f 162//32 180//32 178//32
f 180//33 160//33 176//33
f 176//34 159//34 175//34
f 175//35 161//35 177//35
f 177//36 165//36 181//36
f 181//37 163//37 179//37
f 179//38 173//38 189//38
f 200//39 214//39 213//39
f 201//40 212//40 214//40
f 203//41 216//41 212//41
f 198//42 209//42 216//42
f 206//43 220//43 209//43
f 194//44 223//44 220//44
f 192//45 223//45 196//45
f 221//46 192//46 219//46
f 191//47 208//47 219//47
f 197//48 208//48 193//48
f 195//49 207//49 197//49
f 205//50 211//50 195//50
f 199//51 210//51 205//51
f 204//52 218//52 199//52
f 204//53 215//53 217//53
f 202//54 213//54 215//54
f 233//39 251//39 249//39
f 235//40 253//40 251//40
f 237//41 247//41 253//41
f 231//42 254//42 247//42
f 238//43 244//43 254//43
f 227//44 246//44 244//44
f 225//45 246//45 228//45
f 224//55 241//55 225//55
f 226//47 240//47 224//47
f 230//48 242//48 226//48
f 229//49 245//49 230//49
f 239//50 243//50 229//50
f 232//51 255//51 239//51
f 236//52 248//52 232//52
f 236//53 250//53 252//53
f 234//54 249//54 250//54
f 265//39 279//39 278//39
f 266//40 277//40 279//40
f 268//41 281//41 277//41
f 263//42 274//42 281//42
f 271//43 285//43 274//43
f 259//44 288//44 285//44
f 257//45 288//45 261//45
f 257//46 284//46 286//46
f 256//47 273//47 284//47
f 262//48 273//48 258//48
f 260//49 272//49 262//49
f 270//50 276//50 260//50
f 264//51 275//51 270//51
f 269//52 283//52 264//52
f 269//53 280//53 282//53
f 267//54 278//54 280//54
f 298//39 316//39 314//39
f 300//40 318//40 316//40
f 302//41 312//41 318//41
f 296//42 319//42 312//42
f 303//43 309//43 319//43
f 292//44 311//44 309//44
f 290//45 311//45 293//45
f 289//55 306//55 290//55
f 291//47 305//47 289//47
f 295//48 307//48 291//48
f 294//49 310//49 295//49
f 304//50 308//50 294//50
f 297//51 320//51 304//51
f 301//52 313//52 297//52
f 301//53 315//53 317//53
f 299//54 314//54 315//54
f 4//6 8//6 1//6
f 29//2 5//2 18//2
f 25//1 23//1 4//1
f 4//1 1//1 15//1
f 15//1 24//1 25//1
f 96//4 99//4 15//4
f 18//4 101//4 97//4
f 95//4 96//4 15//4
f 18//4 97//4 95//4
f 161//4 159//4 140//4
f 161//4 140//4 133//4
f 165//4 161//4 133//4
f 165//4 133//4 131//4
f 163//4 165//4 131//4
f 163//4 131//4 132//4
f 173//4 163//4 132//4
f 173//4 132//4 134//4
f 5//4 172//4 167//4
f 173//4 134//4 129//4
f 5//4 167//4 173//4
f 100//4 101//4 18//4
f 135//4 103//4 110//4
f 110//4 100//4 18//4
f 18//4 5//4 173//4
f 173//4 129//4 130//4
f 18//4 173//4 130//4
f 135//4 110//4 18//4
f 137//4 135//4 18//4
f 18//4 130//4 128//4
f 127//4 137//4 18//4
f 170//4 172//4 5//4
f 140//4 159//4 160//4
f 140//4 160//4 164//4
f 170//4 5//4 2//4
f 168//4 170//4 2//4
f 2//4 140//4 164//4
f 2//4 164//4 162//4
f 169//4 168//4 2//4
f 171//4 169//4 2//4
f 2//4 162//4 174//4
f 166//4 171//4 2//4
f 139//4 140//4 2//4
f 15//4 99//4 98//4
f 15//4 98//4 109//4
f 139//4 2//4 15//4
f 141//4 139//4 15//4
f 15//4 109//4 102//4
f 15//4 102//4 108//4
f 138//4 141//4 15//4
f 142//4 138//4 15//4
f 142//4 15//4 108//4
f 103//4 135//4 136//4
f 136//4 142//4 108//4
f 136//4 108//4 106//4
f 107//4 103//4 136//4
f 105//4 107//4 136//4
f 136//4 106//4 104//4
f 176//5 175//5 156//5
f 176//5 156//5 148//5
f 180//5 176//5 148//5
f 180//5 148//5 147//5
f 178//5 180//5 147//5
f 178//5 147//5 150//5
f 190//5 178//5 150//5
f 190//5 150//5 149//5
f 190//5 149//5 145//5
f 190//5 145//5 146//5
f 152//5 151//5 118//5
f 152//5 118//5 125//5
f 144//5 152//5 125//5
f 115//5 117//5 22//5
f 143//5 144//5 125//5
f 125//5 115//5 22//5
f 26//5 188//5 186//5
f 26//5 186//5 184//5
f 125//5 22//5 28//5
f 146//5 143//5 125//5
f 146//5 125//5 28//5
f 28//5 26//5 184//5
f 28//5 184//5 185//5
f 190//5 146//5 28//5
f 182//5 190//5 28//5
f 28//5 185//5 187//5
f 183//5 188//5 26//5
f 156//5 175//5 177//5
f 156//5 177//5 181//5
f 189//5 183//5 26//5
f 156//5 181//5 179//5
f 179//5 189//5 26//5
f 155//5 156//5 26//5
f 21//5 116//5 114//5
f 21//5 114//5 126//5
f 155//5 26//5 21//5
f 157//5 155//5 21//5
f 21//5 126//5 119//5
f 21//5 119//5 123//5
f 154//5 157//5 21//5
f 158//5 154//5 21//5
f 158//5 21//5 123//5
f 118//5 151//5 153//5
f 153//5 158//5 123//5
f 153//5 123//5 121//5
f 124//5 118//5 153//5
f 122//5 124//5 153//5
f 153//5 121//5 120//5
f 113//5 116//5 21//5
f 22//5 117//5 112//5
f 111//5 113//5 21//5
f 22//5 112//5 111//5
f 37//6 33//6 7//6
f 14//6 42//6 44//6
f 14//6 44//6 39//6
f 35//6 37//6 7//6
f 14//6 39//6 45//6
f 45//6 35//6 7//6
f 206//6 198//6 11//6
f 11//6 4//6 227//6
f 11//6 227//6 238//6
f 194//6 206//6 11//6
f 196//6 194//6 11//6
f 11//6 238//6 231//6
f 11//6 231//6 237//6
f 196//6 11//6 237//6
f 196//6 237//6 235//6
f 192//6 196//6 235//6
f 192//6 235//6 233//6
f 191//6 192//6 233//6
f 191//6 233//6 234//6
f 193//6 191//6 234//6
f 193//6 234//6 236//6
f 197//6 193//6 236//6
f 197//6 236//6 232//6
f 195//6 197//6 232//6
f 239//6 229//6 7//6
f 195//6 232//6 239//6
f 14//6 199//6 205//6
f 205//6 195//6 239//6
f 239//6 7//6 33//6
f 239//6 33//6 31//6
f 14//6 205//6 239//6
f 40//6 42//6 14//6
f 41//6 40//6 14//6
f 239//6 31//6 32//6
f 239//6 32//6 36//6
f 43//6 41//6 14//6
f 38//56 43//56 14//56
f 239//6 36//6 34//6
f 239//6 34//6 46//6
f 38//6 14//6 239//6
f 228//6 227//6 4//6
f 7//6 229//6 230//6
f 7//6 230//6 226//6
f 225//6 228//6 4//6
f 7//6 226//6 224//6
f 224//6 225//6 4//6
f 204//6 199//6 14//6
f 11//6 198//6 203//6
f 11//6 203//6 201//6
f 202//6 204//6 14//6
f 11//6 201//6 200//6
f 200//6 202//6 14//6
f 11//2 14//2 20//2
f 212//3 216//3 21//3
f 20//3 58//3 56//3
f 56//3 57//3 221//3
f 56//3 221//3 219//3
f 214//3 212//3 21//3
f 213//3 214//3 21//3
f 56//3 219//3 208//3
f 56//3 208//3 207//3
f 213//3 21//3 20//3
f 215//3 213//3 20//3
f 20//3 56//3 207//3
f 20//3 207//3 211//3
f 217//3 215//3 20//3
f 218//3 217//3 20//3
f 20//3 211//3 210//3
f 254//3 244//3 22//3
f 22//3 21//3 216//3
f 22//3 216//3 209//3
f 247//3 254//3 22//3
f 253//3 247//3 22//3
f 22//3 209//3 220//3
f 22//3 220//3 223//3
f 253//3 22//3 223//3
f 222//3 221//3 57//3
f 253//3 223//3 222//3
f 251//3 253//3 222//3
f 222//3 57//3 59//3
f 222//3 59//3 54//3
f 249//3 251//3 222//3
f 250//3 249//3 222//3
f 222//3 54//3 62//3
f 222//3 62//3 50//3
f 252//3 250//3 222//3
f 248//3 252//3 222//3
f 222//3 50//3 52//3
f 248//3 222//3 52//3
f 17//3 243//3 255//3
f 255//3 248//3 52//3
f 255//3 52//3 48//3
f 49//3 17//3 255//3
f 255//3 48//3 47//3
f 245//3 243//3 17//3
f 22//3 244//3 246//3
f 22//3 246//3 241//3
f 242//3 245//3 17//3
f 22//3 241//3 240//3
f 240//3 242//3 17//3
f 60//3 58//3 20//3
f 17//3 49//3 53//3
f 17//3 53//3 51//3
f 55//3 60//3 20//3
f 17//3 51//3 61//3
f 61//3 55//3 20//3
f 23//1 22//1 17//1
f 17//1 7//1 4//1
f 8//4 18//4 15//4
f 20//5 14//5 7//5
f 69//6 65//6 3//6
f 6//6 73//6 75//6
f 6//6 75//6 71//6
f 68//6 69//6 3//6
f 6//6 71//6 77//6
f 77//6 68//6 3//6
f 271//6 263//6 26//6
f 26//6 28//6 292//6
f 26//6 292//6 303//6
f 259//6 271//6 26//6
f 261//6 259//6 26//6
f 26//6 303//6 296//6
f 26//6 296//6 302//6
f 261//6 26//6 302//6
f 261//6 302//6 300//6
f 257//6 261//6 300//6
f 257//6 300//6 298//6
f 256//6 257//6 298//6
f 256//6 298//6 299//6
f 258//6 256//6 299//6
f 258//6 299//6 301//6
f 262//6 258//6 301//6
f 262//6 301//6 297//6
f 260//6 262//6 297//6
f 304//6 294//6 3//6
f 260//6 297//6 304//6
f 6//6 264//6 270//6
f 270//6 260//6 304//6
f 304//6 3//6 65//6
f 304//6 65//6 63//6
f 6//6 270//6 304//6
f 72//6 73//6 6//6
f 74//6 72//6 6//6
f 304//6 63//6 64//6
f 304//6 64//6 67//6
f 76//6 74//6 6//6
f 70//6 76//6 6//6
f 304//6 67//6 66//6
f 304//6 66//6 78//6
f 70//6 6//6 304//6
f 293//6 292//6 28//6
f 3//6 294//6 295//6
f 3//6 295//6 291//6
f 290//6 293//6 28//6
f 3//6 291//6 289//6
f 289//6 290//6 28//6
f 269//6 264//6 6//6
f 26//6 263//6 268//6
f 26//6 268//6 266//6
f 267//6 269//6 6//6
f 26//6 266//6 265//6
f 265//6 267//6 6//6
f 27//2 26//2 6//2
f 6//2 13//2 19//2
f 277//3 281//3 19//3
f 13//3 90//3 88//3
f 88//3 89//3 286//3
f 88//3 286//3 284//3
f 279//3 277//3 19//3
f 278//3 279//3 19//3
f 88//3 284//3 273//3
f 88//3 273//3 272//3
f 278//3 19//3 13//3
f 280//3 278//3 13//3
f 13//3 88//3 272//3
f 13//3 272//3 276//3
f 282//3 280//3 13//3
f 283//3 282//3 13//3
f 13//3 276//3 275//3
f 319//3 309//3 16//3
f 16//3 19//3 281//3
f 16//3 281//3 274//3
f 312//3 319//3 16//3
f 318//3 312//3 16//3
f 16//3 274//3 285//3
f 16//3 285//3 288//3
f 318//3 16//3 288//3
f 287//57 286//57 89//57
f 318//3 288//3 287//3
f 316//3 318//3 287//3
f 287//3 89//3 91//3
f 287//3 91//3 86//3
f 314//3 316//3 287//3
f 315//3 314//3 287//3
f 287//3 86//3 94//3
f 287//3 94//3 82//3
f 317//3 315//3 287//3
f 313//3 317//3 287//3
f 287//3 82//3 84//3
f 313//3 287//3 84//3
f 10//3 308//3 320//3
f 320//3 313//3 84//3
f 320//3 84//3 80//3
f 81//3 10//3 320//3
f 320//3 80//3 79//3
f 310//3 308//3 10//3
f 16//3 309//3 311//3
f 16//3 311//3 306//3
f 307//3 310//3 10//3
f 16//3 306//3 305//3
f 305//3 307//3 10//3
f 92//3 90//3 13//3
f 10//3 81//3 85//3
f 10//3 85//3 83//3
f 87//3 92//3 13//3
f 10//3 83//3 93//3
f 93//3 87//3 13//3
f 16//1 10//1 3//1
f 5//4 12//4 9//4
f 13//5 6//5 3//5
f 40//7 41//7 57//7
f 41//8 43//8 59//8
f 43//9 38//9 54//9
f 38//10 46//10 62//10
f 46//11 34//11 50//11
f 34//12 36//12 52//12
f 32//13 48//13 52//13
f 31//14 47//14 48//14
f 33//15 49//15 47//15
f 37//16 53//16 49//16
f 35//17 51//17 53//17
f 45//18 61//18 51//18
f 39//19 55//19 61//19
f 44//20 60//20 55//20
f 44//21 42//21 58//21
f 42//22 40//22 56//22
f 72//7 74//7 89//7
f 74//8 76//8 91//8
f 76//9 70//9 86//9
f 70//10 78//10 94//10
f 78//11 66//11 82//11
f 66//12 67//12 84//12
f 64//13 80//13 84//13
f 63//14 79//14 80//14
f 65//15 81//15 79//15
f 69//16 85//16 81//16
f 68//17 83//17 85//17
f 77//18 93//18 83//18
f 71//19 87//19 93//19
f 75//20 92//20 87//20
f 75//21 73//21 90//21
f 73//22 72//22 88//22
f 126//23 110//23 103//23
f 119//24 103//24 107//24
f 107//25 105//25 121//25
f 105//26 104//26 120//26
f 104//27 106//27 122//27
f 106//28 108//28 124//28
f 108//29 102//29 118//29
f 102//30 109//30 125//30
f 109//31 98//31 115//31
f 98//32 99//32 117//32
f 117//33 99//33 96//33
f 112//34 96//34 95//34
f 111//35 95//35 97//35
f 113//36 97//36 101//36
f 116//37 101//37 100//37
f 114//38 100//38 110//38
f 157//23 130//23 129//23
f 155//24 129//24 134//24
f 134//25 132//25 148//25
f 132//26 131//26 147//26
f 131//27 133//27 150//27
f 133//28 140//28 149//28
f 140//29 139//29 145//29
f 139//30 141//30 146//30
f 141//31 138//31 143//31
f 138//32 142//32 144//32
f 144//33 142//33 136//33
f 152//34 136//34 135//34
f 151//35 135//35 137//35
f 153//36 137//36 127//36
f 158//37 127//37 128//37
f 154//38 128//38 130//38
f 189//23 173//23 167//23
f 183//24 167//24 172//24
f 172//25 170//25 186//25
f 170//26 168//26 184//26
f 168//27 169//27 185//27
f 169//28 171//28 187//28
f 171//29 166//29 182//29
f 166//30 174//30 190//30
f 174//31 162//31 178//31
f 162//32 164//32 180//32
f 180//33 164//33 160//33
f 176//34 160//34 159//34
f 175//35 159//35 161//35
f 177//36 161//36 165//36
f 181//37 165//37 163//37
f 179//38 163//38 173//38
f 200//39 201//39 214//39
f 201//40 203//40 212//40
f 203//41 198//41 216//41
f 198//42 206//42 209//42
f 206//43 194//43 220//43
f 194//44 196//44 223//44
f 192//45 222//45 223//45
f 221//58 222//58 192//58
f 192//55 191//55 219//55
f 191//47 193//47 208//47
f 197//48 207//48 208//48
f 195//49 211//49 207//49
f 205//50 210//50 211//50
f 199//51 218//51 210//51
f 204//52 217//52 218//52
f 204//53 202//53 215//53
f 202//54 200//54 213//54
f 233//39 235//39 251//39
f 235//40 237//40 253//40
f 237//41 231//41 247//41
f 231//42 238//42 254//42
f 238//43 227//43 244//43
f 227//44 228//44 246//44
f 225//45 241//45 246//45
f 224//55 240//55 241//55
f 226//47 242//47 240//47
f 230//48 245//48 242//48
f 229//49 243//49 245//49
f 239//50 255//50 243//50
f 232//51 248//51 255//51
f 236//52 252//52 248//52
f 236//53 234//53 250//53
f 234//54 233//54 249//54
f 265//39 266//39 279//39
f 266//40 268//40 277//40
f 268//41 263//41 281//41
f 263//42 271//42 274//42
f 271//43 259//43 285//43
f 259//44 261//44 288//44
f 257//45 287//45 288//45
f 286//58 287//58 257//58
f 257//55 256//55 284//55
f 256//47 258//47 273//47
f 262//48 272//48 273//48
f 260//49 276//49 272//49
f 270//50 275//50 276//50
f 264//51 283//51 275//51
f 269//52 282//52 283//52
f 269//53 267//53 280//53
f 267//54 265//54 278//54
f 298//39 300//39 316//39
f 300//40 302//40 318//40
f 302//41 296//41 312//41
f 296//42 303//42 319//42
f 303//43 292//43 309//43
f 292//44 293//44 311//44
f 290//45 306//45 311//45
f 289//55 305//55 306//55
f 291//47 307//47 305//47
f 295//48 310//48 307//48
f 294//49 308//49 310//49
f 304//50 320//50 308//50
f 297//51 313//51 320//51
f 301//52 317//52 313//52
f 301//53 299//53 315//53
f 299//54 298//54 314//54
f 4//6 11//6 8//6
