# Blender 5.2.1 LTS
# www.blender.org
mtllib kit_beam_260.mtl
o kit_beam_260
v -0.010000 -0.130000 0.002000
v -0.010000 0.130000 0.002000
v -0.010000 -0.130000 -0.002000
v -0.010000 0.130000 -0.002000
v 0.010000 -0.130000 0.002000
v 0.010000 0.130000 0.002000
v 0.010000 -0.130000 -0.002000
v 0.010000 0.130000 -0.002000
v -0.002000 -0.120000 -0.002000
v -0.001848 -0.120765 -0.002000
v -0.001848 -0.119235 -0.002000
v -0.000765 -0.121848 -0.002000
v -0.000765 -0.118152 -0.002000
v 0.000000 -0.122000 -0.002000
v -0.001414 -0.121414 -0.002000
v -0.001414 -0.118586 -0.002000
v 0.000765 -0.121848 -0.002000
v 0.000765 -0.118152 -0.002000
v 0.002000 -0.120000 -0.002000
v 0.001848 -0.120765 -0.002000
v 0.001848 -0.119235 -0.002000
v 0.001414 -0.121414 -0.002000
v 0.001414 -0.118586 -0.002000
v 0.000000 -0.118000 -0.002000
v -0.002000 -0.120000 0.002000
v -0.001848 -0.120765 0.002000
v -0.001848 -0.119235 0.002000
v -0.000765 -0.118152 0.002000
v -0.000765 -0.121848 0.002000
v -0.001414 -0.118586 0.002000
v -0.001414 -0.121414 0.002000
v 0.000765 -0.121848 0.002000
v 0.000765 -0.118152 0.002000
v 0.002000 -0.120000 0.002000
v 0.001848 -0.119235 0.002000
v 0.001848 -0.120765 0.002000
v 0.001414 -0.118586 0.002000
v 0.000000 -0.122000 0.002000
v 0.001414 -0.121414 0.002000
v 0.000000 -0.118000 0.002000
v -0.002000 -0.100000 -0.002000
v -0.001848 -0.100765 -0.002000
v -0.001848 -0.099235 -0.002000
v -0.001414 -0.101414 -0.002000
v -0.001414 -0.098586 -0.002000
v -0.000765 -0.098152 -0.002000
v -0.000765 -0.101848 -0.002000
v 0.001414 -0.101414 -0.002000
v 0.002000 -0.100000 -0.002000
v 0.001848 -0.099235 -0.002000
v 0.001848 -0.100765 -0.002000
v 0.000000 -0.098000 -0.002000
v -0.000064 -0.101987 -0.002000
v 0.000765 -0.101848 -0.002000
v 0.001414 -0.098586 -0.002000
v 0.000000 -0.102000 -0.002000
v 0.000765 -0.098152 -0.002000
v 0.001414 -0.101414 0.002000
v 0.001414 -0.098586 0.002000
v 0.002000 -0.100000 0.002000
v 0.001848 -0.100765 0.002000
v 0.001848 -0.099235 0.002000
v -0.002000 -0.100000 0.002000
v -0.001848 -0.099235 0.002000
v -0.001414 -0.101414 0.002000
v -0.001848 -0.100765 0.002000
v 0.000765 -0.101848 0.002000
v 0.000765 -0.098152 0.002000
v 0.000000 -0.098000 0.002000
v 0.000064 -0.101987 0.002000
v -0.001414 -0.098586 0.002000
v -0.000765 -0.101848 0.002000
v -0.000765 -0.098152 0.002000
v 0.000000 -0.102000 0.002000
v -0.002000 -0.080000 -0.002000
v -0.001848 -0.080765 -0.002000
v -0.001414 -0.081414 -0.002000
v -0.001414 -0.078586 -0.002000
v -0.001848 -0.079235 -0.002000
v -0.000765 -0.078152 -0.002000
v -0.000765 -0.081848 -0.002000
v 0.000000 -0.078000 -0.002000
v -0.000003 -0.081999 -0.002000
v 0.000000 -0.082000 -0.002000
v 0.000765 -0.078152 -0.002000
v 0.002000 -0.080000 -0.002000
v 0.001848 -0.079235 -0.002000
v 0.001848 -0.080765 -0.002000
v 0.000765 -0.081848 -0.002000
v 0.001414 -0.081414 -0.002000
v 0.001414 -0.078586 -0.002000
v 0.001414 -0.081414 0.002000
v 0.001414 -0.078586 0.002000
v 0.002000 -0.080000 0.002000
v 0.001848 -0.080765 0.002000
v 0.001848 -0.079235 0.002000
v 0.000765 -0.078152 0.002000
v 0.000765 -0.081848 0.002000
v 0.000000 -0.078000 0.002000
v 0.000003 -0.081999 0.002000
v -0.000765 -0.078152 0.002000
v 0.000000 -0.082000 0.002000
v -0.002000 -0.080000 0.002000
v -0.001848 -0.080765 0.002000
v -0.001848 -0.079235 0.002000
v -0.001414 -0.078586 0.002000
v -0.000765 -0.081848 0.002000
v -0.001414 -0.081414 0.002000
v -0.002000 -0.060000 -0.002000
v -0.001848 -0.060765 -0.002000
v -0.001848 -0.059235 -0.002000
v -0.000765 -0.058152 -0.002000
v -0.001414 -0.061414 -0.002000
v -0.001414 -0.058586 -0.002000
v -0.000765 -0.061848 -0.002000
v 0.000000 -0.058000 -0.002000
v 0.000071 -0.061986 -0.002000
v 0.000000 -0.062000 -0.002000
v 0.000765 -0.058152 -0.002000
v 0.000765 -0.061848 -0.002000
v 0.001414 -0.058586 -0.002000
v 0.001414 -0.061414 -0.002000
v 0.002000 -0.060000 -0.002000
v 0.001848 -0.059235 -0.002000
v 0.001848 -0.060765 -0.002000
v 0.000765 -0.058152 0.002000
v 0.001414 -0.061414 0.002000
v 0.001414 -0.058586 0.002000
v 0.002000 -0.060000 0.002000
v 0.001848 -0.060765 0.002000
v 0.001848 -0.059235 0.002000
v 0.000765 -0.061848 0.002000
v 0.000000 -0.062000 0.002000
v -0.000071 -0.061986 0.002000
v 0.000000 -0.058000 0.002000
v -0.000765 -0.061848 0.002000
v -0.000765 -0.058152 0.002000
v -0.001414 -0.061414 0.002000
v -0.001414 -0.058586 0.002000
v -0.002000 -0.060000 0.002000
v -0.001848 -0.060765 0.002000
v -0.001848 -0.059235 0.002000
v -0.002000 -0.040000 -0.002000
v -0.001848 -0.040765 -0.002000
v -0.001848 -0.039235 -0.002000
v -0.000765 -0.038152 -0.002000
v -0.001414 -0.038586 -0.002000
v -0.001414 -0.041414 -0.002000
v -0.000765 -0.041848 -0.002000
v 0.000000 -0.038000 -0.002000
v 0.000161 -0.041968 -0.002000
v 0.000000 -0.042000 -0.002000
v 0.000765 -0.038152 -0.002000
v 0.000765 -0.041848 -0.002000
v 0.001414 -0.038586 -0.002000
v 0.001414 -0.041414 -0.002000
v 0.002000 -0.040000 -0.002000
v 0.001848 -0.039235 -0.002000
v 0.001848 -0.040765 -0.002000
v 0.000765 -0.038152 0.002000
v 0.001414 -0.038586 0.002000
v 0.002000 -0.040000 0.002000
v 0.001848 -0.040765 0.002000
v 0.001848 -0.039235 0.002000
v 0.001414 -0.041414 0.002000
v 0.000765 -0.041848 0.002000
v 0.000000 -0.042000 0.002000
v -0.000161 -0.041968 0.002000
v 0.000000 -0.038000 0.002000
v -0.000765 -0.041848 0.002000
v -0.000765 -0.038152 0.002000
v -0.001414 -0.041414 0.002000
v -0.001414 -0.038586 0.002000
v -0.002000 -0.040000 0.002000
v -0.001848 -0.040765 0.002000
v -0.001848 -0.039235 0.002000
v -0.002000 -0.020000 -0.002000
v -0.001848 -0.020765 -0.002000
v -0.001848 -0.019235 -0.002000
v -0.001414 -0.021414 -0.002000
v -0.000765 -0.021848 -0.002000
v -0.000765 -0.018152 -0.002000
v -0.001414 -0.018586 -0.002000
v 0.000000 -0.018000 -0.002000
v 0.000000 -0.022000 -0.002000
v 0.000765 -0.018152 -0.002000
v 0.000765 -0.021848 -0.002000
v 0.001414 -0.018586 -0.002000
v 0.001414 -0.021414 -0.002000
v 0.002000 -0.020000 -0.002000
v 0.001848 -0.019235 -0.002000
v 0.001848 -0.020765 -0.002000
v 0.002000 -0.020000 0.002000
v 0.001848 -0.019235 0.002000
v 0.001848 -0.020765 0.002000
v 0.000765 -0.021848 0.002000
v 0.000765 -0.018152 0.002000
v 0.001414 -0.018586 0.002000
v 0.001414 -0.021414 0.002000
v 0.000000 -0.022000 0.002000
v 0.000000 -0.018000 0.002000
v -0.000765 -0.021848 0.002000
v -0.000765 -0.018152 0.002000
v -0.001414 -0.021414 0.002000
v -0.001414 -0.018586 0.002000
v -0.002000 -0.020000 0.002000
v -0.001848 -0.020765 0.002000
v -0.001848 -0.019235 0.002000
v -0.002000 0.000000 -0.002000
v -0.001848 -0.000765 -0.002000
v -0.001848 0.000765 -0.002000
v -0.000765 -0.001848 -0.002000
v -0.000765 0.001848 -0.002000
v -0.001414 -0.001414 -0.002000
v -0.001414 0.001414 -0.002000
v 0.000000 0.002000 -0.002000
v 0.000414 -0.001918 -0.002000
v 0.000000 -0.002000 -0.002000
v 0.000765 0.001848 -0.002000
v 0.000765 -0.001848 -0.002000
v 0.001414 -0.001414 -0.002000
v 0.001848 -0.000765 -0.002000
v 0.001848 0.000765 -0.002000
v 0.001414 0.001414 -0.002000
v 0.002000 0.000000 -0.002000
v 0.000765 -0.001848 0.002000
v 0.000765 0.001848 0.002000
v 0.001848 -0.000765 0.002000
v 0.002000 0.000000 0.002000
v 0.001848 0.000765 0.002000
v 0.001414 0.001414 0.002000
v 0.001414 -0.001414 0.002000
v 0.000000 0.002000 0.002000
v -0.000414 -0.001918 0.002000
v 0.000000 -0.002000 0.002000
v -0.000765 -0.001848 0.002000
v -0.000765 0.001848 0.002000
v -0.001848 -0.000765 0.002000
v -0.001848 0.000765 0.002000
v -0.001414 0.001414 0.002000
v -0.001414 -0.001414 0.002000
v -0.002000 0.000000 0.002000
v -0.002000 0.020000 -0.002000
v -0.001414 0.018586 -0.002000
v -0.001848 0.019235 -0.002000
v -0.001848 0.020765 -0.002000
v 0.000000 0.022000 -0.002000
v -0.000765 0.018152 -0.002000
v -0.000765 0.021848 -0.002000
v -0.001414 0.021414 -0.002000
v 0.000000 0.018000 -0.002000
v 0.000059 0.018012 -0.002000
v 0.000765 0.021848 -0.002000
v 0.000602 0.018120 -0.002000
v 0.000765 0.018152 -0.002000
v 0.001414 0.021414 -0.002000
v 0.001414 0.018586 -0.002000
v 0.002000 0.020000 -0.002000
v 0.001848 0.019235 -0.002000
v 0.001848 0.020765 -0.002000
v 0.000000 0.022000 0.002000
v 0.000765 0.018152 0.002000
v 0.000765 0.021848 0.002000
v 0.002000 0.020000 0.002000
v 0.001848 0.019235 0.002000
v 0.001848 0.020765 0.002000
v 0.001414 0.021414 0.002000
v 0.001414 0.018586 0.002000
v 0.000000 0.018000 0.002000
v -0.000059 0.018012 0.002000
v -0.000765 0.021848 0.002000
v -0.000602 0.018120 0.002000
v -0.001414 0.021414 0.002000
v -0.000765 0.018152 0.002000
v -0.002000 0.020000 0.002000
v -0.001848 0.020765 0.002000
v -0.001414 0.018586 0.002000
v -0.001848 0.019235 0.002000
v -0.002000 0.040000 -0.002000
v -0.001414 0.038586 -0.002000
v -0.001848 0.039235 -0.002000
v -0.001848 0.040765 -0.002000
v -0.001414 0.041414 -0.002000
v -0.000765 0.041848 -0.002000
v 0.000000 0.042000 -0.002000
v -0.000765 0.038152 -0.002000
v 0.000000 0.038000 -0.002000
v 0.000336 0.038067 -0.002000
v 0.000765 0.041848 -0.002000
v 0.000864 0.038218 -0.002000
v 0.000765 0.038152 -0.002000
v 0.001414 0.041414 -0.002000
v 0.001414 0.038586 -0.002000
v 0.002000 0.040000 -0.002000
v 0.001848 0.040765 -0.002000
v 0.001848 0.039235 -0.002000
v 0.000000 0.042000 0.002000
v 0.000765 0.038152 0.002000
v 0.000765 0.041848 0.002000
v 0.002000 0.040000 0.002000
v 0.001848 0.040765 0.002000
v 0.001414 0.038586 0.002000
v 0.001848 0.039235 0.002000
v 0.001414 0.041414 0.002000
v 0.000000 0.038000 0.002000
v -0.000336 0.038067 0.002000
v -0.000765 0.038152 0.002000
v -0.000864 0.038218 0.002000
v -0.000765 0.041848 0.002000
v -0.001414 0.038586 0.002000
v -0.001414 0.041414 0.002000
v -0.002000 0.040000 0.002000
v -0.001848 0.039235 0.002000
v -0.001848 0.040765 0.002000
v -0.002000 0.060000 -0.002000
v -0.001848 0.059235 -0.002000
v -0.001414 0.061414 -0.002000
v -0.001414 0.058586 -0.002000
v -0.001848 0.060765 -0.002000
v -0.000765 0.058152 -0.002000
v 0.000765 0.061848 -0.002000
v 0.000000 0.062000 -0.002000
v 0.000000 0.058000 -0.002000
v -0.000765 0.061848 -0.002000
v 0.000742 0.058148 -0.002000
v 0.000765 0.058152 -0.002000
v 0.001414 0.061414 -0.002000
v 0.001267 0.058487 -0.002000
v 0.001414 0.058586 -0.002000
v 0.002000 0.060000 -0.002000
v 0.001848 0.059235 -0.002000
v 0.001848 0.060765 -0.002000
v -0.000765 0.061848 0.002000
v 0.000000 0.058000 0.002000
v 0.000000 0.062000 0.002000
v 0.001414 0.058586 0.002000
v 0.001414 0.061414 0.002000
v 0.002000 0.060000 0.002000
v 0.001848 0.059235 0.002000
v 0.001848 0.060765 0.002000
v 0.000765 0.058152 0.002000
v 0.000765 0.061848 0.002000
v -0.000742 0.058148 0.002000
v -0.001414 0.061414 0.002000
v -0.000765 0.058152 0.002000
v -0.001267 0.058487 0.002000
v -0.002000 0.060000 0.002000
v -0.001848 0.060765 0.002000
v -0.001414 0.058586 0.002000
v -0.001848 0.059235 0.002000
v -0.002000 0.080000 -0.002000
v -0.001848 0.079235 -0.002000
v -0.001848 0.080765 -0.002000
v -0.001414 0.078586 -0.002000
v -0.001414 0.081414 -0.002000
v -0.000765 0.078152 -0.002000
v 0.000000 0.078000 -0.002000
v 0.000000 0.082000 -0.002000
v 0.001414 0.081414 -0.002000
v 0.000765 0.081848 -0.002000
v 0.000765 0.078152 -0.002000
v -0.000765 0.081848 -0.002000
v 0.001174 0.078425 -0.002000
v 0.001453 0.078644 -0.002000
v 0.001414 0.078586 -0.002000
v 0.002000 0.080000 -0.002000
v 0.001848 0.080765 -0.002000
v 0.001848 0.079235 -0.002000
v -0.001414 0.081414 0.002000
v 0.000000 0.078000 0.002000
v 0.000000 0.082000 0.002000
v -0.000765 0.078152 0.002000
v -0.000765 0.081848 0.002000
v 0.001414 0.078586 0.002000
v 0.002000 0.080000 0.002000
v 0.001848 0.079235 0.002000
v 0.001848 0.080765 0.002000
v 0.000765 0.078152 0.002000
v 0.001414 0.081414 0.002000
v 0.000765 0.081848 0.002000
v -0.001174 0.078425 0.002000
v -0.001453 0.078644 0.002000
v -0.001414 0.078586 0.002000
v -0.002000 0.080000 0.002000
v -0.001848 0.079235 0.002000
v -0.001848 0.080765 0.002000
v -0.002000 0.100000 -0.002000
v -0.001848 0.099235 -0.002000
v -0.001848 0.100765 -0.002000
v -0.000765 0.098152 -0.002000
v -0.001414 0.098586 -0.002000
v -0.000765 0.101848 -0.002000
v -0.001414 0.101414 -0.002000
v 0.000765 0.098152 -0.002000
v 0.000765 0.101848 -0.002000
v 0.002000 0.100000 -0.002000
v 0.001848 0.100765 -0.002000
v 0.001848 0.099235 -0.002000
v 0.001414 0.101414 -0.002000
v 0.001414 0.098586 -0.002000
v 0.000000 0.102000 -0.002000
v 0.000000 0.098000 -0.002000
v -0.002000 0.100000 0.002000
v -0.001848 0.099235 0.002000
v -0.001848 0.100765 0.002000
v -0.000765 0.098152 0.002000
v -0.000765 0.101848 0.002000
v -0.001414 0.098586 0.002000
v -0.001414 0.101414 0.002000
v 0.001414 0.098586 0.002000
v 0.000765 0.098152 0.002000
v 0.000765 0.101848 0.002000
v 0.002000 0.100000 0.002000
v 0.001848 0.100765 0.002000
v 0.001848 0.099235 0.002000
v 0.001414 0.101414 0.002000
v 0.000000 0.102000 0.002000
v 0.000000 0.098000 0.002000
v -0.002000 0.120000 -0.002000
v -0.001848 0.119235 -0.002000
v -0.001848 0.120765 -0.002000
v -0.000765 0.118152 -0.002000
v -0.000765 0.121848 -0.002000
v -0.001414 0.118586 -0.002000
v -0.001414 0.121414 -0.002000
v 0.001414 0.118586 -0.002000
v 0.000765 0.118152 -0.002000
v 0.000765 0.121848 -0.002000
v 0.002000 0.120000 -0.002000
v 0.001848 0.120765 -0.002000
v 0.001848 0.119235 -0.002000
v 0.001414 0.121414 -0.002000
v 0.000000 0.122000 -0.002000
v 0.000000 0.118000 -0.002000
v -0.002000 0.120000 0.002000
v -0.001848 0.119235 0.002000
v -0.001848 0.120765 0.002000
v -0.000765 0.118152 0.002000
v -0.001414 0.118586 0.002000
v -0.000765 0.121848 0.002000
v -0.001414 0.121414 0.002000
v 0.000765 0.118152 0.002000
v 0.000765 0.121848 0.002000
v 0.002000 0.120000 0.002000
v 0.001848 0.120765 0.002000
v 0.001848 0.119235 0.002000
v 0.001414 0.121414 0.002000
v 0.001414 0.118586 0.002000
v 0.000000 0.122000 0.002000
v 0.000000 0.118000 0.002000
v 0.000272 -0.021946 -0.002000
v -0.000272 -0.021946 0.002000
vn -1.0000 -0.0000 -0.0000
vn -0.0000 -0.0000 -1.0000
vn 1.0000 -0.0000 -0.0000
vn -0.0000 -0.0000 1.0000
vn -0.0000 -1.0000 -0.0000
vn -0.0000 1.0000 -0.0000
vn -0.1949 -0.9808 -0.0000
vn -0.5559 -0.8313 -0.0000
vn -0.8313 -0.5559 -0.0000
vn -0.9808 -0.1949 -0.0000
vn -0.9808 0.1949 -0.0000
vn -0.8313 0.5559 -0.0000
vn -0.5559 0.8313 -0.0000
vn -0.1949 0.9808 -0.0000
vn 0.1949 0.9808 -0.0000
vn 0.5559 0.8313 -0.0000
vn 0.8313 0.5559 -0.0000
vn 0.9808 0.1949 -0.0000
vn 0.9808 -0.1949 -0.0000
vn 0.8313 -0.5559 -0.0000
vn 0.5559 -0.8313 -0.0000
vn 0.1949 -0.9808 -0.0000
vn 0.1945 0.9809 0.0001
vn -0.1926 0.9813 0.0004
vn 0.1926 0.9813 -0.0004
vn -0.5561 0.8311 -0.0001
vn -0.1944 0.9809 0.0001
vn 0.1944 0.9809 -0.0001
vn 0.5561 0.8311 0.0001
vn -0.5551 0.8318 -0.0002
vn -0.1956 0.9807 0.0001
vn 0.1717 0.9851 -0.0047
vn 0.1990 0.9800 -0.0000
vn -0.0000 -0.0021 -1.0000
vn -0.0000 -0.0021 1.0000
vn -0.1993 0.9799 -0.0000
vn -0.1951 0.9808 0.0001
vn 0.1993 0.9799 -0.0000
vn 0.1951 0.9808 -0.0001
vn -0.5547 0.8321 -0.0000
vn -0.1955 0.9807 -0.0000
vn 0.1955 0.9807 -0.0000
vn 0.5547 0.8321 -0.0000
vn -0.5586 0.8294 -0.0000
vn -0.1714 0.9852 -0.0000
vn 0.1956 0.9807 -0.0000
vn -0.0000 -0.0002 -1.0000
vn -0.0000 0.0003 -1.0000
vn -0.0000 0.0003 1.0000
vn -0.0000 -0.0002 1.0000
s 0
usemtl ChassisMetal
f 1//1 4//1 3//1
f 4//2 428//2 433//2
f 248//2 251//2 215//2
f 153//2 187//2 189//2
f 365//2 324//2 363//2
f 326//2 285//2 325//2
f 291//2 247//2 288//2
f 213//2 254//2 216//2
f 182//2 217//2 184//2
f 146//2 451//2 150//2
f 112//2 151//2 116//2
f 80//2 117//2 82//2
f 52//2 83//2 84//2
f 24//2 53//2 56//2
f 7//2 12//2 14//2
f 7//3 6//3 5//3
f 1//4 32//4 38//4
f 6//4 193//4 161//4
f 171//4 202//4 204//4
f 6//4 440//4 449//4
f 383//4 342//4 381//4
f 345//4 297//4 343//4
f 307//4 261//4 306//4
f 272//4 227//4 270//4
f 234//4 197//4 235//4
f 452//4 160//4 200//4
f 168//4 126//4 167//4
f 134//4 97//4 133//4
f 100//4 69//4 68//4
f 70//4 40//4 33//4
f 3//5 5//5 1//5
f 8//6 2//6 6//6
f 24//7 33//7 40//7
f 18//8 37//8 33//8
f 37//9 21//9 35//9
f 35//10 19//10 34//10
f 34//11 20//11 36//11
f 36//12 22//12 39//12
f 39//13 17//13 32//13
f 32//14 14//14 38//14
f 38//15 12//15 29//15
f 29//16 15//16 31//16
f 15//17 26//17 31//17
f 10//18 25//18 26//18
f 9//19 27//19 25//19
f 11//20 30//20 27//20
f 16//21 28//21 30//21
f 13//22 40//22 28//22
f 52//7 68//7 69//7
f 55//8 68//8 57//8
f 59//9 50//9 62//9
f 62//10 49//10 60//10
f 60//11 51//11 61//11
f 61//12 48//12 58//12
f 58//13 54//13 67//13
f 67//14 56//14 74//14
f 74//23 53//23 47//23
f 72//16 44//16 65//16
f 44//17 66//17 65//17
f 42//18 63//18 66//18
f 41//19 64//19 63//19
f 43//20 71//20 64//20
f 45//21 73//21 71//21
f 46//22 69//22 73//22
f 82//7 97//7 99//7
f 85//8 93//8 97//8
f 93//9 87//9 96//9
f 96//10 86//10 94//10
f 94//11 88//11 95//11
f 95//12 90//12 92//12
f 92//13 89//13 98//13
f 98//14 84//14 102//14
f 84//15 81//15 107//15
f 107//16 77//16 108//16
f 108//17 76//17 104//17
f 76//18 103//18 104//18
f 75//19 105//19 103//19
f 79//20 106//20 105//20
f 78//21 101//21 106//21
f 80//22 99//22 101//22
f 116//7 126//7 135//7
f 119//8 128//8 126//8
f 128//9 124//9 131//9
f 131//10 123//10 129//10
f 129//11 125//11 130//11
f 130//12 122//12 127//12
f 127//13 120//13 132//13
f 118//14 132//14 120//14
f 133//15 115//15 136//15
f 136//16 113//16 138//16
f 113//17 141//17 138//17
f 110//18 140//18 141//18
f 109//19 142//19 140//19
f 111//20 139//20 142//20
f 114//21 137//21 139//21
f 116//22 137//22 112//22
f 153//7 169//7 150//7
f 153//8 161//8 160//8
f 161//9 158//9 164//9
f 164//10 157//10 162//10
f 162//11 159//11 163//11
f 163//12 156//12 165//12
f 165//13 154//13 166//13
f 154//14 151//14 167//14
f 168//15 152//15 170//15
f 170//16 148//16 172//16
f 148//17 175//17 172//17
f 144//18 174//18 175//18
f 143//19 176//19 174//19
f 145//20 173//20 176//20
f 147//21 171//21 173//21
f 146//22 169//22 171//22
f 201//7 186//7 197//7
f 186//8 198//8 197//8
f 188//9 194//9 198//9
f 194//10 190//10 193//10
f 193//11 192//11 195//11
f 195//12 189//12 199//12
f 199//13 187//13 196//13
f 185//2 187//2 451//2
f 200//4 202//4 452//4
f 202//16 180//16 204//16
f 180//17 207//17 204//17
f 178//18 206//18 207//18
f 177//19 208//19 206//19
f 208//20 183//20 205//20
f 183//21 203//21 205//21
f 182//22 201//22 203//22
f 216//7 227//7 233//7
f 219//8 231//8 227//8
f 231//9 223//9 230//9
f 230//10 225//10 229//10
f 229//11 222//11 228//11
f 228//12 221//12 232//12
f 232//13 220//13 226//13
f 220//14 218//14 235//14
f 235//15 212//15 236//15
f 236//16 214//16 241//16
f 214//17 238//17 241//17
f 238//18 209//18 242//18
f 209//19 239//19 242//19
f 211//20 240//20 239//20
f 215//21 237//21 240//21
f 213//22 233//22 237//22
f 247//7 263//7 261//7
f 253//8 267//8 263//8
f 267//9 260//9 266//9
f 266//10 258//10 264//10
f 264//11 259//11 265//11
f 265//12 257//12 268//12
f 268//13 255//13 262//13
f 254//24 269//24 255//24
f 251//25 274//25 272//25
f 274//16 244//16 277//16
f 244//17 278//17 277//17
f 245//18 275//18 278//18
f 243//19 276//19 275//19
f 246//20 273//20 276//20
f 250//21 271//21 273//21
f 249//22 261//22 271//22
f 285//7 299//7 297//7
f 289//8 304//8 299//8
f 304//9 295//9 301//9
f 301//10 294//10 300//10
f 300//11 296//11 303//11
f 303//12 293//12 302//12
f 293//26 290//26 298//26
f 291//27 288//27 305//27
f 306//28 287//28 307//28
f 308//29 286//29 310//29
f 280//17 313//17 310//17
f 281//18 312//18 313//18
f 279//19 314//19 312//19
f 282//20 311//20 314//20
f 283//21 309//21 311//21
f 309//22 285//22 297//22
f 322//7 342//7 335//7
f 321//8 337//8 342//8
f 337//9 332//9 340//9
f 340//10 330//10 338//10
f 338//11 331//11 339//11
f 339//12 329//12 336//12
f 336//30 328//30 326//30
f 341//31 325//31 323//31
f 343//32 323//32 345//32
f 345//16 318//16 349//16
f 318//17 350//17 349//17
f 316//18 347//18 350//18
f 315//19 348//19 347//19
f 319//20 344//20 348//20
f 324//21 344//21 317//21
f 324//22 335//22 333//22
f 358//7 380//7 371//7
f 360//8 379//8 380//8
f 379//9 367//9 377//9
f 377//10 366//10 375//10
f 375//11 368//11 376//11
f 365//12 376//12 368//12
f 365//13 361//13 378//13
f 378//14 357//14 370//14
f 370//15 356//15 372//15
f 372//16 354//16 383//16
f 383//17 352//17 385//17
f 352//18 384//18 385//18
f 351//19 386//19 384//19
f 386//20 355//20 369//20
f 355//21 373//21 369//21
f 362//22 371//22 373//22
f 401//7 412//7 417//7
f 395//8 416//8 412//8
f 416//9 397//9 414//9
f 414//10 396//10 413//10
f 413//11 398//11 415//11
f 415//12 400//12 410//12
f 410//13 394//13 411//13
f 411//14 402//14 418//14
f 418//15 390//15 406//15
f 406//16 391//16 408//16
f 391//17 404//17 408//17
f 388//18 403//18 404//18
f 387//19 405//19 403//19
f 389//20 409//20 405//20
f 393//21 407//21 409//21
f 392//22 417//22 407//22
f 433//7 443//7 449//7
f 428//8 447//8 443//8
f 447//9 430//9 445//9
f 445//10 429//10 444//10
f 444//11 431//11 446//11
f 446//12 426//12 448//12
f 448//13 427//13 442//13
f 442//14 434//14 450//14
f 450//15 422//15 438//15
f 438//16 424//16 439//16
f 424//17 436//17 439//17
f 420//18 435//18 436//18
f 419//19 437//19 435//19
f 421//20 441//20 437//20
f 425//21 440//21 441//21
f 423//22 449//22 440//22
f 1//1 2//1 4//1
f 423//2 425//2 4//2
f 4//2 8//2 432//2
f 4//2 432//2 428//2
f 433//2 423//2 4//2
f 430//2 432//2 8//2
f 8//2 395//2 401//2
f 8//2 401//2 392//2
f 429//2 430//2 8//2
f 431//2 429//2 8//2
f 8//2 392//2 393//2
f 8//2 393//2 389//2
f 426//2 431//2 8//2
f 426//2 8//2 389//2
f 426//2 389//2 387//2
f 427//2 426//2 387//2
f 434//2 427//2 387//2
f 422//2 434//2 387//2
f 424//2 422//2 387//2
f 420//2 424//2 387//2
f 419//2 420//2 387//2
f 4//2 425//2 421//2
f 4//2 421//2 419//2
f 10//2 15//2 3//2
f 9//2 10//2 3//2
f 3//2 4//2 419//2
f 3//2 419//2 387//2
f 11//2 9//2 3//2
f 53//2 13//2 16//2
f 16//2 11//2 3//2
f 3//2 387//2 388//2
f 3//2 388//2 391//2
f 53//2 16//2 3//2
f 47//2 53//2 3//2
f 390//2 402//2 355//2
f 390//2 355//2 353//2
f 44//2 47//2 3//2
f 42//2 44//2 3//2
f 391//2 390//2 353//2
f 391//2 353//2 351//2
f 41//2 42//2 3//2
f 43//2 41//2 3//2
f 3//2 391//2 351//2
f 3//2 351//2 352//2
f 3//2 352//2 354//2
f 83//2 46//2 45//2
f 81//2 83//2 45//2
f 81//2 45//2 43//2
f 77//2 81//2 43//2
f 361//2 363//2 317//2
f 361//2 317//2 319//2
f 357//2 361//2 319//2
f 357//2 319//2 315//2
f 356//2 357//2 315//2
f 354//2 356//2 315//2
f 77//2 43//2 3//2
f 76//2 77//2 3//2
f 3//2 354//2 315//2
f 3//2 315//2 316//2
f 75//2 76//2 3//2
f 3//2 316//2 318//2
f 118//2 80//2 78//2
f 115//2 118//2 78//2
f 115//2 78//2 79//2
f 113//2 115//2 79//2
f 113//2 79//2 75//2
f 110//2 113//2 75//2
f 323//2 325//2 284//2
f 323//2 284//2 283//2
f 320//2 323//2 283//2
f 320//2 283//2 282//2
f 110//2 75//2 3//2
f 109//2 110//2 3//2
f 318//2 320//2 282//2
f 318//2 282//2 279//2
f 152//2 112//2 114//2
f 149//2 152//2 114//2
f 149//2 114//2 111//2
f 148//2 149//2 111//2
f 148//2 111//2 109//2
f 144//2 148//2 109//2
f 3//2 318//2 279//2
f 3//2 279//2 281//2
f 144//2 109//2 3//2
f 143//2 144//2 3//2
f 3//2 281//2 280//2
f 185//2 146//2 147//2
f 181//2 185//2 147//2
f 181//2 147//2 145//2
f 180//2 181//2 145//2
f 180//2 145//2 143//2
f 178//2 180//2 143//2
f 287//2 288//2 249//2
f 287//2 249//2 250//2
f 286//2 287//2 250//2
f 286//2 250//2 246//2
f 178//2 143//2 3//2
f 177//2 178//2 3//2
f 280//2 286//2 246//2
f 280//2 246//2 243//2
f 218//2 182//2 183//2
f 212//2 218//2 183//2
f 212//2 183//2 179//2
f 214//2 212//2 179//2
f 214//2 179//2 177//2
f 210//2 214//2 177//2
f 3//2 280//2 243//2
f 3//2 243//2 245//2
f 210//2 177//2 3//2
f 209//2 210//2 3//2
f 3//2 245//2 244//2
f 209//2 3//2 244//2
f 211//2 209//2 244//2
f 211//2 244//2 248//2
f 252//2 213//2 215//2
f 215//2 211//2 248//2
f 251//2 252//2 215//2
f 399//2 395//2 8//2
f 7//2 22//2 20//2
f 7//2 20//2 19//2
f 397//2 399//2 8//2
f 396//2 397//2 8//2
f 8//2 7//2 19//2
f 8//2 19//2 21//2
f 398//2 396//2 8//2
f 8//2 21//2 23//2
f 18//2 24//2 56//2
f 355//2 402//2 394//2
f 362//2 355//2 394//2
f 362//2 394//2 400//2
f 358//2 362//2 400//2
f 358//2 400//2 398//2
f 360//2 358//2 398//2
f 23//2 18//2 56//2
f 23//2 56//2 54//2
f 360//2 398//2 8//2
f 359//2 360//2 8//2
f 23//2 54//2 48//2
f 23//2 48//2 51//2
f 367//2 359//2 8//2
f 366//2 367//2 8//2
f 23//2 51//2 49//2
f 8//2 23//2 49//2
f 8//2 49//2 50//2
f 8//2 50//2 55//2
f 57//2 52//2 84//2
f 57//2 84//2 89//2
f 324//2 364//2 368//2
f 322//2 324//2 368//2
f 322//2 368//2 366//2
f 321//2 322//2 366//2
f 55//2 57//2 89//2
f 55//2 89//2 90//2
f 321//2 366//2 8//2
f 327//2 321//2 8//2
f 55//2 90//2 88//2
f 55//2 88//2 86//2
f 332//2 327//2 8//2
f 330//2 332//2 8//2
f 8//2 55//2 86//2
f 8//2 86//2 87//2
f 8//2 87//2 91//2
f 85//2 82//2 117//2
f 285//2 328//2 329//2
f 289//2 285//2 329//2
f 289//2 329//2 331//2
f 292//2 289//2 331//2
f 292//2 331//2 330//2
f 295//2 292//2 330//2
f 91//2 85//2 117//2
f 91//2 117//2 120//2
f 295//2 330//2 8//2
f 294//2 295//2 8//2
f 91//2 120//2 122//2
f 91//2 122//2 125//2
f 247//2 290//2 293//2
f 253//2 247//2 293//2
f 253//2 293//2 296//2
f 256//2 253//2 296//2
f 256//2 296//2 294//2
f 260//2 256//2 294//2
f 91//2 125//2 123//2
f 8//2 91//2 123//2
f 260//2 294//2 8//2
f 258//2 260//2 8//2
f 8//2 123//2 124//2
f 8//2 124//2 121//2
f 119//2 116//2 151//2
f 119//2 151//2 154//2
f 216//2 254//2 255//2
f 219//2 216//2 255//2
f 219//2 255//2 257//2
f 224//2 219//2 257//2
f 224//2 257//2 259//2
f 223//2 224//2 259//2
f 223//2 259//2 258//2
f 225//2 223//2 258//2
f 121//2 119//2 154//2
f 121//2 154//2 156//2
f 225//2 258//2 8//2
f 121//2 156//2 159//2
f 121//2 159//2 157//2
f 184//2 217//2 220//2
f 186//2 184//2 220//2
f 186//2 220//2 221//2
f 188//2 186//2 221//2
f 188//2 221//2 222//2
f 191//2 188//2 222//2
f 191//2 222//2 225//2
f 190//2 191//2 225//2
f 8//2 121//2 157//2
f 8//2 157//2 158//2
f 190//2 225//2 8//2
f 190//2 8//2 158//2
f 190//2 158//2 155//2
f 192//2 190//2 155//2
f 153//2 150//2 451//2
f 192//2 155//2 153//2
f 189//2 192//2 153//2
f 153//2 451//2 187//2
f 365//2 364//2 324//2
f 324//2 317//2 363//2
f 326//2 328//2 285//2
f 285//2 284//2 325//2
f 291//2 290//2 247//2
f 247//2 249//2 288//2
f 213//2 252//2 254//2
f 182//2 218//2 217//2
f 146//2 185//2 451//2
f 112//2 152//2 151//2
f 80//2 118//2 117//2
f 52//2 46//2 83//2
f 24//2 13//2 53//2
f 17//2 22//2 7//2
f 7//2 3//2 15//2
f 7//2 15//2 12//2
f 14//2 17//2 7//2
f 7//3 8//3 6//3
f 29//4 31//4 1//4
f 1//4 5//4 39//4
f 1//4 39//4 32//4
f 38//4 29//4 1//4
f 36//4 39//4 5//4
f 6//4 412//4 416//4
f 6//4 416//4 414//4
f 34//4 36//4 5//4
f 35//4 34//4 5//4
f 6//4 414//4 413//4
f 6//4 413//4 415//4
f 35//4 5//4 6//4
f 70//4 33//4 37//4
f 37//4 35//4 6//4
f 67//4 70//4 37//4
f 58//4 67//4 37//4
f 411//4 418//4 379//4
f 411//4 379//4 377//4
f 410//4 411//4 377//4
f 410//4 377//4 375//4
f 415//4 410//4 375//4
f 6//4 415//4 375//4
f 61//4 58//4 37//4
f 60//4 61//4 37//4
f 372//4 381//4 337//4
f 372//4 337//4 340//4
f 370//4 372//4 340//4
f 370//4 340//4 338//4
f 378//4 370//4 338//4
f 374//4 378//4 338//4
f 376//4 374//4 338//4
f 375//4 376//4 338//4
f 60//4 37//4 6//4
f 62//4 60//4 6//4
f 6//4 375//4 338//4
f 59//4 62//4 6//4
f 100//4 68//4 59//4
f 98//4 100//4 59//4
f 334//4 343//4 299//4
f 334//4 299//4 304//4
f 341//4 334//4 304//4
f 341//4 304//4 301//4
f 336//4 341//4 301//4
f 336//4 301//4 300//4
f 339//4 336//4 300//4
f 338//4 339//4 300//4
f 92//4 98//4 59//4
f 95//4 92//4 59//4
f 6//4 338//4 300//4
f 94//4 95//4 59//4
f 94//4 59//4 6//4
f 96//4 94//4 6//4
f 133//4 97//4 93//4
f 93//4 96//4 6//4
f 132//4 133//4 93//4
f 127//4 132//4 93//4
f 305//4 306//4 263//4
f 305//4 263//4 267//4
f 298//4 305//4 267//4
f 298//4 267//4 266//4
f 302//4 298//4 266//4
f 302//4 266//4 264//4
f 303//4 302//4 264//4
f 300//4 303//4 264//4
f 130//4 127//4 93//4
f 129//4 130//4 93//4
f 6//4 300//4 264//4
f 129//4 93//4 6//4
f 131//4 129//4 6//4
f 128//4 131//4 6//4
f 167//4 126//4 128//4
f 166//4 167//4 128//4
f 269//4 270//4 227//4
f 269//4 227//4 231//4
f 262//4 269//4 231//4
f 262//4 231//4 230//4
f 268//4 262//4 230//4
f 268//4 230//4 229//4
f 265//4 268//4 229//4
f 264//4 265//4 229//4
f 165//4 166//4 128//4
f 163//4 165//4 128//4
f 6//4 264//4 229//4
f 162//4 163//4 128//4
f 162//4 128//4 6//4
f 164//4 162//4 6//4
f 200//4 160//4 161//4
f 161//4 164//4 6//4
f 196//4 200//4 161//4
f 199//4 196//4 161//4
f 226//4 235//4 197//4
f 226//4 197//4 198//4
f 232//4 226//4 198//4
f 232//4 198//4 194//4
f 228//4 232//4 194//4
f 228//4 194//4 193//4
f 229//4 228//4 193//4
f 195//4 199//4 161//4
f 6//4 229//4 193//4
f 193//4 195//4 161//4
f 1//4 31//4 26//4
f 1//4 26//4 25//4
f 437//4 441//4 2//4
f 435//4 437//4 2//4
f 2//4 1//4 25//4
f 2//4 25//4 27//4
f 436//4 435//4 2//4
f 439//4 436//4 2//4
f 2//4 27//4 30//4
f 28//4 40//4 74//4
f 6//4 447//4 445//4
f 417//4 412//4 6//4
f 407//4 417//4 6//4
f 6//4 445//4 444//4
f 6//4 444//4 446//4
f 409//4 407//4 6//4
f 405//4 409//4 6//4
f 6//4 446//4 448//4
f 405//4 6//4 448//4
f 403//4 405//4 448//4
f 403//4 448//4 442//4
f 403//4 442//4 450//4
f 403//4 450//4 438//4
f 403//4 438//4 439//4
f 30//4 28//4 74//4
f 30//4 74//4 72//4
f 403//4 439//4 2//4
f 404//4 403//4 2//4
f 30//4 72//4 65//4
f 30//4 65//4 66//4
f 379//4 418//4 406//4
f 380//4 379//4 406//4
f 380//4 406//4 408//4
f 371//4 380//4 408//4
f 371//4 408//4 404//4
f 373//4 371//4 404//4
f 30//4 66//4 63//4
f 2//4 30//4 63//4
f 373//4 404//4 2//4
f 369//4 373//4 2//4
f 2//4 63//4 64//4
f 2//4 64//4 71//4
f 386//4 369//4 2//4
f 384//4 386//4 2//4
f 73//4 69//4 102//4
f 73//4 102//4 107//4
f 342//4 382//4 385//4
f 335//4 342//4 385//4
f 335//4 385//4 384//4
f 333//4 335//4 384//4
f 71//4 73//4 107//4
f 71//4 107//4 108//4
f 333//4 384//4 2//4
f 344//4 333//4 2//4
f 71//4 108//4 104//4
f 71//4 104//4 103//4
f 348//4 344//4 2//4
f 347//4 348//4 2//4
f 2//4 71//4 103//4
f 2//4 103//4 105//4
f 2//4 105//4 106//4
f 101//4 99//4 134//4
f 297//4 346//4 349//4
f 309//4 297//4 349//4
f 309//4 349//4 350//4
f 311//4 309//4 350//4
f 311//4 350//4 347//4
f 314//4 311//4 347//4
f 106//4 101//4 134//4
f 106//4 134//4 136//4
f 314//4 347//4 2//4
f 312//4 314//4 2//4
f 106//4 136//4 138//4
f 106//4 138//4 141//4
f 261//4 308//4 310//4
f 271//4 261//4 310//4
f 271//4 310//4 313//4
f 273//4 271//4 313//4
f 273//4 313//4 312//4
f 276//4 273//4 312//4
f 106//4 141//4 140//4
f 2//4 106//4 140//4
f 276//4 312//4 2//4
f 275//4 276//4 2//4
f 2//4 140//4 142//4
f 2//4 142//4 139//4
f 137//4 135//4 168//4
f 137//4 168//4 170//4
f 233//4 272//4 274//4
f 237//4 233//4 274//4
f 237//4 274//4 277//4
f 240//4 237//4 277//4
f 240//4 277//4 278//4
f 239//4 240//4 278//4
f 239//4 278//4 275//4
f 242//4 239//4 275//4
f 139//4 137//4 170//4
f 139//4 170//4 172//4
f 242//4 275//4 2//4
f 139//4 172//4 175//4
f 139//4 175//4 174//4
f 201//4 234//4 236//4
f 203//4 201//4 236//4
f 203//4 236//4 241//4
f 205//4 203//4 241//4
f 205//4 241//4 238//4
f 208//4 205//4 238//4
f 208//4 238//4 242//4
f 206//4 208//4 242//4
f 2//4 139//4 174//4
f 2//4 174//4 176//4
f 206//4 242//4 2//4
f 206//4 2//4 176//4
f 206//4 176//4 173//4
f 207//4 206//4 173//4
f 171//4 169//4 452//4
f 207//4 173//4 171//4
f 204//4 207//4 171//4
f 171//4 452//4 202//4
f 443//4 447//4 6//4
f 6//4 2//4 441//4
f 6//4 441//4 440//4
f 449//4 443//4 6//4
f 383//4 382//4 342//4
f 342//4 337//4 381//4
f 345//4 346//4 297//4
f 297//4 299//4 343//4
f 307//4 308//4 261//4
f 261//4 263//4 306//4
f 272//4 233//4 227//4
f 234//4 201//4 197//4
f 452//4 169//4 160//4
f 168//4 135//4 126//4
f 134//4 99//4 97//4
f 100//4 102//4 69//4
f 70//4 74//4 40//4
f 3//5 7//5 5//5
f 8//6 4//6 2//6
f 24//7 18//7 33//7
f 18//8 23//8 37//8
f 37//9 23//9 21//9
f 35//10 21//10 19//10
f 34//11 19//11 20//11
f 36//12 20//12 22//12
f 39//13 22//13 17//13
f 32//14 17//14 14//14
f 38//15 14//15 12//15
f 29//16 12//16 15//16
f 15//17 10//17 26//17
f 10//18 9//18 25//18
f 9//19 11//19 27//19
f 11//20 16//20 30//20
f 16//21 13//21 28//21
f 13//22 24//22 40//22
f 52//7 57//7 68//7
f 55//8 59//8 68//8
f 59//9 55//9 50//9
f 62//10 50//10 49//10
f 60//11 49//11 51//11
f 61//12 51//12 48//12
f 58//13 48//13 54//13
f 74//2 70//2 67//2
f 67//14 54//14 56//14
f 47//15 72//15 74//15
f 74//33 56//33 53//33
f 72//16 47//16 44//16
f 44//17 42//17 66//17
f 42//18 41//18 63//18
f 41//19 43//19 64//19
f 43//20 45//20 71//20
f 45//21 46//21 73//21
f 46//22 52//22 69//22
f 82//7 85//7 97//7
f 85//8 91//8 93//8
f 93//9 91//9 87//9
f 96//10 87//10 86//10
f 94//11 86//11 88//11
f 95//12 88//12 90//12
f 92//13 90//13 89//13
f 102//2 100//2 98//2
f 98//14 89//14 84//14
f 107//15 102//15 84//15
f 84//4 83//4 81//4
f 107//16 81//16 77//16
f 108//17 77//17 76//17
f 76//18 75//18 103//18
f 75//19 79//19 105//19
f 79//20 78//20 106//20
f 78//21 80//21 101//21
f 80//22 82//22 99//22
f 116//7 119//7 126//7
f 119//8 121//8 128//8
f 128//9 121//9 124//9
f 131//10 124//10 123//10
f 129//11 123//11 125//11
f 130//12 125//12 122//12
f 127//13 122//13 120//13
f 120//34 117//34 118//34
f 118//14 133//14 132//14
f 136//35 134//35 133//35
f 133//15 118//15 115//15
f 136//16 115//16 113//16
f 113//17 110//17 141//17
f 110//18 109//18 140//18
f 109//19 111//19 142//19
f 111//20 114//20 139//20
f 114//21 112//21 137//21
f 116//22 135//22 137//22
f 153//7 160//7 169//7
f 153//8 155//8 161//8
f 161//9 155//9 158//9
f 164//10 158//10 157//10
f 162//11 157//11 159//11
f 163//12 159//12 156//12
f 165//13 156//13 154//13
f 167//14 166//14 154//14
f 151//14 152//14 167//14
f 168//15 167//15 152//15
f 152//15 149//15 170//15
f 170//16 149//16 148//16
f 148//17 144//17 175//17
f 144//18 143//18 174//18
f 143//19 145//19 176//19
f 145//20 147//20 173//20
f 147//21 146//21 171//21
f 146//22 150//22 169//22
f 201//7 184//7 186//7
f 186//8 188//8 198//8
f 188//9 191//9 194//9
f 194//10 191//10 190//10
f 193//11 190//11 192//11
f 195//12 192//12 189//12
f 199//13 189//13 187//13
f 185//14 200//14 196//14
f 200//15 185//15 181//15
f 202//16 181//16 180//16
f 180//17 178//17 207//17
f 178//18 177//18 206//18
f 177//19 179//19 208//19
f 208//20 179//20 183//20
f 183//21 182//21 203//21
f 182//22 184//22 201//22
f 216//7 219//7 227//7
f 219//8 224//8 231//8
f 231//9 224//9 223//9
f 230//10 223//10 225//10
f 229//11 225//11 222//11
f 228//12 222//12 221//12
f 232//13 221//13 220//13
f 235//14 226//14 220//14
f 220//2 217//2 218//2
f 236//4 234//4 235//4
f 235//15 218//15 212//15
f 236//16 212//16 214//16
f 214//17 210//17 238//17
f 238//18 210//18 209//18
f 209//19 211//19 239//19
f 211//20 215//20 240//20
f 215//21 213//21 237//21
f 213//22 216//22 233//22
f 247//7 253//7 263//7
f 253//8 256//8 267//8
f 267//9 256//9 260//9
f 266//10 260//10 258//10
f 264//11 258//11 259//11
f 265//12 259//12 257//12
f 268//13 257//13 255//13
f 252//36 251//36 269//36
f 269//14 262//14 255//14
f 254//37 252//37 269//37
f 270//38 269//38 251//38
f 251//15 248//15 274//15
f 272//39 270//39 251//39
f 274//16 248//16 244//16
f 244//17 245//17 278//17
f 245//18 243//18 275//18
f 243//19 246//19 276//19
f 246//20 250//20 273//20
f 250//21 249//21 271//21
f 249//22 247//22 261//22
f 285//7 289//7 299//7
f 289//8 292//8 304//8
f 304//9 292//9 295//9
f 301//10 295//10 294//10
f 300//11 294//11 296//11
f 303//12 296//12 293//12
f 298//13 302//13 293//13
f 290//40 291//40 298//40
f 305//14 298//14 291//14
f 288//41 287//41 305//41
f 306//42 305//42 287//42
f 287//15 286//15 307//15
f 308//43 307//43 286//43
f 286//16 280//16 310//16
f 280//17 281//17 313//17
f 281//18 279//18 312//18
f 279//19 282//19 314//19
f 282//20 283//20 311//20
f 283//21 284//21 309//21
f 309//22 284//22 285//22
f 322//7 321//7 342//7
f 321//8 327//8 337//8
f 337//9 327//9 332//9
f 340//10 332//10 330//10
f 338//11 330//11 331//11
f 339//12 331//12 329//12
f 326//13 341//13 336//13
f 336//44 329//44 328//44
f 323//14 334//14 341//14
f 341//45 326//45 325//45
f 343//46 334//46 323//46
f 323//15 320//15 345//15
f 349//4 346//4 345//4
f 345//16 320//16 318//16
f 318//17 316//17 350//17
f 316//18 315//18 347//18
f 315//19 319//19 348//19
f 319//20 317//20 344//20
f 324//21 333//21 344//21
f 324//22 322//22 335//22
f 358//7 360//7 380//7
f 360//8 359//8 379//8
f 379//9 359//9 367//9
f 377//10 367//10 366//10
f 375//11 366//11 368//11
f 368//47 364//47 365//47
f 365//12 374//12 376//12
f 378//13 374//13 365//13
f 365//48 363//48 361//48
f 378//14 361//14 357//14
f 370//15 357//15 356//15
f 383//49 381//49 372//49
f 372//16 356//16 354//16
f 385//50 382//50 383//50
f 383//17 354//17 352//17
f 352//18 351//18 384//18
f 351//19 353//19 386//19
f 386//20 353//20 355//20
f 355//21 362//21 373//21
f 362//22 358//22 371//22
f 401//7 395//7 412//7
f 395//8 399//8 416//8
f 416//9 399//9 397//9
f 414//10 397//10 396//10
f 413//11 396//11 398//11
f 415//12 398//12 400//12
f 410//13 400//13 394//13
f 411//14 394//14 402//14
f 418//15 402//15 390//15
f 406//16 390//16 391//16
f 391//17 388//17 404//17
f 388//18 387//18 403//18
f 387//19 389//19 405//19
f 389//20 393//20 409//20
f 393//21 392//21 407//21
f 392//22 401//22 417//22
f 433//7 428//7 443//7
f 428//8 432//8 447//8
f 447//9 432//9 430//9
f 445//10 430//10 429//10
f 444//11 429//11 431//11
f 446//12 431//12 426//12
f 448//13 426//13 427//13
f 442//14 427//14 434//14
f 450//15 434//15 422//15
f 438//16 422//16 424//16
f 424//17 420//17 436//17
f 420//18 419//18 435//18
f 419//19 421//19 437//19
f 421//20 425//20 441//20
f 425//21 423//21 440//21
f 423//22 433//22 449//22
f 200//15 181//15 202//15
f 185//14 196//14 187//14
