# Blender 5.2.1 LTS
# www.blender.org
mtllib kit_spacer_20.mtl
o kit_spacer_20
v 0.000000 0.005000 -0.010000
v 0.000000 0.005000 0.010000
v 0.001294 0.004830 -0.010000
v 0.001294 0.004830 0.010000
v 0.002500 0.004330 -0.010000
v 0.002500 0.004330 0.010000
v 0.003536 0.003536 -0.010000
v 0.003536 0.003536 0.010000
v 0.004330 0.002500 -0.010000
v 0.004330 0.002500 0.010000
v 0.004830 0.001294 -0.010000
v 0.004830 0.001294 0.010000
v 0.005000 0.000000 -0.010000
v 0.005000 0.000000 0.010000
v 0.004830 -0.001294 -0.010000
v 0.004830 -0.001294 0.010000
v 0.004330 -0.002500 -0.010000
v 0.004330 -0.002500 0.010000
v 0.003536 -0.003536 -0.010000
v 0.003536 -0.003536 0.010000
v 0.002500 -0.004330 -0.010000
v 0.002500 -0.004330 0.010000
v 0.001294 -0.004830 -0.010000
v 0.001294 -0.004830 0.010000
v 0.000000 -0.005000 -0.010000
v 0.000000 -0.005000 0.010000
v -0.001294 -0.004830 -0.010000
v -0.001294 -0.004830 0.010000
v -0.002500 -0.004330 -0.010000
v -0.002500 -0.004330 0.010000
v -0.003536 -0.003536 -0.010000
v -0.003536 -0.003536 0.010000
v -0.004330 -0.002500 -0.010000
v -0.004330 -0.002500 0.010000
v -0.004830 -0.001294 -0.010000
v -0.004830 -0.001294 0.010000
v -0.005000 0.000000 -0.010000
v -0.005000 0.000000 0.010000
v -0.004830 0.001294 -0.010000
v -0.004830 0.001294 0.010000
v -0.004330 0.002500 -0.010000
v -0.004330 0.002500 0.010000
v -0.003536 0.003536 -0.010000
v -0.003536 0.003536 0.010000
v -0.002500 0.004330 -0.010000
v -0.002500 0.004330 0.010000
v -0.001294 0.004830 -0.010000
v -0.001294 0.004830 0.010000
v -0.002000 0.000000 0.010000
v -0.001848 -0.000765 0.010000
v -0.001848 0.000765 0.010000
v -0.000765 -0.001848 0.010000
v -0.000765 0.001848 0.010000
v -0.001414 -0.001414 0.010000
v -0.001414 0.001414 0.010000
v 0.000765 -0.001848 0.010000
v 0.000795 -0.001828 0.010000
v 0.000765 0.001848 0.010000
v 0.002000 0.000000 0.010000
v 0.001848 -0.000765 0.010000
v 0.001848 0.000765 0.010000
v 0.001414 -0.001414 0.010000
v 0.001414 0.001414 0.010000
v 0.000000 0.002000 0.010000
v 0.000000 -0.002000 0.010000
v -0.002000 0.000000 -0.010000
v -0.001848 -0.000765 -0.010000
v -0.001848 0.000765 -0.010000
v -0.001414 0.001414 -0.010000
v -0.000765 -0.001848 -0.010000
v -0.000731 0.001855 -0.010000
v -0.000765 0.001848 -0.010000
v -0.001414 -0.001414 -0.010000
v 0.000765 -0.001848 -0.010000
v 0.000765 0.001848 -0.010000
v 0.002000 0.000000 -0.010000
v 0.001848 0.000765 -0.010000
v 0.001848 -0.000765 -0.010000
v 0.001414 0.001414 -0.010000
v 0.001414 -0.001414 -0.010000
v 0.000000 -0.002000 -0.010000
v 0.000000 0.002000 -0.010000
vn 0.1303 0.9915 -0.0000
vn 0.3830 0.9238 -0.0000
vn 0.6083 0.7937 -0.0000
vn 0.7937 0.6083 -0.0000
vn 0.9238 0.3830 -0.0000
vn 0.9915 0.1303 -0.0000
vn 0.9915 -0.1303 -0.0000
vn 0.9238 -0.3830 -0.0000
vn 0.7937 -0.6083 -0.0000
vn 0.6083 -0.7937 -0.0000
vn 0.3830 -0.9238 -0.0000
vn 0.1303 -0.9915 -0.0000
vn -0.1303 -0.9915 -0.0000
vn -0.3830 -0.9238 -0.0000
vn -0.6083 -0.7937 -0.0000
vn -0.7937 -0.6083 -0.0000
vn -0.9238 -0.3830 -0.0000
vn -0.9915 -0.1303 -0.0000
vn -0.9915 0.1303 -0.0000
vn -0.9238 0.3830 -0.0000
vn -0.7937 0.6083 -0.0000
vn -0.6083 0.7937 -0.0000
vn -0.0000 -0.0000 1.0000
vn -0.3830 0.9238 -0.0000
vn -0.1303 0.9915 -0.0000
vn -0.0000 -0.0000 -1.0000
vn -0.1949 -0.9808 -0.0000
vn -0.5559 -0.8313 -0.0000
vn -0.8313 -0.5559 -0.0000
vn -0.9808 -0.1949 -0.0000
vn -0.9808 0.1949 -0.0000
vn -0.8313 0.5559 -0.0000
vn -0.5559 0.8313 -0.0000
vn -0.1949 0.9808 -0.0000
vn 0.1949 0.9808 -0.0000
vn 0.5559 0.8313 -0.0000
vn 0.8313 0.5559 -0.0000
vn 0.9808 0.1949 -0.0000
vn 0.9808 -0.1949 -0.0000
vn 0.8313 -0.5559 -0.0000
vn 0.5559 -0.8313 -0.0000
vn 0.2017 -0.9795 -0.0003
vn -0.5547 0.8321 -0.0000
vn -0.5559 0.8312 -0.0000
vn 0.1946 -0.9809 -0.0000
vn 0.1949 -0.9808 -0.0000
s 0
usemtl DetailSteel
f 1//1 4//1 3//1
f 3//2 6//2 5//2
f 5//3 8//3 7//3
f 7//4 10//4 9//4
f 9//5 12//5 11//5
f 11//6 14//6 13//6
f 13//7 16//7 15//7
f 15//8 18//8 17//8
f 17//9 20//9 19//9
f 19//10 22//10 21//10
f 21//11 24//11 23//11
f 23//12 26//12 25//12
f 25//13 28//13 27//13
f 27//14 30//14 29//14
f 29//15 32//15 31//15
f 31//16 34//16 33//16
f 33//17 36//17 35//17
f 35//18 38//18 37//18
f 37//19 40//19 39//19
f 39//20 42//20 41//20
f 41//21 44//21 43//21
f 43//22 46//22 45//22
f 52//23 54//23 30//23
f 8//23 58//23 63//23
f 45//24 48//24 47//24
f 47//25 2//25 1//25
f 21//26 78//26 76//26
f 31//26 47//26 68//26
f 75//27 64//27 82//27
f 79//28 58//28 75//28
f 61//29 79//29 77//29
f 59//30 77//30 76//30
f 60//31 76//31 78//31
f 62//32 78//32 80//32
f 57//33 80//33 74//33
f 65//34 74//34 81//34
f 52//35 81//35 70//35
f 54//36 70//36 73//36
f 67//37 54//37 73//37
f 66//38 50//38 67//38
f 68//39 49//39 66//39
f 69//40 51//40 68//40
f 72//41 55//41 69//41
f 64//42 72//42 71//42
f 1//1 2//1 4//1
f 3//2 4//2 6//2
f 5//3 6//3 8//3
f 7//4 8//4 10//4
f 9//5 10//5 12//5
f 11//6 12//6 14//6
f 13//7 14//7 16//7
f 15//8 16//8 18//8
f 17//9 18//9 20//9
f 19//10 20//10 22//10
f 21//11 22//11 24//11
f 23//12 24//12 26//12
f 25//13 26//13 28//13
f 27//14 28//14 30//14
f 29//15 30//15 32//15
f 31//16 32//16 34//16
f 33//17 34//17 36//17
f 35//18 36//18 38//18
f 37//19 38//19 40//19
f 39//20 40//20 42//20
f 41//21 42//21 44//21
f 43//22 44//22 46//22
f 28//23 26//23 24//23
f 24//23 22//23 57//23
f 24//23 57//23 56//23
f 30//23 28//23 24//23
f 34//23 32//23 30//23
f 38//23 36//23 34//23
f 50//23 49//23 38//23
f 54//23 50//23 38//23
f 38//23 34//23 30//23
f 30//23 24//23 56//23
f 30//23 56//23 65//23
f 54//23 38//23 30//23
f 30//23 65//23 52//23
f 16//23 14//23 12//23
f 12//23 10//23 8//23
f 8//23 6//23 4//23
f 4//23 2//23 48//23
f 48//23 46//23 44//23
f 44//23 42//23 40//23
f 40//23 38//23 49//23
f 40//23 49//23 51//23
f 48//23 44//23 40//23
f 8//23 4//23 48//23
f 16//23 12//23 8//23
f 20//23 18//23 16//23
f 57//23 22//23 20//23
f 62//23 57//23 20//23
f 20//23 16//23 8//23
f 8//23 48//23 40//23
f 40//23 51//23 55//23
f 40//23 55//23 53//23
f 60//23 62//23 20//23
f 59//23 60//23 20//23
f 8//23 40//23 53//23
f 8//23 53//23 64//23
f 59//23 20//23 8//23
f 61//23 59//23 8//23
f 8//23 64//23 58//23
f 63//23 61//23 8//23
f 45//24 46//24 48//24
f 47//25 48//25 2//25
f 71//26 47//26 1//26
f 1//26 3//26 5//26
f 5//26 7//26 9//26
f 9//26 11//26 13//26
f 13//26 15//26 17//26
f 17//26 19//26 21//26
f 21//26 23//26 25//26
f 25//26 27//26 29//26
f 29//26 31//26 73//26
f 29//26 73//26 70//26
f 21//26 25//26 29//26
f 13//26 17//26 21//26
f 5//26 9//26 13//26
f 71//26 1//26 5//26
f 82//26 71//26 5//26
f 5//26 13//26 21//26
f 21//26 29//26 70//26
f 21//26 70//26 81//26
f 75//26 82//26 5//26
f 79//26 75//26 5//26
f 21//26 81//26 74//26
f 21//26 74//26 80//26
f 77//26 79//26 5//26
f 76//26 77//26 5//26
f 21//26 80//26 78//26
f 76//26 5//26 21//26
f 67//26 73//26 31//26
f 31//26 33//26 35//26
f 35//26 37//26 39//26
f 39//26 41//26 43//26
f 43//26 45//26 47//26
f 47//26 71//26 72//26
f 47//26 72//26 69//26
f 39//26 43//26 47//26
f 31//26 35//26 39//26
f 66//26 67//26 31//26
f 47//26 69//26 68//26
f 68//26 66//26 31//26
f 31//26 39//26 47//26
f 75//27 58//27 64//27
f 79//28 63//28 58//28
f 61//29 63//29 79//29
f 59//30 61//30 77//30
f 60//31 59//31 76//31
f 62//32 60//32 78//32
f 74//43 56//43 57//43
f 57//44 62//44 80//44
f 65//34 56//34 74//34
f 52//35 65//35 81//35
f 54//36 52//36 70//36
f 67//37 50//37 54//37
f 66//38 49//38 50//38
f 68//39 51//39 49//39
f 69//40 55//40 51//40
f 72//41 53//41 55//41
f 71//45 82//45 64//45
f 64//46 53//46 72//46
