# Blender 5.2.1 LTS
# www.blender.org
mtllib kit_beam_100.mtl
o kit_beam_100
v -0.010000 -0.050000 0.002000
v -0.010000 0.050000 0.002000
v -0.010000 -0.050000 -0.002000
v -0.010000 0.050000 -0.002000
v 0.010000 -0.050000 0.002000
v 0.010000 0.050000 0.002000
v 0.010000 -0.050000 -0.002000
v 0.010000 0.050000 -0.002000
v -0.002000 -0.040000 -0.002000
v -0.001848 -0.040765 -0.002000
v -0.001848 -0.039235 -0.002000
v -0.000765 -0.041848 -0.002000
v -0.000765 -0.038152 -0.002000
v 0.000000 -0.042000 -0.002000
v -0.001414 -0.041414 -0.002000
v -0.001414 -0.038586 -0.002000
v 0.000765 -0.041848 -0.002000
v 0.000765 -0.038152 -0.002000
v 0.002000 -0.040000 -0.002000
v 0.001848 -0.040765 -0.002000
v 0.001848 -0.039235 -0.002000
v 0.001414 -0.041414 -0.002000
v 0.001414 -0.038586 -0.002000
v 0.000000 -0.038000 -0.002000
v -0.002000 -0.040000 0.002000
v -0.001848 -0.040765 0.002000
v -0.001848 -0.039235 0.002000
v -0.000765 -0.038152 0.002000
v -0.000765 -0.041848 0.002000
v -0.001414 -0.038586 0.002000
v -0.001414 -0.041414 0.002000
v 0.000765 -0.041848 0.002000
v 0.000765 -0.038152 0.002000
v 0.002000 -0.040000 0.002000
v 0.001848 -0.039235 0.002000
v 0.001848 -0.040765 0.002000
v 0.000000 -0.042000 0.002000
v 0.001414 -0.041414 0.002000
v 0.001414 -0.038586 0.002000
v 0.000000 -0.038000 0.002000
v -0.002000 -0.020000 -0.002000
v -0.001848 -0.020765 -0.002000
v -0.001414 -0.018586 -0.002000
v -0.001414 -0.021414 -0.002000
v -0.001848 -0.019235 -0.002000
v -0.000765 -0.021848 -0.002000
v 0.000765 -0.018152 -0.002000
v 0.000000 -0.018000 -0.002000
v 0.000000 -0.022000 -0.002000
v -0.000765 -0.018152 -0.002000
v 0.000742 -0.021852 -0.002000
v 0.000765 -0.021848 -0.002000
v 0.001414 -0.018586 -0.002000
v 0.001267 -0.021513 -0.002000
v 0.001414 -0.021414 -0.002000
v 0.002000 -0.020000 -0.002000
v 0.001848 -0.020765 -0.002000
v 0.001848 -0.019235 -0.002000
v -0.000765 -0.018152 0.002000
v 0.000000 -0.022000 0.002000
v 0.000000 -0.018000 0.002000
v 0.000765 -0.018152 0.002000
v 0.001414 -0.021414 0.002000
v 0.001414 -0.018586 0.002000
v 0.002000 -0.020000 0.002000
v 0.001848 -0.020765 0.002000
v 0.001848 -0.019235 0.002000
v 0.000765 -0.021848 0.002000
v -0.000742 -0.021852 0.002000
v -0.001414 -0.018586 0.002000
v -0.000765 -0.021848 0.002000
v -0.001267 -0.021513 0.002000
v -0.002000 -0.020000 0.002000
v -0.001848 -0.019235 0.002000
v -0.001414 -0.021414 0.002000
v -0.001848 -0.020765 0.002000
v -0.002000 0.000000 -0.002000
v -0.001414 -0.001414 -0.002000
v -0.001848 -0.000765 -0.002000
v -0.001848 0.000765 -0.002000
v 0.000000 0.002000 -0.002000
v -0.000765 -0.001848 -0.002000
v -0.000765 0.001848 -0.002000
v -0.001414 0.001414 -0.002000
v 0.000000 -0.002000 -0.002000
v 0.001414 0.001414 -0.002000
v 0.000765 0.001848 -0.002000
v 0.001174 -0.001575 -0.002000
v 0.000765 -0.001848 -0.002000
v 0.001453 -0.001356 -0.002000
v 0.001414 -0.001414 -0.002000
v 0.002000 0.000000 -0.002000
v 0.001848 0.000765 -0.002000
v 0.001848 -0.000765 -0.002000
v 0.000000 0.002000 0.002000
v 0.000765 0.001848 0.002000
v 0.000765 -0.001848 0.002000
v 0.002000 0.000000 0.002000
v 0.001848 0.000765 0.002000
v 0.001414 -0.001414 0.002000
v 0.001848 -0.000765 0.002000
v 0.001414 0.001414 0.002000
v -0.001414 0.001414 0.002000
v 0.000000 -0.002000 0.002000
v -0.000765 -0.001848 0.002000
v -0.001174 -0.001575 0.002000
v -0.000765 0.001848 0.002000
v -0.001453 -0.001356 0.002000
v -0.001414 -0.001414 0.002000
v -0.002000 0.000000 0.002000
v -0.001848 -0.000765 0.002000
v -0.001848 0.000765 0.002000
v -0.002000 0.020000 -0.002000
v -0.001848 0.019235 -0.002000
v -0.001848 0.020765 -0.002000
v -0.000765 0.018152 -0.002000
v -0.000765 0.021848 -0.002000
v -0.001414 0.018586 -0.002000
v -0.001414 0.021414 -0.002000
v 0.000765 0.018152 -0.002000
v 0.000765 0.021848 -0.002000
v 0.001848 0.019235 -0.002000
v 0.002000 0.020000 -0.002000
v 0.001848 0.020765 -0.002000
v 0.001414 0.018586 -0.002000
v 0.001414 0.021414 -0.002000
v 0.000000 0.022000 -0.002000
v 0.000000 0.018000 -0.002000
v -0.002000 0.020000 0.002000
v -0.001848 0.019235 0.002000
v -0.001848 0.020765 0.002000
v -0.000765 0.021848 0.002000
v -0.000765 0.018152 0.002000
v -0.001414 0.021414 0.002000
v -0.001414 0.018586 0.002000
v 0.000765 0.018152 0.002000
v 0.000765 0.021848 0.002000
v 0.002000 0.020000 0.002000
v 0.001848 0.020765 0.002000
v 0.001848 0.019235 0.002000
v 0.001414 0.021414 0.002000
v 0.001414 0.018586 0.002000
v 0.000000 0.022000 0.002000
v 0.000000 0.018000 0.002000
v -0.002000 0.040000 -0.002000
v -0.001848 0.039235 -0.002000
v -0.001848 0.040765 -0.002000
v -0.000765 0.038152 -0.002000
v -0.001414 0.038586 -0.002000
v -0.000765 0.041848 -0.002000
v -0.001414 0.041414 -0.002000
v 0.000765 0.038152 -0.002000
v 0.000765 0.041848 -0.002000
v 0.002000 0.040000 -0.002000
v 0.001848 0.040765 -0.002000
v 0.001848 0.039235 -0.002000
v 0.001414 0.041414 -0.002000
v 0.001414 0.038586 -0.002000
v 0.000000 0.042000 -0.002000
v 0.000000 0.038000 -0.002000
v -0.002000 0.040000 0.002000
v -0.001848 0.039235 0.002000
v -0.001848 0.040765 0.002000
v -0.000765 0.038152 0.002000
v -0.001414 0.038586 0.002000
v -0.000765 0.041848 0.002000
v -0.001414 0.041414 0.002000
v 0.000765 0.038152 0.002000
v 0.000765 0.041848 0.002000
v 0.002000 0.040000 0.002000
v 0.001848 0.040765 0.002000
v 0.001848 0.039235 0.002000
v 0.001414 0.041414 0.002000
v 0.001414 0.038586 0.002000
v 0.000000 0.042000 0.002000
v 0.000000 0.038000 0.002000
vn -1.0000 -0.0000 -0.0000
vn -0.0000 -0.0000 -1.0000
vn 1.0000 -0.0000 -0.0000
vn -0.0000 -0.0000 1.0000
vn -0.0000 -1.0000 -0.0000
vn -0.0000 1.0000 -0.0000
vn -0.1949 -0.9808 -0.0000
vn -0.5559 -0.8313 -0.0000
vn -0.8313 -0.5559 -0.0000
vn -0.9808 -0.1949 -0.0000
vn -0.9808 0.1949 -0.0000
vn -0.8313 0.5559 -0.0000
vn -0.5559 0.8313 -0.0000
vn -0.1949 0.9808 -0.0000
vn 0.1949 0.9808 -0.0000
vn 0.5559 0.8313 -0.0000
vn 0.8313 0.5559 -0.0000
vn 0.9808 0.1949 -0.0000
vn 0.9808 -0.1949 -0.0000
vn 0.8313 -0.5559 -0.0000
vn 0.5559 -0.8313 -0.0000
vn 0.1949 -0.9808 -0.0000
vn -0.5551 0.8318 -0.0002
vn 0.8314 0.5557 -0.0000
vn -0.5586 0.8294 -0.0000
vn -0.0000 -0.0002 -1.0000
vn -0.0000 0.0003 -1.0000
vn -0.0000 0.0003 1.0000
vn 0.8298 0.5580 -0.0000
s 0
usemtl ChassisMetal
f 1//1 4//1 3//1
f 79//2 78//2 41//2
f 4//2 153//2 159//2
f 92//2 125//2 122//2
f 91//2 50//2 88//2
f 52//2 24//2 51//2
f 7//2 12//2 14//2
f 7//3 6//3 5//3
f 1//4 32//4 37//4
f 101//4 100//4 65//4
f 110//4 135//4 130//4
f 6//4 166//4 175//4
f 109//4 62//4 106//4
f 71//4 40//4 69//4
f 3//5 5//5 1//5
f 8//6 2//6 6//6
f 24//7 33//7 40//7
f 18//8 39//8 33//8
f 39//9 21//9 35//9
f 35//10 19//10 34//10
f 34//11 20//11 36//11
f 36//12 22//12 38//12
f 38//13 17//13 32//13
f 32//14 14//14 37//14
f 37//15 12//15 29//15
f 29//16 15//16 31//16
f 15//17 26//17 31//17
f 10//18 25//18 26//18
f 9//19 27//19 25//19
f 11//20 30//20 27//20
f 16//21 28//21 30//21
f 13//22 40//22 28//22
f 48//7 62//7 61//7
f 47//8 64//8 62//8
f 64//9 58//9 67//9
f 67//10 56//10 65//10
f 65//11 57//11 66//11
f 66//12 55//12 63//12
f 63//23 54//23 52//23
f 49//14 68//14 52//14
f 60//15 46//15 71//15
f 71//16 44//16 75//16
f 44//17 76//17 75//17
f 42//18 73//18 76//18
f 41//19 74//19 73//19
f 45//20 70//20 74//20
f 50//21 70//21 43//21
f 50//22 61//22 59//22
f 81//7 96//7 95//7
f 87//8 102//8 96//8
f 102//9 93//9 99//9
f 99//10 92//10 98//10
f 98//11 94//11 101//11
f 94//12 91//12 100//12
f 91//13 89//13 97//13
f 97//14 85//14 104//14
f 104//15 82//15 105//15
f 105//16 78//16 109//16
f 108//24 78//24 111//24
f 79//18 110//18 111//18
f 77//19 112//19 110//19
f 112//20 84//20 103//20
f 84//21 107//21 103//21
f 83//22 95//22 107//22
f 127//7 137//7 143//7
f 121//8 141//8 137//8
f 141//9 124//9 139//9
f 139//10 123//10 138//10
f 138//11 122//11 140//11
f 140//12 125//12 142//12
f 142//13 120//13 136//13
f 136//14 128//14 144//14
f 144//15 116//15 133//15
f 133//16 118//16 135//16
f 118//17 130//17 135//17
f 114//18 129//18 130//18
f 113//19 131//19 129//19
f 115//20 134//20 131//20
f 119//21 132//21 134//21
f 117//22 143//22 132//22
f 159//7 169//7 175//7
f 153//8 173//8 169//8
f 173//9 155//9 171//9
f 171//10 154//10 170//10
f 170//11 156//11 172//11
f 172//12 158//12 174//12
f 174//13 152//13 168//13
f 168//14 160//14 176//14
f 176//15 148//15 164//15
f 164//16 149//16 165//16
f 149//17 162//17 165//17
f 146//18 161//18 162//18
f 145//19 163//19 161//19
f 147//20 167//20 163//20
f 151//21 166//21 167//21
f 150//22 175//22 166//22
f 1//1 2//1 4//1
f 10//2 15//2 3//2
f 4//2 117//2 119//2
f 4//2 119//2 115//2
f 9//2 10//2 3//2
f 11//2 9//2 3//2
f 4//2 115//2 113//2
f 4//2 113//2 114//2
f 11//2 3//2 4//2
f 51//2 13//2 16//2
f 16//2 11//2 4//2
f 49//2 51//2 16//2
f 46//2 49//2 16//2
f 116//2 128//2 93//2
f 116//2 93//2 86//2
f 118//2 116//2 86//2
f 118//2 86//2 87//2
f 114//2 118//2 87//2
f 114//2 87//2 81//2
f 44//2 46//2 16//2
f 42//2 44//2 16//2
f 4//2 114//2 81//2
f 4//2 81//2 83//2
f 41//2 42//2 16//2
f 88//2 43//2 45//2
f 41//2 16//2 4//2
f 88//2 45//2 41//2
f 89//2 88//2 41//2
f 4//2 83//2 84//2
f 4//2 84//2 80//2
f 85//2 89//2 41//2
f 82//2 85//2 41//2
f 4//2 80//2 77//2
f 41//2 4//2 77//2
f 78//2 82//2 41//2
f 41//2 77//2 79//2
f 150//2 151//2 4//2
f 4//2 8//2 157//2
f 4//2 157//2 153//2
f 159//2 150//2 4//2
f 155//2 157//2 8//2
f 7//2 22//2 20//2
f 7//2 20//2 19//2
f 154//2 155//2 8//2
f 156//2 154//2 8//2
f 8//2 7//2 19//2
f 8//2 19//2 21//2
f 158//2 156//2 8//2
f 8//2 21//2 23//2
f 18//2 24//2 54//2
f 8//2 23//2 18//2
f 18//2 54//2 55//2
f 18//2 55//2 57//2
f 4//2 151//2 147//2
f 127//2 117//2 4//2
f 121//2 127//2 4//2
f 4//2 147//2 145//2
f 4//2 145//2 146//2
f 126//2 121//2 4//2
f 124//2 126//2 4//2
f 4//2 146//2 149//2
f 124//2 4//2 149//2
f 123//2 124//2 149//2
f 123//2 149//2 148//2
f 123//2 148//2 160//2
f 123//2 160//2 152//2
f 123//2 152//2 158//2
f 18//2 57//2 56//2
f 8//2 18//2 56//2
f 123//2 158//2 8//2
f 122//2 123//2 8//2
f 8//2 56//2 58//2
f 8//2 58//2 53//2
f 8//2 53//2 47//2
f 48//2 50//2 90//2
f 8//2 47//2 48//2
f 48//2 90//2 94//2
f 92//2 93//2 128//2
f 48//2 94//2 92//2
f 92//2 128//2 120//2
f 8//2 48//2 92//2
f 122//2 8//2 92//2
f 92//2 120//2 125//2
f 91//2 90//2 50//2
f 50//2 43//2 88//2
f 52//2 54//2 24//2
f 24//2 13//2 51//2
f 17//2 22//2 7//2
f 7//2 3//2 15//2
f 7//2 15//2 12//2
f 14//2 17//2 7//2
f 7//3 8//3 6//3
f 29//4 31//4 1//4
f 1//4 5//4 38//4
f 1//4 38//4 32//4
f 37//4 29//4 1//4
f 36//4 38//4 5//4
f 6//4 137//4 141//4
f 6//4 141//4 139//4
f 34//4 36//4 5//4
f 35//4 34//4 5//4
f 6//4 139//4 138//4
f 6//4 138//4 140//4
f 35//4 5//4 6//4
f 69//4 33//4 39//4
f 39//4 35//4 6//4
f 60//4 69//4 39//4
f 68//4 60//4 39//4
f 136//4 144//4 112//4
f 136//4 112//4 103//4
f 142//4 136//4 103//4
f 142//4 103//4 107//4
f 140//4 142//4 107//4
f 140//4 107//4 95//4
f 63//4 68//4 39//4
f 66//4 63//4 39//4
f 6//4 140//4 95//4
f 6//4 95//4 96//4
f 65//4 66//4 39//4
f 106//4 64//4 67//4
f 65//4 39//4 6//4
f 106//4 67//4 65//4
f 105//4 106//4 65//4
f 6//4 96//4 102//4
f 6//4 102//4 99//4
f 104//4 105//4 65//4
f 97//4 104//4 65//4
f 6//4 99//4 98//4
f 65//4 6//4 98//4
f 100//4 97//4 65//4
f 65//4 98//4 101//4
f 1//4 31//4 26//4
f 1//4 26//4 25//4
f 163//4 167//4 2//4
f 161//4 163//4 2//4
f 2//4 1//4 25//4
f 2//4 25//4 27//4
f 162//4 161//4 2//4
f 165//4 162//4 2//4
f 2//4 27//4 30//4
f 28//4 40//4 72//4
f 2//4 30//4 28//4
f 28//4 72//4 75//4
f 28//4 75//4 76//4
f 6//4 173//4 171//4
f 143//4 137//4 6//4
f 132//4 143//4 6//4
f 6//4 171//4 170//4
f 6//4 170//4 172//4
f 134//4 132//4 6//4
f 131//4 134//4 6//4
f 6//4 172//4 174//4
f 131//4 6//4 174//4
f 129//4 131//4 174//4
f 129//4 174//4 168//4
f 129//4 168//4 176//4
f 129//4 176//4 164//4
f 129//4 164//4 165//4
f 28//4 76//4 73//4
f 2//4 28//4 73//4
f 129//4 165//4 2//4
f 130//4 129//4 2//4
f 2//4 73//4 74//4
f 2//4 74//4 70//4
f 2//4 70//4 59//4
f 61//4 62//4 108//4
f 2//4 59//4 61//4
f 61//4 108//4 111//4
f 110//4 112//4 144//4
f 61//4 111//4 110//4
f 110//4 144//4 133//4
f 2//4 61//4 110//4
f 130//4 2//4 110//4
f 110//4 133//4 135//4
f 169//4 173//4 6//4
f 6//4 2//4 167//4
f 6//4 167//4 166//4
f 175//4 169//4 6//4
f 109//4 108//4 62//4
f 62//4 64//4 106//4
f 71//4 72//4 40//4
f 40//4 33//4 69//4
f 3//5 7//5 5//5
f 8//6 4//6 2//6
f 24//7 18//7 33//7
f 18//8 23//8 39//8
f 39//9 23//9 21//9
f 35//10 21//10 19//10
f 34//11 19//11 20//11
f 36//12 20//12 22//12
f 38//13 22//13 17//13
f 32//14 17//14 14//14
f 37//15 14//15 12//15
f 29//16 12//16 15//16
f 15//17 10//17 26//17
f 10//18 9//18 25//18
f 9//19 11//19 27//19
f 11//20 16//20 30//20
f 16//21 13//21 28//21
f 13//22 24//22 40//22
f 48//7 47//7 62//7
f 47//8 53//8 64//8
f 64//9 53//9 58//9
f 67//10 58//10 56//10
f 65//11 56//11 57//11
f 66//12 57//12 55//12
f 52//13 68//13 63//13
f 63//25 55//25 54//25
f 52//4 51//4 49//4
f 49//14 60//14 68//14
f 71//2 69//2 60//2
f 60//15 49//15 46//15
f 75//4 72//4 71//4
f 71//16 46//16 44//16
f 44//17 42//17 76//17
f 42//18 41//18 73//18
f 41//19 45//19 74//19
f 45//20 43//20 70//20
f 50//21 59//21 70//21
f 50//22 48//22 61//22
f 81//7 87//7 96//7
f 87//8 86//8 102//8
f 102//9 86//9 93//9
f 99//10 93//10 92//10
f 98//11 92//11 94//11
f 100//12 101//12 94//12
f 94//26 90//26 91//26
f 97//13 100//13 91//13
f 91//27 88//27 89//27
f 97//14 89//14 85//14
f 104//15 85//15 82//15
f 109//28 106//28 105//28
f 105//16 82//16 78//16
f 108//29 109//29 78//29
f 78//17 79//17 111//17
f 79//18 77//18 110//18
f 77//19 80//19 112//19
f 112//20 80//20 84//20
f 84//21 83//21 107//21
f 83//22 81//22 95//22
f 127//7 121//7 137//7
f 121//8 126//8 141//8
f 141//9 126//9 124//9
f 139//10 124//10 123//10
f 138//11 123//11 122//11
f 140//12 122//12 125//12
f 142//13 125//13 120//13
f 136//14 120//14 128//14
f 144//15 128//15 116//15
f 133//16 116//16 118//16
f 118//17 114//17 130//17
f 114//18 113//18 129//18
f 113//19 115//19 131//19
f 115//20 119//20 134//20
f 119//21 117//21 132//21
f 117//22 127//22 143//22
f 159//7 153//7 169//7
f 153//8 157//8 173//8
f 173//9 157//9 155//9
f 171//10 155//10 154//10
f 170//11 154//11 156//11
f 172//12 156//12 158//12
f 174//13 158//13 152//13
f 168//14 152//14 160//14
f 176//15 160//15 148//15
f 164//16 148//16 149//16
f 149//17 146//17 162//17
f 146//18 145//18 161//18
f 145//19 147//19 163//19
f 147//20 151//20 167//20
f 151//21 150//21 166//21
f 150//22 159//22 175//22
