# Blender 5.2.1 LTS
# www.blender.org
mtllib kit_optical_sensor.mtl
o kit_optical_sensor
v -0.030000 -0.020000 -0.008000
v -0.030000 0.020000 -0.008000
v -0.030000 -0.020000 -0.012000
v -0.030000 0.020000 -0.012000
v 0.030000 -0.020000 -0.008000
v 0.030000 0.020000 -0.008000
v 0.030000 -0.020000 -0.012000
v 0.030000 0.020000 -0.012000
v -0.014000 -0.014000 0.009000
v -0.014000 -0.012000 0.011000
v -0.016000 -0.012000 0.009000
v -0.014000 -0.013733 0.009999
v -0.014999 -0.013733 0.009000
v -0.014956 -0.013473 0.009956
v -0.014999 -0.012000 0.010733
v -0.014000 -0.012999 0.010733
v -0.014956 -0.012956 0.010473
v -0.015733 -0.012999 0.009000
v -0.015733 -0.012000 0.009999
v -0.015473 -0.012956 0.009956
v -0.014000 0.012000 0.011000
v -0.014000 0.014000 0.009000
v -0.016000 0.012000 0.009000
v -0.014000 0.012999 0.010733
v -0.014999 0.012000 0.010733
v -0.014956 0.012956 0.010473
v -0.014999 0.013733 0.009000
v -0.014000 0.013733 0.009999
v -0.014956 0.013473 0.009956
v -0.015733 0.012000 0.009999
v -0.015733 0.012999 0.009000
v -0.015473 0.012956 0.009956
v -0.014000 -0.014000 -0.009000
v -0.016000 -0.012000 -0.009000
v -0.014000 -0.012000 -0.011000
v -0.014999 -0.013733 -0.009000
v -0.014000 -0.013733 -0.009999
v -0.014956 -0.013473 -0.009956
v -0.015733 -0.012000 -0.009999
v -0.015733 -0.012999 -0.009000
v -0.015473 -0.012956 -0.009956
v -0.014000 -0.012999 -0.010733
v -0.014999 -0.012000 -0.010733
v -0.014956 -0.012956 -0.010473
v -0.014000 0.014000 -0.009000
v -0.014000 0.012000 -0.011000
v -0.016000 0.012000 -0.009000
v -0.014000 0.013733 -0.009999
v -0.014999 0.013733 -0.009000
v -0.014956 0.013473 -0.009956
v -0.014999 0.012000 -0.010733
v -0.014000 0.012999 -0.010733
v -0.014956 0.012956 -0.010473
v -0.015733 0.012999 -0.009000
v -0.015733 0.012000 -0.009999
v -0.015473 0.012956 -0.009956
v 0.014000 -0.014000 0.009000
v 0.016000 -0.012000 0.009000
v 0.014000 -0.012000 0.011000
v 0.014999 -0.013733 0.009000
v 0.014000 -0.013733 0.009999
v 0.014956 -0.013473 0.009956
v 0.015733 -0.012000 0.009999
v 0.015733 -0.012999 0.009000
v 0.015473 -0.012956 0.009956
v 0.014000 -0.012999 0.010733
v 0.014999 -0.012000 0.010733
v 0.014956 -0.012956 0.010473
v 0.014000 0.014000 0.009000
v 0.014000 0.012000 0.011000
v 0.016000 0.012000 0.009000
v 0.014000 0.013733 0.009999
v 0.014999 0.013733 0.009000
v 0.014956 0.013473 0.009956
v 0.014999 0.012000 0.010733
v 0.014000 0.012999 0.010733
v 0.014956 0.012956 0.010473
v 0.015733 0.012999 0.009000
v 0.015733 0.012000 0.009999
v 0.015473 0.012956 0.009956
v 0.014000 -0.014000 -0.009000
v 0.014000 -0.012000 -0.011000
v 0.016000 -0.012000 -0.009000
v 0.014000 -0.013733 -0.009999
v 0.014999 -0.013733 -0.009000
v 0.014956 -0.013473 -0.009956
v 0.014999 -0.012000 -0.010733
v 0.014000 -0.012999 -0.010733
v 0.014956 -0.012956 -0.010473
v 0.015733 -0.012999 -0.009000
v 0.015733 -0.012000 -0.009999
v 0.015473 -0.012956 -0.009956
v 0.014000 0.014000 -0.009000
v 0.016000 0.012000 -0.009000
v 0.014000 0.012000 -0.011000
v 0.014999 0.013733 -0.009000
v 0.014000 0.013733 -0.009999
v 0.014956 0.013473 -0.009956
v 0.015733 0.012000 -0.009999
v 0.015733 0.012999 -0.009000
v 0.015473 0.012956 -0.009956
v 0.014000 0.012999 -0.010733
v 0.014999 0.012000 -0.010733
v 0.014956 0.012956 -0.010473
v 0.000000 0.006500 0.016000
v 0.000000 0.006500 0.017000
v 0.001682 0.006279 0.016000
v 0.001682 0.006279 0.017000
v 0.003250 0.005629 0.016000
v 0.003250 0.005629 0.017000
v 0.004596 0.004596 0.016000
v 0.004596 0.004596 0.017000
v 0.005629 0.003250 0.016000
v 0.005629 0.003250 0.017000
v 0.006279 0.001682 0.016000
v 0.006279 0.001682 0.017000
v 0.006500 0.000000 0.016000
v 0.006500 0.000000 0.017000
v 0.006279 -0.001682 0.016000
v 0.006279 -0.001682 0.017000
v 0.005629 -0.003250 0.016000
v 0.005629 -0.003250 0.017000
v 0.004596 -0.004596 0.016000
v 0.004596 -0.004596 0.017000
v 0.003250 -0.005629 0.016000
v 0.003250 -0.005629 0.017000
v 0.001682 -0.006279 0.016000
v 0.001682 -0.006279 0.017000
v 0.000000 -0.006500 0.016000
v 0.000000 -0.006500 0.017000
v -0.001682 -0.006279 0.016000
v -0.001682 -0.006279 0.017000
v -0.003250 -0.005629 0.016000
v -0.003250 -0.005629 0.017000
v -0.004596 -0.004596 0.016000
v -0.004596 -0.004596 0.017000
v -0.005629 -0.003250 0.016000
v -0.005629 -0.003250 0.017000
v -0.006279 -0.001682 0.016000
v -0.006279 -0.001682 0.017000
v -0.006500 0.000000 0.016000
v -0.006500 0.000000 0.017000
v -0.006279 0.001682 0.016000
v -0.006279 0.001682 0.017000
v -0.005629 0.003250 0.016000
v -0.005629 0.003250 0.017000
v -0.004596 0.004596 0.016000
v -0.004596 0.004596 0.017000
v -0.003250 0.005629 0.016000
v -0.003250 0.005629 0.017000
v -0.001682 0.006279 0.016000
v -0.001682 0.006279 0.017000
v -0.022000 0.000000 -0.012000
v -0.021848 -0.000765 -0.012000
v -0.021848 0.000765 -0.012000
v -0.020765 -0.001848 -0.012000
v -0.021414 -0.001414 -0.012000
v -0.020765 0.001848 -0.012000
v -0.021414 0.001414 -0.012000
v -0.019235 -0.001848 -0.012000
v -0.019235 0.001848 -0.012000
v -0.018000 0.000000 -0.012000
v -0.018152 0.000765 -0.012000
v -0.018152 -0.000765 -0.012000
v -0.018586 0.001414 -0.012000
v -0.018586 -0.001414 -0.012000
v -0.020000 -0.002000 -0.012000
v -0.020000 0.002000 -0.012000
v -0.022000 0.000000 -0.008000
v -0.021848 -0.000765 -0.008000
v -0.021848 0.000765 -0.008000
v -0.020765 0.001848 -0.008000
v -0.020765 -0.001848 -0.008000
v -0.021414 0.001414 -0.008000
v -0.021414 -0.001414 -0.008000
v -0.019235 -0.001848 -0.008000
v -0.019235 0.001848 -0.008000
v -0.018000 0.000000 -0.008000
v -0.018152 0.000765 -0.008000
v -0.018152 -0.000765 -0.008000
v -0.018586 0.001414 -0.008000
v -0.018586 -0.001414 -0.008000
v -0.020000 -0.002000 -0.008000
v -0.020000 0.002000 -0.008000
v 0.018000 0.000000 -0.012000
v 0.018152 -0.000765 -0.012000
v 0.018152 0.000765 -0.012000
v 0.019235 -0.001848 -0.012000
v 0.019235 0.001848 -0.012000
v 0.018586 -0.001414 -0.012000
v 0.018586 0.001414 -0.012000
v 0.020765 -0.001848 -0.012000
v 0.020765 0.001848 -0.012000
v 0.022000 0.000000 -0.012000
v 0.021848 -0.000765 -0.012000
v 0.021848 0.000765 -0.012000
v 0.021414 -0.001414 -0.012000
v 0.021414 0.001414 -0.012000
v 0.020000 0.002000 -0.012000
v 0.020000 -0.002000 -0.012000
v 0.018000 0.000000 -0.008000
v 0.018152 -0.000765 -0.008000
v 0.018152 0.000765 -0.008000
v 0.019235 -0.001848 -0.008000
v 0.019235 0.001848 -0.008000
v 0.018586 -0.001414 -0.008000
v 0.018586 0.001414 -0.008000
v 0.020765 -0.001848 -0.008000
v 0.020765 0.001848 -0.008000
v 0.022000 0.000000 -0.008000
v 0.021848 -0.000765 -0.008000
v 0.021848 0.000765 -0.008000
v 0.021414 -0.001414 -0.008000
v 0.021414 0.001414 -0.008000
v 0.020000 0.002000 -0.008000
v 0.020000 -0.002000 -0.008000
vn -1.0000 -0.0000 -0.0000
vn -0.0000 -0.0000 -1.0000
vn 1.0000 -0.0000 -0.0000
vn -0.0000 -0.0000 1.0000
vn -0.0000 -1.0000 -0.0000
vn -0.0000 1.0000 -0.0000
vn -0.2490 -0.9317 0.2646
vn -0.2187 -0.6900 0.6900
vn -0.2646 -0.2490 0.9317
vn -0.6900 -0.2187 0.6900
vn -0.9317 -0.2646 0.2490
vn -0.6900 -0.6900 0.2187
vn -0.5774 -0.5773 0.5774
vn -0.2490 0.2646 0.9317
vn -0.2187 0.6900 0.6900
vn -0.2646 0.9317 0.2490
vn -0.6900 0.6900 0.2187
vn -0.9317 0.2490 0.2646
vn -0.6900 0.2187 0.6900
vn -0.5774 0.5773 0.5774
vn -0.2646 -0.9317 -0.2490
vn -0.6900 -0.6900 -0.2187
vn -0.9317 -0.2490 -0.2646
vn -0.6900 -0.2187 -0.6900
vn -0.2490 -0.2646 -0.9317
vn -0.2187 -0.6900 -0.6900
vn -0.5774 -0.5773 -0.5774
vn -0.2490 0.9317 -0.2646
vn -0.2187 0.6900 -0.6900
vn -0.2646 0.2490 -0.9317
vn -0.6900 0.2187 -0.6900
vn -0.9317 0.2646 -0.2490
vn -0.6900 0.6900 -0.2187
vn -0.5774 0.5773 -0.5774
vn 0.2646 -0.9317 0.2490
vn 0.6900 -0.6900 0.2187
vn 0.9317 -0.2490 0.2646
vn 0.6900 -0.2187 0.6900
vn 0.2490 -0.2646 0.9317
vn 0.2187 -0.6900 0.6900
vn 0.5774 -0.5773 0.5774
vn 0.2490 0.9317 0.2646
vn 0.2187 0.6900 0.6900
vn 0.2646 0.2490 0.9317
vn 0.6900 0.2187 0.6900
vn 0.9317 0.2646 0.2490
vn 0.6900 0.6900 0.2187
vn 0.5774 0.5773 0.5774
vn 0.2490 -0.9317 -0.2646
vn 0.2187 -0.6900 -0.6900
vn 0.2646 -0.2490 -0.9317
vn 0.6900 -0.2187 -0.6900
vn 0.9317 -0.2646 -0.2490
vn 0.6900 -0.6900 -0.2187
vn 0.5774 -0.5773 -0.5774
vn 0.2646 0.9317 -0.2490
vn 0.6900 0.6900 -0.2187
vn 0.9317 0.2490 -0.2646
vn 0.6900 0.2187 -0.6900
vn 0.2490 0.2646 -0.9317
vn 0.2187 0.6900 -0.6900
vn 0.5774 0.5773 -0.5774
vn -0.2582 -0.9661 -0.0000
vn -0.7071 -0.7071 -0.0000
vn -0.9661 -0.2582 -0.0000
vn -0.2582 -0.0000 0.9661
vn -0.7071 -0.0000 0.7071
vn -0.9661 -0.0000 0.2582
vn -0.2582 0.9661 -0.0000
vn -0.7071 0.7071 -0.0000
vn -0.9661 0.2582 -0.0000
vn -0.2582 -0.0000 -0.9661
vn -0.7071 -0.0000 -0.7071
vn -0.9661 -0.0000 -0.2582
vn -0.0000 -0.9661 -0.2582
vn -0.0000 -0.7071 -0.7071
vn -0.0000 -0.2582 -0.9661
vn -0.0000 0.9661 -0.2582
vn -0.0000 0.7071 -0.7071
vn -0.0000 0.2582 -0.9661
vn 0.9661 -0.0000 -0.2582
vn 0.7071 -0.0000 -0.7071
vn 0.2582 -0.0000 -0.9661
vn 0.2582 -0.9661 -0.0000
vn 0.7071 -0.7071 -0.0000
vn 0.9661 -0.2582 -0.0000
vn 0.2582 0.9661 -0.0000
vn 0.7071 0.7071 -0.0000
vn 0.9661 0.2582 -0.0000
vn 0.2582 -0.0000 0.9661
vn 0.7071 -0.0000 0.7071
vn 0.9661 -0.0000 0.2582
vn -0.0000 -0.9661 0.2582
vn -0.0000 -0.7071 0.7071
vn -0.0000 -0.2582 0.9661
vn -0.0000 0.9661 0.2582
vn -0.0000 0.7071 0.7071
vn -0.0000 0.2582 0.9661
vn 0.1303 0.9915 -0.0000
vn 0.3829 0.9238 -0.0000
vn 0.6088 0.7933 -0.0000
vn 0.7933 0.6088 -0.0000
vn 0.9238 0.3829 -0.0000
vn 0.9915 0.1303 -0.0000
vn 0.9915 -0.1303 -0.0000
vn 0.9238 -0.3829 -0.0000
vn 0.7933 -0.6088 -0.0000
vn 0.6088 -0.7933 -0.0000
vn 0.3829 -0.9238 -0.0000
vn 0.1303 -0.9915 -0.0000
vn -0.1303 -0.9915 -0.0000
vn -0.3829 -0.9238 -0.0000
vn -0.6088 -0.7933 -0.0000
vn -0.7933 -0.6088 -0.0000
vn -0.9238 -0.3829 -0.0000
vn -0.9915 -0.1303 -0.0000
vn -0.9915 0.1303 -0.0000
vn -0.9238 0.3829 -0.0000
vn -0.7933 0.6088 -0.0000
vn -0.6088 0.7933 -0.0000
vn -0.3829 0.9238 -0.0000
vn -0.1303 0.9915 -0.0000
vn -0.1949 -0.9808 -0.0000
vn -0.5559 -0.8313 -0.0000
vn -0.8313 -0.5559 -0.0000
vn -0.9808 -0.1949 -0.0000
vn -0.9808 0.1949 -0.0000
vn -0.8313 0.5559 -0.0000
vn -0.5559 0.8313 -0.0000
vn -0.1949 0.9808 -0.0000
vn 0.1949 0.9808 -0.0000
vn 0.5559 0.8313 -0.0000
vn 0.8313 0.5559 -0.0000
vn 0.9808 0.1949 -0.0000
vn 0.9808 -0.1949 -0.0000
vn 0.8313 -0.5559 -0.0000
vn 0.5559 -0.8313 -0.0000
vn 0.1949 -0.9808 -0.0000
vn -0.2646 -0.9317 0.2490
vn -0.2490 -0.2646 0.9317
vn -0.9317 -0.2490 0.2646
vn -0.2646 0.2490 0.9317
vn -0.2490 0.9317 0.2646
vn -0.9317 0.2646 0.2490
vn -0.2490 -0.9317 -0.2646
vn -0.9317 -0.2646 -0.2490
vn -0.2646 -0.2490 -0.9317
vn -0.2646 0.9317 -0.2490
vn -0.2490 0.2646 -0.9317
vn -0.9317 0.2490 -0.2646
vn 0.2490 -0.9317 0.2646
vn 0.9317 -0.2646 0.2490
vn 0.2646 -0.2490 0.9317
vn 0.2646 0.9317 0.2490
vn 0.2490 0.2646 0.9317
vn 0.9317 0.2490 0.2646
vn 0.2646 -0.9317 -0.2490
vn 0.2490 -0.2646 -0.9317
vn 0.9317 -0.2490 -0.2646
vn 0.2490 0.9317 -0.2646
vn 0.9317 0.2646 -0.2490
vn 0.2646 0.2490 -0.9317
s 0
usemtl BoardBody
f 1//1 4//1 3//1
f 3//2 4//2 153//2
f 168//2 4//2 199//2
f 8//2 7//2 194//2
f 7//3 6//3 5//3
f 5//4 6//4 210//4
f 183//4 1//4 216//4
f 2//4 1//4 169//4
f 3//5 5//5 1//5
f 8//6 2//6 6//6
f 1//1 2//1 4//1
f 157//2 156//2 3//2
f 4//2 158//2 159//2
f 4//2 159//2 155//2
f 154//2 157//2 3//2
f 4//2 155//2 153//2
f 153//2 154//2 3//2
f 200//2 192//2 7//2
f 7//2 3//2 156//2
f 7//2 156//2 167//2
f 188//2 200//2 7//2
f 190//2 188//2 7//2
f 7//2 167//2 160//2
f 7//2 160//2 166//2
f 186//2 190//2 7//2
f 186//2 7//2 166//2
f 186//2 166//2 164//2
f 185//2 186//2 164//2
f 185//2 164//2 162//2
f 187//2 185//2 162//2
f 187//2 162//2 163//2
f 191//2 187//2 163//2
f 191//2 163//2 165//2
f 189//2 191//2 165//2
f 189//2 165//2 161//2
f 8//2 193//2 199//2
f 199//2 189//2 161//2
f 168//2 158//2 4//2
f 199//2 161//2 168//2
f 4//2 8//2 199//2
f 198//2 193//2 8//2
f 7//2 192//2 197//2
f 7//2 197//2 195//2
f 196//2 198//2 8//2
f 7//2 195//2 194//2
f 194//2 196//2 8//2
f 7//3 8//3 6//3
f 213//4 208//4 5//4
f 6//4 209//4 214//4
f 6//4 214//4 212//4
f 211//4 213//4 5//4
f 6//4 212//4 210//4
f 210//4 211//4 5//4
f 215//4 209//4 6//4
f 6//4 2//4 172//4
f 6//4 172//4 184//4
f 205//4 215//4 6//4
f 207//4 205//4 6//4
f 6//4 184//4 177//4
f 6//4 177//4 181//4
f 203//4 207//4 6//4
f 203//4 6//4 181//4
f 203//4 181//4 179//4
f 201//4 203//4 179//4
f 201//4 179//4 178//4
f 202//4 201//4 178//4
f 202//4 178//4 180//4
f 206//4 202//4 180//4
f 206//4 180//4 182//4
f 204//4 206//4 182//4
f 204//4 182//4 176//4
f 5//4 208//4 216//4
f 216//4 204//4 176//4
f 183//4 173//4 1//4
f 216//4 176//4 183//4
f 1//4 5//4 216//4
f 174//4 172//4 2//4
f 1//4 173//4 175//4
f 1//4 175//4 170//4
f 171//4 174//4 2//4
f 1//4 170//4 169//4
f 169//4 171//4 2//4
f 3//5 7//5 5//5
f 8//6 4//6 2//6
usemtl DetailGraphite
f 9//7 14//7 13//7
f 12//8 17//8 14//8
f 10//9 17//9 16//9
f 15//10 20//10 17//10
f 11//11 20//11 19//11
f 18//12 14//12 20//12
f 14//13 17//13 20//13
f 21//14 26//14 25//14
f 24//15 29//15 26//15
f 22//16 29//16 28//16
f 27//17 32//17 29//17
f 23//18 32//18 31//18
f 30//19 26//19 32//19
f 26//20 29//20 32//20
f 33//21 38//21 37//21
f 36//22 41//22 38//22
f 34//23 41//23 40//23
f 39//24 44//24 41//24
f 35//25 44//25 43//25
f 42//26 38//26 44//26
f 38//27 41//27 44//27
f 45//28 50//28 49//28
f 48//29 53//29 50//29
f 46//30 53//30 52//30
f 51//31 56//31 53//31
f 47//32 56//32 55//32
f 54//33 50//33 56//33
f 50//34 53//34 56//34
f 57//35 62//35 61//35
f 60//36 65//36 62//36
f 58//37 65//37 64//37
f 63//38 68//38 65//38
f 59//39 68//39 67//39
f 66//40 62//40 68//40
f 62//41 65//41 68//41
f 69//42 74//42 73//42
f 72//43 77//43 74//43
f 70//44 77//44 76//44
f 75//45 80//45 77//45
f 71//46 80//46 79//46
f 78//47 74//47 80//47
f 74//48 77//48 80//48
f 81//49 86//49 85//49
f 84//50 89//50 86//50
f 82//51 89//51 88//51
f 87//52 92//52 89//52
f 83//53 92//53 91//53
f 90//54 86//54 92//54
f 86//55 89//55 92//55
f 93//56 98//56 97//56
f 96//57 101//57 98//57
f 94//58 101//58 100//58
f 99//59 104//59 101//59
f 95//60 104//60 103//60
f 102//61 98//61 104//61
f 98//62 101//62 104//62
f 33//63 13//63 36//63
f 36//64 18//64 40//64
f 40//65 11//65 34//65
f 10//66 25//66 15//66
f 15//67 30//67 19//67
f 19//68 23//68 11//68
f 22//69 49//69 27//69
f 27//70 54//70 31//70
f 31//71 47//71 23//71
f 46//72 43//72 51//72
f 51//73 39//73 55//73
f 55//74 34//74 47//74
f 81//75 37//75 84//75
f 84//76 42//76 88//76
f 88//77 35//77 82//77
f 45//78 97//78 48//78
f 48//79 102//79 52//79
f 52//80 95//80 46//80
f 94//81 91//81 99//81
f 99//82 87//82 103//82
f 103//83 82//83 95//83
f 57//84 85//84 60//84
f 60//85 90//85 64//85
f 64//86 83//86 58//86
f 93//87 73//87 96//87
f 96//88 78//88 100//88
f 100//89 71//89 94//89
f 70//90 67//90 75//90
f 75//91 63//91 79//91
f 79//92 58//92 71//92
f 9//93 61//93 12//93
f 12//94 66//94 16//94
f 16//95 59//95 10//95
f 69//96 28//96 72//96
f 72//97 24//97 76//97
f 76//98 21//98 70//98
f 33//5 57//5 9//5
f 11//1 47//1 34//1
f 59//4 21//4 10//4
f 93//6 22//6 69//6
f 35//2 95//2 82//2
f 83//3 71//3 58//3
f 168//123 177//123 184//123
f 161//124 181//124 177//124
f 181//125 163//125 179//125
f 179//126 162//126 178//126
f 178//127 164//127 180//127
f 180//128 166//128 182//128
f 182//129 160//129 176//129
f 176//130 167//130 183//130
f 183//131 156//131 173//131
f 173//132 157//132 175//132
f 157//133 170//133 175//133
f 154//134 169//134 170//134
f 153//135 171//135 169//135
f 155//136 174//136 171//136
f 159//137 172//137 174//137
f 158//138 184//138 172//138
f 199//123 209//123 215//123
f 193//124 214//124 209//124
f 214//125 196//125 212//125
f 212//126 194//126 210//126
f 210//127 195//127 211//127
f 211//128 197//128 213//128
f 213//129 192//129 208//129
f 208//130 200//130 216//130
f 216//131 188//131 204//131
f 204//132 190//132 206//132
f 190//133 202//133 206//133
f 186//134 201//134 202//134
f 185//135 203//135 201//135
f 187//136 207//136 203//136
f 191//137 205//137 207//137
f 189//138 215//138 205//138
f 9//139 12//139 14//139
f 12//8 16//8 17//8
f 10//140 15//140 17//140
f 15//10 19//10 20//10
f 11//141 18//141 20//141
f 18//12 13//12 14//12
f 21//142 24//142 26//142
f 24//15 28//15 29//15
f 22//143 27//143 29//143
f 27//17 31//17 32//17
f 23//144 30//144 32//144
f 30//19 25//19 26//19
f 33//145 36//145 38//145
f 36//22 40//22 41//22
f 34//146 39//146 41//146
f 39//24 43//24 44//24
f 35//147 42//147 44//147
f 42//26 37//26 38//26
f 45//148 48//148 50//148
f 48//29 52//29 53//29
f 46//149 51//149 53//149
f 51//31 55//31 56//31
f 47//150 54//150 56//150
f 54//33 49//33 50//33
f 57//151 60//151 62//151
f 60//36 64//36 65//36
f 58//152 63//152 65//152
f 63//38 67//38 68//38
f 59//153 66//153 68//153
f 66//40 61//40 62//40
f 69//154 72//154 74//154
f 72//43 76//43 77//43
f 70//155 75//155 77//155
f 75//45 79//45 80//45
f 71//156 78//156 80//156
f 78//47 73//47 74//47
f 81//157 84//157 86//157
f 84//50 88//50 89//50
f 82//158 87//158 89//158
f 87//52 91//52 92//52
f 83//159 90//159 92//159
f 90//54 85//54 86//54
f 93//160 96//160 98//160
f 96//57 100//57 101//57
f 94//161 99//161 101//161
f 99//59 103//59 104//59
f 95//162 102//162 104//162
f 102//61 97//61 98//61
f 33//63 9//63 13//63
f 36//64 13//64 18//64
f 40//65 18//65 11//65
f 10//66 21//66 25//66
f 15//67 25//67 30//67
f 19//68 30//68 23//68
f 22//69 45//69 49//69
f 27//70 49//70 54//70
f 31//71 54//71 47//71
f 46//72 35//72 43//72
f 51//73 43//73 39//73
f 55//74 39//74 34//74
f 81//75 33//75 37//75
f 84//76 37//76 42//76
f 88//77 42//77 35//77
f 45//78 93//78 97//78
f 48//79 97//79 102//79
f 52//80 102//80 95//80
f 94//81 83//81 91//81
f 99//82 91//82 87//82
f 103//83 87//83 82//83
f 57//84 81//84 85//84
f 60//85 85//85 90//85
f 64//86 90//86 83//86
f 93//87 69//87 73//87
f 96//88 73//88 78//88
f 100//89 78//89 71//89
f 70//90 59//90 67//90
f 75//91 67//91 63//91
f 79//92 63//92 58//92
f 9//93 57//93 61//93
f 12//94 61//94 66//94
f 16//95 66//95 59//95
f 69//96 22//96 28//96
f 72//97 28//97 24//97
f 76//98 24//98 21//98
f 33//5 81//5 57//5
f 11//1 23//1 47//1
f 59//4 70//4 21//4
f 93//6 45//6 22//6
f 35//2 46//2 95//2
f 83//3 94//3 71//3
f 168//123 161//123 177//123
f 161//124 165//124 181//124
f 181//125 165//125 163//125
f 179//126 163//126 162//126
f 178//127 162//127 164//127
f 180//128 164//128 166//128
f 182//129 166//129 160//129
f 176//130 160//130 167//130
f 183//131 167//131 156//131
f 173//132 156//132 157//132
f 157//133 154//133 170//133
f 154//134 153//134 169//134
f 153//135 155//135 171//135
f 155//136 159//136 174//136
f 159//137 158//137 172//137
f 158//138 168//138 184//138
f 199//123 193//123 209//123
f 193//124 198//124 214//124
f 214//125 198//125 196//125
f 212//126 196//126 194//126
f 210//127 194//127 195//127
f 211//128 195//128 197//128
f 213//129 197//129 192//129
f 208//130 192//130 200//130
f 216//131 200//131 188//131
f 204//132 188//132 190//132
f 190//133 186//133 202//133
f 186//134 185//134 201//134
f 185//135 187//135 203//135
f 187//136 191//136 207//136
f 191//137 189//137 205//137
f 189//138 199//138 215//138
usemtl Black
f 105//99 108//99 107//99
f 107//100 110//100 109//100
f 109//101 112//101 111//101
f 111//102 114//102 113//102
f 113//103 116//103 115//103
f 115//104 118//104 117//104
f 117//105 120//105 119//105
f 119//106 122//106 121//106
f 121//107 124//107 123//107
f 123//108 126//108 125//108
f 125//109 128//109 127//109
f 127//110 130//110 129//110
f 129//111 132//111 131//111
f 131//112 134//112 133//112
f 133//113 136//113 135//113
f 135//114 138//114 137//114
f 137//115 140//115 139//115
f 139//116 142//116 141//116
f 141//117 144//117 143//117
f 143//118 146//118 145//118
f 145//119 148//119 147//119
f 147//120 150//120 149//120
f 138//4 122//4 106//4
f 149//121 152//121 151//121
f 151//122 106//122 105//122
f 115//2 131//2 147//2
f 105//99 106//99 108//99
f 107//100 108//100 110//100
f 109//101 110//101 112//101
f 111//102 112//102 114//102
f 113//103 114//103 116//103
f 115//104 116//104 118//104
f 117//105 118//105 120//105
f 119//106 120//106 122//106
f 121//107 122//107 124//107
f 123//108 124//108 126//108
f 125//109 126//109 128//109
f 127//110 128//110 130//110
f 129//111 130//111 132//111
f 131//112 132//112 134//112
f 133//113 134//113 136//113
f 135//114 136//114 138//114
f 137//115 138//115 140//115
f 139//116 140//116 142//116
f 141//117 142//117 144//117
f 143//118 144//118 146//118
f 145//119 146//119 148//119
f 147//120 148//120 150//120
f 106//4 152//4 150//4
f 150//4 148//4 146//4
f 146//4 144//4 142//4
f 142//4 140//4 138//4
f 138//4 136//4 134//4
f 134//4 132//4 130//4
f 130//4 128//4 126//4
f 126//4 124//4 122//4
f 122//4 120//4 118//4
f 118//4 116//4 114//4
f 114//4 112//4 110//4
f 110//4 108//4 106//4
f 106//4 150//4 146//4
f 146//4 142//4 138//4
f 138//4 134//4 130//4
f 130//4 126//4 122//4
f 122//4 118//4 114//4
f 114//4 110//4 106//4
f 106//4 146//4 138//4
f 138//4 130//4 122//4
f 122//4 114//4 106//4
f 149//121 150//121 152//121
f 151//122 152//122 106//122
f 147//2 149//2 151//2
f 151//2 105//2 107//2
f 107//2 109//2 111//2
f 111//2 113//2 115//2
f 115//2 117//2 119//2
f 119//2 121//2 123//2
f 123//2 125//2 127//2
f 127//2 129//2 131//2
f 131//2 133//2 135//2
f 135//2 137//2 139//2
f 139//2 141//2 143//2
f 143//2 145//2 147//2
f 147//2 151//2 107//2
f 107//2 111//2 115//2
f 115//2 119//2 123//2
f 123//2 127//2 131//2
f 131//2 135//2 139//2
f 139//2 143//2 147//2
f 147//2 107//2 115//2
f 115//2 123//2 131//2
f 131//2 139//2 147//2
