# Blender 5.2.1 LTS
# www.blender.org
mtllib kit_beam_60.mtl
o kit_beam_60
v -0.010000 -0.030000 0.002000
v -0.010000 0.030000 0.002000
v -0.010000 -0.030000 -0.002000
v -0.010000 0.030000 -0.002000
v 0.010000 -0.030000 0.002000
v 0.010000 0.030000 0.002000
v 0.010000 -0.030000 -0.002000
v 0.010000 0.030000 -0.002000
v -0.002000 -0.020000 -0.002000
v -0.001848 -0.020765 -0.002000
v -0.001848 -0.019235 -0.002000
v -0.000765 -0.021848 -0.002000
v -0.000765 -0.018152 -0.002000
v 0.000000 -0.022000 -0.002000
v -0.001414 -0.021414 -0.002000
v -0.001414 -0.018586 -0.002000
v 0.000765 -0.021848 -0.002000
v 0.000765 -0.018152 -0.002000
v 0.002000 -0.020000 -0.002000
v 0.001848 -0.020765 -0.002000
v 0.001848 -0.019235 -0.002000
v 0.001414 -0.021414 -0.002000
v 0.001414 -0.018586 -0.002000
v 0.000000 -0.018000 -0.002000
v -0.002000 -0.020000 0.002000
v -0.001848 -0.020765 0.002000
v -0.001848 -0.019235 0.002000
v -0.000765 -0.018152 0.002000
v -0.000765 -0.021848 0.002000
v -0.001414 -0.018586 0.002000
v -0.001414 -0.021414 0.002000
v 0.000765 -0.021848 0.002000
v 0.000765 -0.018152 0.002000
v 0.002000 -0.020000 0.002000
v 0.001848 -0.019235 0.002000
v 0.001848 -0.020765 0.002000
v 0.000000 -0.022000 0.002000
v 0.001414 -0.021414 0.002000
v 0.001414 -0.018586 0.002000
v 0.000000 -0.018000 0.002000
v -0.002000 0.000000 -0.002000
v -0.001414 -0.001414 -0.002000
v -0.001848 -0.000765 -0.002000
v -0.001848 0.000765 -0.002000
v 0.000000 0.002000 -0.002000
v -0.000765 -0.001848 -0.002000
v -0.000765 0.001848 -0.002000
v -0.001414 0.001414 -0.002000
v 0.000000 -0.002000 -0.002000
v 0.000765 0.001848 -0.002000
v 0.000765 -0.001848 -0.002000
v 0.001414 -0.001414 -0.002000
v 0.002000 0.000000 -0.002000
v 0.001848 -0.000765 -0.002000
v 0.001848 0.000765 -0.002000
v 0.001414 0.001414 -0.002000
v 0.000000 0.002000 0.002000
v 0.000765 0.001848 0.002000
v 0.000765 -0.001848 0.002000
v 0.002000 0.000000 0.002000
v 0.001848 0.000765 0.002000
v 0.001414 -0.001414 0.002000
v 0.001848 -0.000765 0.002000
v 0.001414 0.001414 0.002000
v -0.001848 -0.000765 0.002000
v -0.002000 0.000000 0.002000
v -0.001848 0.000765 0.002000
v -0.001414 0.001414 0.002000
v -0.000765 -0.001848 0.002000
v 0.000000 -0.002000 0.002000
v -0.000765 0.001848 0.002000
v -0.001414 -0.001414 0.002000
v -0.002000 0.020000 -0.002000
v -0.001848 0.019235 -0.002000
v -0.001848 0.020765 -0.002000
v -0.000765 0.018152 -0.002000
v -0.001414 0.018586 -0.002000
v -0.000765 0.021848 -0.002000
v -0.001414 0.021414 -0.002000
v 0.000765 0.018152 -0.002000
v 0.000765 0.021848 -0.002000
v 0.002000 0.020000 -0.002000
v 0.001848 0.020765 -0.002000
v 0.001848 0.019235 -0.002000
v 0.001414 0.021414 -0.002000
v 0.001414 0.018586 -0.002000
v 0.000000 0.022000 -0.002000
v 0.000000 0.018000 -0.002000
v -0.002000 0.020000 0.002000
v -0.001848 0.019235 0.002000
v -0.001848 0.020765 0.002000
v -0.000765 0.018152 0.002000
v -0.001414 0.018586 0.002000
v -0.000765 0.021848 0.002000
v -0.001414 0.021414 0.002000
v 0.000765 0.018152 0.002000
v 0.000765 0.021848 0.002000
v 0.002000 0.020000 0.002000
v 0.001848 0.020765 0.002000
v 0.001848 0.019235 0.002000
v 0.001414 0.021414 0.002000
v 0.001414 0.018586 0.002000
v 0.000000 0.022000 0.002000
v 0.000000 0.018000 0.002000
vn -1.0000 -0.0000 -0.0000
vn -0.0000 -0.0000 -1.0000
vn 1.0000 -0.0000 -0.0000
vn -0.0000 -0.0000 1.0000
vn -0.0000 -1.0000 -0.0000
vn -0.0000 1.0000 -0.0000
vn -0.1949 -0.9808 -0.0000
vn -0.5559 -0.8313 -0.0000
vn -0.8313 -0.5559 -0.0000
vn -0.9808 -0.1949 -0.0000
vn -0.9808 0.1949 -0.0000
vn -0.8313 0.5559 -0.0000
vn -0.5559 0.8313 -0.0000
vn -0.1949 0.9808 -0.0000
vn 0.1949 0.9808 -0.0000
vn 0.5559 0.8313 -0.0000
vn 0.8313 0.5559 -0.0000
vn 0.9808 0.1949 -0.0000
vn 0.9808 -0.1949 -0.0000
vn 0.8313 -0.5559 -0.0000
vn 0.5559 -0.8313 -0.0000
vn 0.1949 -0.9808 -0.0000
s 0
usemtl ChassisMetal
f 1//1 4//1 3//1
f 43//2 42//2 9//2
f 4//2 81//2 87//2
f 8//2 16//2 53//2
f 7//2 12//2 14//2
f 7//3 6//3 5//3
f 1//4 32//4 37//4
f 62//4 59//4 35//4
f 6//4 94//4 103//4
f 33//4 69//4 72//4
f 3//5 5//5 1//5
f 8//6 2//6 6//6
f 24//7 33//7 40//7
f 18//8 39//8 33//8
f 39//9 21//9 35//9
f 35//10 19//10 34//10
f 34//11 20//11 36//11
f 36//12 22//12 38//12
f 38//13 17//13 32//13
f 32//14 14//14 37//14
f 37//15 12//15 29//15
f 29//16 15//16 31//16
f 15//17 26//17 31//17
f 10//18 25//18 26//18
f 9//19 27//19 25//19
f 11//20 30//20 27//20
f 16//21 28//21 30//21
f 13//22 40//22 28//22
f 45//7 58//7 57//7
f 50//8 64//8 58//8
f 64//9 55//9 61//9
f 61//10 53//10 60//10
f 60//11 54//11 63//11
f 63//12 52//12 62//12
f 62//13 51//13 59//13
f 59//14 49//14 70//14
f 70//15 46//15 69//15
f 69//16 42//16 72//16
f 42//17 65//17 72//17
f 43//18 66//18 65//18
f 41//19 67//19 66//19
f 44//20 68//20 67//20
f 48//21 71//21 68//21
f 47//22 57//22 71//22
f 87//7 97//7 103//7
f 81//8 101//8 97//8
f 101//9 83//9 99//9
f 99//10 82//10 98//10
f 98//11 84//11 100//11
f 100//12 86//12 102//12
f 102//13 80//13 96//13
f 96//14 88//14 104//14
f 104//15 76//15 92//15
f 92//16 77//16 93//16
f 77//17 90//17 93//17
f 74//18 89//18 90//18
f 73//19 91//19 89//19
f 75//20 95//20 91//20
f 79//21 94//21 95//21
f 78//22 103//22 94//22
f 1//1 2//1 4//1
f 10//2 15//2 3//2
f 4//2 47//2 48//2
f 4//2 48//2 44//2
f 9//2 10//2 3//2
f 49//2 11//2 9//2
f 46//2 49//2 9//2
f 9//2 3//2 4//2
f 4//2 44//2 41//2
f 4//2 41//2 43//2
f 42//2 46//2 9//2
f 9//2 4//2 43//2
f 78//2 79//2 4//2
f 4//2 8//2 85//2
f 4//2 85//2 81//2
f 87//2 78//2 4//2
f 83//2 85//2 8//2
f 7//2 22//2 20//2
f 7//2 20//2 19//2
f 82//2 83//2 8//2
f 84//2 82//2 8//2
f 8//2 7//2 19//2
f 8//2 19//2 21//2
f 86//2 84//2 8//2
f 8//2 21//2 23//2
f 8//2 23//2 18//2
f 8//2 18//2 24//2
f 8//2 24//2 13//2
f 8//2 13//2 16//2
f 16//2 11//2 49//2
f 16//2 49//2 51//2
f 4//2 79//2 75//2
f 45//2 47//2 4//2
f 50//2 45//2 4//2
f 4//2 75//2 73//2
f 4//2 73//2 74//2
f 56//2 50//2 4//2
f 55//2 56//2 4//2
f 4//2 74//2 77//2
f 55//2 4//2 77//2
f 53//2 55//2 77//2
f 53//2 77//2 76//2
f 53//2 76//2 88//2
f 53//2 88//2 80//2
f 53//2 80//2 86//2
f 16//2 51//2 52//2
f 16//2 52//2 54//2
f 53//2 86//2 8//2
f 16//2 54//2 53//2
f 17//2 22//2 7//2
f 7//2 3//2 15//2
f 7//2 15//2 12//2
f 14//2 17//2 7//2
f 7//3 8//3 6//3
f 29//4 31//4 1//4
f 1//4 5//4 38//4
f 1//4 38//4 32//4
f 37//4 29//4 1//4
f 2//4 71//4 57//4
f 2//4 57//4 58//4
f 91//4 95//4 2//4
f 89//4 91//4 2//4
f 2//4 58//4 64//4
f 2//4 64//4 61//4
f 90//4 89//4 2//4
f 93//4 90//4 2//4
f 93//4 2//4 61//4
f 92//4 93//4 61//4
f 92//4 61//4 60//4
f 104//4 92//4 60//4
f 96//4 104//4 60//4
f 102//4 96//4 60//4
f 100//4 102//4 60//4
f 98//4 100//4 60//4
f 6//4 101//4 99//4
f 36//4 38//4 5//4
f 34//4 36//4 5//4
f 6//4 99//4 98//4
f 6//4 98//4 60//4
f 34//4 5//4 6//4
f 70//4 39//4 35//4
f 35//4 34//4 6//4
f 6//4 60//4 63//4
f 35//4 6//4 63//4
f 59//4 70//4 35//4
f 35//4 63//4 62//4
f 97//4 101//4 6//4
f 6//4 2//4 95//4
f 6//4 95//4 94//4
f 103//4 97//4 6//4
f 1//4 31//4 26//4
f 1//4 26//4 25//4
f 68//4 71//4 2//4
f 67//4 68//4 2//4
f 2//4 1//4 25//4
f 2//4 25//4 27//4
f 66//4 67//4 2//4
f 65//4 66//4 2//4
f 2//4 27//4 30//4
f 2//4 30//4 28//4
f 65//4 2//4 28//4
f 65//4 28//4 40//4
f 72//4 65//4 40//4
f 33//4 39//4 70//4
f 72//4 40//4 33//4
f 33//4 70//4 69//4
f 3//5 7//5 5//5
f 8//6 4//6 2//6
f 24//7 18//7 33//7
f 18//8 23//8 39//8
f 39//9 23//9 21//9
f 35//10 21//10 19//10
f 34//11 19//11 20//11
f 36//12 20//12 22//12
f 38//13 22//13 17//13
f 32//14 17//14 14//14
f 37//15 14//15 12//15
f 29//16 12//16 15//16
f 15//17 10//17 26//17
f 10//18 9//18 25//18
f 9//19 11//19 27//19
f 11//20 16//20 30//20
f 16//21 13//21 28//21
f 13//22 24//22 40//22
f 45//7 50//7 58//7
f 50//8 56//8 64//8
f 64//9 56//9 55//9
f 61//10 55//10 53//10
f 60//11 53//11 54//11
f 63//12 54//12 52//12
f 62//13 52//13 51//13
f 59//14 51//14 49//14
f 70//15 49//15 46//15
f 69//16 46//16 42//16
f 42//17 43//17 65//17
f 43//18 41//18 66//18
f 41//19 44//19 67//19
f 44//20 48//20 68//20
f 48//21 47//21 71//21
f 47//22 45//22 57//22
f 87//7 81//7 97//7
f 81//8 85//8 101//8
f 101//9 85//9 83//9
f 99//10 83//10 82//10
f 98//11 82//11 84//11
f 100//12 84//12 86//12
f 102//13 86//13 80//13
f 96//14 80//14 88//14
f 104//15 88//15 76//15
f 92//16 76//16 77//16
f 77//17 74//17 90//17
f 74//18 73//18 89//18
f 73//19 75//19 91//19
f 75//20 79//20 95//20
f 79//21 78//21 94//21
f 78//22 87//22 103//22
