# Blender 5.2.1 LTS
# www.blender.org
mtllib kit_beam_180.mtl
o kit_beam_180
v -0.010000 -0.090000 0.002000
v -0.010000 0.090000 0.002000
v -0.010000 -0.090000 -0.002000
v -0.010000 0.090000 -0.002000
v 0.010000 -0.090000 0.002000
v 0.010000 0.090000 0.002000
v 0.010000 -0.090000 -0.002000
v 0.010000 0.090000 -0.002000
v -0.002000 -0.080000 -0.002000
v -0.001848 -0.080765 -0.002000
v -0.001848 -0.079235 -0.002000
v -0.000765 -0.081848 -0.002000
v -0.000765 -0.078152 -0.002000
v 0.000000 -0.082000 -0.002000
v -0.001414 -0.081414 -0.002000
v -0.001414 -0.078586 -0.002000
v 0.000765 -0.081848 -0.002000
v 0.000765 -0.078152 -0.002000
v 0.002000 -0.080000 -0.002000
v 0.001848 -0.080765 -0.002000
v 0.001848 -0.079235 -0.002000
v 0.001414 -0.081414 -0.002000
v 0.001414 -0.078586 -0.002000
v 0.000000 -0.078000 -0.002000
v -0.002000 -0.080000 0.002000
v -0.001848 -0.080765 0.002000
v -0.001848 -0.079235 0.002000
v -0.000765 -0.078152 0.002000
v -0.000765 -0.081848 0.002000
v -0.001414 -0.078586 0.002000
v -0.001414 -0.081414 0.002000
v 0.000765 -0.081848 0.002000
v 0.000765 -0.078152 0.002000
v 0.002000 -0.080000 0.002000
v 0.001848 -0.079235 0.002000
v 0.001848 -0.080765 0.002000
v 0.001414 -0.078586 0.002000
v 0.000000 -0.082000 0.002000
v 0.001414 -0.081414 0.002000
v 0.000000 -0.078000 0.002000
v -0.002000 -0.060000 -0.002000
v -0.001848 -0.060765 -0.002000
v -0.001848 -0.059235 -0.002000
v -0.000765 -0.058152 -0.002000
v -0.000765 -0.061848 -0.002000
v -0.001414 -0.058586 -0.002000
v -0.001414 -0.061414 -0.002000
v 0.002000 -0.060000 -0.002000
v 0.001848 -0.059235 -0.002000
v 0.001848 -0.060765 -0.002000
v 0.000000 -0.058000 -0.002000
v 0.000272 -0.061946 -0.002000
v 0.000000 -0.062000 -0.002000
v 0.001414 -0.058586 -0.002000
v 0.001414 -0.061414 -0.002000
v 0.000765 -0.058152 -0.002000
v 0.000765 -0.061848 -0.002000
v 0.000765 -0.061848 0.002000
v 0.000765 -0.058152 0.002000
v 0.002000 -0.060000 0.002000
v 0.001848 -0.060765 0.002000
v 0.001848 -0.059235 0.002000
v 0.001414 -0.061414 0.002000
v 0.001414 -0.058586 0.002000
v -0.002000 -0.060000 0.002000
v -0.001848 -0.060765 0.002000
v -0.001848 -0.059235 0.002000
v 0.000000 -0.062000 0.002000
v 0.000000 -0.058000 0.002000
v -0.001414 -0.061414 0.002000
v -0.001414 -0.058586 0.002000
v -0.000765 -0.061848 0.002000
v -0.000765 -0.058152 0.002000
v -0.002000 -0.040000 -0.002000
v -0.001848 -0.040765 -0.002000
v -0.001848 -0.039235 -0.002000
v -0.000765 -0.038152 -0.002000
v -0.000765 -0.041848 -0.002000
v -0.001414 -0.038586 -0.002000
v -0.001414 -0.041414 -0.002000
v 0.000000 -0.038000 -0.002000
v 0.000414 -0.041918 -0.002000
v 0.000000 -0.042000 -0.002000
v 0.000765 -0.038152 -0.002000
v 0.000765 -0.041848 -0.002000
v 0.002000 -0.040000 -0.002000
v 0.001414 -0.041414 -0.002000
v 0.001848 -0.040765 -0.002000
v 0.001848 -0.039235 -0.002000
v 0.001414 -0.038586 -0.002000
v 0.000765 -0.041848 0.002000
v 0.000765 -0.038152 0.002000
v 0.002000 -0.040000 0.002000
v 0.001848 -0.040765 0.002000
v 0.001848 -0.039235 0.002000
v 0.001414 -0.041414 0.002000
v 0.001414 -0.038586 0.002000
v 0.000000 -0.038000 0.002000
v -0.000414 -0.041918 0.002000
v 0.000000 -0.042000 0.002000
v -0.000765 -0.041848 0.002000
v -0.000765 -0.038152 0.002000
v -0.002000 -0.040000 0.002000
v -0.001848 -0.040765 0.002000
v -0.001848 -0.039235 0.002000
v -0.001414 -0.038586 0.002000
v -0.001414 -0.041414 0.002000
v -0.002000 -0.020000 -0.002000
v -0.001414 -0.021414 -0.002000
v -0.001848 -0.020765 -0.002000
v -0.001848 -0.019235 -0.002000
v 0.000000 -0.018000 -0.002000
v -0.000765 -0.021848 -0.002000
v -0.000765 -0.018152 -0.002000
v -0.001414 -0.018586 -0.002000
v 0.000000 -0.022000 -0.002000
v 0.000059 -0.021988 -0.002000
v 0.000765 -0.018152 -0.002000
v 0.000602 -0.021880 -0.002000
v 0.000765 -0.021848 -0.002000
v 0.001414 -0.018586 -0.002000
v 0.001414 -0.021414 -0.002000
v 0.002000 -0.020000 -0.002000
v 0.001848 -0.020765 -0.002000
v 0.001848 -0.019235 -0.002000
v 0.000000 -0.018000 0.002000
v 0.000765 -0.021848 0.002000
v 0.000765 -0.018152 0.002000
v 0.002000 -0.020000 0.002000
v 0.001848 -0.020765 0.002000
v 0.001848 -0.019235 0.002000
v 0.001414 -0.021414 0.002000
v 0.001414 -0.018586 0.002000
v 0.000000 -0.022000 0.002000
v -0.000059 -0.021988 0.002000
v -0.000765 -0.018152 0.002000
v -0.000602 -0.021880 0.002000
v -0.001414 -0.018586 0.002000
v -0.000765 -0.021848 0.002000
v -0.002000 -0.020000 0.002000
v -0.001848 -0.019235 0.002000
v -0.001414 -0.021414 0.002000
v -0.001848 -0.020765 0.002000
v -0.002000 0.000000 -0.002000
v -0.001414 -0.001414 -0.002000
v -0.001848 -0.000765 -0.002000
v -0.001848 0.000765 -0.002000
v 0.000000 0.002000 -0.002000
v -0.000765 -0.001848 -0.002000
v -0.000765 0.001848 -0.002000
v -0.001414 0.001414 -0.002000
v 0.000000 -0.002000 -0.002000
v 0.000336 -0.001933 -0.002000
v 0.000765 0.001848 -0.002000
v 0.000864 -0.001782 -0.002000
v 0.000765 -0.001848 -0.002000
v 0.001414 0.001414 -0.002000
v 0.001414 -0.001414 -0.002000
v 0.002000 0.000000 -0.002000
v 0.001848 0.000765 -0.002000
v 0.001848 -0.000765 -0.002000
v 0.000000 0.002000 0.002000
v 0.000765 0.001848 0.002000
v 0.000765 -0.001848 0.002000
v 0.002000 0.000000 0.002000
v 0.001848 0.000765 0.002000
v 0.001414 -0.001414 0.002000
v 0.001848 -0.000765 0.002000
v 0.001414 0.001414 0.002000
v 0.000000 -0.002000 0.002000
v -0.000336 -0.001933 0.002000
v -0.000765 -0.001848 0.002000
v -0.000864 -0.001782 0.002000
v -0.000765 0.001848 0.002000
v -0.001414 -0.001414 0.002000
v -0.001414 0.001414 0.002000
v -0.002000 0.000000 0.002000
v -0.001848 -0.000765 0.002000
v -0.001848 0.000765 0.002000
v -0.002000 0.020000 -0.002000
v -0.001848 0.019235 -0.002000
v -0.001414 0.021414 -0.002000
v -0.001414 0.018586 -0.002000
v -0.001848 0.020765 -0.002000
v -0.000765 0.018152 -0.002000
v 0.000765 0.021848 -0.002000
v 0.000000 0.022000 -0.002000
v 0.000000 0.018000 -0.002000
v -0.000765 0.021848 -0.002000
v 0.000742 0.018148 -0.002000
v 0.000765 0.018152 -0.002000
v 0.001414 0.021414 -0.002000
v 0.001267 0.018487 -0.002000
v 0.001414 0.018586 -0.002000
v 0.002000 0.020000 -0.002000
v 0.001848 0.019235 -0.002000
v 0.001848 0.020765 -0.002000
v -0.000765 0.021848 0.002000
v 0.000000 0.018000 0.002000
v 0.000000 0.022000 0.002000
v 0.001414 0.018586 0.002000
v 0.001414 0.021414 0.002000
v 0.002000 0.020000 0.002000
v 0.001848 0.019235 0.002000
v 0.001848 0.020765 0.002000
v 0.000765 0.018152 0.002000
v 0.000765 0.021848 0.002000
v -0.000742 0.018148 0.002000
v -0.001414 0.021414 0.002000
v -0.000765 0.018152 0.002000
v -0.001267 0.018487 0.002000
v -0.002000 0.020000 0.002000
v -0.001848 0.020765 0.002000
v -0.001414 0.018586 0.002000
v -0.001848 0.019235 0.002000
v -0.002000 0.040000 -0.002000
v -0.001848 0.039235 -0.002000
v -0.001848 0.040765 -0.002000
v -0.001414 0.038586 -0.002000
v -0.001414 0.041414 -0.002000
v -0.000765 0.038152 -0.002000
v 0.000000 0.038000 -0.002000
v 0.000000 0.042000 -0.002000
v 0.001414 0.041414 -0.002000
v 0.000765 0.041848 -0.002000
v 0.000765 0.038152 -0.002000
v -0.000765 0.041848 -0.002000
v 0.001174 0.038425 -0.002000
v 0.001453 0.038644 -0.002000
v 0.001414 0.038586 -0.002000
v 0.002000 0.040000 -0.002000
v 0.001848 0.040765 -0.002000
v 0.001848 0.039235 -0.002000
v -0.001414 0.041414 0.002000
v 0.000000 0.038000 0.002000
v 0.000000 0.042000 0.002000
v -0.000765 0.038152 0.002000
v -0.000765 0.041848 0.002000
v 0.001414 0.038586 0.002000
v 0.002000 0.040000 0.002000
v 0.001848 0.039235 0.002000
v 0.001848 0.040765 0.002000
v 0.000765 0.038152 0.002000
v 0.001414 0.041414 0.002000
v 0.000765 0.041848 0.002000
v -0.001174 0.038425 0.002000
v -0.001453 0.038644 0.002000
v -0.001414 0.038586 0.002000
v -0.002000 0.040000 0.002000
v -0.001848 0.039235 0.002000
v -0.001848 0.040765 0.002000
v -0.002000 0.060000 -0.002000
v -0.001848 0.059235 -0.002000
v -0.001848 0.060765 -0.002000
v -0.000765 0.058152 -0.002000
v -0.001414 0.058586 -0.002000
v -0.000765 0.061848 -0.002000
v -0.001414 0.061414 -0.002000
v 0.000765 0.058152 -0.002000
v 0.000765 0.061848 -0.002000
v 0.002000 0.060000 -0.002000
v 0.001848 0.060765 -0.002000
v 0.001848 0.059235 -0.002000
v 0.001414 0.061414 -0.002000
v 0.001414 0.058586 -0.002000
v 0.000000 0.062000 -0.002000
v 0.000000 0.058000 -0.002000
v -0.002000 0.060000 0.002000
v -0.001848 0.059235 0.002000
v -0.001848 0.060765 0.002000
v -0.000765 0.058152 0.002000
v -0.000765 0.061848 0.002000
v -0.001414 0.058586 0.002000
v -0.001414 0.061414 0.002000
v 0.001414 0.058586 0.002000
v 0.000765 0.058152 0.002000
v 0.000765 0.061848 0.002000
v 0.002000 0.060000 0.002000
v 0.001848 0.060765 0.002000
v 0.001848 0.059235 0.002000
v 0.001414 0.061414 0.002000
v 0.000000 0.062000 0.002000
v 0.000000 0.058000 0.002000
v -0.002000 0.080000 -0.002000
v -0.001848 0.079235 -0.002000
v -0.001848 0.080765 -0.002000
v -0.000765 0.078152 -0.002000
v -0.001414 0.078586 -0.002000
v -0.000765 0.081848 -0.002000
v -0.001414 0.081414 -0.002000
v 0.000765 0.078152 -0.002000
v 0.000765 0.081848 -0.002000
v 0.002000 0.080000 -0.002000
v 0.001848 0.080765 -0.002000
v 0.001848 0.079235 -0.002000
v 0.001414 0.081414 -0.002000
v 0.001414 0.078586 -0.002000
v 0.000000 0.082000 -0.002000
v 0.000000 0.078000 -0.002000
v -0.002000 0.080000 0.002000
v -0.001848 0.079235 0.002000
v -0.001848 0.080765 0.002000
v -0.000765 0.078152 0.002000
v -0.001414 0.078586 0.002000
v -0.000765 0.081848 0.002000
v -0.001414 0.081414 0.002000
v 0.000765 0.078152 0.002000
v 0.000765 0.081848 0.002000
v 0.002000 0.080000 0.002000
v 0.001848 0.080765 0.002000
v 0.001848 0.079235 0.002000
v 0.001414 0.081414 0.002000
v 0.001414 0.078586 0.002000
v 0.000000 0.082000 0.002000
v 0.000000 0.078000 0.002000
v -0.000272 -0.061946 0.002000
vn -1.0000 -0.0000 -0.0000
vn -0.0000 -0.0000 -1.0000
vn 1.0000 -0.0000 -0.0000
vn -0.0000 -0.0000 1.0000
vn -0.0000 -1.0000 -0.0000
vn -0.0000 1.0000 -0.0000
vn -0.1949 -0.9808 -0.0000
vn -0.5559 -0.8313 -0.0000
vn -0.8313 -0.5559 -0.0000
vn -0.9808 -0.1949 -0.0000
vn -0.9808 0.1949 -0.0000
vn -0.8313 0.5559 -0.0000
vn -0.5559 0.8313 -0.0000
vn -0.1949 0.9808 -0.0000
vn 0.1949 0.9808 -0.0000
vn 0.5559 0.8313 -0.0000
vn 0.8313 0.5559 -0.0000
vn 0.9808 0.1949 -0.0000
vn 0.9808 -0.1949 -0.0000
vn 0.8313 -0.5559 -0.0000
vn 0.5559 -0.8313 -0.0000
vn 0.1949 -0.9808 -0.0000
vn -0.1947 0.9809 -0.0000
vn -0.0000 -0.0130 0.9999
vn -0.1945 0.9809 0.0001
vn 0.1945 0.9809 -0.0001
vn -0.5561 0.8311 -0.0000
vn 0.5561 0.8311 -0.0000
vn -0.5551 0.8318 -0.0002
vn -0.1714 0.9852 0.0047
vn 0.1714 0.9852 -0.0047
vn -0.8314 0.5557 -0.0000
vn -0.1950 0.9808 -0.0000
vn -0.0000 0.0010 1.0000
vn -0.1993 0.9799 -0.0000
vn 0.1993 0.9799 -0.0000
vn -0.0000 0.0010 -1.0000
vn -0.5547 0.8320 -0.0000
vn 0.5547 0.8320 -0.0000
vn -0.5586 0.8294 -0.0000
vn -0.1956 0.9807 -0.0000
vn 0.1956 0.9807 -0.0000
vn -0.8299 0.5580 -0.0000
vn -0.0000 0.0003 -1.0000
vn -0.0000 0.0003 1.0000
vn -0.0000 -0.0002 1.0000
s 0
usemtl ChassisMetal
f 1//1 4//1 3//1
f 4//2 108//2 79//2
f 4//2 292//2 298//2
f 118//2 158//2 161//2
f 230//2 189//2 228//2
f 191//2 148//2 190//2
f 156//2 112//2 153//2
f 77//2 119//2 81//2
f 44//2 82//2 51//2
f 13//2 52//2 24//2
f 7//2 12//2 14//2
f 7//3 6//3 5//3
f 1//4 32//4 38//4
f 6//4 129//4 97//4
f 136//4 175//4 178//4
f 6//4 305//4 314//4
f 248//4 207//4 246//4
f 210//4 162//4 208//4
f 172//4 126//4 171//4
f 137//4 92//4 135//4
f 99//4 59//4 100//4
f 316//4 33//4 68//4
f 3//5 5//5 1//5
f 8//6 2//6 6//6
f 24//7 33//7 40//7
f 18//8 37//8 33//8
f 37//9 21//9 35//9
f 35//10 19//10 34//10
f 34//11 20//11 36//11
f 36//12 22//12 39//12
f 39//13 17//13 32//13
f 32//14 14//14 38//14
f 38//15 12//15 29//15
f 29//16 15//16 31//16
f 15//17 26//17 31//17
f 10//18 25//18 26//18
f 9//19 27//19 25//19
f 11//20 30//20 27//20
f 16//21 28//21 30//21
f 13//22 40//22 28//22
f 69//7 56//7 59//7
f 56//8 64//8 59//8
f 64//9 49//9 62//9
f 62//10 48//10 60//10
f 60//11 50//11 61//11
f 61//12 55//12 63//12
f 63//13 57//13 58//13
f 58//23 52//23 53//23
f 68//24 72//24 316//24
f 72//16 47//16 70//16
f 47//17 66//17 70//17
f 42//18 65//18 66//18
f 41//19 67//19 65//19
f 67//20 46//20 71//20
f 46//21 73//21 71//21
f 44//22 69//22 73//22
f 81//7 92//7 98//7
f 84//8 97//8 92//8
f 97//9 89//9 95//9
f 95//10 86//10 93//10
f 93//11 88//11 94//11
f 94//12 87//12 96//12
f 96//13 85//13 91//13
f 85//14 83//14 100//14
f 100//15 78//15 101//15
f 101//16 80//16 107//16
f 80//17 104//17 107//17
f 104//18 74//18 103//18
f 74//19 105//19 103//19
f 76//20 106//20 105//20
f 79//21 102//21 106//21
f 77//22 98//22 102//22
f 112//7 128//7 126//7
f 118//8 133//8 128//8
f 133//9 125//9 131//9
f 131//10 123//10 129//10
f 129//11 124//11 130//11
f 130//12 122//12 132//12
f 132//13 120//13 127//13
f 117//25 134//25 120//25
f 135//26 116//26 139//26
f 139//16 109//16 142//16
f 109//17 143//17 142//17
f 110//18 140//18 143//18
f 108//19 141//19 140//19
f 111//20 138//20 141//20
f 115//21 136//21 138//21
f 114//22 126//22 136//22
f 148//7 163//7 162//7
f 154//8 169//8 163//8
f 169//9 160//9 166//9
f 166//10 159//10 165//10
f 165//11 161//11 168//11
f 168//12 158//12 167//12
f 158//27 155//27 164//27
f 156//14 152//14 170//14
f 170//15 149//15 172//15
f 173//28 149//28 175//28
f 145//17 178//17 175//17
f 146//18 177//18 178//18
f 144//19 179//19 177//19
f 147//20 176//20 179//20
f 151//21 174//21 176//21
f 174//22 148//22 162//22
f 187//7 207//7 200//7
f 186//8 202//8 207//8
f 202//9 197//9 205//9
f 205//10 195//10 203//10
f 203//11 196//11 204//11
f 204//12 194//12 201//12
f 201//29 193//29 191//29
f 190//30 199//30 191//30
f 208//31 188//31 210//31
f 210//16 183//16 214//16
f 183//17 215//17 214//17
f 181//18 212//18 215//18
f 180//19 213//19 212//19
f 184//20 209//20 213//20
f 189//21 209//21 182//21
f 189//22 200//22 198//22
f 223//7 245//7 236//7
f 225//8 244//8 245//8
f 244//9 232//9 242//9
f 242//10 231//10 240//10
f 240//11 233//11 241//11
f 233//32 229//32 239//32
f 230//13 226//13 243//13
f 243//14 222//14 235//14
f 235//15 221//15 237//15
f 237//16 219//16 248//16
f 248//17 217//17 250//17
f 217//18 249//18 250//18
f 216//19 251//19 249//19
f 251//20 220//20 234//20
f 220//21 238//21 234//21
f 227//22 236//22 238//22
f 266//7 277//7 282//7
f 260//8 281//8 277//8
f 281//9 262//9 279//9
f 279//10 261//10 278//10
f 278//11 263//11 280//11
f 280//12 265//12 275//12
f 275//13 259//13 276//13
f 276//14 267//14 283//14
f 283//15 255//15 271//15
f 271//16 256//16 273//16
f 256//17 269//17 273//17
f 253//18 268//18 269//18
f 252//19 270//19 268//19
f 254//20 274//20 270//20
f 258//21 272//21 274//21
f 257//22 282//22 272//22
f 298//7 308//7 314//7
f 292//8 312//8 308//8
f 312//9 294//9 310//9
f 310//10 293//10 309//10
f 309//11 295//11 311//11
f 311//12 297//12 313//12
f 313//13 291//13 307//13
f 307//14 299//14 315//14
f 315//15 287//15 303//15
f 303//16 288//16 304//16
f 288//17 301//17 304//17
f 285//18 300//18 301//18
f 284//19 302//19 300//19
f 286//20 306//20 302//20
f 290//21 305//21 306//21
f 289//22 314//22 305//22
f 1//1 2//1 4//1
f 10//2 15//2 3//2
f 4//2 257//2 258//2
f 4//2 258//2 254//2
f 9//2 10//2 3//2
f 11//2 9//2 3//2
f 4//2 254//2 252//2
f 4//2 252//2 253//2
f 11//2 3//2 4//2
f 53//2 13//2 16//2
f 16//2 11//2 4//2
f 45//2 53//2 16//2
f 47//2 45//2 16//2
f 255//2 267//2 220//2
f 255//2 220//2 218//2
f 256//2 255//2 218//2
f 256//2 218//2 216//2
f 253//2 256//2 216//2
f 4//2 253//2 216//2
f 42//2 47//2 16//2
f 41//2 42//2 16//2
f 226//2 228//2 182//2
f 226//2 182//2 184//2
f 222//2 226//2 184//2
f 222//2 184//2 180//2
f 221//2 222//2 180//2
f 219//2 221//2 180//2
f 217//2 219//2 180//2
f 216//2 217//2 180//2
f 41//2 16//2 4//2
f 43//2 41//2 4//2
f 4//2 216//2 180//2
f 46//2 43//2 4//2
f 83//2 44//2 46//2
f 78//2 83//2 46//2
f 188//2 190//2 150//2
f 188//2 150//2 151//2
f 185//2 188//2 151//2
f 185//2 151//2 147//2
f 183//2 185//2 147//2
f 183//2 147//2 144//2
f 181//2 183//2 144//2
f 180//2 181//2 144//2
f 80//2 78//2 46//2
f 75//2 80//2 46//2
f 4//2 180//2 144//2
f 74//2 75//2 46//2
f 74//2 46//2 4//2
f 76//2 74//2 4//2
f 117//2 77//2 79//2
f 79//2 76//2 4//2
f 116//2 117//2 79//2
f 113//2 116//2 79//2
f 152//2 153//2 114//2
f 152//2 114//2 115//2
f 149//2 152//2 115//2
f 149//2 115//2 111//2
f 145//2 149//2 111//2
f 145//2 111//2 108//2
f 146//2 145//2 108//2
f 144//2 146//2 108//2
f 109//2 113//2 79//2
f 110//2 109//2 79//2
f 4//2 144//2 108//2
f 108//2 110//2 79//2
f 289//2 290//2 4//2
f 4//2 8//2 296//2
f 4//2 296//2 292//2
f 298//2 289//2 4//2
f 294//2 296//2 8//2
f 7//2 22//2 20//2
f 7//2 20//2 19//2
f 293//2 294//2 8//2
f 295//2 293//2 8//2
f 8//2 7//2 19//2
f 8//2 19//2 21//2
f 297//2 295//2 8//2
f 8//2 21//2 23//2
f 18//2 24//2 52//2
f 4//2 290//2 286//2
f 266//2 257//2 4//2
f 260//2 266//2 4//2
f 4//2 286//2 284//2
f 4//2 284//2 285//2
f 264//2 260//2 4//2
f 262//2 264//2 4//2
f 4//2 285//2 288//2
f 262//2 4//2 288//2
f 261//2 262//2 288//2
f 261//2 288//2 287//2
f 261//2 287//2 299//2
f 261//2 299//2 291//2
f 261//2 291//2 297//2
f 23//2 18//2 52//2
f 23//2 52//2 57//2
f 261//2 297//2 8//2
f 263//2 261//2 8//2
f 23//2 57//2 55//2
f 23//2 55//2 50//2
f 220//2 267//2 259//2
f 227//2 220//2 259//2
f 227//2 259//2 265//2
f 223//2 227//2 265//2
f 223//2 265//2 263//2
f 225//2 223//2 263//2
f 23//2 50//2 48//2
f 8//2 23//2 48//2
f 225//2 263//2 8//2
f 224//2 225//2 8//2
f 8//2 48//2 49//2
f 8//2 49//2 54//2
f 232//2 224//2 8//2
f 231//2 232//2 8//2
f 56//2 51//2 82//2
f 56//2 82//2 85//2
f 189//2 229//2 233//2
f 187//2 189//2 233//2
f 187//2 233//2 231//2
f 186//2 187//2 231//2
f 54//2 56//2 85//2
f 54//2 85//2 87//2
f 186//2 231//2 8//2
f 192//2 186//2 8//2
f 54//2 87//2 88//2
f 54//2 88//2 86//2
f 197//2 192//2 8//2
f 195//2 197//2 8//2
f 8//2 54//2 86//2
f 8//2 86//2 89//2
f 8//2 89//2 90//2
f 84//2 81//2 119//2
f 8//2 90//2 84//2
f 84//2 119//2 120//2
f 84//2 120//2 122//2
f 148//2 193//2 194//2
f 154//2 148//2 194//2
f 154//2 194//2 196//2
f 157//2 154//2 196//2
f 157//2 196//2 195//2
f 160//2 157//2 195//2
f 84//2 122//2 124//2
f 84//2 124//2 123//2
f 160//2 195//2 8//2
f 159//2 160//2 8//2
f 8//2 84//2 123//2
f 8//2 123//2 125//2
f 159//2 8//2 125//2
f 159//2 125//2 121//2
f 161//2 159//2 121//2
f 118//2 112//2 155//2
f 161//2 121//2 118//2
f 118//2 155//2 158//2
f 230//2 229//2 189//2
f 189//2 182//2 228//2
f 191//2 193//2 148//2
f 148//2 150//2 190//2
f 156//2 155//2 112//2
f 112//2 114//2 153//2
f 77//2 117//2 119//2
f 44//2 83//2 82//2
f 13//2 53//2 52//2
f 17//2 22//2 7//2
f 7//2 3//2 15//2
f 7//2 15//2 12//2
f 14//2 17//2 7//2
f 7//3 8//3 6//3
f 29//4 31//4 1//4
f 1//4 5//4 39//4
f 1//4 39//4 32//4
f 38//4 29//4 1//4
f 36//4 39//4 5//4
f 6//4 277//4 281//4
f 6//4 281//4 279//4
f 34//4 36//4 5//4
f 35//4 34//4 5//4
f 6//4 279//4 278//4
f 6//4 278//4 280//4
f 35//4 5//4 6//4
f 68//4 33//4 37//4
f 37//4 35//4 6//4
f 58//4 68//4 37//4
f 63//4 58//4 37//4
f 276//4 283//4 244//4
f 276//4 244//4 242//4
f 275//4 276//4 242//4
f 275//4 242//4 240//4
f 280//4 275//4 240//4
f 6//4 280//4 240//4
f 61//4 63//4 37//4
f 60//4 61//4 37//4
f 237//4 246//4 202//4
f 237//4 202//4 205//4
f 235//4 237//4 205//4
f 235//4 205//4 203//4
f 243//4 235//4 203//4
f 239//4 243//4 203//4
f 241//4 239//4 203//4
f 240//4 241//4 203//4
f 60//4 37//4 6//4
f 62//4 60//4 6//4
f 6//4 240//4 203//4
f 64//4 62//4 6//4
f 100//4 59//4 64//4
f 91//4 100//4 64//4
f 199//4 208//4 163//4
f 199//4 163//4 169//4
f 206//4 199//4 169//4
f 206//4 169//4 166//4
f 201//4 206//4 166//4
f 201//4 166//4 165//4
f 204//4 201//4 165//4
f 203//4 204//4 165//4
f 96//4 91//4 64//4
f 94//4 96//4 64//4
f 6//4 203//4 165//4
f 93//4 94//4 64//4
f 93//4 64//4 6//4
f 95//4 93//4 6//4
f 135//4 92//4 97//4
f 97//4 95//4 6//4
f 134//4 135//4 97//4
f 127//4 134//4 97//4
f 170//4 171//4 128//4
f 170//4 128//4 133//4
f 164//4 170//4 133//4
f 164//4 133//4 131//4
f 167//4 164//4 131//4
f 167//4 131//4 129//4
f 168//4 167//4 129//4
f 165//4 168//4 129//4
f 132//4 127//4 97//4
f 130//4 132//4 97//4
f 6//4 165//4 129//4
f 129//4 130//4 97//4
f 1//4 31//4 26//4
f 1//4 26//4 25//4
f 302//4 306//4 2//4
f 300//4 302//4 2//4
f 2//4 1//4 25//4
f 2//4 25//4 27//4
f 301//4 300//4 2//4
f 304//4 301//4 2//4
f 2//4 27//4 30//4
f 28//4 40//4 316//4
f 6//4 312//4 310//4
f 282//4 277//4 6//4
f 272//4 282//4 6//4
f 6//4 310//4 309//4
f 6//4 309//4 311//4
f 274//4 272//4 6//4
f 270//4 274//4 6//4
f 6//4 311//4 313//4
f 270//4 6//4 313//4
f 268//4 270//4 313//4
f 268//4 313//4 307//4
f 268//4 307//4 315//4
f 268//4 315//4 303//4
f 268//4 303//4 304//4
f 30//4 28//4 316//4
f 30//4 316//4 72//4
f 268//4 304//4 2//4
f 269//4 268//4 2//4
f 30//4 72//4 70//4
f 30//4 70//4 66//4
f 244//4 283//4 271//4
f 245//4 244//4 271//4
f 245//4 271//4 273//4
f 236//4 245//4 273//4
f 236//4 273//4 269//4
f 238//4 236//4 269//4
f 30//4 66//4 65//4
f 2//4 30//4 65//4
f 238//4 269//4 2//4
f 234//4 238//4 2//4
f 2//4 65//4 67//4
f 2//4 67//4 71//4
f 251//4 234//4 2//4
f 249//4 251//4 2//4
f 73//4 69//4 99//4
f 73//4 99//4 101//4
f 207//4 247//4 250//4
f 200//4 207//4 250//4
f 200//4 250//4 249//4
f 198//4 200//4 249//4
f 71//4 73//4 101//4
f 71//4 101//4 107//4
f 198//4 249//4 2//4
f 209//4 198//4 2//4
f 71//4 107//4 104//4
f 71//4 104//4 103//4
f 213//4 209//4 2//4
f 212//4 213//4 2//4
f 2//4 71//4 103//4
f 2//4 103//4 105//4
f 2//4 105//4 106//4
f 102//4 98//4 137//4
f 2//4 106//4 102//4
f 102//4 137//4 139//4
f 102//4 139//4 142//4
f 162//4 211//4 214//4
f 174//4 162//4 214//4
f 174//4 214//4 215//4
f 176//4 174//4 215//4
f 176//4 215//4 212//4
f 179//4 176//4 212//4
f 102//4 142//4 143//4
f 102//4 143//4 140//4
f 179//4 212//4 2//4
f 177//4 179//4 2//4
f 2//4 102//4 140//4
f 2//4 140//4 141//4
f 177//4 2//4 141//4
f 177//4 141//4 138//4
f 178//4 177//4 138//4
f 136//4 126//4 173//4
f 178//4 138//4 136//4
f 136//4 173//4 175//4
f 308//4 312//4 6//4
f 6//4 2//4 306//4
f 6//4 306//4 305//4
f 314//4 308//4 6//4
f 248//4 247//4 207//4
f 207//4 202//4 246//4
f 210//4 211//4 162//4
f 162//4 163//4 208//4
f 172//4 173//4 126//4
f 126//4 128//4 171//4
f 137//4 98//4 92//4
f 99//4 69//4 59//4
f 316//4 40//4 33//4
f 3//5 7//5 5//5
f 8//6 4//6 2//6
f 24//7 18//7 33//7
f 18//8 23//8 37//8
f 37//9 23//9 21//9
f 35//10 21//10 19//10
f 34//11 19//11 20//11
f 36//12 20//12 22//12
f 39//13 22//13 17//13
f 32//14 17//14 14//14
f 38//15 14//15 12//15
f 29//16 12//16 15//16
f 15//17 10//17 26//17
f 10//18 9//18 25//18
f 9//19 11//19 27//19
f 11//20 16//20 30//20
f 16//21 13//21 28//21
f 13//22 24//22 40//22
f 69//7 51//7 56//7
f 56//8 54//8 64//8
f 64//9 54//9 49//9
f 62//10 49//10 48//10
f 60//11 48//11 50//11
f 61//12 50//12 55//12
f 63//13 55//13 57//13
f 53//14 68//14 58//14
f 58//33 57//33 52//33
f 68//15 53//15 45//15
f 72//16 45//16 47//16
f 47//17 42//17 66//17
f 42//18 41//18 65//18
f 41//19 43//19 67//19
f 67//20 43//20 46//20
f 46//21 44//21 73//21
f 44//22 51//22 69//22
f 81//7 84//7 92//7
f 84//8 90//8 97//8
f 97//9 90//9 89//9
f 95//10 89//10 86//10
f 93//11 86//11 88//11
f 94//12 88//12 87//12
f 96//13 87//13 85//13
f 100//14 91//14 85//14
f 85//2 82//2 83//2
f 101//4 99//4 100//4
f 100//15 83//15 78//15
f 101//16 78//16 80//16
f 80//17 75//17 104//17
f 104//18 75//18 74//18
f 74//19 76//19 105//19
f 76//20 79//20 106//20
f 79//21 77//21 102//21
f 77//22 81//22 98//22
f 112//7 118//7 128//7
f 118//8 121//8 133//8
f 133//9 121//9 125//9
f 131//10 125//10 123//10
f 129//11 123//11 124//11
f 130//12 124//12 122//12
f 132//13 122//13 120//13
f 120//34 119//34 117//34
f 117//35 116//35 134//35
f 134//14 127//14 120//14
f 135//36 134//36 116//36
f 116//15 113//15 139//15
f 139//37 137//37 135//37
f 139//16 113//16 109//16
f 109//17 110//17 143//17
f 110//18 108//18 140//18
f 108//19 111//19 141//19
f 111//20 115//20 138//20
f 115//21 114//21 136//21
f 114//22 112//22 126//22
f 148//7 154//7 163//7
f 154//8 157//8 169//8
f 169//9 157//9 160//9
f 166//10 160//10 159//10
f 165//11 159//11 161//11
f 168//12 161//12 158//12
f 164//13 167//13 158//13
f 155//38 156//38 164//38
f 170//14 164//14 156//14
f 156//4 153//4 152//4
f 172//2 171//2 170//2
f 170//15 152//15 149//15
f 173//39 172//39 149//39
f 149//16 145//16 175//16
f 145//17 146//17 178//17
f 146//18 144//18 177//18
f 144//19 147//19 179//19
f 147//20 151//20 176//20
f 151//21 150//21 174//21
f 174//22 150//22 148//22
f 187//7 186//7 207//7
f 186//8 192//8 202//8
f 202//9 192//9 197//9
f 205//10 197//10 195//10
f 203//11 195//11 196//11
f 204//12 196//12 194//12
f 191//13 206//13 201//13
f 201//40 194//40 193//40
f 190//41 188//41 199//41
f 199//14 206//14 191//14
f 208//42 199//42 188//42
f 188//15 185//15 210//15
f 214//4 211//4 210//4
f 210//16 185//16 183//16
f 183//17 181//17 215//17
f 181//18 180//18 212//18
f 180//19 184//19 213//19
f 184//20 182//20 209//20
f 189//21 198//21 209//21
f 189//22 187//22 200//22
f 223//7 225//7 245//7
f 225//8 224//8 244//8
f 244//9 224//9 232//9
f 242//10 232//10 231//10
f 240//11 231//11 233//11
f 239//12 241//12 233//12
f 229//43 230//43 239//43
f 243//13 239//13 230//13
f 230//44 228//44 226//44
f 243//14 226//14 222//14
f 235//15 222//15 221//15
f 248//45 246//45 237//45
f 237//16 221//16 219//16
f 250//46 247//46 248//46
f 248//17 219//17 217//17
f 217//18 216//18 249//18
f 216//19 218//19 251//19
f 251//20 218//20 220//20
f 220//21 227//21 238//21
f 227//22 223//22 236//22
f 266//7 260//7 277//7
f 260//8 264//8 281//8
f 281//9 264//9 262//9
f 279//10 262//10 261//10
f 278//11 261//11 263//11
f 280//12 263//12 265//12
f 275//13 265//13 259//13
f 276//14 259//14 267//14
f 283//15 267//15 255//15
f 271//16 255//16 256//16
f 256//17 253//17 269//17
f 253//18 252//18 268//18
f 252//19 254//19 270//19
f 254//20 258//20 274//20
f 258//21 257//21 272//21
f 257//22 266//22 282//22
f 298//7 292//7 308//7
f 292//8 296//8 312//8
f 312//9 296//9 294//9
f 310//10 294//10 293//10
f 309//11 293//11 295//11
f 311//12 295//12 297//12
f 313//13 297//13 291//13
f 307//14 291//14 299//14
f 315//15 299//15 287//15
f 303//16 287//16 288//16
f 288//17 285//17 301//17
f 285//18 284//18 300//18
f 284//19 286//19 302//19
f 286//20 290//20 306//20
f 290//21 289//21 305//21
f 289//22 298//22 314//22
f 68//15 45//15 72//15
