# Blender 5.2.1 LTS
# www.blender.org
mtllib kit_plate_80_60.mtl
o kit_plate_80_60
v -0.040000 -0.030000 0.002000
v -0.040000 0.030000 0.002000
v -0.040000 -0.030000 -0.002000
v -0.040000 0.030000 -0.002000
v 0.040000 -0.030000 0.002000
v 0.040000 0.030000 0.002000
v 0.040000 -0.030000 -0.002000
v 0.040000 0.030000 -0.002000
v -0.032000 -0.020000 -0.002000
v -0.031848 -0.020765 -0.002000
v -0.031848 -0.019235 -0.002000
v -0.030765 -0.021848 -0.002000
v -0.031414 -0.021414 -0.002000
v -0.030638 -0.018127 -0.002000
v -0.030765 -0.018152 -0.002000
v -0.031414 -0.018586 -0.002000
v -0.029235 -0.021848 -0.002000
v -0.029235 -0.018152 -0.002000
v -0.028000 -0.020000 -0.002000
v -0.028152 -0.019235 -0.002000
v -0.028152 -0.020765 -0.002000
v -0.028586 -0.018586 -0.002000
v -0.028586 -0.021414 -0.002000
v -0.030000 -0.022000 -0.002000
v -0.030000 -0.018000 -0.002000
v -0.032000 -0.020000 0.002000
v -0.031848 -0.020765 0.002000
v -0.031848 -0.019235 0.002000
v -0.030128 -0.018025 0.002000
v -0.030765 -0.018152 0.002000
v -0.030765 -0.021848 0.002000
v -0.031414 -0.018586 0.002000
v -0.031414 -0.021414 0.002000
v -0.029235 -0.021848 0.002000
v -0.029235 -0.018152 0.002000
v -0.028000 -0.020000 0.002000
v -0.028152 -0.019235 0.002000
v -0.028152 -0.020765 0.002000
v -0.028586 -0.018586 0.002000
v -0.028586 -0.021414 0.002000
v -0.030000 -0.022000 0.002000
v -0.030000 -0.018000 0.002000
v -0.032000 0.000000 -0.002000
v -0.031848 -0.000765 -0.002000
v -0.031848 0.000765 -0.002000
v -0.030765 -0.001848 -0.002000
v -0.031414 -0.001414 -0.002000
v -0.030765 0.001848 -0.002000
v -0.031414 0.001414 -0.002000
v -0.029235 -0.001848 -0.002000
v -0.029235 0.001848 -0.002000
v -0.028000 0.000000 -0.002000
v -0.028152 0.000765 -0.002000
v -0.028152 -0.000765 -0.002000
v -0.028586 0.001414 -0.002000
v -0.028586 -0.001414 -0.002000
v -0.030000 -0.002000 -0.002000
v -0.030000 0.002000 -0.002000
v -0.032000 0.000000 0.002000
v -0.031848 -0.000765 0.002000
v -0.031848 0.000765 0.002000
v -0.030765 -0.001848 0.002000
v -0.031414 -0.001414 0.002000
v -0.030765 0.001848 0.002000
v -0.031414 0.001414 0.002000
v -0.029235 -0.001848 0.002000
v -0.029235 0.001848 0.002000
v -0.028000 0.000000 0.002000
v -0.028152 0.000765 0.002000
v -0.028152 -0.000765 0.002000
v -0.028586 0.001414 0.002000
v -0.028586 -0.001414 0.002000
v -0.030000 -0.002000 0.002000
v -0.030000 0.002000 0.002000
v -0.032000 0.020000 -0.002000
v -0.031848 0.019235 -0.002000
v -0.031848 0.020765 -0.002000
v -0.030765 0.018152 -0.002000
v -0.030765 0.021848 -0.002000
v -0.031414 0.018586 -0.002000
v -0.031414 0.021414 -0.002000
v -0.028586 0.018586 -0.002000
v -0.029235 0.018152 -0.002000
v -0.029235 0.021848 -0.002000
v -0.028000 0.020000 -0.002000
v -0.028152 0.020765 -0.002000
v -0.028152 0.019235 -0.002000
v -0.028586 0.021414 -0.002000
v -0.030000 0.018000 -0.002000
v -0.030000 0.022000 -0.002000
v -0.032000 0.020000 0.002000
v -0.031848 0.019235 0.002000
v -0.031848 0.020765 0.002000
v -0.030765 0.018152 0.002000
v -0.031414 0.018586 0.002000
v -0.030765 0.021848 0.002000
v -0.031414 0.021414 0.002000
v -0.029235 0.018152 0.002000
v -0.029235 0.021848 0.002000
v -0.028000 0.020000 0.002000
v -0.028152 0.020765 0.002000
v -0.028152 0.019235 0.002000
v -0.028586 0.021414 0.002000
v -0.028586 0.018586 0.002000
v -0.030000 0.018000 0.002000
v -0.030000 0.022000 0.002000
v -0.010765 -0.021848 -0.002000
v -0.011356 -0.021453 -0.002000
v -0.010000 -0.022000 -0.002000
v -0.009235 -0.021848 -0.002000
v -0.011575 -0.021174 -0.002000
v -0.011414 -0.021414 -0.002000
v -0.011848 -0.020765 -0.002000
v -0.012000 -0.020000 -0.002000
v -0.011848 -0.019235 -0.002000
v -0.010765 -0.018152 -0.002000
v -0.011414 -0.018586 -0.002000
v -0.010000 -0.018000 -0.002000
v -0.009235 -0.018152 -0.002000
v -0.008000 -0.020000 -0.002000
v -0.008152 -0.020765 -0.002000
v -0.008152 -0.019235 -0.002000
v -0.008586 -0.021414 -0.002000
v -0.008586 -0.018586 -0.002000
v -0.012000 -0.020000 0.002000
v -0.011848 -0.020765 0.002000
v -0.011848 -0.019235 0.002000
v -0.010765 -0.021848 0.002000
v -0.010765 -0.018152 0.002000
v -0.010000 -0.022000 0.002000
v -0.011414 -0.021414 0.002000
v -0.011414 -0.018586 0.002000
v -0.009235 -0.021848 0.002000
v -0.009235 -0.018152 0.002000
v -0.008000 -0.020000 0.002000
v -0.008127 -0.020638 0.002000
v -0.008152 -0.020765 0.002000
v -0.008152 -0.019235 0.002000
v -0.008586 -0.021414 0.002000
v -0.008586 -0.018586 0.002000
v -0.010000 -0.018000 0.002000
v -0.012000 0.000000 -0.002000
v -0.011848 -0.000765 -0.002000
v -0.011848 0.000765 -0.002000
v -0.010765 -0.001848 -0.002000
v -0.011414 -0.001414 -0.002000
v -0.010765 0.001848 -0.002000
v -0.011414 0.001414 -0.002000
v -0.009235 -0.001848 -0.002000
v -0.009235 0.001848 -0.002000
v -0.008000 0.000000 -0.002000
v -0.008152 0.000765 -0.002000
v -0.008152 -0.000765 -0.002000
v -0.008586 0.001414 -0.002000
v -0.010000 -0.002000 -0.002000
v -0.008586 -0.001414 -0.002000
v -0.010000 0.002000 -0.002000
v -0.012000 0.000000 0.002000
v -0.011848 -0.000765 0.002000
v -0.011848 0.000765 0.002000
v -0.010765 -0.001848 0.002000
v -0.010765 0.001848 0.002000
v -0.011414 -0.001414 0.002000
v -0.011414 0.001414 0.002000
v -0.009235 -0.001848 0.002000
v -0.009235 0.001848 0.002000
v -0.008152 -0.000765 0.002000
v -0.008000 0.000000 0.002000
v -0.008152 0.000765 0.002000
v -0.008586 -0.001414 0.002000
v -0.008586 0.001414 0.002000
v -0.010000 -0.002000 0.002000
v -0.010000 0.002000 0.002000
v -0.012000 0.020000 -0.002000
v -0.011848 0.019235 -0.002000
v -0.011848 0.020765 -0.002000
v -0.010765 0.018152 -0.002000
v -0.010765 0.021848 -0.002000
v -0.011414 0.018586 -0.002000
v -0.011414 0.021414 -0.002000
v -0.009235 0.018152 -0.002000
v -0.009235 0.021848 -0.002000
v -0.008000 0.020000 -0.002000
v -0.008127 0.020638 -0.002000
v -0.008152 0.019235 -0.002000
v -0.008152 0.020765 -0.002000
v -0.008586 0.018586 -0.002000
v -0.008586 0.021414 -0.002000
v -0.010000 0.022000 -0.002000
v -0.010000 0.018000 -0.002000
v -0.012000 0.020000 0.002000
v -0.011848 0.019235 0.002000
v -0.011848 0.020765 0.002000
v -0.010765 0.018152 0.002000
v -0.010765 0.021848 0.002000
v -0.011414 0.018586 0.002000
v -0.011414 0.021414 0.002000
v -0.009235 0.018152 0.002000
v -0.009235 0.021848 0.002000
v -0.008000 0.020000 0.002000
v -0.008025 0.020128 0.002000
v -0.008152 0.019235 0.002000
v -0.008152 0.020765 0.002000
v -0.008586 0.018586 0.002000
v -0.008586 0.021414 0.002000
v -0.010000 0.022000 0.002000
v -0.010000 0.018000 0.002000
v 0.008000 -0.020000 -0.002000
v 0.008152 -0.020765 -0.002000
v 0.008152 -0.019235 -0.002000
v 0.009235 -0.021848 -0.002000
v 0.008586 -0.021414 -0.002000
v 0.009235 -0.018152 -0.002000
v 0.008586 -0.018586 -0.002000
v 0.010765 -0.021848 -0.002000
v 0.010765 -0.018152 -0.002000
v 0.012000 -0.020000 -0.002000
v 0.011848 -0.019235 -0.002000
v 0.011848 -0.020765 -0.002000
v 0.011414 -0.018586 -0.002000
v 0.010000 -0.022000 -0.002000
v 0.011414 -0.021414 -0.002000
v 0.010000 -0.018000 -0.002000
v 0.008000 -0.020000 0.002000
v 0.008152 -0.020765 0.002000
v 0.008152 -0.019235 0.002000
v 0.009235 -0.021848 0.002000
v 0.009235 -0.018152 0.002000
v 0.010000 -0.022000 0.002000
v 0.008586 -0.021414 0.002000
v 0.008586 -0.018586 0.002000
v 0.010765 -0.021848 0.002000
v 0.010765 -0.018152 0.002000
v 0.012000 -0.020000 0.002000
v 0.011848 -0.020765 0.002000
v 0.011848 -0.019235 0.002000
v 0.011414 -0.021414 0.002000
v 0.011414 -0.018586 0.002000
v 0.010000 -0.018000 0.002000
v 0.010000 0.002000 -0.002000
v 0.010765 0.001848 -0.002000
v 0.011848 0.000765 -0.002000
v 0.012000 0.000000 -0.002000
v 0.011414 0.001414 -0.002000
v 0.008152 -0.000765 -0.002000
v 0.008000 0.000000 -0.002000
v 0.008586 -0.001414 -0.002000
v 0.008586 0.001414 -0.002000
v 0.008152 0.000765 -0.002000
v 0.010000 -0.002000 -0.002000
v 0.011848 -0.000765 -0.002000
v 0.010765 -0.001848 -0.002000
v 0.011414 -0.001414 -0.002000
v 0.009235 -0.001848 -0.002000
v 0.009235 0.001848 -0.002000
v 0.008000 0.000000 0.002000
v 0.008586 -0.001414 0.002000
v 0.008152 -0.000765 0.002000
v 0.008152 0.000765 0.002000
v 0.008586 0.001414 0.002000
v 0.009235 0.001848 0.002000
v 0.010765 0.001848 0.002000
v 0.011414 0.001414 0.002000
v 0.010000 0.002000 0.002000
v 0.009235 -0.001848 0.002000
v 0.010765 -0.001848 0.002000
v 0.010000 -0.002000 0.002000
v 0.012000 0.000000 0.002000
v 0.011848 0.000765 0.002000
v 0.011848 -0.000765 0.002000
v 0.011414 -0.001414 0.002000
v 0.008000 0.020000 -0.002000
v 0.008152 0.019235 -0.002000
v 0.008152 0.020765 -0.002000
v 0.009235 0.018152 -0.002000
v 0.008586 0.018586 -0.002000
v 0.009235 0.021848 -0.002000
v 0.008586 0.021414 -0.002000
v 0.010765 0.018152 -0.002000
v 0.010765 0.021848 -0.002000
v 0.012000 0.020000 -0.002000
v 0.011848 0.020765 -0.002000
v 0.011848 0.019235 -0.002000
v 0.011414 0.021414 -0.002000
v 0.011414 0.018586 -0.002000
v 0.010000 0.022000 -0.002000
v 0.010000 0.018000 -0.002000
v 0.008000 0.020000 0.002000
v 0.008152 0.019235 0.002000
v 0.008152 0.020765 0.002000
v 0.009235 0.021848 0.002000
v 0.009235 0.018152 0.002000
v 0.008586 0.021414 0.002000
v 0.008586 0.018586 0.002000
v 0.010765 0.018152 0.002000
v 0.010765 0.021848 0.002000
v 0.012000 0.020000 0.002000
v 0.011848 0.020765 0.002000
v 0.011848 0.019235 0.002000
v 0.011414 0.021414 0.002000
v 0.011414 0.018586 0.002000
v 0.010000 0.022000 0.002000
v 0.010000 0.018000 0.002000
v 0.028000 -0.020000 -0.002000
v 0.028152 -0.020765 -0.002000
v 0.028152 -0.019235 -0.002000
v 0.029235 -0.021848 -0.002000
v 0.029235 -0.018152 -0.002000
v 0.028586 -0.021414 -0.002000
v 0.028586 -0.018586 -0.002000
v 0.030765 -0.021848 -0.002000
v 0.030765 -0.018152 -0.002000
v 0.032000 -0.020000 -0.002000
v 0.031848 -0.020765 -0.002000
v 0.031848 -0.019235 -0.002000
v 0.031414 -0.021414 -0.002000
v 0.031414 -0.018586 -0.002000
v 0.030000 -0.018000 -0.002000
v 0.030000 -0.022000 -0.002000
v 0.028000 -0.020000 0.002000
v 0.028152 -0.020765 0.002000
v 0.028152 -0.019235 0.002000
v 0.029235 -0.021848 0.002000
v 0.029235 -0.018152 0.002000
v 0.028586 -0.021414 0.002000
v 0.028586 -0.018586 0.002000
v 0.030765 -0.021848 0.002000
v 0.030765 -0.018152 0.002000
v 0.032000 -0.020000 0.002000
v 0.031848 -0.020765 0.002000
v 0.031848 -0.019235 0.002000
v 0.031414 -0.021414 0.002000
v 0.031414 -0.018586 0.002000
v 0.030000 -0.018000 0.002000
v 0.030000 -0.022000 0.002000
v 0.028000 0.000000 -0.002000
v 0.028152 -0.000765 -0.002000
v 0.028152 0.000765 -0.002000
v 0.029235 -0.001848 -0.002000
v 0.028586 -0.001414 -0.002000
v 0.029235 0.001848 -0.002000
v 0.028586 0.001414 -0.002000
v 0.030765 -0.001848 -0.002000
v 0.030765 0.001848 -0.002000
v 0.032000 0.000000 -0.002000
v 0.031848 0.000765 -0.002000
v 0.031848 -0.000765 -0.002000
v 0.031414 0.001414 -0.002000
v 0.031414 -0.001414 -0.002000
v 0.030000 0.002000 -0.002000
v 0.030000 -0.002000 -0.002000
v 0.028000 0.000000 0.002000
v 0.028152 -0.000765 0.002000
v 0.028152 0.000765 0.002000
v 0.029235 0.001848 0.002000
v 0.029235 -0.001848 0.002000
v 0.028586 0.001414 0.002000
v 0.028586 -0.001414 0.002000
v 0.030765 -0.001848 0.002000
v 0.030765 0.001848 0.002000
v 0.032000 0.000000 0.002000
v 0.031848 0.000765 0.002000
v 0.031848 -0.000765 0.002000
v 0.031414 0.001414 0.002000
v 0.031414 -0.001414 0.002000
v 0.030000 0.002000 0.002000
v 0.030000 -0.002000 0.002000
v 0.028000 0.020000 -0.002000
v 0.028152 0.019235 -0.002000
v 0.028152 0.020765 -0.002000
v 0.029235 0.021848 -0.002000
v 0.030765 0.021848 -0.002000
v 0.030000 0.022000 -0.002000
v 0.028586 0.021414 -0.002000
v 0.028586 0.018586 -0.002000
v 0.031414 0.021414 -0.002000
v 0.029235 0.018152 -0.002000
v 0.030765 0.018152 -0.002000
v 0.030000 0.018000 -0.002000
v 0.032000 0.020000 -0.002000
v 0.031848 0.020765 -0.002000
v 0.031848 0.019235 -0.002000
v 0.031414 0.018586 -0.002000
v 0.028000 0.020000 0.002000
v 0.028152 0.020765 0.002000
v 0.028152 0.019235 0.002000
v 0.029235 0.021848 0.002000
v 0.030765 0.021848 0.002000
v 0.030000 0.022000 0.002000
v 0.028586 0.021414 0.002000
v 0.028586 0.018586 0.002000
v 0.031414 0.021414 0.002000
v 0.029235 0.018152 0.002000
v 0.030765 0.018152 0.002000
v 0.030000 0.018000 0.002000
v 0.032000 0.020000 0.002000
v 0.031848 0.020765 0.002000
v 0.031848 0.019235 0.002000
v 0.031414 0.018586 0.002000
vn -1.0000 -0.0000 -0.0000
vn -0.0000 -0.0000 -1.0000
vn 1.0000 -0.0000 -0.0000
vn -0.0000 -0.0000 1.0000
vn -0.0000 -1.0000 -0.0000
vn -0.0000 1.0000 -0.0000
vn -0.1949 -0.9808 -0.0000
vn -0.5559 -0.8313 -0.0000
vn -0.8313 -0.5559 -0.0000
vn -0.9808 -0.1949 -0.0000
vn -0.9808 0.1949 -0.0000
vn -0.8313 0.5559 -0.0000
vn -0.5559 0.8313 -0.0000
vn -0.1949 0.9808 -0.0000
vn 0.1949 0.9808 -0.0000
vn 0.5559 0.8313 -0.0000
vn 0.8313 0.5559 -0.0000
vn 0.9808 0.1949 -0.0000
vn 0.9808 -0.1949 -0.0000
vn 0.8313 -0.5559 -0.0000
vn 0.5559 -0.8313 -0.0000
vn 0.1949 -0.9808 0.0001
vn 0.1949 -0.9808 -0.0000
vn 0.5557 0.8314 -0.0000
vn 0.8317 0.5552 -0.0002
vn -0.9808 -0.1949 0.0001
vn 0.1931 -0.9812 -0.0000
vn 0.1952 -0.9808 -0.0000
vn 0.5580 0.8298 -0.0000
vn 0.8304 0.5571 -0.0000
vn -0.9812 -0.1931 -0.0000
vn -0.9808 -0.1952 -0.0000
s 0
usemtl ChassisMetal
f 1//1 4//1 3//1
f 3//2 4//2 11//2
f 185//2 249//2 152//2
f 57//2 50//2 143//2
f 8//2 310//2 347//2
f 306//2 219//2 339//2
f 7//2 219//2 307//2
f 255//2 272//2 273//2
f 7//2 110//2 123//2
f 4//2 8//2 182//2
f 53//2 89//2 148//2
f 112//2 20//2 111//2
f 58//2 4//2 75//2
f 14//2 4//2 43//2
f 7//3 6//3 5//3
f 102//4 104//4 74//4
f 135//4 5//4 229//4
f 169//4 289//4 202//4
f 234//4 5//4 323//4
f 394//4 364//4 362//4
f 263//4 269//4 352//4
f 234//4 322//4 356//4
f 165//4 224//4 257//4
f 6//4 2//4 206//4
f 1//4 5//4 133//4
f 2//4 64//4 92//4
f 2//4 29//4 60//4
f 2//4 1//4 28//4
f 3//5 5//5 1//5
f 8//6 2//6 6//6
f 25//7 35//7 42//7
f 18//8 39//8 35//8
f 39//9 20//9 37//9
f 37//10 19//10 36//10
f 36//11 21//11 38//11
f 38//12 23//12 40//12
f 40//13 17//13 34//13
f 34//14 24//14 41//14
f 41//15 12//15 31//15
f 31//16 13//16 33//16
f 13//17 27//17 33//17
f 10//18 26//18 27//18
f 9//19 28//19 26//19
f 11//20 32//20 28//20
f 16//21 30//21 32//21
f 30//22 14//22 42//22
f 58//7 67//7 74//7
f 51//8 71//8 67//8
f 71//9 53//9 69//9
f 69//10 52//10 68//10
f 68//11 54//11 70//11
f 70//12 56//12 72//12
f 72//13 50//13 66//13
f 66//14 57//14 73//14
f 73//15 46//15 62//15
f 62//16 47//16 63//16
f 47//17 60//17 63//17
f 44//18 59//18 60//18
f 43//19 61//19 59//19
f 45//20 65//20 61//20
f 49//21 64//21 65//21
f 48//23 74//23 64//23
f 90//7 99//7 106//7
f 84//8 103//8 99//8
f 103//9 86//9 101//9
f 101//10 85//10 100//10
f 100//11 87//11 102//11
f 102//12 82//12 104//12
f 104//13 83//13 98//13
f 98//14 89//14 105//14
f 105//15 78//15 94//15
f 94//16 80//16 95//16
f 80//17 92//17 95//17
f 76//18 91//18 92//18
f 75//19 93//19 91//19
f 77//20 97//20 93//20
f 81//21 96//21 97//21
f 79//23 106//23 96//23
f 118//7 134//7 141//7
f 119//8 140//8 134//8
f 140//9 122//9 138//9
f 138//10 120//10 135//10
f 135//11 121//11 137//11
f 137//12 123//12 139//12
f 139//13 110//13 133//13
f 133//14 109//14 130//14
f 130//15 107//15 128//15
f 107//24 108//24 131//24
f 131//25 111//25 113//25
f 113//18 125//18 126//18
f 114//19 127//19 125//19
f 115//20 132//20 127//20
f 117//21 129//21 132//21
f 116//23 141//23 129//23
f 157//7 166//7 173//7
f 150//8 171//8 166//8
f 171//9 152//9 169//9
f 169//10 151//10 168//10
f 168//11 153//11 167//11
f 167//12 156//12 170//12
f 170//13 149//13 165//13
f 165//14 155//14 172//14
f 172//15 145//15 161//15
f 161//16 146//16 163//16
f 146//17 159//17 163//17
f 143//18 158//18 159//18
f 142//19 160//19 158//19
f 144//20 164//20 160//20
f 148//21 162//21 164//21
f 147//23 173//23 162//23
f 189//7 199//7 206//7
f 182//8 205//8 199//8
f 205//9 186//9 203//9
f 203//26 184//26 200//26
f 200//11 185//11 202//11
f 202//12 187//12 204//12
f 204//13 181//13 198//13
f 198//14 190//14 207//14
f 207//15 177//15 194//15
f 194//16 179//16 196//16
f 179//17 192//17 196//17
f 175//18 191//18 192//18
f 174//19 193//19 191//19
f 176//20 197//20 193//20
f 180//21 195//21 197//21
f 178//23 206//23 195//23
f 223//7 233//7 239//7
f 216//8 238//8 233//8
f 238//9 218//9 236//9
f 236//10 217//10 234//10
f 234//11 219//11 235//11
f 235//12 222//12 237//12
f 237//13 215//13 232//13
f 232//14 221//14 229//14
f 229//15 211//15 227//15
f 227//16 212//16 230//16
f 212//17 225//17 230//17
f 209//18 224//18 225//18
f 208//19 226//19 224//19
f 210//20 231//20 226//20
f 214//21 228//21 231//21
f 213//23 239//23 228//23
f 240//7 262//7 264//7
f 241//8 263//8 262//8
f 263//9 242//9 269//9
f 269//10 243//10 268//10
f 268//11 251//11 270//11
f 270//12 253//12 271//12
f 271//13 252//13 266//13
f 266//14 250//14 267//14
f 267//15 254//15 265//15
f 265//16 247//16 257//16
f 247//17 258//17 257//17
f 245//18 256//18 258//18
f 246//19 259//19 256//19
f 249//20 260//20 259//20
f 248//21 261//21 260//21
f 255//23 264//23 261//23
f 286//7 296//7 302//7
f 280//8 300//8 296//8
f 300//9 282//9 298//9
f 298//10 281//10 297//10
f 297//11 283//11 299//11
f 299//12 285//12 301//12
f 301//13 279//13 295//13
f 295//14 287//14 303//14
f 303//15 275//15 292//15
f 292//16 276//16 294//16
f 276//17 289//17 294//17
f 273//18 288//18 289//18
f 272//19 290//19 288//19
f 274//20 293//20 290//20
f 278//21 291//21 293//21
f 277//23 302//23 291//23
f 318//7 328//7 334//7
f 312//8 333//8 328//8
f 333//9 315//9 331//9
f 331//10 313//10 329//10
f 329//11 314//11 330//11
f 330//12 316//12 332//12
f 332//13 311//13 327//13
f 327//14 319//14 335//14
f 335//15 307//15 323//15
f 323//16 309//16 325//16
f 309//17 321//17 325//17
f 305//18 320//18 321//18
f 304//19 322//19 320//19
f 306//20 326//20 322//20
f 310//21 324//21 326//21
f 308//23 334//23 324//23
f 350//7 360//7 366//7
f 344//8 364//8 360//8
f 364//9 346//9 362//9
f 362//10 345//10 361//10
f 361//11 347//11 363//11
f 363//12 349//12 365//12
f 365//13 343//13 359//13
f 359//14 351//14 367//14
f 367//15 339//15 356//15
f 356//16 340//16 358//16
f 340//17 353//17 358//17
f 337//18 352//18 353//18
f 336//19 354//19 352//19
f 338//20 357//20 354//20
f 342//21 355//21 357//21
f 341//23 366//23 355//23
f 373//7 388//7 389//7
f 376//8 388//8 372//8
f 381//9 392//9 376//9
f 397//10 380//10 396//10
f 396//11 382//11 398//11
f 398//12 383//12 399//12
f 399//13 378//13 394//13
f 394//14 379//14 395//14
f 395//15 377//15 393//15
f 393//16 375//16 391//16
f 391//17 369//17 386//17
f 369//18 384//18 386//18
f 368//19 385//19 384//19
f 370//20 390//20 385//20
f 374//21 387//21 390//21
f 371//23 389//23 387//23
f 1//1 2//1 4//1
f 10//2 13//2 3//2
f 4//2 14//2 15//2
f 4//2 15//2 16//2
f 9//2 10//2 3//2
f 4//2 16//2 11//2
f 11//2 9//2 3//2
f 79//2 81//2 4//2
f 4//2 176//2 174//2
f 4//2 174//2 175//2
f 90//2 79//2 4//2
f 84//2 90//2 4//2
f 4//2 175//2 179//2
f 4//2 179//2 177//2
f 88//2 84//2 4//2
f 88//2 4//2 177//2
f 88//2 177//2 190//2
f 86//2 88//2 190//2
f 85//2 86//2 190//2
f 87//2 85//2 190//2
f 82//2 87//2 190//2
f 148//2 83//2 82//2
f 147//2 148//2 82//2
f 147//2 82//2 190//2
f 157//2 147//2 190//2
f 157//2 190//2 181//2
f 150//2 157//2 181//2
f 150//2 181//2 187//2
f 154//2 150//2 187//2
f 185//2 183//2 248//2
f 154//2 187//2 185//2
f 246//2 151//2 152//2
f 152//2 154//2 185//2
f 185//2 248//2 249//2
f 249//2 246//2 152//2
f 274//2 272//2 183//2
f 183//2 184//2 8//2
f 8//2 376//2 372//2
f 8//2 372//2 373//2
f 278//2 274//2 183//2
f 277//2 278//2 183//2
f 8//2 373//2 371//2
f 8//2 371//2 374//2
f 277//2 183//2 8//2
f 286//2 277//2 8//2
f 286//2 8//2 374//2
f 280//2 286//2 374//2
f 280//2 374//2 370//2
f 284//2 280//2 370//2
f 284//2 370//2 368//2
f 282//2 284//2 368//2
f 282//2 368//2 369//2
f 281//2 282//2 369//2
f 281//2 369//2 375//2
f 283//2 281//2 375//2
f 377//2 379//2 342//2
f 283//2 375//2 377//2
f 285//2 283//2 377//2
f 377//2 342//2 338//2
f 377//2 338//2 336//2
f 279//2 285//2 377//2
f 240//2 287//2 279//2
f 241//2 240//2 279//2
f 279//2 377//2 336//2
f 337//2 340//2 219//2
f 279//2 336//2 337//2
f 244//2 241//2 279//2
f 242//2 244//2 279//2
f 337//2 219//2 217//2
f 337//2 217//2 218//2
f 242//2 279//2 337//2
f 243//2 242//2 337//2
f 337//2 218//2 220//2
f 337//2 220//2 216//2
f 251//2 243//2 337//2
f 253//2 251//2 337//2
f 337//2 216//2 223//2
f 337//2 223//2 213//2
f 252//2 253//2 337//2
f 250//2 252//2 337//2
f 337//2 213//2 214//2
f 210//2 208//2 124//2
f 250//2 337//2 214//2
f 214//2 210//2 124//2
f 214//2 124//2 119//2
f 254//2 250//2 214//2
f 247//2 254//2 214//2
f 214//2 119//2 118//2
f 247//2 214//2 118//2
f 151//2 246//2 245//2
f 245//2 247//2 118//2
f 245//2 118//2 116//2
f 153//2 151//2 245//2
f 156//2 153//2 245//2
f 245//2 116//2 117//2
f 156//2 245//2 117//2
f 149//2 156//2 117//2
f 149//2 117//2 115//2
f 155//2 149//2 115//2
f 155//2 115//2 114//2
f 145//2 155//2 114//2
f 113//2 111//2 22//2
f 146//2 145//2 114//2
f 114//2 113//2 22//2
f 114//2 22//2 18//2
f 143//2 146//2 114//2
f 53//2 142//2 143//2
f 52//2 53//2 143//2
f 143//2 114//2 18//2
f 25//2 14//2 57//2
f 143//2 18//2 25//2
f 54//2 52//2 143//2
f 56//2 54//2 143//2
f 143//2 25//2 57//2
f 50//2 56//2 143//2
f 381//2 376//2 8//2
f 7//2 316//2 314//2
f 7//2 314//2 313//2
f 380//2 381//2 8//2
f 382//2 380//2 8//2
f 8//2 7//2 313//2
f 8//2 313//2 315//2
f 383//2 382//2 8//2
f 342//2 379//2 378//2
f 342//2 378//2 383//2
f 341//2 342//2 383//2
f 8//2 315//2 317//2
f 8//2 317//2 312//2
f 341//2 383//2 8//2
f 350//2 341//2 8//2
f 8//2 312//2 318//2
f 8//2 318//2 308//2
f 344//2 350//2 8//2
f 348//2 344//2 8//2
f 8//2 308//2 310//2
f 310//2 306//2 351//2
f 310//2 351//2 343//2
f 346//2 348//2 8//2
f 345//2 346//2 8//2
f 310//2 343//2 349//2
f 347//2 345//2 8//2
f 310//2 349//2 347//2
f 339//2 351//2 306//2
f 306//2 304//2 219//2
f 219//2 340//2 339//2
f 311//2 316//2 7//2
f 219//2 304//2 305//2
f 219//2 305//2 309//2
f 319//2 311//2 7//2
f 219//2 309//2 307//2
f 307//2 319//2 7//2
f 275//2 287//2 240//2
f 255//2 248//2 183//2
f 275//2 240//2 255//2
f 276//2 275//2 255//2
f 255//2 183//2 272//2
f 273//2 276//2 255//2
f 222//2 219//2 7//2
f 3//2 13//2 12//2
f 3//2 12//2 24//2
f 215//2 222//2 7//2
f 221//2 215//2 7//2
f 7//2 3//2 24//2
f 7//2 24//2 17//2
f 211//2 221//2 7//2
f 7//2 17//2 23//2
f 7//2 23//2 21//2
f 7//2 21//2 19//2
f 19//2 20//2 108//2
f 19//2 108//2 107//2
f 124//2 208//2 209//2
f 122//2 124//2 209//2
f 122//2 209//2 212//2
f 120//2 122//2 212//2
f 120//2 212//2 211//2
f 121//2 120//2 211//2
f 19//2 107//2 109//2
f 7//2 19//2 109//2
f 121//2 211//2 7//2
f 123//2 121//2 7//2
f 7//2 109//2 110//2
f 180//2 176//2 4//2
f 8//2 184//2 186//2
f 8//2 186//2 188//2
f 178//2 180//2 4//2
f 189//2 178//2 4//2
f 8//2 188//2 182//2
f 182//2 189//2 4//2
f 144//2 142//2 53//2
f 53//2 55//2 89//2
f 89//2 83//2 148//2
f 148//2 144//2 53//2
f 112//2 108//2 20//2
f 20//2 22//2 111//2
f 78//2 89//2 55//2
f 78//2 55//2 51//2
f 80//2 78//2 51//2
f 58//2 48//2 4//2
f 80//2 51//2 58//2
f 76//2 80//2 58//2
f 4//2 81//2 77//2
f 75//2 76//2 58//2
f 4//2 77//2 75//2
f 46//2 57//2 14//2
f 4//2 48//2 49//2
f 4//2 49//2 45//2
f 47//2 46//2 14//2
f 44//2 47//2 14//2
f 4//2 45//2 43//2
f 43//2 44//2 14//2
f 7//3 8//3 6//3
f 31//4 33//4 1//4
f 1//4 126//4 125//4
f 1//4 125//4 127//4
f 41//4 31//4 1//4
f 34//4 41//4 1//4
f 1//4 127//4 132//4
f 1//4 132//4 129//4
f 40//4 34//4 1//4
f 40//4 1//4 129//4
f 40//4 129//4 141//4
f 38//4 40//4 141//4
f 36//4 38//4 141//4
f 37//4 36//4 141//4
f 39//4 37//4 141//4
f 35//4 39//4 141//4
f 42//4 35//4 141//4
f 73//4 29//4 42//4
f 66//4 73//4 42//4
f 66//4 42//4 141//4
f 72//4 66//4 141//4
f 72//4 141//4 134//4
f 70//4 72//4 134//4
f 140//4 138//4 172//4
f 70//4 134//4 140//4
f 68//4 70//4 140//4
f 140//4 172//4 161//4
f 140//4 161//4 163//4
f 69//4 68//4 140//4
f 71//4 69//4 140//4
f 140//4 163//4 159//4
f 140//4 159//4 158//4
f 71//4 140//4 158//4
f 160//4 164//4 101//4
f 71//4 158//4 160//4
f 67//4 71//4 160//4
f 160//4 101//4 100//4
f 160//4 100//4 102//4
f 74//4 67//4 160//4
f 105//4 64//4 74//4
f 98//4 105//4 74//4
f 74//4 160//4 102//4
f 104//4 98//4 74//4
f 225//4 224//4 135//4
f 135//4 136//4 5//4
f 5//4 235//4 237//4
f 5//4 237//4 232//4
f 230//4 225//4 135//4
f 227//4 230//4 135//4
f 5//4 232//4 229//4
f 229//4 227//4 135//4
f 191//4 193//4 2//4
f 2//4 97//4 96//4
f 2//4 96//4 106//4
f 192//4 191//4 2//4
f 196//4 192//4 2//4
f 2//4 106//4 99//4
f 103//4 101//4 164//4
f 2//4 99//4 103//4
f 194//4 196//4 2//4
f 194//4 2//4 103//4
f 103//4 164//4 162//4
f 103//4 162//4 173//4
f 207//4 194//4 103//4
f 207//4 103//4 173//4
f 207//4 173//4 166//4
f 198//4 207//4 166//4
f 198//4 166//4 171//4
f 204//4 198//4 171//4
f 169//4 168//4 294//4
f 204//4 171//4 169//4
f 288//4 200//4 202//4
f 202//4 204//4 169//4
f 169//4 294//4 289//4
f 289//4 288//4 202//4
f 321//4 320//4 234//4
f 234//4 235//4 5//4
f 5//4 332//4 327//4
f 5//4 327//4 335//4
f 325//4 321//4 234//4
f 5//4 335//4 323//4
f 323//4 325//4 234//4
f 330//4 332//4 5//4
f 6//4 392//4 397//4
f 6//4 397//4 396//4
f 329//4 330//4 5//4
f 331//4 329//4 5//4
f 5//4 6//4 396//4
f 5//4 396//4 398//4
f 333//4 331//4 5//4
f 5//4 398//4 399//4
f 394//4 395//4 354//4
f 5//4 399//4 394//4
f 394//4 354//4 357//4
f 394//4 357//4 355//4
f 367//4 322//4 326//4
f 359//4 367//4 326//4
f 359//4 326//4 324//4
f 365//4 359//4 324//4
f 365//4 324//4 334//4
f 363//4 365//4 334//4
f 363//4 334//4 328//4
f 361//4 363//4 328//4
f 361//4 328//4 333//4
f 361//4 333//4 5//4
f 394//4 355//4 366//4
f 394//4 366//4 360//4
f 361//4 5//4 394//4
f 362//4 361//4 394//4
f 394//4 360//4 364//4
f 388//4 392//4 6//4
f 6//4 201//4 200//4
f 200//4 288//4 290//4
f 200//4 290//4 293//4
f 389//4 388//4 6//4
f 387//4 389//4 6//4
f 200//4 293//4 291//4
f 200//4 291//4 302//4
f 390//4 387//4 6//4
f 6//4 200//4 302//4
f 6//4 302//4 296//4
f 390//4 6//4 296//4
f 390//4 296//4 300//4
f 385//4 390//4 300//4
f 385//4 300//4 298//4
f 384//4 385//4 298//4
f 384//4 298//4 297//4
f 386//4 384//4 297//4
f 386//4 297//4 299//4
f 391//4 386//4 299//4
f 391//4 299//4 301//4
f 354//4 395//4 393//4
f 393//4 391//4 301//4
f 393//4 301//4 295//4
f 352//4 354//4 393//4
f 234//4 358//4 353//4
f 352//4 393//4 295//4
f 234//4 353//4 352//4
f 236//4 234//4 352//4
f 352//4 295//4 303//4
f 292//4 294//4 168//4
f 352//4 303//4 292//4
f 238//4 236//4 352//4
f 233//4 238//4 352//4
f 292//4 168//4 167//4
f 170//4 165//4 256//4
f 292//4 167//4 170//4
f 239//4 233//4 352//4
f 228//4 239//4 352//4
f 292//4 170//4 256//4
f 292//4 256//4 259//4
f 231//4 228//4 352//4
f 267//4 226//4 231//4
f 266//4 267//4 231//4
f 292//4 259//4 260//4
f 292//4 260//4 261//4
f 266//4 231//4 352//4
f 271//4 266//4 352//4
f 292//4 261//4 264//4
f 292//4 264//4 262//4
f 270//4 271//4 352//4
f 268//4 270//4 352//4
f 352//4 292//4 262//4
f 352//4 262//4 263//4
f 269//4 268//4 352//4
f 356//4 358//4 234//4
f 234//4 320//4 322//4
f 322//4 367//4 356//4
f 258//4 256//4 165//4
f 165//4 172//4 138//4
f 138//4 135//4 224//4
f 224//4 226//4 267//4
f 224//4 267//4 265//4
f 165//4 138//4 224//4
f 257//4 258//4 165//4
f 224//4 265//4 257//4
f 203//4 201//4 6//4
f 2//4 193//4 197//4
f 2//4 197//4 195//4
f 205//4 203//4 6//4
f 199//4 205//4 6//4
f 2//4 195//4 206//4
f 206//4 199//4 6//4
f 131//4 126//4 1//4
f 5//4 136//4 137//4
f 5//4 137//4 139//4
f 128//4 131//4 1//4
f 130//4 128//4 1//4
f 5//4 139//4 133//4
f 133//4 130//4 1//4
f 93//4 97//4 2//4
f 64//4 105//4 94//4
f 64//4 94//4 95//4
f 91//4 93//4 2//4
f 64//4 95//4 92//4
f 92//4 91//4 2//4
f 65//4 64//4 2//4
f 29//4 73//4 62//4
f 29//4 62//4 63//4
f 61//4 65//4 2//4
f 59//4 61//4 2//4
f 29//4 63//4 60//4
f 60//4 59//4 2//4
f 30//4 29//4 2//4
f 1//4 33//4 27//4
f 1//4 27//4 26//4
f 32//4 30//4 2//4
f 1//4 26//4 28//4
f 28//4 32//4 2//4
f 3//5 7//5 5//5
f 8//6 4//6 2//6
f 25//7 18//7 35//7
f 18//8 22//8 39//8
f 39//9 22//9 20//9
f 37//10 20//10 19//10
f 36//11 19//11 21//11
f 38//12 21//12 23//12
f 40//13 23//13 17//13
f 34//14 17//14 24//14
f 41//15 24//15 12//15
f 31//16 12//16 13//16
f 13//17 10//17 27//17
f 10//18 9//18 26//18
f 9//19 11//19 28//19
f 11//20 16//20 32//20
f 16//21 15//21 30//21
f 42//4 29//4 30//4
f 30//27 15//27 14//27
f 14//28 25//28 42//28
f 58//7 51//7 67//7
f 51//8 55//8 71//8
f 71//9 55//9 53//9
f 69//10 53//10 52//10
f 68//11 52//11 54//11
f 70//12 54//12 56//12
f 72//13 56//13 50//13
f 66//14 50//14 57//14
f 73//15 57//15 46//15
f 62//16 46//16 47//16
f 47//17 44//17 60//17
f 44//18 43//18 59//18
f 43//19 45//19 61//19
f 45//20 49//20 65//20
f 49//21 48//21 64//21
f 48//23 58//23 74//23
f 90//7 84//7 99//7
f 84//8 88//8 103//8
f 103//9 88//9 86//9
f 101//10 86//10 85//10
f 100//11 85//11 87//11
f 102//12 87//12 82//12
f 104//13 82//13 83//13
f 98//14 83//14 89//14
f 105//15 89//15 78//15
f 94//16 78//16 80//16
f 80//17 76//17 92//17
f 76//18 75//18 91//18
f 75//19 77//19 93//19
f 77//20 81//20 97//20
f 81//21 79//21 96//21
f 79//23 90//23 106//23
f 118//7 119//7 134//7
f 119//8 124//8 140//8
f 140//9 124//9 122//9
f 138//10 122//10 120//10
f 137//2 136//2 135//2
f 135//11 120//11 121//11
f 137//12 121//12 123//12
f 139//13 123//13 110//13
f 133//14 110//14 109//14
f 130//15 109//15 107//15
f 131//16 128//16 107//16
f 108//29 112//29 131//29
f 113//17 126//17 131//17
f 131//30 112//30 111//30
f 113//18 114//18 125//18
f 114//19 115//19 127//19
f 115//20 117//20 132//20
f 117//21 116//21 129//21
f 116//23 118//23 141//23
f 157//7 150//7 166//7
f 150//8 154//8 171//8
f 171//9 154//9 152//9
f 169//10 152//10 151//10
f 168//11 151//11 153//11
f 167//12 153//12 156//12
f 170//13 156//13 149//13
f 165//14 149//14 155//14
f 172//15 155//15 145//15
f 161//16 145//16 146//16
f 146//17 143//17 159//17
f 143//18 142//18 158//18
f 142//19 144//19 160//19
f 144//20 148//20 164//20
f 148//21 147//21 162//21
f 147//23 157//23 173//23
f 189//7 182//7 199//7
f 182//8 188//8 205//8
f 205//9 188//9 186//9
f 200//4 201//4 203//4
f 203//31 186//31 184//31
f 184//32 183//32 200//32
f 200//11 183//11 185//11
f 202//12 185//12 187//12
f 204//13 187//13 181//13
f 198//14 181//14 190//14
f 207//15 190//15 177//15
f 194//16 177//16 179//16
f 179//17 175//17 192//17
f 175//18 174//18 191//18
f 174//19 176//19 193//19
f 176//20 180//20 197//20
f 180//21 178//21 195//21
f 178//23 189//23 206//23
f 223//7 216//7 233//7
f 216//8 220//8 238//8
f 238//9 220//9 218//9
f 236//10 218//10 217//10
f 234//11 217//11 219//11
f 235//12 219//12 222//12
f 237//13 222//13 215//13
f 232//14 215//14 221//14
f 229//15 221//15 211//15
f 227//16 211//16 212//16
f 212//17 209//17 225//17
f 209//18 208//18 224//18
f 208//19 210//19 226//19
f 210//20 214//20 231//20
f 214//21 213//21 228//21
f 213//23 223//23 239//23
f 240//7 241//7 262//7
f 241//8 244//8 263//8
f 263//9 244//9 242//9
f 269//10 242//10 243//10
f 268//11 243//11 251//11
f 270//12 251//12 253//12
f 271//13 253//13 252//13
f 266//14 252//14 250//14
f 267//15 250//15 254//15
f 265//16 254//16 247//16
f 247//17 245//17 258//17
f 245//18 246//18 256//18
f 246//19 249//19 259//19
f 249//20 248//20 260//20
f 248//21 255//21 261//21
f 255//23 240//23 264//23
f 286//7 280//7 296//7
f 280//8 284//8 300//8
f 300//9 284//9 282//9
f 298//10 282//10 281//10
f 297//11 281//11 283//11
f 299//12 283//12 285//12
f 301//13 285//13 279//13
f 295//14 279//14 287//14
f 303//15 287//15 275//15
f 292//16 275//16 276//16
f 276//17 273//17 289//17
f 273//18 272//18 288//18
f 272//19 274//19 290//19
f 274//20 278//20 293//20
f 278//21 277//21 291//21
f 277//23 286//23 302//23
f 318//7 312//7 328//7
f 312//8 317//8 333//8
f 333//9 317//9 315//9
f 331//10 315//10 313//10
f 329//11 313//11 314//11
f 330//12 314//12 316//12
f 332//13 316//13 311//13
f 327//14 311//14 319//14
f 335//15 319//15 307//15
f 323//16 307//16 309//16
f 309//17 305//17 321//17
f 305//18 304//18 320//18
f 304//19 306//19 322//19
f 306//20 310//20 326//20
f 310//21 308//21 324//21
f 308//23 318//23 334//23
f 350//7 344//7 360//7
f 344//8 348//8 364//8
f 364//9 348//9 346//9
f 362//10 346//10 345//10
f 361//11 345//11 347//11
f 363//12 347//12 349//12
f 365//13 349//13 343//13
f 359//14 343//14 351//14
f 367//15 351//15 339//15
f 356//16 339//16 340//16
f 340//17 337//17 353//17
f 337//18 336//18 352//18
f 336//19 338//19 354//19
f 338//20 342//20 357//20
f 342//21 341//21 355//21
f 341//23 350//23 366//23
f 373//7 372//7 388//7
f 376//8 392//8 388//8
f 381//9 397//9 392//9
f 397//10 381//10 380//10
f 396//11 380//11 382//11
f 398//12 382//12 383//12
f 399//13 383//13 378//13
f 394//14 378//14 379//14
f 395//15 379//15 377//15
f 393//16 377//16 375//16
f 391//17 375//17 369//17
f 369//18 368//18 384//18
f 368//19 370//19 385//19
f 370//20 374//20 390//20
f 374//21 371//21 387//21
f 371//23 373//23 389//23
