# Blender 5.2.1 LTS
# www.blender.org
mtllib kit_nut_4.mtl
o kit_nut_4
v 0.000000 0.004000 -0.002000
v 0.000000 0.004000 0.002000
v 0.003464 0.002000 -0.002000
v 0.003464 0.002000 0.002000
v 0.003464 -0.002000 -0.002000
v 0.003464 -0.002000 0.002000
v 0.000000 -0.004000 -0.002000
v 0.000000 -0.004000 0.002000
v -0.003464 -0.002000 -0.002000
v -0.003464 -0.002000 0.002000
v -0.003464 0.002000 -0.002000
v -0.003464 0.002000 0.002000
v 0.000000 -0.002000 0.002000
v -0.002000 0.000000 0.002000
v -0.001848 -0.000765 0.002000
v -0.001848 0.000765 0.002000
v -0.000765 -0.001848 0.002000
v -0.000765 0.001848 0.002000
v -0.001414 -0.001414 0.002000
v -0.001414 0.001414 0.002000
v 0.000000 0.002000 0.002000
v 0.000765 -0.001848 0.002000
v 0.000765 0.001848 0.002000
v 0.002000 0.000000 0.002000
v 0.001848 0.000765 0.002000
v 0.001848 -0.000765 0.002000
v 0.001414 -0.001414 0.002000
v 0.001414 0.001414 0.002000
v 0.000000 0.002000 -0.002000
v -0.002000 0.000000 -0.002000
v -0.001848 -0.000765 -0.002000
v -0.001848 0.000765 -0.002000
v -0.000765 -0.001848 -0.002000
v -0.001414 -0.001414 -0.002000
v -0.000765 0.001848 -0.002000
v -0.001414 0.001414 -0.002000
v 0.000765 -0.001848 -0.002000
v 0.000765 0.001848 -0.002000
v 0.002000 0.000000 -0.002000
v 0.001848 0.000765 -0.002000
v 0.001848 -0.000765 -0.002000
v 0.001414 0.001414 -0.002000
v 0.001414 -0.001414 -0.002000
v 0.000000 -0.002000 -0.002000
vn 0.5000 0.8660 -0.0000
vn 1.0000 -0.0000 -0.0000
vn 0.5000 -0.8660 -0.0000
vn -0.5000 -0.8660 -0.0000
vn -0.0000 -0.0000 1.0000
vn -1.0000 -0.0000 -0.0000
vn -0.5000 0.8660 -0.0000
vn -0.0000 -0.0000 -1.0000
vn -0.1949 -0.9808 -0.0000
vn -0.5559 -0.8313 -0.0000
vn -0.8313 -0.5559 -0.0000
vn -0.9808 -0.1949 -0.0000
vn -0.9808 0.1949 -0.0000
vn -0.8313 0.5559 -0.0000
vn -0.5559 0.8313 -0.0000
vn -0.1949 0.9808 -0.0000
vn 0.1949 0.9808 -0.0000
vn 0.5559 0.8313 -0.0000
vn 0.8313 0.5559 -0.0000
vn 0.9808 0.1949 -0.0000
vn 0.9808 -0.1949 -0.0000
vn 0.8313 -0.5559 -0.0000
vn 0.5559 -0.8313 -0.0000
vn 0.1949 -0.9808 -0.0000
s 0
usemtl DetailSteel
f 1//1 4//1 3//1
f 3//2 6//2 5//2
f 5//3 8//3 7//3
f 7//4 10//4 9//4
f 4//5 24//5 26//5
f 10//5 14//5 16//5
f 9//6 12//6 11//6
f 11//7 2//7 1//7
f 5//8 39//8 40//8
f 11//8 30//8 31//8
f 38//9 21//9 29//9
f 42//10 23//10 38//10
f 25//11 42//11 40//11
f 24//12 40//12 39//12
f 26//13 39//13 41//13
f 27//14 41//14 43//14
f 22//15 43//15 37//15
f 13//16 37//16 44//16
f 17//17 44//17 33//17
f 19//18 33//18 34//18
f 31//19 19//19 34//19
f 30//20 15//20 31//20
f 32//21 14//21 30//21
f 36//22 16//22 32//22
f 35//23 20//23 36//23
f 29//24 18//24 35//24
f 1//1 2//1 4//1
f 3//2 4//2 6//2
f 5//3 6//3 8//3
f 7//4 8//4 10//4
f 8//5 6//5 4//5
f 4//5 2//5 21//5
f 4//5 21//5 23//5
f 22//5 13//5 8//5
f 27//5 22//5 8//5
f 4//5 23//5 28//5
f 4//5 28//5 25//5
f 26//5 27//5 8//5
f 4//5 25//5 24//5
f 26//5 8//5 4//5
f 18//5 21//5 2//5
f 2//5 12//5 10//5
f 10//5 8//5 13//5
f 10//5 13//5 17//5
f 20//5 18//5 2//5
f 16//5 20//5 2//5
f 10//5 17//5 19//5
f 10//5 19//5 15//5
f 16//5 2//5 10//5
f 10//5 15//5 14//5
f 9//6 10//6 12//6
f 11//7 12//7 2//7
f 1//8 3//8 5//8
f 5//8 7//8 44//8
f 5//8 44//8 37//8
f 38//8 29//8 1//8
f 42//8 38//8 1//8
f 5//8 37//8 43//8
f 5//8 43//8 41//8
f 40//8 42//8 1//8
f 5//8 41//8 39//8
f 40//8 1//8 5//8
f 33//8 44//8 7//8
f 7//8 9//8 11//8
f 11//8 1//8 29//8
f 11//8 29//8 35//8
f 34//8 33//8 7//8
f 31//8 34//8 7//8
f 11//8 35//8 36//8
f 11//8 36//8 32//8
f 31//8 7//8 11//8
f 11//8 32//8 30//8
f 38//9 23//9 21//9
f 42//10 28//10 23//10
f 25//11 28//11 42//11
f 24//12 25//12 40//12
f 26//13 24//13 39//13
f 27//14 26//14 41//14
f 22//15 27//15 43//15
f 13//16 22//16 37//16
f 17//17 13//17 44//17
f 19//18 17//18 33//18
f 31//19 15//19 19//19
f 30//20 14//20 15//20
f 32//21 16//21 14//21
f 36//22 20//22 16//22
f 35//23 18//23 20//23
f 29//24 21//24 18//24
