# Blender 5.2.1 LTS
# www.blender.org
mtllib kit_u_bracket_small.mtl
o kit_u_bracket_small
v -0.031000 -0.034000 0.020000
v 0.027000 0.014000 0.020000
v -0.031000 -0.030000 0.020000
v 0.027000 -0.034000 -0.020000
v 0.027000 0.014000 -0.020000
v -0.031000 0.014000 0.020000
v -0.031000 -0.034000 -0.020000
v 0.031000 -0.034000 0.020000
v 0.031000 0.014000 0.020000
v 0.031000 -0.034000 -0.020000
v -0.031000 -0.030000 -0.020000
v 0.031000 0.014000 -0.020000
v -0.031000 0.014000 -0.020000
v -0.027000 -0.034000 0.020000
v 0.027000 -0.034000 0.020000
v -0.027000 0.014000 0.020000
v 0.031000 -0.030000 0.020000
v -0.027000 -0.034000 -0.020000
v 0.031000 -0.030000 -0.020000
v -0.027000 0.014000 -0.020000
v -0.027000 -0.030000 -0.020000
v -0.027000 -0.030000 0.020000
v -0.027333 -0.030000 0.020000
v -0.027000 -0.030258 0.020000
v -0.027314 -0.030238 0.020000
v 0.027000 -0.030000 -0.020000
v 0.027333 -0.030000 -0.020000
v 0.030667 -0.030000 0.020000
v 0.027000 -0.030000 0.020000
v 0.027000 -0.030276 -0.020000
v 0.027312 -0.030254 -0.020000
v 0.030667 -0.030001 0.020000
v -0.031000 0.000000 0.004000
v -0.031000 -0.001531 0.003696
v -0.031000 0.001531 0.003696
v -0.031000 -0.003696 0.001531
v -0.031000 0.003696 0.001531
v -0.031000 -0.002828 0.002828
v -0.031000 0.002828 0.002828
v -0.031000 -0.003696 -0.001531
v -0.031000 0.003696 -0.001531
v -0.031000 0.000000 -0.004000
v -0.031000 -0.001531 -0.003696
v -0.031000 0.002612 -0.002973
v -0.031000 0.001531 -0.003696
v -0.031000 -0.002828 -0.002828
v -0.031000 0.002828 -0.002828
v -0.031000 0.004000 0.000000
v -0.031000 -0.004000 0.000000
v -0.027000 0.000000 0.004000
v -0.027000 -0.001531 0.003696
v -0.027000 0.002612 0.002973
v -0.027000 0.001531 0.003696
v -0.027000 -0.003696 0.001531
v -0.027000 0.003696 0.001531
v -0.027000 -0.002828 0.002828
v -0.027000 0.002828 0.002828
v -0.027000 -0.003696 -0.001531
v -0.027000 0.003696 -0.001531
v -0.027000 0.000000 -0.004000
v -0.027000 -0.001531 -0.003696
v -0.027000 0.001531 -0.003696
v -0.027000 -0.002828 -0.002828
v -0.027000 0.002828 -0.002828
v -0.027000 0.004000 0.000000
v -0.027000 -0.004000 0.000000
v 0.027000 0.000000 0.004000
v 0.027000 -0.001531 0.003696
v 0.027000 0.001531 0.003696
v 0.027000 -0.003696 0.001531
v 0.027000 -0.002828 0.002828
v 0.027000 0.003696 0.001531
v 0.027000 0.002828 0.002828
v 0.027000 -0.003696 -0.001531
v 0.027000 0.003696 -0.001531
v 0.027000 0.000000 -0.004000
v 0.027000 0.001531 -0.003696
v 0.027000 -0.001531 -0.003696
v 0.027000 0.002612 -0.002973
v 0.027000 0.002828 -0.002828
v 0.027000 -0.002828 -0.002828
v 0.027000 0.004000 0.000000
v 0.027000 -0.004000 0.000000
v 0.031000 0.000000 0.004000
v 0.031000 -0.001531 0.003696
v 0.031000 0.002612 0.002973
v 0.031000 0.001531 0.003696
v 0.031000 -0.003696 0.001531
v 0.031000 0.003696 0.001531
v 0.031000 -0.002828 0.002828
v 0.031000 0.002828 0.002828
v 0.031000 -0.003696 -0.001531
v 0.031000 0.003696 -0.001531
v 0.031000 0.000000 -0.004000
v 0.031000 -0.001531 -0.003696
v 0.031000 0.001531 -0.003696
v 0.031000 -0.002828 -0.002828
v 0.031000 0.002828 -0.002828
v 0.031000 0.004000 0.000000
v 0.031000 -0.004000 0.000000
v -0.022000 -0.034000 0.000000
v -0.021848 -0.034000 0.000765
v -0.021848 -0.034000 -0.000765
v -0.020765 -0.034000 0.001848
v -0.021414 -0.034000 0.001414
v -0.020765 -0.034000 -0.001848
v -0.021414 -0.034000 -0.001414
v -0.019235 -0.034000 0.001848
v -0.019235 -0.034000 -0.001848
v -0.018000 -0.034000 0.000000
v -0.018152 -0.034000 -0.000765
v -0.018152 -0.034000 0.000765
v -0.018586 -0.034000 -0.001414
v -0.018586 -0.034000 0.001414
v -0.020000 -0.034000 0.002000
v -0.020000 -0.034000 -0.002000
v -0.022000 -0.030000 0.000000
v -0.021848 -0.030000 0.000765
v -0.021848 -0.030000 -0.000765
v -0.020765 -0.030000 -0.001848
v -0.020765 -0.030000 0.001848
v -0.021414 -0.030000 -0.001414
v -0.021414 -0.030000 0.001414
v -0.019235 -0.030000 0.001848
v -0.019235 -0.030000 -0.001848
v -0.018000 -0.030000 0.000000
v -0.018152 -0.030000 -0.000765
v -0.018152 -0.030000 0.000765
v -0.018586 -0.030000 -0.001414
v -0.018586 -0.030000 0.001414
v -0.020000 -0.030000 0.002000
v -0.020000 -0.030000 -0.002000
v -0.001414 -0.034000 -0.001414
v -0.000765 -0.034000 -0.001848
v 0.000765 -0.034000 -0.001848
v 0.000000 -0.034000 -0.002000
v 0.002000 -0.034000 0.000000
v 0.001848 -0.034000 -0.000765
v 0.001848 -0.034000 0.000765
v 0.001414 -0.034000 -0.001414
v -0.002000 -0.034000 0.000000
v -0.001848 -0.034000 0.000765
v -0.001848 -0.034000 -0.000765
v -0.000765 -0.034000 0.001848
v 0.000765 -0.034000 0.001848
v 0.001414 -0.034000 0.001414
v 0.000000 -0.034000 0.002000
v -0.001414 -0.034000 0.001414
v -0.000765 -0.030000 0.001848
v -0.001414 -0.030000 0.001414
v 0.000765 -0.030000 0.001848
v 0.000000 -0.030000 0.002000
v 0.002000 -0.030000 0.000000
v 0.001848 -0.030000 -0.000765
v 0.001414 -0.030000 0.001414
v 0.001848 -0.030000 0.000765
v -0.002000 -0.030000 0.000000
v -0.001848 -0.030000 0.000765
v -0.001848 -0.030000 -0.000765
v -0.000765 -0.030000 -0.001848
v 0.000765 -0.030000 -0.001848
v 0.001414 -0.030000 -0.001414
v 0.000000 -0.030000 -0.002000
v -0.001414 -0.030000 -0.001414
v 0.018000 -0.034000 0.000000
v 0.018152 -0.034000 0.000765
v 0.018152 -0.034000 -0.000765
v 0.019235 -0.034000 0.001848
v 0.019235 -0.034000 -0.001848
v 0.018586 -0.034000 0.001414
v 0.018586 -0.034000 -0.001414
v 0.020765 -0.034000 0.001848
v 0.020765 -0.034000 -0.001848
v 0.022000 -0.034000 0.000000
v 0.021848 -0.034000 0.000765
v 0.021848 -0.034000 -0.000765
v 0.021414 -0.034000 0.001414
v 0.021414 -0.034000 -0.001414
v 0.020000 -0.034000 -0.002000
v 0.020000 -0.034000 0.002000
v 0.018000 -0.030000 0.000000
v 0.018152 -0.030000 0.000765
v 0.018152 -0.030000 -0.000765
v 0.019235 -0.030000 0.001848
v 0.019235 -0.030000 -0.001848
v 0.018586 -0.030000 0.001414
v 0.018586 -0.030000 -0.001414
v 0.020765 -0.030000 0.001848
v 0.020765 -0.030000 -0.001848
v 0.022000 -0.030000 0.000000
v 0.021848 -0.030000 0.000765
v 0.021848 -0.030000 -0.000765
v 0.021414 -0.030000 0.001414
v 0.021414 -0.030000 -0.001414
v 0.020000 -0.030000 -0.002000
v 0.020000 -0.030000 0.002000
v -0.031000 -0.010000 -0.008000
v -0.031000 -0.010765 -0.008152
v -0.031000 -0.009235 -0.008152
v -0.031000 -0.011848 -0.009235
v -0.031000 -0.008152 -0.009235
v -0.031000 -0.011414 -0.008586
v -0.031000 -0.008586 -0.008586
v -0.031000 -0.011848 -0.010765
v -0.031000 -0.008152 -0.010765
v -0.031000 -0.010000 -0.012000
v -0.031000 -0.010765 -0.011848
v -0.031000 -0.009235 -0.011848
v -0.031000 -0.011414 -0.011414
v -0.031000 -0.008586 -0.011414
v -0.031000 -0.008000 -0.010000
v -0.031000 -0.012000 -0.010000
v -0.027000 -0.008591 -0.008582
v -0.027000 -0.008586 -0.008586
v -0.027000 -0.008152 -0.009235
v -0.027000 -0.011848 -0.010765
v -0.027000 -0.008000 -0.010000
v -0.027000 -0.008152 -0.010765
v -0.027000 -0.008586 -0.011414
v -0.027000 -0.010000 -0.012000
v -0.027000 -0.009235 -0.011848
v -0.027000 -0.011414 -0.011414
v -0.027000 -0.010765 -0.011848
v -0.027000 -0.009235 -0.008152
v -0.027000 -0.009293 -0.008141
v -0.027000 -0.012000 -0.010000
v -0.027000 -0.010765 -0.008152
v -0.027000 -0.010000 -0.008000
v -0.027000 -0.011414 -0.008586
v -0.027000 -0.011848 -0.009235
v -0.031000 -0.010000 0.012000
v -0.031000 -0.010765 0.011848
v -0.031000 -0.009235 0.011848
v -0.031000 -0.011848 0.010765
v -0.031000 -0.011414 0.011414
v -0.031000 -0.008152 0.010765
v -0.031000 -0.008586 0.011414
v -0.031000 -0.011848 0.009235
v -0.031000 -0.008152 0.009235
v -0.031000 -0.010000 0.008000
v -0.031000 -0.009235 0.008152
v -0.031000 -0.010765 0.008152
v -0.031000 -0.008586 0.008586
v -0.031000 -0.011414 0.008586
v -0.031000 -0.012000 0.010000
v -0.031000 -0.008000 0.010000
v -0.027000 -0.010000 0.012000
v -0.027000 -0.010765 0.011848
v -0.027000 -0.009235 0.011848
v -0.027000 -0.008152 0.010765
v -0.027000 -0.011848 0.010765
v -0.027000 -0.008586 0.011414
v -0.027000 -0.011414 0.011414
v -0.027000 -0.011848 0.009235
v -0.027000 -0.008152 0.009235
v -0.027000 -0.010000 0.008000
v -0.027000 -0.009235 0.008152
v -0.027000 -0.010765 0.008152
v -0.027000 -0.008586 0.008586
v -0.027000 -0.011414 0.008586
v -0.027000 -0.012000 0.010000
v -0.027000 -0.008000 0.010000
v 0.027000 -0.010000 -0.008000
v 0.027000 -0.010765 -0.008152
v 0.027000 -0.009235 -0.008152
v 0.027000 -0.011848 -0.009235
v 0.027000 -0.008152 -0.009235
v 0.027000 -0.011414 -0.008586
v 0.027000 -0.008586 -0.008586
v 0.027000 -0.011848 -0.010765
v 0.027000 -0.008152 -0.010765
v 0.027000 -0.010000 -0.012000
v 0.027000 -0.010765 -0.011848
v 0.027000 -0.009235 -0.011848
v 0.027000 -0.011414 -0.011414
v 0.027000 -0.008586 -0.011414
v 0.027000 -0.008000 -0.010000
v 0.027000 -0.012000 -0.010000
v 0.031000 -0.008591 -0.008582
v 0.031000 -0.008586 -0.008586
v 0.031000 -0.008152 -0.009235
v 0.031000 -0.011848 -0.010765
v 0.031000 -0.008000 -0.010000
v 0.031000 -0.008152 -0.010765
v 0.031000 -0.008586 -0.011414
v 0.031000 -0.010000 -0.012000
v 0.031000 -0.009235 -0.011848
v 0.031000 -0.011414 -0.011414
v 0.031000 -0.010765 -0.011848
v 0.031000 -0.009235 -0.008152
v 0.031000 -0.009293 -0.008141
v 0.031000 -0.012000 -0.010000
v 0.031000 -0.010765 -0.008152
v 0.031000 -0.010000 -0.008000
v 0.031000 -0.011414 -0.008586
v 0.031000 -0.011848 -0.009235
v 0.027000 -0.010000 0.012000
v 0.027000 -0.010765 0.011848
v 0.027000 -0.009235 0.011848
v 0.027000 -0.011848 0.010765
v 0.027000 -0.011414 0.011414
v 0.027000 -0.008152 0.010765
v 0.027000 -0.008586 0.011414
v 0.027000 -0.011848 0.009235
v 0.027000 -0.008152 0.009235
v 0.027000 -0.010000 0.008000
v 0.027000 -0.009235 0.008152
v 0.027000 -0.010765 0.008152
v 0.027000 -0.008586 0.008586
v 0.027000 -0.011414 0.008586
v 0.027000 -0.012000 0.010000
v 0.027000 -0.008000 0.010000
v 0.031000 -0.010000 0.012000
v 0.031000 -0.010765 0.011848
v 0.031000 -0.009235 0.011848
v 0.031000 -0.008152 0.010765
v 0.031000 -0.011848 0.010765
v 0.031000 -0.008586 0.011414
v 0.031000 -0.011414 0.011414
v 0.031000 -0.011848 0.009235
v 0.031000 -0.008152 0.009235
v 0.031000 -0.010000 0.008000
v 0.031000 -0.009235 0.008152
v 0.031000 -0.010765 0.008152
v 0.031000 -0.008586 0.008586
v 0.031000 -0.011414 0.008586
v 0.031000 -0.012000 0.010000
v 0.031000 -0.008000 0.010000
vn -0.0000 -0.0000 -1.0000
vn -1.0000 -0.0000 -0.0000
vn 1.0000 -0.0000 -0.0000
vn -0.0000 -0.0000 1.0000
vn -0.0000 -1.0000 -0.0000
vn -0.0000 1.0000 -0.0000
vn -0.0000 0.1948 0.9809
vn -0.0000 0.5562 0.8311
vn -0.0000 0.8311 0.5562
vn -0.0000 0.9809 0.1948
vn -0.0000 0.9809 -0.1948
vn -0.0000 0.8311 -0.5562
vn -0.0000 0.5562 -0.8311
vn -0.0000 0.1948 -0.9809
vn -0.0000 -0.1948 -0.9809
vn -0.0000 -0.5562 -0.8311
vn -0.0000 -0.8311 -0.5562
vn -0.0000 -0.9809 -0.1948
vn -0.0000 -0.9809 0.1948
vn -0.0000 -0.8311 0.5562
vn -0.0001 -0.5559 0.8312
vn -0.0000 -0.1948 0.9809
vn -0.0000 -0.5562 0.8311
vn -0.1949 -0.0000 0.9808
vn -0.5559 -0.0000 0.8313
vn -0.8313 -0.0000 0.5559
vn -0.9808 -0.0000 0.1949
vn -0.9808 -0.0000 -0.1949
vn -0.8313 -0.0000 -0.5559
vn -0.5559 -0.0000 -0.8313
vn -0.1949 -0.0000 -0.9808
vn 0.1949 -0.0000 -0.9808
vn 0.5559 -0.0000 -0.8313
vn 0.8313 -0.0000 -0.5559
vn 0.9808 -0.0000 -0.1949
vn 0.9808 -0.0000 0.1949
vn 0.8313 -0.0000 0.5559
vn 0.5559 -0.0000 0.8313
vn 0.1949 -0.0000 0.9808
vn -0.0000 0.1949 0.9808
vn -0.0000 0.5559 0.8313
vn -0.0000 0.8313 0.5559
vn -0.0000 0.9808 0.1949
vn -0.0000 0.9808 -0.1949
vn -0.0000 0.8313 -0.5559
vn -0.0000 0.5559 -0.8313
vn -0.0000 0.1949 -0.9808
vn -0.0017 -0.1863 -0.9825
vn 0.0166 -0.6246 -0.7808
vn -0.0000 -0.8313 -0.5559
vn -0.0000 -0.9808 -0.1949
vn -0.0000 -0.9808 0.1949
vn -0.0000 -0.8313 0.5559
vn -0.0000 -0.5559 0.8313
vn -0.0000 -0.1949 0.9808
vn -0.0000 -0.1949 -0.9808
vn -0.0000 -0.5559 -0.8313
vn 1.0000 -0.0000 0.0002
vn 1.0000 -0.0000 0.0001
vn 1.0000 -0.0000 0.0063
vn -0.0000 -0.5574 0.8303
vn -1.0000 -0.0000 -0.0063
vn -0.0000 -0.1956 -0.9807
vn -0.0000 -0.5553 -0.8317
s 0
usemtl BracketMetal
f 19//1 10//1 4//1
f 1//2 11//2 7//2
f 31//1 27//1 19//1
f 26//1 31//1 30//1
f 31//1 19//1 4//1
f 7//1 21//1 18//1
f 26//1 27//1 31//1
f 10//3 17//3 8//3
f 1//2 3//2 11//2
f 32//4 29//4 8//4
f 17//4 28//4 32//4
f 24//4 23//4 25//4
f 25//4 3//4 14//4
f 1//5 7//5 101//5
f 112//5 110//5 142//5
f 143//5 141//5 18//5
f 8//5 172//5 177//5
f 149//6 150//6 22//6
f 26//6 189//6 194//6
f 126//6 128//6 159//6
f 21//6 22//6 117//6
f 37//2 13//2 48//2
f 212//2 11//2 245//2
f 3//2 6//2 231//2
f 13//2 11//2 206//2
f 11//1 20//1 21//1
f 224//3 61//3 225//3
f 56//3 51//3 16//3
f 16//3 22//3 247//3
f 59//3 16//3 65//3
f 23//4 16//4 3//4
f 20//6 6//6 16//6
f 72//2 5//2 82//2
f 312//2 83//2 74//2
f 29//2 2//2 297//2
f 5//2 26//2 272//2
f 27//1 5//1 19//1
f 95//3 291//3 290//3
f 90//3 85//3 9//3
f 9//3 17//3 313//3
f 93//3 9//3 99//3
f 28//4 9//4 29//4
f 12//6 2//6 9//6
f 42//7 61//7 60//7
f 43//8 63//8 61//8
f 46//9 58//9 63//9
f 40//10 66//10 58//10
f 49//11 54//11 66//11
f 36//12 56//12 54//12
f 34//13 56//13 38//13
f 33//14 51//14 34//14
f 35//15 50//15 33//15
f 53//16 39//16 57//16
f 37//17 57//17 39//17
f 48//18 55//18 37//18
f 41//19 65//19 48//19
f 47//20 59//20 41//20
f 64//21 44//21 45//21
f 45//22 60//22 62//22
f 76//7 95//7 94//7
f 78//8 97//8 95//8
f 81//9 92//9 97//9
f 74//10 100//10 92//10
f 83//11 88//11 100//11
f 70//12 90//12 88//12
f 68//13 90//13 71//13
f 67//14 85//14 68//14
f 69//15 84//15 67//15
f 87//16 73//16 91//16
f 72//17 91//17 73//17
f 82//18 89//18 72//18
f 75//19 99//19 82//19
f 80//20 93//20 75//20
f 80//23 77//23 96//23
f 77//22 94//22 96//22
f 132//24 109//24 125//24
f 125//25 113//25 129//25
f 113//26 127//26 129//26
f 111//27 126//27 127//27
f 110//28 128//28 126//28
f 112//29 130//29 128//29
f 114//30 124//30 130//30
f 108//31 131//31 124//31
f 115//32 121//32 131//32
f 104//33 123//33 121//33
f 123//34 102//34 118//34
f 118//35 101//35 117//35
f 117//36 103//36 119//36
f 119//37 107//37 122//37
f 122//38 106//38 120//38
f 120//39 116//39 132//39
f 163//24 135//24 161//24
f 161//25 140//25 162//25
f 140//26 154//26 162//26
f 138//27 153//27 154//27
f 137//28 156//28 153//28
f 139//29 155//29 156//29
f 146//30 151//30 155//30
f 145//31 152//31 151//31
f 147//32 149//32 152//32
f 144//33 150//33 149//33
f 150//34 142//34 158//34
f 158//35 141//35 157//35
f 157//36 143//36 159//36
f 159//37 133//37 164//37
f 164//38 134//38 160//38
f 160//39 136//39 163//39
f 195//24 173//24 189//24
f 189//25 178//25 194//25
f 178//26 192//26 194//26
f 176//27 190//27 192//27
f 174//28 191//28 190//28
f 175//29 193//29 191//29
f 177//30 188//30 193//30
f 172//31 196//31 188//31
f 180//32 184//32 196//32
f 168//33 186//33 184//33
f 186//34 166//34 182//34
f 182//35 165//35 181//35
f 181//36 167//36 183//36
f 183//37 171//37 187//37
f 187//38 169//38 185//38
f 185//39 179//39 195//39
f 206//40 223//40 220//40
f 207//41 222//41 223//41
f 209//42 216//42 222//42
f 204//43 226//43 216//43
f 212//44 230//44 226//44
f 200//45 229//45 230//45
f 198//46 229//46 202//46
f 197//47 227//47 198//47
f 225//48 197//48 224//48
f 213//49 199//49 214//49
f 201//50 214//50 203//50
f 211//51 215//51 201//51
f 205//52 217//52 211//52
f 210//53 218//53 205//53
f 210//54 221//54 219//54
f 208//55 220//55 221//55
f 240//40 258//40 256//40
f 242//41 260//41 258//41
f 244//42 254//42 260//42
f 238//43 261//43 254//43
f 245//44 251//44 261//44
f 234//45 253//45 251//45
f 232//46 253//46 235//46
f 231//47 248//47 232//47
f 233//56 247//56 231//56
f 237//57 249//57 233//57
f 236//50 252//50 237//50
f 246//51 250//51 236//51
f 239//52 262//52 246//52
f 243//53 255//53 239//53
f 243//54 257//54 259//54
f 241//55 256//55 257//55
f 272//40 289//40 286//40
f 273//41 288//41 289//41
f 275//42 282//42 288//42
f 270//43 292//43 282//43
f 278//44 296//44 292//44
f 266//45 295//45 296//45
f 264//46 295//46 268//46
f 263//47 293//47 264//47
f 291//48 263//48 290//48
f 279//49 265//49 280//49
f 267//50 280//50 269//50
f 277//51 281//51 267//51
f 271//52 283//52 277//52
f 276//53 284//53 271//53
f 276//54 287//54 285//54
f 274//55 286//55 287//55
f 306//40 324//40 322//40
f 308//41 326//41 324//41
f 310//42 320//42 326//42
f 304//43 327//43 320//43
f 311//44 317//44 327//44
f 300//45 319//45 317//45
f 298//46 319//46 301//46
f 297//47 314//47 298//47
f 299//56 313//56 297//56
f 303//57 315//57 299//57
f 302//50 318//50 303//50
f 312//51 316//51 302//51
f 305//52 328//52 312//52
f 309//53 321//53 305//53
f 309//54 323//54 325//54
f 307//55 322//55 323//55
f 30//1 18//1 26//1
f 29//4 24//4 14//4
f 4//1 30//1 31//1
f 7//1 11//1 21//1
f 10//3 19//3 17//3
f 32//4 28//4 29//4
f 29//4 15//4 8//4
f 8//4 17//4 32//4
f 24//4 22//4 23//4
f 25//4 23//4 3//4
f 3//4 1//4 14//4
f 14//4 24//4 25//4
f 105//5 104//5 1//5
f 7//5 106//5 107//5
f 7//5 107//5 103//5
f 102//5 105//5 1//5
f 7//5 103//5 101//5
f 101//5 102//5 1//5
f 146//5 139//5 8//5
f 146//5 8//5 15//5
f 145//5 146//5 15//5
f 14//5 1//5 104//5
f 145//5 15//5 14//5
f 147//5 145//5 14//5
f 14//5 104//5 115//5
f 14//5 115//5 108//5
f 144//5 147//5 14//5
f 148//5 144//5 14//5
f 14//5 108//5 114//5
f 14//5 114//5 112//5
f 142//5 148//5 14//5
f 113//5 141//5 142//5
f 111//5 113//5 142//5
f 142//5 14//5 112//5
f 110//5 111//5 142//5
f 167//5 165//5 139//5
f 167//5 139//5 137//5
f 171//5 167//5 137//5
f 171//5 137//5 138//5
f 169//5 171//5 138//5
f 169//5 138//5 140//5
f 10//5 173//5 179//5
f 179//5 169//5 140//5
f 179//5 140//5 135//5
f 4//5 10//5 179//5
f 106//5 7//5 18//5
f 18//5 4//5 179//5
f 179//5 135//5 136//5
f 18//5 179//5 136//5
f 116//5 106//5 18//5
f 141//5 113//5 109//5
f 109//5 116//5 18//5
f 18//5 136//5 134//5
f 18//5 134//5 133//5
f 141//5 109//5 18//5
f 18//5 133//5 143//5
f 178//5 173//5 10//5
f 139//5 165//5 166//5
f 139//5 166//5 170//5
f 176//5 178//5 10//5
f 174//5 176//5 10//5
f 8//5 139//5 170//5
f 8//5 170//5 168//5
f 174//5 10//5 8//5
f 175//5 174//5 8//5
f 8//5 168//5 180//5
f 8//5 180//5 172//5
f 177//5 175//5 8//5
f 182//6 181//6 162//6
f 182//6 162//6 154//6
f 186//6 182//6 154//6
f 186//6 154//6 153//6
f 184//6 186//6 153//6
f 184//6 153//6 156//6
f 29//6 188//6 196//6
f 196//6 184//6 156//6
f 196//6 156//6 155//6
f 22//6 29//6 196//6
f 131//6 121//6 22//6
f 157//6 130//6 124//6
f 124//6 131//6 22//6
f 196//6 155//6 151//6
f 196//6 151//6 152//6
f 157//6 124//6 22//6
f 158//6 157//6 22//6
f 22//6 196//6 152//6
f 22//6 152//6 149//6
f 150//6 158//6 22//6
f 193//6 188//6 29//6
f 162//6 181//6 183//6
f 162//6 183//6 187//6
f 191//6 193//6 29//6
f 190//6 191//6 29//6
f 26//6 162//6 187//6
f 26//6 187//6 185//6
f 190//6 29//6 26//6
f 192//6 190//6 26//6
f 26//6 185//6 195//6
f 26//6 195//6 189//6
f 194//6 192//6 26//6
f 161//6 162//6 26//6
f 26//6 21//6 120//6
f 26//6 120//6 132//6
f 163//6 161//6 26//6
f 160//6 163//6 26//6
f 26//6 132//6 125//6
f 26//6 125//6 129//6
f 160//6 26//6 129//6
f 160//6 129//6 127//6
f 164//6 160//6 127//6
f 164//6 127//6 126//6
f 130//6 157//6 159//6
f 159//6 164//6 126//6
f 128//6 130//6 159//6
f 122//6 120//6 21//6
f 22//6 121//6 123//6
f 22//6 123//6 118//6
f 119//6 122//6 21//6
f 22//6 118//6 117//6
f 117//6 119//6 21//6
f 37//2 39//2 6//2
f 13//2 44//2 47//2
f 13//2 47//2 41//2
f 37//2 6//2 13//2
f 13//2 41//2 48//2
f 246//2 236//2 6//2
f 6//2 39//2 35//2
f 6//2 35//2 33//2
f 239//2 246//2 6//2
f 243//2 239//2 6//2
f 6//2 33//2 34//2
f 6//2 34//2 38//2
f 241//2 243//2 6//2
f 241//2 6//2 38//2
f 241//2 38//2 36//2
f 240//2 241//2 36//2
f 240//2 36//2 49//2
f 242//2 240//2 49//2
f 242//2 49//2 40//2
f 244//2 242//2 40//2
f 244//2 40//2 46//2
f 45//2 44//2 13//2
f 13//2 205//2 211//2
f 13//2 211//2 201//2
f 42//2 45//2 13//2
f 43//2 42//2 13//2
f 13//2 201//2 203//2
f 13//2 203//2 199//2
f 46//2 43//2 13//2
f 46//2 13//2 199//2
f 46//2 199//2 197//2
f 244//2 46//2 197//2
f 244//2 197//2 198//2
f 238//2 244//2 198//2
f 238//2 198//2 202//2
f 3//2 234//2 245//2
f 245//2 238//2 202//2
f 245//2 202//2 200//2
f 11//2 3//2 245//2
f 212//2 204//2 11//2
f 245//2 200//2 212//2
f 235//2 234//2 3//2
f 6//2 236//2 237//2
f 6//2 237//2 233//2
f 232//2 235//2 3//2
f 6//2 233//2 231//2
f 231//2 232//2 3//2
f 210//2 205//2 13//2
f 11//2 204//2 209//2
f 11//2 209//2 207//2
f 208//2 210//2 13//2
f 11//2 207//2 206//2
f 206//2 208//2 13//2
f 11//1 13//1 20//1
f 224//3 213//3 61//3
f 61//3 63//3 225//3
f 228//3 225//3 63//3
f 228//3 63//3 58//3
f 227//3 228//3 58//3
f 227//3 58//3 66//3
f 229//3 227//3 66//3
f 229//3 66//3 54//3
f 229//3 54//3 56//3
f 61//58 213//58 214//58
f 60//3 61//3 214//3
f 60//3 214//3 215//3
f 20//3 64//3 62//3
f 62//3 60//3 215//3
f 62//3 215//3 217//3
f 251//3 22//3 21//3
f 261//3 251//3 21//3
f 20//3 62//3 217//3
f 20//3 217//3 218//3
f 254//3 261//3 21//3
f 260//3 254//3 21//3
f 20//3 218//3 219//3
f 20//3 219//3 221//3
f 258//3 260//3 21//3
f 256//3 258//3 21//3
f 21//3 20//3 221//3
f 21//3 221//3 220//3
f 257//3 256//3 21//3
f 259//3 257//3 21//3
f 21//3 220//3 223//3
f 21//3 223//3 222//3
f 21//3 222//3 216//3
f 21//3 216//3 226//3
f 259//3 21//3 226//3
f 259//3 226//3 230//3
f 255//3 259//3 230//3
f 255//3 230//3 229//3
f 16//3 250//3 262//3
f 262//3 255//3 229//3
f 262//3 229//3 56//3
f 53//3 52//3 16//3
f 50//3 53//3 16//3
f 16//3 262//3 56//3
f 51//3 50//3 16//3
f 252//3 250//3 16//3
f 22//3 251//3 253//3
f 22//3 253//3 248//3
f 249//3 252//3 16//3
f 22//3 248//3 247//3
f 247//3 249//3 16//3
f 59//3 64//3 20//3
f 16//3 52//3 57//3
f 16//3 57//3 55//3
f 59//3 20//3 16//3
f 16//3 55//3 65//3
f 23//4 22//4 16//4
f 16//4 6//4 3//4
f 20//6 13//6 6//6
f 72//2 73//2 2//2
f 5//2 79//2 80//2
f 5//2 80//2 75//2
f 72//2 2//2 5//2
f 5//2 75//2 82//2
f 278//2 270//2 26//2
f 26//2 29//2 300//2
f 26//2 300//2 311//2
f 266//2 278//2 26//2
f 268//2 266//2 26//2
f 26//2 311//2 304//2
f 26//2 304//2 310//2
f 264//2 268//2 26//2
f 264//2 26//2 310//2
f 264//2 310//2 308//2
f 263//2 264//2 308//2
f 263//2 308//2 306//2
f 265//2 263//2 306//2
f 265//2 306//2 307//2
f 269//2 265//2 307//2
f 269//2 307//2 309//2
f 267//2 269//2 309//2
f 267//2 309//2 305//2
f 5//2 271//2 277//2
f 277//2 267//2 305//2
f 312//2 302//2 2//2
f 277//2 305//2 312//2
f 77//2 79//2 5//2
f 76//2 77//2 5//2
f 2//2 73//2 69//2
f 2//2 69//2 67//2
f 76//2 5//2 277//2
f 78//2 76//2 277//2
f 312//2 2//2 67//2
f 312//2 67//2 68//2
f 81//2 78//2 277//2
f 74//2 81//2 277//2
f 312//2 68//2 71//2
f 312//2 71//2 70//2
f 74//2 277//2 312//2
f 312//2 70//2 83//2
f 301//2 300//2 29//2
f 2//2 302//2 303//2
f 2//2 303//2 299//2
f 298//2 301//2 29//2
f 2//2 299//2 297//2
f 297//2 298//2 29//2
f 276//2 271//2 5//2
f 26//2 270//2 275//2
f 26//2 275//2 273//2
f 274//2 276//2 5//2
f 26//2 273//2 272//2
f 272//2 274//2 5//2
f 27//1 26//1 5//1
f 5//1 12//1 19//1
f 290//3 279//3 95//3
f 95//3 97//3 291//3
f 294//3 291//3 97//3
f 294//3 97//3 92//3
f 293//3 294//3 92//3
f 293//3 92//3 100//3
f 295//3 293//3 100//3
f 295//3 100//3 88//3
f 295//3 88//3 90//3
f 95//59 279//59 280//59
f 94//3 95//3 280//3
f 94//3 280//3 281//3
f 12//3 98//3 96//3
f 96//3 94//3 281//3
f 96//3 281//3 283//3
f 317//3 17//3 19//3
f 327//3 317//3 19//3
f 12//3 96//3 283//3
f 12//3 283//3 284//3
f 320//3 327//3 19//3
f 326//3 320//3 19//3
f 12//3 284//3 285//3
f 12//3 285//3 287//3
f 324//3 326//3 19//3
f 322//3 324//3 19//3
f 19//3 12//3 287//3
f 19//3 287//3 286//3
f 323//3 322//3 19//3
f 325//3 323//3 19//3
f 19//3 286//3 289//3
f 19//3 289//3 288//3
f 19//3 288//3 282//3
f 19//3 282//3 292//3
f 325//3 19//3 292//3
f 325//3 292//3 296//3
f 321//3 325//3 296//3
f 321//3 296//3 295//3
f 9//3 316//3 328//3
f 328//59 321//59 295//59
f 328//3 295//3 90//3
f 87//3 86//3 9//3
f 84//3 87//3 9//3
f 9//3 328//3 90//3
f 85//3 84//3 9//3
f 318//3 316//3 9//3
f 17//3 317//3 319//3
f 17//3 319//3 314//3
f 315//3 318//3 9//3
f 17//3 314//3 313//3
f 313//3 315//3 9//3
f 93//3 98//3 12//3
f 9//3 86//3 91//3
f 9//3 91//3 89//3
f 93//3 12//3 9//3
f 9//3 89//3 99//3
f 28//4 17//4 9//4
f 9//4 2//4 29//4
f 12//6 5//6 2//6
f 42//7 43//7 61//7
f 43//8 46//8 63//8
f 46//9 40//9 58//9
f 40//10 49//10 66//10
f 49//11 36//11 54//11
f 36//12 38//12 56//12
f 34//13 51//13 56//13
f 33//14 50//14 51//14
f 35//15 53//15 50//15
f 57//60 52//60 53//60
f 53//16 35//16 39//16
f 37//17 55//17 57//17
f 48//18 65//18 55//18
f 41//19 59//19 65//19
f 47//20 64//20 59//20
f 45//23 62//23 64//23
f 64//61 47//61 44//61
f 45//22 42//22 60//22
f 76//7 78//7 95//7
f 78//8 81//8 97//8
f 81//9 74//9 92//9
f 74//10 83//10 100//10
f 83//11 70//11 88//11
f 70//12 71//12 90//12
f 68//13 85//13 90//13
f 67//14 84//14 85//14
f 69//15 87//15 84//15
f 91//3 86//3 87//3
f 87//16 69//16 73//16
f 72//17 89//17 91//17
f 82//18 99//18 89//18
f 75//19 93//19 99//19
f 80//20 98//20 93//20
f 96//23 98//23 80//23
f 80//62 79//62 77//62
f 77//22 76//22 94//22
f 132//24 116//24 109//24
f 125//25 109//25 113//25
f 113//26 111//26 127//26
f 111//27 110//27 126//27
f 110//28 112//28 128//28
f 112//29 114//29 130//29
f 114//30 108//30 124//30
f 108//31 115//31 131//31
f 115//32 104//32 121//32
f 104//33 105//33 123//33
f 123//34 105//34 102//34
f 118//35 102//35 101//35
f 117//36 101//36 103//36
f 119//37 103//37 107//37
f 122//38 107//38 106//38
f 120//39 106//39 116//39
f 163//24 136//24 135//24
f 161//25 135//25 140//25
f 140//26 138//26 154//26
f 138//27 137//27 153//27
f 137//28 139//28 156//28
f 139//29 146//29 155//29
f 146//30 145//30 151//30
f 145//31 147//31 152//31
f 147//32 144//32 149//32
f 144//33 148//33 150//33
f 150//34 148//34 142//34
f 158//35 142//35 141//35
f 157//36 141//36 143//36
f 159//37 143//37 133//37
f 164//38 133//38 134//38
f 160//39 134//39 136//39
f 195//24 179//24 173//24
f 189//25 173//25 178//25
f 178//26 176//26 192//26
f 176//27 174//27 190//27
f 174//28 175//28 191//28
f 175//29 177//29 193//29
f 177//30 172//30 188//30
f 172//31 180//31 196//31
f 180//32 168//32 184//32
f 168//33 170//33 186//33
f 186//34 170//34 166//34
f 182//35 166//35 165//35
f 181//36 165//36 167//36
f 183//37 167//37 171//37
f 187//38 171//38 169//38
f 185//39 169//39 179//39
f 206//40 207//40 223//40
f 207//41 209//41 222//41
f 209//42 204//42 216//42
f 204//43 212//43 226//43
f 212//44 200//44 230//44
f 200//45 202//45 229//45
f 198//46 227//46 229//46
f 197//47 228//47 227//47
f 225//63 228//63 197//63
f 197//56 199//56 224//56
f 213//64 224//64 199//64
f 199//57 203//57 214//57
f 201//50 215//50 214//50
f 211//51 217//51 215//51
f 205//52 218//52 217//52
f 210//53 219//53 218//53
f 210//54 208//54 221//54
f 208//55 206//55 220//55
f 240//40 242//40 258//40
f 242//41 244//41 260//41
f 244//42 238//42 254//42
f 238//43 245//43 261//43
f 245//44 234//44 251//44
f 234//45 235//45 253//45
f 232//46 248//46 253//46
f 231//47 247//47 248//47
f 233//56 249//56 247//56
f 237//57 252//57 249//57
f 236//50 250//50 252//50
f 246//51 262//51 250//51
f 239//52 255//52 262//52
f 243//53 259//53 255//53
f 243//54 241//54 257//54
f 241//55 240//55 256//55
f 272//40 273//40 289//40
f 273//41 275//41 288//41
f 275//42 270//42 282//42
f 270//43 278//43 292//43
f 278//44 266//44 296//44
f 266//45 268//45 295//45
f 264//46 293//46 295//46
f 263//47 294//47 293//47
f 291//63 294//63 263//63
f 263//56 265//56 290//56
f 279//64 290//64 265//64
f 265//57 269//57 280//57
f 267//50 281//50 280//50
f 277//51 283//51 281//51
f 271//52 284//52 283//52
f 276//53 285//53 284//53
f 276//54 274//54 287//54
f 274//55 272//55 286//55
f 306//40 308//40 324//40
f 308//41 310//41 326//41
f 310//42 304//42 320//42
f 304//43 311//43 327//43
f 311//44 300//44 317//44
f 300//45 301//45 319//45
f 298//46 314//46 319//46
f 297//47 313//47 314//47
f 299//56 315//56 313//56
f 303//57 318//57 315//57
f 302//50 316//50 318//50
f 312//51 328//51 316//51
f 305//52 321//52 328//52
f 309//53 325//53 321//53
f 309//54 307//54 323//54
f 307//55 306//55 322//55
f 30//1 4//1 18//1
f 18//1 21//1 26//1
f 14//4 15//4 29//4
f 29//4 22//4 24//4
