# Blender 5.2.1 LTS
# www.blender.org
mtllib kit_plate_60_40.mtl
o kit_plate_60_40
v -0.030000 -0.020000 0.002000
v -0.030000 0.020000 0.002000
v -0.030000 -0.020000 -0.002000
v -0.030000 0.020000 -0.002000
v 0.030000 -0.020000 0.002000
v 0.030000 0.020000 0.002000
v 0.030000 -0.020000 -0.002000
v 0.030000 0.020000 -0.002000
v -0.022000 -0.010000 -0.002000
v -0.021848 -0.010765 -0.002000
v -0.021848 -0.009235 -0.002000
v -0.020765 -0.011848 -0.002000
v -0.021414 -0.011414 -0.002000
v -0.020765 -0.008152 -0.002000
v -0.021414 -0.008586 -0.002000
v -0.019235 -0.011848 -0.002000
v -0.019235 -0.008152 -0.002000
v -0.018000 -0.010000 -0.002000
v -0.018152 -0.009235 -0.002000
v -0.018152 -0.010765 -0.002000
v -0.018586 -0.008586 -0.002000
v -0.018586 -0.011414 -0.002000
v -0.020000 -0.012000 -0.002000
v -0.020000 -0.008000 -0.002000
v -0.022000 -0.010000 0.002000
v -0.021848 -0.010765 0.002000
v -0.021848 -0.009235 0.002000
v -0.020765 -0.008152 0.002000
v -0.020765 -0.011848 0.002000
v -0.021414 -0.008586 0.002000
v -0.021414 -0.011414 0.002000
v -0.019235 -0.011848 0.002000
v -0.019235 -0.008152 0.002000
v -0.018000 -0.010000 0.002000
v -0.018152 -0.009235 0.002000
v -0.018152 -0.010765 0.002000
v -0.018586 -0.008586 0.002000
v -0.018586 -0.011414 0.002000
v -0.020000 -0.012000 0.002000
v -0.020000 -0.008000 0.002000
v -0.022000 0.010000 -0.002000
v -0.021848 0.009235 -0.002000
v -0.021848 0.010765 -0.002000
v -0.020765 0.008152 -0.002000
v -0.020765 0.011848 -0.002000
v -0.021414 0.008586 -0.002000
v -0.021414 0.011414 -0.002000
v -0.018586 0.008586 -0.002000
v -0.019235 0.008152 -0.002000
v -0.019235 0.011848 -0.002000
v -0.018000 0.010000 -0.002000
v -0.018152 0.010765 -0.002000
v -0.018152 0.009235 -0.002000
v -0.018586 0.011414 -0.002000
v -0.020000 0.008000 -0.002000
v -0.020000 0.012000 -0.002000
v -0.022000 0.010000 0.002000
v -0.021848 0.009235 0.002000
v -0.021848 0.010765 0.002000
v -0.020765 0.008152 0.002000
v -0.021414 0.008586 0.002000
v -0.020765 0.011848 0.002000
v -0.021414 0.011414 0.002000
v -0.019235 0.008152 0.002000
v -0.019235 0.011848 0.002000
v -0.018000 0.010000 0.002000
v -0.018152 0.010765 0.002000
v -0.018152 0.009235 0.002000
v -0.018586 0.011414 0.002000
v -0.018586 0.008586 0.002000
v -0.020000 0.008000 0.002000
v -0.020000 0.012000 0.002000
v -0.002000 -0.010000 -0.002000
v -0.001848 -0.010765 -0.002000
v -0.001848 -0.009235 -0.002000
v -0.000765 -0.011848 -0.002000
v -0.001414 -0.011414 -0.002000
v -0.000765 -0.008152 -0.002000
v -0.001414 -0.008586 -0.002000
v 0.000765 -0.011848 -0.002000
v 0.000765 -0.008152 -0.002000
v 0.002000 -0.010000 -0.002000
v 0.001848 -0.009235 -0.002000
v 0.001848 -0.010765 -0.002000
v 0.001414 -0.008586 -0.002000
v 0.000000 -0.012000 -0.002000
v 0.001414 -0.011414 -0.002000
v 0.000000 -0.008000 -0.002000
v -0.002000 -0.010000 0.002000
v -0.001848 -0.010765 0.002000
v -0.001848 -0.009235 0.002000
v -0.000765 -0.011848 0.002000
v -0.000765 -0.008152 0.002000
v 0.000000 -0.012000 0.002000
v -0.001414 -0.011414 0.002000
v -0.001414 -0.008586 0.002000
v 0.000765 -0.011848 0.002000
v 0.000765 -0.008152 0.002000
v 0.002000 -0.010000 0.002000
v 0.001848 -0.010765 0.002000
v 0.001848 -0.009235 0.002000
v 0.001414 -0.011414 0.002000
v 0.001414 -0.008586 0.002000
v 0.000000 -0.008000 0.002000
v -0.002000 0.010000 -0.002000
v -0.001848 0.009235 -0.002000
v -0.001848 0.010765 -0.002000
v -0.000765 0.008152 -0.002000
v -0.000765 0.011848 -0.002000
v -0.001414 0.008586 -0.002000
v -0.001414 0.011414 -0.002000
v 0.000765 0.008152 -0.002000
v 0.000765 0.011848 -0.002000
v 0.002000 0.010000 -0.002000
v 0.001848 0.009235 -0.002000
v 0.001848 0.010765 -0.002000
v 0.001414 0.008586 -0.002000
v 0.001414 0.011414 -0.002000
v 0.000000 0.012000 -0.002000
v 0.000000 0.008000 -0.002000
v -0.002000 0.010000 0.002000
v -0.001848 0.009235 0.002000
v -0.001848 0.010765 0.002000
v -0.000765 0.008152 0.002000
v -0.000765 0.011848 0.002000
v -0.001414 0.008586 0.002000
v -0.001414 0.011414 0.002000
v 0.000765 0.008152 0.002000
v 0.000765 0.011848 0.002000
v 0.002000 0.010000 0.002000
v 0.001848 0.009235 0.002000
v 0.001848 0.010765 0.002000
v 0.001414 0.008586 0.002000
v 0.001414 0.011414 0.002000
v 0.000000 0.012000 0.002000
v 0.000000 0.008000 0.002000
v 0.019235 -0.008152 -0.002000
v 0.020765 -0.008152 -0.002000
v 0.020000 -0.008000 -0.002000
v 0.022000 -0.010000 -0.002000
v 0.021848 -0.010765 -0.002000
v 0.021848 -0.009235 -0.002000
v 0.021414 -0.008586 -0.002000
v 0.018000 -0.010000 -0.002000
v 0.018586 -0.011414 -0.002000
v 0.018152 -0.010765 -0.002000
v 0.018152 -0.009235 -0.002000
v 0.018586 -0.008586 -0.002000
v 0.019235 -0.011848 -0.002000
v 0.020765 -0.011848 -0.002000
v 0.021414 -0.011414 -0.002000
v 0.020000 -0.012000 -0.002000
v 0.018000 -0.010000 0.002000
v 0.018152 -0.010765 0.002000
v 0.018152 -0.009235 0.002000
v 0.019235 -0.011848 0.002000
v 0.019235 -0.008152 0.002000
v 0.018586 -0.011414 0.002000
v 0.018586 -0.008586 0.002000
v 0.020765 -0.011848 0.002000
v 0.020765 -0.008152 0.002000
v 0.022000 -0.010000 0.002000
v 0.021848 -0.010765 0.002000
v 0.021848 -0.009235 0.002000
v 0.021414 -0.011414 0.002000
v 0.021414 -0.008586 0.002000
v 0.020000 -0.008000 0.002000
v 0.020000 -0.012000 0.002000
v 0.018000 0.010000 -0.002000
v 0.018586 0.008586 -0.002000
v 0.018152 0.009235 -0.002000
v 0.018152 0.010765 -0.002000
v 0.018586 0.011414 -0.002000
v 0.019235 0.011848 -0.002000
v 0.020765 0.011848 -0.002000
v 0.021414 0.011414 -0.002000
v 0.020000 0.012000 -0.002000
v 0.019235 0.008152 -0.002000
v 0.020765 0.008152 -0.002000
v 0.020000 0.008000 -0.002000
v 0.022000 0.010000 -0.002000
v 0.021848 0.010765 -0.002000
v 0.021848 0.009235 -0.002000
v 0.021414 0.008586 -0.002000
v 0.018000 0.010000 0.002000
v 0.018152 0.009235 0.002000
v 0.018152 0.010765 0.002000
v 0.019235 0.008152 0.002000
v 0.019235 0.011848 0.002000
v 0.018586 0.008586 0.002000
v 0.018586 0.011414 0.002000
v 0.021414 0.008586 0.002000
v 0.020765 0.008152 0.002000
v 0.020765 0.011848 0.002000
v 0.022000 0.010000 0.002000
v 0.021848 0.010765 0.002000
v 0.021848 0.009235 0.002000
v 0.021414 0.011414 0.002000
v 0.020000 0.012000 0.002000
v 0.020000 0.008000 0.002000
vn -1.0000 -0.0000 -0.0000
vn -0.0000 -0.0000 -1.0000
vn 1.0000 -0.0000 -0.0000
vn -0.0000 -0.0000 1.0000
vn -0.0000 -1.0000 -0.0000
vn -0.0000 1.0000 -0.0000
vn -0.1949 -0.9808 -0.0000
vn -0.5559 -0.8313 -0.0000
vn -0.8313 -0.5559 -0.0000
vn -0.9808 -0.1949 -0.0000
vn -0.9808 0.1949 -0.0000
vn -0.8313 0.5559 -0.0000
vn -0.5559 0.8313 -0.0000
vn -0.1949 0.9808 -0.0000
vn 0.1949 0.9808 -0.0000
vn 0.5559 0.8313 -0.0000
vn 0.8313 0.5559 -0.0000
vn 0.9808 0.1949 -0.0000
vn 0.9808 -0.1949 -0.0000
vn 0.8313 -0.5559 -0.0000
vn 0.5559 -0.8313 -0.0000
vn 0.1949 -0.9808 -0.0000
s 0
usemtl ChassisMetal
f 1//1 4//1 3//1
f 10//2 4//2 9//2
f 114//2 8//2 174//2
f 54//2 50//2 105//2
f 7//2 18//2 86//2
f 4//2 8//2 119//2
f 75//2 19//2 55//2
f 24//2 4//2 41//2
f 7//3 6//3 5//3
f 99//4 5//4 156//4
f 192//4 193//4 166//4
f 33//4 37//4 89//4
f 6//4 2//4 135//4
f 1//4 5//4 94//4
f 2//4 28//4 58//4
f 30//4 1//4 27//4
f 3//5 5//5 1//5
f 8//6 2//6 6//6
f 24//7 33//7 40//7
f 17//8 37//8 33//8
f 37//9 19//9 35//9
f 35//10 18//10 34//10
f 34//11 20//11 36//11
f 36//12 22//12 38//12
f 38//13 16//13 32//13
f 32//14 23//14 39//14
f 39//15 12//15 29//15
f 29//16 13//16 31//16
f 13//17 26//17 31//17
f 10//18 25//18 26//18
f 9//19 27//19 25//19
f 11//20 30//20 27//20
f 15//21 28//21 30//21
f 14//22 40//22 28//22
f 56//7 65//7 72//7
f 50//8 69//8 65//8
f 69//9 52//9 67//9
f 67//10 51//10 66//10
f 66//11 53//11 68//11
f 68//12 48//12 70//12
f 70//13 49//13 64//13
f 64//14 55//14 71//14
f 71//15 44//15 60//15
f 60//16 46//16 61//16
f 46//17 58//17 61//17
f 42//18 57//18 58//18
f 41//19 59//19 57//19
f 43//20 63//20 59//20
f 47//21 62//21 63//21
f 45//22 72//22 62//22
f 88//7 98//7 104//7
f 81//8 103//8 98//8
f 103//9 83//9 101//9
f 101//10 82//10 99//10
f 99//11 84//11 100//11
f 100//12 87//12 102//12
f 102//13 80//13 97//13
f 97//14 86//14 94//14
f 94//15 76//15 92//15
f 92//16 77//16 95//16
f 77//17 90//17 95//17
f 74//18 89//18 90//18
f 73//19 91//19 89//19
f 75//20 96//20 91//20
f 79//21 93//21 96//21
f 78//22 104//22 93//22
f 119//7 129//7 135//7
f 113//8 134//8 129//8
f 134//9 116//9 132//9
f 132//10 114//10 130//10
f 130//11 115//11 131//11
f 131//12 117//12 133//12
f 133//13 112//13 128//13
f 128//14 120//14 136//14
f 136//15 108//15 124//15
f 124//16 110//16 126//16
f 110//17 122//17 126//17
f 106//18 121//18 122//18
f 105//19 123//19 121//19
f 107//20 127//20 123//20
f 111//21 125//21 127//21
f 109//22 135//22 125//22
f 139//7 161//7 167//7
f 138//8 166//8 161//8
f 166//9 142//9 164//9
f 164//10 140//10 162//10
f 162//11 141//11 163//11
f 163//12 151//12 165//12
f 165//13 150//13 160//13
f 160//14 152//14 168//14
f 168//15 149//15 156//15
f 156//16 145//16 158//16
f 145//17 154//17 158//17
f 146//18 153//18 154//18
f 144//19 155//19 153//19
f 147//20 159//20 155//20
f 148//21 157//21 159//21
f 137//22 167//22 157//22
f 177//7 194//7 199//7
f 175//8 198//8 194//8
f 182//9 198//9 176//9
f 196//10 181//10 195//10
f 195//11 183//11 197//11
f 197//12 184//12 192//12
f 192//13 179//13 193//13
f 193//14 180//14 200//14
f 200//15 178//15 188//15
f 188//16 170//16 190//16
f 170//17 186//17 190//17
f 171//18 185//18 186//18
f 169//19 187//19 185//19
f 172//20 191//20 187//20
f 173//21 189//21 191//21
f 174//22 199//22 189//22
f 1//1 2//1 4//1
f 10//2 13//2 3//2
f 4//2 14//2 15//2
f 4//2 15//2 11//2
f 10//2 3//2 4//2
f 4//2 11//2 9//2
f 172//2 169//2 114//2
f 114//2 116//2 8//2
f 8//2 176//2 175//2
f 8//2 175//2 177//2
f 173//2 172//2 114//2
f 8//2 177//2 174//2
f 174//2 173//2 114//2
f 182//2 176//2 8//2
f 7//2 151//2 141//2
f 7//2 141//2 140//2
f 182//2 8//2 7//2
f 181//2 182//2 7//2
f 7//2 140//2 142//2
f 7//2 142//2 143//2
f 183//2 181//2 7//2
f 184//2 183//2 7//2
f 184//2 7//2 143//2
f 179//2 184//2 143//2
f 179//2 143//2 138//2
f 180//2 179//2 138//2
f 180//2 138//2 139//2
f 178//2 180//2 139//2
f 178//2 139//2 137//2
f 170//2 178//2 137//2
f 170//2 137//2 148//2
f 114//2 169//2 171//2
f 171//2 170//2 148//2
f 147//2 144//2 83//2
f 171//2 148//2 147//2
f 115//2 114//2 171//2
f 117//2 115//2 171//2
f 171//2 147//2 83//2
f 171//2 83//2 85//2
f 112//2 117//2 171//2
f 120//2 112//2 171//2
f 171//2 85//2 81//2
f 171//2 81//2 88//2
f 120//2 171//2 88//2
f 78//2 79//2 55//2
f 120//2 88//2 78//2
f 108//2 120//2 78//2
f 78//2 55//2 49//2
f 78//2 49//2 48//2
f 110//2 108//2 78//2
f 106//2 110//2 78//2
f 78//2 48//2 53//2
f 78//2 53//2 51//2
f 105//2 106//2 78//2
f 4//2 107//2 105//2
f 45//2 47//2 4//2
f 56//2 45//2 4//2
f 105//2 78//2 51//2
f 105//2 51//2 52//2
f 56//2 4//2 105//2
f 50//2 56//2 105//2
f 105//2 52//2 54//2
f 150//2 151//2 7//2
f 3//2 13//2 12//2
f 3//2 12//2 23//2
f 152//2 150//2 7//2
f 149//2 152//2 7//2
f 7//2 3//2 23//2
f 7//2 23//2 16//2
f 145//2 149//2 7//2
f 83//2 144//2 146//2
f 83//2 146//2 145//2
f 82//2 83//2 145//2
f 7//2 16//2 22//2
f 7//2 22//2 20//2
f 82//2 145//2 7//2
f 84//2 82//2 7//2
f 7//2 20//2 18//2
f 18//2 19//2 73//2
f 18//2 73//2 74//2
f 87//2 84//2 7//2
f 80//2 87//2 7//2
f 18//2 74//2 77//2
f 18//2 77//2 76//2
f 86//2 80//2 7//2
f 18//2 76//2 86//2
f 111//2 107//2 4//2
f 8//2 116//2 118//2
f 8//2 118//2 113//2
f 109//2 111//2 4//2
f 8//2 113//2 119//2
f 119//2 109//2 4//2
f 75//2 73//2 19//2
f 19//2 21//2 55//2
f 55//2 79//2 75//2
f 44//2 55//2 21//2
f 44//2 21//2 17//2
f 46//2 44//2 17//2
f 24//2 14//2 4//2
f 46//2 17//2 24//2
f 42//2 46//2 24//2
f 4//2 47//2 43//2
f 41//2 42//2 24//2
f 4//2 43//2 41//2
f 7//3 8//3 6//3
f 154//4 153//4 99//4
f 99//4 100//4 5//4
f 5//4 165//4 160//4
f 5//4 160//4 168//4
f 158//4 154//4 99//4
f 5//4 168//4 156//4
f 156//4 158//4 99//4
f 163//4 165//4 5//4
f 6//4 198//4 196//4
f 6//4 196//4 195//4
f 163//4 5//4 6//4
f 162//4 163//4 6//4
f 6//4 195//4 197//4
f 6//4 197//4 192//4
f 164//4 162//4 6//4
f 200//4 161//4 166//4
f 166//4 164//4 6//4
f 166//4 6//4 192//4
f 193//4 200//4 166//4
f 194//4 198//4 6//4
f 6//4 132//4 130//4
f 6//4 130//4 131//4
f 199//4 194//4 6//4
f 189//4 199//4 6//4
f 6//4 131//4 133//4
f 6//4 133//4 128//4
f 191//4 189//4 6//4
f 191//4 6//4 128//4
f 191//4 128//4 136//4
f 187//4 191//4 136//4
f 185//4 187//4 136//4
f 186//4 185//4 136//4
f 190//4 186//4 136//4
f 161//4 200//4 188//4
f 188//4 190//4 136//4
f 161//4 188//4 136//4
f 167//4 161//4 136//4
f 167//4 136//4 124//4
f 157//4 167//4 124//4
f 157//4 124//4 126//4
f 159//4 157//4 126//4
f 155//4 159//4 126//4
f 99//4 153//4 155//4
f 101//4 99//4 155//4
f 101//4 155//4 126//4
f 103//4 101//4 126//4
f 103//4 126//4 122//4
f 98//4 103//4 122//4
f 121//4 123//4 2//4
f 98//4 122//4 121//4
f 104//4 98//4 121//4
f 2//4 63//4 62//4
f 2//4 62//4 72//4
f 93//4 104//4 121//4
f 96//4 93//4 121//4
f 121//4 2//4 72//4
f 121//4 72//4 65//4
f 91//4 96//4 121//4
f 1//4 90//4 89//4
f 89//4 91//4 121//4
f 121//4 65//4 69//4
f 121//4 69//4 67//4
f 29//4 31//4 1//4
f 39//4 29//4 1//4
f 89//4 121//4 67//4
f 89//4 67//4 66//4
f 39//4 1//4 89//4
f 32//4 39//4 89//4
f 89//4 66//4 68//4
f 89//4 68//4 70//4
f 38//4 32//4 89//4
f 36//4 38//4 89//4
f 89//4 70//4 64//4
f 64//4 71//4 28//4
f 64//4 28//4 40//4
f 34//4 36//4 89//4
f 35//4 34//4 89//4
f 89//4 64//4 40//4
f 89//4 40//4 33//4
f 37//4 35//4 89//4
f 134//4 132//4 6//4
f 2//4 123//4 127//4
f 2//4 127//4 125//4
f 129//4 134//4 6//4
f 2//4 125//4 135//4
f 135//4 129//4 6//4
f 95//4 90//4 1//4
f 5//4 100//4 102//4
f 5//4 102//4 97//4
f 92//4 95//4 1//4
f 5//4 97//4 94//4
f 94//4 92//4 1//4
f 59//4 63//4 2//4
f 28//4 71//4 60//4
f 28//4 60//4 61//4
f 57//4 59//4 2//4
f 28//4 61//4 58//4
f 58//4 57//4 2//4
f 30//4 28//4 2//4
f 1//4 31//4 26//4
f 1//4 26//4 25//4
f 30//4 2//4 1//4
f 1//4 25//4 27//4
f 3//5 7//5 5//5
f 8//6 4//6 2//6
f 24//7 17//7 33//7
f 17//8 21//8 37//8
f 37//9 21//9 19//9
f 35//10 19//10 18//10
f 34//11 18//11 20//11
f 36//12 20//12 22//12
f 38//13 22//13 16//13
f 32//14 16//14 23//14
f 39//15 23//15 12//15
f 29//16 12//16 13//16
f 13//17 10//17 26//17
f 10//18 9//18 25//18
f 9//19 11//19 27//19
f 11//20 15//20 30//20
f 15//21 14//21 28//21
f 14//22 24//22 40//22
f 56//7 50//7 65//7
f 50//8 54//8 69//8
f 69//9 54//9 52//9
f 67//10 52//10 51//10
f 66//11 51//11 53//11
f 68//12 53//12 48//12
f 70//13 48//13 49//13
f 64//14 49//14 55//14
f 71//15 55//15 44//15
f 60//16 44//16 46//16
f 46//17 42//17 58//17
f 42//18 41//18 57//18
f 41//19 43//19 59//19
f 43//20 47//20 63//20
f 47//21 45//21 62//21
f 45//22 56//22 72//22
f 88//7 81//7 98//7
f 81//8 85//8 103//8
f 103//9 85//9 83//9
f 101//10 83//10 82//10
f 99//11 82//11 84//11
f 100//12 84//12 87//12
f 102//13 87//13 80//13
f 97//14 80//14 86//14
f 94//15 86//15 76//15
f 92//16 76//16 77//16
f 77//17 74//17 90//17
f 74//18 73//18 89//18
f 73//19 75//19 91//19
f 75//20 79//20 96//20
f 79//21 78//21 93//21
f 78//22 88//22 104//22
f 119//7 113//7 129//7
f 113//8 118//8 134//8
f 134//9 118//9 116//9
f 132//10 116//10 114//10
f 130//11 114//11 115//11
f 131//12 115//12 117//12
f 133//13 117//13 112//13
f 128//14 112//14 120//14
f 136//15 120//15 108//15
f 124//16 108//16 110//16
f 110//17 106//17 122//17
f 106//18 105//18 121//18
f 105//19 107//19 123//19
f 107//20 111//20 127//20
f 111//21 109//21 125//21
f 109//22 119//22 135//22
f 139//7 138//7 161//7
f 138//8 143//8 166//8
f 166//9 143//9 142//9
f 164//10 142//10 140//10
f 162//11 140//11 141//11
f 163//12 141//12 151//12
f 165//13 151//13 150//13
f 160//14 150//14 152//14
f 168//15 152//15 149//15
f 156//16 149//16 145//16
f 145//17 146//17 154//17
f 146//18 144//18 153//18
f 144//19 147//19 155//19
f 147//20 148//20 159//20
f 148//21 137//21 157//21
f 137//22 139//22 167//22
f 177//7 175//7 194//7
f 175//8 176//8 198//8
f 182//9 196//9 198//9
f 196//10 182//10 181//10
f 195//11 181//11 183//11
f 197//12 183//12 184//12
f 192//13 184//13 179//13
f 193//14 179//14 180//14
f 200//15 180//15 178//15
f 188//16 178//16 170//16
f 170//17 171//17 186//17
f 171//18 169//18 185//18
f 169//19 172//19 187//19
f 172//20 173//20 191//20
f 173//21 174//21 189//21
f 174//22 177//22 199//22
