# Blender 5.2.1 LTS
# www.blender.org
mtllib kit_bolt_4.mtl
o kit_bolt_4
v 0.000000 0.002000 -0.006000
v 0.000000 0.003500 -0.010000
v 0.000000 0.002000 0.006000
v 0.000000 0.003500 -0.006000
v 0.000765 0.001848 -0.006000
v 0.003031 0.001750 -0.010000
v 0.003031 0.001750 -0.006000
v 0.000765 0.001848 0.006000
v 0.003031 -0.001750 -0.010000
v 0.001414 0.001414 -0.006000
v 0.003031 -0.001750 -0.006000
v 0.001414 0.001414 0.006000
v 0.001848 0.000765 -0.006000
v 0.000000 -0.003500 -0.010000
v 0.001848 0.000765 0.006000
v 0.000000 -0.003500 -0.006000
v 0.002000 0.000000 -0.006000
v -0.003031 -0.001750 -0.010000
v 0.002000 0.000000 0.006000
v -0.003031 -0.001750 -0.006000
v -0.003031 0.001750 -0.010000
v 0.001848 -0.000765 -0.006000
v 0.001848 -0.000765 0.006000
v -0.003031 0.001750 -0.006000
v 0.001414 -0.001414 -0.006000
v 0.001414 -0.001414 0.006000
v 0.000765 -0.001848 -0.006000
v 0.000765 -0.001848 0.006000
v 0.000000 -0.002000 -0.006000
v 0.000000 -0.002000 0.006000
v -0.000765 -0.001848 -0.006000
v -0.000765 -0.001848 0.006000
v -0.001414 -0.001414 -0.006000
v -0.001414 -0.001414 0.006000
v -0.001848 -0.000765 -0.006000
v -0.001848 -0.000765 0.006000
v -0.002000 0.000000 -0.006000
v -0.002000 0.000000 0.006000
v -0.001848 0.000765 -0.006000
v -0.001848 0.000765 0.006000
v -0.001414 0.001414 -0.006000
v -0.001414 0.001414 0.006000
v -0.000765 0.001848 -0.006000
v -0.000765 0.001848 0.006000
vn 0.1949 0.9808 -0.0000
vn 0.5559 0.8313 -0.0000
vn 0.8313 0.5559 -0.0000
vn 0.9808 0.1949 -0.0000
vn 0.9808 -0.1949 -0.0000
vn 0.8313 -0.5559 -0.0000
vn 0.5559 -0.8313 -0.0000
vn 0.1949 -0.9808 -0.0000
vn -0.1949 -0.9808 -0.0000
vn -0.5559 -0.8313 -0.0000
vn -0.8313 -0.5559 -0.0000
vn -0.9808 -0.1949 -0.0000
vn -0.9808 0.1949 -0.0000
vn -0.8313 0.5559 -0.0000
vn -0.0000 -0.0000 1.0000
vn -0.5559 0.8313 -0.0000
vn -0.1949 0.9808 -0.0000
vn 0.5000 0.8660 -0.0000
vn 1.0000 -0.0000 -0.0000
vn 0.5000 -0.8660 -0.0000
vn -0.5000 -0.8660 -0.0000
vn -1.0000 -0.0000 -0.0000
vn -0.5000 0.8660 -0.0000
vn -0.0000 -0.0000 -1.0000
s 0
usemtl DetailSteel
f 1//1 8//1 5//1
f 5//2 12//2 10//2
f 10//3 15//3 13//3
f 13//4 19//4 17//4
f 17//5 23//5 22//5
f 22//6 26//6 25//6
f 25//7 28//7 27//7
f 27//8 30//8 29//8
f 29//9 32//9 31//9
f 31//10 34//10 33//10
f 33//11 36//11 35//11
f 35//12 38//12 37//12
f 37//13 40//13 39//13
f 39//14 42//14 41//14
f 40//15 32//15 23//15
f 41//16 44//16 43//16
f 43//17 3//17 1//17
f 2//18 7//18 6//18
f 6//19 11//19 9//19
f 9//20 16//20 14//20
f 14//21 20//21 18//21
f 35//15 37//15 24//15
f 13//15 17//15 11//15
f 18//22 24//22 21//22
f 21//23 4//23 2//23
f 2//24 9//24 18//24
f 1//1 3//1 8//1
f 5//2 8//2 12//2
f 10//3 12//3 15//3
f 13//4 15//4 19//4
f 17//5 19//5 23//5
f 22//6 23//6 26//6
f 25//7 26//7 28//7
f 27//8 28//8 30//8
f 29//9 30//9 32//9
f 31//10 32//10 34//10
f 33//11 34//11 36//11
f 35//12 36//12 38//12
f 37//13 38//13 40//13
f 39//14 40//14 42//14
f 23//15 19//15 15//15
f 15//15 12//15 8//15
f 8//15 3//15 44//15
f 44//15 42//15 40//15
f 40//15 38//15 36//15
f 36//15 34//15 32//15
f 32//15 30//15 28//15
f 28//15 26//15 23//15
f 23//15 15//15 8//15
f 8//15 44//15 40//15
f 40//15 36//15 32//15
f 32//15 28//15 23//15
f 23//15 8//15 40//15
f 41//16 42//16 44//16
f 43//17 44//17 3//17
f 2//18 4//18 7//18
f 6//19 7//19 11//19
f 9//20 11//20 16//20
f 14//21 16//21 20//21
f 20//15 16//15 29//15
f 20//15 29//15 31//15
f 1//15 4//15 24//15
f 43//15 1//15 24//15
f 20//15 31//15 33//15
f 20//15 33//15 35//15
f 41//15 43//15 24//15
f 39//15 41//15 24//15
f 24//15 20//15 35//15
f 37//15 39//15 24//15
f 7//15 4//15 1//15
f 7//15 1//15 5//15
f 29//15 16//15 11//15
f 27//15 29//15 11//15
f 7//15 5//15 10//15
f 7//15 10//15 13//15
f 25//15 27//15 11//15
f 22//15 25//15 11//15
f 11//15 7//15 13//15
f 17//15 22//15 11//15
f 18//22 20//22 24//22
f 21//23 24//23 4//23
f 18//24 21//24 2//24
f 2//24 6//24 9//24
f 9//24 14//24 18//24
