# Blender 5.2.1 LTS
# www.blender.org
mtllib kit_plate_220_120.mtl
o kit_plate_220_120
v -0.110000 -0.060000 0.002000
v -0.110000 0.060000 0.002000
v -0.110000 -0.060000 -0.002000
v -0.110000 0.060000 -0.002000
v 0.110000 -0.060000 0.002000
v 0.110000 0.060000 0.002000
v 0.110000 -0.060000 -0.002000
v 0.110000 0.060000 -0.002000
v -0.102000 -0.050000 -0.002000
v -0.101848 -0.050765 -0.002000
v -0.101848 -0.049235 -0.002000
v -0.100765 -0.051848 -0.002000
v -0.101414 -0.051414 -0.002000
v -0.100765 -0.048152 -0.002000
v -0.101414 -0.048586 -0.002000
v -0.099235 -0.051848 -0.002000
v -0.099235 -0.048152 -0.002000
v -0.098000 -0.050000 -0.002000
v -0.098152 -0.049235 -0.002000
v -0.098152 -0.050765 -0.002000
v -0.098586 -0.051414 -0.002000
v -0.098586 -0.048586 -0.002000
v -0.100000 -0.052000 -0.002000
v -0.100000 -0.048000 -0.002000
v -0.102000 -0.050000 0.002000
v -0.101848 -0.050765 0.002000
v -0.101848 -0.049235 0.002000
v -0.100765 -0.048152 0.002000
v -0.100765 -0.051848 0.002000
v -0.101414 -0.048586 0.002000
v -0.101414 -0.051414 0.002000
v -0.099235 -0.051848 0.002000
v -0.099235 -0.048152 0.002000
v -0.098000 -0.050000 0.002000
v -0.098152 -0.049235 0.002000
v -0.098152 -0.050765 0.002000
v -0.098586 -0.051414 0.002000
v -0.098586 -0.048586 0.002000
v -0.100000 -0.052000 0.002000
v -0.100000 -0.048000 0.002000
v -0.102000 -0.030000 -0.002000
v -0.101555 -0.031203 -0.002000
v -0.101848 -0.030765 -0.002000
v -0.101751 -0.029090 -0.002000
v -0.101848 -0.029235 -0.002000
v -0.101414 -0.028586 -0.002000
v -0.101414 -0.031414 -0.002000
v -0.100765 -0.028152 -0.002000
v -0.099235 -0.031848 -0.002000
v -0.100000 -0.032000 -0.002000
v -0.100765 -0.031848 -0.002000
v -0.100000 -0.028000 -0.002000
v -0.098586 -0.028586 -0.002000
v -0.098000 -0.030000 -0.002000
v -0.098152 -0.030765 -0.002000
v -0.098152 -0.029235 -0.002000
v -0.098586 -0.031414 -0.002000
v -0.099235 -0.028152 -0.002000
v -0.101414 -0.031414 0.002000
v -0.101751 -0.029090 0.002000
v -0.101414 -0.028586 0.002000
v -0.100765 -0.031848 0.002000
v -0.100000 -0.032000 0.002000
v -0.100765 -0.028152 0.002000
v -0.100000 -0.028000 0.002000
v -0.099235 -0.031848 0.002000
v -0.099235 -0.028152 0.002000
v -0.098000 -0.030000 0.002000
v -0.098152 -0.030765 0.002000
v -0.098152 -0.029235 0.002000
v -0.098586 -0.031414 0.002000
v -0.098586 -0.028586 0.002000
v -0.102000 -0.030000 0.002000
v -0.101848 -0.030765 0.002000
v -0.101848 -0.029235 0.002000
v -0.102000 -0.010000 -0.002000
v -0.101848 -0.009235 -0.002000
v -0.101267 -0.011513 -0.002000
v -0.101414 -0.011414 -0.002000
v -0.101848 -0.010765 -0.002000
v -0.101414 -0.008586 -0.002000
v -0.100000 -0.012000 -0.002000
v -0.100000 -0.008000 -0.002000
v -0.100765 -0.011848 -0.002000
v -0.100765 -0.008152 -0.002000
v -0.098586 -0.011414 -0.002000
v -0.099235 -0.011848 -0.002000
v -0.098000 -0.010000 -0.002000
v -0.098152 -0.010765 -0.002000
v -0.098152 -0.009235 -0.002000
v -0.098586 -0.008586 -0.002000
v -0.099235 -0.008152 -0.002000
v -0.102000 -0.010000 0.002000
v -0.101848 -0.010765 0.002000
v -0.101848 -0.009235 0.002000
v -0.100765 -0.011848 0.002000
v -0.101414 -0.011414 0.002000
v -0.100765 -0.008152 0.002000
v -0.101414 -0.008586 0.002000
v -0.099235 -0.011848 0.002000
v -0.099235 -0.008152 0.002000
v -0.098000 -0.010000 0.002000
v -0.098152 -0.009235 0.002000
v -0.098152 -0.010765 0.002000
v -0.098586 -0.011414 0.002000
v -0.098586 -0.008586 0.002000
v -0.100000 -0.012000 0.002000
v -0.100000 -0.008000 0.002000
v -0.102000 0.010000 -0.002000
v -0.101848 0.009235 -0.002000
v -0.101848 0.010765 -0.002000
v -0.100765 0.008152 -0.002000
v -0.100638 0.011873 -0.002000
v -0.100765 0.011848 -0.002000
v -0.101414 0.008586 -0.002000
v -0.101414 0.011414 -0.002000
v -0.098586 0.008586 -0.002000
v -0.099235 0.008152 -0.002000
v -0.099235 0.011848 -0.002000
v -0.098000 0.010000 -0.002000
v -0.098152 0.010765 -0.002000
v -0.098152 0.009235 -0.002000
v -0.098586 0.011414 -0.002000
v -0.100000 0.008000 -0.002000
v -0.100000 0.012000 -0.002000
v -0.102000 0.010000 0.002000
v -0.101848 0.009235 0.002000
v -0.101848 0.010765 0.002000
v -0.100765 0.008152 0.002000
v -0.101414 0.008586 0.002000
v -0.100128 0.011975 0.002000
v -0.100765 0.011848 0.002000
v -0.101414 0.011414 0.002000
v -0.099235 0.008152 0.002000
v -0.099235 0.011848 0.002000
v -0.098000 0.010000 0.002000
v -0.098152 0.010765 0.002000
v -0.098152 0.009235 0.002000
v -0.098586 0.008586 0.002000
v -0.098586 0.011414 0.002000
v -0.100000 0.008000 0.002000
v -0.100000 0.012000 0.002000
v -0.102000 0.030000 -0.002000
v -0.101848 0.029235 -0.002000
v -0.101848 0.030765 -0.002000
v -0.100765 0.028152 -0.002000
v -0.100765 0.031848 -0.002000
v -0.101414 0.028586 -0.002000
v -0.101414 0.031414 -0.002000
v -0.099235 0.028152 -0.002000
v -0.099235 0.031848 -0.002000
v -0.098152 0.029235 -0.002000
v -0.098000 0.030000 -0.002000
v -0.098152 0.030765 -0.002000
v -0.098586 0.028586 -0.002000
v -0.098586 0.031414 -0.002000
v -0.100000 0.028000 -0.002000
v -0.100000 0.032000 -0.002000
v -0.102000 0.030000 0.002000
v -0.101848 0.029235 0.002000
v -0.101848 0.030765 0.002000
v -0.100765 0.028152 0.002000
v -0.101414 0.028586 0.002000
v -0.100765 0.031848 0.002000
v -0.101414 0.031414 0.002000
v -0.099235 0.028152 0.002000
v -0.099235 0.031848 0.002000
v -0.098000 0.030000 0.002000
v -0.098152 0.030765 0.002000
v -0.098152 0.029235 0.002000
v -0.098586 0.028586 0.002000
v -0.098586 0.031414 0.002000
v -0.100000 0.028000 0.002000
v -0.100000 0.032000 0.002000
v -0.102000 0.050000 -0.002000
v -0.101848 0.049235 -0.002000
v -0.101848 0.050765 -0.002000
v -0.100765 0.048152 -0.002000
v -0.100765 0.051848 -0.002000
v -0.101414 0.048586 -0.002000
v -0.101414 0.051414 -0.002000
v -0.098586 0.048586 -0.002000
v -0.099235 0.048152 -0.002000
v -0.099235 0.051848 -0.002000
v -0.098000 0.050000 -0.002000
v -0.098152 0.050765 -0.002000
v -0.098152 0.049235 -0.002000
v -0.098586 0.051414 -0.002000
v -0.100000 0.048000 -0.002000
v -0.100000 0.052000 -0.002000
v -0.102000 0.050000 0.002000
v -0.101848 0.049235 0.002000
v -0.101848 0.050765 0.002000
v -0.100765 0.048152 0.002000
v -0.100765 0.051848 0.002000
v -0.101414 0.048586 0.002000
v -0.101414 0.051414 0.002000
v -0.098586 0.048586 0.002000
v -0.099235 0.048152 0.002000
v -0.099235 0.051848 0.002000
v -0.098000 0.050000 0.002000
v -0.098152 0.050765 0.002000
v -0.098152 0.049235 0.002000
v -0.098586 0.051414 0.002000
v -0.100000 0.048000 0.002000
v -0.100000 0.052000 0.002000
v -0.080765 -0.051848 -0.002000
v -0.080000 -0.052000 -0.002000
v -0.079235 -0.051848 -0.002000
v -0.081414 -0.051414 -0.002000
v -0.078586 -0.051414 -0.002000
v -0.081848 -0.050765 -0.002000
v -0.081986 -0.050071 -0.002000
v -0.078152 -0.050765 -0.002000
v -0.082000 -0.050000 -0.002000
v -0.078000 -0.050000 -0.002000
v -0.081848 -0.049235 -0.002000
v -0.080765 -0.048152 -0.002000
v -0.081414 -0.048586 -0.002000
v -0.079235 -0.048152 -0.002000
v -0.078152 -0.049235 -0.002000
v -0.078586 -0.048586 -0.002000
v -0.080000 -0.048000 -0.002000
v -0.082000 -0.050000 0.002000
v -0.081848 -0.050765 0.002000
v -0.081848 -0.049235 0.002000
v -0.080765 -0.051848 0.002000
v -0.080765 -0.048152 0.002000
v -0.080000 -0.052000 0.002000
v -0.081414 -0.051414 0.002000
v -0.081414 -0.048586 0.002000
v -0.079235 -0.051848 0.002000
v -0.079235 -0.048152 0.002000
v -0.078000 -0.050000 0.002000
v -0.078152 -0.050765 0.002000
v -0.078152 -0.049235 0.002000
v -0.078586 -0.051414 0.002000
v -0.078586 -0.048586 0.002000
v -0.080000 -0.048000 0.002000
v -0.082000 0.050000 -0.002000
v -0.081848 0.049235 -0.002000
v -0.081848 0.050765 -0.002000
v -0.080765 0.048152 -0.002000
v -0.080765 0.051848 -0.002000
v -0.081414 0.048586 -0.002000
v -0.081414 0.051414 -0.002000
v -0.079235 0.048152 -0.002000
v -0.079235 0.051848 -0.002000
v -0.078000 0.050000 -0.002000
v -0.078152 0.049235 -0.002000
v -0.078152 0.050765 -0.002000
v -0.078586 0.048586 -0.002000
v -0.078586 0.051414 -0.002000
v -0.080000 0.048000 -0.002000
v -0.080000 0.052000 -0.002000
v -0.082000 0.050000 0.002000
v -0.081848 0.049235 0.002000
v -0.081848 0.050765 0.002000
v -0.080765 0.048152 0.002000
v -0.080765 0.051848 0.002000
v -0.081414 0.048586 0.002000
v -0.081414 0.051414 0.002000
v -0.079235 0.048152 0.002000
v -0.079235 0.051848 0.002000
v -0.078000 0.050000 0.002000
v -0.078152 0.049235 0.002000
v -0.078152 0.050765 0.002000
v -0.078586 0.048586 0.002000
v -0.078586 0.051414 0.002000
v -0.080000 0.048000 0.002000
v -0.080000 0.052000 0.002000
v -0.060765 -0.051848 -0.002000
v -0.060000 -0.052000 -0.002000
v -0.059235 -0.051848 -0.002000
v -0.061414 -0.051414 -0.002000
v -0.058586 -0.051414 -0.002000
v -0.061848 -0.050765 -0.002000
v -0.061968 -0.050161 -0.002000
v -0.058152 -0.050765 -0.002000
v -0.062000 -0.050000 -0.002000
v -0.058000 -0.050000 -0.002000
v -0.061848 -0.049235 -0.002000
v -0.060765 -0.048152 -0.002000
v -0.061414 -0.048586 -0.002000
v -0.060000 -0.048000 -0.002000
v -0.059235 -0.048152 -0.002000
v -0.058152 -0.049235 -0.002000
v -0.058586 -0.048586 -0.002000
v -0.061848 -0.050765 0.002000
v -0.061783 -0.050863 0.002000
v -0.058152 -0.050765 0.002000
v -0.058340 -0.051046 0.002000
v -0.062000 -0.050000 0.002000
v -0.058000 -0.050000 0.002000
v -0.061414 -0.048586 0.002000
v -0.061848 -0.049235 0.002000
v -0.060765 -0.048152 0.002000
v -0.059235 -0.048152 0.002000
v -0.060000 -0.048000 0.002000
v -0.058152 -0.049235 0.002000
v -0.058586 -0.048586 0.002000
v -0.061414 -0.051414 0.002000
v -0.058586 -0.051414 0.002000
v -0.060765 -0.051848 0.002000
v -0.060000 -0.052000 0.002000
v -0.059235 -0.051848 0.002000
v -0.061848 0.050765 -0.002000
v -0.061783 0.050863 -0.002000
v -0.058340 0.051046 -0.002000
v -0.058152 0.050765 -0.002000
v -0.062000 0.050000 -0.002000
v -0.058000 0.050000 -0.002000
v -0.061848 0.049235 -0.002000
v -0.060765 0.048152 -0.002000
v -0.061414 0.048586 -0.002000
v -0.059235 0.048152 -0.002000
v -0.058152 0.049235 -0.002000
v -0.060000 0.048000 -0.002000
v -0.058586 0.048586 -0.002000
v -0.061414 0.051414 -0.002000
v -0.058586 0.051414 -0.002000
v -0.060765 0.051848 -0.002000
v -0.059235 0.051848 -0.002000
v -0.060000 0.052000 -0.002000
v -0.061848 0.050765 0.002000
v -0.058152 0.050765 0.002000
v -0.058340 0.051046 0.002000
v -0.061783 0.050863 0.002000
v -0.061848 0.049235 0.002000
v -0.062000 0.050000 0.002000
v -0.061414 0.048586 0.002000
v -0.060765 0.048152 0.002000
v -0.059235 0.048152 0.002000
v -0.058586 0.048586 0.002000
v -0.058000 0.050000 0.002000
v -0.058152 0.049235 0.002000
v -0.060000 0.048000 0.002000
v -0.061414 0.051414 0.002000
v -0.058586 0.051414 0.002000
v -0.060765 0.051848 0.002000
v -0.060000 0.052000 0.002000
v -0.059235 0.051848 0.002000
v -0.040765 -0.051848 -0.002000
v -0.040000 -0.052000 -0.002000
v -0.039235 -0.051848 -0.002000
v -0.041414 -0.051414 -0.002000
v -0.038586 -0.051414 -0.002000
v -0.041848 -0.050765 -0.002000
v -0.038152 -0.050765 -0.002000
v -0.042000 -0.050000 -0.002000
v -0.038000 -0.050000 -0.002000
v -0.041848 -0.049235 -0.002000
v -0.040765 -0.048152 -0.002000
v -0.041414 -0.048586 -0.002000
v -0.039235 -0.048152 -0.002000
v -0.038152 -0.049235 -0.002000
v -0.038586 -0.048586 -0.002000
v -0.040000 -0.048000 -0.002000
v -0.040765 -0.051848 0.002000
v -0.039235 -0.051848 0.002000
v -0.040000 -0.052000 0.002000
v -0.041711 -0.050970 0.002000
v -0.041414 -0.051414 0.002000
v -0.038586 -0.051414 0.002000
v -0.041848 -0.050765 0.002000
v -0.042000 -0.050000 0.002000
v -0.041414 -0.048586 0.002000
v -0.041848 -0.049235 0.002000
v -0.040765 -0.048152 0.002000
v -0.040000 -0.048000 0.002000
v -0.039235 -0.048152 0.002000
v -0.038000 -0.050000 0.002000
v -0.038152 -0.050765 0.002000
v -0.038152 -0.049235 0.002000
v -0.038586 -0.048586 0.002000
v -0.040765 0.051848 -0.002000
v -0.040973 0.051709 -0.002000
v -0.039235 0.051848 -0.002000
v -0.040000 0.052000 -0.002000
v -0.042000 0.050000 -0.002000
v -0.041848 0.049235 -0.002000
v -0.041848 0.050765 -0.002000
v -0.040765 0.048152 -0.002000
v -0.040000 0.048000 -0.002000
v -0.041414 0.048586 -0.002000
v -0.041414 0.051414 -0.002000
v -0.039235 0.048152 -0.002000
v -0.038586 0.051414 -0.002000
v -0.038000 0.050000 -0.002000
v -0.038152 0.049235 -0.002000
v -0.038152 0.050765 -0.002000
v -0.038586 0.048586 -0.002000
v -0.042000 0.050000 0.002000
v -0.041848 0.049235 0.002000
v -0.041848 0.050765 0.002000
v -0.040765 0.048152 0.002000
v -0.040765 0.051848 0.002000
v -0.041414 0.048586 0.002000
v -0.041414 0.051414 0.002000
v -0.039235 0.048152 0.002000
v -0.039235 0.051848 0.002000
v -0.038000 0.050000 0.002000
v -0.038152 0.049235 0.002000
v -0.038152 0.050765 0.002000
v -0.038586 0.048586 0.002000
v -0.038586 0.051414 0.002000
v -0.040000 0.052000 0.002000
v -0.040000 0.048000 0.002000
v -0.020000 -0.052000 -0.002000
v -0.021414 -0.051414 -0.002000
v -0.020765 -0.051848 -0.002000
v -0.018586 -0.051414 -0.002000
v -0.019235 -0.051848 -0.002000
v -0.021848 -0.049235 -0.002000
v -0.020765 -0.048152 -0.002000
v -0.021414 -0.048586 -0.002000
v -0.019235 -0.048152 -0.002000
v -0.018152 -0.049235 -0.002000
v -0.018586 -0.048586 -0.002000
v -0.020000 -0.048000 -0.002000
v -0.021848 -0.050765 -0.002000
v -0.021918 -0.050414 -0.002000
v -0.018152 -0.050765 -0.002000
v -0.018000 -0.050000 -0.002000
v -0.022000 -0.050000 -0.002000
v -0.020000 -0.052000 0.002000
v -0.020765 -0.051848 0.002000
v -0.021414 -0.051414 0.002000
v -0.018586 -0.051414 0.002000
v -0.019235 -0.051848 0.002000
v -0.021918 -0.050414 0.002000
v -0.021848 -0.050765 0.002000
v -0.018152 -0.050765 0.002000
v -0.022000 -0.050000 0.002000
v -0.021848 -0.049235 0.002000
v -0.020765 -0.048152 0.002000
v -0.021414 -0.048586 0.002000
v -0.019235 -0.048152 0.002000
v -0.018000 -0.050000 0.002000
v -0.018152 -0.049235 0.002000
v -0.018586 -0.048586 0.002000
v -0.020000 -0.048000 0.002000
v -0.022000 0.050000 -0.002000
v -0.021848 0.049235 -0.002000
v -0.021848 0.050765 -0.002000
v -0.020765 0.048152 -0.002000
v -0.020765 0.051848 -0.002000
v -0.021414 0.048586 -0.002000
v -0.021414 0.051414 -0.002000
v -0.019235 0.048152 -0.002000
v -0.019235 0.051848 -0.002000
v -0.018000 0.050000 -0.002000
v -0.018152 0.049235 -0.002000
v -0.018152 0.050765 -0.002000
v -0.018586 0.048586 -0.002000
v -0.018586 0.051414 -0.002000
v -0.020000 0.052000 -0.002000
v -0.020000 0.048000 -0.002000
v -0.022000 0.050000 0.002000
v -0.021848 0.049235 0.002000
v -0.021848 0.050765 0.002000
v -0.020765 0.048152 0.002000
v -0.021414 0.048586 0.002000
v -0.021620 0.051107 0.002000
v -0.020000 0.048000 0.002000
v -0.019235 0.048152 0.002000
v -0.018586 0.048586 0.002000
v -0.018000 0.050000 0.002000
v -0.018152 0.049235 0.002000
v -0.018152 0.050765 0.002000
v -0.018520 0.051316 0.002000
v -0.021414 0.051414 0.002000
v -0.020765 0.051848 0.002000
v -0.018586 0.051414 0.002000
v -0.019235 0.051848 0.002000
v -0.020000 0.052000 0.002000
v -0.001848 -0.049235 -0.002000
v -0.000765 -0.048152 -0.002000
v -0.001414 -0.048586 -0.002000
v 0.000000 -0.048000 -0.002000
v 0.001414 -0.048586 -0.002000
v 0.000765 -0.048152 -0.002000
v 0.002000 -0.050000 -0.002000
v 0.001848 -0.049235 -0.002000
v -0.002000 -0.050000 -0.002000
v -0.001988 -0.050059 -0.002000
v -0.001880 -0.050602 -0.002000
v 0.001848 -0.050765 -0.002000
v -0.001848 -0.050765 -0.002000
v 0.001414 -0.051414 -0.002000
v -0.001414 -0.051414 -0.002000
v 0.000765 -0.051848 -0.002000
v 0.000000 -0.052000 -0.002000
v -0.000765 -0.051848 -0.002000
v -0.000765 -0.051848 0.002000
v -0.001414 -0.051414 0.002000
v 0.000000 -0.052000 0.002000
v 0.000765 -0.051848 0.002000
v -0.001880 -0.050602 0.002000
v -0.001848 -0.050765 0.002000
v 0.001414 -0.051414 0.002000
v -0.002000 -0.050000 0.002000
v -0.000765 -0.048152 0.002000
v -0.001414 -0.048586 0.002000
v -0.001848 -0.049235 0.002000
v 0.000765 -0.048152 0.002000
v 0.002000 -0.050000 0.002000
v 0.001848 -0.050765 0.002000
v 0.001848 -0.049235 0.002000
v 0.001414 -0.048586 0.002000
v 0.000000 -0.048000 0.002000
v -0.002000 0.050000 -0.002000
v -0.001848 0.049235 -0.002000
v -0.001414 0.048586 -0.002000
v -0.000765 0.048152 -0.002000
v 0.000765 0.048152 -0.002000
v 0.001414 0.048586 -0.002000
v 0.002000 0.050000 -0.002000
v 0.001848 0.049235 -0.002000
v 0.001848 0.050765 -0.002000
v 0.000000 0.048000 -0.002000
v -0.001848 0.050765 -0.002000
v 0.001277 0.051506 -0.002000
v 0.001414 0.051414 -0.002000
v -0.001498 0.051289 -0.002000
v -0.001414 0.051414 -0.002000
v -0.000765 0.051848 -0.002000
v 0.000000 0.052000 -0.002000
v 0.000765 0.051848 -0.002000
v -0.002000 0.050000 0.002000
v -0.001848 0.049235 0.002000
v -0.001880 0.050602 0.002000
v 0.000000 0.048000 0.002000
v -0.000765 0.048152 0.002000
v -0.001414 0.048586 0.002000
v 0.000765 0.048152 0.002000
v 0.001414 0.048586 0.002000
v 0.002000 0.050000 0.002000
v 0.001848 0.049235 0.002000
v 0.001848 0.050765 0.002000
v -0.001848 0.050765 0.002000
v 0.001414 0.051414 0.002000
v -0.001414 0.051414 0.002000
v 0.000765 0.051848 0.002000
v 0.000000 0.052000 0.002000
v -0.000765 0.051848 0.002000
v 0.018586 -0.051414 -0.002000
v 0.018218 -0.050864 -0.002000
v 0.021414 -0.051414 -0.002000
v 0.019235 -0.051848 -0.002000
v 0.020000 -0.052000 -0.002000
v 0.020765 -0.051848 -0.002000
v 0.018152 -0.050765 -0.002000
v 0.018067 -0.050336 -0.002000
v 0.021848 -0.050765 -0.002000
v 0.018000 -0.050000 -0.002000
v 0.019235 -0.048152 -0.002000
v 0.018586 -0.048586 -0.002000
v 0.018152 -0.049235 -0.002000
v 0.021414 -0.048586 -0.002000
v 0.020765 -0.048152 -0.002000
v 0.022000 -0.050000 -0.002000
v 0.021848 -0.049235 -0.002000
v 0.020000 -0.048000 -0.002000
v 0.018152 -0.050765 0.002000
v 0.018000 -0.050000 0.002000
v 0.018152 -0.049235 0.002000
v 0.018586 -0.051414 0.002000
v 0.018586 -0.048586 0.002000
v 0.019235 -0.048152 0.002000
v 0.020000 -0.048000 0.002000
v 0.020765 -0.048152 0.002000
v 0.022000 -0.050000 0.002000
v 0.021848 -0.050765 0.002000
v 0.021848 -0.049235 0.002000
v 0.021414 -0.051414 0.002000
v 0.021414 -0.048586 0.002000
v 0.019235 -0.051848 0.002000
v 0.020000 -0.052000 0.002000
v 0.020765 -0.051848 0.002000
v 0.018000 0.050000 -0.002000
v 0.018152 0.049235 -0.002000
v 0.018152 0.050765 -0.002000
v 0.019235 0.048152 -0.002000
v 0.018586 0.048586 -0.002000
v 0.018218 0.050864 -0.002000
v 0.020765 0.048152 -0.002000
v 0.021414 0.048586 -0.002000
v 0.022000 0.050000 -0.002000
v 0.021848 0.049235 -0.002000
v 0.021848 0.050765 -0.002000
v 0.020000 0.048000 -0.002000
v 0.018586 0.051414 -0.002000
v 0.021414 0.051414 -0.002000
v 0.019235 0.051848 -0.002000
v 0.020765 0.051848 -0.002000
v 0.020000 0.052000 -0.002000
v 0.018000 0.050000 0.002000
v 0.018152 0.049235 0.002000
v 0.018152 0.050765 0.002000
v 0.019235 0.048152 0.002000
v 0.018586 0.048586 0.002000
v 0.018218 0.050864 0.002000
v 0.020765 0.048152 0.002000
v 0.021414 0.048586 0.002000
v 0.022000 0.050000 0.002000
v 0.021848 0.049235 0.002000
v 0.021848 0.050765 0.002000
v 0.020000 0.048000 0.002000
v 0.018586 0.051414 0.002000
v 0.021414 0.051414 0.002000
v 0.019235 0.051848 0.002000
v 0.020000 0.052000 0.002000
v 0.020765 0.051848 0.002000
v 0.038487 -0.051267 -0.002000
v 0.038586 -0.051414 -0.002000
v 0.040765 -0.051848 -0.002000
v 0.040000 -0.052000 -0.002000
v 0.039235 -0.051848 -0.002000
v 0.038148 -0.050742 -0.002000
v 0.038152 -0.050765 -0.002000
v 0.041414 -0.051414 -0.002000
v 0.038000 -0.050000 -0.002000
v 0.039235 -0.048152 -0.002000
v 0.038586 -0.048586 -0.002000
v 0.038152 -0.049235 -0.002000
v 0.040000 -0.048000 -0.002000
v 0.040765 -0.048152 -0.002000
v 0.041414 -0.048586 -0.002000
v 0.042000 -0.050000 -0.002000
v 0.041848 -0.050765 -0.002000
v 0.041848 -0.049235 -0.002000
v 0.038000 -0.050000 0.002000
v 0.038152 -0.050765 0.002000
v 0.038152 -0.049235 0.002000
v 0.039235 -0.048152 0.002000
v 0.039235 -0.051848 0.002000
v 0.038586 -0.048586 0.002000
v 0.038586 -0.051414 0.002000
v 0.040765 -0.051848 0.002000
v 0.040765 -0.048152 0.002000
v 0.042000 -0.050000 0.002000
v 0.041848 -0.049235 0.002000
v 0.041848 -0.050765 0.002000
v 0.041414 -0.048586 0.002000
v 0.040000 -0.052000 0.002000
v 0.041414 -0.051414 0.002000
v 0.040000 -0.048000 0.002000
v 0.038000 0.050000 -0.002000
v 0.038152 0.049235 -0.002000
v 0.038148 0.050742 -0.002000
v 0.038586 0.048586 -0.002000
v 0.039235 0.048152 -0.002000
v 0.040765 0.048152 -0.002000
v 0.041414 0.048586 -0.002000
v 0.042000 0.050000 -0.002000
v 0.041848 0.049235 -0.002000
v 0.041848 0.050765 -0.002000
v 0.040000 0.048000 -0.002000
v 0.038152 0.050765 -0.002000
v 0.038487 0.051267 -0.002000
v 0.041414 0.051414 -0.002000
v 0.038586 0.051414 -0.002000
v 0.039235 0.051848 -0.002000
v 0.040000 0.052000 -0.002000
v 0.040765 0.051848 -0.002000
v 0.038487 0.051267 0.002000
v 0.038586 0.051414 0.002000
v 0.040765 0.051848 0.002000
v 0.040000 0.052000 0.002000
v 0.039235 0.051848 0.002000
v 0.038000 0.050000 0.002000
v 0.038152 0.049235 0.002000
v 0.038152 0.050765 0.002000
v 0.040000 0.048000 0.002000
v 0.039235 0.048152 0.002000
v 0.038586 0.048586 0.002000
v 0.040765 0.048152 0.002000
v 0.041414 0.048586 0.002000
v 0.042000 0.050000 0.002000
v 0.041848 0.049235 0.002000
v 0.041848 0.050765 0.002000
v 0.041414 0.051414 0.002000
v 0.059235 -0.051848 -0.002000
v 0.058644 -0.051453 -0.002000
v 0.060000 -0.052000 -0.002000
v 0.060765 -0.051848 -0.002000
v 0.058152 -0.050765 -0.002000
v 0.058000 -0.050000 -0.002000
v 0.058152 -0.049235 -0.002000
v 0.059235 -0.048152 -0.002000
v 0.058586 -0.051414 -0.002000
v 0.058586 -0.048586 -0.002000
v 0.060765 -0.048152 -0.002000
v 0.062000 -0.050000 -0.002000
v 0.061848 -0.050765 -0.002000
v 0.061848 -0.049235 -0.002000
v 0.061414 -0.051414 -0.002000
v 0.061414 -0.048586 -0.002000
v 0.060000 -0.048000 -0.002000
v 0.058000 -0.050000 0.002000
v 0.058152 -0.050765 0.002000
v 0.058152 -0.049235 0.002000
v 0.059235 -0.051848 0.002000
v 0.059235 -0.048152 0.002000
v 0.060000 -0.052000 0.002000
v 0.058586 -0.051414 0.002000
v 0.058586 -0.048586 0.002000
v 0.060765 -0.051848 0.002000
v 0.060765 -0.048152 0.002000
v 0.062000 -0.050000 0.002000
v 0.061873 -0.050638 0.002000
v 0.061848 -0.050765 0.002000
v 0.061848 -0.049235 0.002000
v 0.061414 -0.051414 0.002000
v 0.061414 -0.048586 0.002000
v 0.060000 -0.048000 0.002000
v 0.058000 0.050000 -0.002000
v 0.058152 0.049235 -0.002000
v 0.058152 0.050765 -0.002000
v 0.059235 0.048152 -0.002000
v 0.058586 0.048586 -0.002000
v 0.058644 0.051453 -0.002000
v 0.058586 0.051414 -0.002000
v 0.060765 0.048152 -0.002000
v 0.061414 0.048586 -0.002000
v 0.062000 0.050000 -0.002000
v 0.061848 0.049235 -0.002000
v 0.061848 0.050765 -0.002000
v 0.061414 0.051414 -0.002000
v 0.060000 0.048000 -0.002000
v 0.059235 0.051848 -0.002000
v 0.060000 0.052000 -0.002000
v 0.060765 0.051848 -0.002000
v 0.058000 0.050000 0.002000
v 0.058152 0.049235 0.002000
v 0.058152 0.050765 0.002000
v 0.058644 0.051453 0.002000
v 0.058586 0.051414 0.002000
v 0.059235 0.048152 0.002000
v 0.058586 0.048586 0.002000
v 0.060765 0.048152 0.002000
v 0.061414 0.048586 0.002000
v 0.062000 0.050000 0.002000
v 0.061848 0.049235 0.002000
v 0.061848 0.050765 0.002000
v 0.061414 0.051414 0.002000
v 0.060000 0.048000 0.002000
v 0.059235 0.051848 0.002000
v 0.060000 0.052000 0.002000
v 0.060765 0.051848 0.002000
v 0.078000 -0.050000 -0.002000
v 0.078152 -0.050765 -0.002000
v 0.078152 -0.049235 -0.002000
v 0.079235 -0.051848 -0.002000
v 0.078586 -0.051414 -0.002000
v 0.079235 -0.048152 -0.002000
v 0.078586 -0.048586 -0.002000
v 0.080765 -0.051848 -0.002000
v 0.080765 -0.048152 -0.002000
v 0.082000 -0.050000 -0.002000
v 0.081848 -0.049235 -0.002000
v 0.081848 -0.050765 -0.002000
v 0.081414 -0.048586 -0.002000
v 0.080000 -0.052000 -0.002000
v 0.081414 -0.051414 -0.002000
v 0.080000 -0.048000 -0.002000
v 0.078000 -0.050000 0.002000
v 0.078152 -0.050765 0.002000
v 0.078152 -0.049235 0.002000
v 0.079235 -0.048152 0.002000
v 0.079235 -0.051848 0.002000
v 0.078586 -0.048586 0.002000
v 0.078586 -0.051414 0.002000
v 0.080765 -0.051848 0.002000
v 0.080765 -0.048152 0.002000
v 0.082000 -0.050000 0.002000
v 0.081848 -0.049235 0.002000
v 0.081848 -0.050765 0.002000
v 0.081414 -0.048586 0.002000
v 0.080000 -0.052000 0.002000
v 0.081414 -0.051414 0.002000
v 0.080000 -0.048000 0.002000
v 0.078000 0.050000 -0.002000
v 0.078152 0.049235 -0.002000
v 0.078152 0.050765 -0.002000
v 0.079235 0.048152 -0.002000
v 0.079235 0.051848 -0.002000
v 0.078586 0.048586 -0.002000
v 0.078586 0.051414 -0.002000
v 0.081414 0.048586 -0.002000
v 0.080765 0.048152 -0.002000
v 0.080765 0.051848 -0.002000
v 0.082000 0.050000 -0.002000
v 0.081848 0.050765 -0.002000
v 0.081848 0.049235 -0.002000
v 0.081414 0.051414 -0.002000
v 0.080000 0.052000 -0.002000
v 0.080000 0.048000 -0.002000
v 0.078000 0.050000 0.002000
v 0.078152 0.049235 0.002000
v 0.078152 0.050765 0.002000
v 0.079235 0.048152 0.002000
v 0.079235 0.051848 0.002000
v 0.078586 0.048586 0.002000
v 0.078586 0.051414 0.002000
v 0.081414 0.048586 0.002000
v 0.080765 0.048152 0.002000
v 0.080765 0.051848 0.002000
v 0.082000 0.050000 0.002000
v 0.081848 0.050765 0.002000
v 0.081848 0.049235 0.002000
v 0.081414 0.051414 0.002000
v 0.080000 0.052000 0.002000
v 0.080000 0.048000 0.002000
v 0.098000 -0.050000 -0.002000
v 0.098152 -0.050765 -0.002000
v 0.098152 -0.049235 -0.002000
v 0.099235 -0.051848 -0.002000
v 0.098586 -0.051414 -0.002000
v 0.099235 -0.048152 -0.002000
v 0.098586 -0.048586 -0.002000
v 0.100765 -0.051848 -0.002000
v 0.100765 -0.048152 -0.002000
v 0.102000 -0.050000 -0.002000
v 0.101848 -0.049235 -0.002000
v 0.101848 -0.050765 -0.002000
v 0.101414 -0.048586 -0.002000
v 0.100000 -0.052000 -0.002000
v 0.101414 -0.051414 -0.002000
v 0.100000 -0.048000 -0.002000
v 0.098000 -0.050000 0.002000
v 0.098152 -0.050765 0.002000
v 0.098152 -0.049235 0.002000
v 0.099235 -0.048152 0.002000
v 0.099235 -0.051848 0.002000
v 0.098586 -0.048586 0.002000
v 0.098586 -0.051414 0.002000
v 0.100765 -0.051848 0.002000
v 0.100765 -0.048152 0.002000
v 0.102000 -0.050000 0.002000
v 0.101848 -0.049235 0.002000
v 0.101848 -0.050765 0.002000
v 0.101414 -0.048586 0.002000
v 0.100000 -0.052000 0.002000
v 0.101414 -0.051414 0.002000
v 0.100000 -0.048000 0.002000
v 0.098000 -0.030000 -0.002000
v 0.098152 -0.030765 -0.002000
v 0.098152 -0.029235 -0.002000
v 0.099235 -0.031848 -0.002000
v 0.099235 -0.028152 -0.002000
v 0.098586 -0.031414 -0.002000
v 0.098586 -0.028586 -0.002000
v 0.101414 -0.031414 -0.002000
v 0.100765 -0.031848 -0.002000
v 0.100765 -0.028152 -0.002000
v 0.102000 -0.030000 -0.002000
v 0.101848 -0.029235 -0.002000
v 0.101848 -0.030765 -0.002000
v 0.101414 -0.028586 -0.002000
v 0.100000 -0.032000 -0.002000
v 0.100000 -0.028000 -0.002000
v 0.102000 -0.030000 0.002000
v 0.101848 -0.029235 0.002000
v 0.101414 -0.028586 0.002000
v 0.098152 -0.030765 0.002000
v 0.098000 -0.030000 0.002000
v 0.098152 -0.029235 0.002000
v 0.099235 -0.031848 0.002000
v 0.098586 -0.028586 0.002000
v 0.098586 -0.031414 0.002000
v 0.099235 -0.028152 0.002000
v 0.100000 -0.028000 0.002000
v 0.101414 -0.031414 0.002000
v 0.101848 -0.030765 0.002000
v 0.100000 -0.032000 0.002000
v 0.100765 -0.031848 0.002000
v 0.100765 -0.028152 0.002000
v 0.098000 -0.010000 -0.002000
v 0.098152 -0.010765 -0.002000
v 0.098152 -0.009235 -0.002000
v 0.099235 -0.011848 -0.002000
v 0.099235 -0.008152 -0.002000
v 0.098586 -0.011414 -0.002000
v 0.098586 -0.008586 -0.002000
v 0.100638 -0.011873 -0.002000
v 0.100765 -0.011848 -0.002000
v 0.100765 -0.008152 -0.002000
v 0.102000 -0.010000 -0.002000
v 0.101848 -0.010765 -0.002000
v 0.101848 -0.009235 -0.002000
v 0.101414 -0.011414 -0.002000
v 0.101414 -0.008586 -0.002000
v 0.100000 -0.008000 -0.002000
v 0.100000 -0.012000 -0.002000
v 0.098000 -0.010000 0.002000
v 0.098152 -0.010765 0.002000
v 0.098152 -0.009235 0.002000
v 0.099235 -0.011848 0.002000
v 0.099235 -0.008152 0.002000
v 0.098586 -0.011414 0.002000
v 0.098586 -0.008586 0.002000
v 0.101414 -0.011414 0.002000
v 0.100765 -0.011848 0.002000
v 0.100765 -0.008152 0.002000
v 0.102000 -0.010000 0.002000
v 0.101848 -0.009235 0.002000
v 0.101848 -0.010765 0.002000
v 0.101414 -0.008586 0.002000
v 0.100000 -0.012000 0.002000
v 0.100000 -0.008000 0.002000
v 0.098000 0.010000 -0.002000
v 0.098152 0.009235 -0.002000
v 0.098152 0.010765 -0.002000
v 0.099235 0.008152 -0.002000
v 0.098586 0.008586 -0.002000
v 0.099235 0.011848 -0.002000
v 0.098586 0.011414 -0.002000
v 0.100765 0.008152 -0.002000
v 0.100765 0.011848 -0.002000
v 0.102000 0.010000 -0.002000
v 0.101848 0.010765 -0.002000
v 0.101848 0.009235 -0.002000
v 0.101414 0.011414 -0.002000
v 0.101414 0.008586 -0.002000
v 0.100000 0.012000 -0.002000
v 0.100000 0.008000 -0.002000
v 0.098000 0.010000 0.002000
v 0.098152 0.009235 0.002000
v 0.098152 0.010765 0.002000
v 0.099235 0.008152 0.002000
v 0.098586 0.008586 0.002000
v 0.099235 0.011848 0.002000
v 0.098586 0.011414 0.002000
v 0.100765 0.008152 0.002000
v 0.100765 0.011848 0.002000
v 0.102000 0.010000 0.002000
v 0.101848 0.010765 0.002000
v 0.101848 0.009235 0.002000
v 0.101414 0.011414 0.002000
v 0.101414 0.008586 0.002000
v 0.100000 0.012000 0.002000
v 0.100000 0.008000 0.002000
v 0.098000 0.030000 -0.002000
v 0.098152 0.029235 -0.002000
v 0.098152 0.030765 -0.002000
v 0.099235 0.028152 -0.002000
v 0.098586 0.028586 -0.002000
v 0.099235 0.031848 -0.002000
v 0.098586 0.031414 -0.002000
v 0.100765 0.028152 -0.002000
v 0.100765 0.031848 -0.002000
v 0.102000 0.030000 -0.002000
v 0.101848 0.030765 -0.002000
v 0.101848 0.029235 -0.002000
v 0.101414 0.031414 -0.002000
v 0.101414 0.028586 -0.002000
v 0.100000 0.032000 -0.002000
v 0.100000 0.028000 -0.002000
v 0.098000 0.030000 0.002000
v 0.098152 0.029235 0.002000
v 0.098152 0.030765 0.002000
v 0.099235 0.028152 0.002000
v 0.099235 0.031848 0.002000
v 0.098586 0.028586 0.002000
v 0.098586 0.031414 0.002000
v 0.101414 0.028586 0.002000
v 0.100765 0.028152 0.002000
v 0.100765 0.031848 0.002000
v 0.102000 0.030000 0.002000
v 0.101848 0.030765 0.002000
v 0.101848 0.029235 0.002000
v 0.101414 0.031414 0.002000
v 0.100000 0.032000 0.002000
v 0.100000 0.028000 0.002000
v 0.098000 0.050000 -0.002000
v 0.098152 0.049235 -0.002000
v 0.098152 0.050765 -0.002000
v 0.099235 0.048152 -0.002000
v 0.098586 0.048586 -0.002000
v 0.099235 0.051848 -0.002000
v 0.098586 0.051414 -0.002000
v 0.100765 0.048152 -0.002000
v 0.100765 0.051848 -0.002000
v 0.102000 0.050000 -0.002000
v 0.101848 0.050765 -0.002000
v 0.101848 0.049235 -0.002000
v 0.101414 0.051414 -0.002000
v 0.101414 0.048586 -0.002000
v 0.100000 0.052000 -0.002000
v 0.100000 0.048000 -0.002000
v 0.098000 0.050000 0.002000
v 0.098152 0.049235 0.002000
v 0.098152 0.050765 0.002000
v 0.099235 0.048152 0.002000
v 0.098586 0.048586 0.002000
v 0.099235 0.051848 0.002000
v 0.098586 0.051414 0.002000
v 0.100765 0.048152 0.002000
v 0.100765 0.051848 0.002000
v 0.102000 0.050000 0.002000
v 0.101848 0.050765 0.002000
v 0.101848 0.049235 0.002000
v 0.101414 0.051414 0.002000
v 0.101414 0.048586 0.002000
v 0.100000 0.052000 0.002000
v 0.100000 0.048000 0.002000
v -0.041946 -0.050272 -0.002000
v 0.018797 -0.051555 0.002000
v -0.101555 -0.031203 0.002000
vn -1.0000 -0.0000 -0.0000
vn -0.0000 -0.0000 -1.0000
vn 1.0000 -0.0000 -0.0000
vn -0.0000 -0.0000 1.0000
vn -0.0000 -1.0000 -0.0000
vn -0.0000 1.0000 -0.0000
vn -0.1949 -0.9808 -0.0000
vn -0.5559 -0.8313 -0.0000
vn -0.8313 -0.5559 -0.0000
vn -0.9808 -0.1949 -0.0000
vn -0.9808 0.1949 -0.0000
vn -0.8313 0.5559 -0.0000
vn -0.5559 0.8313 -0.0000
vn -0.1949 0.9808 -0.0000
vn 0.1949 0.9808 -0.0000
vn 0.5559 0.8313 -0.0000
vn 0.8313 0.5559 -0.0000
vn 0.9808 0.1949 -0.0000
vn 0.9808 -0.1949 -0.0000
vn 0.8313 -0.5559 -0.0000
vn 0.5559 -0.8313 -0.0000
vn 0.1949 -0.9808 -0.0000
vn 0.8313 -0.5558 -0.0000
vn 0.5586 0.8294 -0.0006
vn 0.1949 -0.9808 0.0001
vn 0.9808 0.1950 -0.0000
vn -0.8314 0.5557 -0.0000
vn 0.8334 0.5527 0.0007
vn -0.8311 -0.5561 -0.0000
vn 0.8309 -0.5564 -0.0000
vn 0.8314 0.5556 0.0001
vn 0.5556 -0.8314 -0.0001
vn 0.9809 0.1943 -0.0000
vn -0.8316 -0.5554 0.0001
vn 0.8304 -0.5572 0.0003
vn 0.9809 0.1945 0.0001
vn -0.5559 -0.8313 -0.0001
vn 0.9813 -0.1926 -0.0004
vn 0.8300 -0.5578 -0.0004
vn -0.0000 0.0019 -1.0000
vn 0.8311 -0.5561 -0.0000
vn 0.8294 0.5586 -0.0006
vn 0.9852 -0.1713 0.0047
vn 0.8294 -0.5586 -0.0000
vn 0.5557 0.8314 -0.0000
vn 0.5557 -0.8314 -0.0000
vn -0.1952 0.9808 0.0001
vn -0.0000 -0.0001 -1.0000
vn 0.8315 0.5556 -0.0000
vn 0.8312 0.5560 -0.0000
vn 0.8312 -0.5560 -0.0000
vn 0.5551 0.8318 -0.0000
vn 0.1932 -0.9812 -0.0000
vn 0.1952 -0.9808 -0.0000
vn 0.9811 0.1935 -0.0000
vn -0.8311 0.5561 -0.0000
vn 0.8309 0.5564 -0.0000
vn -0.8314 -0.5557 -0.0000
vn 0.8334 -0.5527 -0.0000
vn 0.5560 -0.8312 -0.0000
vn 0.9807 0.1956 -0.0000
vn -0.8294 -0.5586 -0.0000
vn 0.8320 -0.5547 -0.0000
vn 0.9813 0.1926 -0.0000
vn -0.0000 0.0001 1.0000
vn 0.9799 0.1993 -0.0000
vn 0.9807 0.1955 -0.0001
vn -0.5554 -0.8316 -0.0000
vn -0.5575 -0.8302 -0.0000
vn 0.9807 -0.1955 -0.0000
vn 0.8316 -0.5554 -0.0000
vn -0.0000 0.0002 -1.0000
vn 0.8321 -0.5547 -0.0000
vn 0.8318 0.5551 -0.0000
vn 0.9807 -0.1956 -0.0000
vn 0.8318 -0.5551 -0.0000
vn 0.5580 0.8298 -0.0000
vn 0.5580 -0.8298 -0.0000
vn -0.1932 0.9812 -0.0000
vn -0.0000 -0.0007 -1.0000
s 0
usemtl ChassisMetal
f 1//1 4//1 3//1
f 43//2 14//2 15//2
f 76//2 48//2 4//2
f 283//2 284//2 51//2
f 7//2 954//2 984//2
f 795//2 983//2 979//2
f 927//2 795//2 946//2
f 884//2 795//2 913//2
f 796//2 886//2 882//2
f 7//2 762//2 820//2
f 663//2 591//2 594//2
f 347//2 411//2 409//2
f 655//2 723//2 724//2
f 632//2 689//2 688//2
f 660//2 590//2 661//2
f 621//2 562//2 620//2
f 583//2 519//2 586//2
f 553//2 483//2 554//2
f 418//2 487//2 424//2
f 447//2 449//2 378//2
f 356//2 422//2 351//2
f 310//2 377//2 386//2
f 287//2 1009//2 281//2
f 221//2 278//2 216//2
f 255//2 4//2 8//2
f 19//2 213//2 18//2
f 158//2 4//2 175//2
f 4//2 145//2 143//2
f 84//2 58//2 78//2
f 7//3 6//3 5//3
f 777//4 5//4 845//4
f 5//4 878//4 842//4
f 903//4 462//4 403//4
f 807//4 901//4 929//4
f 810//4 993//4 995//4
f 936//4 912//4 906//4
f 812//4 943//4 962//4
f 6//4 669//4 683//4
f 5//4 781//4 772//4
f 681//4 735//4 737//4
f 643//4 5//4 706//4
f 674//4 606//4 672//4
f 5//4 646//4 579//4
f 600//4 538//4 598//4
f 507//4 1010//4 568//4
f 468//4 530//4 532//4
f 502//4 439//4 499//4
f 434//4 372//4 431//4
f 6//4 407//4 476//4
f 365//4 294//4 362//4
f 269//4 267//4 338//4
f 229//4 1//4 5//4
f 2//4 174//4 196//4
f 2//4 131//4 160//4
f 2//4 108//4 126//4
f 2//4 61//4 93//4
f 30//4 28//4 74//4
f 3//5 5//5 1//5
f 8//6 2//6 6//6
f 24//7 33//7 40//7
f 17//8 38//8 33//8
f 38//9 19//9 35//9
f 35//10 18//10 34//10
f 34//11 20//11 36//11
f 36//12 21//12 37//12
f 37//13 16//13 32//13
f 32//14 23//14 39//14
f 39//15 12//15 29//15
f 29//16 13//16 31//16
f 13//17 26//17 31//17
f 10//18 25//18 26//18
f 9//19 27//19 25//19
f 11//20 30//20 27//20
f 15//21 28//21 30//21
f 14//22 40//22 28//22
f 52//7 67//7 65//7
f 58//8 72//8 67//8
f 72//9 56//9 70//9
f 70//10 54//10 68//10
f 68//11 55//11 69//11
f 69//12 57//12 71//12
f 71//13 49//13 66//13
f 66//14 50//14 63//14
f 63//15 51//15 62//15
f 62//16 47//16 59//16
f 59//2 74//2 1011//2
f 43//18 73//18 74//18
f 41//19 75//19 73//19
f 60//23 44//23 61//23
f 46//21 64//21 61//21
f 48//22 65//22 64//22
f 83//7 101//7 108//7
f 92//8 106//8 101//8
f 106//9 90//9 103//9
f 103//10 88//10 102//10
f 102//11 89//11 104//11
f 104//12 86//12 105//12
f 105//13 87//13 100//13
f 100//14 82//14 107//14
f 107//15 84//15 96//15
f 96//24 78//24 79//24
f 79//17 94//17 97//17
f 80//18 93//18 94//18
f 76//19 95//19 93//19
f 77//20 99//20 95//20
f 81//21 98//21 99//21
f 85//22 108//22 98//22
f 125//7 135//7 142//7
f 119//8 140//8 135//8
f 140//9 121//9 137//9
f 137//10 120//10 136//10
f 136//11 122//11 138//11
f 138//12 117//12 139//12
f 139//13 118//13 134//13
f 134//14 124//14 141//14
f 141//15 112//15 129//15
f 129//16 115//16 130//16
f 115//17 127//17 130//17
f 110//18 126//18 127//18
f 109//19 128//19 126//19
f 111//20 133//20 128//20
f 116//21 132//21 133//21
f 113//25 142//25 132//25
f 158//7 167//7 174//7
f 151//8 172//8 167//8
f 172//9 154//9 169//9
f 169//10 153//10 168//10
f 168//11 152//11 170//11
f 170//12 155//12 171//12
f 171//13 150//13 166//13
f 166//14 157//14 173//14
f 173//15 146//15 162//15
f 162//16 148//16 163//16
f 148//17 160//17 163//17
f 144//18 159//18 160//18
f 143//19 161//19 159//19
f 145//20 165//20 161//20
f 149//21 164//21 165//21
f 147//22 174//22 164//22
f 190//7 200//7 206//7
f 184//8 204//8 200//8
f 204//9 186//9 202//9
f 202//10 185//10 201//10
f 201//11 187//11 203//11
f 203//12 182//12 198//12
f 198//13 183//13 199//13
f 199//14 189//14 205//14
f 205//15 178//15 194//15
f 194//16 180//16 196//16
f 180//17 192//17 196//17
f 176//18 191//18 192//18
f 175//19 193//19 191//19
f 177//20 197//20 193//20
f 181//21 195//21 197//21
f 179//22 206//22 195//22
f 223//7 233//7 239//7
f 220//8 238//8 233//8
f 238//9 221//9 236//9
f 216//10 236//10 221//10
f 234//11 214//11 235//11
f 235//12 211//12 237//12
f 237//13 209//13 232//13
f 232//14 208//14 229//14
f 229//15 207//15 227//15
f 227//16 210//16 230//16
f 210//17 225//17 230//17
f 212//26 213//26 224//26
f 215//19 226//19 224//19
f 217//20 231//20 226//20
f 219//21 228//21 231//21
f 218//22 239//22 228//22
f 255//7 264//7 271//7
f 248//8 269//8 264//8
f 269//9 251//9 267//9
f 267//10 249//10 265//10
f 265//11 250//11 266//11
f 266//12 252//12 268//12
f 268//13 247//13 263//13
f 263//14 254//14 270//14
f 270//15 243//15 259//15
f 259//16 245//16 261//16
f 245//17 257//17 261//17
f 241//18 256//18 257//18
f 240//19 258//19 256//19
f 242//20 262//20 258//20
f 246//21 260//21 262//21
f 244//22 271//22 260//22
f 285//7 298//7 299//7
f 286//8 301//8 298//8
f 301//9 287//9 300//9
f 300//10 281//10 294//10
f 294//11 279//11 291//11
f 292//27 279//27 303//27
f 303//13 274//13 306//13
f 306//14 273//14 305//14
f 305//15 272//15 304//15
f 304//16 275//16 302//16
f 290//28 275//28 289//28
f 277//18 278//18 293//18
f 280//19 296//19 293//19
f 282//20 295//20 296//20
f 284//21 297//21 295//21
f 283//22 299//22 297//22
f 324//7 342//7 341//7
f 323//8 339//8 342//8
f 327//29 309//29 326//29
f 326//10 312//10 335//10
f 335//11 317//11 336//11
f 336//12 319//12 334//12
f 334//13 316//13 333//13
f 333//14 318//14 337//14
f 337//15 314//15 332//15
f 332//16 315//16 331//16
f 315//17 329//17 331//17
f 313//18 330//18 329//18
f 311//19 325//19 330//19
f 328//30 308//30 338//30
f 320//21 340//21 338//21
f 322//22 341//22 340//22
f 358//7 371//7 370//7
f 355//8 375//8 371//8
f 375//9 356//9 374//9
f 374//10 351//10 372//10
f 372//11 349//11 373//11
f 373//12 347//12 364//12
f 364//13 345//13 360//13
f 360//14 344//14 361//14
f 361//15 343//15 359//15
f 359//16 346//16 363//16
f 362//31 346//31 365//31
f 348//18 350//18 366//18
f 350//19 368//19 366//19
f 352//20 367//20 368//20
f 354//21 369//21 367//21
f 353//22 370//22 369//22
f 379//7 401//7 407//7
f 378//8 406//8 401//8
f 406//9 391//9 404//9
f 404//10 389//10 402//10
f 402//11 390//11 403//11
f 403//12 392//12 405//12
f 405//13 387//13 400//13
f 400//14 384//14 408//14
f 408//15 383//15 396//15
f 396//16 385//16 398//16
f 385//17 394//17 398//17
f 381//18 393//18 394//18
f 380//19 395//19 393//19
f 382//20 399//20 395//20
f 399//32 377//32 376//32
f 376//22 407//22 397//22
f 420//7 438//7 442//7
f 417//8 441//8 438//8
f 441//9 418//9 440//9
f 440//10 424//10 439//10
f 439//11 423//11 433//11
f 433//12 412//12 429//12
f 429//13 413//13 430//13
f 430//14 409//14 426//14
f 426//15 411//15 427//15
f 427//16 410//16 428//16
f 410//17 432//17 428//17
f 431//33 422//33 434//33
f 425//19 435//19 434//19
f 414//20 437//20 435//20
f 416//21 436//21 437//21
f 415//22 442//22 436//22
f 457//7 475//7 476//7
f 451//8 474//8 475//8
f 471//34 456//34 470//34
f 470//10 452//10 468//10
f 468//11 453//11 469//11
f 469//12 455//12 467//12
f 467//13 450//13 466//13
f 466//14 458//14 465//14
f 465//15 446//15 462//15
f 462//16 448//16 463//16
f 448//17 460//17 463//17
f 444//18 459//18 460//18
f 443//19 461//19 459//19
f 464//35 445//35 472//35
f 449//21 473//21 472//21
f 447//22 476//22 473//22
f 480//7 506//7 511//7
f 482//8 510//8 506//8
f 510//9 484//9 509//9
f 509//10 483//10 507//10
f 488//11 507//11 483//11
f 508//12 490//12 501//12
f 501//13 492//13 498//13
f 498//14 493//14 497//14
f 497//15 494//15 495//15
f 495//16 491//16 496//16
f 491//17 500//17 496//17
f 489//36 486//36 502//36
f 485//19 505//19 502//19
f 477//20 504//20 505//20
f 479//21 503//21 504//21
f 478//22 511//22 503//22
f 528//7 544//7 545//7
f 523//37 542//37 544//37
f 542//9 520//9 540//9
f 540//10 518//10 538//10
f 538//11 519//11 539//11
f 539//12 517//12 537//12
f 537//13 516//13 536//13
f 536//14 521//14 533//14
f 533//15 515//15 534//15
f 534//16 514//16 535//16
f 514//17 531//17 535//17
f 513//18 530//18 531//18
f 532//38 512//38 541//38
f 541//39 525//39 526//39
f 526//21 546//21 543//21
f 527//22 545//22 546//22
f 564//7 572//7 571//7
f 561//8 577//8 572//8
f 577//9 563//9 575//9
f 575//10 562//10 573//10
f 573//11 555//11 574//11
f 574//12 549//12 576//12
f 576//13 552//13 580//13
f 580//14 551//14 579//14
f 579//15 550//15 578//15
f 578//40 568//40 1010//40
f 547//17 553//17 565//17
f 553//18 556//18 566//18
f 556//19 567//19 566//19
f 559//20 569//20 567//20
f 558//21 570//21 569//21
f 557//22 571//22 570//22
f 597//7 614//7 613//7
f 596//8 611//8 614//8
f 611//9 591//9 608//9
f 608//10 589//10 606//10
f 606//11 590//11 607//11
f 607//12 588//12 605//12
f 605//13 587//13 604//13
f 604//14 592//14 609//14
f 609//15 584//15 601//15
f 601//16 585//16 602//16
f 585//17 599//17 602//17
f 582//18 598//18 599//18
f 581//19 600//19 598//19
f 603//41 586//41 610//41
f 593//21 612//21 610//21
f 595//22 613//22 612//22
f 627//7 641//7 648//7
f 628//8 645//8 641//8
f 645//9 632//9 643//9
f 643//10 630//10 642//10
f 642//11 631//11 644//11
f 644//12 622//12 647//12
f 647//13 617//13 640//13
f 640//14 618//14 646//14
f 646//15 619//15 637//15
f 637//16 616//16 639//16
f 616//42 615//42 634//42
f 621//18 623//18 633//18
f 623//19 635//19 633//19
f 626//20 638//20 635//20
f 625//21 636//21 638//21
f 624//22 648//22 636//22
f 665//7 669//7 670//7
f 666//8 683//8 669//8
f 683//9 658//9 682//9
f 682//10 656//10 680//10
f 680//11 657//11 681//11
f 681//12 655//12 679//12
f 679//13 654//13 678//13
f 678//14 659//14 675//14
f 675//15 653//15 676//15
f 676//16 652//16 677//16
f 652//17 673//17 677//17
f 650//18 672//18 673//18
f 672//43 651//43 660//43
f 667//44 661//44 668//44
f 663//21 671//21 668//21
f 664//22 670//22 671//22
f 700//7 710//7 717//7
f 694//8 716//8 710//8
f 716//9 697//9 714//9
f 714//10 695//10 711//10
f 711//11 696//11 713//11
f 713//12 698//12 715//12
f 715//13 687//13 709//13
f 709//14 686//14 706//14
f 706//15 684//15 704//15
f 685//45 707//45 684//45
f 692//17 702//17 707//17
f 688//18 701//18 702//18
f 689//19 703//19 701//19
f 690//20 708//20 703//20
f 693//21 705//21 708//21
f 691//22 717//22 705//22
f 733//7 751//7 750//7
f 734//8 747//8 751//8
f 747//9 729//9 746//9
f 746//10 727//10 744//10
f 744//11 728//11 745//11
f 745//12 726//12 743//12
f 743//13 725//13 742//13
f 742//14 731//14 748//14
f 748//15 721//15 740//15
f 740//16 722//16 741//16
f 722//17 736//17 741//17
f 719//18 735//18 736//18
f 718//19 737//19 735//19
f 720//20 739//20 737//20
f 738//46 723//46 749//46
f 732//22 750//22 749//22
f 767//7 776//7 783//7
f 760//8 780//8 776//8
f 780//9 762//9 778//9
f 778//10 761//10 777//10
f 777//11 763//11 779//11
f 779//12 766//12 782//12
f 782//13 759//13 775//13
f 775//14 765//14 781//14
f 781//15 755//15 772//15
f 772//16 756//16 774//16
f 756//17 769//17 774//17
f 753//18 768//18 769//18
f 752//19 770//19 768//19
f 754//20 773//20 770//20
f 758//21 771//21 773//21
f 757//22 783//22 771//22
f 798//7 809//7 814//7
f 793//8 813//8 809//8
f 813//9 795//9 811//9
f 811//10 794//10 810//10
f 810//11 796//11 812//11
f 812//12 791//12 807//12
f 807//13 792//13 808//13
f 808//14 799//14 815//14
f 815//15 787//15 803//15
f 803//16 789//16 805//16
f 789//17 801//17 805//17
f 785//18 800//18 801//18
f 784//19 802//19 800//19
f 786//20 806//20 802//20
f 790//21 804//21 806//21
f 788//22 814//22 804//22
f 831//7 840//7 847//7
f 824//8 844//8 840//8
f 844//9 826//9 842//9
f 842//10 825//10 841//10
f 841//11 827//11 843//11
f 843//12 830//12 846//12
f 846//13 823//13 839//13
f 839//14 829//14 845//14
f 845//15 819//15 836//15
f 836//16 820//16 838//16
f 820//17 833//17 838//17
f 817//18 832//18 833//18
f 816//19 834//19 832//19
f 818//20 837//20 834//20
f 822//21 835//21 837//21
f 821//22 847//22 835//22
f 863//7 879//7 874//7
f 857//8 866//8 879//8
f 866//9 859//9 865//9
f 865//10 858//10 864//10
f 864//11 860//11 876//11
f 876//12 855//12 875//12
f 875//13 856//13 878//13
f 878//14 862//14 877//14
f 877//15 851//15 870//15
f 870//16 853//16 872//16
f 853//17 867//17 872//17
f 849//18 868//18 867//18
f 848//19 869//19 868//19
f 850//20 871//20 869//20
f 854//21 873//21 871//21
f 852//22 874//22 873//22
f 895//7 906//7 912//7
f 889//8 910//8 906//8
f 910//9 892//9 908//9
f 908//10 890//10 907//10
f 907//11 891//11 909//11
f 909//12 893//12 904//12
f 904//13 888//13 905//13
f 905//47 887//47 896//47
f 911//15 883//15 900//15
f 900//16 885//16 902//16
f 885//17 898//17 902//17
f 881//18 897//18 898//18
f 880//19 899//19 897//19
f 882//20 903//20 899//20
f 886//21 901//21 903//21
f 884//22 912//22 901//22
f 927//7 937//7 943//7
f 921//8 941//8 937//8
f 941//9 923//9 939//9
f 939//10 922//10 938//10
f 938//11 924//11 940//11
f 940//12 926//12 942//12
f 942//13 920//13 936//13
f 936//14 928//14 944//14
f 944//15 916//15 932//15
f 932//16 917//16 933//16
f 917//17 930//17 933//17
f 914//18 929//18 930//18
f 913//19 931//19 929//19
f 915//20 935//20 931//20
f 919//21 934//21 935//21
f 918//22 943//22 934//22
f 959//7 970//7 975//7
f 953//8 974//8 970//8
f 974//9 955//9 972//9
f 972//10 954//10 971//10
f 971//11 956//11 973//11
f 973//12 958//12 968//12
f 968//13 952//13 969//13
f 969//14 960//14 976//14
f 976//15 948//15 964//15
f 964//16 949//16 966//16
f 949//17 962//17 966//17
f 946//18 961//18 962//18
f 945//19 963//19 961//19
f 947//20 967//20 963//20
f 951//21 965//21 967//21
f 950//22 975//22 965//22
f 991//7 1001//7 1007//7
f 985//8 1005//8 1001//8
f 1005//9 987//9 1003//9
f 1003//10 986//10 1002//10
f 1002//11 988//11 1004//11
f 1004//12 990//12 1006//12
f 1006//13 984//13 1000//13
f 1000//14 992//14 1008//14
f 1008//15 980//15 996//15
f 996//16 981//16 997//16
f 981//17 994//17 997//17
f 978//18 993//18 994//18
f 977//19 995//19 993//19
f 979//20 999//20 995//20
f 983//21 998//21 999//21
f 982//22 1007//22 998//22
f 1//1 2//1 4//1
f 10//2 13//2 3//2
f 4//2 44//2 45//2
f 4//2 45//2 41//2
f 9//2 10//2 3//2
f 11//2 9//2 3//2
f 3//2 4//2 41//2
f 43//2 42//2 24//2
f 3//2 41//2 43//2
f 15//2 11//2 3//2
f 43//2 24//2 14//2
f 15//2 3//2 43//2
f 112//2 124//2 92//2
f 112//2 92//2 83//2
f 115//2 112//2 83//2
f 115//2 83//2 85//2
f 110//2 115//2 85//2
f 110//2 85//2 81//2
f 109//2 110//2 81//2
f 109//2 81//2 77//2
f 109//2 77//2 76//2
f 4//2 113//2 114//2
f 46//2 44//2 4//2
f 78//2 52//2 48//2
f 48//2 46//2 4//2
f 4//2 114//2 116//2
f 4//2 116//2 111//2
f 79//2 78//2 48//2
f 80//2 79//2 48//2
f 4//2 111//2 109//2
f 76//2 80//2 48//2
f 4//2 109//2 76//2
f 179//2 181//2 4//2
f 4//2 242//2 240//2
f 4//2 240//2 241//2
f 190//2 179//2 4//2
f 184//2 190//2 4//2
f 4//2 241//2 245//2
f 4//2 245//2 243//2
f 188//2 184//2 4//2
f 188//2 4//2 243//2
f 188//2 243//2 254//2
f 186//2 188//2 254//2
f 185//2 186//2 254//2
f 187//2 185//2 254//2
f 182//2 187//2 254//2
f 156//2 189//2 183//2
f 183//2 182//2 254//2
f 156//2 183//2 254//2
f 154//2 156//2 254//2
f 154//2 254//2 247//2
f 153//2 154//2 247//2
f 153//2 247//2 252//2
f 152//2 153//2 252//2
f 250//2 249//2 308//2
f 155//2 152//2 252//2
f 252//2 250//2 308//2
f 252//2 308//2 307//2
f 155//2 252//2 307//2
f 155//2 307//2 311//2
f 121//2 157//2 150//2
f 150//2 155//2 311//2
f 150//2 311//2 313//2
f 120//2 121//2 150//2
f 120//2 150//2 313//2
f 120//2 313//2 315//2
f 122//2 120//2 315//2
f 122//2 315//2 314//2
f 117//2 122//2 314//2
f 117//2 314//2 318//2
f 92//2 124//2 118//2
f 117//2 318//2 316//2
f 92//2 118//2 117//2
f 91//2 92//2 117//2
f 117//2 316//2 319//2
f 91//2 117//2 319//2
f 90//2 91//2 319//2
f 88//2 90//2 319//2
f 89//2 88//2 319//2
f 89//2 319//2 317//2
f 312//2 310//2 380//2
f 312//2 380//2 381//2
f 317//2 312//2 381//2
f 317//2 381//2 385//2
f 89//2 317//2 385//2
f 89//2 385//2 383//2
f 86//2 89//2 383//2
f 86//2 383//2 384//2
f 58//2 82//2 87//2
f 86//2 384//2 387//2
f 58//2 87//2 86//2
f 53//2 58//2 86//2
f 86//2 387//2 392//2
f 53//2 86//2 392//2
f 56//2 53//2 392//2
f 54//2 56//2 392//2
f 55//2 54//2 392//2
f 57//2 55//2 392//2
f 391//2 388//2 443//2
f 391//2 443//2 444//2
f 389//2 391//2 444//2
f 389//2 444//2 448//2
f 390//2 389//2 448//2
f 390//2 448//2 446//2
f 392//2 390//2 446//2
f 392//2 446//2 458//2
f 57//2 392//2 458//2
f 57//2 458//2 450//2
f 57//2 450//2 455//2
f 453//2 452//2 525//2
f 455//2 453//2 525//2
f 455//2 525//2 522//2
f 57//2 455//2 522//2
f 57//2 522//2 512//2
f 57//2 512//2 513//2
f 57//2 513//2 514//2
f 57//2 514//2 515//2
f 57//2 515//2 521//2
f 57//2 521//2 516//2
f 517//2 519//2 581//2
f 57//2 516//2 517//2
f 57//2 517//2 581//2
f 57//2 581//2 582//2
f 57//2 582//2 585//2
f 57//2 585//2 584//2
f 57//2 584//2 592//2
f 57//2 592//2 587//2
f 49//2 57//2 587//2
f 588//2 590//2 651//2
f 587//2 588//2 651//2
f 587//2 651//2 649//2
f 49//2 587//2 649//2
f 49//2 649//2 650//2
f 49//2 650//2 652//2
f 49//2 652//2 653//2
f 49//2 653//2 659//2
f 654//2 655//2 718//2
f 49//2 659//2 654//2
f 49//2 654//2 718//2
f 49//2 718//2 719//2
f 49//2 719//2 722//2
f 49//2 722//2 721//2
f 49//2 721//2 731//2
f 725//2 726//2 784//2
f 49//2 731//2 725//2
f 49//2 725//2 784//2
f 49//2 784//2 785//2
f 49//2 785//2 789//2
f 49//2 789//2 787//2
f 49//2 787//2 799//2
f 792//2 791//2 852//2
f 49//2 799//2 792//2
f 49//2 792//2 852//2
f 49//2 852//2 854//2
f 50//2 49//2 854//2
f 50//2 854//2 850//2
f 50//2 850//2 848//2
f 50//2 848//2 849//2
f 50//2 849//2 853//2
f 851//2 862//2 824//2
f 50//2 853//2 851//2
f 851//2 824//2 831//2
f 851//2 831//2 821//2
f 50//2 851//2 821//2
f 50//2 821//2 822//2
f 50//2 822//2 818//2
f 818//2 816//2 764//2
f 818//2 764//2 760//2
f 818//2 760//2 767//2
f 50//2 818//2 767//2
f 50//2 767//2 757//2
f 50//2 757//2 758//2
f 50//2 758//2 754//2
f 754//2 752//2 699//2
f 754//2 699//2 694//2
f 754//2 694//2 700//2
f 50//2 754//2 700//2
f 50//2 700//2 691//2
f 50//2 691//2 693//2
f 50//2 693//2 690//2
f 690//2 689//2 629//2
f 690//2 629//2 628//2
f 690//2 628//2 627//2
f 50//2 690//2 627//2
f 50//2 627//2 624//2
f 50//2 624//2 625//2
f 50//2 625//2 626//2
f 623//2 620//2 563//2
f 50//2 626//2 623//2
f 623//2 563//2 560//2
f 623//2 560//2 561//2
f 623//2 561//2 564//2
f 50//2 623//2 564//2
f 50//2 564//2 557//2
f 50//2 557//2 558//2
f 50//2 558//2 559//2
f 556//2 554//2 484//2
f 50//2 559//2 556//2
f 556//2 484//2 481//2
f 556//2 481//2 482//2
f 556//2 482//2 480//2
f 50//2 556//2 480//2
f 50//2 480//2 478//2
f 50//2 478//2 479//2
f 50//2 479//2 477//2
f 485//2 486//2 418//2
f 50//2 477//2 485//2
f 485//2 418//2 419//2
f 485//2 419//2 417//2
f 50//2 485//2 417//2
f 50//48 417//48 420//48
f 51//2 50//2 420//2
f 51//2 420//2 415//2
f 24//2 42//2 47//2
f 51//2 415//2 416//2
f 24//2 47//2 51//2
f 17//2 24//2 51//2
f 51//2 416//2 414//2
f 414//2 425//2 356//2
f 414//2 356//2 357//2
f 22//2 17//2 51//2
f 215//2 19//2 22//2
f 217//2 215//2 22//2
f 414//2 357//2 355//2
f 414//2 355//2 358//2
f 217//2 22//2 51//2
f 219//2 217//2 51//2
f 51//2 414//2 358//2
f 51//2 358//2 353//2
f 218//2 219//2 51//2
f 223//2 218//2 51//2
f 51//2 353//2 354//2
f 352//2 350//2 287//2
f 51//2 354//2 352//2
f 220//2 223//2 51//2
f 280//2 221//2 222//2
f 222//2 220//2 51//2
f 352//2 287//2 288//2
f 352//2 288//2 286//2
f 280//2 222//2 51//2
f 282//2 280//2 51//2
f 51//2 352//2 286//2
f 51//2 286//2 285//2
f 284//2 282//2 51//2
f 51//2 285//2 283//2
f 987//2 989//2 8//2
f 7//2 887//2 888//2
f 7//2 888//2 893//2
f 986//2 987//2 8//2
f 988//2 986//2 8//2
f 7//2 893//2 891//2
f 7//2 891//2 890//2
f 988//2 8//2 7//2
f 990//2 988//2 7//2
f 984//2 990//2 7//2
f 950//2 992//2 984//2
f 959//2 950//2 984//2
f 895//2 884//2 928//2
f 895//2 928//2 920//2
f 889//2 895//2 920//2
f 889//2 920//2 926//2
f 894//2 889//2 926//2
f 894//2 926//2 924//2
f 892//2 894//2 924//2
f 892//2 924//2 922//2
f 890//2 892//2 922//2
f 7//2 890//2 922//2
f 953//2 959//2 984//2
f 957//2 953//2 984//2
f 921//2 927//2 960//2
f 921//2 960//2 952//2
f 925//2 921//2 952//2
f 925//2 952//2 958//2
f 923//2 925//2 958//2
f 923//2 958//2 956//2
f 922//2 923//2 956//2
f 922//2 956//2 954//2
f 955//2 957//2 984//2
f 7//2 922//2 954//2
f 954//2 955//2 984//2
f 980//2 992//2 950//2
f 950//2 951//2 795//2
f 8//2 989//2 985//2
f 8//2 985//2 991//2
f 980//2 950//2 795//2
f 981//2 980//2 795//2
f 795//2 8//2 991//2
f 795//2 991//2 982//2
f 978//2 981//2 795//2
f 977//2 978//2 795//2
f 795//2 982//2 983//2
f 979//2 977//2 795//2
f 948//2 960//2 927//2
f 927//2 918//2 795//2
f 795//2 951//2 947//2
f 795//2 947//2 945//2
f 949//2 948//2 927//2
f 795//2 945//2 946//2
f 946//2 949//2 927//2
f 916//2 928//2 884//2
f 884//2 794//2 795//2
f 795//2 918//2 919//2
f 795//2 919//2 915//2
f 917//2 916//2 884//2
f 914//2 917//2 884//2
f 795//2 915//2 913//2
f 913//2 914//2 884//2
f 896//2 887//2 7//2
f 7//2 830//2 827//2
f 7//2 827//2 825//2
f 883//2 896//2 7//2
f 885//2 883//2 7//2
f 7//2 825//2 826//2
f 828//2 824//2 862//2
f 7//2 826//2 828//2
f 881//2 885//2 7//2
f 7//2 828//2 862//2
f 7//2 862//2 856//2
f 7//2 856//2 855//2
f 7//2 855//2 860//2
f 7//2 860//2 858//2
f 7//2 858//2 859//2
f 881//2 7//2 859//2
f 881//2 859//2 861//2
f 880//2 881//2 861//2
f 880//2 861//2 857//2
f 880//2 857//2 863//2
f 863//2 852//2 791//2
f 796//2 794//2 884//2
f 863//2 791//2 796//2
f 880//2 863//2 796//2
f 796//2 884//2 886//2
f 882//2 880//2 796//2
f 823//2 830//2 7//2
f 7//2 763//2 761//2
f 762//2 764//2 816//2
f 7//2 761//2 762//2
f 829//2 823//2 7//2
f 819//2 829//2 7//2
f 762//2 816//2 817//2
f 820//2 819//2 7//2
f 762//2 817//2 820//2
f 786//2 784//2 726//2
f 786//2 726//2 728//2
f 790//2 786//2 728//2
f 790//2 728//2 727//2
f 788//2 790//2 727//2
f 788//2 727//2 729//2
f 798//2 788//2 729//2
f 798//2 729//2 730//2
f 798//2 730//2 734//2
f 798//2 734//2 733//2
f 732//2 723//2 657//2
f 732//2 657//2 656//2
f 733//2 732//2 656//2
f 733//2 656//2 658//2
f 733//2 658//2 662//2
f 733//2 662//2 666//2
f 733//2 666//2 665//2
f 8//2 795//2 797//2
f 524//2 523//2 8//2
f 586//2 518//2 520//2
f 520//2 524//2 8//2
f 8//2 797//2 793//2
f 8//2 793//2 798//2
f 593//2 586//2 520//2
f 595//2 593//2 520//2
f 8//2 798//2 733//2
f 8//2 733//2 665//2
f 597//2 595//2 520//2
f 597//2 520//2 8//2
f 597//2 8//2 665//2
f 596//2 597//2 665//2
f 596//2 665//2 664//2
f 594//2 596//2 664//2
f 663//2 661//2 589//2
f 594//2 664//2 663//2
f 663//2 589//2 591//2
f 766//2 763//2 7//2
f 3//2 13//2 12//2
f 3//2 12//2 23//2
f 759//2 766//2 7//2
f 765//2 759//2 7//2
f 7//2 3//2 23//2
f 7//2 23//2 16//2
f 755//2 765//2 7//2
f 7//2 16//2 21//2
f 20//2 18//2 213//2
f 699//2 752//2 753//2
f 697//2 699//2 753//2
f 697//2 753//2 756//2
f 695//2 697//2 756//2
f 695//2 756//2 755//2
f 696//2 695//2 755//2
f 21//2 20//2 213//2
f 21//2 213//2 212//2
f 696//2 755//2 7//2
f 698//2 696//2 7//2
f 21//2 212//2 210//2
f 21//2 210//2 207//2
f 687//2 698//2 7//2
f 686//2 687//2 7//2
f 21//2 207//2 208//2
f 7//2 21//2 208//2
f 7//2 208//2 209//2
f 7//2 209//2 211//2
f 214//2 216//2 278//2
f 214//2 278//2 277//2
f 632//2 685//2 684//2
f 630//2 632//2 684//2
f 630//2 684//2 686//2
f 631//2 630//2 686//2
f 211//2 214//2 277//2
f 211//2 277//2 275//2
f 631//2 686//2 7//2
f 622//2 631//2 7//2
f 211//2 275//2 272//2
f 211//2 272//2 273//2
f 617//2 622//2 7//2
f 618//2 617//2 7//2
f 7//2 211//2 273//2
f 7//2 273//2 274//2
f 7//2 274//2 276//2
f 279//2 281//2 1009//2
f 562//2 615//2 616//2
f 555//2 562//2 616//2
f 555//2 616//2 619//2
f 549//2 555//2 619//2
f 549//2 619//2 618//2
f 552//2 549//2 618//2
f 276//2 279//2 1009//2
f 276//2 1009//2 348//2
f 552//2 618//2 7//2
f 551//2 552//2 7//2
f 276//2 348//2 346//2
f 276//2 346//2 343//2
f 483//2 548//2 547//2
f 488//2 483//2 547//2
f 488//2 547//2 550//2
f 490//2 488//2 550//2
f 490//2 550//2 551//2
f 492//2 490//2 551//2
f 276//2 343//2 344//2
f 7//2 276//2 344//2
f 492//2 551//2 7//2
f 493//2 492//2 7//2
f 7//2 344//2 345//2
f 7//2 345//2 347//2
f 349//2 351//2 422//2
f 349//2 422//2 421//2
f 424//2 487//2 489//2
f 423//2 424//2 489//2
f 423//2 489//2 491//2
f 412//2 423//2 491//2
f 412//2 491//2 494//2
f 413//2 412//2 494//2
f 413//2 494//2 493//2
f 409//2 413//2 493//2
f 347//2 349//2 421//2
f 347//2 421//2 410//2
f 409//2 493//2 7//2
f 347//2 410//2 411//2
f 409//2 7//2 347//2
f 720//2 718//2 655//2
f 655//2 657//2 723//2
f 724//2 720//2 655//2
f 692//2 685//2 632//2
f 632//2 629//2 689//2
f 688//2 692//2 632//2
f 660//2 651//2 590//2
f 590//2 589//2 661//2
f 621//2 615//2 562//2
f 562//2 563//2 620//2
f 583//2 581//2 519//2
f 519//2 518//2 586//2
f 553//2 548//2 483//2
f 483//2 484//2 554//2
f 418//2 486//2 487//2
f 526//2 525//2 452//2
f 526//2 452//2 454//2
f 527//2 526//2 454//2
f 527//2 454//2 456//2
f 528//2 527//2 456//2
f 528//2 456//2 451//2
f 8//2 523//2 529//2
f 528//2 451//2 457//2
f 8//2 529//2 528//2
f 376//2 377//2 309//2
f 379//2 376//2 309//2
f 8//2 528//2 457//2
f 379//2 309//2 8//2
f 443//2 388//2 378//2
f 378//2 379//2 8//2
f 378//2 8//2 457//2
f 445//2 443//2 378//2
f 449//2 445//2 378//2
f 378//2 457//2 447//2
f 356//2 425//2 422//2
f 382//2 380//2 310//2
f 310//2 309//2 377//2
f 386//2 382//2 310//2
f 287//2 350//2 1009//2
f 221//2 280//2 278//2
f 320//2 308//2 249//2
f 320//2 249//2 251//2
f 322//2 320//2 251//2
f 322//2 251//2 253//2
f 324//2 322//2 253//2
f 324//2 253//2 248//2
f 324//2 248//2 255//2
f 8//2 309//2 321//2
f 246//2 242//2 4//2
f 244//2 246//2 4//2
f 8//2 321//2 323//2
f 8//2 323//2 324//2
f 255//2 244//2 4//2
f 8//2 324//2 255//2
f 19//2 215//2 213//2
f 178//2 189//2 156//2
f 178//2 156//2 151//2
f 180//2 178//2 151//2
f 158//2 147//2 4//2
f 180//2 151//2 158//2
f 176//2 180//2 158//2
f 4//2 181//2 177//2
f 175//2 176//2 158//2
f 4//2 177//2 175//2
f 146//2 157//2 121//2
f 146//2 121//2 123//2
f 148//2 146//2 123//2
f 148//2 123//2 119//2
f 144//2 148//2 119//2
f 125//2 113//2 4//2
f 144//2 119//2 125//2
f 143//2 144//2 125//2
f 4//2 147//2 149//2
f 4//2 149//2 145//2
f 143//2 125//2 4//2
f 84//2 82//2 58//2
f 58//2 52//2 78//2
f 7//3 8//3 6//3
f 833//4 832//4 780//4
f 833//4 780//4 778//4
f 838//4 833//4 778//4
f 777//4 779//4 5//4
f 838//4 778//4 777//4
f 836//4 838//4 777//4
f 5//4 846//4 839//4
f 845//4 836//4 777//4
f 5//4 839//4 845//4
f 843//4 846//4 5//4
f 5//4 876//4 875//4
f 878//4 877//4 844//4
f 5//4 875//4 878//4
f 841//4 843//4 5//4
f 878//4 844//4 842//4
f 842//4 841//4 5//4
f 29//4 31//4 1//4
f 1//4 225//4 224//4
f 1//4 224//4 226//4
f 39//4 29//4 1//4
f 32//4 39//4 1//4
f 1//4 226//4 231//4
f 1//4 231//4 228//4
f 37//4 32//4 1//4
f 37//4 1//4 228//4
f 37//4 228//4 239//4
f 36//4 37//4 239//4
f 34//4 36//4 239//4
f 35//4 34//4 239//4
f 38//4 35//4 239//4
f 1011//4 40//4 33//4
f 33//4 38//4 239//4
f 59//4 1011//4 33//4
f 62//4 59//4 33//4
f 62//4 33//4 239//4
f 63//4 62//4 239//4
f 63//4 239//4 233//4
f 66//4 63//4 233//4
f 66//4 233//4 238//4
f 71//4 66//4 238//4
f 236//4 234//4 290//4
f 69//4 71//4 238//4
f 238//4 236//4 290//4
f 238//4 290//4 289//4
f 68//4 69//4 238//4
f 70//4 68//4 238//4
f 238//4 289//4 293//4
f 238//4 293//4 296//4
f 72//4 70//4 238//4
f 72//4 238//4 296//4
f 72//4 296//4 295//4
f 67//4 72//4 295//4
f 67//4 295//4 297//4
f 107//4 64//4 65//4
f 67//4 297//4 299//4
f 107//4 65//4 67//4
f 100//4 107//4 67//4
f 67//4 299//4 298//4
f 100//4 67//4 298//4
f 105//4 100//4 298//4
f 105//4 298//4 301//4
f 104//4 105//4 301//4
f 300//4 294//4 366//4
f 102//4 104//4 301//4
f 301//4 300//4 366//4
f 301//4 366//4 368//4
f 103//4 102//4 301//4
f 106//4 103//4 301//4
f 301//4 368//4 367//4
f 301//4 367//4 369//4
f 106//4 301//4 369//4
f 106//4 369//4 370//4
f 141//4 108//4 101//4
f 106//4 370//4 371//4
f 141//4 101//4 106//4
f 134//4 141//4 106//4
f 134//4 106//4 371//4
f 139//4 134//4 371//4
f 375//4 374//4 434//4
f 139//4 371//4 375//4
f 138//4 139//4 375//4
f 375//4 434//4 435//4
f 375//4 435//4 437//4
f 136//4 138//4 375//4
f 137//4 136//4 375//4
f 375//4 437//4 436//4
f 375//4 436//4 442//4
f 140//4 137//4 375//4
f 140//4 375//4 442//4
f 140//4 442//4 438//4
f 140//4 438//4 441//4
f 441//4 440//4 502//4
f 441//4 502//4 505//4
f 140//4 441//4 505//4
f 140//4 505//4 504//4
f 135//4 140//4 504//4
f 135//4 504//4 503//4
f 173//4 131//4 142//4
f 135//4 503//4 511//4
f 173//4 142//4 135//4
f 166//4 173//4 135//4
f 135//4 511//4 506//4
f 166//4 135//4 506//4
f 171//4 166//4 506//4
f 171//4 506//4 510//4
f 170//4 171//4 510//4
f 509//4 507//4 566//4
f 168//4 170//4 510//4
f 510//4 509//4 566//4
f 510//4 566//4 567//4
f 169//4 168//4 510//4
f 205//4 167//4 172//4
f 172//4 169//4 510//4
f 510//4 567//4 569//4
f 510//4 569//4 570//4
f 205//4 172//4 510//4
f 199//4 205//4 510//4
f 510//4 570//4 571//4
f 199//4 510//4 571//4
f 198//4 199//4 571//4
f 198//4 571//4 572//4
f 203//4 198//4 572//4
f 203//4 572//4 577//4
f 201//4 203//4 577//4
f 575//4 573//4 633//4
f 202//4 201//4 577//4
f 577//4 575//4 633//4
f 577//4 633//4 635//4
f 204//4 202//4 577//4
f 204//4 577//4 635//4
f 204//4 635//4 638//4
f 204//4 638//4 636//4
f 204//4 636//4 648//4
f 204//4 648//4 641//4
f 645//4 643//4 701//4
f 204//4 641//4 645//4
f 204//4 645//4 701//4
f 204//4 701//4 703//4
f 200//4 204//4 703//4
f 200//4 703//4 708//4
f 200//4 708//4 705//4
f 200//4 705//4 717//4
f 200//4 717//4 710//4
f 710//4 716//4 768//4
f 710//4 768//4 770//4
f 200//4 710//4 770//4
f 200//4 770//4 773//4
f 200//4 773//4 771//4
f 200//4 771//4 783//4
f 200//4 783//4 776//4
f 776//4 780//4 832//4
f 776//4 832//4 834//4
f 200//4 776//4 834//4
f 200//4 834//4 837//4
f 200//4 837//4 835//4
f 200//4 835//4 847//4
f 200//4 847//4 840//4
f 840//4 844//4 877//4
f 840//4 877//4 870//4
f 200//4 840//4 870//4
f 200//4 870//4 872//4
f 200//4 872//4 867//4
f 200//4 867//4 868//4
f 200//4 868//4 869//4
f 200//4 869//4 871//4
f 200//4 871//4 873//4
f 874//4 879//4 911//4
f 200//4 873//4 874//4
f 874//4 911//4 900//4
f 874//4 900//4 902//4
f 200//4 874//4 902//4
f 200//4 902//4 898//4
f 200//4 898//4 897//4
f 200//4 897//4 899//4
f 200//4 899//4 903//4
f 903//4 901//4 807//4
f 903//4 807//4 808//4
f 903//4 808//4 815//4
f 903//4 815//4 803//4
f 903//4 803//4 805//4
f 801//4 800//4 743//4
f 903//4 805//4 801//4
f 903//4 801//4 743//4
f 903//4 743//4 742//4
f 903//4 742//4 748//4
f 903//4 748//4 740//4
f 903//4 740//4 741//4
f 736//4 735//4 679//4
f 741//4 736//4 679//4
f 741//4 679//4 678//4
f 2//4 197//4 195//4
f 256//4 258//4 2//4
f 257//4 256//4 2//4
f 2//4 195//4 206//4
f 2//4 206//4 200//4
f 261//4 257//4 2//4
f 259//4 261//4 2//4
f 903//4 741//4 678//4
f 903//4 678//4 675//4
f 259//4 2//4 200//4
f 259//4 200//4 903//4
f 903//4 675//4 676//4
f 903//4 676//4 677//4
f 270//4 259//4 903//4
f 263//4 270//4 903//4
f 268//4 263//4 903//4
f 328//4 265//4 266//4
f 266//4 268//4 903//4
f 325//4 328//4 266//4
f 330//4 325//4 266//4
f 673//4 672//4 607//4
f 673//4 607//4 605//4
f 677//4 673//4 605//4
f 677//4 605//4 604//4
f 329//4 330//4 266//4
f 331//4 329//4 266//4
f 903//4 677//4 604//4
f 903//4 604//4 609//4
f 332//4 331//4 266//4
f 337//4 332//4 266//4
f 903//4 609//4 601//4
f 903//4 601//4 602//4
f 337//4 266//4 903//4
f 333//4 337//4 903//4
f 334//4 333//4 903//4
f 336//4 334//4 903//4
f 335//4 336//4 903//4
f 393//4 327//4 326//4
f 326//4 335//4 903//4
f 394//4 393//4 326//4
f 398//4 394//4 326//4
f 599//4 598//4 539//4
f 599//4 539//4 537//4
f 602//4 599//4 537//4
f 602//4 537//4 536//4
f 396//4 398//4 326//4
f 408//4 396//4 326//4
f 903//4 602//4 536//4
f 903//4 536//4 533//4
f 408//4 326//4 903//4
f 400//4 408//4 903//4
f 903//4 533//4 534//4
f 405//4 400//4 903//4
f 464//4 402//4 403//4
f 403//4 405//4 903//4
f 461//4 464//4 403//4
f 459//4 461//4 403//4
f 531//4 530//4 469//4
f 531//4 469//4 467//4
f 535//4 531//4 467//4
f 535//4 467//4 466//4
f 534//4 535//4 466//4
f 534//4 466//4 465//4
f 460//4 459//4 403//4
f 463//4 460//4 403//4
f 903//4 534//4 465//4
f 462//4 463//4 403//4
f 903//4 465//4 462//4
f 934//4 812//4 807//4
f 901//4 944//4 932//4
f 901//4 932//4 933//4
f 935//4 934//4 807//4
f 931//4 935//4 807//4
f 901//4 933//4 930//4
f 929//4 931//4 807//4
f 901//4 930//4 929//4
f 1001//4 1005//4 6//4
f 6//4 811//4 810//4
f 810//4 967//4 965//4
f 965//4 975//4 1008//4
f 965//4 1008//4 996//4
f 1007//4 1001//4 6//4
f 998//4 1007//4 6//4
f 810//4 965//4 996//4
f 810//4 996//4 997//4
f 998//4 6//4 810//4
f 999//4 998//4 810//4
f 810//4 997//4 994//4
f 810//4 994//4 993//4
f 995//4 999//4 810//4
f 1000//4 1008//4 975//4
f 1000//4 975//4 970//4
f 1006//4 1000//4 970//4
f 1006//4 970//4 974//4
f 1004//4 1006//4 974//4
f 1004//4 974//4 972//4
f 1002//4 1004//4 972//4
f 1002//4 972//4 971//4
f 6//4 1005//4 1003//4
f 6//4 1003//4 1002//4
f 864//4 876//4 5//4
f 865//4 864//4 5//4
f 5//4 6//4 1002//4
f 5//4 1002//4 971//4
f 5//4 971//4 973//4
f 5//4 973//4 968//4
f 5//4 968//4 969//4
f 969//4 976//4 937//4
f 969//4 937//4 941//4
f 911//4 879//4 866//4
f 905//4 911//4 866//4
f 905//4 866//4 865//4
f 904//4 905//4 865//4
f 969//4 941//4 939//4
f 969//4 939//4 938//4
f 904//4 865//4 5//4
f 909//4 904//4 5//4
f 5//4 969//4 938//4
f 5//4 938//4 940//4
f 907//4 909//4 5//4
f 907//4 5//4 940//4
f 907//4 940//4 942//4
f 908//4 907//4 942//4
f 936//4 944//4 901//4
f 908//4 942//4 936//4
f 910//4 908//4 936//4
f 936//4 901//4 912//4
f 906//4 910//4 936//4
f 967//4 810//4 812//4
f 812//4 934//4 943//4
f 943//4 937//4 976//4
f 943//4 976//4 964//4
f 963//4 967//4 812//4
f 961//4 963//4 812//4
f 943//4 964//4 966//4
f 962//4 961//4 812//4
f 943//4 966//4 962//4
f 813//4 811//4 6//4
f 6//4 471//4 470//4
f 470//4 468//4 532//4
f 470//4 532//4 541//4
f 809//4 813//4 6//4
f 814//4 809//4 6//4
f 470//4 541//4 543//4
f 470//4 543//4 546//4
f 804//4 814//4 6//4
f 470//4 546//4 545//4
f 6//4 470//4 545//4
f 6//4 545//4 544//4
f 6//4 544//4 542//4
f 6//4 542//4 540//4
f 540//4 538//4 603//4
f 540//4 603//4 610//4
f 743//4 800//4 802//4
f 745//4 743//4 802//4
f 745//4 802//4 806//4
f 744//4 745//4 806//4
f 744//4 806//4 804//4
f 746//4 744//4 804//4
f 540//4 610//4 612//4
f 540//4 612//4 613//4
f 746//4 804//4 6//4
f 747//4 746//4 6//4
f 6//4 540//4 613//4
f 6//4 613//4 614//4
f 751//4 747//4 6//4
f 750//4 751//4 6//4
f 6//4 614//4 611//4
f 608//4 606//4 667//4
f 6//4 611//4 608//4
f 608//4 667//4 668//4
f 608//4 668//4 671//4
f 681//4 738//4 749//4
f 680//4 681//4 749//4
f 680//4 749//4 750//4
f 682//4 680//4 750//4
f 608//4 671//4 670//4
f 6//4 608//4 670//4
f 682//4 750//4 6//4
f 683//4 682//4 6//4
f 6//4 670//4 669//4
f 769//4 768//4 716//4
f 769//4 716//4 714//4
f 774//4 769//4 714//4
f 711//4 712//4 5//4
f 774//4 714//4 711//4
f 772//4 774//4 711//4
f 5//4 779//4 782//4
f 5//4 782//4 775//4
f 772//4 711//4 5//4
f 5//4 775//4 781//4
f 739//4 738//4 681//4
f 681//4 679//4 735//4
f 737//4 739//4 681//4
f 702//4 701//4 643//4
f 643//4 642//4 5//4
f 5//4 712//4 713//4
f 5//4 713//4 715//4
f 707//4 702//4 643//4
f 704//4 707//4 643//4
f 5//4 715//4 709//4
f 706//4 704//4 643//4
f 5//4 709//4 706//4
f 674//4 667//4 606//4
f 606//4 607//4 672//4
f 500//4 499//4 439//4
f 500//4 439//4 433//4
f 496//4 500//4 433//4
f 496//4 433//4 429//4
f 495//4 496//4 429//4
f 495//4 429//4 430//4
f 497//4 495//4 430//4
f 497//4 430//4 426//4
f 432//4 431//4 372//4
f 432//4 372//4 373//4
f 428//4 432//4 373//4
f 428//4 373//4 364//4
f 427//4 428//4 364//4
f 427//4 364//4 360//4
f 426//4 427//4 360//4
f 426//4 360//4 361//4
f 363//4 362//4 291//4
f 5//4 642//4 644//4
f 5//4 644//4 647//4
f 363//4 291//4 292//4
f 359//4 363//4 292//4
f 5//4 647//4 640//4
f 5//4 640//4 646//4
f 361//4 359//4 292//4
f 361//4 292//4 5//4
f 426//4 361//4 5//4
f 497//4 426//4 5//4
f 498//4 497//4 5//4
f 1010//4 508//4 501//4
f 501//4 498//4 5//4
f 578//4 1010//4 501//4
f 579//4 578//4 501//4
f 634//4 633//4 573//4
f 634//4 573//4 574//4
f 639//4 634//4 574//4
f 639//4 574//4 576//4
f 637//4 639//4 576//4
f 637//4 576//4 580//4
f 646//4 637//4 580//4
f 579//4 501//4 5//4
f 646//4 580//4 579//4
f 600//4 603//4 538//4
f 538//4 539//4 598//4
f 565//4 566//4 507//4
f 507//4 508//4 1010//4
f 568//4 565//4 507//4
f 468//4 469//4 530//4
f 502//4 440//4 439//4
f 434//4 374//4 372//4
f 474//4 471//4 6//4
f 327//4 393//4 395//4
f 327//4 395//4 399//4
f 475//4 474//4 6//4
f 476//4 475//4 6//4
f 327//4 399//4 397//4
f 327//4 397//4 407//4
f 402//4 464//4 472//4
f 404//4 402//4 472//4
f 404//4 472//4 473//4
f 406//4 404//4 473//4
f 406//4 473//4 476//4
f 401//4 406//4 476//4
f 6//4 327//4 407//4
f 407//4 401//4 476//4
f 365//4 366//4 294//4
f 294//4 291//4 362//4
f 339//4 327//4 6//4
f 2//4 258//4 262//4
f 2//4 262//4 260//4
f 342//4 339//4 6//4
f 341//4 342//4 6//4
f 2//4 260//4 271//4
f 2//4 271//4 264//4
f 341//4 6//4 2//4
f 340//4 341//4 2//4
f 340//4 2//4 264//4
f 265//4 328//4 338//4
f 338//4 340//4 264//4
f 338//4 264//4 269//4
f 267//4 265//4 338//4
f 302//4 290//4 234//4
f 302//4 234//4 235//4
f 304//4 302//4 235//4
f 304//4 235//4 237//4
f 305//4 304//4 237//4
f 305//4 237//4 232//4
f 305//4 232//4 229//4
f 5//4 292//4 303//4
f 230//4 225//4 1//4
f 227//4 230//4 1//4
f 5//4 303//4 306//4
f 5//4 306//4 305//4
f 229//4 227//4 1//4
f 5//4 305//4 229//4
f 193//4 197//4 2//4
f 2//4 164//4 174//4
f 174//4 167//4 205//4
f 174//4 205//4 194//4
f 191//4 193//4 2//4
f 192//4 191//4 2//4
f 174//4 194//4 196//4
f 196//4 192//4 2//4
f 165//4 164//4 2//4
f 131//4 173//4 162//4
f 131//4 162//4 163//4
f 161//4 165//4 2//4
f 159//4 161//4 2//4
f 131//4 163//4 160//4
f 160//4 159//4 2//4
f 132//4 131//4 2//4
f 108//4 141//4 129//4
f 108//4 129//4 130//4
f 133//4 132//4 2//4
f 128//4 133//4 2//4
f 108//4 130//4 127//4
f 126//4 128//4 2//4
f 108//4 127//4 126//4
f 98//4 108//4 2//4
f 2//4 60//4 61//4
f 61//4 64//4 107//4
f 61//4 107//4 96//4
f 99//4 98//4 2//4
f 95//4 99//4 2//4
f 61//4 96//4 97//4
f 61//4 97//4 94//4
f 93//4 95//4 2//4
f 61//4 94//4 93//4
f 75//4 60//4 2//4
f 1//4 31//4 26//4
f 1//4 26//4 25//4
f 75//4 2//4 1//4
f 73//4 75//4 1//4
f 1//4 25//4 27//4
f 1//4 27//4 30//4
f 74//4 73//4 1//4
f 40//4 1011//4 74//4
f 28//4 40//4 74//4
f 74//4 1//4 30//4
f 3//5 7//5 5//5
f 8//6 4//6 2//6
f 24//7 17//7 33//7
f 17//8 22//8 38//8
f 38//9 22//9 19//9
f 35//10 19//10 18//10
f 34//11 18//11 20//11
f 36//12 20//12 21//12
f 37//13 21//13 16//13
f 32//14 16//14 23//14
f 39//15 23//15 12//15
f 29//16 12//16 13//16
f 13//17 10//17 26//17
f 10//18 9//18 25//18
f 9//19 11//19 27//19
f 11//20 15//20 30//20
f 15//21 14//21 28//21
f 14//22 24//22 40//22
f 52//7 58//7 67//7
f 58//8 53//8 72//8
f 72//9 53//9 56//9
f 70//10 56//10 54//10
f 68//11 54//11 55//11
f 69//12 55//12 57//12
f 71//13 57//13 49//13
f 66//14 49//14 50//14
f 63//15 50//15 51//15
f 62//16 51//16 47//16
f 59//49 47//49 42//49
f 42//50 43//50 74//50
f 43//18 41//18 73//18
f 41//19 45//19 75//19
f 60//51 75//51 45//51
f 44//23 46//23 61//23
f 60//51 45//51 44//51
f 46//21 48//21 64//21
f 48//22 52//22 65//22
f 83//7 92//7 101//7
f 92//8 91//8 106//8
f 106//9 91//9 90//9
f 103//10 90//10 88//10
f 102//11 88//11 89//11
f 104//12 89//12 86//12
f 105//13 86//13 87//13
f 100//14 87//14 82//14
f 107//15 82//15 84//15
f 79//16 97//16 96//16
f 96//52 84//52 78//52
f 79//17 80//17 94//17
f 80//18 76//18 93//18
f 76//19 77//19 95//19
f 77//20 81//20 99//20
f 81//21 85//21 98//21
f 85//22 83//22 108//22
f 125//7 119//7 135//7
f 119//8 123//8 140//8
f 140//9 123//9 121//9
f 137//10 121//10 120//10
f 136//11 120//11 122//11
f 138//12 122//12 117//12
f 139//13 117//13 118//13
f 134//14 118//14 124//14
f 141//15 124//15 112//15
f 129//16 112//16 115//16
f 115//17 110//17 127//17
f 110//18 109//18 126//18
f 109//19 111//19 128//19
f 111//20 116//20 133//20
f 116//21 114//21 132//21
f 132//53 114//53 113//53
f 113//54 125//54 142//54
f 142//4 131//4 132//4
f 158//7 151//7 167//7
f 151//8 156//8 172//8
f 172//9 156//9 154//9
f 169//10 154//10 153//10
f 168//11 153//11 152//11
f 170//12 152//12 155//12
f 171//13 155//13 150//13
f 166//14 150//14 157//14
f 173//15 157//15 146//15
f 162//16 146//16 148//16
f 148//17 144//17 160//17
f 144//18 143//18 159//18
f 143//19 145//19 161//19
f 145//20 149//20 165//20
f 149//21 147//21 164//21
f 147//22 158//22 174//22
f 190//7 184//7 200//7
f 184//8 188//8 204//8
f 204//9 188//9 186//9
f 202//10 186//10 185//10
f 201//11 185//11 187//11
f 203//12 187//12 182//12
f 198//13 182//13 183//13
f 199//14 183//14 189//14
f 205//15 189//15 178//15
f 194//16 178//16 180//16
f 180//17 176//17 192//17
f 176//18 175//18 191//18
f 175//19 177//19 193//19
f 177//20 181//20 197//20
f 181//21 179//21 195//21
f 179//22 190//22 206//22
f 223//7 220//7 233//7
f 220//8 222//8 238//8
f 238//9 222//9 221//9
f 216//10 234//10 236//10
f 234//11 216//11 214//11
f 235//12 214//12 211//12
f 237//13 211//13 209//13
f 232//14 209//14 208//14
f 229//15 208//15 207//15
f 227//16 207//16 210//16
f 210//17 212//17 225//17
f 224//18 225//18 212//18
f 213//55 215//55 224//55
f 215//19 217//19 226//19
f 217//20 219//20 231//20
f 219//21 218//21 228//21
f 218//22 223//22 239//22
f 255//7 248//7 264//7
f 248//8 253//8 269//8
f 269//9 253//9 251//9
f 267//10 251//10 249//10
f 265//11 249//11 250//11
f 266//12 250//12 252//12
f 268//13 252//13 247//13
f 263//14 247//14 254//14
f 270//15 254//15 243//15
f 259//16 243//16 245//16
f 245//17 241//17 257//17
f 241//18 240//18 256//18
f 240//19 242//19 258//19
f 242//20 246//20 262//20
f 246//21 244//21 260//21
f 244//22 255//22 271//22
f 285//7 286//7 298//7
f 286//8 288//8 301//8
f 301//9 288//9 287//9
f 300//10 287//10 281//10
f 294//11 281//11 279//11
f 292//56 291//56 279//56
f 279//12 276//12 303//12
f 303//13 276//13 274//13
f 306//14 274//14 273//14
f 305//15 273//15 272//15
f 304//16 272//16 275//16
f 290//57 302//57 275//57
f 275//17 277//17 289//17
f 293//18 289//18 277//18
f 278//18 280//18 293//18
f 280//19 282//19 296//19
f 282//20 284//20 295//20
f 284//21 283//21 297//21
f 283//22 285//22 299//22
f 324//7 323//7 342//7
f 323//8 321//8 339//8
f 327//58 339//58 321//58
f 309//29 310//29 326//29
f 327//58 321//58 309//58
f 326//10 310//10 312//10
f 335//11 312//11 317//11
f 336//12 317//12 319//12
f 334//13 319//13 316//13
f 333//14 316//14 318//14
f 337//15 318//15 314//15
f 332//16 314//16 315//16
f 315//17 313//17 329//17
f 313//18 311//18 330//18
f 311//19 307//19 325//19
f 328//59 325//59 307//59
f 308//30 320//30 338//30
f 328//59 307//59 308//59
f 320//21 322//21 340//21
f 322//22 324//22 341//22
f 358//7 355//7 371//7
f 355//8 357//8 375//8
f 375//9 357//9 356//9
f 374//10 356//10 351//10
f 372//11 351//11 349//11
f 373//12 349//12 347//12
f 364//13 347//13 345//13
f 360//14 345//14 344//14
f 361//15 344//15 343//15
f 359//16 343//16 346//16
f 362//50 363//50 346//50
f 346//17 348//17 365//17
f 366//18 365//18 348//18
f 350//19 352//19 368//19
f 352//20 354//20 367//20
f 354//21 353//21 369//21
f 353//22 358//22 370//22
f 379//7 378//7 401//7
f 378//8 388//8 406//8
f 406//9 388//9 391//9
f 404//10 391//10 389//10
f 402//11 389//11 390//11
f 403//12 390//12 392//12
f 405//13 392//13 387//13
f 400//14 387//14 384//14
f 408//15 384//15 383//15
f 396//16 383//16 385//16
f 385//17 381//17 394//17
f 381//18 380//18 393//18
f 380//19 382//19 395//19
f 382//20 386//20 399//20
f 376//21 397//21 399//21
f 399//60 386//60 377//60
f 376//22 379//22 407//22
f 420//7 417//7 438//7
f 417//8 419//8 441//8
f 441//9 419//9 418//9
f 440//10 418//10 424//10
f 439//11 424//11 423//11
f 433//12 423//12 412//12
f 429//13 412//13 413//13
f 430//14 413//14 409//14
f 426//15 409//15 411//15
f 427//16 411//16 410//16
f 410//17 421//17 432//17
f 431//61 432//61 421//61
f 422//33 425//33 434//33
f 431//61 421//61 422//61
f 425//19 414//19 435//19
f 414//20 416//20 437//20
f 416//21 415//21 436//21
f 415//22 420//22 442//22
f 457//7 451//7 475//7
f 451//8 456//8 474//8
f 471//62 474//62 456//62
f 456//9 454//9 470//9
f 470//10 454//10 452//10
f 468//11 452//11 453//11
f 469//12 453//12 455//12
f 467//13 455//13 450//13
f 466//14 450//14 458//14
f 465//15 458//15 446//15
f 462//16 446//16 448//16
f 448//17 444//17 460//17
f 444//18 443//18 459//18
f 443//19 445//19 461//19
f 464//63 461//63 445//63
f 445//20 449//20 472//20
f 449//21 447//21 473//21
f 447//22 457//22 476//22
f 480//7 482//7 506//7
f 482//8 481//8 510//8
f 510//9 481//9 484//9
f 509//10 484//10 483//10
f 488//11 508//11 507//11
f 508//12 488//12 490//12
f 501//13 490//13 492//13
f 498//14 492//14 493//14
f 497//15 493//15 494//15
f 495//16 494//16 491//16
f 491//17 489//17 500//17
f 499//64 500//64 489//64
f 489//65 487//65 486//65
f 486//66 485//66 502//66
f 502//67 499//67 489//67
f 485//19 477//19 505//19
f 477//20 479//20 504//20
f 479//21 478//21 503//21
f 478//22 480//22 511//22
f 528//7 529//7 544//7
f 544//68 529//68 523//68
f 523//69 524//69 542//69
f 542//9 524//9 520//9
f 540//10 520//10 518//10
f 538//11 518//11 519//11
f 539//12 519//12 517//12
f 537//13 517//13 516//13
f 536//14 516//14 521//14
f 533//15 521//15 515//15
f 534//16 515//16 514//16
f 514//17 513//17 531//17
f 513//18 512//18 530//18
f 532//70 530//70 512//70
f 512//19 522//19 541//19
f 526//20 543//20 541//20
f 541//71 522//71 525//71
f 526//21 527//21 546//21
f 527//22 528//22 545//22
f 564//7 561//7 572//7
f 561//8 560//8 577//8
f 577//9 560//9 563//9
f 575//10 563//10 562//10
f 573//11 562//11 555//11
f 574//12 555//12 549//12
f 576//13 549//13 552//13
f 580//14 552//14 551//14
f 579//15 551//15 550//15
f 578//16 550//16 547//16
f 565//17 568//17 547//17
f 547//72 548//72 553//72
f 566//18 565//18 553//18
f 553//4 554//4 556//4
f 556//19 559//19 567//19
f 559//20 558//20 569//20
f 558//21 557//21 570//21
f 557//22 564//22 571//22
f 597//7 596//7 614//7
f 596//8 594//8 611//8
f 611//9 594//9 591//9
f 608//10 591//10 589//10
f 606//11 589//11 590//11
f 607//12 590//12 588//12
f 605//13 588//13 587//13
f 604//14 587//14 592//14
f 609//15 592//15 584//15
f 601//16 584//16 585//16
f 585//17 582//17 599//17
f 582//18 581//18 598//18
f 581//19 583//19 600//19
f 603//73 600//73 583//73
f 586//41 593//41 610//41
f 603//63 583//63 586//63
f 593//21 595//21 612//21
f 595//22 597//22 613//22
f 627//7 628//7 641//7
f 628//8 629//8 645//8
f 645//9 629//9 632//9
f 643//10 632//10 630//10
f 642//11 630//11 631//11
f 644//12 631//12 622//12
f 647//13 622//13 617//13
f 640//14 617//14 618//14
f 646//15 618//15 619//15
f 637//16 619//16 616//16
f 634//17 639//17 616//17
f 615//74 621//74 634//74
f 633//18 634//18 621//18
f 621//4 620//4 623//4
f 623//19 626//19 635//19
f 626//20 625//20 638//20
f 625//21 624//21 636//21
f 624//22 627//22 648//22
f 665//7 666//7 669//7
f 666//8 662//8 683//8
f 683//9 662//9 658//9
f 682//10 658//10 656//10
f 680//11 656//11 657//11
f 681//12 657//12 655//12
f 679//13 655//13 654//13
f 678//14 654//14 659//14
f 675//15 659//15 653//15
f 676//16 653//16 652//16
f 652//17 650//17 673//17
f 650//18 649//18 672//18
f 660//19 674//19 672//19
f 672//75 649//75 651//75
f 667//76 674//76 660//76
f 661//44 663//44 668//44
f 667//76 660//76 661//76
f 663//21 664//21 671//21
f 664//22 665//22 670//22
f 700//7 694//7 710//7
f 694//8 699//8 716//8
f 716//9 699//9 697//9
f 714//10 697//10 695//10
f 713//2 712//2 711//2
f 711//11 695//11 696//11
f 713//12 696//12 698//12
f 715//13 698//13 687//13
f 709//14 687//14 686//14
f 706//15 686//15 684//15
f 685//77 692//77 707//77
f 707//16 704//16 684//16
f 692//17 688//17 702//17
f 688//18 689//18 701//18
f 689//19 690//19 703//19
f 690//20 693//20 708//20
f 693//21 691//21 705//21
f 691//22 700//22 717//22
f 733//7 734//7 751//7
f 734//8 730//8 747//8
f 747//9 730//9 729//9
f 746//10 729//10 727//10
f 744//11 727//11 728//11
f 745//12 728//12 726//12
f 743//13 726//13 725//13
f 742//14 725//14 731//14
f 748//15 731//15 721//15
f 740//16 721//16 722//16
f 722//17 719//17 736//17
f 719//18 718//18 735//18
f 718//19 720//19 737//19
f 720//20 724//20 739//20
f 738//78 739//78 724//78
f 723//46 732//46 749//46
f 738//78 724//78 723//78
f 732//22 733//22 750//22
f 767//7 760//7 776//7
f 760//8 764//8 780//8
f 780//9 764//9 762//9
f 778//10 762//10 761//10
f 777//11 761//11 763//11
f 779//12 763//12 766//12
f 782//13 766//13 759//13
f 775//14 759//14 765//14
f 781//15 765//15 755//15
f 772//16 755//16 756//16
f 756//17 753//17 769//17
f 753//18 752//18 768//18
f 752//19 754//19 770//19
f 754//20 758//20 773//20
f 758//21 757//21 771//21
f 757//22 767//22 783//22
f 798//7 793//7 809//7
f 793//8 797//8 813//8
f 813//9 797//9 795//9
f 811//10 795//10 794//10
f 810//11 794//11 796//11
f 812//12 796//12 791//12
f 807//13 791//13 792//13
f 808//14 792//14 799//14
f 815//15 799//15 787//15
f 803//16 787//16 789//16
f 789//17 785//17 801//17
f 785//18 784//18 800//18
f 784//19 786//19 802//19
f 786//20 790//20 806//20
f 790//21 788//21 804//21
f 788//22 798//22 814//22
f 831//7 824//7 840//7
f 824//8 828//8 844//8
f 844//9 828//9 826//9
f 842//10 826//10 825//10
f 841//11 825//11 827//11
f 843//12 827//12 830//12
f 846//13 830//13 823//13
f 839//14 823//14 829//14
f 845//15 829//15 819//15
f 836//16 819//16 820//16
f 820//17 817//17 833//17
f 817//18 816//18 832//18
f 816//19 818//19 834//19
f 818//20 822//20 837//20
f 822//21 821//21 835//21
f 821//22 831//22 847//22
f 863//7 857//7 879//7
f 857//8 861//8 866//8
f 866//9 861//9 859//9
f 865//10 859//10 858//10
f 864//11 858//11 860//11
f 876//12 860//12 855//12
f 875//13 855//13 856//13
f 878//14 856//14 862//14
f 877//15 862//15 851//15
f 870//16 851//16 853//16
f 853//17 849//17 867//17
f 849//18 848//18 868//18
f 848//19 850//19 869//19
f 850//20 854//20 871//20
f 854//21 852//21 873//21
f 852//22 863//22 874//22
f 895//7 889//7 906//7
f 889//8 894//8 910//8
f 910//9 894//9 892//9
f 908//10 892//10 890//10
f 907//11 890//11 891//11
f 909//12 891//12 893//12
f 904//13 893//13 888//13
f 896//14 911//14 905//14
f 905//79 888//79 887//79
f 911//15 896//15 883//15
f 900//16 883//16 885//16
f 885//17 881//17 898//17
f 881//18 880//18 897//18
f 880//19 882//19 899//19
f 882//20 886//20 903//20
f 886//21 884//21 901//21
f 884//22 895//22 912//22
f 927//7 921//7 937//7
f 921//8 925//8 941//8
f 941//9 925//9 923//9
f 939//10 923//10 922//10
f 938//11 922//11 924//11
f 940//12 924//12 926//12
f 942//13 926//13 920//13
f 936//14 920//14 928//14
f 944//15 928//15 916//15
f 932//16 916//16 917//16
f 917//17 914//17 930//17
f 914//18 913//18 929//18
f 913//19 915//19 931//19
f 915//20 919//20 935//20
f 919//21 918//21 934//21
f 918//22 927//22 943//22
f 959//7 953//7 970//7
f 953//8 957//8 974//8
f 974//9 957//9 955//9
f 972//10 955//10 954//10
f 971//11 954//11 956//11
f 973//12 956//12 958//12
f 968//13 958//13 952//13
f 969//14 952//14 960//14
f 976//15 960//15 948//15
f 964//16 948//16 949//16
f 949//17 946//17 962//17
f 946//18 945//18 961//18
f 945//19 947//19 963//19
f 947//20 951//20 967//20
f 951//21 950//21 965//21
f 950//22 959//22 975//22
f 991//7 985//7 1001//7
f 985//8 989//8 1005//8
f 1005//9 989//9 987//9
f 1003//10 987//10 986//10
f 1002//11 986//11 988//11
f 1004//12 988//12 990//12
f 1006//13 990//13 984//13
f 1000//14 984//14 992//14
f 1008//15 992//15 980//15
f 996//16 980//16 981//16
f 981//17 978//17 994//17
f 978//18 977//18 993//18
f 977//19 979//19 995//19
f 979//20 983//20 999//20
f 983//21 982//21 998//21
f 982//22 991//22 1007//22
f 578//16 547//16 568//16
f 348//80 1009//80 350//80
f 59//17 42//17 74//17
