# Blender 5.2.1 LTS
# www.blender.org
mtllib kit_beam_240.mtl
o kit_beam_240
v -0.010000 -0.120000 0.002000
v -0.010000 0.120000 0.002000
v -0.010000 -0.120000 -0.002000
v -0.010000 0.120000 -0.002000
v 0.010000 -0.120000 0.002000
v 0.010000 0.120000 0.002000
v 0.010000 -0.120000 -0.002000
v 0.010000 0.120000 -0.002000
v -0.002000 -0.110000 -0.002000
v -0.001848 -0.110765 -0.002000
v -0.001848 -0.109235 -0.002000
v -0.000765 -0.111848 -0.002000
v -0.000765 -0.108152 -0.002000
v 0.000000 -0.112000 -0.002000
v -0.001414 -0.111414 -0.002000
v -0.001414 -0.108586 -0.002000
v 0.000765 -0.111848 -0.002000
v 0.000765 -0.108152 -0.002000
v 0.002000 -0.110000 -0.002000
v 0.001848 -0.110765 -0.002000
v 0.001848 -0.109235 -0.002000
v 0.001414 -0.111414 -0.002000
v 0.001414 -0.108586 -0.002000
v 0.000000 -0.108000 -0.002000
v -0.002000 -0.110000 0.002000
v -0.001848 -0.110765 0.002000
v -0.001848 -0.109235 0.002000
v -0.000765 -0.108152 0.002000
v -0.000765 -0.111848 0.002000
v -0.001414 -0.108586 0.002000
v -0.001414 -0.111414 0.002000
v 0.000765 -0.111848 0.002000
v 0.000765 -0.108152 0.002000
v 0.002000 -0.110000 0.002000
v 0.001848 -0.109235 0.002000
v 0.001848 -0.110765 0.002000
v 0.001414 -0.108586 0.002000
v 0.000000 -0.112000 0.002000
v 0.001414 -0.111414 0.002000
v 0.000000 -0.108000 0.002000
v -0.002000 -0.090000 -0.002000
v -0.001848 -0.090765 -0.002000
v -0.001848 -0.089235 -0.002000
v -0.000765 -0.088152 -0.002000
v -0.001414 -0.091414 -0.002000
v -0.001414 -0.088586 -0.002000
v -0.000765 -0.091848 -0.002000
v 0.002000 -0.090000 -0.002000
v 0.001848 -0.089235 -0.002000
v 0.001848 -0.090765 -0.002000
v 0.000000 -0.088000 -0.002000
v -0.000003 -0.091999 -0.002000
v 0.000765 -0.091848 -0.002000
v 0.001414 -0.091414 -0.002000
v 0.001414 -0.088586 -0.002000
v 0.000000 -0.092000 -0.002000
v 0.000765 -0.088152 -0.002000
v 0.001414 -0.091414 0.002000
v 0.001414 -0.088586 0.002000
v 0.002000 -0.090000 0.002000
v 0.001848 -0.090765 0.002000
v 0.001848 -0.089235 0.002000
v 0.000765 -0.088152 0.002000
v -0.002000 -0.090000 0.002000
v -0.001848 -0.090765 0.002000
v -0.001848 -0.089235 0.002000
v 0.000765 -0.091848 0.002000
v 0.000000 -0.088000 0.002000
v 0.000003 -0.091999 0.002000
v -0.001414 -0.088586 0.002000
v -0.000765 -0.091848 0.002000
v -0.001414 -0.091414 0.002000
v -0.000765 -0.088152 0.002000
v 0.000000 -0.092000 0.002000
v -0.002000 -0.070000 -0.002000
v -0.001848 -0.070765 -0.002000
v -0.001848 -0.069235 -0.002000
v -0.000765 -0.068152 -0.002000
v -0.001414 -0.071414 -0.002000
v -0.001414 -0.068586 -0.002000
v -0.000765 -0.071848 -0.002000
v 0.000000 -0.068000 -0.002000
v 0.000071 -0.071986 -0.002000
v 0.000000 -0.072000 -0.002000
v 0.000765 -0.068152 -0.002000
v 0.000765 -0.071848 -0.002000
v 0.002000 -0.070000 -0.002000
v 0.001848 -0.069235 -0.002000
v 0.001848 -0.070765 -0.002000
v 0.001414 -0.068586 -0.002000
v 0.001414 -0.071414 -0.002000
v 0.000765 -0.068152 0.002000
v 0.001414 -0.071414 0.002000
v 0.001414 -0.068586 0.002000
v 0.002000 -0.070000 0.002000
v 0.001848 -0.070765 0.002000
v 0.001848 -0.069235 0.002000
v 0.000765 -0.071848 0.002000
v 0.000000 -0.072000 0.002000
v -0.000071 -0.071986 0.002000
v 0.000000 -0.068000 0.002000
v -0.000765 -0.071848 0.002000
v -0.000765 -0.068152 0.002000
v -0.002000 -0.070000 0.002000
v -0.001848 -0.070765 0.002000
v -0.001848 -0.069235 0.002000
v -0.001414 -0.071414 0.002000
v -0.001414 -0.068586 0.002000
v -0.002000 -0.050000 -0.002000
v -0.001848 -0.050765 -0.002000
v -0.001848 -0.049235 -0.002000
v -0.000765 -0.048152 -0.002000
v -0.001414 -0.048586 -0.002000
v -0.001414 -0.051414 -0.002000
v -0.000765 -0.051848 -0.002000
v 0.000000 -0.048000 -0.002000
v 0.000161 -0.051968 -0.002000
v 0.000000 -0.052000 -0.002000
v 0.000765 -0.048152 -0.002000
v 0.000765 -0.051848 -0.002000
v 0.001414 -0.048586 -0.002000
v 0.001414 -0.051414 -0.002000
v 0.002000 -0.050000 -0.002000
v 0.001848 -0.049235 -0.002000
v 0.001848 -0.050765 -0.002000
v 0.000765 -0.048152 0.002000
v 0.001414 -0.048586 0.002000
v 0.002000 -0.050000 0.002000
v 0.001848 -0.050765 0.002000
v 0.001848 -0.049235 0.002000
v 0.001414 -0.051414 0.002000
v 0.000765 -0.051848 0.002000
v 0.000000 -0.052000 0.002000
v -0.000161 -0.051968 0.002000
v 0.000000 -0.048000 0.002000
v -0.000765 -0.051848 0.002000
v -0.000765 -0.048152 0.002000
v -0.001414 -0.051414 0.002000
v -0.001414 -0.048586 0.002000
v -0.002000 -0.050000 0.002000
v -0.001848 -0.050765 0.002000
v -0.001848 -0.049235 0.002000
v -0.002000 -0.030000 -0.002000
v -0.001848 -0.030765 -0.002000
v -0.001848 -0.029235 -0.002000
v -0.000765 -0.028152 -0.002000
v -0.000765 -0.031848 -0.002000
v -0.001414 -0.028586 -0.002000
v -0.001414 -0.031414 -0.002000
v 0.000000 -0.028000 -0.002000
v 0.000272 -0.031946 -0.002000
v 0.000000 -0.032000 -0.002000
v 0.000765 -0.028152 -0.002000
v 0.000765 -0.031848 -0.002000
v 0.001414 -0.028586 -0.002000
v 0.001414 -0.031414 -0.002000
v 0.002000 -0.030000 -0.002000
v 0.001848 -0.029235 -0.002000
v 0.001848 -0.030765 -0.002000
v 0.000765 -0.031848 0.002000
v 0.000765 -0.028152 0.002000
v 0.002000 -0.030000 0.002000
v 0.001848 -0.030765 0.002000
v 0.001848 -0.029235 0.002000
v 0.001414 -0.031414 0.002000
v 0.001414 -0.028586 0.002000
v 0.000000 -0.032000 0.002000
v 0.000000 -0.028000 0.002000
v -0.000765 -0.031848 0.002000
v -0.000765 -0.028152 0.002000
v -0.001414 -0.031414 0.002000
v -0.001414 -0.028586 0.002000
v -0.002000 -0.030000 0.002000
v -0.001848 -0.030765 0.002000
v -0.001848 -0.029235 0.002000
v -0.002000 -0.010000 -0.002000
v -0.001848 -0.010765 -0.002000
v -0.001848 -0.009235 -0.002000
v -0.001414 -0.011414 -0.002000
v -0.000765 -0.008152 -0.002000
v -0.001414 -0.008586 -0.002000
v -0.000765 -0.011848 -0.002000
v 0.000000 -0.008000 -0.002000
v 0.000414 -0.011918 -0.002000
v 0.000000 -0.012000 -0.002000
v 0.000765 -0.008152 -0.002000
v 0.000765 -0.011848 -0.002000
v 0.001414 -0.011414 -0.002000
v 0.001848 -0.010765 -0.002000
v 0.001848 -0.009235 -0.002000
v 0.001414 -0.008586 -0.002000
v 0.002000 -0.010000 -0.002000
v 0.001414 -0.011414 0.002000
v 0.000765 -0.008152 0.002000
v 0.002000 -0.010000 0.002000
v 0.001848 -0.010765 0.002000
v 0.001848 -0.009235 0.002000
v 0.001414 -0.008586 0.002000
v 0.000765 -0.011848 0.002000
v 0.000000 -0.008000 0.002000
v -0.000414 -0.011918 0.002000
v 0.000000 -0.012000 0.002000
v -0.000765 -0.011848 0.002000
v -0.000765 -0.008152 0.002000
v -0.001848 -0.010765 0.002000
v -0.001848 -0.009235 0.002000
v -0.001414 -0.008586 0.002000
v -0.001414 -0.011414 0.002000
v -0.002000 -0.010000 0.002000
v -0.002000 0.010000 -0.002000
v -0.001414 0.008586 -0.002000
v -0.001848 0.009235 -0.002000
v -0.001848 0.010765 -0.002000
v 0.000000 0.012000 -0.002000
v -0.000765 0.008152 -0.002000
v -0.000765 0.011848 -0.002000
v -0.001414 0.011414 -0.002000
v 0.000000 0.008000 -0.002000
v 0.000059 0.008012 -0.002000
v 0.000765 0.011848 -0.002000
v 0.000602 0.008120 -0.002000
v 0.000765 0.008152 -0.002000
v 0.001414 0.011414 -0.002000
v 0.001414 0.008586 -0.002000
v 0.002000 0.010000 -0.002000
v 0.001848 0.009235 -0.002000
v 0.001848 0.010765 -0.002000
v 0.000000 0.012000 0.002000
v 0.000765 0.008152 0.002000
v 0.000765 0.011848 0.002000
v 0.001848 0.009235 0.002000
v 0.002000 0.010000 0.002000
v 0.001848 0.010765 0.002000
v 0.001414 0.011414 0.002000
v 0.001414 0.008586 0.002000
v 0.000000 0.008000 0.002000
v -0.000059 0.008012 0.002000
v -0.000765 0.011848 0.002000
v -0.000602 0.008120 0.002000
v -0.001414 0.011414 0.002000
v -0.000765 0.008152 0.002000
v -0.002000 0.010000 0.002000
v -0.001848 0.010765 0.002000
v -0.001414 0.008586 0.002000
v -0.001848 0.009235 0.002000
v -0.002000 0.030000 -0.002000
v -0.001414 0.028586 -0.002000
v -0.001848 0.029235 -0.002000
v -0.001848 0.030765 -0.002000
v -0.001414 0.031414 -0.002000
v -0.000765 0.028152 -0.002000
v -0.000765 0.031848 -0.002000
v 0.000000 0.032000 -0.002000
v 0.000000 0.028000 -0.002000
v 0.000336 0.028067 -0.002000
v 0.000765 0.031848 -0.002000
v 0.000864 0.028218 -0.002000
v 0.000765 0.028152 -0.002000
v 0.001414 0.031414 -0.002000
v 0.001414 0.028586 -0.002000
v 0.002000 0.030000 -0.002000
v 0.001848 0.030765 -0.002000
v 0.001848 0.029235 -0.002000
v 0.000765 0.028152 0.002000
v 0.000000 0.028000 0.002000
v 0.000000 0.032000 0.002000
v 0.001414 0.028586 0.002000
v 0.001414 0.031414 0.002000
v 0.002000 0.030000 0.002000
v 0.001848 0.030765 0.002000
v 0.001848 0.029235 0.002000
v 0.000765 0.031848 0.002000
v -0.000336 0.028067 0.002000
v -0.000765 0.028152 0.002000
v -0.000864 0.028218 0.002000
v -0.000765 0.031848 0.002000
v -0.001414 0.028586 0.002000
v -0.001414 0.031414 0.002000
v -0.002000 0.030000 0.002000
v -0.001848 0.029235 0.002000
v -0.001848 0.030765 0.002000
v -0.002000 0.050000 -0.002000
v -0.001848 0.049235 -0.002000
v -0.001414 0.051414 -0.002000
v -0.001414 0.048586 -0.002000
v -0.001848 0.050765 -0.002000
v -0.000765 0.048152 -0.002000
v 0.000765 0.051848 -0.002000
v 0.000000 0.052000 -0.002000
v 0.000000 0.048000 -0.002000
v -0.000765 0.051848 -0.002000
v 0.000742 0.048148 -0.002000
v 0.000765 0.048152 -0.002000
v 0.001414 0.051414 -0.002000
v 0.001267 0.048487 -0.002000
v 0.001414 0.048586 -0.002000
v 0.002000 0.050000 -0.002000
v 0.001848 0.049235 -0.002000
v 0.001848 0.050765 -0.002000
v -0.000765 0.051848 0.002000
v 0.000000 0.048000 0.002000
v 0.000000 0.052000 0.002000
v 0.001414 0.048586 0.002000
v 0.001414 0.051414 0.002000
v 0.002000 0.050000 0.002000
v 0.001848 0.049235 0.002000
v 0.001848 0.050765 0.002000
v 0.000765 0.048152 0.002000
v 0.000765 0.051848 0.002000
v -0.000742 0.048148 0.002000
v -0.001414 0.051414 0.002000
v -0.000765 0.048152 0.002000
v -0.001267 0.048487 0.002000
v -0.002000 0.050000 0.002000
v -0.001848 0.050765 0.002000
v -0.001414 0.048586 0.002000
v -0.001848 0.049235 0.002000
v -0.002000 0.070000 -0.002000
v -0.001848 0.069235 -0.002000
v -0.001848 0.070765 -0.002000
v -0.001414 0.068586 -0.002000
v -0.001414 0.071414 -0.002000
v -0.000765 0.068152 -0.002000
v 0.000000 0.068000 -0.002000
v 0.000000 0.072000 -0.002000
v 0.001414 0.071414 -0.002000
v 0.000765 0.071848 -0.002000
v 0.000765 0.068152 -0.002000
v 0.001174 0.068425 -0.002000
v -0.000765 0.071848 -0.002000
v 0.001453 0.068644 -0.002000
v 0.001414 0.068586 -0.002000
v 0.002000 0.070000 -0.002000
v 0.001848 0.070765 -0.002000
v 0.001848 0.069235 -0.002000
v -0.001414 0.071414 0.002000
v 0.000000 0.068000 0.002000
v 0.000000 0.072000 0.002000
v -0.001174 0.068425 0.002000
v -0.000765 0.068152 0.002000
v -0.000765 0.071848 0.002000
v 0.001414 0.068586 0.002000
v 0.002000 0.070000 0.002000
v 0.001848 0.069235 0.002000
v 0.001848 0.070765 0.002000
v 0.000765 0.068152 0.002000
v 0.001414 0.071414 0.002000
v 0.000765 0.071848 0.002000
v -0.001453 0.068644 0.002000
v -0.001414 0.068586 0.002000
v -0.002000 0.070000 0.002000
v -0.001848 0.069235 0.002000
v -0.001848 0.070765 0.002000
v -0.002000 0.090000 -0.002000
v -0.001848 0.089235 -0.002000
v -0.001848 0.090765 -0.002000
v -0.000765 0.088152 -0.002000
v -0.001414 0.088586 -0.002000
v -0.000765 0.091848 -0.002000
v -0.001414 0.091414 -0.002000
v 0.000765 0.088152 -0.002000
v 0.000765 0.091848 -0.002000
v 0.002000 0.090000 -0.002000
v 0.001848 0.090765 -0.002000
v 0.001848 0.089235 -0.002000
v 0.001414 0.091414 -0.002000
v 0.001414 0.088586 -0.002000
v 0.000000 0.092000 -0.002000
v 0.000000 0.088000 -0.002000
v -0.002000 0.090000 0.002000
v -0.001848 0.089235 0.002000
v -0.001848 0.090765 0.002000
v -0.000765 0.088152 0.002000
v -0.000765 0.091848 0.002000
v -0.001414 0.088586 0.002000
v -0.001414 0.091414 0.002000
v 0.000765 0.088152 0.002000
v 0.000765 0.091848 0.002000
v 0.001848 0.089235 0.002000
v 0.002000 0.090000 0.002000
v 0.001848 0.090765 0.002000
v 0.001414 0.088586 0.002000
v 0.001414 0.091414 0.002000
v 0.000000 0.092000 0.002000
v 0.000000 0.088000 0.002000
v -0.002000 0.110000 -0.002000
v -0.001848 0.109235 -0.002000
v -0.001848 0.110765 -0.002000
v -0.000765 0.108152 -0.002000
v -0.000765 0.111848 -0.002000
v -0.001414 0.108586 -0.002000
v -0.001414 0.111414 -0.002000
v 0.001414 0.108586 -0.002000
v 0.000765 0.108152 -0.002000
v 0.000765 0.111848 -0.002000
v 0.002000 0.110000 -0.002000
v 0.001848 0.110765 -0.002000
v 0.001848 0.109235 -0.002000
v 0.001414 0.111414 -0.002000
v 0.000000 0.112000 -0.002000
v 0.000000 0.108000 -0.002000
v -0.002000 0.110000 0.002000
v -0.001848 0.109235 0.002000
v -0.001848 0.110765 0.002000
v -0.000765 0.108152 0.002000
v -0.001414 0.108586 0.002000
v -0.000765 0.111848 0.002000
v -0.001414 0.111414 0.002000
v 0.000765 0.108152 0.002000
v 0.000765 0.111848 0.002000
v 0.002000 0.110000 0.002000
v 0.001848 0.110765 0.002000
v 0.001848 0.109235 0.002000
v 0.001414 0.111414 0.002000
v 0.001414 0.108586 0.002000
v 0.000000 0.112000 0.002000
v 0.000000 0.108000 0.002000
v -0.000272 -0.031946 0.002000
vn -1.0000 -0.0000 -0.0000
vn -0.0000 -0.0000 -1.0000
vn 1.0000 -0.0000 -0.0000
vn -0.0000 -0.0000 1.0000
vn -0.0000 -1.0000 -0.0000
vn -0.0000 1.0000 -0.0000
vn -0.1949 -0.9808 -0.0000
vn -0.5559 -0.8313 -0.0000
vn -0.8313 -0.5559 -0.0000
vn -0.9808 -0.1949 -0.0000
vn -0.9808 0.1949 -0.0000
vn -0.8313 0.5559 -0.0000
vn -0.5559 0.8313 -0.0000
vn -0.1949 0.9808 -0.0000
vn 0.1949 0.9808 -0.0000
vn 0.5559 0.8313 -0.0000
vn 0.8313 0.5559 -0.0000
vn 0.9808 0.1949 -0.0000
vn 0.9808 -0.1949 -0.0000
vn 0.8313 -0.5559 -0.0000
vn 0.5559 -0.8313 -0.0000
vn 0.1949 -0.9808 -0.0000
vn -0.1947 0.9809 -0.0000
vn -0.1956 0.9807 -0.0001
vn 0.1956 0.9807 0.0001
vn -0.1951 0.9808 0.0001
vn 0.1945 0.9809 -0.0001
vn -0.5551 0.8318 -0.0002
vn -0.1956 0.9807 0.0001
vn 0.1714 0.9852 -0.0047
vn -0.0000 -0.0021 -1.0000
vn -0.0000 -0.0021 1.0000
vn -0.1950 0.9808 -0.0000
vn -0.1943 0.9809 -0.0000
vn 0.1943 0.9809 -0.0000
vn -0.1926 0.9813 -0.0000
vn -0.1993 0.9799 0.0009
vn 0.1993 0.9799 -0.0000
vn -0.0000 0.0010 -1.0000
vn -0.0000 0.0009 -1.0000
vn -0.0000 0.0009 1.0000
vn -0.5586 0.8294 -0.0000
vn -0.1714 0.9852 -0.0000
vn 0.1956 0.9807 -0.0000
vn -0.0000 -0.0002 -1.0000
vn -0.0000 0.0003 -1.0000
vn -0.0000 0.0003 1.0000
vn -0.0000 -0.0002 1.0000
s 0
usemtl ChassisMetal
f 1//1 4//1 3//1
f 4//2 395//2 400//2
f 218//2 181//2 178//2
f 121//2 159//2 157//2
f 332//2 291//2 329//2
f 293//2 253//2 292//2
f 258//2 214//2 255//2
f 180//2 221//2 183//2
f 146//2 184//2 150//2
f 112//2 151//2 116//2
f 78//2 117//2 82//2
f 44//2 83//2 51//2
f 24//2 52//2 56//2
f 7//2 12//2 14//2
f 7//3 6//3 5//3
f 1//4 32//4 38//4
f 6//4 195//4 166//4
f 2//4 173//4 209//4
f 6//4 407//4 416//4
f 350//4 309//4 339//4
f 312//4 266//4 310//4
f 274//4 228//4 273//4
f 239//4 194//4 237//4
f 201//4 161//4 202//4
f 418//4 126//4 167//4
f 134//4 92//4 133//4
f 100//4 63//4 99//4
f 69//4 40//4 33//4
f 3//5 5//5 1//5
f 8//6 2//6 6//6
f 24//7 33//7 40//7
f 18//8 37//8 33//8
f 37//9 21//9 35//9
f 35//10 19//10 34//10
f 34//11 20//11 36//11
f 36//12 22//12 39//12
f 39//13 17//13 32//13
f 32//14 14//14 38//14
f 38//15 12//15 29//15
f 29//16 15//16 31//16
f 15//17 26//17 31//17
f 10//18 25//18 26//18
f 9//19 27//19 25//19
f 11//20 30//20 27//20
f 16//21 28//21 30//21
f 13//22 40//22 28//22
f 51//7 63//7 68//7
f 57//8 59//8 63//8
f 59//9 49//9 62//9
f 62//10 48//10 60//10
f 60//11 50//11 61//11
f 61//12 54//12 58//12
f 58//13 53//13 67//13
f 67//14 56//14 74//14
f 56//15 47//15 71//15
f 71//16 45//16 72//16
f 72//17 42//17 65//17
f 42//18 64//18 65//18
f 41//19 66//19 64//19
f 43//20 70//20 66//20
f 46//21 73//21 70//21
f 44//22 68//22 73//22
f 82//7 92//7 101//7
f 85//8 94//8 92//8
f 94//9 88//9 97//9
f 97//10 87//10 95//10
f 95//11 89//11 96//11
f 96//12 91//12 93//12
f 93//13 86//13 98//13
f 84//14 98//14 86//14
f 99//15 81//15 102//15
f 102//16 79//16 107//16
f 79//17 105//17 107//17
f 76//18 104//18 105//18
f 75//19 106//19 104//19
f 77//20 108//20 106//20
f 80//21 103//21 108//21
f 82//22 103//22 78//22
f 119//7 135//7 116//7
f 119//8 127//8 126//8
f 127//9 124//9 130//9
f 130//10 123//10 128//10
f 128//11 125//11 129//11
f 129//12 122//12 131//12
f 131//13 120//13 132//13
f 120//14 117//14 133//14
f 134//15 118//15 136//15
f 136//16 114//16 138//16
f 114//17 141//17 138//17
f 110//18 140//18 141//18
f 109//19 142//19 140//19
f 111//20 139//20 142//20
f 113//21 137//21 139//21
f 112//22 135//22 137//22
f 168//7 153//7 161//7
f 153//8 166//8 161//8
f 166//9 158//9 164//9
f 164//10 157//10 162//10
f 162//11 159//11 163//11
f 163//12 156//12 165//12
f 165//13 154//13 160//13
f 160//23 151//23 152//23
f 167//4 169//4 418//4
f 169//16 149//16 171//16
f 149//17 174//17 171//17
f 144//18 173//18 174//18
f 143//19 175//19 173//19
f 175//20 148//20 172//20
f 148//21 170//21 172//21
f 146//22 168//22 170//22
f 183//7 194//7 200//7
f 186//8 198//8 194//8
f 198//9 190//9 197//9
f 197//10 192//10 195//10
f 195//11 189//11 196//11
f 196//12 188//12 193//12
f 193//13 187//13 199//13
f 187//24 184//24 202//24
f 201//25 185//25 203//25
f 203//16 179//16 208//16
f 179//17 205//17 208//17
f 205//18 176//18 209//18
f 176//19 206//19 209//19
f 178//20 207//20 206//20
f 181//21 204//21 207//21
f 204//22 183//22 200//22
f 214//7 230//7 228//7
f 220//8 234//8 230//8
f 234//9 227//9 233//9
f 233//10 225//10 232//10
f 232//11 226//11 231//11
f 231//12 224//12 235//12
f 235//13 222//13 229//13
f 229//26 221//26 219//26
f 237//27 218//27 241//27
f 241//16 211//16 244//16
f 211//17 245//17 244//17
f 212//18 242//18 245//18
f 210//19 243//19 242//19
f 213//20 240//20 243//20
f 217//21 238//21 240//21
f 216//22 228//22 238//22
f 253//7 272//7 266//7
f 256//8 268//8 272//8
f 268//9 262//9 270//9
f 270//10 261//10 269//10
f 269//11 263//11 271//11
f 271//12 260//12 267//12
f 260//13 258//13 264//13
f 258//14 254//14 265//14
f 265//15 251//15 274//15
f 274//16 247//16 277//16
f 247//17 280//17 277//17
f 248//18 279//18 280//18
f 246//19 281//19 279//19
f 249//20 278//20 281//20
f 250//21 276//21 278//21
f 252//22 266//22 276//22
f 289//7 309//7 302//7
f 288//8 304//8 309//8
f 304//9 299//9 307//9
f 307//10 297//10 305//10
f 305//11 298//11 306//11
f 306//12 296//12 303//12
f 303//28 295//28 293//28
f 308//29 292//29 290//29
f 310//30 290//30 312//30
f 312//16 285//16 316//16
f 285//17 317//17 316//17
f 283//18 314//18 317//18
f 282//19 315//19 314//19
f 286//20 311//20 315//20
f 284//21 300//21 311//21
f 291//22 302//22 300//22
f 325//7 348//7 338//7
f 327//8 347//8 348//8
f 347//9 334//9 345//9
f 345//10 333//10 343//10
f 343//11 335//11 344//11
f 332//12 344//12 335//12
f 332//13 328//13 346//13
f 346//14 324//14 337//14
f 337//15 323//15 340//15
f 340//16 321//16 350//16
f 350//17 319//17 352//17
f 319//18 351//18 352//18
f 318//19 353//19 351//19
f 353//20 322//20 336//20
f 322//21 341//21 336//21
f 330//22 338//22 341//22
f 368//7 378//7 384//7
f 362//8 383//8 378//8
f 383//9 364//9 381//9
f 381//10 363//10 380//10
f 380//11 365//11 379//11
f 379//12 367//12 382//12
f 382//13 361//13 377//13
f 377//14 369//14 385//14
f 385//15 357//15 373//15
f 373//16 358//16 375//16
f 358//17 371//17 375//17
f 355//18 370//18 371//18
f 354//19 372//19 370//19
f 356//20 376//20 372//20
f 360//21 374//21 376//21
f 359//22 384//22 374//22
f 400//7 410//7 416//7
f 395//8 414//8 410//8
f 414//9 397//9 412//9
f 412//10 396//10 411//10
f 411//11 398//11 413//11
f 413//12 393//12 415//12
f 415//13 394//13 409//13
f 409//14 401//14 417//14
f 417//15 389//15 405//15
f 405//16 391//16 406//16
f 391//17 403//17 406//17
f 387//18 402//18 403//18
f 386//19 404//19 402//19
f 388//20 408//20 404//20
f 392//21 407//21 408//21
f 390//22 416//22 407//22
f 1//1 2//1 4//1
f 390//2 392//2 4//2
f 4//2 8//2 399//2
f 4//2 399//2 395//2
f 400//2 390//2 4//2
f 397//2 399//2 8//2
f 8//2 362//2 368//2
f 8//2 368//2 359//2
f 396//2 397//2 8//2
f 398//2 396//2 8//2
f 8//2 359//2 360//2
f 8//2 360//2 356//2
f 393//2 398//2 8//2
f 393//2 8//2 356//2
f 393//2 356//2 354//2
f 394//2 393//2 354//2
f 401//2 394//2 354//2
f 389//2 401//2 354//2
f 391//2 389//2 354//2
f 387//2 391//2 354//2
f 386//2 387//2 354//2
f 4//2 392//2 388//2
f 4//2 388//2 386//2
f 10//2 15//2 3//2
f 9//2 10//2 3//2
f 3//2 4//2 386//2
f 3//2 386//2 354//2
f 11//2 9//2 3//2
f 52//2 13//2 16//2
f 16//2 11//2 3//2
f 3//2 354//2 355//2
f 3//2 355//2 358//2
f 52//2 16//2 3//2
f 47//2 52//2 3//2
f 357//2 369//2 320//2
f 357//2 320//2 318//2
f 45//2 47//2 3//2
f 42//2 45//2 3//2
f 358//2 357//2 318//2
f 3//2 358//2 318//2
f 41//2 42//2 3//2
f 43//2 41//2 3//2
f 3//2 318//2 319//2
f 3//2 319//2 321//2
f 328//2 329//2 284//2
f 328//2 284//2 286//2
f 324//2 328//2 286//2
f 324//2 286//2 282//2
f 323//2 324//2 282//2
f 321//2 323//2 282//2
f 84//2 44//2 46//2
f 81//2 84//2 46//2
f 81//2 46//2 43//2
f 79//2 81//2 43//2
f 3//2 321//2 282//2
f 3//2 282//2 283//2
f 79//2 43//2 3//2
f 76//2 79//2 3//2
f 3//2 283//2 285//2
f 75//2 76//2 3//2
f 290//2 292//2 252//2
f 290//2 252//2 250//2
f 287//2 290//2 250//2
f 287//2 250//2 249//2
f 118//2 78//2 80//2
f 115//2 118//2 80//2
f 115//2 80//2 77//2
f 114//2 115//2 77//2
f 114//2 77//2 75//2
f 110//2 114//2 75//2
f 285//2 287//2 249//2
f 285//2 249//2 246//2
f 110//2 75//2 3//2
f 109//2 110//2 3//2
f 3//2 285//2 246//2
f 3//2 246//2 248//2
f 3//2 248//2 247//2
f 152//2 112//2 113//2
f 147//2 152//2 113//2
f 147//2 113//2 111//2
f 149//2 147//2 111//2
f 149//2 111//2 109//2
f 144//2 149//2 109//2
f 254//2 255//2 216//2
f 254//2 216//2 217//2
f 251//2 254//2 217//2
f 251//2 217//2 213//2
f 144//2 109//2 3//2
f 143//2 144//2 3//2
f 247//2 251//2 213//2
f 247//2 213//2 210//2
f 185//2 146//2 148//2
f 182//2 185//2 148//2
f 182//2 148//2 145//2
f 179//2 182//2 145//2
f 179//2 145//2 143//2
f 177//2 179//2 143//2
f 3//2 247//2 210//2
f 3//2 210//2 212//2
f 177//2 143//2 3//2
f 176//2 177//2 3//2
f 3//2 212//2 211//2
f 3//2 211//2 215//2
f 176//2 3//2 215//2
f 218//2 219//2 180//2
f 176//2 215//2 218//2
f 178//2 176//2 218//2
f 218//2 180//2 181//2
f 366//2 362//2 8//2
f 7//2 22//2 20//2
f 7//2 20//2 19//2
f 364//2 366//2 8//2
f 363//2 364//2 8//2
f 8//2 7//2 19//2
f 8//2 19//2 21//2
f 365//2 363//2 8//2
f 8//2 21//2 23//2
f 18//2 24//2 56//2
f 320//2 369//2 361//2
f 322//2 320//2 361//2
f 322//2 361//2 367//2
f 330//2 322//2 367//2
f 330//2 367//2 365//2
f 325//2 330//2 365//2
f 23//2 18//2 56//2
f 23//2 56//2 53//2
f 325//2 365//2 8//2
f 327//2 325//2 8//2
f 23//2 53//2 54//2
f 23//2 54//2 50//2
f 326//2 327//2 8//2
f 334//2 326//2 8//2
f 23//2 50//2 48//2
f 8//2 23//2 48//2
f 333//2 334//2 8//2
f 291//2 331//2 335//2
f 291//2 335//2 333//2
f 289//2 291//2 333//2
f 8//2 48//2 49//2
f 8//2 49//2 55//2
f 289//2 333//2 8//2
f 288//2 289//2 8//2
f 57//2 51//2 83//2
f 57//2 83//2 86//2
f 294//2 288//2 8//2
f 299//2 294//2 8//2
f 55//2 57//2 86//2
f 55//2 86//2 91//2
f 297//2 299//2 8//2
f 55//2 91//2 89//2
f 55//2 89//2 87//2
f 253//2 295//2 296//2
f 256//2 253//2 296//2
f 256//2 296//2 298//2
f 259//2 256//2 298//2
f 259//2 298//2 297//2
f 262//2 259//2 297//2
f 8//2 55//2 87//2
f 8//2 87//2 88//2
f 262//2 297//2 8//2
f 261//2 262//2 8//2
f 8//2 88//2 90//2
f 85//2 82//2 117//2
f 214//2 257//2 260//2
f 220//2 214//2 260//2
f 220//2 260//2 263//2
f 223//2 220//2 263//2
f 223//2 263//2 261//2
f 227//2 223//2 261//2
f 90//2 85//2 117//2
f 90//2 117//2 120//2
f 227//2 261//2 8//2
f 225//2 227//2 8//2
f 90//2 120//2 122//2
f 90//2 122//2 125//2
f 183//2 221//2 222//2
f 186//2 183//2 222//2
f 186//2 222//2 224//2
f 191//2 186//2 224//2
f 191//2 224//2 226//2
f 190//2 191//2 226//2
f 190//2 226//2 225//2
f 192//2 190//2 225//2
f 90//2 125//2 123//2
f 8//2 90//2 123//2
f 192//2 225//2 8//2
f 8//2 123//2 124//2
f 8//2 124//2 121//2
f 119//2 116//2 151//2
f 119//2 151//2 154//2
f 150//2 184//2 187//2
f 153//2 150//2 187//2
f 153//2 187//2 188//2
f 155//2 153//2 188//2
f 155//2 188//2 189//2
f 158//2 155//2 189//2
f 158//2 189//2 192//2
f 157//2 158//2 192//2
f 121//2 119//2 154//2
f 121//2 154//2 156//2
f 157//2 192//2 8//2
f 121//2 156//2 159//2
f 157//2 8//2 121//2
f 332//2 331//2 291//2
f 291//2 284//2 329//2
f 293//2 295//2 253//2
f 253//2 252//2 292//2
f 258//2 257//2 214//2
f 214//2 216//2 255//2
f 180//2 219//2 221//2
f 146//2 185//2 184//2
f 112//2 152//2 151//2
f 78//2 118//2 117//2
f 44//2 84//2 83//2
f 24//2 13//2 52//2
f 17//2 22//2 7//2
f 7//2 3//2 15//2
f 7//2 15//2 12//2
f 14//2 17//2 7//2
f 7//3 8//3 6//3
f 29//4 31//4 1//4
f 1//4 5//4 39//4
f 1//4 39//4 32//4
f 38//4 29//4 1//4
f 36//4 39//4 5//4
f 6//4 378//4 383//4
f 6//4 383//4 381//4
f 34//4 36//4 5//4
f 35//4 34//4 5//4
f 6//4 381//4 380//4
f 6//4 380//4 379//4
f 35//4 5//4 6//4
f 69//4 33//4 37//4
f 37//4 35//4 6//4
f 67//4 69//4 37//4
f 58//4 67//4 37//4
f 377//4 385//4 345//4
f 377//4 345//4 343//4
f 382//4 377//4 343//4
f 379//4 382//4 343//4
f 61//4 58//4 37//4
f 60//4 61//4 37//4
f 6//4 379//4 343//4
f 60//4 37//4 6//4
f 62//4 60//4 6//4
f 59//4 62//4 6//4
f 99//4 63//4 59//4
f 98//4 99//4 59//4
f 340//4 339//4 304//4
f 340//4 304//4 307//4
f 337//4 340//4 307//4
f 337//4 307//4 305//4
f 346//4 337//4 305//4
f 342//4 346//4 305//4
f 344//4 342//4 305//4
f 343//4 344//4 305//4
f 93//4 98//4 59//4
f 96//4 93//4 59//4
f 6//4 343//4 305//4
f 95//4 96//4 59//4
f 95//4 59//4 6//4
f 97//4 95//4 6//4
f 133//4 92//4 94//4
f 94//4 97//4 6//4
f 132//4 133//4 94//4
f 131//4 132//4 94//4
f 301//4 310//4 272//4
f 301//4 272//4 268//4
f 308//4 301//4 268//4
f 308//4 268//4 270//4
f 303//4 308//4 270//4
f 303//4 270//4 269//4
f 306//4 303//4 269//4
f 305//4 306//4 269//4
f 129//4 131//4 94//4
f 128//4 129//4 94//4
f 6//4 305//4 269//4
f 128//4 94//4 6//4
f 130//4 128//4 6//4
f 127//4 130//4 6//4
f 167//4 126//4 127//4
f 160//4 167//4 127//4
f 265//4 273//4 230//4
f 265//4 230//4 234//4
f 264//4 265//4 234//4
f 264//4 234//4 233//4
f 267//4 264//4 233//4
f 267//4 233//4 232//4
f 271//4 267//4 232//4
f 269//4 271//4 232//4
f 165//4 160//4 127//4
f 163//4 165//4 127//4
f 6//4 269//4 232//4
f 162//4 163//4 127//4
f 162//4 127//4 6//4
f 164//4 162//4 6//4
f 202//4 161//4 166//4
f 166//4 164//4 6//4
f 199//4 202//4 166//4
f 193//4 199//4 166//4
f 236//4 237//4 194//4
f 236//4 194//4 198//4
f 229//4 236//4 198//4
f 229//4 198//4 197//4
f 235//4 229//4 197//4
f 235//4 197//4 195//4
f 231//4 235//4 195//4
f 196//4 193//4 166//4
f 232//4 231//4 195//4
f 195//4 196//4 166//4
f 6//4 232//4 195//4
f 1//4 31//4 26//4
f 1//4 26//4 25//4
f 404//4 408//4 2//4
f 402//4 404//4 2//4
f 2//4 1//4 25//4
f 2//4 25//4 27//4
f 403//4 402//4 2//4
f 406//4 403//4 2//4
f 2//4 27//4 30//4
f 28//4 40//4 74//4
f 6//4 414//4 412//4
f 384//4 378//4 6//4
f 374//4 384//4 6//4
f 6//4 412//4 411//4
f 6//4 411//4 413//4
f 376//4 374//4 6//4
f 372//4 376//4 6//4
f 6//4 413//4 415//4
f 372//4 6//4 415//4
f 370//4 372//4 415//4
f 370//4 415//4 409//4
f 370//4 409//4 417//4
f 370//4 417//4 405//4
f 370//4 405//4 406//4
f 30//4 28//4 74//4
f 30//4 74//4 71//4
f 370//4 406//4 2//4
f 371//4 370//4 2//4
f 30//4 71//4 72//4
f 30//4 72//4 65//4
f 345//4 385//4 373//4
f 347//4 345//4 373//4
f 347//4 373//4 375//4
f 348//4 347//4 375//4
f 348//4 375//4 371//4
f 338//4 348//4 371//4
f 30//4 65//4 64//4
f 2//4 30//4 64//4
f 338//4 371//4 2//4
f 341//4 338//4 2//4
f 2//4 64//4 66//4
f 2//4 66//4 70//4
f 336//4 341//4 2//4
f 353//4 336//4 2//4
f 73//4 68//4 100//4
f 73//4 100//4 102//4
f 351//4 353//4 2//4
f 309//4 349//4 352//4
f 309//4 352//4 351//4
f 302//4 309//4 351//4
f 70//4 73//4 102//4
f 70//4 102//4 107//4
f 302//4 351//4 2//4
f 300//4 302//4 2//4
f 70//4 107//4 105//4
f 70//4 105//4 104//4
f 311//4 300//4 2//4
f 315//4 311//4 2//4
f 2//4 70//4 104//4
f 2//4 104//4 106//4
f 314//4 315//4 2//4
f 2//4 106//4 108//4
f 103//4 101//4 134//4
f 266//4 313//4 316//4
f 276//4 266//4 316//4
f 276//4 316//4 317//4
f 278//4 276//4 317//4
f 278//4 317//4 314//4
f 281//4 278//4 314//4
f 108//4 103//4 134//4
f 108//4 134//4 136//4
f 281//4 314//4 2//4
f 279//4 281//4 2//4
f 108//4 136//4 138//4
f 108//4 138//4 141//4
f 228//4 275//4 277//4
f 238//4 228//4 277//4
f 238//4 277//4 280//4
f 240//4 238//4 280//4
f 240//4 280//4 279//4
f 243//4 240//4 279//4
f 108//4 141//4 140//4
f 2//4 108//4 140//4
f 243//4 279//4 2//4
f 242//4 243//4 2//4
f 2//4 140//4 142//4
f 2//4 142//4 139//4
f 137//4 135//4 418//4
f 137//4 418//4 169//4
f 200//4 239//4 241//4
f 204//4 200//4 241//4
f 204//4 241//4 244//4
f 207//4 204//4 244//4
f 207//4 244//4 245//4
f 206//4 207//4 245//4
f 206//4 245//4 242//4
f 209//4 206//4 242//4
f 139//4 137//4 169//4
f 139//4 169//4 171//4
f 209//4 242//4 2//4
f 139//4 171//4 174//4
f 139//4 174//4 173//4
f 168//4 201//4 203//4
f 170//4 168//4 203//4
f 170//4 203//4 208//4
f 172//4 170//4 208//4
f 172//4 208//4 205//4
f 175//4 172//4 205//4
f 175//4 205//4 209//4
f 2//4 139//4 173//4
f 173//4 175//4 209//4
f 410//4 414//4 6//4
f 6//4 2//4 408//4
f 6//4 408//4 407//4
f 416//4 410//4 6//4
f 350//4 349//4 309//4
f 309//4 304//4 339//4
f 312//4 313//4 266//4
f 266//4 272//4 310//4
f 274//4 275//4 228//4
f 228//4 230//4 273//4
f 239//4 200//4 194//4
f 201//4 168//4 161//4
f 418//4 135//4 126//4
f 134//4 101//4 92//4
f 100//4 68//4 63//4
f 69//4 74//4 40//4
f 3//5 7//5 5//5
f 8//6 4//6 2//6
f 24//7 18//7 33//7
f 18//8 23//8 37//8
f 37//9 23//9 21//9
f 35//10 21//10 19//10
f 34//11 19//11 20//11
f 36//12 20//12 22//12
f 39//13 22//13 17//13
f 32//14 17//14 14//14
f 38//15 14//15 12//15
f 29//16 12//16 15//16
f 15//17 10//17 26//17
f 10//18 9//18 25//18
f 9//19 11//19 27//19
f 11//20 16//20 30//20
f 16//21 13//21 28//21
f 13//22 24//22 40//22
f 51//7 57//7 63//7
f 57//8 55//8 59//8
f 59//9 55//9 49//9
f 62//10 49//10 48//10
f 60//11 48//11 50//11
f 61//12 50//12 54//12
f 58//13 54//13 53//13
f 74//2 69//2 67//2
f 67//14 53//14 56//14
f 71//15 74//15 56//15
f 56//4 52//4 47//4
f 71//16 47//16 45//16
f 72//17 45//17 42//17
f 42//18 41//18 64//18
f 41//19 43//19 66//19
f 43//20 46//20 70//20
f 46//21 44//21 73//21
f 44//22 51//22 68//22
f 82//7 85//7 92//7
f 85//8 90//8 94//8
f 94//9 90//9 88//9
f 97//10 88//10 87//10
f 95//11 87//11 89//11
f 96//12 89//12 91//12
f 93//13 91//13 86//13
f 86//31 83//31 84//31
f 84//14 99//14 98//14
f 102//32 100//32 99//32
f 99//15 84//15 81//15
f 102//16 81//16 79//16
f 79//17 76//17 105//17
f 76//18 75//18 104//18
f 75//19 77//19 106//19
f 77//20 80//20 108//20
f 80//21 78//21 103//21
f 82//22 101//22 103//22
f 119//7 126//7 135//7
f 119//8 121//8 127//8
f 127//9 121//9 124//9
f 130//10 124//10 123//10
f 128//11 123//11 125//11
f 129//12 125//12 122//12
f 131//13 122//13 120//13
f 133//14 132//14 120//14
f 117//14 118//14 133//14
f 134//15 133//15 118//15
f 118//15 115//15 136//15
f 136//16 115//16 114//16
f 114//17 110//17 141//17
f 110//18 109//18 140//18
f 109//19 111//19 142//19
f 111//20 113//20 139//20
f 113//21 112//21 137//21
f 112//22 116//22 135//22
f 168//7 150//7 153//7
f 153//8 155//8 166//8
f 166//9 155//9 158//9
f 164//10 158//10 157//10
f 162//11 157//11 159//11
f 163//12 159//12 156//12
f 165//13 156//13 154//13
f 152//14 167//14 160//14
f 160//33 154//33 151//33
f 167//15 152//15 147//15
f 169//16 147//16 149//16
f 149//17 144//17 174//17
f 144//18 143//18 173//18
f 143//19 145//19 175//19
f 175//20 145//20 148//20
f 148//21 146//21 170//21
f 146//22 150//22 168//22
f 183//7 186//7 194//7
f 186//8 191//8 198//8
f 198//9 191//9 190//9
f 197//10 190//10 192//10
f 195//11 192//11 189//11
f 196//12 189//12 188//12
f 193//13 188//13 187//13
f 202//14 199//14 187//14
f 184//34 185//34 202//34
f 201//35 202//35 185//35
f 185//15 182//15 203//15
f 203//16 182//16 179//16
f 179//17 177//17 205//17
f 205//18 177//18 176//18
f 176//19 178//19 206//19
f 178//20 181//20 207//20
f 181//21 180//21 204//21
f 204//22 180//22 183//22
f 214//7 220//7 230//7
f 220//8 223//8 234//8
f 234//9 223//9 227//9
f 233//10 227//10 225//10
f 232//11 225//11 226//11
f 231//12 226//12 224//12
f 235//13 224//13 222//13
f 218//14 236//14 229//14
f 229//36 222//36 221//36
f 219//37 218//37 229//37
f 237//38 236//38 218//38
f 218//15 215//15 241//15
f 241//39 239//39 237//39
f 241//16 215//16 211//16
f 211//17 212//17 245//17
f 212//18 210//18 242//18
f 210//19 213//19 243//19
f 213//20 217//20 240//20
f 217//21 216//21 238//21
f 216//22 214//22 228//22
f 253//7 256//7 272//7
f 256//8 259//8 268//8
f 268//9 259//9 262//9
f 270//10 262//10 261//10
f 269//11 261//11 263//11
f 271//12 263//12 260//12
f 264//13 267//13 260//13
f 260//40 257//40 258//40
f 265//14 264//14 258//14
f 258//4 255//4 254//4
f 274//2 273//2 265//2
f 265//15 254//15 251//15
f 277//41 275//41 274//41
f 274//16 251//16 247//16
f 247//17 248//17 280//17
f 248//18 246//18 279//18
f 246//19 249//19 281//19
f 249//20 250//20 278//20
f 250//21 252//21 276//21
f 252//22 253//22 266//22
f 289//7 288//7 309//7
f 288//8 294//8 304//8
f 304//9 294//9 299//9
f 307//10 299//10 297//10
f 305//11 297//11 298//11
f 306//12 298//12 296//12
f 293//13 308//13 303//13
f 303//42 296//42 295//42
f 290//14 301//14 308//14
f 308//43 293//43 292//43
f 310//44 301//44 290//44
f 290//15 287//15 312//15
f 316//4 313//4 312//4
f 312//16 287//16 285//16
f 285//17 283//17 317//17
f 283//18 282//18 314//18
f 282//19 286//19 315//19
f 286//20 284//20 311//20
f 284//21 291//21 300//21
f 291//22 289//22 302//22
f 325//7 327//7 348//7
f 327//8 326//8 347//8
f 347//9 326//9 334//9
f 345//10 334//10 333//10
f 343//11 333//11 335//11
f 335//45 331//45 332//45
f 332//12 342//12 344//12
f 346//13 342//13 332//13
f 332//46 329//46 328//46
f 346//14 328//14 324//14
f 337//15 324//15 323//15
f 350//47 339//47 340//47
f 340//16 323//16 321//16
f 352//48 349//48 350//48
f 350//17 321//17 319//17
f 319//18 318//18 351//18
f 318//19 320//19 353//19
f 353//20 320//20 322//20
f 322//21 330//21 341//21
f 330//22 325//22 338//22
f 368//7 362//7 378//7
f 362//8 366//8 383//8
f 383//9 366//9 364//9
f 381//10 364//10 363//10
f 380//11 363//11 365//11
f 379//12 365//12 367//12
f 382//13 367//13 361//13
f 377//14 361//14 369//14
f 385//15 369//15 357//15
f 373//16 357//16 358//16
f 358//17 355//17 371//17
f 355//18 354//18 370//18
f 354//19 356//19 372//19
f 356//20 360//20 376//20
f 360//21 359//21 374//21
f 359//22 368//22 384//22
f 400//7 395//7 410//7
f 395//8 399//8 414//8
f 414//9 399//9 397//9
f 412//10 397//10 396//10
f 411//11 396//11 398//11
f 413//12 398//12 393//12
f 415//13 393//13 394//13
f 409//14 394//14 401//14
f 417//15 401//15 389//15
f 405//16 389//16 391//16
f 391//17 387//17 403//17
f 387//18 386//18 402//18
f 386//19 388//19 404//19
f 388//20 392//20 408//20
f 392//21 390//21 407//21
f 390//22 400//22 416//22
f 167//15 147//15 169//15
