# Blender 5.2.1 LTS
# www.blender.org
mtllib kit_rubber_pad.mtl
o kit_rubber_pad
v -0.030000 -0.020000 0.004000
v -0.030000 0.020000 0.004000
v -0.030000 -0.020000 -0.004000
v -0.030000 0.020000 -0.004000
v 0.030000 -0.020000 0.004000
v 0.030000 0.020000 0.004000
v 0.030000 -0.020000 -0.004000
v 0.030000 0.020000 -0.004000
v -0.022000 0.000000 -0.004000
v -0.021848 -0.000765 -0.004000
v -0.021848 0.000765 -0.004000
v -0.020765 -0.001848 -0.004000
v -0.021414 -0.001414 -0.004000
v -0.020765 0.001848 -0.004000
v -0.021414 0.001414 -0.004000
v -0.019235 -0.001848 -0.004000
v -0.019235 0.001848 -0.004000
v -0.018000 0.000000 -0.004000
v -0.018152 0.000765 -0.004000
v -0.018152 -0.000765 -0.004000
v -0.018586 0.001414 -0.004000
v -0.018586 -0.001414 -0.004000
v -0.020000 -0.002000 -0.004000
v -0.020000 0.002000 -0.004000
v -0.022000 0.000000 0.004000
v -0.021848 -0.000765 0.004000
v -0.021848 0.000765 0.004000
v -0.020765 0.001848 0.004000
v -0.020765 -0.001848 0.004000
v -0.021414 0.001414 0.004000
v -0.021414 -0.001414 0.004000
v -0.019235 -0.001848 0.004000
v -0.019235 0.001848 0.004000
v -0.018000 0.000000 0.004000
v -0.018152 0.000765 0.004000
v -0.018152 -0.000765 0.004000
v -0.018586 0.001414 0.004000
v -0.018586 -0.001414 0.004000
v -0.020000 -0.002000 0.004000
v -0.020000 0.002000 0.004000
v 0.018000 0.000000 -0.004000
v 0.018152 -0.000765 -0.004000
v 0.018152 0.000765 -0.004000
v 0.019235 -0.001848 -0.004000
v 0.019235 0.001848 -0.004000
v 0.018586 -0.001414 -0.004000
v 0.018586 0.001414 -0.004000
v 0.020765 -0.001848 -0.004000
v 0.020765 0.001848 -0.004000
v 0.022000 0.000000 -0.004000
v 0.021848 -0.000765 -0.004000
v 0.021848 0.000765 -0.004000
v 0.021414 -0.001414 -0.004000
v 0.021414 0.001414 -0.004000
v 0.020000 0.002000 -0.004000
v 0.020000 -0.002000 -0.004000
v 0.018000 0.000000 0.004000
v 0.018152 -0.000765 0.004000
v 0.018152 0.000765 0.004000
v 0.019235 -0.001848 0.004000
v 0.019235 0.001848 0.004000
v 0.018586 -0.001414 0.004000
v 0.018586 0.001414 0.004000
v 0.020765 -0.001848 0.004000
v 0.020765 0.001848 0.004000
v 0.022000 0.000000 0.004000
v 0.021848 -0.000765 0.004000
v 0.021848 0.000765 0.004000
v 0.021414 -0.001414 0.004000
v 0.021414 0.001414 0.004000
v 0.020000 0.002000 0.004000
v 0.020000 -0.002000 0.004000
vn -1.0000 -0.0000 -0.0000
vn -0.0000 -0.0000 -1.0000
vn 1.0000 -0.0000 -0.0000
vn -0.0000 -0.0000 1.0000
vn -0.0000 -1.0000 -0.0000
vn -0.0000 1.0000 -0.0000
vn -0.1949 -0.9808 -0.0000
vn -0.5559 -0.8313 -0.0000
vn -0.8313 -0.5559 -0.0000
vn -0.9808 -0.1949 -0.0000
vn -0.9808 0.1949 -0.0000
vn -0.8313 0.5559 -0.0000
vn -0.5559 0.8313 -0.0000
vn -0.1949 0.9808 -0.0000
vn 0.1949 0.9808 -0.0000
vn 0.5559 0.8313 -0.0000
vn 0.8313 0.5559 -0.0000
vn 0.9808 0.1949 -0.0000
vn 0.9808 -0.1949 -0.0000
vn 0.8313 -0.5559 -0.0000
vn 0.5559 -0.8313 -0.0000
vn 0.1949 -0.9808 -0.0000
s 0
usemtl Rubber
f 1//1 4//1 3//1
f 3//2 4//2 9//2
f 24//2 4//2 55//2
f 8//2 7//2 50//2
f 7//3 6//3 5//3
f 5//4 6//4 66//4
f 39//4 1//4 72//4
f 2//4 1//4 25//4
f 3//5 5//5 1//5
f 8//6 2//6 6//6
f 24//7 33//7 40//7
f 17//8 37//8 33//8
f 37//9 19//9 35//9
f 35//10 18//10 34//10
f 34//11 20//11 36//11
f 36//12 22//12 38//12
f 38//13 16//13 32//13
f 32//14 23//14 39//14
f 39//15 12//15 29//15
f 29//16 13//16 31//16
f 13//17 26//17 31//17
f 10//18 25//18 26//18
f 9//19 27//19 25//19
f 11//20 30//20 27//20
f 15//21 28//21 30//21
f 14//22 40//22 28//22
f 55//7 65//7 71//7
f 49//8 70//8 65//8
f 70//9 52//9 68//9
f 68//10 50//10 66//10
f 66//11 51//11 67//11
f 67//12 53//12 69//12
f 69//13 48//13 64//13
f 64//14 56//14 72//14
f 72//15 44//15 60//15
f 60//16 46//16 62//16
f 46//17 58//17 62//17
f 42//18 57//18 58//18
f 41//19 59//19 57//19
f 43//20 63//20 59//20
f 47//21 61//21 63//21
f 45//22 71//22 61//22
f 1//1 2//1 4//1
f 13//2 12//2 3//2
f 4//2 14//2 15//2
f 4//2 15//2 11//2
f 10//2 13//2 3//2
f 4//2 11//2 9//2
f 9//2 10//2 3//2
f 56//2 48//2 7//2
f 7//2 3//2 12//2
f 7//2 12//2 23//2
f 44//2 56//2 7//2
f 46//2 44//2 7//2
f 7//2 23//2 16//2
f 7//2 16//2 22//2
f 42//2 46//2 7//2
f 42//2 7//2 22//2
f 42//2 22//2 20//2
f 41//2 42//2 20//2
f 41//2 20//2 18//2
f 43//2 41//2 18//2
f 43//2 18//2 19//2
f 47//2 43//2 19//2
f 47//2 19//2 21//2
f 45//2 47//2 21//2
f 45//2 21//2 17//2
f 8//2 49//2 55//2
f 55//2 45//2 17//2
f 24//2 14//2 4//2
f 55//2 17//2 24//2
f 4//2 8//2 55//2
f 54//2 49//2 8//2
f 7//2 48//2 53//2
f 7//2 53//2 51//2
f 52//2 54//2 8//2
f 7//2 51//2 50//2
f 50//2 52//2 8//2
f 7//3 8//3 6//3
f 69//4 64//4 5//4
f 6//4 65//4 70//4
f 6//4 70//4 68//4
f 67//4 69//4 5//4
f 6//4 68//4 66//4
f 66//4 67//4 5//4
f 71//4 65//4 6//4
f 6//4 2//4 28//4
f 6//4 28//4 40//4
f 61//4 71//4 6//4
f 63//4 61//4 6//4
f 6//4 40//4 33//4
f 6//4 33//4 37//4
f 59//4 63//4 6//4
f 59//4 6//4 37//4
f 59//4 37//4 35//4
f 57//4 59//4 35//4
f 57//4 35//4 34//4
f 58//4 57//4 34//4
f 58//4 34//4 36//4
f 62//4 58//4 36//4
f 62//4 36//4 38//4
f 60//4 62//4 38//4
f 60//4 38//4 32//4
f 5//4 64//4 72//4
f 72//4 60//4 32//4
f 39//4 29//4 1//4
f 72//4 32//4 39//4
f 1//4 5//4 72//4
f 30//4 28//4 2//4
f 1//4 29//4 31//4
f 1//4 31//4 26//4
f 27//4 30//4 2//4
f 1//4 26//4 25//4
f 25//4 27//4 2//4
f 3//5 7//5 5//5
f 8//6 4//6 2//6
f 24//7 17//7 33//7
f 17//8 21//8 37//8
f 37//9 21//9 19//9
f 35//10 19//10 18//10
f 34//11 18//11 20//11
f 36//12 20//12 22//12
f 38//13 22//13 16//13
f 32//14 16//14 23//14
f 39//15 23//15 12//15
f 29//16 12//16 13//16
f 13//17 10//17 26//17
f 10//18 9//18 25//18
f 9//19 11//19 27//19
f 11//20 15//20 30//20
f 15//21 14//21 28//21
f 14//22 24//22 40//22
f 55//7 49//7 65//7
f 49//8 54//8 70//8
f 70//9 54//9 52//9
f 68//10 52//10 50//10
f 66//11 50//11 51//11
f 67//12 51//12 53//12
f 69//13 53//13 48//13
f 64//14 48//14 56//14
f 72//15 56//15 44//15
f 60//16 44//16 46//16
f 46//17 42//17 58//17
f 42//18 41//18 57//18
f 41//19 43//19 59//19
f 43//20 47//20 63//20
f 47//21 45//21 61//21
f 45//22 55//22 71//22
