# Blender 5.2.1 LTS
# www.blender.org
mtllib kit_coupler_8.mtl
o kit_coupler_8
v 0.000000 0.008000 -0.010000
v 0.000000 0.008000 0.010000
v 0.002071 0.007727 -0.010000
v 0.002071 0.007727 0.010000
v 0.004000 0.006928 -0.010000
v 0.004000 0.006928 0.010000
v 0.005657 0.005657 -0.010000
v 0.005657 0.005657 0.010000
v 0.006928 0.004000 -0.010000
v 0.006928 0.004000 0.010000
v 0.007727 0.002071 -0.010000
v 0.007727 0.002071 0.010000
v 0.008000 0.000000 -0.010000
v 0.008000 0.000000 0.010000
v 0.007727 -0.002071 -0.010000
v 0.007727 -0.002071 0.010000
v 0.006928 -0.004000 -0.010000
v 0.006928 -0.004000 0.010000
v 0.005657 -0.005657 -0.010000
v 0.005657 -0.005657 0.010000
v 0.004000 -0.006928 -0.010000
v 0.004000 -0.006928 0.010000
v 0.002071 -0.007727 -0.010000
v 0.002071 -0.007727 0.010000
v 0.000000 -0.008000 -0.010000
v 0.000000 -0.008000 0.010000
v -0.002071 -0.007727 -0.010000
v -0.002071 -0.007727 0.010000
v -0.004000 -0.006928 -0.010000
v -0.004000 -0.006928 0.010000
v -0.005657 -0.005657 -0.010000
v -0.005657 -0.005657 0.010000
v -0.006928 -0.004000 -0.010000
v -0.006928 -0.004000 0.010000
v -0.007727 -0.002071 -0.010000
v -0.007727 -0.002071 0.010000
v -0.008000 0.000000 -0.010000
v -0.008000 0.000000 0.010000
v -0.007727 0.002071 -0.010000
v -0.007727 0.002071 0.010000
v -0.006928 0.004000 -0.010000
v -0.006928 0.004000 0.010000
v -0.005657 0.005657 -0.010000
v -0.005657 0.005657 0.010000
v -0.004000 0.006928 -0.010000
v -0.004000 0.006928 0.010000
v -0.002071 0.007727 -0.010000
v -0.002071 0.007727 0.010000
v 0.004000 0.000000 0.010000
v -0.004000 0.000000 0.010000
v -0.003696 -0.001531 0.010000
v -0.003696 0.001531 0.010000
v -0.001531 -0.003696 0.010000
v -0.001531 0.003696 0.010000
v -0.002828 -0.002828 0.010000
v -0.002828 0.002828 0.010000
v 0.001531 -0.003696 0.010000
v 0.001531 0.003696 0.010000
v 0.003696 -0.001531 0.010000
v 0.003696 0.001531 0.010000
v 0.002828 -0.002828 0.010000
v 0.002828 0.002828 0.010000
v 0.000000 0.004000 0.010000
v 0.000000 -0.004000 0.010000
v -0.004000 0.000000 -0.010000
v -0.003696 -0.001531 -0.010000
v -0.003696 0.001531 -0.010000
v -0.002828 0.002828 -0.010000
v -0.001531 -0.003696 -0.010000
v -0.001461 0.003709 -0.010000
v -0.001531 0.003696 -0.010000
v -0.002828 -0.002828 -0.010000
v 0.001531 -0.003696 -0.010000
v 0.001531 0.003696 -0.010000
v 0.004000 0.000000 -0.010000
v 0.003696 0.001531 -0.010000
v 0.003696 -0.001531 -0.010000
v 0.002828 0.002828 -0.010000
v 0.002828 -0.002828 -0.010000
v 0.000000 -0.004000 -0.010000
v 0.000000 0.004000 -0.010000
vn 0.1307 0.9914 -0.0000
vn 0.3827 0.9239 -0.0000
vn 0.6086 0.7935 -0.0000
vn 0.7935 0.6086 -0.0000
vn 0.9239 0.3827 -0.0000
vn 0.9914 0.1307 -0.0000
vn 0.9914 -0.1307 -0.0000
vn 0.9239 -0.3827 -0.0000
vn 0.7935 -0.6086 -0.0000
vn 0.6086 -0.7935 -0.0000
vn 0.3827 -0.9239 -0.0000
vn 0.1307 -0.9914 -0.0000
vn -0.1307 -0.9914 -0.0000
vn -0.3827 -0.9239 -0.0000
vn -0.6086 -0.7935 -0.0000
vn -0.7935 -0.6086 -0.0000
vn -0.9239 -0.3827 -0.0000
vn -0.9914 -0.1307 -0.0000
vn -0.9914 0.1307 -0.0000
vn -0.9239 0.3827 -0.0000
vn -0.7935 0.6086 -0.0000
vn -0.6086 0.7935 -0.0000
vn -0.0000 -0.0000 1.0000
vn -0.3827 0.9239 -0.0000
vn -0.1307 0.9914 -0.0000
vn -0.0000 -0.0000 -1.0000
vn -0.1948 -0.9809 -0.0000
vn -0.5562 -0.8311 -0.0000
vn -0.8311 -0.5562 -0.0000
vn -0.9809 -0.1948 -0.0000
vn -0.9809 0.1948 -0.0000
vn -0.8311 0.5562 -0.0000
vn -0.5562 0.8311 -0.0000
vn -0.1948 0.9809 -0.0000
vn 0.1948 0.9809 -0.0000
vn 0.5562 0.8311 -0.0000
vn 0.8311 0.5562 -0.0000
vn 0.9809 0.1948 -0.0000
vn 0.9809 -0.1948 -0.0000
vn 0.8311 -0.5562 -0.0000
vn 0.5562 -0.8311 -0.0000
vn 0.1826 -0.9832 0.0010
vn 0.1953 -0.9807 -0.0000
vn 0.1948 -0.9809 -0.0000
s 0
usemtl DetailTeal
f 1//1 4//1 3//1
f 3//2 6//2 5//2
f 5//3 8//3 7//3
f 7//4 10//4 9//4
f 9//5 12//5 11//5
f 11//6 14//6 13//6
f 13//7 16//7 15//7
f 15//8 18//8 17//8
f 17//9 20//9 19//9
f 19//10 22//10 21//10
f 21//11 24//11 23//11
f 23//12 26//12 25//12
f 25//13 28//13 27//13
f 27//14 30//14 29//14
f 29//15 32//15 31//15
f 31//16 34//16 33//16
f 33//17 36//17 35//17
f 35//18 38//18 37//18
f 37//19 40//19 39//19
f 39//20 42//20 41//20
f 41//21 44//21 43//21
f 43//22 46//22 45//22
f 8//23 54//23 63//23
f 22//23 64//23 53//23
f 45//24 48//24 47//24
f 47//25 2//25 1//25
f 13//26 77//26 75//26
f 31//26 47//26 67//26
f 74//27 63//27 81//27
f 78//28 58//28 74//28
f 60//29 78//29 76//29
f 49//30 76//30 75//30
f 59//31 75//31 77//31
f 61//32 77//32 79//32
f 57//33 79//33 73//33
f 64//34 73//34 80//34
f 53//35 80//35 69//35
f 55//36 69//36 72//36
f 66//37 55//37 72//37
f 65//38 51//38 66//38
f 67//39 50//39 65//39
f 68//40 52//40 67//40
f 71//41 56//41 68//41
f 63//42 71//42 70//42
f 1//1 2//1 4//1
f 3//2 4//2 6//2
f 5//3 6//3 8//3
f 7//4 8//4 10//4
f 9//5 10//5 12//5
f 11//6 12//6 14//6
f 13//7 14//7 16//7
f 15//8 16//8 18//8
f 17//9 18//9 20//9
f 19//10 20//10 22//10
f 21//11 22//11 24//11
f 23//12 24//12 26//12
f 25//13 26//13 28//13
f 27//14 28//14 30//14
f 29//15 30//15 32//15
f 31//16 32//16 34//16
f 33//17 34//17 36//17
f 35//18 36//18 38//18
f 37//19 38//19 40//19
f 39//20 40//20 42//20
f 41//21 42//21 44//21
f 43//22 44//22 46//22
f 49//23 14//23 12//23
f 12//23 10//23 8//23
f 8//23 6//23 4//23
f 4//23 2//23 48//23
f 48//23 46//23 44//23
f 44//23 42//23 40//23
f 40//23 38//23 50//23
f 40//23 50//23 52//23
f 48//23 44//23 40//23
f 8//23 4//23 48//23
f 49//23 12//23 8//23
f 60//23 49//23 8//23
f 8//23 48//23 40//23
f 40//23 52//23 56//23
f 40//23 56//23 54//23
f 62//23 60//23 8//23
f 58//23 62//23 8//23
f 8//23 40//23 54//23
f 63//23 58//23 8//23
f 51//23 50//23 38//23
f 38//23 36//23 34//23
f 34//23 32//23 30//23
f 30//23 28//23 26//23
f 26//23 24//23 22//23
f 22//23 20//23 18//23
f 18//23 16//23 14//23
f 14//23 49//23 59//23
f 14//23 59//23 61//23
f 22//23 18//23 14//23
f 30//23 26//23 22//23
f 38//23 34//23 30//23
f 55//23 51//23 38//23
f 53//23 55//23 38//23
f 38//23 30//23 22//23
f 22//23 14//23 61//23
f 22//23 61//23 57//23
f 53//23 38//23 22//23
f 22//23 57//23 64//23
f 45//24 46//24 48//24
f 47//25 48//25 2//25
f 70//26 47//26 1//26
f 1//26 3//26 5//26
f 5//26 7//26 9//26
f 9//26 11//26 13//26
f 13//26 15//26 17//26
f 17//26 19//26 21//26
f 21//26 23//26 25//26
f 25//26 27//26 29//26
f 29//26 31//26 72//26
f 29//26 72//26 69//26
f 21//26 25//26 29//26
f 13//26 17//26 21//26
f 5//26 9//26 13//26
f 70//26 1//26 5//26
f 81//26 70//26 5//26
f 13//26 21//26 29//26
f 29//26 69//26 80//26
f 29//26 80//26 73//26
f 74//26 81//26 5//26
f 78//26 74//26 5//26
f 13//26 29//26 73//26
f 13//26 73//26 79//26
f 78//26 5//26 13//26
f 76//26 78//26 13//26
f 13//26 79//26 77//26
f 75//26 76//26 13//26
f 66//26 72//26 31//26
f 31//26 33//26 35//26
f 35//26 37//26 39//26
f 39//26 41//26 43//26
f 43//26 45//26 47//26
f 47//26 70//26 71//26
f 47//26 71//26 68//26
f 39//26 43//26 47//26
f 31//26 35//26 39//26
f 65//26 66//26 31//26
f 47//26 68//26 67//26
f 67//26 65//26 31//26
f 31//26 39//26 47//26
f 74//27 58//27 63//27
f 78//28 62//28 58//28
f 60//29 62//29 78//29
f 49//30 60//30 76//30
f 59//31 49//31 75//31
f 61//32 59//32 77//32
f 57//33 61//33 79//33
f 64//34 57//34 73//34
f 53//35 64//35 80//35
f 55//36 53//36 69//36
f 66//37 51//37 55//37
f 65//38 50//38 51//38
f 67//39 52//39 50//39
f 68//40 56//40 52//40
f 71//41 54//41 56//41
f 70//43 81//43 63//43
f 63//44 54//44 71//44
