# Blender 5.2.1 LTS
# www.blender.org
mtllib kit_motor_35.mtl
o kit_motor_35
v -0.034000 0.000000 -0.035000
v 0.034000 0.000000 -0.035000
v 0.041000 0.000000 -0.004000
v -0.034000 -0.006828 -0.034327
v 0.034000 -0.006828 -0.034327
v 0.041000 -0.001236 -0.003804
v -0.034000 -0.013394 -0.032336
v 0.034000 -0.013394 -0.032336
v 0.041000 -0.002351 -0.003236
v -0.034000 -0.019445 -0.029101
v 0.041000 -0.003236 -0.002351
v 0.034000 -0.019445 -0.029101
v -0.034000 -0.024749 -0.024749
v 0.041000 -0.003804 -0.001236
v 0.034000 -0.024749 -0.024749
v -0.034000 -0.029101 -0.019445
v 0.034000 -0.029101 -0.019445
v 0.041000 -0.004000 0.000000
v -0.034000 -0.032336 -0.013394
v 0.034000 -0.032336 -0.013394
v 0.041000 -0.003804 0.001236
v -0.034000 -0.034327 -0.006828
v 0.041000 -0.003236 0.002351
v 0.034000 -0.034327 -0.006828
v -0.034000 -0.035000 0.000000
v 0.041000 -0.002351 0.003236
v 0.034000 -0.035000 0.000000
v -0.034000 -0.034327 0.006828
v 0.041000 -0.001236 0.003804
v 0.034000 -0.034327 0.006828
v -0.034000 -0.032336 0.013394
v 0.041000 0.000000 0.004000
v 0.034000 -0.032336 0.013394
v -0.034000 -0.029101 0.019445
v 0.034000 -0.029101 0.019445
v 0.041000 0.001236 0.003804
v -0.034000 -0.024749 0.024749
v 0.034000 -0.024749 0.024749
v 0.041000 0.002351 0.003236
v -0.034000 -0.019445 0.029101
v 0.034000 -0.019445 0.029101
v 0.041000 0.003236 0.002351
v -0.034000 -0.013394 0.032336
v 0.034000 -0.013394 0.032336
v 0.041000 0.003804 0.001236
v -0.034000 -0.006828 0.034327
v 0.041000 0.004000 0.000000
v 0.034000 -0.006828 0.034327
v -0.034000 0.000000 0.035000
v 0.041000 0.003804 -0.001236
v 0.034000 0.000000 0.035000
v -0.034000 0.006828 0.034327
v 0.041000 0.003236 -0.002351
v 0.034000 0.006828 0.034327
v -0.034000 0.013394 0.032336
v 0.041000 0.002351 -0.003236
v 0.034000 0.013394 0.032336
v -0.034000 0.019445 0.029101
v 0.041000 0.001236 -0.003804
v 0.034000 0.019445 0.029101
v -0.034000 0.024749 0.024749
v 0.034000 0.024749 0.024749
v -0.034000 0.029101 0.019445
v 0.034000 0.029101 0.019445
v -0.034000 0.032336 0.013394
v 0.034000 0.032336 0.013394
v -0.034000 0.034327 0.006828
v 0.034000 0.034327 0.006828
v -0.034000 0.035000 0.000000
v 0.034000 0.035000 0.000000
v -0.034000 0.034327 -0.006828
v 0.034000 0.034327 -0.006828
v -0.034000 0.032336 -0.013394
v 0.034000 0.032336 -0.013394
v -0.034000 0.029101 -0.019445
v 0.034000 0.029101 -0.019445
v -0.034000 0.024749 -0.024749
v 0.034000 0.024749 -0.024749
v -0.034000 0.019445 -0.029101
v 0.034000 0.019445 -0.029101
v -0.034000 0.013394 -0.032336
v 0.034000 0.013394 -0.032336
v -0.034000 0.006828 -0.034327
v 0.034000 0.006828 -0.034327
v 0.034000 0.003804 0.001236
v 0.034000 0.004000 0.000000
v 0.034000 0.003236 -0.002351
v 0.034000 0.003236 0.002351
v 0.034000 0.003804 -0.001236
v 0.034000 0.002351 0.003236
v 0.034000 0.000000 -0.004000
v 0.034000 -0.001236 -0.003804
v 0.034000 0.001236 -0.003804
v 0.034000 0.002351 -0.003236
v 0.034000 0.000000 0.004000
v 0.034000 0.001236 0.003804
v 0.034000 -0.001236 0.003804
v 0.034000 -0.003236 0.002351
v 0.034000 -0.003236 -0.002351
v 0.034000 -0.004000 0.000000
v 0.034000 -0.003804 0.001236
v 0.034000 -0.003804 -0.001236
v 0.034000 -0.002351 0.003236
v 0.034000 -0.002351 -0.003236
v 0.034000 -0.018000 -0.020000
v 0.034000 -0.018152 -0.019235
v 0.034000 -0.018152 -0.020765
v 0.034000 -0.019235 -0.018152
v 0.034000 -0.019235 -0.021848
v 0.034000 -0.018586 -0.018586
v 0.034000 -0.018586 -0.021414
v 0.034000 -0.020765 -0.018152
v 0.034000 -0.020765 -0.021848
v 0.034000 -0.022000 -0.020000
v 0.034000 -0.021848 -0.019235
v 0.034000 -0.021848 -0.020765
v 0.034000 -0.021414 -0.018586
v 0.034000 -0.021414 -0.021414
v 0.034000 -0.020000 -0.018000
v 0.034000 -0.020000 -0.022000
v -0.034000 -0.018000 -0.020000
v -0.034000 -0.018152 -0.020765
v -0.034000 -0.018586 -0.021414
v -0.034000 -0.020000 -0.022000
v -0.034000 -0.019235 -0.021848
v -0.034000 -0.021414 -0.021414
v -0.034000 -0.022000 -0.020000
v -0.034000 -0.021848 -0.019235
v -0.034000 -0.021848 -0.020765
v -0.034000 -0.021414 -0.018586
v -0.034000 -0.020765 -0.021848
v -0.034000 -0.018152 -0.019235
v -0.034000 -0.018586 -0.018586
v -0.034000 -0.019235 -0.018152
v -0.034000 -0.020765 -0.018152
v -0.034000 -0.020000 -0.018000
v 0.034000 -0.018000 0.020000
v 0.034000 -0.018152 0.020765
v 0.034000 -0.018152 0.019235
v 0.034000 -0.019235 0.018152
v 0.034000 -0.019235 0.021848
v 0.034000 -0.018586 0.018586
v 0.034000 -0.018586 0.021414
v 0.034000 -0.020765 0.021848
v 0.034000 -0.020765 0.018152
v 0.034000 -0.022000 0.020000
v 0.034000 -0.021848 0.019235
v 0.034000 -0.021848 0.020765
v 0.034000 -0.021414 0.018586
v 0.034000 -0.021414 0.021414
v 0.034000 -0.020000 0.018000
v 0.034000 -0.020000 0.022000
v -0.034000 -0.019235 0.021848
v -0.034000 -0.018586 0.021414
v -0.034000 -0.020000 0.022000
v -0.034000 -0.020000 0.018000
v -0.034000 -0.020765 0.021848
v -0.034000 -0.021414 0.021414
v -0.034000 -0.021414 0.018586
v -0.034000 -0.022000 0.020000
v -0.034000 -0.021848 0.020765
v -0.034000 -0.021848 0.019235
v -0.034000 -0.020765 0.018152
v -0.034000 -0.018000 0.020000
v -0.034000 -0.018152 0.020765
v -0.034000 -0.018152 0.019235
v -0.034000 -0.019235 0.018152
v -0.034000 -0.018586 0.018586
v 0.034000 0.022000 -0.020000
v 0.034000 0.021848 -0.019235
v 0.034000 0.021848 -0.020765
v 0.034000 0.020765 -0.018152
v 0.034000 0.020765 -0.021848
v 0.034000 0.021414 -0.018586
v 0.034000 0.021414 -0.021414
v 0.034000 0.018586 -0.018586
v 0.034000 0.019235 -0.018152
v 0.034000 0.019235 -0.021848
v 0.034000 0.018000 -0.020000
v 0.034000 0.018152 -0.020765
v 0.034000 0.018152 -0.019235
v 0.034000 0.018586 -0.021414
v 0.034000 0.020000 -0.022000
v 0.034000 0.020000 -0.018000
v -0.034000 0.021848 -0.019235
v -0.034000 0.022000 -0.020000
v -0.034000 0.021414 -0.018586
v -0.034000 0.021414 -0.021414
v -0.034000 0.021848 -0.020765
v -0.034000 0.020000 -0.022000
v -0.034000 0.018586 -0.021414
v -0.034000 0.019235 -0.021848
v -0.034000 0.020000 -0.018000
v -0.034000 0.020765 -0.021848
v -0.034000 0.020765 -0.018152
v -0.034000 0.019235 -0.018152
v -0.034000 0.018000 -0.020000
v -0.034000 0.018152 -0.019235
v -0.034000 0.018152 -0.020765
v -0.034000 0.018586 -0.018586
v 0.034000 0.021848 0.020765
v 0.034000 0.022000 0.020000
v 0.034000 0.021414 0.021414
v 0.034000 0.021509 0.018727
v 0.034000 0.021848 0.019235
v 0.034000 0.021414 0.018586
v 0.034000 0.020765 0.018152
v 0.034000 0.020000 0.022000
v 0.034000 0.020000 0.018000
v 0.034000 0.020765 0.021848
v 0.034000 0.018586 0.021414
v 0.034000 0.019235 0.021848
v 0.034000 0.019235 0.018152
v 0.034000 0.018000 0.020000
v 0.034000 0.018152 0.019235
v 0.034000 0.018152 0.020765
v 0.034000 0.018586 0.018586
v -0.034000 0.021848 0.020765
v -0.034000 0.022000 0.020000
v -0.034000 0.021848 0.019235
v -0.034000 0.021414 0.018586
v -0.034000 0.020765 0.021848
v -0.034000 0.020765 0.018152
v -0.034000 0.020000 0.022000
v -0.034000 0.020000 0.018000
v -0.034000 0.021414 0.021414
v -0.034000 0.019235 0.021848
v -0.034000 0.019235 0.018152
v -0.034000 0.018000 0.020000
v -0.034000 0.018152 0.019235
v -0.034000 0.018152 0.020765
v -0.034000 0.018586 0.018586
v -0.034000 0.018586 0.021414
vn -0.0000 -0.0981 -0.9952
vn -0.0000 -0.2902 -0.9570
vn -0.0000 -0.4715 -0.8819
vn -0.0000 -0.6343 -0.7731
vn -0.0000 -0.7731 -0.6343
vn -0.0000 -0.8819 -0.4715
vn -0.0000 -0.9570 -0.2902
vn -0.0000 -0.9952 -0.0981
vn -0.0000 -0.9952 0.0981
vn -0.0000 -0.9570 0.2902
vn -0.0000 -0.8819 0.4715
vn -0.0000 -0.7731 0.6343
vn -0.0000 -0.6343 0.7731
vn -0.0000 -0.4715 0.8819
vn -0.0000 -0.2902 0.9570
vn -0.0000 -0.0981 0.9952
vn -0.0000 0.0981 0.9952
vn -0.0000 0.2902 0.9570
vn -0.0000 0.4715 0.8819
vn -0.0000 0.6343 0.7731
vn -0.0000 0.7731 0.6343
vn -0.0000 0.8819 0.4715
vn -0.0000 0.9570 0.2902
vn -0.0000 0.9952 0.0981
vn -0.0000 0.9952 -0.0981
vn -0.0000 0.9570 -0.2902
vn -0.0000 0.8819 -0.4715
vn -0.0000 0.7731 -0.6343
vn -0.0000 0.6343 -0.7731
vn -0.0000 0.4715 -0.8819
vn 1.0000 -0.0000 -0.0000
vn -0.0000 0.2902 -0.9570
vn -0.0000 0.0981 -0.9952
vn -1.0000 -0.0000 -0.0000
vn -0.0000 -0.1566 -0.9877
vn -0.0000 -0.4539 -0.8910
vn -0.0000 -0.7071 -0.7071
vn -0.0000 -0.8910 -0.4539
vn -0.0000 -0.9877 -0.1566
vn -0.0000 -0.9877 0.1566
vn -0.0000 -0.8910 0.4539
vn -0.0000 -0.7071 0.7071
vn -0.0000 -0.4539 0.8910
vn -0.0000 -0.1566 0.9877
vn -0.0000 0.1566 0.9877
vn -0.0000 0.4539 0.8910
vn -0.0000 0.7071 0.7071
vn -0.0000 0.8910 0.4539
vn -0.0000 0.9877 0.1566
vn -0.0000 0.9877 -0.1566
vn -0.0000 0.8910 -0.4539
vn -0.0000 0.7071 -0.7071
vn -0.0000 0.4539 -0.8910
vn -0.0000 0.1566 -0.9877
vn -0.0000 0.1949 0.9808
vn -0.0000 0.5559 0.8313
vn -0.0000 0.8313 0.5559
vn -0.0000 0.9808 0.1949
vn -0.0000 0.9808 -0.1949
vn -0.0000 0.8313 -0.5559
vn -0.0000 0.5559 -0.8313
vn -0.0000 0.1949 -0.9808
vn -0.0000 -0.1949 -0.9808
vn -0.0000 -0.5559 -0.8313
vn -0.0000 -0.8313 -0.5559
vn -0.0000 -0.9808 -0.1949
vn -0.0000 -0.9808 0.1949
vn -0.0000 -0.8313 0.5559
vn -0.0000 -0.5559 0.8313
vn -0.0000 -0.1949 0.9808
vn -0.0000 -0.8293 0.5588
vn 1.0000 0.0001 -0.0000
vn -1.0000 0.0001 -0.0000
vn -0.0000 -0.8318 0.5551
s 0
usemtl DetailGraphite
f 1//1 5//1 4//1
f 4//2 8//2 7//2
f 7//3 12//3 10//3
f 10//4 15//4 13//4
f 13//5 17//5 16//5
f 16//6 20//6 19//6
f 31//11 35//11 34//11
f 34//12 38//12 37//12
f 37//13 41//13 40//13
f 40//14 44//14 43//14
f 43//15 48//15 46//15
f 46//16 51//16 49//16
f 49//17 54//17 52//17
f 52//18 57//18 55//18
f 55//19 60//19 58//19
f 58//20 62//20 61//20
f 61//21 64//21 63//21
f 63//22 66//22 65//22
f 73//27 76//27 75//27
f 75//28 78//28 77//28
f 77//29 80//29 79//29
f 79//30 82//30 81//30
f 78//31 183//31 178//31
f 62//31 201//31 68//31
f 30//31 112//31 119//31
f 17//31 5//31 113//31
f 44//31 33//31 150//31
f 95//31 138//31 137//31
f 81//32 84//32 83//32
f 83//33 2//33 1//33
f 7//34 19//34 126//34
f 73//34 81//34 188//34
f 55//34 229//34 230//34
f 61//34 219//34 218//34
f 31//34 43//34 158//34
f 91//35 6//35 92//35
f 92//36 9//36 104//36
f 104//37 11//37 99//37
f 99//38 14//38 102//38
f 102//39 18//39 100//39
f 100//40 21//40 101//40
f 101//41 23//41 98//41
f 98//42 26//42 103//42
f 103//43 29//43 97//43
f 97//44 32//44 95//44
f 95//45 36//45 96//45
f 96//46 39//46 90//46
f 90//47 42//47 88//47
f 88//48 45//48 85//48
f 85//49 47//49 86//49
f 86//50 50//50 89//50
f 89//51 53//51 87//51
f 87//52 56//52 94//52
f 18//31 53//31 42//31
f 94//53 59//53 93//53
f 93//54 3//54 91//54
f 131//55 120//55 124//55
f 126//56 113//56 131//56
f 116//57 126//57 129//57
f 114//58 129//58 127//58
f 115//59 127//59 128//59
f 117//60 128//60 130//60
f 112//61 130//61 135//61
f 119//62 135//62 136//62
f 108//63 136//63 134//63
f 110//64 134//64 133//64
f 132//65 110//65 133//65
f 121//66 106//66 132//66
f 122//67 105//67 121//67
f 123//68 107//68 122//68
f 125//69 111//69 123//69
f 124//70 109//70 125//70
f 163//55 151//55 156//55
f 159//56 145//56 163//56
f 147//57 159//57 162//57
f 146//58 162//58 160//58
f 148//59 160//59 161//59
f 150//60 161//60 158//60
f 144//61 158//61 157//61
f 152//62 157//62 155//62
f 141//63 155//63 153//63
f 143//64 153//64 154//64
f 165//65 143//65 154//65
f 164//66 138//66 165//66
f 166//67 137//67 164//67
f 168//68 139//68 166//68
f 167//69 142//69 168//69
f 156//70 140//70 167//70
f 192//55 183//55 190//55
f 191//56 178//56 192//56
f 180//57 191//57 199//57
f 179//58 199//58 197//58
f 181//59 197//59 198//59
f 176//60 198//60 200//60
f 177//61 200//61 196//61
f 184//62 196//62 193//62
f 172//63 193//63 195//63
f 174//64 195//64 187//64
f 185//65 174//65 187//65
f 186//66 170//66 185//66
f 189//67 169//67 186//67
f 188//68 171//68 189//68
f 194//69 175//69 188//69
f 190//70 173//70 194//70
f 228//55 209//55 225//55
f 232//56 213//56 228//56
f 215//57 232//57 230//57
f 214//58 230//58 229//58
f 216//59 229//59 231//59
f 211//60 231//60 233//60
f 212//61 233//61 227//61
f 208//62 227//62 224//62
f 210//63 224//63 222//63
f 203//64 222//64 226//64
f 218//65 203//65 226//65
f 219//66 201//66 218//66
f 220//67 202//67 219//67
f 206//71 204//71 220//71
f 223//69 206//69 221//69
f 225//70 207//70 223//70
f 1//1 2//1 5//1
f 4//2 5//2 8//2
f 7//3 8//3 12//3
f 10//4 12//4 15//4
f 13//5 15//5 17//5
f 16//6 17//6 20//6
f 31//11 33//11 35//11
f 34//12 35//12 38//12
f 37//13 38//13 41//13
f 40//14 41//14 44//14
f 43//15 44//15 48//15
f 46//16 48//16 51//16
f 49//17 51//17 54//17
f 52//18 54//18 57//18
f 55//19 57//19 60//19
f 58//20 60//20 62//20
f 61//21 62//21 64//21
f 63//22 64//22 66//22
f 73//27 74//27 76//27
f 75//28 76//28 78//28
f 77//29 78//29 80//29
f 79//30 80//30 82//30
f 82//31 80//31 78//31
f 78//31 76//31 169//31
f 78//31 169//31 171//31
f 84//31 82//31 78//31
f 5//31 2//31 84//31
f 182//31 180//31 5//31
f 178//31 182//31 5//31
f 5//31 84//31 78//31
f 78//31 171//31 175//31
f 78//31 175//31 173//31
f 178//31 5//31 78//31
f 78//31 173//31 183//31
f 66//31 64//31 62//31
f 62//31 60//31 208//31
f 62//31 208//31 210//31
f 68//31 66//31 62//31
f 205//31 204//31 68//31
f 202//31 205//31 68//31
f 62//31 210//31 203//31
f 201//31 202//31 68//31
f 62//31 203//31 201//31
f 208//31 60//31 57//31
f 57//31 96//31 90//31
f 57//31 90//31 88//31
f 212//31 208//31 57//31
f 211//31 212//31 57//31
f 57//31 88//31 85//31
f 57//31 85//31 86//31
f 216//31 211//31 57//31
f 214//31 216//31 57//31
f 57//31 86//31 89//31
f 214//31 57//31 89//31
f 215//31 214//31 89//31
f 215//31 89//31 87//31
f 217//31 215//31 87//31
f 213//31 217//31 87//31
f 209//31 213//31 87//31
f 207//31 209//31 87//31
f 68//31 204//31 206//31
f 206//31 207//31 87//31
f 68//31 206//31 87//31
f 72//31 70//31 68//31
f 76//31 74//31 72//31
f 170//31 169//31 76//31
f 174//31 170//31 76//31
f 76//31 72//31 68//31
f 68//31 87//31 94//31
f 68//31 94//31 93//31
f 174//31 76//31 68//31
f 172//31 174//31 68//31
f 172//31 68//31 93//31
f 184//31 172//31 93//31
f 184//31 93//31 91//31
f 177//31 184//31 91//31
f 177//31 91//31 92//31
f 176//31 177//31 92//31
f 176//31 92//31 104//31
f 181//31 176//31 104//31
f 179//31 181//31 104//31
f 5//31 180//31 179//31
f 107//31 111//31 5//31
f 105//31 107//31 5//31
f 5//31 179//31 104//31
f 5//31 104//31 99//31
f 106//31 105//31 5//31
f 110//72 106//72 5//72
f 5//31 99//31 102//31
f 100//31 101//31 33//31
f 5//31 102//31 100//31
f 110//31 5//31 100//31
f 100//31 33//31 30//31
f 30//31 27//31 24//31
f 24//31 20//31 17//31
f 17//31 114//31 115//31
f 17//31 115//31 117//31
f 30//31 24//31 17//31
f 110//31 100//31 30//31
f 108//31 110//31 30//31
f 30//31 17//31 117//31
f 30//31 117//31 112//31
f 119//31 108//31 30//31
f 116//31 114//31 17//31
f 17//31 15//31 12//31
f 12//31 8//31 5//31
f 5//31 111//31 109//31
f 5//31 109//31 120//31
f 17//31 12//31 5//31
f 118//31 116//31 17//31
f 5//31 120//31 113//31
f 113//31 118//31 17//31
f 152//31 141//31 44//31
f 44//31 41//31 38//31
f 38//31 35//31 33//31
f 33//31 147//31 146//31
f 33//31 146//31 148//31
f 44//31 38//31 33//31
f 144//31 152//31 44//31
f 33//31 148//31 150//31
f 150//31 144//31 44//31
f 149//31 147//31 33//31
f 33//31 101//31 98//31
f 33//31 98//31 103//31
f 145//31 149//31 33//31
f 151//31 145//31 33//31
f 33//31 103//31 97//31
f 95//31 96//31 57//31
f 33//31 97//31 95//31
f 140//31 151//31 33//31
f 140//31 33//31 95//31
f 95//31 57//31 54//31
f 54//31 51//31 48//31
f 48//31 44//31 141//31
f 48//31 141//31 143//31
f 95//31 54//31 48//31
f 142//31 140//31 95//31
f 139//31 142//31 95//31
f 95//31 48//31 143//31
f 95//31 143//31 138//31
f 137//31 139//31 95//31
f 81//32 82//32 84//32
f 83//33 84//33 2//33
f 124//34 125//34 7//34
f 7//34 10//34 13//34
f 13//34 16//34 19//34
f 19//34 128//34 127//34
f 19//34 127//34 129//34
f 7//34 13//34 19//34
f 131//34 124//34 7//34
f 19//34 129//34 126//34
f 126//34 131//34 7//34
f 186//34 185//34 73//34
f 73//34 75//34 77//34
f 77//34 79//34 81//34
f 81//34 192//34 190//34
f 81//34 190//34 194//34
f 73//34 77//34 81//34
f 189//34 186//34 73//34
f 81//34 194//34 188//34
f 188//34 189//34 73//34
f 191//34 192//34 81//34
f 81//34 83//34 1//34
f 1//34 4//34 7//34
f 7//34 125//34 123//34
f 7//34 123//34 122//34
f 81//34 1//34 7//34
f 199//34 191//34 81//34
f 197//34 199//34 81//34
f 81//34 7//34 122//34
f 81//34 122//34 121//34
f 198//34 197//34 81//34
f 198//34 81//34 121//34
f 198//34 121//34 132//34
f 200//34 198//34 132//34
f 200//34 132//34 133//34
f 196//34 200//34 133//34
f 196//34 133//34 134//34
f 193//34 196//34 134//34
f 193//34 134//34 136//34
f 130//34 128//34 19//34
f 19//34 22//34 25//34
f 25//34 28//34 31//34
f 31//34 162//34 159//34
f 31//34 159//34 163//34
f 19//34 25//34 31//34
f 135//34 130//34 19//34
f 136//34 135//34 19//34
f 19//34 31//34 163//34
f 19//34 163//34 156//34
f 193//34 136//34 19//34
f 193//34 19//34 156//34
f 193//34 156//34 167//34
f 195//34 193//34 167//34
f 195//34 167//34 168//34
f 73//34 185//34 187//34
f 187//34 195//34 168//34
f 187//34 168//34 166//34
f 71//34 73//34 187//34
f 67//34 69//34 71//34
f 223//34 221//34 67//34
f 225//34 223//34 67//34
f 67//34 71//34 187//34
f 187//34 166//34 164//34
f 187//34 164//34 165//34
f 225//34 67//34 187//34
f 228//34 225//34 187//34
f 187//73 165//73 154//73
f 154//34 153//34 43//34
f 43//34 46//34 49//34
f 49//34 52//34 55//34
f 55//34 58//34 224//34
f 55//34 224//34 227//34
f 43//34 49//34 55//34
f 187//34 154//34 43//34
f 232//34 228//34 187//34
f 230//34 232//34 187//34
f 187//34 43//34 55//34
f 55//34 227//34 233//34
f 55//34 233//34 231//34
f 230//34 187//34 55//34
f 55//34 231//34 229//34
f 224//34 58//34 61//34
f 61//34 63//34 65//34
f 65//34 67//34 221//34
f 65//34 221//34 220//34
f 222//34 224//34 61//34
f 226//34 222//34 61//34
f 61//34 65//34 220//34
f 61//34 220//34 219//34
f 218//34 226//34 61//34
f 160//34 162//34 31//34
f 31//34 34//34 37//34
f 37//34 40//34 43//34
f 43//34 153//34 155//34
f 43//34 155//34 157//34
f 31//34 37//34 43//34
f 161//34 160//34 31//34
f 43//34 157//34 158//34
f 158//34 161//34 31//34
f 91//35 3//35 6//35
f 92//36 6//36 9//36
f 104//37 9//37 11//37
f 99//38 11//38 14//38
f 102//39 14//39 18//39
f 100//40 18//40 21//40
f 101//41 21//41 23//41
f 98//42 23//42 26//42
f 103//43 26//43 29//43
f 97//44 29//44 32//44
f 95//45 32//45 36//45
f 96//46 36//46 39//46
f 90//47 39//47 42//47
f 88//48 42//48 45//48
f 85//49 45//49 47//49
f 86//50 47//50 50//50
f 89//51 50//51 53//51
f 87//52 53//52 56//52
f 42//31 39//31 36//31
f 36//31 32//31 29//31
f 29//31 26//31 23//31
f 23//31 21//31 18//31
f 18//31 14//31 11//31
f 11//31 9//31 6//31
f 6//31 3//31 59//31
f 59//31 56//31 53//31
f 53//31 50//31 47//31
f 47//31 45//31 42//31
f 42//31 36//31 29//31
f 29//31 23//31 18//31
f 18//31 11//31 6//31
f 6//31 59//31 53//31
f 53//31 47//31 42//31
f 42//31 29//31 18//31
f 18//31 6//31 53//31
f 94//53 56//53 59//53
f 93//54 59//54 3//54
f 131//55 113//55 120//55
f 126//56 118//56 113//56
f 116//57 118//57 126//57
f 114//58 116//58 129//58
f 115//59 114//59 127//59
f 117//60 115//60 128//60
f 112//61 117//61 130//61
f 119//62 112//62 135//62
f 108//63 119//63 136//63
f 110//64 108//64 134//64
f 132//65 106//65 110//65
f 121//66 105//66 106//66
f 122//67 107//67 105//67
f 123//68 111//68 107//68
f 125//69 109//69 111//69
f 124//70 120//70 109//70
f 163//55 145//55 151//55
f 159//56 149//56 145//56
f 147//57 149//57 159//57
f 146//58 147//58 162//58
f 148//59 146//59 160//59
f 150//60 148//60 161//60
f 144//61 150//61 158//61
f 152//62 144//62 157//62
f 141//63 152//63 155//63
f 143//64 141//64 153//64
f 165//65 138//65 143//65
f 164//66 137//66 138//66
f 166//67 139//67 137//67
f 168//68 142//68 139//68
f 167//69 140//69 142//69
f 156//70 151//70 140//70
f 192//55 178//55 183//55
f 191//56 182//56 178//56
f 180//57 182//57 191//57
f 179//58 180//58 199//58
f 181//59 179//59 197//59
f 176//60 181//60 198//60
f 177//61 176//61 200//61
f 184//62 177//62 196//62
f 172//63 184//63 193//63
f 174//64 172//64 195//64
f 185//65 170//65 174//65
f 186//66 169//66 170//66
f 189//67 171//67 169//67
f 188//68 175//68 171//68
f 194//69 173//69 175//69
f 190//70 183//70 173//70
f 228//55 213//55 209//55
f 232//56 217//56 213//56
f 215//57 217//57 232//57
f 214//58 215//58 230//58
f 216//59 214//59 229//59
f 211//60 216//60 231//60
f 212//61 211//61 233//61
f 208//62 212//62 227//62
f 210//63 208//63 224//63
f 203//64 210//64 222//64
f 218//65 201//65 203//65
f 219//66 202//66 201//66
f 220//67 205//67 202//67
f 220//68 221//68 206//68
f 204//74 205//74 220//74
f 223//69 207//69 206//69
f 225//70 209//70 207//70
usemtl DetailTeal
f 19//7 24//7 22//7
f 22//8 27//8 25//8
f 25//9 30//9 28//9
f 28//10 33//10 31//10
f 65//23 68//23 67//23
f 67//24 70//24 69//24
f 69//25 72//25 71//25
f 71//26 74//26 73//26
f 19//7 20//7 24//7
f 22//8 24//8 27//8
f 25//9 27//9 30//9
f 28//10 30//10 33//10
f 65//23 66//23 68//23
f 67//24 68//24 70//24
f 69//25 70//25 72//25
f 71//26 72//26 74//26
