# Blender 5.2.1 LTS
# www.blender.org
mtllib kit_plate_60_60.mtl
o kit_plate_60_60
v -0.030000 -0.030000 0.002000
v -0.030000 0.030000 0.002000
v -0.030000 -0.030000 -0.002000
v -0.030000 0.030000 -0.002000
v 0.030000 -0.030000 0.002000
v 0.030000 0.030000 0.002000
v 0.030000 -0.030000 -0.002000
v 0.030000 0.030000 -0.002000
v -0.022000 -0.020000 -0.002000
v -0.021414 -0.021414 -0.002000
v -0.021848 -0.020765 -0.002000
v -0.021848 -0.019235 -0.002000
v -0.020638 -0.018127 -0.002000
v -0.020765 -0.018152 -0.002000
v -0.018586 -0.018586 -0.002000
v -0.019235 -0.018152 -0.002000
v -0.020000 -0.018000 -0.002000
v -0.021414 -0.018586 -0.002000
v -0.020765 -0.021848 -0.002000
v -0.019235 -0.021848 -0.002000
v -0.020000 -0.022000 -0.002000
v -0.018000 -0.020000 -0.002000
v -0.018152 -0.020765 -0.002000
v -0.018152 -0.019235 -0.002000
v -0.018586 -0.021414 -0.002000
v -0.022000 -0.020000 0.002000
v -0.021848 -0.020765 0.002000
v -0.021848 -0.019235 0.002000
v -0.020765 -0.018152 0.002000
v -0.020765 -0.021848 0.002000
v -0.021414 -0.018586 0.002000
v -0.021414 -0.021414 0.002000
v -0.019235 -0.021848 0.002000
v -0.019235 -0.018152 0.002000
v -0.018000 -0.020000 0.002000
v -0.018127 -0.020638 0.002000
v -0.018152 -0.019235 0.002000
v -0.018152 -0.020765 0.002000
v -0.018586 -0.018586 0.002000
v -0.018586 -0.021414 0.002000
v -0.020000 -0.022000 0.002000
v -0.020000 -0.018000 0.002000
v -0.022000 0.000000 -0.002000
v -0.021848 -0.000765 -0.002000
v -0.021848 0.000765 -0.002000
v -0.020765 -0.001848 -0.002000
v -0.020765 0.001848 -0.002000
v -0.021414 -0.001414 -0.002000
v -0.021414 0.001414 -0.002000
v -0.018586 -0.001414 -0.002000
v -0.019235 -0.001848 -0.002000
v -0.019235 0.001848 -0.002000
v -0.018000 0.000000 -0.002000
v -0.018152 0.000765 -0.002000
v -0.018152 -0.000765 -0.002000
v -0.018586 0.001414 -0.002000
v -0.020000 -0.002000 -0.002000
v -0.020000 0.002000 -0.002000
v -0.022000 0.000000 0.002000
v -0.021848 -0.000765 0.002000
v -0.021848 0.000765 0.002000
v -0.020765 -0.001848 0.002000
v -0.020765 0.001848 0.002000
v -0.021414 -0.001414 0.002000
v -0.021414 0.001414 0.002000
v -0.019235 -0.001848 0.002000
v -0.019235 0.001848 0.002000
v -0.018152 -0.000765 0.002000
v -0.018000 0.000000 0.002000
v -0.018152 0.000765 0.002000
v -0.018586 -0.001414 0.002000
v -0.018586 0.001414 0.002000
v -0.020000 -0.002000 0.002000
v -0.020000 0.002000 0.002000
v -0.020765 0.021848 -0.002000
v -0.021414 0.021414 -0.002000
v -0.019235 0.021848 -0.002000
v -0.018586 0.018586 -0.002000
v -0.020000 0.022000 -0.002000
v -0.018000 0.020000 -0.002000
v -0.018152 0.019235 -0.002000
v -0.018152 0.020765 -0.002000
v -0.018586 0.021414 -0.002000
v -0.021848 0.019235 -0.002000
v -0.022000 0.020000 -0.002000
v -0.021848 0.020765 -0.002000
v -0.020000 0.018000 -0.002000
v -0.020765 0.018152 -0.002000
v -0.019235 0.018152 -0.002000
v -0.021414 0.018586 -0.002000
v -0.020765 0.021848 0.002000
v -0.021414 0.021414 0.002000
v -0.019235 0.021848 0.002000
v -0.020000 0.022000 0.002000
v -0.018000 0.020000 0.002000
v -0.018152 0.019235 0.002000
v -0.018152 0.020765 0.002000
v -0.018586 0.021414 0.002000
v -0.018586 0.018586 0.002000
v -0.021848 0.019235 0.002000
v -0.022000 0.020000 0.002000
v -0.021848 0.020765 0.002000
v -0.020000 0.018000 0.002000
v -0.020765 0.018152 0.002000
v -0.019235 0.018152 0.002000
v -0.021414 0.018586 0.002000
v -0.002000 -0.020000 -0.002000
v -0.001848 -0.020765 -0.002000
v -0.001848 -0.019235 -0.002000
v -0.000765 -0.021848 -0.002000
v -0.000765 -0.018152 -0.002000
v 0.000000 -0.022000 -0.002000
v -0.001414 -0.021414 -0.002000
v -0.001414 -0.018586 -0.002000
v 0.000765 -0.021848 -0.002000
v 0.000765 -0.018152 -0.002000
v 0.002000 -0.020000 -0.002000
v 0.001848 -0.020765 -0.002000
v 0.001848 -0.019235 -0.002000
v 0.001414 -0.021414 -0.002000
v 0.001414 -0.018586 -0.002000
v 0.000000 -0.018000 -0.002000
v -0.002000 -0.020000 0.002000
v -0.001848 -0.020765 0.002000
v -0.001848 -0.019235 0.002000
v -0.000765 -0.021848 0.002000
v -0.000765 -0.018152 0.002000
v 0.000000 -0.022000 0.002000
v -0.001414 -0.021414 0.002000
v -0.001414 -0.018586 0.002000
v 0.000765 -0.021848 0.002000
v 0.000765 -0.018152 0.002000
v 0.002000 -0.020000 0.002000
v 0.001848 -0.020765 0.002000
v 0.001848 -0.019235 0.002000
v 0.001414 -0.021414 0.002000
v 0.001414 -0.018586 0.002000
v 0.000000 -0.018000 0.002000
v -0.002000 0.000000 -0.002000
v -0.001848 -0.000765 -0.002000
v -0.001848 0.000765 -0.002000
v -0.000765 -0.001848 -0.002000
v -0.001414 -0.001414 -0.002000
v -0.000765 0.001848 -0.002000
v -0.001414 0.001414 -0.002000
v 0.000765 -0.001848 -0.002000
v 0.000765 0.001848 -0.002000
v 0.002000 0.000000 -0.002000
v 0.001848 0.000765 -0.002000
v 0.001848 -0.000765 -0.002000
v 0.001414 0.001414 -0.002000
v 0.001414 -0.001414 -0.002000
v 0.000000 -0.002000 -0.002000
v 0.000000 0.002000 -0.002000
v -0.002000 0.000000 0.002000
v -0.001848 -0.000765 0.002000
v -0.001848 0.000765 0.002000
v -0.000765 0.001848 0.002000
v -0.000765 -0.001848 0.002000
v -0.001414 0.001414 0.002000
v -0.001414 -0.001414 0.002000
v 0.000765 -0.001848 0.002000
v 0.000765 0.001848 0.002000
v 0.002000 0.000000 0.002000
v 0.001848 0.000765 0.002000
v 0.001848 -0.000765 0.002000
v 0.001414 0.001414 0.002000
v 0.001414 -0.001414 0.002000
v 0.000000 0.002000 0.002000
v 0.000000 -0.002000 0.002000
v -0.002000 0.020000 -0.002000
v -0.001848 0.019235 -0.002000
v -0.001848 0.020765 -0.002000
v -0.000765 0.018152 -0.002000
v -0.001414 0.018586 -0.002000
v -0.000765 0.021848 -0.002000
v -0.001414 0.021414 -0.002000
v 0.000765 0.018152 -0.002000
v 0.000765 0.021848 -0.002000
v 0.002000 0.020000 -0.002000
v 0.001848 0.020765 -0.002000
v 0.001848 0.019235 -0.002000
v 0.001414 0.021414 -0.002000
v 0.001414 0.018586 -0.002000
v 0.000000 0.022000 -0.002000
v 0.000000 0.018000 -0.002000
v -0.002000 0.020000 0.002000
v -0.001848 0.019235 0.002000
v -0.001848 0.020765 0.002000
v -0.000765 0.018152 0.002000
v -0.000765 0.021848 0.002000
v -0.001414 0.018586 0.002000
v -0.001414 0.021414 0.002000
v 0.001414 0.018586 0.002000
v 0.000765 0.018152 0.002000
v 0.000765 0.021848 0.002000
v 0.002000 0.020000 0.002000
v 0.001848 0.020765 0.002000
v 0.001848 0.019235 0.002000
v 0.001414 0.021414 0.002000
v 0.000000 0.022000 0.002000
v 0.000000 0.018000 0.002000
v 0.018000 -0.020000 -0.002000
v 0.018152 -0.020765 -0.002000
v 0.018152 -0.019235 -0.002000
v 0.019235 -0.021848 -0.002000
v 0.019235 -0.018152 -0.002000
v 0.018586 -0.021414 -0.002000
v 0.018586 -0.018586 -0.002000
v 0.020765 -0.021848 -0.002000
v 0.020765 -0.018152 -0.002000
v 0.022000 -0.020000 -0.002000
v 0.021848 -0.020765 -0.002000
v 0.021848 -0.019235 -0.002000
v 0.021414 -0.021414 -0.002000
v 0.021414 -0.018586 -0.002000
v 0.020000 -0.018000 -0.002000
v 0.020000 -0.022000 -0.002000
v 0.018000 -0.020000 0.002000
v 0.018586 -0.021414 0.002000
v 0.018152 -0.020765 0.002000
v 0.018152 -0.019235 0.002000
v 0.018586 -0.018586 0.002000
v 0.020000 -0.022000 0.002000
v 0.019235 -0.021848 0.002000
v 0.020765 -0.021848 0.002000
v 0.021414 -0.021414 0.002000
v 0.019235 -0.018152 0.002000
v 0.020765 -0.018152 0.002000
v 0.020000 -0.018000 0.002000
v 0.022000 -0.020000 0.002000
v 0.021848 -0.020765 0.002000
v 0.021848 -0.019235 0.002000
v 0.021414 -0.018586 0.002000
v 0.018000 0.000000 -0.002000
v 0.018152 -0.000765 -0.002000
v 0.018152 0.000765 -0.002000
v 0.019235 -0.001848 -0.002000
v 0.018586 -0.001414 -0.002000
v 0.019235 0.001848 -0.002000
v 0.018586 0.001414 -0.002000
v 0.020765 -0.001848 -0.002000
v 0.020765 0.001848 -0.002000
v 0.022000 0.000000 -0.002000
v 0.021848 0.000765 -0.002000
v 0.021848 -0.000765 -0.002000
v 0.021414 0.001414 -0.002000
v 0.021414 -0.001414 -0.002000
v 0.020000 0.002000 -0.002000
v 0.020000 -0.002000 -0.002000
v 0.018000 0.000000 0.002000
v 0.018152 -0.000765 0.002000
v 0.018152 0.000765 0.002000
v 0.019235 0.001848 0.002000
v 0.019235 -0.001848 0.002000
v 0.018586 0.001414 0.002000
v 0.018586 -0.001414 0.002000
v 0.020765 -0.001848 0.002000
v 0.020765 0.001848 0.002000
v 0.022000 0.000000 0.002000
v 0.021848 0.000765 0.002000
v 0.021848 -0.000765 0.002000
v 0.021414 0.001414 0.002000
v 0.021414 -0.001414 0.002000
v 0.020000 0.002000 0.002000
v 0.020000 -0.002000 0.002000
v 0.018000 0.020000 -0.002000
v 0.018152 0.019235 -0.002000
v 0.018152 0.020765 -0.002000
v 0.019235 0.021848 -0.002000
v 0.020765 0.021848 -0.002000
v 0.020000 0.022000 -0.002000
v 0.018586 0.021414 -0.002000
v 0.018586 0.018586 -0.002000
v 0.019235 0.018152 -0.002000
v 0.020000 0.018000 -0.002000
v 0.020765 0.018152 -0.002000
v 0.021414 0.018586 -0.002000
v 0.021414 0.021414 -0.002000
v 0.022000 0.020000 -0.002000
v 0.021848 0.019235 -0.002000
v 0.021848 0.020765 -0.002000
v 0.018000 0.020000 0.002000
v 0.018586 0.018586 0.002000
v 0.018152 0.019235 0.002000
v 0.018152 0.020765 0.002000
v 0.019235 0.021848 0.002000
v 0.021414 0.021414 0.002000
v 0.020765 0.021848 0.002000
v 0.020000 0.022000 0.002000
v 0.018586 0.021414 0.002000
v 0.019235 0.018152 0.002000
v 0.020765 0.018152 0.002000
v 0.020000 0.018000 0.002000
v 0.022000 0.020000 0.002000
v 0.021848 0.020765 0.002000
v 0.021848 0.019235 0.002000
v 0.021414 0.018586 0.002000
vn -1.0000 -0.0000 -0.0000
vn -0.0000 -0.0000 -1.0000
vn 1.0000 -0.0000 -0.0000
vn -0.0000 -0.0000 1.0000
vn -0.0000 -1.0000 -0.0000
vn -0.0000 1.0000 -0.0000
vn -0.1949 -0.9808 -0.0000
vn -0.5559 -0.8313 -0.0000
vn -0.8313 -0.5559 -0.0000
vn -0.9808 -0.1949 -0.0000
vn -0.9808 0.1949 -0.0000
vn -0.8313 0.5559 -0.0000
vn -0.5559 0.8313 -0.0000
vn -0.1949 0.9808 -0.0000
vn 0.1949 0.9808 -0.0000
vn 0.5559 0.8313 -0.0000
vn 0.8313 0.5559 -0.0000
vn 0.9808 0.1949 -0.0000
vn 0.9808 -0.1949 -0.0000
vn 0.8313 -0.5559 -0.0000
vn 0.5559 -0.8313 -0.0000
vn 0.1952 -0.9808 0.0001
vn 0.1949 -0.9808 -0.0000
vn -0.0000 0.0003 -1.0000
vn 0.1931 -0.9812 -0.0000
s 0
usemtl ChassisMetal
f 1//1 4//1 3//1
f 3//2 4//2 12//2
f 4//2 269//2 179//2
f 241//2 237//2 117//2
f 205//2 118//2 238//2
f 7//2 118//2 206//2
f 174//2 78//2 175//2
f 54//2 89//2 141//2
f 25//2 108//2 113//2
f 58//2 4//2 85//2
f 4//2 43//2 44//2
f 7//3 6//3 5//3
f 1//4 5//4 33//4
f 34//4 39//4 62//4
f 2//4 74//4 106//4
f 72//4 70//4 157//4
f 133//4 5//4 225//4
f 293//4 263//4 261//4
f 6//4 197//4 199//4
f 133//4 222//4 255//4
f 35//4 123//4 159//4
f 36//4 5//4 128//4
f 3//5 5//5 1//5
f 8//6 2//6 6//6
f 17//7 34//7 42//7
f 16//8 39//8 34//8
f 39//9 24//9 37//9
f 37//10 22//10 35//10
f 35//11 23//11 38//11
f 38//12 25//12 40//12
f 40//13 20//13 33//13
f 33//14 21//14 41//14
f 41//15 19//15 30//15
f 30//16 10//16 32//16
f 10//17 27//17 32//17
f 11//18 26//18 27//18
f 9//19 28//19 26//19
f 12//20 31//20 28//20
f 18//21 29//21 31//21
f 29//22 13//22 17//22
f 58//7 67//7 74//7
f 52//8 72//8 67//8
f 72//9 54//9 70//9
f 70//10 53//10 69//10
f 69//11 55//11 68//11
f 68//12 50//12 71//12
f 71//13 51//13 66//13
f 66//14 57//14 73//14
f 73//15 46//15 62//15
f 62//16 48//16 64//16
f 48//17 60//17 64//17
f 44//18 59//18 60//18
f 43//19 61//19 59//19
f 45//20 65//20 61//20
f 49//21 63//21 65//21
f 47//23 74//23 63//23
f 79//7 93//7 94//7
f 77//8 98//8 93//8
f 98//9 82//9 97//9
f 97//10 80//10 95//10
f 95//11 81//11 96//11
f 96//12 78//12 99//12
f 99//13 89//13 105//13
f 105//14 87//14 103//14
f 103//15 88//15 104//15
f 104//16 90//16 106//16
f 90//17 100//17 106//17
f 84//18 101//18 100//18
f 85//19 102//19 101//19
f 86//20 92//20 102//20
f 76//21 91//21 92//21
f 75//23 94//23 91//23
f 122//7 132//7 138//7
f 116//8 137//8 132//8
f 137//9 119//9 135//9
f 135//10 117//10 133//10
f 133//11 118//11 134//11
f 134//12 120//12 136//12
f 136//13 115//13 131//13
f 131//14 112//14 128//14
f 128//15 110//15 126//15
f 126//16 113//16 129//16
f 113//17 124//17 129//17
f 108//18 123//18 124//18
f 107//19 125//19 123//19
f 109//20 130//20 125//20
f 114//21 127//21 130//21
f 111//23 138//23 127//23
f 154//7 163//7 169//7
f 147//8 167//8 163//8
f 167//9 149//9 165//9
f 165//10 148//10 164//10
f 164//11 150//11 166//11
f 166//12 152//12 168//12
f 168//13 146//13 162//13
f 162//14 153//14 170//14
f 170//15 142//15 159//15
f 159//16 143//16 161//16
f 143//17 156//17 161//17
f 140//18 155//18 156//18
f 139//19 157//19 155//19
f 141//20 160//20 157//20
f 145//21 158//21 160//21
f 144//23 169//23 158//23
f 185//7 196//7 201//7
f 179//8 200//8 196//8
f 200//9 181//9 198//9
f 198//10 180//10 197//10
f 197//11 182//11 199//11
f 199//12 184//12 194//12
f 194//13 178//13 195//13
f 195//14 186//14 202//14
f 202//15 174//15 190//15
f 190//16 175//16 192//16
f 175//17 188//17 192//17
f 172//18 187//18 188//18
f 171//19 189//19 187//19
f 173//20 193//20 189//20
f 177//21 191//21 193//21
f 176//23 201//23 191//23
f 217//7 229//7 230//7
f 211//8 234//8 229//8
f 234//9 214//9 233//9
f 233//10 212//10 231//10
f 231//11 213//11 232//11
f 232//12 215//12 227//12
f 227//13 210//13 226//13
f 226//14 218//14 224//14
f 224//15 206//15 225//15
f 225//16 208//16 220//16
f 208//17 221//17 220//17
f 204//18 219//18 221//18
f 203//19 222//19 219//19
f 205//20 223//20 222//20
f 209//21 228//21 223//21
f 207//23 230//23 228//23
f 249//7 259//7 265//7
f 243//8 263//8 259//8
f 263//9 245//9 261//9
f 261//10 244//10 260//10
f 260//11 246//11 262//11
f 262//12 248//12 264//12
f 264//13 242//13 258//13
f 258//14 250//14 266//14
f 266//15 238//15 255//15
f 255//16 239//16 257//16
f 239//17 252//17 257//17
f 236//18 251//18 252//18
f 235//19 253//19 251//19
f 237//20 256//20 253//20
f 241//21 254//21 256//21
f 240//23 265//23 254//23
f 272//7 289//7 290//7
f 271//8 288//8 289//8
f 282//9 288//9 279//9
f 296//10 280//10 295//10
f 295//11 281//11 297//11
f 297//12 278//12 298//12
f 298//13 277//13 293//13
f 293//14 276//14 294//14
f 294//15 275//15 292//15
f 292//16 274//16 284//16
f 274//17 285//17 284//17
f 268//18 283//18 285//18
f 267//19 286//19 283//19
f 269//20 291//20 286//20
f 273//21 287//21 291//21
f 270//23 290//23 287//23
f 1//1 2//1 4//1
f 11//2 10//2 3//2
f 4//2 13//2 14//2
f 4//2 14//2 18//2
f 9//2 11//2 3//2
f 4//2 18//2 12//2
f 12//2 9//2 3//2
f 75//2 76//2 4//2
f 8//2 279//2 271//2
f 8//2 271//2 272//2
f 79//2 75//2 4//2
f 77//2 79//2 4//2
f 4//2 8//2 272//2
f 4//2 272//2 270//2
f 83//2 77//2 4//2
f 4//2 270//2 273//2
f 269//2 267//2 178//2
f 4//2 273//2 269//2
f 269//2 178//2 184//2
f 269//2 184//2 182//2
f 171//2 81//2 80//2
f 173//2 171//2 80//2
f 173//2 80//2 82//2
f 177//2 173//2 82//2
f 177//2 82//2 83//2
f 176//2 177//2 83//2
f 269//2 182//2 180//2
f 269//2 180//2 181//2
f 176//2 83//2 4//2
f 185//2 176//2 4//2
f 269//2 181//2 183//2
f 179//2 185//2 4//2
f 269//2 183//2 179//2
f 282//2 279//2 8//2
f 7//2 215//2 213//2
f 7//2 213//2 212//2
f 280//2 282//2 8//2
f 281//2 280//2 8//2
f 8//2 7//2 212//2
f 8//2 212//2 214//2
f 278//2 281//2 8//2
f 8//2 214//2 216//2
f 8//2 216//2 211//2
f 8//2 211//2 217//2
f 8//2 217//2 207//2
f 8//2 207//2 209//2
f 209//2 205//2 250//2
f 209//2 250//2 242//2
f 178//2 267//2 268//2
f 144//2 186//2 178//2
f 154//2 144//2 178//2
f 178//2 268//2 274//2
f 178//2 274//2 275//2
f 147//2 154//2 178//2
f 151//2 147//2 178//2
f 178//2 275//2 276//2
f 151//2 178//2 276//2
f 149//2 151//2 276//2
f 149//2 276//2 277//2
f 148//2 149//2 277//2
f 148//2 277//2 278//2
f 150//2 148//2 278//2
f 209//2 242//2 248//2
f 209//2 248//2 246//2
f 152//2 150//2 278//2
f 109//2 153//2 146//2
f 109//2 146//2 152//2
f 114//2 109//2 152//2
f 114//2 152//2 278//2
f 111//2 114//2 278//2
f 8//2 209//2 246//2
f 8//2 246//2 244//2
f 111//2 278//2 8//2
f 122//2 111//2 8//2
f 8//2 244//2 245//2
f 8//2 245//2 247//2
f 116//2 122//2 8//2
f 121//2 116//2 8//2
f 8//2 247//2 243//2
f 8//2 243//2 249//2
f 119//2 121//2 8//2
f 239//2 118//2 117//2
f 117//2 119//2 8//2
f 8//2 249//2 240//2
f 8//2 240//2 241//2
f 236//2 239//2 117//2
f 235//2 236//2 117//2
f 117//2 8//2 241//2
f 237//2 235//2 117//2
f 238//2 250//2 205//2
f 205//2 203//2 118//2
f 118//2 239//2 238//2
f 210//2 215//2 7//2
f 118//2 203//2 204//2
f 118//2 204//2 208//2
f 218//2 210//2 7//2
f 118//2 208//2 206//2
f 206//2 218//2 7//2
f 174//2 186//2 144//2
f 144//2 145//2 78//2
f 78//2 81//2 171//2
f 78//2 171//2 172//2
f 174//2 144//2 78//2
f 78//2 172//2 175//2
f 153//2 109//2 107//2
f 107//2 23//2 22//2
f 24//2 15//2 57//2
f 107//2 22//2 24//2
f 142//2 153//2 107//2
f 143//2 142//2 107//2
f 107//2 24//2 57//2
f 107//2 57//2 51//2
f 140//2 143//2 107//2
f 139//2 140//2 107//2
f 107//2 51//2 50//2
f 107//2 50//2 55//2
f 139//2 107//2 55//2
f 139//2 55//2 53//2
f 78//2 145//2 141//2
f 141//2 139//2 53//2
f 54//2 56//2 87//2
f 141//2 53//2 54//2
f 89//2 78//2 141//2
f 54//2 87//2 89//2
f 120//2 118//2 7//2
f 3//2 10//2 19//2
f 3//2 19//2 21//2
f 115//2 120//2 7//2
f 112//2 115//2 7//2
f 7//2 3//2 21//2
f 7//2 21//2 20//2
f 110//2 112//2 7//2
f 110//2 7//2 20//2
f 25//2 23//2 107//2
f 110//2 20//2 25//2
f 113//2 110//2 25//2
f 25//2 107//2 108//2
f 88//2 87//2 56//2
f 88//2 56//2 52//2
f 90//2 88//2 52//2
f 58//2 47//2 4//2
f 90//2 52//2 58//2
f 84//2 90//2 58//2
f 4//2 76//2 86//2
f 85//2 84//2 58//2
f 4//2 86//2 85//2
f 46//2 57//2 15//2
f 46//2 15//2 16//2
f 48//2 46//2 16//2
f 17//2 13//2 4//2
f 48//2 16//2 17//2
f 44//2 48//2 17//2
f 4//2 47//2 49//2
f 4//2 49//2 45//2
f 44//2 17//2 4//2
f 4//2 45//2 43//2
f 7//3 8//3 6//3
f 30//4 32//4 1//4
f 5//4 36//4 38//4
f 5//4 38//4 40//4
f 41//4 30//4 1//4
f 5//4 40//4 33//4
f 33//4 41//4 1//4
f 65//4 63//4 2//4
f 1//4 32//4 27//4
f 1//4 27//4 26//4
f 61//4 65//4 2//4
f 59//4 61//4 2//4
f 2//4 1//4 26//4
f 2//4 26//4 28//4
f 60//4 59//4 2//4
f 60//4 2//4 28//4
f 60//4 28//4 31//4
f 64//4 60//4 31//4
f 64//4 31//4 29//4
f 37//4 73//4 62//4
f 62//4 64//4 29//4
f 62//4 29//4 42//4
f 39//4 37//4 62//4
f 62//4 42//4 34//4
f 102//4 92//4 2//4
f 2//4 63//4 74//4
f 74//4 67//4 103//4
f 74//4 103//4 104//4
f 101//4 102//4 2//4
f 100//4 101//4 2//4
f 74//4 104//4 106//4
f 106//4 100//4 2//4
f 188//4 187//4 98//4
f 188//4 98//4 97//4
f 192//4 188//4 97//4
f 192//4 97//4 95//4
f 167//4 202//4 190//4
f 190//4 192//4 95//4
f 190//4 95//4 96//4
f 163//4 167//4 190//4
f 169//4 163//4 190//4
f 190//4 96//4 99//4
f 105//4 103//4 67//4
f 190//4 99//4 105//4
f 158//4 169//4 190//4
f 160//4 158//4 190//4
f 190//4 105//4 67//4
f 190//4 67//4 72//4
f 157//4 160//4 190//4
f 68//4 155//4 157//4
f 69//4 68//4 157//4
f 157//4 190//4 72//4
f 70//4 69//4 157//4
f 221//4 219//4 133//4
f 133//4 134//4 5//4
f 5//4 227//4 226//4
f 5//4 226//4 224//4
f 220//4 221//4 133//4
f 5//4 224//4 225//4
f 225//4 220//4 133//4
f 232//4 227//4 5//4
f 6//4 288//4 296//4
f 6//4 296//4 295//4
f 231//4 232//4 5//4
f 233//4 231//4 5//4
f 5//4 6//4 295//4
f 5//4 295//4 297//4
f 234//4 233//4 5//4
f 5//4 297//4 298//4
f 293//4 294//4 253//4
f 5//4 298//4 293//4
f 293//4 253//4 256//4
f 293//4 256//4 254//4
f 266//4 222//4 223//4
f 258//4 266//4 223//4
f 258//4 223//4 228//4
f 264//4 258//4 228//4
f 264//4 228//4 230//4
f 262//4 264//4 230//4
f 262//4 230//4 229//4
f 260//4 262//4 229//4
f 260//4 229//4 234//4
f 260//4 234//4 5//4
f 293//4 254//4 265//4
f 293//4 265//4 259//4
f 260//4 5//4 293//4
f 261//4 260//4 293//4
f 293//4 259//4 263//4
f 289//4 288//4 6//4
f 2//4 92//4 91//4
f 2//4 91//4 94//4
f 290//4 289//4 6//4
f 287//4 290//4 6//4
f 6//4 2//4 94//4
f 93//4 98//4 187//4
f 6//4 94//4 93//4
f 291//4 287//4 6//4
f 93//4 187//4 189//4
f 93//4 189//4 193//4
f 253//4 294//4 292//4
f 251//4 253//4 292//4
f 251//4 292//4 284//4
f 133//4 257//4 252//4
f 251//4 284//4 285//4
f 133//4 252//4 251//4
f 135//4 133//4 251//4
f 251//4 285//4 283//4
f 135//4 251//4 283//4
f 137//4 135//4 283//4
f 137//4 283//4 286//4
f 132//4 137//4 286//4
f 138//4 132//4 286//4
f 127//4 138//4 286//4
f 130//4 127//4 286//4
f 170//4 125//4 130//4
f 162//4 170//4 130//4
f 168//4 162//4 130//4
f 166//4 168//4 130//4
f 166//4 130//4 286//4
f 164//4 166//4 286//4
f 164//4 286//4 291//4
f 202//4 167//4 165//4
f 165//4 164//4 291//4
f 93//4 193//4 191//4
f 93//4 191//4 201//4
f 202//4 165//4 291//4
f 195//4 202//4 291//4
f 6//4 93//4 201//4
f 6//4 201//4 196//4
f 195//4 291//4 6//4
f 194//4 195//4 6//4
f 6//4 196//4 200//4
f 6//4 200//4 198//4
f 199//4 194//4 6//4
f 6//4 198//4 197//4
f 255//4 257//4 133//4
f 133//4 219//4 222//4
f 222//4 266//4 255//4
f 156//4 155//4 68//4
f 156//4 68//4 71//4
f 161//4 156//4 71//4
f 66//4 73//4 37//4
f 161//4 71//4 66//4
f 125//4 170//4 159//4
f 159//4 161//4 66//4
f 66//4 37//4 35//4
f 35//4 36//4 123//4
f 123//4 125//4 159//4
f 159//4 66//4 35//4
f 124//4 123//4 36//4
f 5//4 134//4 136//4
f 5//4 136//4 131//4
f 129//4 124//4 36//4
f 126//4 129//4 36//4
f 5//4 131//4 128//4
f 128//4 126//4 36//4
f 3//5 7//5 5//5
f 8//6 4//6 2//6
f 17//7 16//7 34//7
f 16//8 15//8 39//8
f 39//9 15//9 24//9
f 37//10 24//10 22//10
f 38//24 36//24 35//24
f 35//11 22//11 23//11
f 38//12 23//12 25//12
f 40//13 25//13 20//13
f 33//14 20//14 21//14
f 41//15 21//15 19//15
f 30//16 19//16 10//16
f 10//17 11//17 27//17
f 11//18 9//18 26//18
f 9//19 12//19 28//19
f 12//20 18//20 31//20
f 18//21 14//21 29//21
f 17//23 42//23 29//23
f 29//25 14//25 13//25
f 58//7 52//7 67//7
f 52//8 56//8 72//8
f 72//9 56//9 54//9
f 70//10 54//10 53//10
f 69//11 53//11 55//11
f 68//12 55//12 50//12
f 71//13 50//13 51//13
f 66//14 51//14 57//14
f 73//15 57//15 46//15
f 62//16 46//16 48//16
f 48//17 44//17 60//17
f 44//18 43//18 59//18
f 43//19 45//19 61//19
f 45//20 49//20 65//20
f 49//21 47//21 63//21
f 47//23 58//23 74//23
f 79//7 77//7 93//7
f 77//8 83//8 98//8
f 98//9 83//9 82//9
f 97//10 82//10 80//10
f 95//11 80//11 81//11
f 96//12 81//12 78//12
f 99//13 78//13 89//13
f 105//14 89//14 87//14
f 103//15 87//15 88//15
f 104//16 88//16 90//16
f 90//17 84//17 100//17
f 84//18 85//18 101//18
f 85//19 86//19 102//19
f 86//20 76//20 92//20
f 76//21 75//21 91//21
f 75//23 79//23 94//23
f 122//7 116//7 132//7
f 116//8 121//8 137//8
f 137//9 121//9 119//9
f 135//10 119//10 117//10
f 133//11 117//11 118//11
f 134//12 118//12 120//12
f 136//13 120//13 115//13
f 131//14 115//14 112//14
f 128//15 112//15 110//15
f 126//16 110//16 113//16
f 113//17 108//17 124//17
f 108//18 107//18 123//18
f 107//19 109//19 125//19
f 109//20 114//20 130//20
f 114//21 111//21 127//21
f 111//23 122//23 138//23
f 154//7 147//7 163//7
f 147//8 151//8 167//8
f 167//9 151//9 149//9
f 165//10 149//10 148//10
f 164//11 148//11 150//11
f 166//12 150//12 152//12
f 168//13 152//13 146//13
f 162//14 146//14 153//14
f 170//15 153//15 142//15
f 159//16 142//16 143//16
f 143//17 140//17 156//17
f 140//18 139//18 155//18
f 139//19 141//19 157//19
f 141//20 145//20 160//20
f 145//21 144//21 158//21
f 144//23 154//23 169//23
f 185//7 179//7 196//7
f 179//8 183//8 200//8
f 200//9 183//9 181//9
f 198//10 181//10 180//10
f 197//11 180//11 182//11
f 199//12 182//12 184//12
f 194//13 184//13 178//13
f 195//14 178//14 186//14
f 202//15 186//15 174//15
f 190//16 174//16 175//16
f 175//17 172//17 188//17
f 172//18 171//18 187//18
f 171//19 173//19 189//19
f 173//20 177//20 193//20
f 177//21 176//21 191//21
f 176//23 185//23 201//23
f 217//7 211//7 229//7
f 211//8 216//8 234//8
f 234//9 216//9 214//9
f 233//10 214//10 212//10
f 231//11 212//11 213//11
f 232//12 213//12 215//12
f 227//13 215//13 210//13
f 226//14 210//14 218//14
f 224//15 218//15 206//15
f 225//16 206//16 208//16
f 208//17 204//17 221//17
f 204//18 203//18 219//18
f 203//19 205//19 222//19
f 205//20 209//20 223//20
f 209//21 207//21 228//21
f 207//23 217//23 230//23
f 249//7 243//7 259//7
f 243//8 247//8 263//8
f 263//9 247//9 245//9
f 261//10 245//10 244//10
f 260//11 244//11 246//11
f 262//12 246//12 248//12
f 264//13 248//13 242//13
f 258//14 242//14 250//14
f 266//15 250//15 238//15
f 255//16 238//16 239//16
f 239//17 236//17 252//17
f 236//18 235//18 251//18
f 235//19 237//19 253//19
f 237//20 241//20 256//20
f 241//21 240//21 254//21
f 240//23 249//23 265//23
f 272//7 271//7 289//7
f 271//8 279//8 288//8
f 282//9 296//9 288//9
f 296//10 282//10 280//10
f 295//11 280//11 281//11
f 297//12 281//12 278//12
f 298//13 278//13 277//13
f 293//14 277//14 276//14
f 294//15 276//15 275//15
f 292//16 275//16 274//16
f 274//17 268//17 285//17
f 268//18 267//18 283//18
f 267//19 269//19 286//19
f 269//20 273//20 291//20
f 273//21 270//21 287//21
f 270//23 272//23 290//23
