# Blender 5.2.1 LTS
# www.blender.org
mtllib modular_foot.mtl
o modular_foot
v -0.101000 -0.030000 0.101000
v -0.101000 -0.021000 0.110000
v -0.110000 -0.021000 0.101000
v -0.101000 -0.028798 0.105494
v -0.105494 -0.028798 0.101000
v -0.105304 -0.027630 0.105304
v -0.105494 -0.021000 0.108798
v -0.101000 -0.025494 0.108798
v -0.105304 -0.025304 0.107630
v -0.108798 -0.025494 0.101000
v -0.108798 -0.021000 0.105494
v -0.107630 -0.025304 0.105304
v -0.101000 -0.012000 0.101000
v -0.101000 -0.016506 0.108798
v -0.105304 -0.016696 0.107630
v -0.105494 -0.013202 0.101000
v -0.101000 -0.013202 0.105494
v -0.105304 -0.014370 0.105304
v -0.108798 -0.016506 0.101000
v -0.107630 -0.016696 0.105304
v -0.101000 -0.030000 -0.101000
v -0.110000 -0.021000 -0.101000
v -0.101000 -0.021000 -0.110000
v -0.105494 -0.028798 -0.101000
v -0.101000 -0.028798 -0.105494
v -0.105304 -0.027630 -0.105304
v -0.108798 -0.021000 -0.105494
v -0.108798 -0.025494 -0.101000
v -0.107630 -0.025304 -0.105304
v -0.101000 -0.025494 -0.108798
v -0.105494 -0.021000 -0.108798
v -0.105304 -0.025304 -0.107630
v -0.101000 -0.012000 -0.101000
v -0.101000 -0.013202 -0.105494
v -0.105494 -0.013202 -0.101000
v -0.105304 -0.014370 -0.105304
v -0.101000 -0.016506 -0.108798
v -0.105304 -0.016696 -0.107630
v -0.108798 -0.016506 -0.101000
v -0.107630 -0.016696 -0.105304
v 0.101000 -0.030000 0.101000
v 0.110000 -0.021000 0.101000
v 0.101000 -0.021000 0.110000
v 0.105494 -0.028798 0.101000
v 0.101000 -0.028798 0.105494
v 0.105304 -0.027630 0.105304
v 0.108798 -0.021000 0.105494
v 0.108798 -0.025494 0.101000
v 0.107630 -0.025304 0.105304
v 0.101000 -0.025494 0.108798
v 0.105494 -0.021000 0.108798
v 0.105304 -0.025304 0.107630
v 0.101000 -0.012000 0.101000
v 0.101000 -0.013202 0.105494
v 0.105494 -0.013202 0.101000
v 0.105304 -0.014370 0.105304
v 0.101000 -0.016506 0.108798
v 0.105304 -0.016696 0.107630
v 0.108798 -0.016506 0.101000
v 0.107630 -0.016696 0.105304
v 0.101000 -0.030000 -0.101000
v 0.101000 -0.021000 -0.110000
v 0.110000 -0.021000 -0.101000
v 0.101000 -0.028798 -0.105494
v 0.105494 -0.028798 -0.101000
v 0.105304 -0.027630 -0.105304
v 0.105494 -0.021000 -0.108798
v 0.101000 -0.025494 -0.108798
v 0.105304 -0.025304 -0.107630
v 0.108798 -0.025494 -0.101000
v 0.108798 -0.021000 -0.105494
v 0.107630 -0.025304 -0.105304
v 0.101000 -0.012000 -0.101000
v 0.105494 -0.013202 -0.101000
v 0.101000 -0.013202 -0.105494
v 0.105304 -0.014370 -0.105304
v 0.108798 -0.016506 -0.101000
v 0.107630 -0.016696 -0.105304
v 0.101000 -0.016506 -0.108798
v 0.105304 -0.016696 -0.107630
v -0.092500 -0.014500 0.094500
v -0.092500 -0.007000 0.102000
v -0.100000 -0.007000 0.094500
v -0.092500 -0.013498 0.098245
v -0.096245 -0.013498 0.094500
v -0.096087 -0.012525 0.098087
v -0.096245 -0.007000 0.100998
v -0.092500 -0.010745 0.100998
v -0.096087 -0.010587 0.100025
v -0.098998 -0.010745 0.094500
v -0.098998 -0.007000 0.098245
v -0.098025 -0.010587 0.098087
v -0.092500 0.000500 0.094500
v -0.092500 -0.003255 0.100998
v -0.096087 -0.003413 0.100025
v -0.096245 -0.000502 0.094500
v -0.092500 -0.000502 0.098245
v -0.096087 -0.001475 0.098087
v -0.098998 -0.003255 0.094500
v -0.098025 -0.003413 0.098087
v -0.092500 -0.014500 -0.100500
v -0.100000 -0.007000 -0.100500
v -0.092500 -0.007000 -0.108000
v -0.096245 -0.013498 -0.100500
v -0.092500 -0.013498 -0.104245
v -0.096087 -0.012525 -0.104087
v -0.098998 -0.007000 -0.104245
v -0.098998 -0.010745 -0.100500
v -0.098025 -0.010587 -0.104087
v -0.092500 -0.010745 -0.106998
v -0.096245 -0.007000 -0.106998
v -0.096087 -0.010587 -0.106025
v -0.092500 0.000500 -0.100500
v -0.092500 -0.000502 -0.104245
v -0.096245 -0.000502 -0.100500
v -0.096087 -0.001475 -0.104087
v -0.092500 -0.003255 -0.106998
v -0.096087 -0.003413 -0.106025
v -0.098998 -0.003255 -0.100500
v -0.098025 -0.003413 -0.104087
v 0.092500 -0.014500 0.094500
v 0.100000 -0.007000 0.094500
v 0.092500 -0.007000 0.102000
v 0.096245 -0.013498 0.094500
v 0.092500 -0.013498 0.098245
v 0.096087 -0.012525 0.098087
v 0.098998 -0.007000 0.098245
v 0.098998 -0.010745 0.094500
v 0.098025 -0.010587 0.098087
v 0.092500 -0.010745 0.100998
v 0.096245 -0.007000 0.100998
v 0.096087 -0.010587 0.100025
v 0.092500 0.000500 0.094500
v 0.092500 -0.000502 0.098245
v 0.096245 -0.000502 0.094500
v 0.096087 -0.001475 0.098087
v 0.092500 -0.003255 0.100998
v 0.096087 -0.003413 0.100025
v 0.098998 -0.003255 0.094500
v 0.098025 -0.003413 0.098087
v 0.092500 -0.014500 -0.100500
v 0.092500 -0.007000 -0.108000
v 0.100000 -0.007000 -0.100500
v 0.092500 -0.013498 -0.104245
v 0.096245 -0.013498 -0.100500
v 0.096087 -0.012525 -0.104087
v 0.096245 -0.007000 -0.106998
v 0.092500 -0.010745 -0.106998
v 0.096087 -0.010587 -0.106025
v 0.098998 -0.010745 -0.100500
v 0.098998 -0.007000 -0.104245
v 0.098025 -0.010587 -0.104087
v 0.092500 0.000500 -0.100500
v 0.096245 -0.000502 -0.100500
v 0.092500 -0.000502 -0.104245
v 0.096087 -0.001475 -0.104087
v 0.098998 -0.003255 -0.100500
v 0.098025 -0.003413 -0.104087
v 0.092500 -0.003255 -0.106998
v 0.096087 -0.003413 -0.106025
v -0.081363 0.005632 -0.077000
v -0.065465 0.008500 -0.085000
v -0.079500 0.000500 -0.077000
v -0.077186 0.007593 -0.080911
v -0.083205 0.003004 -0.077000
v -0.080528 0.003956 -0.080774
v -0.069927 0.004589 -0.083824
v -0.071397 0.008637 -0.083824
v -0.076267 0.004578 -0.082936
v -0.082599 0.001334 -0.077000
v -0.075038 0.001676 -0.080911
v -0.079935 0.002322 -0.080774
v 0.081363 0.005632 -0.077000
v 0.079500 0.000500 -0.077000
v 0.065465 0.008500 -0.085000
v 0.083205 0.003004 -0.077000
v 0.077186 0.007593 -0.080911
v 0.080528 0.003956 -0.080774
v 0.075038 0.001676 -0.080911
v 0.082599 0.001334 -0.077000
v 0.079935 0.002322 -0.080774
v 0.071397 0.008637 -0.083824
v 0.069927 0.004589 -0.083824
v 0.076267 0.004578 -0.082936
v 0.052000 0.023500 -0.077000
v 0.066137 0.018368 -0.077000
v 0.057096 0.015500 -0.085000
v 0.056804 0.022748 -0.077000
v 0.053626 0.022316 -0.080922
v 0.057519 0.021878 -0.080801
v 0.064130 0.018503 -0.080922
v 0.061969 0.020872 -0.077000
v 0.060863 0.020664 -0.080801
v 0.055469 0.019422 -0.083816
v 0.060859 0.017465 -0.083816
v 0.058801 0.020197 -0.082928
v -0.066137 0.018368 -0.077000
v -0.052000 0.023500 -0.077000
v -0.057096 0.015500 -0.085000
v -0.061969 0.020872 -0.077000
v -0.064130 0.018503 -0.080922
v -0.060863 0.020664 -0.080801
v -0.053626 0.022316 -0.080922
v -0.056804 0.022748 -0.077000
v -0.057519 0.021878 -0.080801
v -0.060859 0.017465 -0.083816
v -0.055469 0.019422 -0.083816
v -0.058801 0.020197 -0.082928
v -0.081363 0.005632 0.077000
v -0.079500 0.000500 0.077000
v -0.065465 0.008500 0.085000
v -0.083205 0.003004 0.077000
v -0.077186 0.007593 0.080911
v -0.080528 0.003956 0.080774
v -0.075038 0.001676 0.080911
v -0.082599 0.001334 0.077000
v -0.079935 0.002322 0.080774
v -0.071397 0.008637 0.083824
v -0.069927 0.004589 0.083824
v -0.076267 0.004578 0.082936
v 0.079500 0.000500 0.077000
v 0.081363 0.005632 0.077000
v 0.065465 0.008500 0.085000
v 0.082599 0.001334 0.077000
v 0.075038 0.001676 0.080911
v 0.079935 0.002322 0.080774
v 0.077186 0.007593 0.080911
v 0.083205 0.003004 0.077000
v 0.080528 0.003956 0.080774
v 0.069927 0.004589 0.083824
v 0.071397 0.008637 0.083824
v 0.076267 0.004578 0.082936
v 0.066137 0.018368 0.077000
v 0.052000 0.023500 0.077000
v 0.057096 0.015500 0.085000
v 0.061969 0.020872 0.077000
v 0.064130 0.018503 0.080922
v 0.060863 0.020664 0.080801
v 0.053626 0.022316 0.080922
v 0.056804 0.022748 0.077000
v 0.057519 0.021878 0.080801
v 0.060859 0.017465 0.083816
v 0.055469 0.019422 0.083816
v 0.058801 0.020197 0.082928
v -0.066137 0.018368 0.077000
v -0.057096 0.015500 0.085000
v -0.052000 0.023500 0.077000
v -0.064130 0.018503 0.080922
v -0.061969 0.020872 0.077000
v -0.060863 0.020664 0.080801
v -0.055469 0.019422 0.083816
v -0.060859 0.017465 0.083816
v -0.058801 0.020197 0.082928
v -0.056804 0.022748 0.077000
v -0.053626 0.022316 0.080922
v -0.057519 0.021878 0.080801
v -0.074000 -0.013000 0.096500
v -0.074000 -0.007000 0.102500
v -0.080000 -0.007000 0.096500
v -0.074000 -0.012198 0.099496
v -0.076996 -0.012198 0.096500
v -0.076869 -0.011420 0.099369
v -0.076996 -0.007000 0.101698
v -0.074000 -0.009996 0.101698
v -0.076869 -0.009869 0.100920
v -0.079198 -0.009996 0.096500
v -0.079198 -0.007000 0.099496
v -0.078420 -0.009869 0.099369
v -0.074000 0.001000 0.102500
v -0.074000 0.007000 0.096500
v -0.080000 0.001000 0.096500
v -0.074000 0.003996 0.101698
v -0.076996 0.001000 0.101698
v -0.076869 0.003869 0.100920
v -0.076996 0.006198 0.096500
v -0.074000 0.006198 0.099496
v -0.076869 0.005420 0.099369
v -0.079198 0.001000 0.099496
v -0.079198 0.003996 0.096500
v -0.078420 0.003869 0.099369
v -0.074000 -0.013000 0.093500
v -0.080000 -0.007000 0.093500
v -0.074000 -0.007000 0.087500
v -0.076996 -0.012198 0.093500
v -0.074000 -0.012198 0.090504
v -0.076869 -0.011420 0.090631
v -0.079198 -0.007000 0.090504
v -0.079198 -0.009996 0.093500
v -0.078420 -0.009869 0.090631
v -0.074000 -0.009996 0.088302
v -0.076996 -0.007000 0.088302
v -0.076869 -0.009869 0.089080
v -0.074000 0.007000 0.093500
v -0.074000 0.001000 0.087500
v -0.080000 0.001000 0.093500
v -0.074000 0.006198 0.090504
v -0.076996 0.006198 0.093500
v -0.076869 0.005420 0.090631
v -0.076996 0.001000 0.088302
v -0.074000 0.003996 0.088302
v -0.076869 0.003869 0.089080
v -0.079198 0.003996 0.093500
v -0.079198 0.001000 0.090504
v -0.078420 0.003869 0.090631
v 0.074000 -0.013000 0.096500
v 0.080000 -0.007000 0.096500
v 0.074000 -0.007000 0.102500
v 0.076996 -0.012198 0.096500
v 0.074000 -0.012198 0.099496
v 0.076869 -0.011420 0.099369
v 0.079198 -0.007000 0.099496
v 0.079198 -0.009996 0.096500
v 0.078420 -0.009869 0.099369
v 0.074000 -0.009996 0.101698
v 0.076996 -0.007000 0.101698
v 0.076869 -0.009869 0.100920
v 0.074000 0.007000 0.096500
v 0.074000 0.001000 0.102500
v 0.080000 0.001000 0.096500
v 0.074000 0.006198 0.099496
v 0.076996 0.006198 0.096500
v 0.076869 0.005420 0.099369
v 0.076996 0.001000 0.101698
v 0.074000 0.003996 0.101698
v 0.076869 0.003869 0.100920
v 0.079198 0.003996 0.096500
v 0.079198 0.001000 0.099496
v 0.078420 0.003869 0.099369
v 0.074000 -0.013000 0.093500
v 0.074000 -0.007000 0.087500
v 0.080000 -0.007000 0.093500
v 0.074000 -0.012198 0.090504
v 0.076996 -0.012198 0.093500
v 0.076869 -0.011420 0.090631
v 0.076996 -0.007000 0.088302
v 0.074000 -0.009996 0.088302
v 0.076869 -0.009869 0.089080
v 0.079198 -0.009996 0.093500
v 0.079198 -0.007000 0.090504
v 0.078420 -0.009869 0.090631
v 0.074000 0.007000 0.093500
v 0.080000 0.001000 0.093500
v 0.074000 0.001000 0.087500
v 0.076996 0.006198 0.093500
v 0.074000 0.006198 0.090504
v 0.076869 0.005420 0.090631
v 0.079198 0.001000 0.090504
v 0.079198 0.003996 0.093500
v 0.078420 0.003869 0.090631
v 0.074000 0.003996 0.088302
v 0.076996 0.001000 0.088302
v 0.076869 0.003869 0.089080
v -0.070000 0.001500 -0.062076
v -0.070693 0.002300 -0.062600
v -0.069307 0.002300 -0.062600
v -0.070490 0.001734 -0.062421
v -0.070000 0.001838 -0.062636
v -0.070000 0.002300 -0.062791
v -0.069510 0.001734 -0.062421
v -0.070000 0.004500 -0.062076
v -0.069307 0.003700 -0.062600
v -0.070693 0.003700 -0.062600
v -0.069510 0.004266 -0.062421
v -0.070000 0.004162 -0.062636
v -0.070000 0.003700 -0.062791
v -0.070490 0.004266 -0.062421
v -0.068202 0.001500 -0.061038
v -0.068095 0.002300 -0.061900
v -0.067402 0.002300 -0.060700
v -0.068148 0.001734 -0.061635
v -0.067717 0.001838 -0.061318
v -0.067583 0.002300 -0.061396
v -0.067658 0.001734 -0.060786
v -0.068202 0.004500 -0.061038
v -0.067402 0.003700 -0.060700
v -0.068095 0.003700 -0.061900
v -0.067658 0.004266 -0.060786
v -0.067717 0.004162 -0.061318
v -0.067583 0.003700 -0.061396
v -0.068148 0.004266 -0.061635
v -0.068202 0.001500 -0.058962
v -0.067402 0.002300 -0.059300
v -0.068095 0.002300 -0.058100
v -0.067658 0.001734 -0.059214
v -0.067717 0.001838 -0.058682
v -0.067583 0.002300 -0.058604
v -0.068148 0.001734 -0.058365
v -0.068202 0.004500 -0.058962
v -0.068095 0.003700 -0.058100
v -0.067402 0.003700 -0.059300
v -0.068148 0.004266 -0.058365
v -0.067717 0.004162 -0.058682
v -0.067583 0.003700 -0.058604
v -0.067658 0.004266 -0.059214
v -0.070000 0.001500 -0.057924
v -0.069307 0.002300 -0.057400
v -0.070693 0.002300 -0.057400
v -0.069510 0.001734 -0.057579
v -0.070000 0.001838 -0.057364
v -0.070000 0.002300 -0.057209
v -0.070490 0.001734 -0.057579
v -0.070000 0.004500 -0.057924
v -0.070693 0.003700 -0.057400
v -0.069307 0.003700 -0.057400
v -0.070490 0.004266 -0.057579
v -0.070000 0.004162 -0.057364
v -0.070000 0.003700 -0.057209
v -0.069510 0.004266 -0.057579
v -0.071798 0.001500 -0.058962
v -0.071905 0.002300 -0.058100
v -0.072598 0.002300 -0.059300
v -0.071852 0.001734 -0.058365
v -0.072283 0.001838 -0.058682
v -0.072417 0.002300 -0.058604
v -0.072342 0.001734 -0.059214
v -0.071798 0.004500 -0.058962
v -0.072598 0.003700 -0.059300
v -0.071905 0.003700 -0.058100
v -0.072342 0.004266 -0.059214
v -0.072283 0.004162 -0.058682
v -0.072417 0.003700 -0.058604
v -0.071852 0.004266 -0.058365
v -0.071798 0.001500 -0.061038
v -0.072598 0.002300 -0.060700
v -0.071905 0.002300 -0.061900
v -0.072342 0.001734 -0.060786
v -0.072283 0.001838 -0.061318
v -0.072417 0.002300 -0.061396
v -0.071852 0.001734 -0.061635
v -0.071798 0.004500 -0.061038
v -0.071905 0.003700 -0.061900
v -0.072598 0.003700 -0.060700
v -0.071852 0.004266 -0.061635
v -0.072283 0.004162 -0.061318
v -0.072417 0.003700 -0.061396
v -0.072342 0.004266 -0.060786
v 0.070000 0.001500 -0.062076
v 0.069307 0.002300 -0.062600
v 0.070693 0.002300 -0.062600
v 0.069510 0.001734 -0.062421
v 0.070000 0.001838 -0.062636
v 0.070000 0.002300 -0.062791
v 0.070490 0.001734 -0.062421
v 0.070000 0.004500 -0.062076
v 0.070693 0.003700 -0.062600
v 0.069307 0.003700 -0.062600
v 0.070490 0.004266 -0.062421
v 0.070000 0.004162 -0.062636
v 0.070000 0.003700 -0.062791
v 0.069510 0.004266 -0.062421
v 0.071798 0.001500 -0.061038
v 0.071905 0.002300 -0.061900
v 0.072598 0.002300 -0.060700
v 0.071852 0.001734 -0.061635
v 0.072283 0.001838 -0.061318
v 0.072417 0.002300 -0.061396
v 0.072342 0.001734 -0.060786
v 0.071798 0.004500 -0.061038
v 0.072598 0.003700 -0.060700
v 0.071905 0.003700 -0.061900
v 0.072342 0.004266 -0.060786
v 0.072283 0.004162 -0.061318
v 0.072417 0.003700 -0.061396
v 0.071852 0.004266 -0.061635
v 0.071798 0.001500 -0.058962
v 0.072598 0.002300 -0.059300
v 0.071905 0.002300 -0.058100
v 0.072342 0.001734 -0.059214
v 0.072283 0.001838 -0.058682
v 0.072417 0.002300 -0.058604
v 0.071852 0.001734 -0.058365
v 0.071798 0.004500 -0.058962
v 0.071905 0.003700 -0.058100
v 0.072598 0.003700 -0.059300
v 0.071852 0.004266 -0.058365
v 0.072283 0.004162 -0.058682
v 0.072417 0.003700 -0.058604
v 0.072342 0.004266 -0.059214
v 0.070000 0.001500 -0.057924
v 0.070693 0.002300 -0.057400
v 0.069307 0.002300 -0.057400
v 0.070490 0.001734 -0.057579
v 0.070000 0.001838 -0.057364
v 0.070000 0.002300 -0.057209
v 0.069510 0.001734 -0.057579
v 0.070000 0.004500 -0.057924
v 0.069307 0.003700 -0.057400
v 0.070693 0.003700 -0.057400
v 0.069510 0.004266 -0.057579
v 0.070000 0.004162 -0.057364
v 0.070000 0.003700 -0.057209
v 0.070490 0.004266 -0.057579
v 0.068202 0.001500 -0.058962
v 0.068095 0.002300 -0.058100
v 0.067402 0.002300 -0.059300
v 0.068148 0.001734 -0.058365
v 0.067717 0.001838 -0.058682
v 0.067583 0.002300 -0.058604
v 0.067658 0.001734 -0.059214
v 0.068202 0.004500 -0.058962
v 0.067402 0.003700 -0.059300
v 0.068095 0.003700 -0.058100
v 0.067658 0.004266 -0.059214
v 0.067717 0.004162 -0.058682
v 0.067583 0.003700 -0.058604
v 0.068148 0.004266 -0.058365
v 0.068202 0.001500 -0.061038
v 0.067402 0.002300 -0.060700
v 0.068095 0.002300 -0.061900
v 0.067658 0.001734 -0.060786
v 0.067717 0.001838 -0.061318
v 0.067583 0.002300 -0.061396
v 0.068148 0.001734 -0.061635
v 0.068202 0.004500 -0.061038
v 0.068095 0.003700 -0.061900
v 0.067402 0.003700 -0.060700
v 0.068148 0.004266 -0.061635
v 0.067717 0.004162 -0.061318
v 0.067583 0.003700 -0.061396
v 0.067658 0.004266 -0.060786
vn -0.2492 -0.9318 0.2639
vn -0.2178 -0.6901 0.6901
vn -0.2639 -0.2492 0.9318
vn -0.6901 -0.2178 0.6901
vn -0.9318 -0.2639 0.2492
vn -0.6901 -0.6901 0.2178
vn -0.5773 -0.5774 0.5774
vn -0.2492 0.2639 0.9318
vn -0.2178 0.6901 0.6901
vn -0.2639 0.9318 0.2492
vn -0.6901 0.6901 0.2178
vn -0.9318 0.2492 0.2639
vn -0.6901 0.2178 0.6901
vn -0.5774 0.5774 0.5773
vn -0.2639 -0.9318 -0.2492
vn -0.6901 -0.6901 -0.2178
vn -0.9318 -0.2492 -0.2639
vn -0.6901 -0.2178 -0.6901
vn -0.2492 -0.2639 -0.9318
vn -0.2178 -0.6901 -0.6901
vn -0.5773 -0.5774 -0.5774
vn -0.2492 0.9318 -0.2639
vn -0.2178 0.6901 -0.6901
vn -0.2639 0.2492 -0.9318
vn -0.6901 0.2178 -0.6901
vn -0.9318 0.2639 -0.2492
vn -0.6901 0.6901 -0.2178
vn -0.5774 0.5774 -0.5773
vn 0.2639 -0.9318 0.2492
vn 0.6901 -0.6901 0.2178
vn 0.9318 -0.2492 0.2639
vn 0.6901 -0.2178 0.6901
vn 0.2492 -0.2639 0.9318
vn 0.2178 -0.6901 0.6901
vn 0.5773 -0.5774 0.5774
vn 0.2492 0.9318 0.2639
vn 0.2178 0.6901 0.6901
vn 0.2639 0.2492 0.9318
vn 0.6901 0.2178 0.6901
vn 0.9318 0.2639 0.2492
vn 0.6901 0.6901 0.2178
vn 0.5774 0.5774 0.5773
vn 0.2492 -0.9318 -0.2639
vn 0.2178 -0.6901 -0.6901
vn 0.2639 -0.2492 -0.9318
vn 0.6901 -0.2178 -0.6901
vn 0.9318 -0.2639 -0.2492
vn 0.6901 -0.6901 -0.2178
vn 0.5773 -0.5774 -0.5774
vn 0.2639 0.9318 -0.2492
vn 0.6901 0.6901 -0.2178
vn 0.9318 0.2492 -0.2639
vn 0.6901 0.2178 -0.6901
vn 0.2492 0.2639 -0.9318
vn 0.2178 0.6901 -0.6901
vn 0.5774 0.5774 -0.5773
vn -0.2584 -0.9660 -0.0000
vn -0.7071 -0.7071 -0.0000
vn -0.9660 -0.2584 -0.0000
vn 0.2639 0.9318 0.2492
vn -0.2584 0.9660 -0.0000
vn -0.7071 0.7071 -0.0000
vn -0.9660 0.2584 -0.0000
vn 0.2639 -0.2492 0.9318
vn 0.6901 -0.2177 0.6901
vn 0.9318 -0.2639 0.2492
vn -0.0000 -0.9660 -0.2584
vn -0.0000 -0.7071 -0.7071
vn -0.0000 -0.2584 -0.9660
vn -0.0000 0.9660 -0.2584
vn -0.0000 0.7071 -0.7071
vn -0.0000 0.2584 -0.9660
vn 0.6901 -0.6901 0.2177
vn 0.2492 -0.9318 0.2639
vn 0.2584 -0.9660 -0.0000
vn 0.7071 -0.7071 -0.0000
vn 0.9660 -0.2584 -0.0000
vn 0.2584 0.9660 -0.0000
vn 0.7071 0.7071 -0.0000
vn 0.9660 0.2584 -0.0000
vn -0.9318 0.2492 -0.2639
vn -0.2492 0.2639 -0.9318
vn -0.0000 -0.9660 0.2584
vn -0.0000 -0.7071 0.7071
vn -0.0000 -0.2584 0.9660
vn -0.0000 0.9660 0.2584
vn -0.0000 0.7071 0.7071
vn -0.0000 0.2584 0.9660
vn -0.0000 -1.0000 -0.0000
vn -0.2639 0.9318 -0.2492
vn -0.0000 1.0000 -0.0000
vn -0.2639 -0.2492 -0.9318
vn -0.2493 -0.9318 0.2637
vn -0.2176 -0.6902 0.6902
vn -0.2637 -0.2493 0.9318
vn -0.6902 -0.2176 0.6902
vn -0.9318 -0.2637 0.2493
vn -0.6902 -0.6902 0.2176
vn -0.2493 0.2637 0.9318
vn -0.2176 0.6902 0.6902
vn -0.2637 0.9318 0.2493
vn -0.6902 0.6902 0.2176
vn -0.9318 0.2493 0.2637
vn -0.6902 0.2176 0.6902
vn -0.5773 0.5774 0.5774
vn -0.2637 -0.9318 -0.2493
vn -0.6902 -0.6902 -0.2176
vn -0.9318 -0.2493 -0.2637
vn -0.6902 -0.2176 -0.6902
vn -0.2493 -0.2637 -0.9318
vn -0.2176 -0.6902 -0.6902
vn -0.2493 0.9318 -0.2637
vn -0.2176 0.6902 -0.6902
vn -0.2637 0.2493 -0.9318
vn -0.6902 0.2176 -0.6902
vn -0.9318 0.2637 -0.2493
vn -0.6902 0.6902 -0.2176
vn -0.5773 0.5774 -0.5774
vn 0.2637 -0.9318 0.2493
vn 0.6902 -0.6902 0.2176
vn 0.9318 -0.2493 0.2637
vn 0.6902 -0.2176 0.6902
vn 0.2493 -0.2637 0.9318
vn 0.2176 -0.6902 0.6902
vn 0.2493 0.9318 0.2637
vn 0.2176 0.6902 0.6902
vn 0.2637 0.2493 0.9318
vn 0.6902 0.2176 0.6902
vn 0.9318 0.2637 0.2493
vn 0.6902 0.6902 0.2176
vn 0.5773 0.5774 0.5774
vn 0.2493 -0.9318 -0.2637
vn 0.2176 -0.6902 -0.6902
vn 0.2637 -0.2493 -0.9318
vn 0.6902 -0.2176 -0.6902
vn 0.9318 -0.2637 -0.2493
vn 0.6902 -0.6902 -0.2176
vn 0.2637 0.9318 -0.2493
vn 0.6902 0.6902 -0.2176
vn 0.9318 0.2493 -0.2637
vn 0.6902 0.2176 -0.6902
vn 0.2493 0.2637 -0.9318
vn 0.2176 0.6902 -0.6902
vn 0.5773 0.5774 -0.5774
vn -0.2585 -0.9660 -0.0000
vn -0.9660 -0.2585 -0.0000
vn -0.6901 -0.2177 -0.6901
vn -0.9318 -0.2639 -0.2492
vn -0.6901 -0.6901 -0.2177
vn -0.2585 0.9660 -0.0000
vn -0.9660 0.2585 -0.0000
vn -0.2492 -0.9318 -0.2639
vn -0.6901 0.2177 0.6901
vn -0.9318 0.2639 0.2492
vn -0.0000 -0.9660 -0.2585
vn -0.0000 -0.2585 -0.9660
vn -0.0000 0.9660 -0.2585
vn -0.0000 0.2585 -0.9660
vn -0.6901 0.6901 0.2177
vn -0.2492 0.9318 0.2639
vn 0.2585 -0.9660 -0.0000
vn 0.9660 -0.2585 -0.0000
vn 0.2585 0.9660 -0.0000
vn 0.9660 0.2585 -0.0000
vn -0.2639 0.2492 0.9318
vn -0.9318 -0.2492 0.2639
vn -0.0000 -0.9660 0.2585
vn -0.0000 -0.2585 0.9660
vn -0.0000 0.9660 0.2585
vn -0.0000 0.2585 0.9660
vn -0.2492 -0.2639 0.9318
vn -0.2639 -0.9318 0.2492
vn -0.7506 0.5261 -0.3997
vn -0.4610 0.3936 -0.7953
vn -0.1940 0.0182 -0.9808
vn -0.1113 -0.5873 -0.8017
vn -0.1303 -0.8987 -0.4188
vn -0.7510 -0.2725 -0.6015
vn -0.4288 -0.1556 -0.8899
vn 0.6765 0.6058 -0.4187
vn 0.7510 -0.2725 -0.6014
vn 0.2382 -0.8851 -0.3998
vn 0.1011 -0.5978 -0.7953
vn 0.1371 -0.1385 -0.9808
vn 0.4621 0.3791 -0.8017
vn 0.4288 -0.1556 -0.8899
vn 0.1159 0.9632 -0.2427
vn 0.3374 0.9294 -0.1493
vn 0.5053 0.8411 -0.1931
vn 0.4364 0.6920 -0.5750
vn 0.0960 0.3724 -0.9231
vn -0.0148 0.7801 -0.6254
vn 0.3006 0.8281 -0.4732
vn -0.5289 0.8132 -0.2427
vn -0.3374 0.9295 -0.1490
vn -0.1517 0.9693 -0.1933
vn -0.1091 0.8108 -0.5750
vn -0.1653 0.3472 -0.9231
vn -0.5118 0.5889 -0.6255
vn -0.3006 0.8281 -0.4732
vn -0.6765 0.6058 0.4187
vn -0.7510 -0.2725 0.6014
vn -0.2382 -0.8851 0.3998
vn -0.1011 -0.5978 0.7953
vn -0.1371 -0.1385 0.9808
vn -0.4621 0.3791 0.8017
vn -0.4288 -0.1556 0.8899
vn 0.1303 -0.8987 0.4188
vn 0.7510 -0.2725 0.6015
vn 0.7506 0.5261 0.3997
vn 0.4610 0.3936 0.7953
vn 0.1940 0.0182 0.9808
vn 0.1113 -0.5873 0.8017
vn 0.4288 -0.1556 0.8899
vn 0.5289 0.8132 0.2427
vn 0.3374 0.9295 0.1490
vn 0.1517 0.9693 0.1933
vn 0.1091 0.8108 0.5750
vn 0.1653 0.3472 0.9231
vn 0.5118 0.5889 0.6255
vn 0.3006 0.8281 0.4732
vn -0.5053 0.8411 0.1931
vn -0.4364 0.6920 0.5750
vn -0.0960 0.3724 0.9231
vn 0.0148 0.7801 0.6254
vn -0.1159 0.9632 0.2427
vn -0.3374 0.9294 0.1493
vn -0.3006 0.8281 0.4732
vn -0.6143 0.7348 -0.2876
vn -0.4537 0.5422 -0.7073
vn -0.1847 0.2209 -0.9576
vn -0.0000 0.2890 -0.9573
vn -0.0000 0.9573 -0.2890
vn 0.1847 0.2214 -0.9575
vn 0.4537 0.5422 -0.7073
vn 0.6144 0.7346 -0.2879
vn -0.0000 -0.2880 -0.9576
vn -0.0000 -0.9576 -0.2880
vn -0.1847 0.2214 0.9575
vn -0.4537 0.5422 0.7073
vn -0.6144 0.7346 0.2879
vn -0.0000 -0.9576 0.2880
vn -0.0000 -0.2880 0.9576
vn 0.6143 0.7348 0.2876
vn 0.4537 0.5422 0.7073
vn 0.1847 0.2209 0.9576
vn -0.0000 0.9573 0.2890
vn -0.0000 0.2890 0.9573
vn -0.2599 -0.9656 -0.0000
vn -0.9400 -0.3411 -0.0000
vn -0.8189 0.5740 -0.0000
vn 0.8189 0.5740 -0.0000
vn 0.9400 -0.3411 -0.0000
vn 0.2599 -0.9656 -0.0000
vn 0.1547 0.9880 -0.0000
vn 0.3414 0.9399 -0.0000
vn 0.5150 0.8572 -0.0000
vn -0.5150 0.8572 -0.0000
vn -0.3414 0.9399 -0.0000
vn -0.1547 0.9880 -0.0000
vn -0.6416 0.7670 -0.0000
vn -0.0000 -0.0000 -1.0000
vn 0.6416 0.7670 -0.0000
vn -0.0000 -0.0000 1.0000
vn -0.2494 -0.9318 0.2637
vn -0.2177 -0.6902 0.6901
vn -0.2637 -0.2494 0.9318
vn -0.6901 -0.2177 0.6901
vn -0.9318 -0.2637 0.2494
vn -0.6901 -0.6901 0.2177
vn -0.5774 -0.5773 0.5773
vn -0.2494 0.2637 0.9318
vn -0.2177 0.6902 0.6901
vn -0.2637 0.9318 0.2494
vn -0.9318 0.2494 0.2637
vn -0.6902 0.2177 0.6901
vn -0.5774 0.5773 0.5773
vn -0.2637 -0.9318 -0.2494
vn -0.9318 -0.2494 -0.2637
vn -0.6902 -0.2177 -0.6901
vn -0.2494 -0.2637 -0.9318
vn -0.2177 -0.6901 -0.6901
vn -0.5774 -0.5774 -0.5773
vn -0.2494 0.9318 -0.2637
vn -0.2177 0.6902 -0.6901
vn -0.2637 0.2494 -0.9318
vn -0.6901 0.2177 -0.6901
vn -0.9318 0.2637 -0.2494
vn -0.6901 0.6901 -0.2177
vn 0.2637 -0.9318 0.2494
vn 0.9318 -0.2494 0.2637
vn 0.6902 -0.2177 0.6901
vn 0.2494 -0.2637 0.9318
vn 0.2177 -0.6902 0.6901
vn 0.5774 -0.5773 0.5773
vn 0.2494 0.9318 0.2637
vn 0.2177 0.6902 0.6901
vn 0.2637 0.2494 0.9318
vn 0.6901 0.2177 0.6901
vn 0.9318 0.2637 0.2494
vn 0.6901 0.6901 0.2177
vn 0.5774 0.5773 0.5773
vn 0.2494 -0.9318 -0.2637
vn 0.2177 -0.6902 -0.6901
vn 0.2637 -0.2494 -0.9318
vn 0.6901 -0.2177 -0.6901
vn 0.9318 -0.2637 -0.2494
vn 0.6901 -0.6901 -0.2177
vn 0.5774 -0.5774 -0.5773
vn 0.2637 0.9318 -0.2494
vn 0.6901 0.6901 -0.2177
vn 0.9318 0.2494 -0.2637
vn 0.6902 0.2177 -0.6901
vn 0.2494 0.2637 -0.9318
vn 0.2177 0.6901 -0.6901
vn -0.2586 -0.9660 -0.0000
vn -0.9660 -0.2586 -0.0000
vn -0.2586 -0.0000 0.9660
vn -0.7071 -0.0000 0.7071
vn -0.9660 -0.0000 0.2586
vn -0.2586 0.9660 -0.0000
vn -0.9660 0.2586 -0.0000
vn -0.2586 -0.0000 -0.9660
vn -0.7071 -0.0000 -0.7071
vn -0.9660 -0.0000 -0.2586
vn -0.0000 -0.9660 -0.2586
vn -0.0000 -0.2586 -0.9660
vn -0.0000 0.9660 -0.2586
vn -0.0000 0.2586 -0.9660
vn 0.9660 -0.0000 -0.2586
vn 0.7071 -0.0000 -0.7071
vn 0.2586 -0.0000 -0.9660
vn 0.2586 -0.9660 -0.0000
vn 0.9660 -0.2586 -0.0000
vn 0.2586 0.9660 -0.0000
vn 0.9660 0.2586 -0.0000
vn 0.2586 -0.0000 0.9660
vn 0.7071 -0.0000 0.7071
vn 0.9660 -0.0000 0.2586
vn -0.0000 -0.9660 0.2586
vn -0.0000 -0.2586 0.9660
vn -0.0000 0.9660 0.2586
vn -0.0000 0.2586 0.9660
vn -1.0000 -0.0000 -0.0000
vn 1.0000 -0.0000 -0.0000
vn 0.0450 -0.8553 -0.5162
vn -0.3014 -0.3841 -0.8727
vn 0.2528 -0.3078 -0.9173
vn -0.0450 0.8553 -0.5162
vn 0.3014 0.3841 -0.8727
vn -0.2528 0.3078 -0.9173
vn 0.4695 -0.8553 -0.2193
vn 0.6055 -0.3833 -0.6975
vn 0.9209 -0.3075 -0.2395
vn 0.4247 0.8553 -0.2968
vn 0.9067 0.3834 -0.1755
vn 0.6674 0.3080 -0.6780
vn 0.4247 -0.8553 0.2968
vn 0.9067 -0.3834 0.1755
vn 0.6674 -0.3080 0.6780
vn 0.4695 0.8553 0.2193
vn 0.6055 0.3833 0.6975
vn 0.9209 0.3075 0.2395
vn -0.0450 -0.8553 0.5162
vn 0.3014 -0.3841 0.8727
vn -0.2528 -0.3077 0.9173
vn 0.0450 0.8553 0.5162
vn -0.3014 0.3841 0.8727
vn 0.2528 0.3077 0.9173
vn -0.4695 -0.8553 0.2193
vn -0.6055 -0.3833 0.6975
vn -0.9209 -0.3075 0.2395
vn -0.4247 0.8553 0.2968
vn -0.9067 0.3834 0.1755
vn -0.6674 0.3080 0.6780
vn -0.4247 -0.8553 -0.2968
vn -0.9067 -0.3834 -0.1755
vn -0.6674 -0.3080 -0.6780
vn -0.4695 0.8553 -0.2193
vn -0.6055 0.3833 -0.6975
vn -0.9209 0.3075 -0.2395
vn 0.4553 -0.4128 -0.7889
vn 0.1976 -0.9186 -0.3423
vn 0.4554 0.4121 -0.7891
vn 0.1976 0.9186 -0.3422
vn -0.2657 -0.0000 -0.9641
vn 0.2657 -0.0000 -0.9641
vn 0.9678 -0.0000 -0.2517
vn 0.7015 -0.0000 -0.7127
vn 0.9111 -0.4121 -0.0000
vn 0.3951 -0.9186 -0.0000
vn 0.9111 0.4121 -0.0000
vn 0.3951 0.9186 -0.0000
vn 0.7015 -0.0000 0.7127
vn 0.9678 -0.0000 0.2517
vn 0.4554 -0.4121 0.7891
vn 0.1976 -0.9186 0.3422
vn 0.4553 0.4128 0.7889
vn 0.1976 0.9186 0.3423
vn -0.2657 -0.0000 0.9641
vn 0.2657 -0.0000 0.9641
vn -0.4553 -0.4128 0.7889
vn -0.1976 -0.9186 0.3423
vn -0.4554 0.4121 0.7891
vn -0.1976 0.9186 0.3422
vn -0.9678 -0.0000 0.2517
vn -0.7015 -0.0000 0.7127
vn -0.9111 -0.4121 -0.0000
vn -0.3951 -0.9186 -0.0000
vn -0.9111 0.4121 -0.0000
vn -0.3951 0.9186 -0.0000
vn -0.7015 -0.0000 -0.7126
vn -0.9678 -0.0000 -0.2517
vn -0.4554 -0.4121 -0.7891
vn -0.1976 -0.9186 -0.3422
vn -0.4553 0.4128 -0.7889
vn -0.1976 0.9186 -0.3423
vn 0.5001 -0.0000 -0.8659
vn -0.5001 -0.0000 -0.8659
vn 0.5001 -0.0000 0.8659
vn -0.5001 -0.0000 0.8659
vn 0.7015 -0.0000 0.7126
vn -0.7015 -0.0000 -0.7127
vn 0.2492 0.2639 0.9318
vn 0.9318 0.2492 0.2639
vn 0.2639 -0.9318 -0.2492
vn 0.2492 -0.2639 -0.9318
vn 0.9318 -0.2492 -0.2639
vn 0.2492 0.9318 -0.2639
vn 0.9318 0.2639 -0.2492
vn 0.6901 0.2177 -0.6901
vn 0.2639 0.2492 -0.9318
vn -0.2637 -0.9318 0.2493
vn -0.2493 -0.2637 0.9318
vn -0.9318 -0.2493 0.2637
vn -0.2637 0.2493 0.9318
vn -0.2493 0.9318 0.2637
vn -0.9318 0.2637 0.2493
vn -0.2493 -0.9318 -0.2637
vn -0.9318 -0.2637 -0.2493
vn -0.2637 -0.2493 -0.9318
vn -0.2637 0.9318 -0.2493
vn -0.2493 0.2637 -0.9318
vn -0.9318 0.2493 -0.2637
vn 0.2493 -0.9318 0.2637
vn 0.9318 -0.2637 0.2493
vn 0.2637 -0.2493 0.9318
vn 0.2637 0.9318 0.2493
vn 0.2493 0.2637 0.9318
vn 0.9318 0.2493 0.2637
vn 0.2637 -0.9318 -0.2493
vn 0.2493 -0.2637 -0.9318
vn 0.9318 -0.2493 -0.2637
vn 0.2493 0.9318 -0.2637
vn 0.9318 0.2637 -0.2493
vn 0.2637 0.2493 -0.9318
vn -0.6765 0.6058 -0.4187
vn -0.4691 0.3894 -0.7927
vn -0.1371 -0.1385 -0.9808
vn -0.1022 -0.6080 -0.7873
vn -0.2382 -0.8851 -0.3998
vn -0.7510 -0.2725 -0.6014
vn 0.7506 0.5261 -0.3997
vn 0.7510 -0.2725 -0.6015
vn 0.1303 -0.8987 -0.4188
vn 0.1100 -0.5997 -0.7926
vn 0.1940 0.0182 -0.9808
vn 0.4685 0.4008 -0.7873
vn 0.1517 0.9693 -0.1933
vn 0.3376 0.9294 -0.1491
vn 0.5289 0.8132 -0.2427
vn 0.4418 0.5605 -0.7004
vn 0.1653 0.3472 -0.9231
vn 0.1036 0.7355 -0.6696
vn -0.5053 0.8411 -0.1931
vn -0.3376 0.9294 -0.1492
vn -0.1159 0.9632 -0.2427
vn -0.0207 0.7135 -0.7003
vn -0.0960 0.3724 -0.9231
vn -0.3923 0.6306 -0.6696
vn -0.7506 0.5261 0.3997
vn -0.7510 -0.2725 0.6015
vn -0.1303 -0.8987 0.4188
vn -0.1100 -0.5997 0.7926
vn -0.1940 0.0182 0.9808
vn -0.4685 0.4008 0.7873
vn 0.2382 -0.8851 0.3998
vn 0.7510 -0.2725 0.6014
vn 0.6765 0.6058 0.4187
vn 0.4691 0.3894 0.7927
vn 0.1371 -0.1385 0.9808
vn 0.1022 -0.6080 0.7873
vn 0.5053 0.8411 0.1931
vn 0.3376 0.9294 0.1492
vn 0.1159 0.9632 0.2427
vn 0.0207 0.7135 0.7003
vn 0.0960 0.3724 0.9231
vn 0.3923 0.6306 0.6696
vn -0.5289 0.8132 0.2427
vn -0.4418 0.5605 0.7004
vn -0.1653 0.3472 0.9231
vn -0.1036 0.7355 0.6696
vn -0.1517 0.9693 0.1933
vn -0.3376 0.9294 0.1491
vn -0.6142 0.7343 -0.2890
vn -0.4537 0.5422 -0.7072
vn -0.1853 0.2220 -0.9573
vn 0.1854 0.2217 -0.9573
vn 0.4537 0.5422 -0.7072
vn 0.6140 0.7345 -0.2889
vn -0.1854 0.2217 0.9573
vn -0.4537 0.5422 0.7072
vn -0.6140 0.7345 0.2889
vn 0.6142 0.7343 0.2890
vn 0.4537 0.5422 0.7072
vn 0.1853 0.2220 0.9573
vn -0.2637 -0.9318 0.2494
vn -0.2177 -0.6901 0.6901
vn -0.2494 -0.2637 0.9318
vn -0.9318 -0.2494 0.2637
vn -0.2637 0.2494 0.9318
vn -0.2177 0.6901 0.6901
vn -0.2494 0.9318 0.2637
vn -0.9318 0.2637 0.2494
vn -0.2494 -0.9318 -0.2637
vn -0.9318 -0.2637 -0.2494
vn -0.6901 -0.2177 -0.6902
vn -0.2637 -0.2494 -0.9318
vn -0.2637 0.9318 -0.2494
vn -0.2177 0.6901 -0.6902
vn -0.2494 0.2637 -0.9318
vn -0.9318 0.2494 -0.2637
vn 0.2494 -0.9318 0.2637
vn 0.9318 -0.2637 0.2494
vn 0.2637 -0.2494 0.9318
vn 0.2177 -0.6901 0.6901
vn 0.2637 0.9318 0.2494
vn 0.2177 0.6901 0.6901
vn 0.2494 0.2637 0.9318
vn 0.9318 0.2494 0.2637
vn 0.2637 -0.9318 -0.2494
vn 0.2177 -0.6901 -0.6902
vn 0.2494 -0.2637 -0.9318
vn 0.9318 -0.2494 -0.2637
vn 0.2494 0.9318 -0.2637
vn 0.9318 0.2637 -0.2494
vn 0.6901 0.2177 -0.6902
vn 0.2637 0.2494 -0.9318
vn -0.0450 -0.8553 -0.5162
vn -0.2528 -0.3078 -0.9173
vn 0.3014 -0.3841 -0.8727
vn 0.0450 0.8553 -0.5162
vn 0.2528 0.3078 -0.9173
vn -0.3014 0.3841 -0.8727
vn 0.4247 -0.8553 -0.2968
vn 0.6674 -0.3080 -0.6780
vn 0.9067 -0.3834 -0.1755
vn 0.4695 0.8553 -0.2193
vn 0.9209 0.3075 -0.2395
vn 0.6055 0.3833 -0.6975
vn 0.4695 -0.8553 0.2193
vn 0.9209 -0.3075 0.2395
vn 0.6055 -0.3833 0.6975
vn 0.4247 0.8553 0.2968
vn 0.6674 0.3080 0.6780
vn 0.9067 0.3834 0.1755
vn 0.0450 -0.8553 0.5162
vn 0.2528 -0.3077 0.9173
vn -0.3014 -0.3841 0.8727
vn -0.0450 0.8553 0.5162
vn -0.2528 0.3077 0.9173
vn 0.3014 0.3841 0.8727
vn -0.4247 -0.8553 0.2968
vn -0.6674 -0.3080 0.6780
vn -0.9067 -0.3834 0.1755
vn -0.4695 0.8553 0.2193
vn -0.9209 0.3075 0.2395
vn -0.6055 0.3833 0.6975
vn -0.4695 -0.8553 -0.2193
vn -0.9209 -0.3075 -0.2395
vn -0.6055 -0.3833 -0.6975
vn -0.4247 0.8553 -0.2968
vn -0.6674 0.3080 -0.6780
vn -0.9067 0.3834 -0.1755
vn 0.4557 -0.4121 -0.7890
vn 0.1975 -0.9186 -0.3422
vn 0.4555 0.4128 -0.7887
vn 0.1976 0.9185 -0.3424
vn 0.4555 -0.4128 0.7887
vn 0.1976 -0.9185 0.3424
vn 0.4557 0.4121 0.7890
vn 0.1975 0.9186 0.3422
vn -0.4557 -0.4121 0.7890
vn -0.1975 -0.9186 0.3422
vn -0.4555 0.4128 0.7887
vn -0.1976 0.9185 0.3424
vn -0.7015 -0.0000 0.7126
vn -0.4555 -0.4128 -0.7887
vn -0.1976 -0.9185 -0.3424
vn -0.4557 0.4121 -0.7890
vn -0.1975 0.9186 -0.3422
vn 0.7015 -0.0000 -0.7126
s 0
usemtl Rubber
f 1//1 6//1 5//1
f 4//2 9//2 6//2
f 2//3 9//3 8//3
f 7//4 12//4 9//4
f 3//5 12//5 11//5
f 10//6 6//6 12//6
f 6//7 9//7 12//7
f 2//8 15//8 7//8
f 14//9 18//9 15//9
f 13//10 18//10 17//10
f 16//11 20//11 18//11
f 3//12 20//12 19//12
f 11//13 15//13 20//13
f 15//14 18//14 20//14
f 21//15 26//15 25//15
f 24//16 29//16 26//16
f 22//17 29//17 28//17
f 27//18 32//18 29//18
f 23//19 32//19 31//19
f 30//20 26//20 32//20
f 26//21 29//21 32//21
f 33//22 36//22 35//22
f 34//23 38//23 36//23
f 23//24 38//24 37//24
f 31//25 40//25 38//25
f 22//26 40//26 27//26
f 39//27 36//27 40//27
f 36//28 38//28 40//28
f 41//29 46//29 45//29
f 44//30 49//30 46//30
f 42//31 49//31 48//31
f 47//32 52//32 49//32
f 43//33 52//33 51//33
f 50//34 46//34 52//34
f 46//35 49//35 52//35
f 53//36 56//36 55//36
f 54//37 58//37 56//37
f 43//38 58//38 57//38
f 51//39 60//39 58//39
f 42//40 60//40 47//40
f 59//41 56//41 60//41
f 56//42 58//42 60//42
f 61//43 66//43 65//43
f 64//44 69//44 66//44
f 62//45 69//45 68//45
f 67//46 72//46 69//46
f 63//47 72//47 71//47
f 70//48 66//48 72//48
f 66//49 69//49 72//49
f 73//50 76//50 75//50
f 74//51 78//51 76//51
f 63//52 78//52 77//52
f 71//53 80//53 78//53
f 62//54 80//54 67//54
f 79//55 76//55 80//55
f 76//56 78//56 80//56
f 21//57 5//57 24//57
f 24//58 10//58 28//58
f 28//59 3//59 22//59
f 54//37 57//37 58//37
f 53//60 54//60 56//60
f 50//34 45//34 46//34
f 13//61 35//61 16//61
f 16//62 39//62 19//62
f 19//63 22//63 3//63
f 43//64 50//64 52//64
f 47//65 51//65 52//65
f 42//66 47//66 49//66
f 61//67 25//67 64//67
f 64//68 30//68 68//68
f 68//69 23//69 62//69
f 33//70 75//70 34//70
f 34//71 79//71 37//71
f 37//72 62//72 23//72
f 44//73 48//73 49//73
f 41//74 44//74 46//74
f 39//27 35//27 36//27
f 41//75 65//75 44//75
f 44//76 70//76 48//76
f 48//77 63//77 42//77
f 73//78 55//78 74//78
f 74//79 59//79 77//79
f 77//80 42//80 63//80
f 22//81 39//81 40//81
f 31//25 27//25 40//25
f 23//82 31//82 38//82
f 1//83 45//83 4//83
f 4//84 50//84 8//84
f 8//85 43//85 2//85
f 53//86 17//86 54//86
f 54//87 14//87 57//87
f 57//88 2//88 43//88
f 21//89 41//89 1//89
f 34//23 37//23 38//23
f 33//90 34//90 36//90
f 73//91 13//91 53//91
f 30//20 25//20 26//20
f 23//92 30//92 32//92
f 27//147 31//147 32//147
f 22//148 27//148 29//148
f 24//149 28//149 29//149
f 21//152 24//152 26//152
f 11//153 7//153 15//153
f 3//154 11//154 20//154
f 16//159 19//159 20//159
f 13//160 16//160 18//160
f 14//9 17//9 18//9
f 2//165 14//165 15//165
f 10//6 5//6 6//6
f 3//166 10//166 12//166
f 7//4 11//4 12//4
f 2//171 7//171 9//171
f 4//2 8//2 9//2
f 1//172 4//172 6//172
f 43//424 51//424 58//424
f 51//39 47//39 60//39
f 42//425 59//425 60//425
f 59//41 55//41 56//41
f 61//426 64//426 66//426
f 64//44 68//44 69//44
f 62//427 67//427 69//427
f 67//46 71//46 72//46
f 63//428 70//428 72//428
f 70//48 65//48 66//48
f 73//429 74//429 76//429
f 74//311 77//311 78//311
f 63//430 71//430 78//430
f 71//431 67//431 80//431
f 62//432 79//432 80//432
f 79//55 75//55 76//55
f 21//57 1//57 5//57
f 24//58 5//58 10//58
f 28//59 10//59 3//59
f 13//61 33//61 35//61
f 16//62 35//62 39//62
f 19//63 39//63 22//63
f 61//67 21//67 25//67
f 64//68 25//68 30//68
f 68//69 30//69 23//69
f 33//70 73//70 75//70
f 34//71 75//71 79//71
f 37//72 79//72 62//72
f 41//75 61//75 65//75
f 44//76 65//76 70//76
f 48//77 70//77 63//77
f 73//78 53//78 55//78
f 74//79 55//79 59//79
f 77//80 59//80 42//80
f 1//83 41//83 45//83
f 4//84 45//84 50//84
f 8//85 50//85 43//85
f 53//86 13//86 17//86
f 54//87 17//87 14//87
f 57//88 14//88 2//88
f 21//89 61//89 41//89
f 73//91 33//91 13//91
usemtl BracketMetal
f 81//93 86//93 85//93
f 84//94 89//94 86//94
f 82//95 89//95 88//95
f 87//96 92//96 89//96
f 83//97 92//97 91//97
f 90//98 86//98 92//98
f 86//7 89//7 92//7
f 82//99 95//99 87//99
f 94//100 98//100 95//100
f 93//101 98//101 97//101
f 96//102 100//102 98//102
f 83//103 100//103 99//103
f 91//104 95//104 100//104
f 95//105 98//105 100//105
f 101//106 106//106 105//106
f 104//107 109//107 106//107
f 102//108 109//108 108//108
f 107//109 112//109 109//109
f 103//110 112//110 111//110
f 110//111 106//111 112//111
f 106//21 109//21 112//21
f 113//112 116//112 115//112
f 114//113 118//113 116//113
f 103//114 118//114 117//114
f 111//115 120//115 118//115
f 102//116 120//116 107//116
f 119//117 116//117 120//117
f 116//118 118//118 120//118
f 121//119 126//119 125//119
f 124//120 129//120 126//120
f 122//121 129//121 128//121
f 127//122 132//122 129//122
f 123//123 132//123 131//123
f 130//124 126//124 132//124
f 126//35 129//35 132//35
f 133//125 136//125 135//125
f 134//126 138//126 136//126
f 123//127 138//127 137//127
f 131//128 140//128 138//128
f 122//129 140//129 127//129
f 139//130 136//130 140//130
f 136//131 138//131 140//131
f 141//132 146//132 145//132
f 144//133 149//133 146//133
f 142//134 149//134 148//134
f 147//135 152//135 149//135
f 143//136 152//136 151//136
f 150//137 146//137 152//137
f 146//49 149//49 152//49
f 153//138 156//138 155//138
f 154//139 158//139 156//139
f 143//140 158//140 157//140
f 151//141 160//141 158//141
f 142//142 160//142 147//142
f 159//143 156//143 160//143
f 156//144 158//144 160//144
f 101//145 85//145 104//145
f 104//58 90//58 108//58
f 108//146 83//146 102//146
f 93//150 115//150 96//150
f 96//62 119//62 99//62
f 99//151 102//151 83//151
f 141//155 105//155 144//155
f 144//68 110//68 148//68
f 148//156 103//156 142//156
f 113//157 155//157 114//157
f 114//71 159//71 117//71
f 117//158 142//158 103//158
f 121//161 145//161 124//161
f 124//76 150//76 128//76
f 128//162 143//162 122//162
f 153//163 135//163 154//163
f 154//79 139//79 157//79
f 157//164 122//164 143//164
f 81//167 125//167 84//167
f 84//84 130//84 88//84
f 88//168 123//168 82//168
f 133//169 97//169 134//169
f 134//87 94//87 137//87
f 137//170 82//170 123//170
f 101//89 121//89 81//89
f 153//91 93//91 133//91
f 81//433 84//433 86//433
f 84//94 88//94 89//94
f 82//434 87//434 89//434
f 87//96 91//96 92//96
f 83//435 90//435 92//435
f 90//98 85//98 86//98
f 82//436 94//436 95//436
f 94//100 97//100 98//100
f 93//437 96//437 98//437
f 96//102 99//102 100//102
f 83//438 91//438 100//438
f 91//104 87//104 95//104
f 101//439 104//439 106//439
f 104//107 108//107 109//107
f 102//440 107//440 109//440
f 107//109 111//109 112//109
f 103//441 110//441 112//441
f 110//111 105//111 106//111
f 113//442 114//442 116//442
f 114//113 117//113 118//113
f 103//443 111//443 118//443
f 111//115 107//115 120//115
f 102//444 119//444 120//444
f 119//117 115//117 116//117
f 121//445 124//445 126//445
f 124//120 128//120 129//120
f 122//446 127//446 129//446
f 127//122 131//122 132//122
f 123//447 130//447 132//447
f 130//124 125//124 126//124
f 133//448 134//448 136//448
f 134//126 137//126 138//126
f 123//449 131//449 138//449
f 131//128 127//128 140//128
f 122//450 139//450 140//450
f 139//130 135//130 136//130
f 141//451 144//451 146//451
f 144//133 148//133 149//133
f 142//452 147//452 149//452
f 147//135 151//135 152//135
f 143//453 150//453 152//453
f 150//137 145//137 146//137
f 153//454 154//454 156//454
f 154//139 157//139 158//139
f 143//455 151//455 158//455
f 151//141 147//141 160//141
f 142//456 159//456 160//456
f 159//143 155//143 156//143
f 101//145 81//145 85//145
f 104//58 85//58 90//58
f 108//146 90//146 83//146
f 93//150 113//150 115//150
f 96//62 115//62 119//62
f 99//151 119//151 102//151
f 141//155 101//155 105//155
f 144//68 105//68 110//68
f 148//156 110//156 103//156
f 113//157 153//157 155//157
f 114//71 155//71 159//71
f 117//158 159//158 142//158
f 121//161 141//161 145//161
f 124//76 145//76 150//76
f 128//162 150//162 143//162
f 153//163 133//163 135//163
f 154//79 135//79 139//79
f 157//164 139//164 122//164
f 81//167 121//167 125//167
f 84//84 125//84 130//84
f 88//168 130//168 123//168
f 133//169 93//169 97//169
f 134//87 97//87 94//87
f 137//170 94//170 82//170
f 101//89 141//89 121//89
f 153//91 113//91 93//91
usemtl Shell
f 161//173 166//173 165//173
f 164//174 169//174 166//174
f 162//175 169//175 168//175
f 167//176 172//176 169//176
f 163//177 172//177 171//177
f 170//178 166//178 172//178
f 166//179 169//179 172//179
f 173//180 178//180 177//180
f 176//181 181//181 178//181
f 174//182 181//182 180//182
f 179//183 184//183 181//183
f 175//184 184//184 183//184
f 182//185 178//185 184//185
f 178//186 181//186 184//186
f 185//187 190//187 189//187
f 188//188 193//188 190//188
f 186//189 193//189 192//189
f 191//190 196//190 193//190
f 187//191 196//191 195//191
f 194//192 190//192 196//192
f 190//193 193//193 196//193
f 197//194 202//194 201//194
f 200//195 205//195 202//195
f 198//196 205//196 204//196
f 203//197 208//197 205//197
f 199//198 208//198 207//198
f 206//199 202//199 208//199
f 202//200 205//200 208//200
f 209//201 214//201 213//201
f 212//202 217//202 214//202
f 210//203 217//203 216//203
f 215//204 220//204 217//204
f 211//205 220//205 219//205
f 218//206 214//206 220//206
f 214//207 217//207 220//207
f 221//208 226//208 225//208
f 224//209 229//209 226//209
f 222//210 229//210 228//210
f 227//211 232//211 229//211
f 223//212 232//212 231//212
f 230//213 226//213 232//213
f 226//214 229//214 232//214
f 233//215 238//215 237//215
f 236//216 241//216 238//216
f 234//217 241//217 240//217
f 239//218 244//218 241//218
f 235//219 244//219 243//219
f 242//220 238//220 244//220
f 238//221 241//221 244//221
f 245//222 250//222 249//222
f 248//223 253//223 250//223
f 246//224 253//224 252//224
f 251//225 256//225 253//225
f 247//226 256//226 255//226
f 254//227 250//227 256//227
f 250//228 253//228 256//228
f 161//229 201//229 164//229
f 164//230 206//230 168//230
f 168//231 199//231 162//231
f 187//232 207//232 194//232
f 194//71 203//71 189//71
f 189//233 198//233 185//233
f 175//234 195//234 182//234
f 182//235 191//235 177//235
f 177//236 186//236 173//236
f 162//237 183//237 167//237
f 167//68 179//68 171//68
f 171//238 174//238 163//238
f 211//239 252//239 218//239
f 218//240 248//240 213//240
f 213//241 245//241 209//241
f 210//242 225//242 215//242
f 215//84 230//84 219//84
f 219//243 223//243 211//243
f 222//244 237//244 227//244
f 227//245 242//245 231//245
f 231//246 235//246 223//246
f 234//247 255//247 239//247
f 239//87 251//87 243//87
f 243//248 246//248 235//248
f 163//249 216//249 170//249
f 170//250 212//250 165//250
f 165//251 209//251 161//251
f 173//252 228//252 176//252
f 176//253 224//253 180//253
f 180//254 221//254 174//254
f 185//255 240//255 188//255
f 188//256 236//256 192//256
f 192//257 233//257 186//257
f 197//258 249//258 200//258
f 200//259 254//259 204//259
f 204//260 247//260 198//260
f 197//261 209//261 245//261
f 199//262 175//262 162//262
f 163//89 221//89 210//89
f 173//263 233//263 222//263
f 185//91 247//91 234//91
f 211//264 235//264 246//264
f 161//457 164//457 166//457
f 164//458 168//458 169//458
f 162//459 167//459 169//459
f 167//460 171//460 172//460
f 163//461 170//461 172//461
f 170//462 165//462 166//462
f 173//463 176//463 178//463
f 176//464 180//464 181//464
f 174//465 179//465 181//465
f 179//466 183//466 184//466
f 175//467 182//467 184//467
f 182//468 177//468 178//468
f 185//469 188//469 190//469
f 188//470 192//470 193//470
f 186//471 191//471 193//471
f 191//472 195//472 196//472
f 187//473 194//473 196//473
f 194//474 189//474 190//474
f 197//475 200//475 202//475
f 200//476 204//476 205//476
f 198//477 203//477 205//477
f 203//478 207//478 208//478
f 199//479 206//479 208//479
f 206//480 201//480 202//480
f 209//481 212//481 214//481
f 212//482 216//482 217//482
f 210//483 215//483 217//483
f 215//484 219//484 220//484
f 211//485 218//485 220//485
f 218//486 213//486 214//486
f 221//487 224//487 226//487
f 224//488 228//488 229//488
f 222//489 227//489 229//489
f 227//490 231//490 232//490
f 223//491 230//491 232//491
f 230//492 225//492 226//492
f 233//493 236//493 238//493
f 236//494 240//494 241//494
f 234//495 239//495 241//495
f 239//496 243//496 244//496
f 235//497 242//497 244//497
f 242//498 237//498 238//498
f 245//499 248//499 250//499
f 248//500 252//500 253//500
f 246//501 251//501 253//501
f 251//502 255//502 256//502
f 247//503 254//503 256//503
f 254//504 249//504 250//504
f 161//505 197//505 201//505
f 164//506 201//506 206//506
f 168//507 206//507 199//507
f 187//232 199//232 207//232
f 194//71 207//71 203//71
f 189//233 203//233 198//233
f 175//508 187//508 195//508
f 182//509 195//509 191//509
f 177//510 191//510 186//510
f 162//237 175//237 183//237
f 167//68 183//68 179//68
f 171//238 179//238 174//238
f 211//511 246//511 252//511
f 218//512 252//512 248//512
f 213//513 248//513 245//513
f 210//242 221//242 225//242
f 215//84 225//84 230//84
f 219//243 230//243 223//243
f 222//514 233//514 237//514
f 227//515 237//515 242//515
f 231//516 242//516 235//516
f 234//247 247//247 255//247
f 239//87 255//87 251//87
f 243//248 251//248 246//248
f 163//249 210//249 216//249
f 170//250 216//250 212//250
f 165//251 212//251 209//251
f 173//252 222//252 228//252
f 176//253 228//253 224//253
f 180//254 224//254 221//254
f 185//255 234//255 240//255
f 188//256 240//256 236//256
f 192//257 236//257 233//257
f 197//258 245//258 249//258
f 200//259 249//259 254//259
f 204//260 254//260 247//260
f 197//261 161//261 209//261
f 199//262 187//262 175//262
f 163//89 174//89 221//89
f 173//263 186//263 233//263
f 185//91 198//91 247//91
f 211//264 223//264 235//264
usemtl DetailTeal
f 257//265 262//265 261//265
f 260//266 265//266 262//266
f 258//267 265//267 264//267
f 263//268 268//268 265//268
f 259//269 268//269 267//269
f 266//270 262//270 268//270
f 262//271 265//271 268//271
f 269//272 274//272 273//272
f 272//273 277//273 274//273
f 270//274 277//274 276//274
f 275//159 280//159 277//159
f 271//275 280//275 279//275
f 278//276 274//276 280//276
f 274//277 277//277 280//277
f 281//278 286//278 285//278
f 284//149 289//149 286//149
f 282//279 289//279 288//279
f 287//280 292//280 289//280
f 283//281 292//281 291//281
f 290//282 286//282 292//282
f 286//283 289//283 292//283
f 293//284 298//284 297//284
f 296//285 301//285 298//285
f 294//286 301//286 300//286
f 299//287 304//287 301//287
f 295//288 304//288 303//288
f 302//289 298//289 304//289
f 298//28 301//28 304//28
f 305//290 310//290 309//290
f 308//73 313//73 310//73
f 306//291 313//291 312//291
f 311//292 316//292 313//292
f 307//293 316//293 315//293
f 314//294 310//294 316//294
f 310//295 313//295 316//295
f 317//296 322//296 321//296
f 320//297 325//297 322//297
f 318//298 325//298 324//298
f 323//299 328//299 325//299
f 319//300 328//300 327//300
f 326//301 322//301 328//301
f 322//302 325//302 328//302
f 329//303 334//303 333//303
f 332//304 337//304 334//304
f 330//305 337//305 336//305
f 335//306 340//306 337//306
f 331//307 340//307 339//307
f 338//308 334//308 340//308
f 334//309 337//309 340//309
f 341//310 346//310 345//310
f 344//311 349//311 346//311
f 342//312 349//312 348//312
f 347//313 352//313 349//313
f 343//314 352//314 351//314
f 350//315 346//315 352//315
f 346//56 349//56 352//56
f 281//316 261//316 284//316
f 284//58 266//58 288//58
f 288//317 259//317 282//317
f 258//318 273//318 263//318
f 263//319 278//319 267//319
f 267//320 271//320 259//320
f 270//321 297//321 275//321
f 275//62 302//62 279//62
f 279//322 295//322 271//322
f 294//323 291//323 299//323
f 299//324 287//324 303//324
f 303//325 282//325 295//325
f 329//326 285//326 332//326
f 332//68 290//68 336//68
f 336//327 283//327 330//327
f 293//328 345//328 296//328
f 296//71 350//71 300//71
f 300//329 343//329 294//329
f 342//330 339//330 347//330
f 347//331 335//331 351//331
f 351//332 330//332 343//332
f 305//333 333//333 308//333
f 308//76 338//76 312//76
f 312//334 331//334 306//334
f 341//335 321//335 344//335
f 344//79 326//79 348//79
f 348//336 319//336 342//336
f 318//337 315//337 323//337
f 323//338 311//338 327//338
f 327//339 306//339 319//339
f 257//340 309//340 260//340
f 260//84 314//84 264//84
f 264//341 307//341 258//341
f 317//342 276//342 320//342
f 320//87 272//87 324//87
f 324//343 269//343 318//343
f 281//89 305//89 257//89
f 259//344 295//344 282//344
f 307//264 269//264 258//264
f 341//91 270//91 317//91
f 283//262 343//262 330//262
f 331//345 319//345 306//345
f 257//517 260//517 262//517
f 260//518 264//518 265//518
f 258//519 263//519 265//519
f 263//268 267//268 268//268
f 259//520 266//520 268//520
f 266//270 261//270 262//270
f 269//521 272//521 274//521
f 272//522 276//522 277//522
f 270//523 275//523 277//523
f 275//159 279//159 280//159
f 271//524 278//524 280//524
f 278//153 273//153 274//153
f 281//525 284//525 286//525
f 284//149 288//149 289//149
f 282//526 287//526 289//526
f 287//527 291//527 292//527
f 283//528 290//528 292//528
f 290//282 285//282 286//282
f 293//529 296//529 298//529
f 296//530 300//530 301//530
f 294//531 299//531 301//531
f 299//287 303//287 304//287
f 295//532 302//532 304//532
f 302//289 297//289 298//289
f 305//533 308//533 310//533
f 308//73 312//73 313//73
f 306//534 311//534 313//534
f 311//65 315//65 316//65
f 307//535 314//535 316//535
f 314//536 309//536 310//536
f 317//537 320//537 322//537
f 320//538 324//538 325//538
f 318//539 323//539 325//539
f 323//299 327//299 328//299
f 319//540 326//540 328//540
f 326//301 321//301 322//301
f 329//541 332//541 334//541
f 332//542 336//542 337//542
f 330//543 335//543 337//543
f 335//306 339//306 340//306
f 331//544 338//544 340//544
f 338//308 333//308 334//308
f 341//545 344//545 346//545
f 344//311 348//311 349//311
f 342//546 347//546 349//546
f 347//547 351//547 352//547
f 343//548 350//548 352//548
f 350//315 345//315 346//315
f 281//316 257//316 261//316
f 284//58 261//58 266//58
f 288//317 266//317 259//317
f 258//318 269//318 273//318
f 263//319 273//319 278//319
f 267//320 278//320 271//320
f 270//321 293//321 297//321
f 275//62 297//62 302//62
f 279//322 302//322 295//322
f 294//323 283//323 291//323
f 299//324 291//324 287//324
f 303//325 287//325 282//325
f 329//326 281//326 285//326
f 332//68 285//68 290//68
f 336//327 290//327 283//327
f 293//328 341//328 345//328
f 296//71 345//71 350//71
f 300//329 350//329 343//329
f 342//330 331//330 339//330
f 347//331 339//331 335//331
f 351//332 335//332 330//332
f 305//333 329//333 333//333
f 308//76 333//76 338//76
f 312//334 338//334 331//334
f 341//335 317//335 321//335
f 344//79 321//79 326//79
f 348//336 326//336 319//336
f 318//337 307//337 315//337
f 323//338 315//338 311//338
f 327//339 311//339 306//339
f 257//340 305//340 309//340
f 260//84 309//84 314//84
f 264//341 314//341 307//341
f 317//342 270//342 276//342
f 320//87 276//87 272//87
f 324//343 272//343 269//343
f 281//89 329//89 305//89
f 259//344 271//344 295//344
f 307//264 318//264 269//264
f 341//91 293//91 270//91
f 283//262 294//262 343//262
f 331//345 342//345 319//345
usemtl DetailSteel
f 353//346 357//346 359//346
f 354//347 357//347 356//347
f 355//348 357//348 358//348
f 360//349 364//349 366//349
f 361//350 364//350 363//350
f 362//351 364//351 365//351
f 367//352 371//352 373//352
f 368//353 371//353 370//353
f 369//354 371//354 372//354
f 374//355 378//355 380//355
f 375//356 378//356 377//356
f 376//357 378//357 379//357
f 381//358 385//358 387//358
f 382//359 385//359 384//359
f 383//360 385//360 386//360
f 388//361 392//361 394//361
f 389//362 392//362 391//362
f 390//363 392//363 393//363
f 395//364 399//364 401//364
f 396//365 399//365 398//365
f 397//366 399//366 400//366
f 402//367 406//367 408//367
f 403//368 406//368 405//368
f 404//369 406//369 407//369
f 409//370 413//370 415//370
f 410//371 413//371 412//371
f 411//372 413//372 414//372
f 416//373 420//373 422//373
f 417//374 420//374 419//374
f 418//375 420//375 421//375
f 423//376 427//376 429//376
f 424//377 427//377 426//377
f 425//378 427//378 428//378
f 430//379 434//379 436//379
f 431//380 434//380 433//380
f 432//381 434//381 435//381
f 355//382 370//382 359//382
f 359//383 367//383 353//383
f 376//384 363//384 380//384
f 380//385 360//385 374//385
f 354//386 365//386 358//386
f 358//387 361//387 355//387
f 375//388 372//388 379//388
f 379//389 368//389 376//389
f 369//390 384//390 373//390
f 373//391 381//391 367//391
f 390//392 377//392 394//392
f 394//393 374//393 388//393
f 389//394 386//394 393//394
f 393//395 382//395 390//395
f 383//396 398//396 387//396
f 387//397 395//397 381//397
f 404//398 391//398 408//398
f 408//399 388//399 402//399
f 403//400 400//400 407//400
f 407//401 396//401 404//401
f 397//402 412//402 401//402
f 401//403 409//403 395//403
f 418//404 405//404 422//404
f 422//405 402//405 416//405
f 417//406 414//406 421//406
f 421//407 410//407 418//407
f 411//408 426//408 415//408
f 415//409 423//409 409//409
f 432//410 419//410 436//410
f 436//411 416//411 430//411
f 431//412 428//412 435//412
f 435//413 424//413 432//413
f 425//414 356//414 429//414
f 429//415 353//415 423//415
f 362//416 433//416 366//416
f 366//417 430//417 360//417
f 367//89 395//89 423//89
f 355//418 376//418 368//418
f 425//419 362//419 354//419
f 360//91 416//91 388//91
f 369//345 390//345 382//345
f 383//420 404//420 396//420
f 397//421 418//421 410//421
f 411//344 432//344 424//344
f 437//346 441//346 443//346
f 438//347 441//347 440//347
f 439//348 441//348 442//348
f 444//349 448//349 450//349
f 445//350 448//350 447//350
f 446//351 448//351 449//351
f 451//352 455//352 457//352
f 452//353 455//353 454//353
f 453//354 455//354 456//354
f 458//355 462//355 464//355
f 459//356 462//356 461//356
f 460//357 462//357 463//357
f 465//358 469//358 471//358
f 466//359 469//359 468//359
f 467//360 469//360 470//360
f 472//361 476//361 478//361
f 473//362 476//362 475//362
f 474//363 476//363 477//363
f 479//364 483//364 485//364
f 480//365 483//365 482//365
f 481//366 483//366 484//366
f 486//367 490//367 492//367
f 487//368 490//368 489//368
f 488//369 490//369 491//369
f 493//370 497//370 499//370
f 494//371 497//371 496//371
f 495//372 497//372 498//372
f 500//373 504//373 506//373
f 501//374 504//374 503//374
f 502//375 504//375 505//375
f 507//376 511//376 513//376
f 508//377 511//377 510//377
f 509//378 511//378 512//378
f 514//379 518//379 520//379
f 515//380 518//380 517//380
f 516//381 518//381 519//381
f 439//382 454//382 443//382
f 443//383 451//383 437//383
f 460//384 447//384 464//384
f 464//385 444//385 458//385
f 438//386 449//386 442//386
f 442//387 445//387 439//387
f 459//388 456//388 463//388
f 463//389 452//389 460//389
f 453//390 468//390 457//390
f 457//391 465//391 451//391
f 474//392 461//392 478//392
f 478//393 458//393 472//393
f 473//422 470//422 477//422
f 477//395 466//395 474//395
f 467//396 482//396 471//396
f 471//397 479//397 465//397
f 488//398 475//398 492//398
f 492//399 472//399 486//399
f 487//400 484//400 491//400
f 491//401 480//401 488//401
f 481//402 496//402 485//402
f 485//403 493//403 479//403
f 502//404 489//404 506//404
f 506//405 486//405 500//405
f 501//406 498//406 505//406
f 505//407 494//407 502//407
f 495//408 510//408 499//408
f 499//409 507//409 493//409
f 516//410 503//410 520//410
f 520//411 500//411 514//411
f 515//423 512//423 519//423
f 519//413 508//413 516//413
f 509//414 440//414 513//414
f 513//415 437//415 507//415
f 446//416 517//416 450//416
f 450//417 514//417 444//417
f 451//89 479//89 507//89
f 439//418 460//418 452//418
f 509//419 446//419 438//419
f 444//91 500//91 472//91
f 453//345 474//345 466//345
f 467//420 488//420 480//420
f 481//421 502//421 494//421
f 495//344 516//344 508//344
f 353//549 356//549 357//549
f 354//550 358//550 357//550
f 355//551 359//551 357//551
f 360//552 363//552 364//552
f 361//553 365//553 364//553
f 362//554 366//554 364//554
f 367//555 370//555 371//555
f 368//556 372//556 371//556
f 369//557 373//557 371//557
f 374//558 377//558 378//558
f 375//559 379//559 378//559
f 376//560 380//560 378//560
f 381//561 384//561 385//561
f 382//562 386//562 385//562
f 383//563 387//563 385//563
f 388//564 391//564 392//564
f 389//565 393//565 392//565
f 390//566 394//566 392//566
f 395//567 398//567 399//567
f 396//568 400//568 399//568
f 397//569 401//569 399//569
f 402//570 405//570 406//570
f 403//571 407//571 406//571
f 404//572 408//572 406//572
f 409//573 412//573 413//573
f 410//574 414//574 413//574
f 411//575 415//575 413//575
f 416//576 419//576 420//576
f 417//577 421//577 420//577
f 418//578 422//578 420//578
f 423//579 426//579 427//579
f 424//580 428//580 427//580
f 425//581 429//581 427//581
f 430//582 433//582 434//582
f 431//583 435//583 434//583
f 432//584 436//584 434//584
f 355//585 368//585 370//585
f 359//586 370//586 367//586
f 376//587 361//587 363//587
f 380//588 363//588 360//588
f 354//386 362//386 365//386
f 358//387 365//387 361//387
f 375//388 369//388 372//388
f 379//389 372//389 368//389
f 369//390 382//390 384//390
f 373//391 384//391 381//391
f 390//392 375//392 377//392
f 394//393 377//393 374//393
f 389//394 383//394 386//394
f 393//395 386//395 382//395
f 383//589 396//589 398//589
f 387//590 398//590 395//590
f 404//591 389//591 391//591
f 408//592 391//592 388//592
f 403//400 397//400 400//400
f 407//401 400//401 396//401
f 397//593 410//593 412//593
f 401//594 412//594 409//594
f 418//595 403//595 405//595
f 422//596 405//596 402//596
f 417//406 411//406 414//406
f 421//597 414//597 410//597
f 411//408 424//408 426//408
f 415//409 426//409 423//409
f 432//410 417//410 419//410
f 436//411 419//411 416//411
f 431//423 425//423 428//423
f 435//413 428//413 424//413
f 425//598 354//598 356//598
f 429//599 356//599 353//599
f 362//600 431//600 433//600
f 366//601 433//601 430//601
f 423//89 353//89 367//89
f 367//89 381//89 395//89
f 395//89 409//89 423//89
f 355//418 361//418 376//418
f 425//419 431//419 362//419
f 388//91 374//91 360//91
f 360//91 430//91 416//91
f 416//91 402//91 388//91
f 369//345 375//345 390//345
f 383//420 389//420 404//420
f 397//421 403//421 418//421
f 411//344 417//344 432//344
f 437//549 440//549 441//549
f 438//550 442//550 441//550
f 439//551 443//551 441//551
f 444//552 447//552 448//552
f 445//553 449//553 448//553
f 446//554 450//554 448//554
f 451//555 454//555 455//555
f 452//556 456//556 455//556
f 453//557 457//557 455//557
f 458//558 461//558 462//558
f 459//559 463//559 462//559
f 460//560 464//560 462//560
f 465//561 468//561 469//561
f 466//562 470//562 469//562
f 467//563 471//563 469//563
f 472//564 475//564 476//564
f 473//565 477//565 476//565
f 474//566 478//566 476//566
f 479//567 482//567 483//567
f 480//568 484//568 483//568
f 481//569 485//569 483//569
f 486//570 489//570 490//570
f 487//571 491//571 490//571
f 488//572 492//572 490//572
f 493//573 496//573 497//573
f 494//574 498//574 497//574
f 495//575 499//575 497//575
f 500//576 503//576 504//576
f 501//577 505//577 504//577
f 502//578 506//578 504//578
f 507//579 510//579 511//579
f 508//580 512//580 511//580
f 509//581 513//581 511//581
f 514//582 517//582 518//582
f 515//583 519//583 518//583
f 516//584 520//584 518//584
f 439//585 452//585 454//585
f 443//586 454//586 451//586
f 460//587 445//587 447//587
f 464//588 447//588 444//588
f 438//386 446//386 449//386
f 442//387 449//387 445//387
f 459//388 453//388 456//388
f 463//602 456//602 452//602
f 453//390 466//390 468//390
f 457//391 468//391 465//391
f 474//392 459//392 461//392
f 478//393 461//393 458//393
f 473//394 467//394 470//394
f 477//395 470//395 466//395
f 467//589 480//589 482//589
f 471//590 482//590 479//590
f 488//591 473//591 475//591
f 492//592 475//592 472//592
f 487//400 481//400 484//400
f 491//401 484//401 480//401
f 481//593 494//593 496//593
f 485//594 496//594 493//594
f 502//595 487//595 489//595
f 506//596 489//596 486//596
f 501//406 495//406 498//406
f 505//407 498//407 494//407
f 495//408 508//408 510//408
f 499//409 510//409 507//409
f 516//410 501//410 503//410
f 520//411 503//411 500//411
f 515//423 509//423 512//423
f 519//413 512//413 508//413
f 509//598 438//598 440//598
f 513//599 440//599 437//599
f 446//600 515//600 517//600
f 450//601 517//601 514//601
f 507//89 437//89 451//89
f 451//89 465//89 479//89
f 479//89 493//89 507//89
f 439//418 445//418 460//418
f 509//419 515//419 446//419
f 472//91 458//91 444//91
f 444//91 514//91 500//91
f 500//91 486//91 472//91
f 453//345 459//345 474//345
f 467//420 473//420 488//420
f 481//421 487//421 502//421
f 495//344 501//344 516//344
