# Blender 5.2.1 LTS
# www.blender.org
mtllib modular_forearm_frame.mtl
o modular_forearm_frame
v -0.019750 -0.075000 0.009200
v -0.019750 -0.073000 0.011200
v -0.021750 -0.073000 0.009200
v -0.019750 -0.074733 0.010199
v -0.020749 -0.074733 0.009200
v -0.020706 -0.074473 0.010156
v -0.020749 -0.073000 0.010933
v -0.019750 -0.073999 0.010933
v -0.020706 -0.073956 0.010673
v -0.021483 -0.073999 0.009200
v -0.021483 -0.073000 0.010199
v -0.021223 -0.073956 0.010156
v -0.019750 0.073000 0.011200
v -0.019750 0.075000 0.009200
v -0.021750 0.073000 0.009200
v -0.019750 0.073999 0.010933
v -0.020749 0.073000 0.010933
v -0.020706 0.073956 0.010673
v -0.020749 0.074733 0.009200
v -0.019750 0.074733 0.010199
v -0.020706 0.074473 0.010156
v -0.021483 0.073000 0.010199
v -0.021483 0.073999 0.009200
v -0.021223 0.073956 0.010156
v -0.019750 -0.075000 -0.009200
v -0.021750 -0.073000 -0.009200
v -0.019750 -0.073000 -0.011200
v -0.020749 -0.074733 -0.009200
v -0.019750 -0.074733 -0.010199
v -0.020706 -0.074473 -0.010156
v -0.021483 -0.073000 -0.010199
v -0.021483 -0.073999 -0.009200
v -0.021223 -0.073956 -0.010156
v -0.019750 -0.073999 -0.010933
v -0.020749 -0.073000 -0.010933
v -0.020706 -0.073956 -0.010673
v -0.019750 0.075000 -0.009200
v -0.019750 0.073000 -0.011200
v -0.021750 0.073000 -0.009200
v -0.019750 0.074733 -0.010199
v -0.020749 0.074733 -0.009200
v -0.020706 0.074473 -0.010156
v -0.020749 0.073000 -0.010933
v -0.019750 0.073999 -0.010933
v -0.020706 0.073956 -0.010673
v -0.021483 0.073999 -0.009200
v -0.021483 0.073000 -0.010199
v -0.021223 0.073956 -0.010156
v -0.012250 -0.075000 0.009200
v -0.010250 -0.073000 0.009200
v -0.012250 -0.073000 0.011200
v -0.011251 -0.074733 0.009200
v -0.012250 -0.074733 0.010199
v -0.011294 -0.074473 0.010156
v -0.010517 -0.073000 0.010199
v -0.010517 -0.073999 0.009200
v -0.010777 -0.073956 0.010156
v -0.012250 -0.073999 0.010933
v -0.011251 -0.073000 0.010933
v -0.011294 -0.073956 0.010673
v -0.012250 0.075000 0.009200
v -0.012250 0.073000 0.011200
v -0.010250 0.073000 0.009200
v -0.012250 0.074733 0.010199
v -0.011251 0.074733 0.009200
v -0.011294 0.074473 0.010156
v -0.011251 0.073000 0.010933
v -0.012250 0.073999 0.010933
v -0.011294 0.073956 0.010673
v -0.010517 0.073999 0.009200
v -0.010517 0.073000 0.010199
v -0.010777 0.073956 0.010156
v -0.012250 -0.075000 -0.009200
v -0.012250 -0.073000 -0.011200
v -0.010250 -0.073000 -0.009200
v -0.012250 -0.074733 -0.010199
v -0.011251 -0.074733 -0.009200
v -0.011294 -0.074473 -0.010156
v -0.011251 -0.073000 -0.010933
v -0.012250 -0.073999 -0.010933
v -0.011294 -0.073956 -0.010673
v -0.010517 -0.073999 -0.009200
v -0.010517 -0.073000 -0.010199
v -0.010777 -0.073956 -0.010156
v -0.012250 0.075000 -0.009200
v -0.010250 0.073000 -0.009200
v -0.012250 0.073000 -0.011200
v -0.011251 0.074733 -0.009200
v -0.012250 0.074733 -0.010199
v -0.011294 0.074473 -0.010156
v -0.010517 0.073000 -0.010199
v -0.010517 0.073999 -0.009200
v -0.010777 0.073956 -0.010156
v -0.012250 0.073999 -0.010933
v -0.011251 0.073000 -0.010933
v -0.011294 0.073956 -0.010673
v -0.013573 -0.040763 0.011200
v -0.013000 -0.039000 0.011200
v -0.013147 -0.039927 0.011200
v -0.013147 -0.038073 0.011200
v -0.013573 -0.037237 0.011200
v -0.019000 -0.039000 0.011200
v -0.018853 -0.039927 0.011200
v -0.018853 -0.038073 0.011200
v -0.017763 -0.036573 0.011200
v -0.017763 -0.041427 0.011200
v -0.018427 -0.037237 0.011200
v -0.018427 -0.040763 0.011200
v -0.016000 -0.042000 0.011200
v -0.016000 -0.036000 0.011200
v -0.014237 -0.041427 0.011200
v -0.014237 -0.036573 0.011200
v -0.015073 -0.041853 0.011200
v -0.015073 -0.036147 0.011200
v -0.016927 -0.041853 0.011200
v -0.016927 -0.036147 0.011200
v -0.019000 -0.039000 -0.011200
v -0.018853 -0.039927 -0.011200
v -0.018853 -0.038073 -0.011200
v -0.018427 -0.040763 -0.011200
v -0.018427 -0.037237 -0.011200
v -0.017763 -0.041427 -0.011200
v -0.017763 -0.036573 -0.011200
v -0.016000 -0.042000 -0.011200
v -0.016000 -0.036000 -0.011200
v -0.016927 -0.041853 -0.011200
v -0.016927 -0.036147 -0.011200
v -0.014237 -0.041427 -0.011200
v -0.014237 -0.036573 -0.011200
v -0.013000 -0.039000 -0.011200
v -0.013147 -0.039927 -0.011200
v -0.013147 -0.038073 -0.011200
v -0.013573 -0.040763 -0.011200
v -0.013573 -0.037237 -0.011200
v -0.015073 -0.036147 -0.011200
v -0.015073 -0.041853 -0.011200
v -0.019000 0.000000 0.011200
v -0.018427 -0.001763 0.011200
v -0.018853 -0.000927 0.011200
v -0.018853 0.000927 0.011200
v -0.018427 0.001763 0.011200
v -0.017763 -0.002427 0.011200
v -0.016927 0.002853 0.011200
v -0.016927 -0.002853 0.011200
v -0.017763 0.002427 0.011200
v -0.013000 0.000000 0.011200
v -0.013573 -0.001763 0.011200
v -0.013147 0.000927 0.011200
v -0.013147 -0.000927 0.011200
v -0.016000 0.003000 0.011200
v -0.013573 0.001763 0.011200
v -0.014237 0.002427 0.011200
v -0.014237 -0.002427 0.011200
v -0.016000 -0.003000 0.011200
v -0.015503 -0.002921 0.011200
v -0.015073 0.002853 0.011200
v -0.015073 -0.002853 0.011200
v -0.014237 -0.002427 -0.011200
v -0.014237 0.002427 -0.011200
v -0.015073 -0.002853 -0.011200
v -0.015073 0.002853 -0.011200
v -0.013000 0.000000 -0.011200
v -0.013147 0.000927 -0.011200
v -0.013573 -0.001763 -0.011200
v -0.013147 -0.000927 -0.011200
v -0.013573 0.001763 -0.011200
v -0.019000 0.000000 -0.011200
v -0.018853 0.000927 -0.011200
v -0.018427 -0.001763 -0.011200
v -0.018853 -0.000927 -0.011200
v -0.016000 0.003000 -0.011200
v -0.018427 0.001763 -0.011200
v -0.017763 0.002427 -0.011200
v -0.017763 -0.002427 -0.011200
v -0.016497 -0.002921 -0.011200
v -0.016000 -0.003000 -0.011200
v -0.016927 -0.002853 -0.011200
v -0.016927 0.002853 -0.011200
v -0.016278 0.041956 0.011200
v -0.016000 0.042000 0.011200
v -0.015073 0.036147 0.011200
v -0.015073 0.041853 0.011200
v -0.016000 0.036000 0.011200
v -0.013573 0.037237 0.011200
v -0.013573 0.040763 0.011200
v -0.013000 0.039000 0.011200
v -0.013147 0.038073 0.011200
v -0.013147 0.039927 0.011200
v -0.014237 0.041427 0.011200
v -0.014237 0.036573 0.011200
v -0.016927 0.041853 0.011200
v -0.019000 0.039000 0.011200
v -0.018853 0.038073 0.011200
v -0.018853 0.039927 0.011200
v -0.016927 0.036147 0.011200
v -0.017763 0.036573 0.011200
v -0.017763 0.041427 0.011200
v -0.018427 0.037237 0.011200
v -0.018427 0.040763 0.011200
v -0.019000 0.039000 -0.011200
v -0.018853 0.038073 -0.011200
v -0.018427 0.037237 -0.011200
v -0.018427 0.040763 -0.011200
v -0.018853 0.039927 -0.011200
v -0.016927 0.041853 -0.011200
v -0.015722 0.041956 -0.011200
v -0.016000 0.036000 -0.011200
v -0.016000 0.042000 -0.011200
v -0.016927 0.036147 -0.011200
v -0.017763 0.036573 -0.011200
v -0.017763 0.041427 -0.011200
v -0.015073 0.041853 -0.011200
v -0.013147 0.038073 -0.011200
v -0.013000 0.039000 -0.011200
v -0.013147 0.039927 -0.011200
v -0.015073 0.036147 -0.011200
v -0.014237 0.041427 -0.011200
v -0.014237 0.036573 -0.011200
v -0.013573 0.037237 -0.011200
v -0.013573 0.040763 -0.011200
v 0.012250 -0.075000 0.009200
v 0.012250 -0.073000 0.011200
v 0.010250 -0.073000 0.009200
v 0.012250 -0.074733 0.010199
v 0.011251 -0.074733 0.009200
v 0.011294 -0.074473 0.010156
v 0.011251 -0.073000 0.010933
v 0.012250 -0.073999 0.010933
v 0.011294 -0.073956 0.010673
v 0.010517 -0.073999 0.009200
v 0.010517 -0.073000 0.010199
v 0.010777 -0.073956 0.010156
v 0.012250 0.073000 0.011200
v 0.012250 0.075000 0.009200
v 0.010250 0.073000 0.009200
v 0.012250 0.073999 0.010933
v 0.011251 0.073000 0.010933
v 0.011294 0.073956 0.010673
v 0.011251 0.074733 0.009200
v 0.012250 0.074733 0.010199
v 0.011294 0.074473 0.010156
v 0.010517 0.073000 0.010199
v 0.010517 0.073999 0.009200
v 0.010777 0.073956 0.010156
v 0.012250 -0.075000 -0.009200
v 0.010250 -0.073000 -0.009200
v 0.012250 -0.073000 -0.011200
v 0.011251 -0.074733 -0.009200
v 0.012250 -0.074733 -0.010199
v 0.011294 -0.074473 -0.010156
v 0.010517 -0.073000 -0.010199
v 0.010517 -0.073999 -0.009200
v 0.010777 -0.073956 -0.010156
v 0.012250 -0.073999 -0.010933
v 0.011251 -0.073000 -0.010933
v 0.011294 -0.073956 -0.010673
v 0.012250 0.075000 -0.009200
v 0.012250 0.073000 -0.011200
v 0.010250 0.073000 -0.009200
v 0.012250 0.074733 -0.010199
v 0.011251 0.074733 -0.009200
v 0.011294 0.074473 -0.010156
v 0.011251 0.073000 -0.010933
v 0.012250 0.073999 -0.010933
v 0.011294 0.073956 -0.010673
v 0.010517 0.073999 -0.009200
v 0.010517 0.073000 -0.010199
v 0.010777 0.073956 -0.010156
v 0.019750 -0.075000 0.009200
v 0.021750 -0.073000 0.009200
v 0.019750 -0.073000 0.011200
v 0.020749 -0.074733 0.009200
v 0.019750 -0.074733 0.010199
v 0.020706 -0.074473 0.010156
v 0.021483 -0.073000 0.010199
v 0.021483 -0.073999 0.009200
v 0.021223 -0.073956 0.010156
v 0.019750 -0.073999 0.010933
v 0.020749 -0.073000 0.010933
v 0.020706 -0.073956 0.010673
v 0.019750 0.075000 0.009200
v 0.019750 0.073000 0.011200
v 0.021750 0.073000 0.009200
v 0.019750 0.074733 0.010199
v 0.020749 0.074733 0.009200
v 0.020706 0.074473 0.010156
v 0.020749 0.073000 0.010933
v 0.019750 0.073999 0.010933
v 0.020706 0.073956 0.010673
v 0.021483 0.073999 0.009200
v 0.021483 0.073000 0.010199
v 0.021223 0.073956 0.010156
v 0.019750 -0.075000 -0.009200
v 0.019750 -0.073000 -0.011200
v 0.021750 -0.073000 -0.009200
v 0.019750 -0.074733 -0.010199
v 0.020749 -0.074733 -0.009200
v 0.020706 -0.074473 -0.010156
v 0.020749 -0.073000 -0.010933
v 0.019750 -0.073999 -0.010933
v 0.020706 -0.073956 -0.010673
v 0.021483 -0.073999 -0.009200
v 0.021483 -0.073000 -0.010199
v 0.021223 -0.073956 -0.010156
v 0.019750 0.075000 -0.009200
v 0.021750 0.073000 -0.009200
v 0.019750 0.073000 -0.011200
v 0.020749 0.074733 -0.009200
v 0.019750 0.074733 -0.010199
v 0.020706 0.074473 -0.010156
v 0.021483 0.073000 -0.010199
v 0.021483 0.073999 -0.009200
v 0.021223 0.073956 -0.010156
v 0.019750 0.073999 -0.010933
v 0.020749 0.073000 -0.010933
v 0.020706 0.073956 -0.010673
v 0.018427 -0.040763 0.011200
v 0.019000 -0.039000 0.011200
v 0.018853 -0.039927 0.011200
v 0.018853 -0.038073 0.011200
v 0.018427 -0.037237 0.011200
v 0.013000 -0.039000 0.011200
v 0.013147 -0.039927 0.011200
v 0.013147 -0.038073 0.011200
v 0.014237 -0.036573 0.011200
v 0.014237 -0.041427 0.011200
v 0.013573 -0.037237 0.011200
v 0.013573 -0.040763 0.011200
v 0.016000 -0.042000 0.011200
v 0.016278 -0.041956 0.011200
v 0.016000 -0.036000 0.011200
v 0.017763 -0.041427 0.011200
v 0.017763 -0.036573 0.011200
v 0.016927 -0.041853 0.011200
v 0.016927 -0.036147 0.011200
v 0.015073 -0.041853 0.011200
v 0.015073 -0.036147 0.011200
v 0.013000 -0.039000 -0.011200
v 0.013147 -0.039927 -0.011200
v 0.013147 -0.038073 -0.011200
v 0.013573 -0.040763 -0.011200
v 0.013573 -0.037237 -0.011200
v 0.014237 -0.041427 -0.011200
v 0.014237 -0.036573 -0.011200
v 0.016000 -0.042000 -0.011200
v 0.015722 -0.041956 -0.011200
v 0.016000 -0.036000 -0.011200
v 0.015073 -0.041853 -0.011200
v 0.015073 -0.036147 -0.011200
v 0.017763 -0.041427 -0.011200
v 0.017763 -0.036573 -0.011200
v 0.019000 -0.039000 -0.011200
v 0.018853 -0.039927 -0.011200
v 0.018853 -0.038073 -0.011200
v 0.018427 -0.040763 -0.011200
v 0.018427 -0.037237 -0.011200
v 0.016927 -0.036147 -0.011200
v 0.016927 -0.041853 -0.011200
v 0.013000 0.000000 0.011200
v 0.013573 -0.001763 0.011200
v 0.013147 -0.000927 0.011200
v 0.013147 0.000927 0.011200
v 0.013573 0.001763 0.011200
v 0.014237 -0.002427 0.011200
v 0.015073 0.002853 0.011200
v 0.015073 -0.002853 0.011200
v 0.014237 0.002427 0.011200
v 0.019000 0.000000 0.011200
v 0.018427 -0.001763 0.011200
v 0.018853 0.000927 0.011200
v 0.018853 -0.000927 0.011200
v 0.016000 0.003000 0.011200
v 0.018427 0.001763 0.011200
v 0.017763 0.002427 0.011200
v 0.017763 -0.002427 0.011200
v 0.016000 -0.003000 0.011200
v 0.016497 -0.002921 0.011200
v 0.016927 0.002853 0.011200
v 0.016927 -0.002853 0.011200
v 0.017763 -0.002427 -0.011200
v 0.017763 0.002427 -0.011200
v 0.016927 -0.002853 -0.011200
v 0.016927 0.002853 -0.011200
v 0.019000 0.000000 -0.011200
v 0.018853 0.000927 -0.011200
v 0.018427 -0.001763 -0.011200
v 0.018853 -0.000927 -0.011200
v 0.018427 0.001763 -0.011200
v 0.013000 0.000000 -0.011200
v 0.013147 0.000927 -0.011200
v 0.013573 -0.001763 -0.011200
v 0.013147 -0.000927 -0.011200
v 0.016000 0.003000 -0.011200
v 0.013573 0.001763 -0.011200
v 0.014237 0.002427 -0.011200
v 0.014237 -0.002427 -0.011200
v 0.015503 -0.002921 -0.011200
v 0.016000 -0.003000 -0.011200
v 0.015073 -0.002853 -0.011200
v 0.015073 0.002853 -0.011200
v 0.015722 0.041956 0.011200
v 0.016000 0.042000 0.011200
v 0.016927 0.036147 0.011200
v 0.016927 0.041853 0.011200
v 0.016000 0.036000 0.011200
v 0.018427 0.037237 0.011200
v 0.018427 0.040763 0.011200
v 0.019000 0.039000 0.011200
v 0.018853 0.038073 0.011200
v 0.018853 0.039927 0.011200
v 0.017763 0.041427 0.011200
v 0.017763 0.036573 0.011200
v 0.015073 0.041853 0.011200
v 0.013000 0.039000 0.011200
v 0.013147 0.038073 0.011200
v 0.013147 0.039927 0.011200
v 0.015073 0.036147 0.011200
v 0.014237 0.036573 0.011200
v 0.014237 0.041427 0.011200
v 0.013573 0.037237 0.011200
v 0.013573 0.040763 0.011200
v 0.013000 0.039000 -0.011200
v 0.013147 0.038073 -0.011200
v 0.013573 0.037237 -0.011200
v 0.013573 0.040763 -0.011200
v 0.013147 0.039927 -0.011200
v 0.015073 0.041853 -0.011200
v 0.016278 0.041956 -0.011200
v 0.016000 0.036000 -0.011200
v 0.016000 0.042000 -0.011200
v 0.015073 0.036147 -0.011200
v 0.014237 0.036573 -0.011200
v 0.014237 0.041427 -0.011200
v 0.016927 0.041853 -0.011200
v 0.018853 0.038073 -0.011200
v 0.019000 0.039000 -0.011200
v 0.018853 0.039927 -0.011200
v 0.016927 0.036147 -0.011200
v 0.017763 0.041427 -0.011200
v 0.017763 0.036573 -0.011200
v 0.018427 0.037237 -0.011200
v 0.018427 0.040763 -0.011200
v -0.014282 -0.042272 0.021280
v -0.007761 -0.042250 0.014780
v -0.007250 -0.048750 0.021280
v -0.013407 -0.042265 0.018034
v -0.013151 -0.045511 0.021280
v -0.012313 -0.045367 0.018172
v -0.007502 -0.045492 0.015648
v -0.011014 -0.042257 0.015648
v -0.010628 -0.045361 0.016492
v -0.010570 -0.047889 0.021280
v -0.007315 -0.047878 0.018034
v -0.010496 -0.047041 0.018172
v 0.014282 -0.042272 0.021280
v 0.007250 -0.048750 0.021280
v 0.007761 -0.042250 0.014780
v 0.013151 -0.045511 0.021280
v 0.013407 -0.042265 0.018034
v 0.012313 -0.045367 0.018172
v 0.007315 -0.047878 0.018034
v 0.010570 -0.047889 0.021280
v 0.010496 -0.047041 0.018172
v 0.011014 -0.042257 0.015648
v 0.007502 -0.045492 0.015648
v 0.010628 -0.045361 0.016492
v 0.015250 0.048750 0.021280
v 0.021218 0.042272 0.021280
v 0.014695 0.042250 0.014780
v 0.018429 0.047889 0.021280
v 0.015172 0.047878 0.018034
v 0.018215 0.047041 0.018172
v 0.020343 0.042265 0.018034
v 0.020620 0.045511 0.021280
v 0.019758 0.045367 0.018172
v 0.014968 0.045492 0.015648
v 0.017948 0.042257 0.015648
v 0.018072 0.045361 0.016492
v -0.021218 0.042272 0.021280
v -0.015250 0.048750 0.021280
v -0.014695 0.042250 0.014780
v -0.020620 0.045511 0.021280
v -0.020343 0.042265 0.018034
v -0.019758 0.045367 0.018172
v -0.015172 0.047878 0.018034
v -0.018429 0.047889 0.021280
v -0.018215 0.047041 0.018172
v -0.017948 0.042257 0.015648
v -0.014968 0.045492 0.015648
v -0.018072 0.045361 0.016492
v -0.007761 -0.042250 0.027780
v -0.013407 -0.042265 0.024526
v -0.012313 -0.045367 0.024388
v -0.007315 -0.047878 0.024526
v -0.010496 -0.047041 0.024388
v -0.011014 -0.042257 0.026912
v -0.007502 -0.045492 0.026912
v -0.010628 -0.045361 0.026068
v 0.007761 -0.042250 0.027780
v 0.007315 -0.047878 0.024526
v 0.010496 -0.047041 0.024388
v 0.013407 -0.042265 0.024526
v 0.012313 -0.045367 0.024388
v 0.007502 -0.045492 0.026912
v 0.011014 -0.042257 0.026912
v 0.010628 -0.045361 0.026068
v 0.014695 0.042250 0.027780
v 0.020343 0.042265 0.024526
v 0.019758 0.045367 0.024388
v 0.015172 0.047878 0.024526
v 0.018215 0.047041 0.024388
v 0.017948 0.042257 0.026912
v 0.014968 0.045492 0.026912
v 0.018072 0.045361 0.026068
v -0.014695 0.042250 0.027780
v -0.020343 0.042265 0.024526
v -0.016278 -0.041956 -0.011200
v -0.019758 0.045367 0.024388
v -0.014968 0.045492 0.026912
v -0.017948 0.042257 0.026912
v -0.018072 0.045361 0.026068
v -0.015722 -0.041956 0.011200
v -0.015172 0.047878 0.024526
v -0.018215 0.047041 0.024388
v -0.002750 -0.034500 0.030000
v -0.002750 -0.033500 0.031000
v -0.003750 -0.033500 0.030000
v -0.002750 -0.034366 0.030499
v -0.003249 -0.034366 0.030000
v -0.003228 -0.034237 0.030478
v -0.003249 -0.033500 0.030866
v -0.002750 -0.033999 0.030866
v -0.003228 -0.033978 0.030737
v -0.003616 -0.033999 0.030000
v -0.003616 -0.033500 0.030499
v -0.003487 -0.033978 0.030478
v -0.002750 0.033500 0.031000
v -0.002750 0.034500 0.030000
v -0.003750 0.033500 0.030000
v -0.002750 0.033999 0.030866
v -0.003249 0.033500 0.030866
v -0.003228 0.033978 0.030737
v -0.003249 0.034366 0.030000
v -0.002750 0.034366 0.030499
v -0.003228 0.034237 0.030478
v -0.003616 0.033500 0.030499
v -0.003616 0.033999 0.030000
v -0.003487 0.033978 0.030478
v -0.002750 -0.034500 0.026000
v -0.003750 -0.033500 0.026000
v -0.002750 -0.033500 0.025000
v -0.003249 -0.034366 0.026000
v -0.002750 -0.034366 0.025501
v -0.003228 -0.034237 0.025522
v -0.003616 -0.033500 0.025501
v -0.003616 -0.033999 0.026000
v -0.003487 -0.033978 0.025522
v -0.002750 -0.033999 0.025134
v -0.003249 -0.033500 0.025134
v -0.003228 -0.033978 0.025263
v -0.002750 0.034500 0.026000
v -0.002750 0.033500 0.025000
v -0.003750 0.033500 0.026000
v -0.002750 0.034366 0.025501
v -0.003249 0.034366 0.026000
v -0.003228 0.034237 0.025522
v -0.003249 0.033500 0.025134
v -0.002750 0.033999 0.025134
v -0.003228 0.033978 0.025263
v -0.003616 0.033999 0.026000
v -0.003616 0.033500 0.025501
v -0.003487 0.033978 0.025522
v 0.002750 -0.034500 0.030000
v 0.003750 -0.033500 0.030000
v 0.002750 -0.033500 0.031000
v 0.003249 -0.034366 0.030000
v 0.002750 -0.034366 0.030499
v 0.003228 -0.034237 0.030478
v 0.003616 -0.033500 0.030499
v 0.003616 -0.033999 0.030000
v 0.003487 -0.033978 0.030478
v 0.002750 -0.033999 0.030866
v 0.003249 -0.033500 0.030866
v 0.003228 -0.033978 0.030737
v 0.002750 0.034500 0.030000
v 0.002750 0.033500 0.031000
v 0.003750 0.033500 0.030000
v 0.002750 0.034366 0.030499
v 0.003249 0.034366 0.030000
v 0.003228 0.034237 0.030478
v 0.003249 0.033500 0.030866
v 0.002750 0.033999 0.030866
v 0.003228 0.033978 0.030737
v 0.003616 0.033999 0.030000
v 0.003616 0.033500 0.030499
v 0.003487 0.033978 0.030478
v 0.002750 -0.034500 0.026000
v 0.002750 -0.033500 0.025000
v 0.003750 -0.033500 0.026000
v 0.002750 -0.034366 0.025501
v 0.003249 -0.034366 0.026000
v 0.003228 -0.034237 0.025522
v 0.003249 -0.033500 0.025134
v 0.002750 -0.033999 0.025134
v 0.003228 -0.033978 0.025263
v 0.003616 -0.033999 0.026000
v 0.003616 -0.033500 0.025501
v 0.003487 -0.033978 0.025522
v 0.002750 0.034500 0.026000
v 0.003750 0.033500 0.026000
v 0.002750 0.033500 0.025000
v 0.003249 0.034366 0.026000
v 0.002750 0.034366 0.025501
v 0.003228 0.034237 0.025522
v 0.003616 0.033500 0.025501
v 0.003616 0.033999 0.026000
v 0.003487 0.033978 0.025522
v 0.002750 0.033999 0.025134
v 0.003249 0.033500 0.025134
v 0.003228 0.033978 0.025263
v -0.008000 -0.052500 -0.009000
v -0.008000 -0.050500 -0.007000
v -0.010000 -0.050500 -0.009000
v -0.008000 -0.052233 -0.008001
v -0.008999 -0.052233 -0.009000
v -0.008956 -0.051973 -0.008044
v -0.008999 -0.050500 -0.007267
v -0.008000 -0.051499 -0.007267
v -0.008956 -0.051456 -0.007527
v -0.009733 -0.051499 -0.009000
v -0.009733 -0.050500 -0.008001
v -0.009473 -0.051456 -0.008044
v -0.008000 0.050500 -0.007000
v -0.008000 0.052500 -0.009000
v -0.010000 0.050500 -0.009000
v -0.008000 0.051499 -0.007267
v -0.008999 0.050500 -0.007267
v -0.008956 0.051456 -0.007527
v -0.008999 0.052233 -0.009000
v -0.008000 0.052233 -0.008001
v -0.008956 0.051973 -0.008044
v -0.009733 0.050500 -0.008001
v -0.009733 0.051499 -0.009000
v -0.009473 0.051456 -0.008044
v -0.008000 -0.052500 -0.019000
v -0.010000 -0.050500 -0.019000
v -0.008000 -0.050500 -0.021000
v -0.008999 -0.052233 -0.019000
v -0.008000 -0.052233 -0.019999
v -0.008956 -0.051973 -0.019956
v -0.009733 -0.050500 -0.019999
v -0.009733 -0.051499 -0.019000
v -0.009473 -0.051456 -0.019956
v -0.008000 -0.051499 -0.020733
v -0.008999 -0.050500 -0.020733
v -0.008956 -0.051456 -0.020473
v -0.008000 0.052500 -0.019000
v -0.008000 0.050500 -0.021000
v -0.010000 0.050500 -0.019000
v -0.008000 0.052233 -0.019999
v -0.008999 0.052233 -0.019000
v -0.008956 0.051973 -0.019956
v -0.008999 0.050500 -0.020733
v -0.008000 0.051499 -0.020733
v -0.008956 0.051456 -0.020473
v -0.009733 0.051499 -0.019000
v -0.009733 0.050500 -0.019999
v -0.009473 0.051456 -0.019956
v 0.008000 -0.052500 -0.009000
v 0.010000 -0.050500 -0.009000
v 0.008000 -0.050500 -0.007000
v 0.008999 -0.052233 -0.009000
v 0.008000 -0.052233 -0.008001
v 0.008956 -0.051973 -0.008044
v 0.009733 -0.050500 -0.008001
v 0.009733 -0.051499 -0.009000
v 0.009473 -0.051456 -0.008044
v 0.008000 -0.051499 -0.007267
v 0.008999 -0.050500 -0.007267
v 0.008956 -0.051456 -0.007527
v 0.008000 0.052500 -0.009000
v 0.008000 0.050500 -0.007000
v 0.010000 0.050500 -0.009000
v 0.008000 0.052233 -0.008001
v 0.008999 0.052233 -0.009000
v 0.008956 0.051973 -0.008044
v 0.008999 0.050500 -0.007267
v 0.008000 0.051499 -0.007267
v 0.008956 0.051456 -0.007527
v 0.009733 0.051499 -0.009000
v 0.009733 0.050500 -0.008001
v 0.009473 0.051456 -0.008044
v 0.008000 -0.052500 -0.019000
v 0.008000 -0.050500 -0.021000
v 0.010000 -0.050500 -0.019000
v 0.008000 -0.052233 -0.019999
v 0.008999 -0.052233 -0.019000
v 0.008956 -0.051973 -0.019956
v 0.008999 -0.050500 -0.020733
v 0.008000 -0.051499 -0.020733
v 0.008956 -0.051456 -0.020473
v 0.009733 -0.051499 -0.019000
v 0.009733 -0.050500 -0.019999
v 0.009473 -0.051456 -0.019956
v 0.008000 0.052500 -0.019000
v 0.010000 0.050500 -0.019000
v 0.008000 0.050500 -0.021000
v 0.008999 0.052233 -0.019000
v 0.008000 0.052233 -0.019999
v 0.008956 0.051973 -0.019956
v 0.009733 0.050500 -0.019999
v 0.009733 0.051499 -0.019000
v 0.009473 0.051456 -0.019956
v 0.008000 0.051499 -0.020733
v 0.008999 0.050500 -0.020733
v 0.008956 0.051456 -0.020473
v -0.023000 -0.075000 0.014800
v -0.023000 -0.073000 0.016800
v -0.025000 -0.073000 0.014800
v -0.023000 -0.074733 0.015799
v -0.023999 -0.074733 0.014800
v -0.023956 -0.074473 0.015756
v -0.023999 -0.073000 0.016533
v -0.023000 -0.073999 0.016533
v -0.023956 -0.073956 0.016273
v -0.024733 -0.073999 0.014800
v -0.024733 -0.073000 0.015799
v -0.024473 -0.073956 0.015756
v -0.023000 -0.065000 0.016800
v -0.023000 -0.063000 0.014800
v -0.025000 -0.065000 0.014800
v -0.023000 -0.064001 0.016533
v -0.023999 -0.065000 0.016533
v -0.023956 -0.064044 0.016273
v -0.023999 -0.063267 0.014800
v -0.023000 -0.063267 0.015799
v -0.023956 -0.063527 0.015756
v -0.024733 -0.065000 0.015799
v -0.024733 -0.064001 0.014800
v -0.024473 -0.064044 0.015756
v -0.023000 -0.075000 -0.014800
v -0.025000 -0.073000 -0.014800
v -0.023000 -0.073000 -0.016800
v -0.023999 -0.074733 -0.014800
v -0.023000 -0.074733 -0.015799
v -0.023956 -0.074473 -0.015756
v -0.024733 -0.073000 -0.015799
v -0.024733 -0.073999 -0.014800
v -0.024473 -0.073956 -0.015756
v -0.023000 -0.073999 -0.016533
v -0.023999 -0.073000 -0.016533
v -0.023956 -0.073956 -0.016273
v -0.023000 -0.063000 -0.014800
v -0.023000 -0.065000 -0.016800
v -0.025000 -0.065000 -0.014800
v -0.023000 -0.063267 -0.015799
v -0.023999 -0.063267 -0.014800
v -0.023956 -0.063527 -0.015756
v -0.023999 -0.065000 -0.016533
v -0.023000 -0.064001 -0.016533
v -0.023956 -0.064044 -0.016273
v -0.024733 -0.064001 -0.014800
v -0.024733 -0.065000 -0.015799
v -0.024473 -0.064044 -0.015756
v 0.023000 -0.075000 0.014800
v 0.025000 -0.073000 0.014800
v 0.023000 -0.073000 0.016800
v 0.023999 -0.074733 0.014800
v 0.023000 -0.074733 0.015799
v 0.023956 -0.074473 0.015756
v 0.024733 -0.073000 0.015799
v 0.024733 -0.073999 0.014800
v 0.024473 -0.073956 0.015756
v 0.023000 -0.073999 0.016533
v 0.023999 -0.073000 0.016533
v 0.023956 -0.073956 0.016273
v 0.023000 -0.063000 0.014800
v 0.023000 -0.065000 0.016800
v 0.025000 -0.065000 0.014800
v 0.023000 -0.063267 0.015799
v 0.023999 -0.063267 0.014800
v 0.023956 -0.063527 0.015756
v 0.023999 -0.065000 0.016533
v 0.023000 -0.064001 0.016533
v 0.023956 -0.064044 0.016273
v 0.024733 -0.064001 0.014800
v 0.024733 -0.065000 0.015799
v 0.024473 -0.064044 0.015756
v 0.023000 -0.075000 -0.014800
v 0.023000 -0.073000 -0.016800
v 0.025000 -0.073000 -0.014800
v 0.023000 -0.074733 -0.015799
v 0.023999 -0.074733 -0.014800
v 0.023956 -0.074473 -0.015756
v 0.023999 -0.073000 -0.016533
v 0.023000 -0.073999 -0.016533
v 0.023956 -0.073956 -0.016273
v 0.024733 -0.073999 -0.014800
v 0.024733 -0.073000 -0.015799
v 0.024473 -0.073956 -0.015756
v 0.023000 -0.063000 -0.014800
v 0.025000 -0.065000 -0.014800
v 0.023000 -0.065000 -0.016800
v 0.023999 -0.063267 -0.014800
v 0.023000 -0.063267 -0.015799
v 0.023956 -0.063527 -0.015756
v 0.024733 -0.065000 -0.015799
v 0.024733 -0.064001 -0.014800
v 0.024473 -0.064044 -0.015756
v 0.023000 -0.064001 -0.016533
v 0.023999 -0.065000 -0.016533
v 0.023956 -0.064044 -0.016273
v -0.023000 0.063000 0.014800
v -0.023000 0.065000 0.016800
v -0.025000 0.065000 0.014800
v -0.023000 0.063267 0.015799
v -0.023999 0.063267 0.014800
v -0.023956 0.063527 0.015756
v -0.023999 0.065000 0.016533
v -0.023000 0.064001 0.016533
v -0.023956 0.064044 0.016273
v -0.024733 0.064001 0.014800
v -0.024733 0.065000 0.015799
v -0.024473 0.064044 0.015756
v -0.023000 0.073000 0.016800
v -0.023000 0.075000 0.014800
v -0.025000 0.073000 0.014800
v -0.023000 0.073999 0.016533
v -0.023999 0.073000 0.016533
v -0.023956 0.073956 0.016273
v -0.023999 0.074733 0.014800
v -0.023000 0.074733 0.015799
v -0.023956 0.074473 0.015756
v -0.024733 0.073000 0.015799
v -0.024733 0.073999 0.014800
v -0.024473 0.073956 0.015756
v -0.023000 0.063000 -0.014800
v -0.025000 0.065000 -0.014800
v -0.023000 0.065000 -0.016800
v -0.023999 0.063267 -0.014800
v -0.023000 0.063267 -0.015799
v -0.023956 0.063527 -0.015756
v -0.024733 0.065000 -0.015799
v -0.024733 0.064001 -0.014800
v -0.024473 0.064044 -0.015756
v -0.023000 0.064001 -0.016533
v -0.023999 0.065000 -0.016533
v -0.023956 0.064044 -0.016273
v -0.023000 0.075000 -0.014800
v -0.023000 0.073000 -0.016800
v -0.025000 0.073000 -0.014800
v -0.023000 0.074733 -0.015799
v -0.023999 0.074733 -0.014800
v -0.023956 0.074473 -0.015756
v -0.023999 0.073000 -0.016533
v -0.023000 0.073999 -0.016533
v -0.023956 0.073956 -0.016273
v -0.024733 0.073999 -0.014800
v -0.024733 0.073000 -0.015799
v -0.024473 0.073956 -0.015756
v 0.023000 0.063000 0.014800
v 0.025000 0.065000 0.014800
v 0.023000 0.065000 0.016800
v 0.023999 0.063267 0.014800
v 0.023000 0.063267 0.015799
v 0.023956 0.063527 0.015756
v 0.024733 0.065000 0.015799
v 0.024733 0.064001 0.014800
v 0.024473 0.064044 0.015756
v 0.023000 0.064001 0.016533
v 0.023999 0.065000 0.016533
v 0.023956 0.064044 0.016273
v 0.023000 0.075000 0.014800
v 0.023000 0.073000 0.016800
v 0.025000 0.073000 0.014800
v 0.023000 0.074733 0.015799
v 0.023999 0.074733 0.014800
v 0.023956 0.074473 0.015756
v 0.023999 0.073000 0.016533
v 0.023000 0.073999 0.016533
v 0.023956 0.073956 0.016273
v 0.024733 0.073999 0.014800
v 0.024733 0.073000 0.015799
v 0.024473 0.073956 0.015756
v 0.023000 0.063000 -0.014800
v 0.023000 0.065000 -0.016800
v 0.025000 0.065000 -0.014800
v 0.023000 0.063267 -0.015799
v 0.023999 0.063267 -0.014800
v 0.023956 0.063527 -0.015756
v 0.023999 0.065000 -0.016533
v 0.023000 0.064001 -0.016533
v 0.023956 0.064044 -0.016273
v 0.024733 0.064001 -0.014800
v 0.024733 0.065000 -0.015799
v 0.024473 0.064044 -0.015756
v 0.023000 0.075000 -0.014800
v 0.025000 0.073000 -0.014800
v 0.023000 0.073000 -0.016800
v 0.023999 0.074733 -0.014800
v 0.023000 0.074733 -0.015799
v 0.023956 0.074473 -0.015756
v 0.024733 0.073000 -0.015799
v 0.024733 0.073999 -0.014800
v 0.024473 0.073956 -0.015756
v 0.023000 0.073999 -0.016533
v 0.023999 0.073000 -0.016533
v 0.023956 0.073956 -0.016273
vn -0.2490 -0.9317 0.2646
vn -0.2187 -0.6900 0.6900
vn -0.2646 -0.2490 0.9317
vn -0.6900 -0.2187 0.6900
vn -0.9317 -0.2646 0.2490
vn -0.6900 -0.6900 0.2187
vn -0.5774 -0.5773 0.5774
vn -0.2490 0.2646 0.9317
vn -0.2187 0.6900 0.6900
vn -0.2646 0.9317 0.2490
vn -0.6900 0.6900 0.2187
vn -0.9317 0.2490 0.2646
vn -0.6900 0.2187 0.6900
vn -0.5774 0.5773 0.5774
vn -0.2646 -0.9317 -0.2490
vn -0.6900 -0.6900 -0.2187
vn -0.9317 -0.2490 -0.2646
vn -0.6900 -0.2187 -0.6900
vn -0.2490 -0.2646 -0.9317
vn -0.2187 -0.6900 -0.6900
vn -0.5774 -0.5773 -0.5774
vn -0.2490 0.9317 -0.2646
vn -0.2187 0.6900 -0.6900
vn -0.2646 0.2490 -0.9317
vn -0.6900 0.2187 -0.6900
vn -0.9317 0.2646 -0.2490
vn -0.6900 0.6900 -0.2187
vn -0.5774 0.5773 -0.5774
vn 0.2646 -0.9317 0.2490
vn 0.6900 -0.6900 0.2187
vn 0.9317 -0.2490 0.2646
vn 0.6900 -0.2187 0.6900
vn 0.2490 -0.2646 0.9317
vn 0.2187 -0.6900 0.6900
vn 0.5774 -0.5773 0.5774
vn 0.2490 0.9317 0.2646
vn 0.2187 0.6900 0.6900
vn 0.2646 0.2490 0.9317
vn 0.6900 0.2187 0.6900
vn 0.9317 0.2646 0.2490
vn 0.6900 0.6900 0.2187
vn 0.5774 0.5773 0.5774
vn 0.2490 -0.9317 -0.2646
vn 0.2187 -0.6900 -0.6900
vn 0.2646 -0.2490 -0.9317
vn 0.6900 -0.2187 -0.6900
vn 0.9317 -0.2646 -0.2490
vn 0.6900 -0.6900 -0.2187
vn 0.5774 -0.5773 -0.5774
vn 0.2646 0.9317 -0.2490
vn 0.6900 0.6900 -0.2187
vn 0.9317 0.2490 -0.2646
vn 0.6900 0.2187 -0.6900
vn 0.2490 0.2646 -0.9317
vn 0.2187 0.6900 -0.6900
vn 0.5774 0.5773 -0.5774
vn -0.2582 -0.9661 -0.0000
vn -0.7071 -0.7071 -0.0000
vn -0.9661 -0.2582 -0.0000
vn -0.2582 -0.0000 0.9661
vn -0.7071 -0.0000 0.7071
vn -0.9661 -0.0000 0.2582
vn -0.2582 0.9661 -0.0000
vn -0.7071 0.7071 -0.0000
vn -0.9661 0.2582 -0.0000
vn -0.2582 -0.0000 -0.9661
vn -0.7071 -0.0000 -0.7071
vn -0.9661 -0.0000 -0.2582
vn -0.0000 -0.9661 -0.2582
vn -0.0000 -0.7071 -0.7071
vn -0.0000 -0.2582 -0.9661
vn -0.0000 0.9661 -0.2582
vn -0.0000 0.7071 -0.7071
vn -0.0000 0.2582 -0.9661
vn 0.9661 -0.0000 -0.2582
vn 0.7071 -0.0000 -0.7071
vn 0.2582 -0.0000 -0.9661
vn 0.2582 -0.9661 -0.0000
vn 0.7071 -0.7071 -0.0000
vn 0.9661 -0.2582 -0.0000
vn 0.2582 0.9661 -0.0000
vn 0.7071 0.7071 -0.0000
vn 0.9661 0.2582 -0.0000
vn 0.2582 -0.0000 0.9661
vn 0.7071 -0.0000 0.7071
vn 0.9661 -0.0000 0.2582
vn -0.0000 -0.9661 0.2582
vn -0.0000 -0.7071 0.7071
vn -0.0000 -0.2582 0.9661
vn -0.0000 0.9661 0.2582
vn -0.0000 0.7071 0.7071
vn -0.0000 0.2582 0.9661
vn -0.0000 -1.0000 -0.0000
vn -1.0000 -0.0000 -0.0000
vn -0.0000 -0.0000 1.0000
vn -0.0000 1.0000 -0.0000
vn -0.0000 -0.0000 -1.0000
vn 1.0000 -0.0000 -0.0000
vn -0.1566 -0.9877 -0.0000
vn -0.4540 -0.8910 -0.0000
vn -0.8910 -0.4540 -0.0000
vn -0.9877 -0.1566 -0.0000
vn -0.9877 0.1566 -0.0000
vn -0.8910 0.4540 -0.0000
vn -0.4540 0.8910 -0.0000
vn -0.1566 0.9877 -0.0000
vn -0.0000 0.0114 -0.9999
vn 0.4540 0.8910 -0.0000
vn 0.8910 0.4540 -0.0000
vn 0.9877 0.1566 -0.0000
vn 0.9877 -0.1566 -0.0000
vn 0.8910 -0.4540 -0.0000
vn 0.4540 -0.8910 -0.0000
vn 0.1566 -0.9877 -0.0000
vn -0.1562 0.9877 -0.0000
vn 0.1566 0.9877 -0.0000
vn -0.1568 -0.9876 -0.0000
vn -0.1563 0.9877 -0.0000
vn 0.1563 0.9877 -0.0000
vn 0.1570 0.9876 -0.0000
vn -0.9115 -0.3183 -0.2605
vn -0.6794 -0.2700 -0.6823
vn -0.2467 -0.2827 -0.9269
vn -0.2135 -0.6991 -0.6824
vn -0.2566 -0.9347 -0.2460
vn -0.6622 -0.7188 -0.2119
vn -0.5597 -0.6075 -0.5636
vn 0.9106 -0.3321 -0.2462
vn 0.6622 -0.7188 -0.2118
vn 0.2423 -0.9345 -0.2607
vn 0.2136 -0.6991 -0.6824
vn 0.2615 -0.2691 -0.9269
vn 0.6793 -0.2700 -0.6823
vn 0.5597 -0.6075 -0.5636
vn 0.2671 0.9290 -0.2560
vn 0.7157 0.6597 -0.2293
vn 0.9467 0.1748 -0.2707
vn 0.6962 0.1624 -0.6993
vn 0.2495 0.2448 -0.9369
vn 0.2188 0.6806 -0.6992
vn 0.5910 0.5447 -0.5950
vn -0.9478 0.1901 -0.2559
vn -0.7157 0.6597 -0.2291
vn -0.2516 0.9291 -0.2708
vn -0.2189 0.6806 -0.6992
vn -0.2644 0.2286 -0.9369
vn -0.6962 0.1623 -0.6993
vn -0.5910 0.5447 -0.5950
vn -0.9106 -0.3321 0.2462
vn -0.6622 -0.7188 0.2118
vn -0.2423 -0.9345 0.2607
vn -0.2136 -0.6991 0.6824
vn -0.2615 -0.2691 0.9269
vn -0.6793 -0.2700 0.6823
vn -0.5597 -0.6075 0.5636
vn 0.2566 -0.9347 0.2460
vn 0.6622 -0.7188 0.2119
vn 0.9115 -0.3183 0.2605
vn 0.6794 -0.2700 0.6823
vn 0.2467 -0.2827 0.9269
vn 0.2135 -0.6991 0.6824
vn 0.5597 -0.6075 0.5636
vn 0.9478 0.1901 0.2559
vn 0.7157 0.6597 0.2291
vn 0.2517 0.9291 0.2708
vn 0.2189 0.6806 0.6992
vn 0.2644 0.2286 0.9369
vn 0.6962 0.1623 0.6993
vn 0.5910 0.5447 0.5950
vn -0.9467 0.1748 0.2707
vn -0.6962 0.1624 0.6993
vn -0.2495 0.2448 0.9369
vn -0.2188 0.6806 0.6992
vn -0.2671 0.9290 0.2560
vn -0.7157 0.6597 0.2293
vn -0.5910 0.5447 0.5950
vn -0.9625 -0.0790 -0.2596
vn -0.7048 -0.0578 -0.7071
vn -0.2577 -0.0211 -0.9660
vn -0.0000 0.2586 -0.9660
vn -0.0000 0.9658 -0.2594
vn 0.2577 -0.0211 -0.9660
vn 0.7048 -0.0578 -0.7071
vn 0.9625 -0.0790 -0.2596
vn -0.0000 -0.2586 -0.9660
vn -0.0000 -0.9658 -0.2594
vn -0.2577 -0.0211 0.9660
vn -0.7048 -0.0578 0.7071
vn -0.9625 -0.0790 0.2596
vn -0.0000 -0.9658 0.2594
vn -0.0000 -0.2586 0.9660
vn 0.9625 -0.0790 0.2596
vn 0.7048 -0.0578 0.7071
vn 0.2577 -0.0211 0.9660
vn -0.0000 0.9658 0.2594
vn -0.0000 0.2586 0.9660
vn -0.9317 -0.2646 -0.2490
vn -0.2490 -0.9317 -0.2646
vn -0.9317 0.2646 0.2490
vn -0.2490 0.9317 0.2646
vn -0.2646 0.2490 0.9317
vn -0.9317 -0.2490 0.2646
vn -0.2490 -0.2646 0.9317
vn -0.2646 -0.9317 0.2490
vn -0.2502 -0.9319 0.2625
vn -0.2166 -0.6903 0.6903
vn -0.2625 -0.2503 0.9319
vn -0.6903 -0.2166 0.6903
vn -0.9319 -0.2625 0.2503
vn -0.6903 -0.6903 0.2166
vn -0.5773 -0.5773 0.5774
vn -0.2503 0.2625 0.9319
vn -0.2166 0.6903 0.6903
vn -0.2625 0.9319 0.2503
vn -0.6903 0.6903 0.2166
vn -0.9319 0.2503 0.2625
vn -0.6903 0.2166 0.6903
vn -0.5773 0.5773 0.5774
vn -0.2625 -0.9319 -0.2503
vn -0.6903 -0.6903 -0.2166
vn -0.9319 -0.2503 -0.2625
vn -0.6903 -0.2166 -0.6903
vn -0.2503 -0.2625 -0.9319
vn -0.2166 -0.6903 -0.6903
vn -0.5773 -0.5774 -0.5774
vn -0.2502 0.9319 -0.2625
vn -0.2166 0.6903 -0.6903
vn -0.2625 0.2503 -0.9319
vn -0.6903 0.2166 -0.6903
vn -0.9319 0.2625 -0.2503
vn -0.6903 0.6903 -0.2166
vn -0.5773 0.5774 -0.5774
vn 0.2625 -0.9319 0.2503
vn 0.6903 -0.6903 0.2166
vn 0.9319 -0.2503 0.2625
vn 0.6903 -0.2166 0.6903
vn 0.2503 -0.2625 0.9319
vn 0.2166 -0.6903 0.6903
vn 0.5773 -0.5773 0.5774
vn 0.2502 0.9319 0.2625
vn 0.2166 0.6903 0.6903
vn 0.2625 0.2503 0.9319
vn 0.6903 0.2166 0.6903
vn 0.9319 0.2625 0.2503
vn 0.6903 0.6903 0.2166
vn 0.5773 0.5773 0.5774
vn 0.2502 -0.9319 -0.2625
vn 0.2166 -0.6903 -0.6903
vn 0.2625 -0.2503 -0.9319
vn 0.6903 -0.2166 -0.6903
vn 0.9319 -0.2625 -0.2503
vn 0.6903 -0.6903 -0.2166
vn 0.5773 -0.5774 -0.5774
vn 0.2625 0.9319 -0.2503
vn 0.6903 0.6903 -0.2166
vn 0.9319 0.2503 -0.2625
vn 0.6903 0.2166 -0.6903
vn 0.2503 0.2625 -0.9319
vn 0.2166 0.6903 -0.6903
vn 0.5773 0.5774 -0.5774
vn -0.2594 -0.9658 -0.0000
vn -0.9658 -0.2593 -0.0000
vn -0.2593 -0.0000 0.9658
vn -0.9658 -0.0000 0.2593
vn -0.2594 0.9658 -0.0000
vn -0.9658 0.2593 -0.0000
vn -0.2593 -0.0000 -0.9658
vn -0.9658 -0.0000 -0.2593
vn -0.0000 -0.9658 -0.2593
vn -0.0000 -0.2594 -0.9658
vn -0.0000 0.9658 -0.2593
vn -0.0000 0.2594 -0.9658
vn 0.9658 -0.0000 -0.2593
vn 0.2593 -0.0000 -0.9658
vn 0.2594 -0.9658 -0.0000
vn 0.9658 -0.2593 -0.0000
vn 0.2594 0.9658 -0.0000
vn 0.9658 0.2593 -0.0000
vn 0.2593 -0.0000 0.9658
vn 0.9658 -0.0000 0.2593
vn -0.0000 -0.9658 0.2593
vn -0.0000 -0.2593 0.9658
vn -0.0000 0.9658 0.2593
vn -0.0000 0.2593 0.9658
vn -0.5774 -0.5773 0.5773
vn -0.5774 0.5773 0.5773
vn 0.5774 -0.5773 0.5773
vn 0.5774 0.5773 0.5773
vn -0.5773 0.5774 0.5774
vn -0.5773 -0.5773 -0.5774
vn 0.5773 0.5774 0.5774
vn 0.5773 -0.5773 -0.5774
vn -0.5773 -0.5774 0.5774
vn -0.5773 0.5773 -0.5774
vn 0.5773 -0.5774 0.5774
vn 0.5773 0.5773 -0.5774
vn -0.2646 -0.2490 -0.9317
vn -0.2646 0.9317 -0.2490
vn -0.2490 0.2646 -0.9317
vn -0.9317 0.2490 -0.2646
vn 0.2490 -0.9317 0.2646
vn 0.9317 -0.2646 0.2490
vn 0.2646 -0.2490 0.9317
vn 0.2646 0.9317 0.2490
vn 0.2490 0.2646 0.9317
vn 0.9317 0.2490 0.2646
vn 0.2646 -0.9317 -0.2490
vn 0.2490 -0.2646 -0.9317
vn 0.9317 -0.2490 -0.2646
vn 0.2490 0.9317 -0.2646
vn 0.9317 0.2646 -0.2490
vn 0.2646 0.2490 -0.9317
vn -0.1570 0.9876 -0.0000
vn -0.0000 0.0052 1.0000
vn -0.1563 -0.9877 -0.0000
vn 0.1563 -0.9877 -0.0000
vn 0.1568 -0.9876 -0.0000
vn -0.1568 0.9876 -0.0000
vn 0.1568 0.9876 -0.0000
vn 0.1562 0.9877 -0.0000
vn -0.9106 -0.3321 -0.2462
vn -0.2615 -0.2691 -0.9269
vn -0.2136 -0.6991 -0.6824
vn -0.2423 -0.9345 -0.2607
vn -0.6622 -0.7187 -0.2119
vn 0.9115 -0.3183 -0.2605
vn 0.6622 -0.7187 -0.2119
vn 0.2566 -0.9347 -0.2460
vn 0.2135 -0.6991 -0.6824
vn 0.2467 -0.2827 -0.9269
vn 0.6794 -0.2700 -0.6823
vn 0.2516 0.9291 -0.2708
vn 0.7159 0.6596 -0.2291
vn 0.9478 0.1901 -0.2559
vn 0.6961 0.1623 -0.6993
vn 0.2644 0.2286 -0.9369
vn 0.2189 0.6805 -0.6993
vn -0.9467 0.1748 -0.2707
vn -0.7158 0.6596 -0.2292
vn -0.2671 0.9290 -0.2560
vn -0.2189 0.6805 -0.6993
vn -0.2495 0.2448 -0.9369
vn -0.6961 0.1624 -0.6993
vn -0.9115 -0.3183 0.2605
vn -0.6622 -0.7187 0.2119
vn -0.2566 -0.9347 0.2460
vn -0.2135 -0.6991 0.6824
vn -0.2467 -0.2827 0.9269
vn -0.6794 -0.2700 0.6823
vn 0.2423 -0.9345 0.2607
vn 0.6622 -0.7187 0.2119
vn 0.9106 -0.3321 0.2462
vn 0.2615 -0.2691 0.9269
vn 0.2136 -0.6991 0.6824
vn 0.9467 0.1748 0.2707
vn 0.7158 0.6596 0.2292
vn 0.2671 0.9290 0.2560
vn 0.2189 0.6805 0.6993
vn 0.2495 0.2448 0.9369
vn 0.6961 0.1624 0.6993
vn -0.9478 0.1901 0.2559
vn -0.6961 0.1623 0.6993
vn -0.2644 0.2286 0.9369
vn -0.2189 0.6805 0.6993
vn -0.2517 0.9291 0.2708
vn -0.7159 0.6596 0.2291
vn -0.9626 -0.0790 -0.2593
vn -0.7047 -0.0578 -0.7072
vn -0.2578 -0.0212 -0.9660
vn 0.2578 -0.0212 -0.9660
vn 0.7047 -0.0578 -0.7072
vn 0.9626 -0.0790 -0.2593
vn -0.2578 -0.0212 0.9660
vn -0.7047 -0.0578 0.7072
vn -0.9626 -0.0790 0.2593
vn 0.9626 -0.0790 0.2593
vn 0.7047 -0.0578 0.7072
vn 0.2578 -0.0212 0.9660
vn -0.2625 -0.9319 0.2503
vn -0.2503 -0.2625 0.9319
vn -0.9319 -0.2503 0.2625
vn -0.2625 0.2503 0.9319
vn -0.2502 0.9319 0.2625
vn -0.9319 0.2625 0.2503
vn -0.2502 -0.9319 -0.2625
vn -0.9319 -0.2625 -0.2503
vn -0.2625 -0.2503 -0.9319
vn -0.2625 0.9319 -0.2503
vn -0.2503 0.2625 -0.9319
vn -0.9319 0.2503 -0.2625
vn 0.2502 -0.9319 0.2625
vn 0.9319 -0.2625 0.2503
vn 0.2625 -0.2503 0.9319
vn 0.2625 0.9319 0.2503
vn 0.2503 0.2625 0.9319
vn 0.9319 0.2503 0.2625
vn 0.2625 -0.9319 -0.2503
vn 0.2503 -0.2625 -0.9319
vn 0.9319 -0.2503 -0.2625
vn 0.2502 0.9319 -0.2625
vn 0.9319 0.2625 -0.2503
vn 0.2625 0.2503 -0.9319
vn -0.0000 -0.2593 -0.9658
vn -0.0000 0.2593 -0.9658
s 0
usemtl ChassisMetal
f 1//1 6//1 5//1
f 4//2 9//2 6//2
f 2//3 9//3 8//3
f 7//4 12//4 9//4
f 3//5 12//5 11//5
f 10//6 6//6 12//6
f 6//7 9//7 12//7
f 13//8 18//8 17//8
f 16//9 21//9 18//9
f 14//10 21//10 20//10
f 19//11 24//11 21//11
f 15//12 24//12 23//12
f 22//13 18//13 24//13
f 18//14 21//14 24//14
f 25//15 30//15 29//15
f 28//16 33//16 30//16
f 26//17 33//17 32//17
f 31//18 36//18 33//18
f 27//19 36//19 35//19
f 34//20 30//20 36//20
f 30//21 33//21 36//21
f 37//22 42//22 41//22
f 40//23 45//23 42//23
f 38//24 45//24 44//24
f 43//25 48//25 45//25
f 39//26 48//26 47//26
f 46//27 42//27 48//27
f 42//28 45//28 48//28
f 49//29 54//29 53//29
f 52//30 57//30 54//30
f 50//31 57//31 56//31
f 55//32 60//32 57//32
f 51//33 60//33 59//33
f 58//34 54//34 60//34
f 54//35 57//35 60//35
f 61//36 66//36 65//36
f 64//37 69//37 66//37
f 62//38 69//38 68//38
f 67//39 72//39 69//39
f 63//40 72//40 71//40
f 70//41 66//41 72//41
f 66//42 69//42 72//42
f 73//43 78//43 77//43
f 76//44 81//44 78//44
f 74//45 81//45 80//45
f 79//46 84//46 81//46
f 75//47 84//47 83//47
f 82//48 78//48 84//48
f 78//49 81//49 84//49
f 85//50 90//50 89//50
f 88//51 93//51 90//51
f 86//52 93//52 92//52
f 91//53 96//53 93//53
f 87//54 96//54 95//54
f 94//55 90//55 96//55
f 90//56 93//56 96//56
f 25//57 5//57 28//57
f 28//58 10//58 32//58
f 32//59 3//59 26//59
f 2//60 17//60 7//60
f 7//61 22//61 11//61
f 11//62 15//62 3//62
f 14//63 41//63 19//63
f 19//64 46//64 23//64
f 23//65 39//65 15//65
f 38//66 35//66 43//66
f 43//67 31//67 47//67
f 47//68 26//68 39//68
f 73//69 29//69 76//69
f 76//70 34//70 80//70
f 80//71 27//71 74//71
f 37//72 89//72 40//72
f 40//73 94//73 44//73
f 44//74 87//74 38//74
f 86//75 83//75 91//75
f 91//76 79//76 95//76
f 95//77 74//77 87//77
f 49//78 77//78 52//78
f 52//79 82//79 56//79
f 56//80 75//80 50//80
f 85//81 65//81 88//81
f 88//82 70//82 92//82
f 92//83 63//83 86//83
f 62//84 59//84 67//84
f 67//85 55//85 71//85
f 71//86 50//86 63//86
f 1//87 53//87 4//87
f 4//88 58//88 8//88
f 8//89 51//89 2//89
f 61//90 20//90 64//90
f 64//91 16//91 68//91
f 68//92 13//92 62//92
f 25//93 49//93 1//93
f 3//94 39//94 26//94
f 137//95 193//95 192//95
f 13//95 180//95 62//95
f 154//95 110//95 155//95
f 51//95 109//95 2//95
f 85//96 14//96 61//96
f 162//97 213//97 214//97
f 208//97 87//97 206//97
f 135//97 175//97 176//97
f 124//97 27//97 517//97
f 75//98 63//98 50//98
f 114//99 125//99 135//99
f 112//100 135//100 129//100
f 112//58 134//58 101//58
f 101//101 132//101 100//101
f 100//102 130//102 98//102
f 98//103 131//103 99//103
f 99//104 133//104 97//104
f 97//64 128//64 111//64
f 136//105 111//105 128//105
f 109//106 113//106 136//106
f 126//107 124//107 517//107
f 122//108 115//108 126//108
f 108//82 122//82 120//82
f 103//109 120//109 118//109
f 102//110 118//110 117//110
f 104//111 117//111 119//111
f 107//112 119//112 121//112
f 123//79 107//79 121//79
f 116//113 123//113 127//113
f 110//114 127//114 125//114
f 156//99 171//99 161//99
f 152//100 161//100 159//100
f 151//58 159//58 166//58
f 151//101 163//101 148//101
f 148//102 162//102 146//102
f 146//103 165//103 149//103
f 149//104 164//104 147//104
f 158//64 147//64 164//64
f 160//105 153//105 158//105
f 176//115 155//115 157//115
f 177//116 154//116 176//116
f 174//108 144//108 177//108
f 169//82 142//82 174//82
f 139//109 169//109 170//109
f 137//110 170//110 167//110
f 168//111 137//111 167//111
f 172//112 140//112 168//112
f 145//79 172//79 173//79
f 143//113 173//113 178//113
f 150//114 178//114 171//114
f 180//117 206//117 212//117
f 189//100 212//100 217//100
f 220//58 189//58 217//58
f 188//101 220//101 215//101
f 188//102 214//102 186//102
f 186//103 213//103 187//103
f 187//104 219//104 184//104
f 190//64 219//64 218//64
f 216//105 190//105 218//105
f 181//106 207//106 183//106
f 209//116 183//116 207//116
f 210//108 195//108 209//108
f 198//82 210//82 202//82
f 193//109 202//109 201//109
f 192//110 201//110 200//110
f 194//111 200//111 204//111
f 199//112 204//112 203//112
f 197//79 203//79 211//79
f 191//113 211//113 205//113
f 179//114 205//114 208//114
f 221//1 226//1 225//1
f 224//2 229//2 226//2
f 222//3 229//3 228//3
f 227//4 232//4 229//4
f 223//5 232//5 231//5
f 230//6 226//6 232//6
f 226//7 229//7 232//7
f 233//8 238//8 237//8
f 236//9 241//9 238//9
f 234//10 241//10 240//10
f 239//11 244//11 241//11
f 235//12 244//12 243//12
f 242//13 238//13 244//13
f 238//14 241//14 244//14
f 245//15 250//15 249//15
f 248//16 253//16 250//16
f 246//17 253//17 252//17
f 251//18 256//18 253//18
f 247//19 256//19 255//19
f 254//20 250//20 256//20
f 250//21 253//21 256//21
f 257//22 262//22 261//22
f 260//23 265//23 262//23
f 258//24 265//24 264//24
f 263//25 268//25 265//25
f 259//26 268//26 267//26
f 266//27 262//27 268//27
f 262//28 265//28 268//28
f 269//29 274//29 273//29
f 272//30 277//30 274//30
f 270//31 277//31 276//31
f 275//32 280//32 277//32
f 271//33 280//33 279//33
f 278//34 274//34 280//34
f 274//35 277//35 280//35
f 281//36 286//36 285//36
f 284//37 289//37 286//37
f 282//38 289//38 288//38
f 287//39 292//39 289//39
f 283//40 292//40 291//40
f 290//41 286//41 292//41
f 286//42 289//42 292//42
f 293//43 298//43 297//43
f 296//44 301//44 298//44
f 294//45 301//45 300//45
f 299//46 304//46 301//46
f 295//47 304//47 303//47
f 302//48 298//48 304//48
f 298//49 301//49 304//49
f 305//50 310//50 309//50
f 308//51 313//51 310//51
f 306//52 313//52 312//52
f 311//53 316//53 313//53
f 307//54 316//54 315//54
f 314//55 310//55 316//55
f 310//56 313//56 316//56
f 245//57 225//57 248//57
f 248//58 230//58 252//58
f 252//59 223//59 246//59
f 222//60 237//60 227//60
f 227//61 242//61 231//61
f 231//62 235//62 223//62
f 234//63 261//63 239//63
f 239//64 266//64 243//64
f 243//65 259//65 235//65
f 258//66 255//66 263//66
f 263//67 251//67 267//67
f 267//68 246//68 259//68
f 293//69 249//69 296//69
f 296//70 254//70 300//70
f 300//71 247//71 294//71
f 257//72 309//72 260//72
f 260//73 314//73 264//73
f 264//74 307//74 258//74
f 306//75 303//75 311//75
f 311//76 299//76 315//76
f 315//77 294//77 307//77
f 269//78 297//78 272//78
f 272//79 302//79 276//79
f 276//80 295//80 270//80
f 305//81 285//81 308//81
f 308//82 290//82 312//82
f 312//83 283//83 306//83
f 282//84 279//84 287//84
f 287//85 275//85 291//85
f 291//86 270//86 283//86
f 221//87 273//87 224//87
f 224//88 278//88 228//88
f 228//89 271//89 222//89
f 281//90 240//90 284//90
f 284//91 236//91 288//91
f 288//92 233//92 282//92
f 245//93 269//93 221//93
f 223//94 259//94 246//94
f 359//95 415//95 414//95
f 233//95 402//95 282//95
f 376//95 331//95 377//95
f 271//95 329//95 222//95
f 305//96 234//96 281//96
f 384//97 435//97 436//97
f 430//97 307//97 428//97
f 357//97 397//97 398//97
f 345//97 247//97 346//97
f 295//98 283//98 270//98
f 335//99 347//99 357//99
f 333//100 357//100 351//100
f 333//58 356//58 321//58
f 321//101 354//101 320//101
f 320//102 352//102 318//102
f 318//103 353//103 319//103
f 319//104 355//104 317//104
f 317//64 350//64 332//64
f 358//105 332//105 350//105
f 329//118 330//118 358//118
f 346//119 336//119 345//119
f 343//108 336//108 348//108
f 328//82 343//82 341//82
f 323//109 341//109 339//109
f 322//110 339//110 338//110
f 324//111 338//111 340//111
f 327//112 340//112 342//112
f 344//79 327//79 342//79
f 337//113 344//113 349//113
f 331//114 349//114 347//114
f 378//99 393//99 383//99
f 374//100 383//100 381//100
f 373//58 381//58 388//58
f 373//101 385//101 370//101
f 370//102 384//102 368//102
f 368//103 387//103 371//103
f 371//104 386//104 369//104
f 380//64 369//64 386//64
f 382//105 375//105 380//105
f 398//115 377//115 379//115
f 397//120 366//120 398//120
f 396//108 366//108 399//108
f 391//82 364//82 396//82
f 361//109 391//109 392//109
f 359//110 392//110 389//110
f 390//111 359//111 389//111
f 394//112 362//112 390//112
f 367//79 394//79 395//79
f 365//113 395//113 400//113
f 372//114 400//114 393//114
f 402//117 428//117 434//117
f 411//100 434//100 439//100
f 442//58 411//58 439//58
f 410//101 442//101 437//101
f 410//102 436//102 408//102
f 408//103 435//103 409//103
f 409//104 441//104 406//104
f 412//64 441//64 440//64
f 438//105 412//105 440//105
f 403//106 429//106 405//106
f 431//116 405//116 429//116
f 432//108 417//108 431//108
f 420//82 432//82 424//82
f 415//109 424//109 423//109
f 414//110 423//110 422//110
f 416//111 422//111 426//111
f 421//112 426//112 425//112
f 419//79 425//79 433//79
f 413//113 433//113 427//113
f 401//114 427//114 430//114
f 31//18 35//18 36//18
f 26//197 31//197 33//197
f 28//16 32//16 33//16
f 25//198 28//198 30//198
f 22//13 17//13 18//13
f 15//199 22//199 24//199
f 19//11 23//11 24//11
f 14//200 19//200 21//200
f 16//9 20//9 21//9
f 13//201 16//201 18//201
f 10//6 5//6 6//6
f 3//202 10//202 12//202
f 7//4 11//4 12//4
f 2//203 7//203 9//203
f 4//2 8//2 9//2
f 1//204 4//204 6//204
f 27//297 34//297 36//297
f 34//20 29//20 30//20
f 37//298 40//298 42//298
f 40//23 44//23 45//23
f 38//299 43//299 45//299
f 43//25 47//25 48//25
f 39//300 46//300 48//300
f 46//27 41//27 42//27
f 49//301 52//301 54//301
f 52//30 56//30 57//30
f 50//302 55//302 57//302
f 55//32 59//32 60//32
f 51//303 58//303 60//303
f 58//34 53//34 54//34
f 61//304 64//304 66//304
f 64//37 68//37 69//37
f 62//305 67//305 69//305
f 67//39 71//39 72//39
f 63//306 70//306 72//306
f 70//41 65//41 66//41
f 73//307 76//307 78//307
f 76//44 80//44 81//44
f 74//308 79//308 81//308
f 79//46 83//46 84//46
f 75//309 82//309 84//309
f 82//48 77//48 78//48
f 85//310 88//310 90//310
f 88//51 92//51 93//51
f 86//311 91//311 93//311
f 91//53 95//53 96//53
f 87//312 94//312 96//312
f 94//55 89//55 90//55
f 25//57 1//57 5//57
f 28//58 5//58 10//58
f 32//59 10//59 3//59
f 2//60 13//60 17//60
f 7//61 17//61 22//61
f 11//62 22//62 15//62
f 14//63 37//63 41//63
f 19//64 41//64 46//64
f 23//65 46//65 39//65
f 38//66 27//66 35//66
f 43//67 35//67 31//67
f 47//68 31//68 26//68
f 73//69 25//69 29//69
f 76//70 29//70 34//70
f 80//71 34//71 27//71
f 37//72 85//72 89//72
f 40//73 89//73 94//73
f 44//74 94//74 87//74
f 86//75 75//75 83//75
f 91//76 83//76 79//76
f 95//77 79//77 74//77
f 49//78 73//78 77//78
f 52//79 77//79 82//79
f 56//80 82//80 75//80
f 85//81 61//81 65//81
f 88//82 65//82 70//82
f 92//83 70//83 63//83
f 62//84 51//84 59//84
f 67//85 59//85 55//85
f 71//86 55//86 50//86
f 1//87 49//87 53//87
f 4//88 53//88 58//88
f 8//89 58//89 51//89
f 61//90 14//90 20//90
f 64//91 20//91 16//91
f 68//92 16//92 13//92
f 25//93 73//93 49//93
f 3//94 15//94 39//94
f 2//95 109//95 115//95
f 2//95 115//95 106//95
f 191//95 179//95 13//95
f 197//95 191//95 13//95
f 2//95 106//95 108//95
f 2//95 108//95 103//95
f 199//95 197//95 13//95
f 194//95 199//95 13//95
f 2//95 103//95 102//95
f 13//95 2//95 102//95
f 192//95 194//95 13//95
f 13//95 102//95 104//95
f 62//95 180//95 182//95
f 113//95 522//95 51//95
f 111//95 113//95 51//95
f 62//95 182//95 189//95
f 62//95 189//95 185//95
f 97//95 111//95 51//95
f 99//95 97//95 51//95
f 62//95 185//95 188//95
f 62//95 188//95 186//95
f 98//95 99//95 51//95
f 98//95 51//95 62//95
f 100//95 98//95 62//95
f 105//95 116//95 154//95
f 105//95 154//95 144//95
f 107//95 105//95 144//95
f 107//95 144//95 142//95
f 155//95 110//95 114//95
f 157//95 155//95 114//95
f 157//95 114//95 112//95
f 153//95 157//95 112//95
f 153//95 112//95 101//95
f 147//95 153//95 101//95
f 104//95 107//95 142//95
f 104//95 142//95 138//95
f 147//95 101//95 100//95
f 149//95 147//95 100//95
f 104//95 138//95 139//95
f 104//95 139//95 137//95
f 146//95 149//95 100//95
f 146//95 100//95 62//95
f 146//95 62//95 186//95
f 148//95 146//95 186//95
f 148//95 186//95 187//95
f 151//95 148//95 187//95
f 151//95 187//95 184//95
f 152//95 151//95 184//95
f 152//95 184//95 190//95
f 156//95 152//95 190//95
f 156//95 190//95 181//95
f 150//95 156//95 181//95
f 150//95 181//95 183//95
f 143//95 150//95 183//95
f 143//95 183//95 195//95
f 145//95 143//95 195//95
f 145//95 195//95 196//95
f 141//95 145//95 196//95
f 141//95 196//95 198//95
f 140//95 141//95 198//95
f 140//95 198//95 193//95
f 13//95 104//95 137//95
f 137//95 140//95 193//95
f 192//95 13//95 137//95
f 13//95 179//95 180//95
f 154//95 116//95 110//95
f 51//95 522//95 109//95
f 85//96 37//96 14//96
f 212//97 206//97 87//97
f 74//97 124//97 136//97
f 74//97 136//97 128//97
f 217//97 212//97 87//97
f 220//97 217//97 87//97
f 74//97 128//97 133//97
f 74//97 133//97 131//97
f 215//97 220//97 87//97
f 214//97 215//97 87//97
f 74//97 131//97 130//97
f 87//97 74//97 130//97
f 87//97 130//97 132//97
f 38//97 208//97 205//97
f 126//97 517//97 27//97
f 122//97 126//97 27//97
f 38//97 205//97 211//97
f 38//97 211//97 203//97
f 120//97 122//97 27//97
f 118//97 120//97 27//97
f 38//97 203//97 204//97
f 38//97 204//97 200//97
f 117//97 118//97 27//97
f 117//97 27//97 38//97
f 119//97 117//97 38//97
f 129//97 135//97 176//97
f 129//97 176//97 160//97
f 134//97 129//97 160//97
f 134//97 160//97 158//97
f 175//97 125//97 127//97
f 177//97 175//97 127//97
f 177//97 127//97 123//97
f 174//97 177//97 123//97
f 174//97 123//97 121//97
f 169//97 174//97 121//97
f 132//97 134//97 158//97
f 132//97 158//97 164//97
f 169//97 121//97 119//97
f 170//97 169//97 119//97
f 132//97 164//97 165//97
f 132//97 165//97 162//97
f 167//97 170//97 119//97
f 167//97 119//97 38//97
f 167//97 38//97 200//97
f 168//97 167//97 200//97
f 168//97 200//97 201//97
f 172//97 168//97 201//97
f 172//97 201//97 202//97
f 173//97 172//97 202//97
f 173//97 202//97 210//97
f 178//97 173//97 210//97
f 178//97 210//97 209//97
f 171//97 178//97 209//97
f 171//97 209//97 207//97
f 161//97 171//97 207//97
f 161//97 207//97 216//97
f 159//97 161//97 216//97
f 159//97 216//97 218//97
f 166//97 159//97 218//97
f 166//97 218//97 219//97
f 163//97 166//97 219//97
f 163//97 219//97 213//97
f 87//97 132//97 162//97
f 162//97 163//97 213//97
f 214//97 87//97 162//97
f 208//97 38//97 87//97
f 135//97 125//97 175//97
f 124//97 74//97 27//97
f 75//98 86//98 63//98
f 114//99 110//99 125//99
f 112//100 114//100 135//100
f 112//58 129//58 134//58
f 101//101 134//101 132//101
f 100//102 132//102 130//102
f 98//103 130//103 131//103
f 99//104 131//104 133//104
f 97//64 133//64 128//64
f 136//105 113//105 111//105
f 136//106 124//106 109//106
f 126//116 115//116 109//116
f 122//108 106//108 115//108
f 108//82 106//82 122//82
f 103//109 108//109 120//109
f 102//110 103//110 118//110
f 104//111 102//111 117//111
f 107//112 104//112 119//112
f 123//79 105//79 107//79
f 116//113 105//113 123//113
f 110//114 116//114 127//114
f 156//99 150//99 171//99
f 152//100 156//100 161//100
f 151//58 152//58 159//58
f 151//101 166//101 163//101
f 148//102 163//102 162//102
f 146//103 162//103 165//103
f 149//104 165//104 164//104
f 158//64 153//64 147//64
f 160//105 157//105 153//105
f 157//106 160//106 176//106
f 176//313 154//313 155//313
f 176//314 175//314 177//314
f 177//116 144//116 154//116
f 174//108 142//108 144//108
f 169//82 138//82 142//82
f 139//109 138//109 169//109
f 137//110 139//110 170//110
f 168//111 140//111 137//111
f 172//112 141//112 140//112
f 145//79 141//79 172//79
f 143//113 145//113 173//113
f 150//114 143//114 178//114
f 212//99 182//99 180//99
f 180//315 208//315 206//315
f 189//100 182//100 212//100
f 220//58 185//58 189//58
f 188//101 185//101 220//101
f 188//102 215//102 214//102
f 186//103 214//103 213//103
f 187//104 213//104 219//104
f 190//64 184//64 219//64
f 216//105 181//105 190//105
f 181//106 216//106 207//106
f 209//116 195//116 183//116
f 210//108 196//108 195//108
f 198//82 196//82 210//82
f 193//109 198//109 202//109
f 192//110 193//110 201//110
f 194//111 192//111 200//111
f 199//112 194//112 204//112
f 197//79 199//79 203//79
f 191//113 197//113 211//113
f 208//316 180//316 179//316
f 179//317 191//317 205//317
f 221//204 224//204 226//204
f 224//2 228//2 229//2
f 222//203 227//203 229//203
f 227//4 231//4 232//4
f 223//202 230//202 232//202
f 230//6 225//6 226//6
f 233//201 236//201 238//201
f 236//9 240//9 241//9
f 234//200 239//200 241//200
f 239//11 243//11 244//11
f 235//199 242//199 244//199
f 242//13 237//13 238//13
f 245//198 248//198 250//198
f 248//16 252//16 253//16
f 246//197 251//197 253//197
f 251//18 255//18 256//18
f 247//297 254//297 256//297
f 254//20 249//20 250//20
f 257//298 260//298 262//298
f 260//23 264//23 265//23
f 258//299 263//299 265//299
f 263//25 267//25 268//25
f 259//300 266//300 268//300
f 266//27 261//27 262//27
f 269//301 272//301 274//301
f 272//30 276//30 277//30
f 270//302 275//302 277//302
f 275//32 279//32 280//32
f 271//303 278//303 280//303
f 278//34 273//34 274//34
f 281//304 284//304 286//304
f 284//37 288//37 289//37
f 282//305 287//305 289//305
f 287//39 291//39 292//39
f 283//306 290//306 292//306
f 290//41 285//41 286//41
f 293//307 296//307 298//307
f 296//44 300//44 301//44
f 294//308 299//308 301//308
f 299//46 303//46 304//46
f 295//309 302//309 304//309
f 302//48 297//48 298//48
f 305//310 308//310 310//310
f 308//51 312//51 313//51
f 306//311 311//311 313//311
f 311//53 315//53 316//53
f 307//312 314//312 316//312
f 314//55 309//55 310//55
f 245//57 221//57 225//57
f 248//58 225//58 230//58
f 252//59 230//59 223//59
f 222//60 233//60 237//60
f 227//61 237//61 242//61
f 231//62 242//62 235//62
f 234//63 257//63 261//63
f 239//64 261//64 266//64
f 243//65 266//65 259//65
f 258//66 247//66 255//66
f 263//67 255//67 251//67
f 267//68 251//68 246//68
f 293//69 245//69 249//69
f 296//70 249//70 254//70
f 300//71 254//71 247//71
f 257//72 305//72 309//72
f 260//73 309//73 314//73
f 264//74 314//74 307//74
f 306//75 295//75 303//75
f 311//76 303//76 299//76
f 315//77 299//77 294//77
f 269//78 293//78 297//78
f 272//79 297//79 302//79
f 276//80 302//80 295//80
f 305//81 281//81 285//81
f 308//82 285//82 290//82
f 312//83 290//83 283//83
f 282//84 271//84 279//84
f 287//85 279//85 275//85
f 291//86 275//86 270//86
f 221//87 269//87 273//87
f 224//88 273//88 278//88
f 228//89 278//89 271//89
f 281//90 234//90 240//90
f 284//91 240//91 236//91
f 288//92 236//92 233//92
f 245//93 293//93 269//93
f 223//94 235//94 259//94
f 222//95 329//95 336//95
f 222//95 336//95 326//95
f 413//95 401//95 233//95
f 419//95 413//95 233//95
f 222//95 326//95 328//95
f 222//95 328//95 323//95
f 421//95 419//95 233//95
f 416//95 421//95 233//95
f 222//95 323//95 322//95
f 233//95 222//95 322//95
f 414//95 416//95 233//95
f 233//95 322//95 324//95
f 282//95 402//95 404//95
f 334//95 330//95 271//95
f 332//95 334//95 271//95
f 282//95 404//95 411//95
f 282//95 411//95 407//95
f 317//95 332//95 271//95
f 319//95 317//95 271//95
f 282//95 407//95 410//95
f 282//95 410//95 408//95
f 318//95 319//95 271//95
f 318//95 271//95 282//95
f 320//95 318//95 282//95
f 325//95 337//95 376//95
f 325//95 376//95 366//95
f 327//95 325//95 366//95
f 327//95 366//95 364//95
f 377//95 331//95 335//95
f 379//95 377//95 335//95
f 379//95 335//95 333//95
f 375//95 379//95 333//95
f 375//95 333//95 321//95
f 369//95 375//95 321//95
f 324//95 327//95 364//95
f 324//95 364//95 360//95
f 369//95 321//95 320//95
f 371//95 369//95 320//95
f 324//95 360//95 361//95
f 324//95 361//95 359//95
f 368//95 371//95 320//95
f 368//95 320//95 282//95
f 368//95 282//95 408//95
f 370//95 368//95 408//95
f 370//95 408//95 409//95
f 373//95 370//95 409//95
f 373//95 409//95 406//95
f 374//95 373//95 406//95
f 374//95 406//95 412//95
f 378//95 374//95 412//95
f 378//95 412//95 403//95
f 372//95 378//95 403//95
f 372//95 403//95 405//95
f 365//95 372//95 405//95
f 365//95 405//95 417//95
f 367//95 365//95 417//95
f 367//95 417//95 418//95
f 363//95 367//95 418//95
f 363//95 418//95 420//95
f 362//95 363//95 420//95
f 362//95 420//95 415//95
f 233//95 324//95 359//95
f 359//95 362//95 415//95
f 414//95 233//95 359//95
f 233//95 401//95 402//95
f 376//95 337//95 331//95
f 271//95 330//95 329//95
f 305//96 257//96 234//96
f 434//97 428//97 307//97
f 294//97 345//97 358//97
f 294//97 358//97 350//97
f 439//97 434//97 307//97
f 442//97 439//97 307//97
f 294//97 350//97 355//97
f 294//97 355//97 353//97
f 437//97 442//97 307//97
f 436//97 437//97 307//97
f 294//97 353//97 352//97
f 307//97 294//97 352//97
f 307//97 352//97 354//97
f 258//97 430//97 427//97
f 348//97 346//97 247//97
f 343//97 348//97 247//97
f 258//97 427//97 433//97
f 258//97 433//97 425//97
f 341//97 343//97 247//97
f 339//97 341//97 247//97
f 258//97 425//97 426//97
f 258//97 426//97 422//97
f 338//97 339//97 247//97
f 338//97 247//97 258//97
f 340//97 338//97 258//97
f 351//97 357//97 398//97
f 351//97 398//97 382//97
f 356//97 351//97 382//97
f 356//97 382//97 380//97
f 397//97 347//97 349//97
f 399//97 397//97 349//97
f 399//97 349//97 344//97
f 396//97 399//97 344//97
f 396//97 344//97 342//97
f 391//97 396//97 342//97
f 354//97 356//97 380//97
f 354//97 380//97 386//97
f 391//97 342//97 340//97
f 392//97 391//97 340//97
f 354//97 386//97 387//97
f 354//97 387//97 384//97
f 389//97 392//97 340//97
f 389//97 340//97 258//97
f 389//97 258//97 422//97
f 390//97 389//97 422//97
f 390//97 422//97 423//97
f 394//97 390//97 423//97
f 394//97 423//97 424//97
f 395//97 394//97 424//97
f 395//97 424//97 432//97
f 400//97 395//97 432//97
f 400//97 432//97 431//97
f 393//97 400//97 431//97
f 393//97 431//97 429//97
f 383//97 393//97 429//97
f 383//97 429//97 438//97
f 381//97 383//97 438//97
f 381//97 438//97 440//97
f 388//97 381//97 440//97
f 388//97 440//97 441//97
f 385//97 388//97 441//97
f 385//97 441//97 435//97
f 307//97 354//97 384//97
f 384//97 385//97 435//97
f 436//97 307//97 384//97
f 430//97 258//97 307//97
f 357//97 347//97 397//97
f 345//97 294//97 247//97
f 295//98 306//98 283//98
f 335//99 331//99 347//99
f 333//100 335//100 357//100
f 333//58 351//58 356//58
f 321//101 356//101 354//101
f 320//102 354//102 352//102
f 318//103 352//103 353//103
f 319//104 353//104 355//104
f 317//64 355//64 350//64
f 358//105 334//105 332//105
f 358//106 345//106 329//106
f 330//318 334//318 358//318
f 346//319 348//319 336//319
f 336//116 329//116 345//116
f 343//108 326//108 336//108
f 328//82 326//82 343//82
f 323//109 328//109 341//109
f 322//110 323//110 339//110
f 324//111 322//111 338//111
f 327//112 324//112 340//112
f 344//79 325//79 327//79
f 337//113 325//113 344//113
f 331//114 337//114 349//114
f 378//99 372//99 393//99
f 374//100 378//100 383//100
f 373//58 374//58 381//58
f 373//101 388//101 385//101
f 370//102 385//102 384//102
f 368//103 384//103 387//103
f 371//104 387//104 386//104
f 380//64 375//64 369//64
f 382//105 379//105 375//105
f 379//106 382//106 398//106
f 398//313 376//313 377//313
f 397//320 399//320 366//320
f 366//116 376//116 398//116
f 396//108 364//108 366//108
f 391//82 360//82 364//82
f 361//109 360//109 391//109
f 359//110 361//110 392//110
f 390//111 362//111 359//111
f 394//112 363//112 362//112
f 367//79 363//79 394//79
f 365//113 367//113 395//113
f 372//114 365//114 400//114
f 434//99 404//99 402//99
f 402//315 430//315 428//315
f 411//100 404//100 434//100
f 442//58 407//58 411//58
f 410//101 407//101 442//101
f 410//102 437//102 436//102
f 408//103 436//103 435//103
f 409//104 435//104 441//104
f 412//64 406//64 441//64
f 438//105 403//105 412//105
f 403//106 438//106 429//106
f 431//116 417//116 405//116
f 432//108 418//108 417//108
f 420//82 418//82 432//82
f 415//109 420//109 424//109
f 414//110 415//110 423//110
f 416//111 414//111 422//111
f 421//112 416//112 426//112
f 419//79 421//79 425//79
f 413//113 419//113 433//113
f 430//316 402//316 401//316
f 401//317 413//317 427//317
f 126//116 109//116 124//116
f 109//95 522//95 113//95
usemtl Shell
f 443//121 448//121 447//121
f 446//122 451//122 448//122
f 444//123 451//123 450//123
f 449//124 454//124 451//124
f 445//125 454//125 453//125
f 452//126 448//126 454//126
f 448//127 451//127 454//127
f 455//128 460//128 459//128
f 458//129 463//129 460//129
f 456//130 463//130 462//130
f 461//131 466//131 463//131
f 457//132 466//132 465//132
f 464//133 460//133 466//133
f 460//134 463//134 466//134
f 467//135 472//135 471//135
f 470//136 475//136 472//136
f 468//137 475//137 474//137
f 473//138 478//138 475//138
f 469//139 478//139 477//139
f 476//140 472//140 478//140
f 472//141 475//141 478//141
f 479//142 484//142 483//142
f 482//143 487//143 484//143
f 480//144 487//144 486//144
f 485//145 490//145 487//145
f 481//146 490//146 489//146
f 488//147 484//147 490//147
f 484//148 487//148 490//148
f 443//149 493//149 492//149
f 447//150 495//150 493//150
f 445//151 495//151 452//151
f 494//152 498//152 495//152
f 491//153 498//153 497//153
f 496//154 493//154 498//154
f 493//155 495//155 498//155
f 456//156 501//156 500//156
f 462//157 503//157 501//157
f 455//158 503//158 458//158
f 502//159 506//159 503//159
f 499//160 506//160 505//160
f 504//161 501//161 506//161
f 501//162 503//162 506//162
f 468//163 509//163 508//163
f 474//164 511//164 509//164
f 467//165 511//165 470//165
f 510//166 514//166 511//166
f 507//167 514//167 513//167
f 512//168 509//168 514//168
f 509//169 511//169 514//169
f 479//170 518//170 482//170
f 516//171 521//171 518//171
f 515//172 521//172 520//172
f 519//173 524//173 521//173
f 480//174 524//174 523//174
f 486//175 518//175 524//175
f 518//176 521//176 524//176
f 443//177 483//177 446//177
f 446//178 488//178 450//178
f 450//179 481//179 444//179
f 469//180 489//180 476//180
f 476//73 485//73 471//73
f 471//181 480//181 467//181
f 457//182 477//182 464//182
f 464//183 473//183 459//183
f 459//184 468//184 455//184
f 444//185 465//185 449//185
f 449//70 461//70 453//70
f 453//186 456//186 445//186
f 491//187 520//187 496//187
f 496//188 516//188 492//188
f 492//189 479//189 443//189
f 445//190 500//190 494//190
f 494//88 504//88 497//88
f 497//191 499//191 491//191
f 455//192 508//192 502//192
f 502//193 512//193 505//193
f 505//194 507//194 499//194
f 467//195 523//195 510//195
f 510//91 519//91 513//91
f 513//196 515//196 507//196
f 481//97 457//97 444//97
f 491//95 507//95 515//95
f 443//321 446//321 448//321
f 446//122 450//122 451//122
f 444//322 449//322 451//322
f 449//323 453//323 454//323
f 445//324 452//324 454//324
f 452//325 447//325 448//325
f 455//326 458//326 460//326
f 458//327 462//327 463//327
f 456//328 461//328 463//328
f 461//329 465//329 466//329
f 457//330 464//330 466//330
f 464//331 459//331 460//331
f 467//332 470//332 472//332
f 470//333 474//333 475//333
f 468//334 473//334 475//334
f 473//335 477//335 478//335
f 469//336 476//336 478//336
f 476//337 471//337 472//337
f 479//338 482//338 484//338
f 482//339 486//339 487//339
f 480//340 485//340 487//340
f 485//341 489//341 490//341
f 481//342 488//342 490//342
f 488//343 483//343 484//343
f 443//344 447//344 493//344
f 447//345 452//345 495//345
f 445//346 494//346 495//346
f 494//347 497//347 498//347
f 491//348 496//348 498//348
f 496//349 492//349 493//349
f 456//350 462//350 501//350
f 462//351 458//351 503//351
f 455//352 502//352 503//352
f 502//159 505//159 506//159
f 499//353 504//353 506//353
f 504//354 500//354 501//354
f 468//355 474//355 509//355
f 474//356 470//356 511//356
f 467//357 510//357 511//357
f 510//358 513//358 514//358
f 507//359 512//359 514//359
f 512//360 508//360 509//360
f 479//361 516//361 518//361
f 516//362 520//362 521//362
f 515//363 519//363 521//363
f 519//364 523//364 524//364
f 480//365 486//365 524//365
f 486//366 482//366 518//366
f 443//367 479//367 483//367
f 446//368 483//368 488//368
f 450//369 488//369 481//369
f 469//180 481//180 489//180
f 476//73 489//73 485//73
f 471//181 485//181 480//181
f 457//370 469//370 477//370
f 464//371 477//371 473//371
f 459//372 473//372 468//372
f 444//185 457//185 465//185
f 449//70 465//70 461//70
f 453//186 461//186 456//186
f 491//373 515//373 520//373
f 496//374 520//374 516//374
f 492//375 516//375 479//375
f 445//190 456//190 500//190
f 494//88 500//88 504//88
f 497//191 504//191 499//191
f 455//376 468//376 508//376
f 502//377 508//377 512//377
f 505//378 512//378 507//378
f 467//195 480//195 523//195
f 510//91 523//91 519//91
f 513//196 519//196 515//196
f 481//97 469//97 457//97
f 491//95 499//95 507//95
usemtl DetailTeal
f 525//205 530//205 529//205
f 528//206 533//206 530//206
f 526//207 533//207 532//207
f 531//208 536//208 533//208
f 527//209 536//209 535//209
f 534//210 530//210 536//210
f 530//211 533//211 536//211
f 537//212 542//212 541//212
f 540//213 545//213 542//213
f 538//214 545//214 544//214
f 543//215 548//215 545//215
f 539//216 548//216 547//216
f 546//217 542//217 548//217
f 542//218 545//218 548//218
f 549//219 554//219 553//219
f 552//220 557//220 554//220
f 550//221 557//221 556//221
f 555//222 560//222 557//222
f 551//223 560//223 559//223
f 558//224 554//224 560//224
f 554//225 557//225 560//225
f 561//226 566//226 565//226
f 564//227 569//227 566//227
f 562//228 569//228 568//228
f 567//229 572//229 569//229
f 563//230 572//230 571//230
f 570//231 566//231 572//231
f 566//232 569//232 572//232
f 573//233 578//233 577//233
f 576//234 581//234 578//234
f 574//235 581//235 580//235
f 579//236 584//236 581//236
f 575//237 584//237 583//237
f 582//238 578//238 584//238
f 578//239 581//239 584//239
f 585//240 590//240 589//240
f 588//241 593//241 590//241
f 586//242 593//242 592//242
f 591//243 596//243 593//243
f 587//244 596//244 595//244
f 594//245 590//245 596//245
f 590//246 593//246 596//246
f 597//247 602//247 601//247
f 600//248 605//248 602//248
f 598//249 605//249 604//249
f 603//250 608//250 605//250
f 599//251 608//251 607//251
f 606//252 602//252 608//252
f 602//253 605//253 608//253
f 609//254 614//254 613//254
f 612//255 617//255 614//255
f 610//256 617//256 616//256
f 615//257 620//257 617//257
f 611//258 620//258 619//258
f 618//259 614//259 620//259
f 614//260 617//260 620//260
f 549//261 529//261 552//261
f 552//58 534//58 556//58
f 556//262 527//262 550//262
f 526//263 541//263 531//263
f 531//61 546//61 535//61
f 535//264 539//264 527//264
f 538//265 565//265 543//265
f 543//64 570//64 547//64
f 547//266 563//266 539//266
f 562//267 559//267 567//267
f 567//67 555//67 571//67
f 571//268 550//268 563//268
f 597//269 553//269 600//269
f 600//70 558//70 604//70
f 604//270 551//270 598//270
f 561//271 613//271 564//271
f 564//73 618//73 568//73
f 568//272 611//272 562//272
f 610//273 607//273 615//273
f 615//76 603//76 619//76
f 619//274 598//274 611//274
f 573//275 601//275 576//275
f 576//79 606//79 580//79
f 580//276 599//276 574//276
f 609//277 589//277 612//277
f 612//82 594//82 616//82
f 616//278 587//278 610//278
f 586//279 583//279 591//279
f 591//85 579//85 595//85
f 595//280 574//280 587//280
f 525//281 577//281 528//281
f 528//88 582//88 532//88
f 532//282 575//282 526//282
f 585//283 544//283 588//283
f 588//91 540//91 592//91
f 592//284 537//284 586//284
f 549//93 573//93 525//93
f 527//94 563//94 550//94
f 575//95 537//95 526//95
f 609//96 538//96 585//96
f 551//97 611//97 598//97
f 599//98 587//98 574//98
f 525//379 528//379 530//379
f 528//206 532//206 533//206
f 526//380 531//380 533//380
f 531//208 535//208 536//208
f 527//381 534//381 536//381
f 534//210 529//210 530//210
f 537//382 540//382 542//382
f 540//213 544//213 545//213
f 538//383 543//383 545//383
f 543//215 547//215 548//215
f 539//384 546//384 548//384
f 546//217 541//217 542//217
f 549//385 552//385 554//385
f 552//220 556//220 557//220
f 550//386 555//386 557//386
f 555//222 559//222 560//222
f 551//387 558//387 560//387
f 558//224 553//224 554//224
f 561//388 564//388 566//388
f 564//227 568//227 569//227
f 562//389 567//389 569//389
f 567//229 571//229 572//229
f 563//390 570//390 572//390
f 570//231 565//231 566//231
f 573//391 576//391 578//391
f 576//234 580//234 581//234
f 574//392 579//392 581//392
f 579//236 583//236 584//236
f 575//393 582//393 584//393
f 582//238 577//238 578//238
f 585//394 588//394 590//394
f 588//241 592//241 593//241
f 586//395 591//395 593//395
f 591//243 595//243 596//243
f 587//396 594//396 596//396
f 594//245 589//245 590//245
f 597//397 600//397 602//397
f 600//248 604//248 605//248
f 598//398 603//398 605//398
f 603//250 607//250 608//250
f 599//399 606//399 608//399
f 606//252 601//252 602//252
f 609//400 612//400 614//400
f 612//255 616//255 617//255
f 610//401 615//401 617//401
f 615//257 619//257 620//257
f 611//402 618//402 620//402
f 618//259 613//259 614//259
f 549//261 525//261 529//261
f 552//58 529//58 534//58
f 556//262 534//262 527//262
f 526//263 537//263 541//263
f 531//61 541//61 546//61
f 535//264 546//264 539//264
f 538//265 561//265 565//265
f 543//64 565//64 570//64
f 547//266 570//266 563//266
f 562//267 551//267 559//267
f 567//67 559//67 555//67
f 571//268 555//268 550//268
f 597//269 549//269 553//269
f 600//70 553//70 558//70
f 604//403 558//403 551//403
f 561//271 609//271 613//271
f 564//73 613//73 618//73
f 568//404 618//404 611//404
f 610//273 599//273 607//273
f 615//76 607//76 603//76
f 619//274 603//274 598//274
f 573//275 597//275 601//275
f 576//79 601//79 606//79
f 580//276 606//276 599//276
f 609//277 585//277 589//277
f 612//82 589//82 594//82
f 616//278 594//278 587//278
f 586//279 575//279 583//279
f 591//85 583//85 579//85
f 595//280 579//280 574//280
f 525//281 573//281 577//281
f 528//88 577//88 582//88
f 532//282 582//282 575//282
f 585//283 538//283 544//283
f 588//91 544//91 540//91
f 592//284 540//284 537//284
f 549//93 597//93 573//93
f 527//94 539//94 563//94
f 575//95 586//95 537//95
f 609//96 561//96 538//96
f 551//97 562//97 611//97
f 599//98 610//98 587//98
usemtl DetailGraphite
f 621//1 626//1 625//1
f 624//2 629//2 626//2
f 622//3 629//3 628//3
f 627//4 632//4 629//4
f 623//5 632//5 631//5
f 630//6 626//6 632//6
f 626//285 629//285 632//285
f 633//8 638//8 637//8
f 636//9 641//9 638//9
f 634//10 641//10 640//10
f 639//11 644//11 641//11
f 635//12 644//12 643//12
f 642//13 638//13 644//13
f 638//286 641//286 644//286
f 645//15 650//15 649//15
f 648//16 653//16 650//16
f 646//17 653//17 652//17
f 651//18 656//18 653//18
f 647//19 656//19 655//19
f 654//20 650//20 656//20
f 650//21 653//21 656//21
f 657//22 662//22 661//22
f 660//23 665//23 662//23
f 658//24 665//24 664//24
f 663//25 668//25 665//25
f 659//26 668//26 667//26
f 666//27 662//27 668//27
f 662//28 665//28 668//28
f 669//29 674//29 673//29
f 672//30 677//30 674//30
f 670//31 677//31 676//31
f 675//32 680//32 677//32
f 671//33 680//33 679//33
f 678//34 674//34 680//34
f 674//287 677//287 680//287
f 681//36 686//36 685//36
f 684//37 689//37 686//37
f 682//38 689//38 688//38
f 687//39 692//39 689//39
f 683//40 692//40 691//40
f 690//41 686//41 692//41
f 686//288 689//288 692//288
f 693//43 698//43 697//43
f 696//44 701//44 698//44
f 694//45 701//45 700//45
f 699//46 704//46 701//46
f 695//47 704//47 703//47
f 702//48 698//48 704//48
f 698//49 701//49 704//49
f 705//50 710//50 709//50
f 708//51 713//51 710//51
f 706//52 713//52 712//52
f 711//53 716//53 713//53
f 707//54 716//54 715//54
f 714//55 710//55 716//55
f 710//56 713//56 716//56
f 645//57 625//57 648//57
f 648//58 630//58 652//58
f 652//59 623//59 646//59
f 622//60 637//60 627//60
f 627//61 642//61 631//61
f 631//62 635//62 623//62
f 634//63 661//63 639//63
f 639//64 666//64 643//64
f 643//65 659//65 635//65
f 658//66 655//66 663//66
f 663//67 651//67 667//67
f 667//68 646//68 659//68
f 693//69 649//69 696//69
f 696//70 654//70 700//70
f 700//71 647//71 694//71
f 657//72 709//72 660//72
f 660//73 714//73 664//73
f 664//74 707//74 658//74
f 706//75 703//75 711//75
f 711//76 699//76 715//76
f 715//77 694//77 707//77
f 669//78 697//78 672//78
f 672//79 702//79 676//79
f 676//80 695//80 670//80
f 705//81 685//81 708//81
f 708//82 690//82 712//82
f 712//83 683//83 706//83
f 682//84 679//84 687//84
f 687//85 675//85 691//85
f 691//86 670//86 683//86
f 621//87 673//87 624//87
f 624//88 678//88 628//88
f 628//89 671//89 622//89
f 681//90 640//90 684//90
f 684//91 636//91 688//91
f 688//92 633//92 682//92
f 645//93 669//93 621//93
f 623//94 659//94 646//94
f 671//95 633//95 622//95
f 705//96 634//96 681//96
f 647//97 707//97 694//97
f 695//98 683//98 670//98
f 621//204 624//204 626//204
f 624//2 628//2 629//2
f 622//203 627//203 629//203
f 627//4 631//4 632//4
f 623//202 630//202 632//202
f 630//6 625//6 626//6
f 633//201 636//201 638//201
f 636//9 640//9 641//9
f 634//200 639//200 641//200
f 639//11 643//11 644//11
f 635//199 642//199 644//199
f 642//13 637//13 638//13
f 645//198 648//198 650//198
f 648//16 652//16 653//16
f 646//197 651//197 653//197
f 651//18 655//18 656//18
f 647//297 654//297 656//297
f 654//20 649//20 650//20
f 657//298 660//298 662//298
f 660//23 664//23 665//23
f 658//299 663//299 665//299
f 663//25 667//25 668//25
f 659//300 666//300 668//300
f 666//27 661//27 662//27
f 669//301 672//301 674//301
f 672//30 676//30 677//30
f 670//302 675//302 677//302
f 675//32 679//32 680//32
f 671//303 678//303 680//303
f 678//34 673//34 674//34
f 681//304 684//304 686//304
f 684//37 688//37 689//37
f 682//305 687//305 689//305
f 687//39 691//39 692//39
f 683//306 690//306 692//306
f 690//41 685//41 686//41
f 693//307 696//307 698//307
f 696//44 700//44 701//44
f 694//308 699//308 701//308
f 699//46 703//46 704//46
f 695//309 702//309 704//309
f 702//48 697//48 698//48
f 705//310 708//310 710//310
f 708//51 712//51 713//51
f 706//311 711//311 713//311
f 711//53 715//53 716//53
f 707//312 714//312 716//312
f 714//55 709//55 710//55
f 645//57 621//57 625//57
f 648//58 625//58 630//58
f 652//59 630//59 623//59
f 622//60 633//60 637//60
f 627//61 637//61 642//61
f 631//62 642//62 635//62
f 634//63 657//63 661//63
f 639//64 661//64 666//64
f 643//65 666//65 659//65
f 658//66 647//66 655//66
f 663//67 655//67 651//67
f 667//68 651//68 646//68
f 693//69 645//69 649//69
f 696//70 649//70 654//70
f 700//71 654//71 647//71
f 657//72 705//72 709//72
f 660//73 709//73 714//73
f 664//74 714//74 707//74
f 706//75 695//75 703//75
f 711//76 703//76 699//76
f 715//77 699//77 694//77
f 669//78 693//78 697//78
f 672//79 697//79 702//79
f 676//80 702//80 695//80
f 705//81 681//81 685//81
f 708//82 685//82 690//82
f 712//83 690//83 683//83
f 682//84 671//84 679//84
f 687//85 679//85 675//85
f 691//86 675//86 670//86
f 621//87 669//87 673//87
f 624//88 673//88 678//88
f 628//89 678//89 671//89
f 681//90 634//90 640//90
f 684//91 640//91 636//91
f 688//92 636//92 633//92
f 645//93 693//93 669//93
f 623//94 635//94 659//94
f 671//95 682//95 633//95
f 705//96 657//96 634//96
f 647//97 658//97 707//97
f 695//98 706//98 683//98
usemtl BracketMetal
f 717//1 722//1 721//1
f 720//2 725//2 722//2
f 718//3 725//3 724//3
f 723//4 728//4 725//4
f 719//5 728//5 727//5
f 726//6 722//6 728//6
f 722//211 725//211 728//211
f 729//8 734//8 733//8
f 732//9 737//9 734//9
f 730//10 737//10 736//10
f 735//11 740//11 737//11
f 731//12 740//12 739//12
f 738//13 734//13 740//13
f 734//289 737//289 740//289
f 741//15 746//15 745//15
f 744//16 749//16 746//16
f 742//17 749//17 748//17
f 747//18 752//18 749//18
f 743//19 752//19 751//19
f 750//20 746//20 752//20
f 746//290 749//290 752//290
f 753//22 758//22 757//22
f 756//23 761//23 758//23
f 754//24 761//24 760//24
f 759//25 764//25 761//25
f 755//26 764//26 763//26
f 762//27 758//27 764//27
f 758//232 761//232 764//232
f 765//29 770//29 769//29
f 768//30 773//30 770//30
f 766//31 773//31 772//31
f 771//32 776//32 773//32
f 767//33 776//33 775//33
f 774//34 770//34 776//34
f 770//239 773//239 776//239
f 777//36 782//36 781//36
f 780//37 785//37 782//37
f 778//38 785//38 784//38
f 783//39 788//39 785//39
f 779//40 788//40 787//40
f 786//41 782//41 788//41
f 782//291 785//291 788//291
f 789//43 794//43 793//43
f 792//44 797//44 794//44
f 790//45 797//45 796//45
f 795//46 800//46 797//46
f 791//47 800//47 799//47
f 798//48 794//48 800//48
f 794//292 797//292 800//292
f 801//50 806//50 805//50
f 804//51 809//51 806//51
f 802//52 809//52 808//52
f 807//53 812//53 809//53
f 803//54 812//54 811//54
f 810//55 806//55 812//55
f 806//260 809//260 812//260
f 741//57 721//57 744//57
f 744//58 726//58 748//58
f 748//59 719//59 742//59
f 718//60 733//60 723//60
f 723//61 738//61 727//61
f 727//62 731//62 719//62
f 730//63 757//63 735//63
f 735//64 762//64 739//64
f 739//65 755//65 731//65
f 754//66 751//66 759//66
f 759//67 747//67 763//67
f 763//68 742//68 755//68
f 789//69 745//69 792//69
f 792//70 750//70 796//70
f 796//71 743//71 790//71
f 753//72 805//72 756//72
f 756//73 810//73 760//73
f 760//74 803//74 754//74
f 802//75 799//75 807//75
f 807//76 795//76 811//76
f 811//77 790//77 803//77
f 765//78 793//78 768//78
f 768//79 798//79 772//79
f 772//80 791//80 766//80
f 801//81 781//81 804//81
f 804//82 786//82 808//82
f 808//83 779//83 802//83
f 778//84 775//84 783//84
f 783//85 771//85 787//85
f 787//86 766//86 779//86
f 717//87 769//87 720//87
f 720//88 774//88 724//88
f 724//89 767//89 718//89
f 777//90 736//90 780//90
f 780//91 732//91 784//91
f 784//92 729//92 778//92
f 741//93 765//93 717//93
f 719//94 755//94 742//94
f 767//95 729//95 718//95
f 801//96 730//96 777//96
f 743//97 803//97 790//97
f 791//98 779//98 766//98
f 813//1 818//1 817//1
f 816//2 821//2 818//2
f 814//3 821//3 820//3
f 819//4 824//4 821//4
f 815//5 824//5 823//5
f 822//6 818//6 824//6
f 818//293 821//293 824//293
f 825//8 830//8 829//8
f 828//9 833//9 830//9
f 826//10 833//10 832//10
f 831//11 836//11 833//11
f 827//12 836//12 835//12
f 834//13 830//13 836//13
f 830//218 833//218 836//218
f 837//15 842//15 841//15
f 840//16 845//16 842//16
f 838//17 845//17 844//17
f 843//18 848//18 845//18
f 839//19 848//19 847//19
f 846//20 842//20 848//20
f 842//225 845//225 848//225
f 849//22 854//22 853//22
f 852//23 857//23 854//23
f 850//24 857//24 856//24
f 855//25 860//25 857//25
f 851//26 860//26 859//26
f 858//27 854//27 860//27
f 854//294 857//294 860//294
f 861//29 866//29 865//29
f 864//30 869//30 866//30
f 862//31 869//31 868//31
f 867//32 872//32 869//32
f 863//33 872//33 871//33
f 870//34 866//34 872//34
f 866//295 869//295 872//295
f 873//36 878//36 877//36
f 876//37 881//37 878//37
f 874//38 881//38 880//38
f 879//39 884//39 881//39
f 875//40 884//40 883//40
f 882//41 878//41 884//41
f 878//246 881//246 884//246
f 885//43 890//43 889//43
f 888//44 893//44 890//44
f 886//45 893//45 892//45
f 891//46 896//46 893//46
f 887//47 896//47 895//47
f 894//48 890//48 896//48
f 890//253 893//253 896//253
f 897//50 902//50 901//50
f 900//51 905//51 902//51
f 898//52 905//52 904//52
f 903//53 908//53 905//53
f 899//54 908//54 907//54
f 906//55 902//55 908//55
f 902//296 905//296 908//296
f 837//57 817//57 840//57
f 840//58 822//58 844//58
f 844//59 815//59 838//59
f 814//60 829//60 819//60
f 819//61 834//61 823//61
f 823//62 827//62 815//62
f 826//63 853//63 831//63
f 831//64 858//64 835//64
f 835//65 851//65 827//65
f 850//66 847//66 855//66
f 855//67 843//67 859//67
f 859//68 838//68 851//68
f 885//69 841//69 888//69
f 888//70 846//70 892//70
f 892//71 839//71 886//71
f 849//72 901//72 852//72
f 852//73 906//73 856//73
f 856//74 899//74 850//74
f 898//75 895//75 903//75
f 903//76 891//76 907//76
f 907//77 886//77 899//77
f 861//78 889//78 864//78
f 864//79 894//79 868//79
f 868//80 887//80 862//80
f 897//81 877//81 900//81
f 900//82 882//82 904//82
f 904//83 875//83 898//83
f 874//84 871//84 879//84
f 879//85 867//85 883//85
f 883//86 862//86 875//86
f 813//87 865//87 816//87
f 816//88 870//88 820//88
f 820//89 863//89 814//89
f 873//90 832//90 876//90
f 876//91 828//91 880//91
f 880//92 825//92 874//92
f 837//93 861//93 813//93
f 815//94 851//94 838//94
f 863//95 825//95 814//95
f 897//96 826//96 873//96
f 839//97 899//97 886//97
f 887//98 875//98 862//98
f 717//204 720//204 722//204
f 720//2 724//2 725//2
f 718//203 723//203 725//203
f 723//4 727//4 728//4
f 719//202 726//202 728//202
f 726//6 721//6 722//6
f 729//201 732//201 734//201
f 732//9 736//9 737//9
f 730//200 735//200 737//200
f 735//11 739//11 740//11
f 731//199 738//199 740//199
f 738//13 733//13 734//13
f 741//198 744//198 746//198
f 744//16 748//16 749//16
f 742//197 747//197 749//197
f 747//18 751//18 752//18
f 743//297 750//297 752//297
f 750//20 745//20 746//20
f 753//298 756//298 758//298
f 756//23 760//23 761//23
f 754//299 759//299 761//299
f 759//25 763//25 764//25
f 755//300 762//300 764//300
f 762//27 757//27 758//27
f 765//301 768//301 770//301
f 768//30 772//30 773//30
f 766//302 771//302 773//302
f 771//32 775//32 776//32
f 767//303 774//303 776//303
f 774//34 769//34 770//34
f 777//304 780//304 782//304
f 780//37 784//37 785//37
f 778//305 783//305 785//305
f 783//39 787//39 788//39
f 779//306 786//306 788//306
f 786//41 781//41 782//41
f 789//307 792//307 794//307
f 792//44 796//44 797//44
f 790//308 795//308 797//308
f 795//46 799//46 800//46
f 791//309 798//309 800//309
f 798//48 793//48 794//48
f 801//310 804//310 806//310
f 804//51 808//51 809//51
f 802//311 807//311 809//311
f 807//53 811//53 812//53
f 803//312 810//312 812//312
f 810//55 805//55 806//55
f 741//57 717//57 721//57
f 744//58 721//58 726//58
f 748//59 726//59 719//59
f 718//60 729//60 733//60
f 723//61 733//61 738//61
f 727//62 738//62 731//62
f 730//63 753//63 757//63
f 735//64 757//64 762//64
f 739//65 762//65 755//65
f 754//66 743//66 751//66
f 759//67 751//67 747//67
f 763//68 747//68 742//68
f 789//69 741//69 745//69
f 792//70 745//70 750//70
f 796//71 750//71 743//71
f 753//72 801//72 805//72
f 756//73 805//73 810//73
f 760//74 810//74 803//74
f 802//75 791//75 799//75
f 807//76 799//76 795//76
f 811//77 795//77 790//77
f 765//78 789//78 793//78
f 768//79 793//79 798//79
f 772//80 798//80 791//80
f 801//81 777//81 781//81
f 804//82 781//82 786//82
f 808//83 786//83 779//83
f 778//84 767//84 775//84
f 783//85 775//85 771//85
f 787//86 771//86 766//86
f 717//87 765//87 769//87
f 720//88 769//88 774//88
f 724//89 774//89 767//89
f 777//90 730//90 736//90
f 780//91 736//91 732//91
f 784//92 732//92 729//92
f 741//93 789//93 765//93
f 719//94 731//94 755//94
f 767//95 778//95 729//95
f 801//96 753//96 730//96
f 743//97 754//97 803//97
f 791//98 802//98 779//98
f 813//204 816//204 818//204
f 816//2 820//2 821//2
f 814//203 819//203 821//203
f 819//4 823//4 824//4
f 815//202 822//202 824//202
f 822//6 817//6 818//6
f 825//201 828//201 830//201
f 828//9 832//9 833//9
f 826//200 831//200 833//200
f 831//11 835//11 836//11
f 827//199 834//199 836//199
f 834//13 829//13 830//13
f 837//198 840//198 842//198
f 840//16 844//16 845//16
f 838//197 843//197 845//197
f 843//18 847//18 848//18
f 839//297 846//297 848//297
f 846//20 841//20 842//20
f 849//298 852//298 854//298
f 852//23 856//23 857//23
f 850//299 855//299 857//299
f 855//25 859//25 860//25
f 851//300 858//300 860//300
f 858//27 853//27 854//27
f 861//301 864//301 866//301
f 864//30 868//30 869//30
f 862//302 867//302 869//302
f 867//32 871//32 872//32
f 863//303 870//303 872//303
f 870//34 865//34 866//34
f 873//304 876//304 878//304
f 876//37 880//37 881//37
f 874//305 879//305 881//305
f 879//39 883//39 884//39
f 875//306 882//306 884//306
f 882//41 877//41 878//41
f 885//307 888//307 890//307
f 888//44 892//44 893//44
f 886//308 891//308 893//308
f 891//46 895//46 896//46
f 887//309 894//309 896//309
f 894//48 889//48 890//48
f 897//310 900//310 902//310
f 900//51 904//51 905//51
f 898//311 903//311 905//311
f 903//53 907//53 908//53
f 899//312 906//312 908//312
f 906//55 901//55 902//55
f 837//57 813//57 817//57
f 840//58 817//58 822//58
f 844//59 822//59 815//59
f 814//60 825//60 829//60
f 819//61 829//61 834//61
f 823//62 834//62 827//62
f 826//63 849//63 853//63
f 831//64 853//64 858//64
f 835//65 858//65 851//65
f 850//66 839//66 847//66
f 855//67 847//67 843//67
f 859//68 843//68 838//68
f 885//69 837//69 841//69
f 888//70 841//70 846//70
f 892//71 846//71 839//71
f 849//72 897//72 901//72
f 852//73 901//73 906//73
f 856//74 906//74 899//74
f 898//75 887//75 895//75
f 903//76 895//76 891//76
f 907//77 891//77 886//77
f 861//78 885//78 889//78
f 864//79 889//79 894//79
f 868//80 894//80 887//80
f 897//81 873//81 877//81
f 900//82 877//82 882//82
f 904//83 882//83 875//83
f 874//84 863//84 871//84
f 879//85 871//85 867//85
f 883//86 867//86 862//86
f 813//87 861//87 865//87
f 816//88 865//88 870//88
f 820//89 870//89 863//89
f 873//90 826//90 832//90
f 876//91 832//91 828//91
f 880//92 828//92 825//92
f 837//93 885//93 861//93
f 815//94 827//94 851//94
f 863//95 874//95 825//95
f 897//96 849//96 826//96
f 839//97 850//97 899//97
f 887//98 898//98 875//98
