# Blender 5.2.1 LTS
# www.blender.org
mtllib modular_gripper_hand.mtl
o modular_gripper_hand
v -0.028000 -0.008000 0.023000
v -0.028000 -0.002000 0.029000
v -0.034000 -0.002000 0.023000
v -0.028000 -0.007198 0.025996
v -0.030996 -0.007198 0.023000
v -0.030869 -0.006420 0.025869
v -0.030996 -0.002000 0.028198
v -0.028000 -0.004996 0.028198
v -0.030869 -0.004869 0.027420
v -0.033198 -0.004996 0.023000
v -0.033198 -0.002000 0.025996
v -0.032420 -0.004869 0.025869
v -0.028000 0.026000 0.029000
v -0.028000 0.032000 0.023000
v -0.034000 0.026000 0.023000
v -0.028000 0.028996 0.028198
v -0.030996 0.026000 0.028198
v -0.030869 0.028869 0.027420
v -0.030996 0.031198 0.023000
v -0.028000 0.031198 0.025996
v -0.030869 0.030420 0.025869
v -0.033198 0.026000 0.025996
v -0.033198 0.028996 0.023000
v -0.032420 0.028869 0.025869
v -0.028000 -0.008000 -0.023000
v -0.034000 -0.002000 -0.023000
v -0.028000 -0.002000 -0.029000
v -0.030996 -0.007198 -0.023000
v -0.028000 -0.007198 -0.025996
v -0.030869 -0.006420 -0.025869
v -0.033198 -0.002000 -0.025996
v -0.033198 -0.004996 -0.023000
v -0.032420 -0.004869 -0.025869
v -0.028000 -0.004996 -0.028198
v -0.030996 -0.002000 -0.028198
v -0.030869 -0.004869 -0.027420
v -0.028000 0.032000 -0.023000
v -0.028000 0.026000 -0.029000
v -0.034000 0.026000 -0.023000
v -0.028000 0.031198 -0.025996
v -0.030996 0.031198 -0.023000
v -0.030869 0.030420 -0.025869
v -0.030996 0.026000 -0.028198
v -0.028000 0.028996 -0.028198
v -0.030869 0.028869 -0.027420
v -0.033198 0.028996 -0.023000
v -0.033198 0.026000 -0.025996
v -0.032420 0.028869 -0.025869
v 0.028000 -0.008000 0.023000
v 0.034000 -0.002000 0.023000
v 0.028000 -0.002000 0.029000
v 0.030996 -0.007198 0.023000
v 0.028000 -0.007198 0.025996
v 0.030869 -0.006420 0.025869
v 0.033198 -0.002000 0.025996
v 0.033198 -0.004996 0.023000
v 0.032420 -0.004869 0.025869
v 0.028000 -0.004996 0.028198
v 0.030996 -0.002000 0.028198
v 0.030869 -0.004869 0.027420
v 0.028000 0.032000 0.023000
v 0.028000 0.026000 0.029000
v 0.034000 0.026000 0.023000
v 0.028000 0.031198 0.025996
v 0.030996 0.031198 0.023000
v 0.030869 0.030420 0.025869
v 0.030996 0.026000 0.028198
v 0.028000 0.028996 0.028198
v 0.030869 0.028869 0.027420
v 0.033198 0.028996 0.023000
v 0.033198 0.026000 0.025996
v 0.032420 0.028869 0.025869
v 0.028000 -0.008000 -0.023000
v 0.028000 -0.002000 -0.029000
v 0.034000 -0.002000 -0.023000
v 0.028000 -0.007198 -0.025996
v 0.030996 -0.007198 -0.023000
v 0.030869 -0.006420 -0.025869
v 0.030996 -0.002000 -0.028198
v 0.028000 -0.004996 -0.028198
v 0.030869 -0.004869 -0.027420
v 0.033198 -0.004996 -0.023000
v 0.033198 -0.002000 -0.025996
v 0.032420 -0.004869 -0.025869
v 0.028000 0.032000 -0.023000
v 0.034000 0.026000 -0.023000
v 0.028000 0.026000 -0.029000
v 0.030996 0.031198 -0.023000
v 0.028000 0.031198 -0.025996
v 0.030869 0.030420 -0.025869
v 0.033198 0.026000 -0.025996
v 0.033198 0.028996 -0.023000
v 0.032420 0.028869 -0.025869
v 0.028000 0.028996 -0.028198
v 0.030996 0.026000 -0.028198
v 0.030869 0.028869 -0.027420
v -0.019000 -0.006500 0.032500
v -0.019000 -0.003500 0.035500
v -0.022000 -0.003500 0.032500
v -0.019000 -0.006099 0.033998
v -0.020498 -0.006099 0.032500
v -0.020435 -0.005710 0.033935
v -0.020498 -0.003500 0.035099
v -0.019000 -0.004998 0.035099
v -0.020435 -0.004935 0.034710
v -0.021599 -0.004998 0.032500
v -0.021599 -0.003500 0.033998
v -0.021210 -0.004935 0.033935
v -0.019000 0.023500 0.035500
v -0.019000 0.026500 0.032500
v -0.022000 0.023500 0.032500
v -0.019000 0.024998 0.035099
v -0.020498 0.023500 0.035099
v -0.020435 0.024935 0.034710
v -0.020498 0.026099 0.032500
v -0.019000 0.026099 0.033998
v -0.020435 0.025710 0.033935
v -0.021599 0.023500 0.033998
v -0.021599 0.024998 0.032500
v -0.021210 0.024935 0.033935
v -0.019000 -0.006500 0.029500
v -0.022000 -0.003500 0.029500
v -0.019000 -0.003500 0.026500
v -0.020498 -0.006099 0.029500
v -0.019000 -0.006099 0.028002
v -0.020435 -0.005710 0.028065
v -0.021599 -0.003500 0.028002
v -0.021599 -0.004998 0.029500
v -0.021210 -0.004935 0.028065
v -0.019000 -0.004998 0.026901
v -0.020498 -0.003500 0.026901
v -0.020435 -0.004935 0.027290
v -0.019000 0.026500 0.029500
v -0.019000 0.023500 0.026500
v -0.022000 0.023500 0.029500
v -0.019000 0.026099 0.028002
v -0.020498 0.026099 0.029500
v -0.020435 0.025710 0.028065
v -0.020498 0.023500 0.026901
v -0.019000 0.024998 0.026901
v -0.020435 0.024935 0.027290
v -0.021599 0.024998 0.029500
v -0.021599 0.023500 0.028002
v -0.021210 0.024935 0.028065
v 0.019000 -0.006500 0.032500
v 0.022000 -0.003500 0.032500
v 0.019000 -0.003500 0.035500
v 0.020498 -0.006099 0.032500
v 0.019000 -0.006099 0.033998
v 0.020435 -0.005710 0.033935
v 0.021599 -0.003500 0.033998
v 0.021599 -0.004998 0.032500
v 0.021210 -0.004935 0.033935
v 0.019000 -0.004998 0.035099
v 0.020498 -0.003500 0.035099
v 0.020435 -0.004935 0.034710
v 0.019000 0.026500 0.032500
v 0.019000 0.023500 0.035500
v 0.022000 0.023500 0.032500
v 0.019000 0.026099 0.033998
v 0.020498 0.026099 0.032500
v 0.020435 0.025710 0.033935
v 0.020498 0.023500 0.035099
v 0.019000 0.024998 0.035099
v 0.020435 0.024935 0.034710
v 0.021599 0.024998 0.032500
v 0.021599 0.023500 0.033998
v 0.021210 0.024935 0.033935
v 0.019000 -0.006500 0.029500
v 0.019000 -0.003500 0.026500
v 0.022000 -0.003500 0.029500
v 0.019000 -0.006099 0.028002
v 0.020498 -0.006099 0.029500
v 0.020435 -0.005710 0.028065
v 0.020498 -0.003500 0.026901
v 0.019000 -0.004998 0.026901
v 0.020435 -0.004935 0.027290
v 0.021599 -0.004998 0.029500
v 0.021599 -0.003500 0.028002
v 0.021210 -0.004935 0.028065
v 0.019000 0.026500 0.029500
v 0.022000 0.023500 0.029500
v 0.019000 0.023500 0.026500
v 0.020498 0.026099 0.029500
v 0.019000 0.026099 0.028002
v 0.020435 0.025710 0.028065
v 0.021599 0.023500 0.028002
v 0.021599 0.024998 0.029500
v 0.021210 0.024935 0.028065
v 0.019000 0.024998 0.026901
v 0.020498 0.023500 0.026901
v 0.020435 0.024935 0.027290
v -0.028000 -0.040000 0.019000
v -0.028000 -0.036000 0.023000
v -0.032000 -0.036000 0.019000
v -0.028000 -0.039466 0.020997
v -0.029997 -0.039466 0.019000
v -0.029913 -0.038947 0.020913
v -0.029997 -0.036000 0.022466
v -0.028000 -0.037997 0.022466
v -0.029913 -0.037913 0.021947
v -0.031466 -0.037997 0.019000
v -0.031466 -0.036000 0.020997
v -0.030947 -0.037913 0.020913
v -0.028000 -0.006000 0.023000
v -0.028000 -0.002000 0.019000
v -0.032000 -0.006000 0.019000
v -0.028000 -0.004003 0.022466
v -0.029997 -0.006000 0.022466
v -0.029913 -0.004087 0.021947
v -0.029997 -0.002534 0.019000
v -0.028000 -0.002534 0.020997
v -0.029913 -0.003053 0.020913
v -0.031466 -0.006000 0.020997
v -0.031466 -0.004003 0.019000
v -0.030947 -0.004087 0.020913
v -0.028000 -0.040000 -0.003000
v -0.032000 -0.036000 -0.003000
v -0.028000 -0.036000 -0.007000
v -0.029997 -0.039466 -0.003000
v -0.028000 -0.039466 -0.004997
v -0.029913 -0.038947 -0.004913
v -0.031466 -0.036000 -0.004997
v -0.031466 -0.037997 -0.003000
v -0.030947 -0.037913 -0.004913
v -0.028000 -0.037997 -0.006466
v -0.029997 -0.036000 -0.006466
v -0.029913 -0.037913 -0.005947
v -0.028000 -0.002000 -0.003000
v -0.028000 -0.006000 -0.007000
v -0.032000 -0.006000 -0.003000
v -0.028000 -0.002534 -0.004997
v -0.029997 -0.002534 -0.003000
v -0.029913 -0.003053 -0.004913
v -0.029997 -0.006000 -0.006466
v -0.028000 -0.004003 -0.006466
v -0.029913 -0.004087 -0.005947
v -0.031466 -0.004003 -0.003000
v -0.031466 -0.006000 -0.004997
v -0.030947 -0.004087 -0.004913
v -0.026000 -0.040000 0.019000
v -0.022000 -0.036000 0.019000
v -0.026000 -0.036000 0.023000
v -0.024003 -0.039466 0.019000
v -0.026000 -0.039466 0.020997
v -0.024087 -0.038947 0.020913
v -0.022534 -0.036000 0.020997
v -0.022534 -0.037997 0.019000
v -0.023053 -0.037913 0.020913
v -0.026000 -0.037997 0.022466
v -0.024003 -0.036000 0.022466
v -0.024087 -0.037913 0.021947
v -0.026000 -0.002000 0.019000
v -0.026000 -0.006000 0.023000
v -0.022000 -0.006000 0.019000
v -0.026000 -0.002534 0.020997
v -0.024003 -0.002534 0.019000
v -0.024087 -0.003053 0.020913
v -0.024003 -0.006000 0.022466
v -0.026000 -0.004003 0.022466
v -0.024087 -0.004087 0.021947
v -0.022534 -0.004003 0.019000
v -0.022534 -0.006000 0.020997
v -0.023053 -0.004087 0.020913
v -0.026000 -0.040000 -0.003000
v -0.026000 -0.036000 -0.007000
v -0.022000 -0.036000 -0.003000
v -0.026000 -0.039466 -0.004997
v -0.024003 -0.039466 -0.003000
v -0.024087 -0.038947 -0.004913
v -0.024003 -0.036000 -0.006466
v -0.026000 -0.037997 -0.006466
v -0.024087 -0.037913 -0.005947
v -0.022534 -0.037997 -0.003000
v -0.022534 -0.036000 -0.004997
v -0.023053 -0.037913 -0.004913
v -0.026000 -0.002000 -0.003000
v -0.022000 -0.006000 -0.003000
v -0.026000 -0.006000 -0.007000
v -0.024003 -0.002534 -0.003000
v -0.026000 -0.002534 -0.004997
v -0.024087 -0.003053 -0.004913
v -0.022534 -0.006000 -0.004997
v -0.022534 -0.004003 -0.003000
v -0.023053 -0.004087 -0.004913
v -0.026000 -0.004003 -0.006466
v -0.024003 -0.006000 -0.006466
v -0.024087 -0.004087 -0.005947
v -0.029500 -0.035500 0.027500
v -0.029500 -0.033500 0.029500
v -0.031500 -0.033500 0.027500
v -0.029500 -0.035233 0.028499
v -0.030499 -0.035233 0.027500
v -0.030456 -0.034973 0.028456
v -0.030499 -0.033500 0.029233
v -0.029500 -0.034499 0.029233
v -0.030456 -0.034456 0.028973
v -0.031233 -0.034499 0.027500
v -0.031233 -0.033500 0.028499
v -0.030973 -0.034456 0.028456
v -0.029500 -0.012500 0.029500
v -0.029500 -0.010500 0.027500
v -0.031500 -0.012500 0.027500
v -0.029500 -0.011501 0.029233
v -0.030499 -0.012500 0.029233
v -0.030456 -0.011544 0.028973
v -0.030499 -0.010767 0.027500
v -0.029500 -0.010767 0.028499
v -0.030456 -0.011027 0.028456
v -0.031233 -0.012500 0.028499
v -0.031233 -0.011501 0.027500
v -0.030973 -0.011544 0.028456
v -0.029500 -0.035500 0.024500
v -0.031500 -0.033500 0.024500
v -0.029500 -0.033500 0.022500
v -0.030499 -0.035233 0.024500
v -0.029500 -0.035233 0.023501
v -0.030456 -0.034973 0.023544
v -0.031233 -0.033500 0.023501
v -0.031233 -0.034499 0.024500
v -0.030973 -0.034456 0.023544
v -0.029500 -0.034499 0.022767
v -0.030499 -0.033500 0.022767
v -0.030456 -0.034456 0.023027
v -0.029500 -0.010500 0.024500
v -0.029500 -0.012500 0.022500
v -0.031500 -0.012500 0.024500
v -0.029500 -0.010767 0.023501
v -0.030499 -0.010767 0.024500
v -0.030456 -0.011027 0.023544
v -0.030499 -0.012500 0.022767
v -0.029500 -0.011501 0.022767
v -0.030456 -0.011544 0.023027
v -0.031233 -0.011501 0.024500
v -0.031233 -0.012500 0.023501
v -0.030973 -0.011544 0.023544
v -0.024500 -0.035500 0.027500
v -0.022500 -0.033500 0.027500
v -0.024500 -0.033500 0.029500
v -0.023501 -0.035233 0.027500
v -0.024500 -0.035233 0.028499
v -0.023544 -0.034973 0.028456
v -0.022767 -0.033500 0.028499
v -0.022767 -0.034499 0.027500
v -0.023027 -0.034456 0.028456
v -0.024500 -0.034499 0.029233
v -0.023501 -0.033500 0.029233
v -0.023544 -0.034456 0.028973
v -0.024500 -0.010500 0.027500
v -0.024500 -0.012500 0.029500
v -0.022500 -0.012500 0.027500
v -0.024500 -0.010767 0.028499
v -0.023501 -0.010767 0.027500
v -0.023544 -0.011027 0.028456
v -0.023501 -0.012500 0.029233
v -0.024500 -0.011501 0.029233
v -0.023544 -0.011544 0.028973
v -0.022767 -0.011501 0.027500
v -0.022767 -0.012500 0.028499
v -0.023027 -0.011544 0.028456
v -0.024500 -0.035500 0.024500
v -0.024500 -0.033500 0.022500
v -0.022500 -0.033500 0.024500
v -0.024500 -0.035233 0.023501
v -0.023501 -0.035233 0.024500
v -0.023544 -0.034973 0.023544
v -0.023501 -0.033500 0.022767
v -0.024500 -0.034499 0.022767
v -0.023544 -0.034456 0.023027
v -0.022767 -0.034499 0.024500
v -0.022767 -0.033500 0.023501
v -0.023027 -0.034456 0.023544
v -0.024500 -0.010500 0.024500
v -0.022500 -0.012500 0.024500
v -0.024500 -0.012500 0.022500
v -0.023501 -0.010767 0.024500
v -0.024500 -0.010767 0.023501
v -0.023544 -0.011027 0.023544
v -0.022767 -0.012500 0.023501
v -0.022767 -0.011501 0.024500
v -0.023027 -0.011544 0.023544
v -0.024500 -0.011501 0.022767
v -0.023501 -0.012500 0.022767
v -0.023544 -0.011544 0.023027
v -0.010000 -0.040000 0.019000
v -0.010000 -0.036000 0.023000
v -0.014000 -0.036000 0.019000
v -0.010000 -0.039466 0.020997
v -0.011997 -0.039466 0.019000
v -0.011913 -0.038947 0.020913
v -0.011997 -0.036000 0.022466
v -0.010000 -0.037997 0.022466
v -0.011913 -0.037913 0.021947
v -0.013466 -0.037997 0.019000
v -0.013466 -0.036000 0.020997
v -0.012947 -0.037913 0.020913
v -0.010000 -0.006000 0.023000
v -0.010000 -0.002000 0.019000
v -0.014000 -0.006000 0.019000
v -0.010000 -0.004003 0.022466
v -0.011997 -0.006000 0.022466
v -0.011913 -0.004087 0.021947
v -0.011997 -0.002534 0.019000
v -0.010000 -0.002534 0.020997
v -0.011913 -0.003053 0.020913
v -0.013466 -0.006000 0.020997
v -0.013466 -0.004003 0.019000
v -0.012947 -0.004087 0.020913
v -0.010000 -0.040000 -0.003000
v -0.014000 -0.036000 -0.003000
v -0.010000 -0.036000 -0.007000
v -0.011997 -0.039466 -0.003000
v -0.010000 -0.039466 -0.004997
v -0.011913 -0.038947 -0.004913
v -0.013466 -0.036000 -0.004997
v -0.013466 -0.037997 -0.003000
v -0.012947 -0.037913 -0.004913
v -0.010000 -0.037997 -0.006466
v -0.011997 -0.036000 -0.006466
v -0.011913 -0.037913 -0.005947
v -0.010000 -0.002000 -0.003000
v -0.010000 -0.006000 -0.007000
v -0.014000 -0.006000 -0.003000
v -0.010000 -0.002534 -0.004997
v -0.011997 -0.002534 -0.003000
v -0.011913 -0.003053 -0.004913
v -0.011997 -0.006000 -0.006466
v -0.010000 -0.004003 -0.006466
v -0.011913 -0.004087 -0.005947
v -0.013466 -0.004003 -0.003000
v -0.013466 -0.006000 -0.004997
v -0.012947 -0.004087 -0.004913
v -0.008000 -0.040000 0.019000
v -0.004000 -0.036000 0.019000
v -0.008000 -0.036000 0.023000
v -0.006003 -0.039466 0.019000
v -0.008000 -0.039466 0.020997
v -0.006087 -0.038947 0.020913
v -0.004534 -0.036000 0.020997
v -0.004534 -0.037997 0.019000
v -0.005053 -0.037913 0.020913
v -0.008000 -0.037997 0.022466
v -0.006003 -0.036000 0.022466
v -0.006087 -0.037913 0.021947
v -0.008000 -0.002000 0.019000
v -0.008000 -0.006000 0.023000
v -0.004000 -0.006000 0.019000
v -0.008000 -0.002534 0.020997
v -0.006003 -0.002534 0.019000
v -0.006087 -0.003053 0.020913
v -0.006003 -0.006000 0.022466
v -0.008000 -0.004003 0.022466
v -0.006087 -0.004087 0.021947
v -0.004534 -0.004003 0.019000
v -0.004534 -0.006000 0.020997
v -0.005053 -0.004087 0.020913
v -0.008000 -0.040000 -0.003000
v -0.008000 -0.036000 -0.007000
v -0.004000 -0.036000 -0.003000
v -0.008000 -0.039466 -0.004997
v -0.006003 -0.039466 -0.003000
v -0.006087 -0.038947 -0.004913
v -0.006003 -0.036000 -0.006466
v -0.008000 -0.037997 -0.006466
v -0.006087 -0.037913 -0.005947
v -0.004534 -0.037997 -0.003000
v -0.004534 -0.036000 -0.004997
v -0.005053 -0.037913 -0.004913
v -0.008000 -0.002000 -0.003000
v -0.004000 -0.006000 -0.003000
v -0.008000 -0.006000 -0.007000
v -0.006003 -0.002534 -0.003000
v -0.008000 -0.002534 -0.004997
v -0.006087 -0.003053 -0.004913
v -0.004534 -0.006000 -0.004997
v -0.004534 -0.004003 -0.003000
v -0.005053 -0.004087 -0.004913
v -0.008000 -0.004003 -0.006466
v -0.006003 -0.006000 -0.006466
v -0.006087 -0.004087 -0.005947
v -0.011500 -0.035500 0.027500
v -0.011500 -0.033500 0.029500
v -0.013500 -0.033500 0.027500
v -0.011500 -0.035233 0.028499
v -0.012499 -0.035233 0.027500
v -0.012456 -0.034973 0.028456
v -0.012499 -0.033500 0.029233
v -0.011500 -0.034499 0.029233
v -0.012456 -0.034456 0.028973
v -0.013233 -0.034499 0.027500
v -0.013233 -0.033500 0.028499
v -0.012973 -0.034456 0.028456
v -0.011500 -0.012500 0.029500
v -0.011500 -0.010500 0.027500
v -0.013500 -0.012500 0.027500
v -0.011500 -0.011501 0.029233
v -0.012499 -0.012500 0.029233
v -0.012456 -0.011544 0.028973
v -0.012499 -0.010767 0.027500
v -0.011500 -0.010767 0.028499
v -0.012456 -0.011027 0.028456
v -0.013233 -0.012500 0.028499
v -0.013233 -0.011501 0.027500
v -0.012973 -0.011544 0.028456
v -0.011500 -0.035500 0.024500
v -0.013500 -0.033500 0.024500
v -0.011500 -0.033500 0.022500
v -0.012499 -0.035233 0.024500
v -0.011500 -0.035233 0.023501
v -0.012456 -0.034973 0.023544
v -0.013233 -0.033500 0.023501
v -0.013233 -0.034499 0.024500
v -0.012973 -0.034456 0.023544
v -0.011500 -0.034499 0.022767
v -0.012499 -0.033500 0.022767
v -0.012456 -0.034456 0.023027
v -0.011500 -0.010500 0.024500
v -0.011500 -0.012500 0.022500
v -0.013500 -0.012500 0.024500
v -0.011500 -0.010767 0.023501
v -0.012499 -0.010767 0.024500
v -0.012456 -0.011027 0.023544
v -0.012499 -0.012500 0.022767
v -0.011500 -0.011501 0.022767
v -0.012456 -0.011544 0.023027
v -0.013233 -0.011501 0.024500
v -0.013233 -0.012500 0.023501
v -0.012973 -0.011544 0.023544
v -0.006500 -0.035500 0.027500
v -0.004500 -0.033500 0.027500
v -0.006500 -0.033500 0.029500
v -0.005501 -0.035233 0.027500
v -0.006500 -0.035233 0.028499
v -0.005544 -0.034973 0.028456
v -0.004767 -0.033500 0.028499
v -0.004767 -0.034499 0.027500
v -0.005027 -0.034456 0.028456
v -0.006500 -0.034499 0.029233
v -0.005501 -0.033500 0.029233
v -0.005544 -0.034456 0.028973
v -0.006500 -0.010500 0.027500
v -0.006500 -0.012500 0.029500
v -0.004500 -0.012500 0.027500
v -0.006500 -0.010767 0.028499
v -0.005501 -0.010767 0.027500
v -0.005544 -0.011027 0.028456
v -0.005501 -0.012500 0.029233
v -0.006500 -0.011501 0.029233
v -0.005544 -0.011544 0.028973
v -0.004767 -0.011501 0.027500
v -0.004767 -0.012500 0.028499
v -0.005027 -0.011544 0.028456
v -0.006500 -0.035500 0.024500
v -0.006500 -0.033500 0.022500
v -0.004500 -0.033500 0.024500
v -0.006500 -0.035233 0.023501
v -0.005501 -0.035233 0.024500
v -0.005544 -0.034973 0.023544
v -0.005501 -0.033500 0.022767
v -0.006500 -0.034499 0.022767
v -0.005544 -0.034456 0.023027
v -0.004767 -0.034499 0.024500
v -0.004767 -0.033500 0.023501
v -0.005027 -0.034456 0.023544
v -0.006500 -0.010500 0.024500
v -0.004500 -0.012500 0.024500
v -0.006500 -0.012500 0.022500
v -0.005501 -0.010767 0.024500
v -0.006500 -0.010767 0.023501
v -0.005544 -0.011027 0.023544
v -0.004767 -0.012500 0.023501
v -0.004767 -0.011501 0.024500
v -0.005027 -0.011544 0.023544
v -0.006500 -0.011501 0.022767
v -0.005501 -0.012500 0.022767
v -0.005544 -0.011544 0.023027
v 0.008000 -0.040000 0.019000
v 0.008000 -0.036000 0.023000
v 0.004000 -0.036000 0.019000
v 0.008000 -0.039466 0.020997
v 0.006003 -0.039466 0.019000
v 0.006087 -0.038947 0.020913
v 0.006003 -0.036000 0.022466
v 0.008000 -0.037997 0.022466
v 0.006087 -0.037913 0.021947
v 0.004534 -0.037997 0.019000
v 0.004534 -0.036000 0.020997
v 0.005053 -0.037913 0.020913
v 0.008000 -0.006000 0.023000
v 0.008000 -0.002000 0.019000
v 0.004000 -0.006000 0.019000
v 0.008000 -0.004003 0.022466
v 0.006003 -0.006000 0.022466
v 0.006087 -0.004087 0.021947
v 0.006003 -0.002534 0.019000
v 0.008000 -0.002534 0.020997
v 0.006087 -0.003053 0.020913
v 0.004534 -0.006000 0.020997
v 0.004534 -0.004003 0.019000
v 0.005053 -0.004087 0.020913
v 0.008000 -0.040000 -0.003000
v 0.004000 -0.036000 -0.003000
v 0.008000 -0.036000 -0.007000
v 0.006003 -0.039466 -0.003000
v 0.008000 -0.039466 -0.004997
v 0.006087 -0.038947 -0.004913
v 0.004534 -0.036000 -0.004997
v 0.004534 -0.037997 -0.003000
v 0.005053 -0.037913 -0.004913
v 0.008000 -0.037997 -0.006466
v 0.006003 -0.036000 -0.006466
v 0.006087 -0.037913 -0.005947
v 0.008000 -0.002000 -0.003000
v 0.008000 -0.006000 -0.007000
v 0.004000 -0.006000 -0.003000
v 0.008000 -0.002534 -0.004997
v 0.006003 -0.002534 -0.003000
v 0.006087 -0.003053 -0.004913
v 0.006003 -0.006000 -0.006466
v 0.008000 -0.004003 -0.006466
v 0.006087 -0.004087 -0.005947
v 0.004534 -0.004003 -0.003000
v 0.004534 -0.006000 -0.004997
v 0.005053 -0.004087 -0.004913
v 0.010000 -0.040000 0.019000
v 0.014000 -0.036000 0.019000
v 0.010000 -0.036000 0.023000
v 0.011997 -0.039466 0.019000
v 0.010000 -0.039466 0.020997
v 0.011913 -0.038947 0.020913
v 0.013466 -0.036000 0.020997
v 0.013466 -0.037997 0.019000
v 0.012947 -0.037913 0.020913
v 0.010000 -0.037997 0.022466
v 0.011997 -0.036000 0.022466
v 0.011913 -0.037913 0.021947
v 0.010000 -0.002000 0.019000
v 0.010000 -0.006000 0.023000
v 0.014000 -0.006000 0.019000
v 0.010000 -0.002534 0.020997
v 0.011997 -0.002534 0.019000
v 0.011913 -0.003053 0.020913
v 0.011997 -0.006000 0.022466
v 0.010000 -0.004003 0.022466
v 0.011913 -0.004087 0.021947
v 0.013466 -0.004003 0.019000
v 0.013466 -0.006000 0.020997
v 0.012947 -0.004087 0.020913
v 0.010000 -0.040000 -0.003000
v 0.010000 -0.036000 -0.007000
v 0.014000 -0.036000 -0.003000
v 0.010000 -0.039466 -0.004997
v 0.011997 -0.039466 -0.003000
v 0.011913 -0.038947 -0.004913
v 0.011997 -0.036000 -0.006466
v 0.010000 -0.037997 -0.006466
v 0.011913 -0.037913 -0.005947
v 0.013466 -0.037997 -0.003000
v 0.013466 -0.036000 -0.004997
v 0.012947 -0.037913 -0.004913
v 0.010000 -0.002000 -0.003000
v 0.014000 -0.006000 -0.003000
v 0.010000 -0.006000 -0.007000
v 0.011997 -0.002534 -0.003000
v 0.010000 -0.002534 -0.004997
v 0.011913 -0.003053 -0.004913
v 0.013466 -0.006000 -0.004997
v 0.013466 -0.004003 -0.003000
v 0.012947 -0.004087 -0.004913
v 0.010000 -0.004003 -0.006466
v 0.011997 -0.006000 -0.006466
v 0.011913 -0.004087 -0.005947
v 0.006500 -0.035500 0.027500
v 0.006500 -0.033500 0.029500
v 0.004500 -0.033500 0.027500
v 0.006500 -0.035233 0.028499
v 0.005501 -0.035233 0.027500
v 0.005544 -0.034973 0.028456
v 0.005501 -0.033500 0.029233
v 0.006500 -0.034499 0.029233
v 0.005544 -0.034456 0.028973
v 0.004767 -0.034499 0.027500
v 0.004767 -0.033500 0.028499
v 0.005027 -0.034456 0.028456
v 0.006500 -0.012500 0.029500
v 0.006500 -0.010500 0.027500
v 0.004500 -0.012500 0.027500
v 0.006500 -0.011501 0.029233
v 0.005501 -0.012500 0.029233
v 0.005544 -0.011544 0.028973
v 0.005501 -0.010767 0.027500
v 0.006500 -0.010767 0.028499
v 0.005544 -0.011027 0.028456
v 0.004767 -0.012500 0.028499
v 0.004767 -0.011501 0.027500
v 0.005027 -0.011544 0.028456
v 0.006500 -0.035500 0.024500
v 0.004500 -0.033500 0.024500
v 0.006500 -0.033500 0.022500
v 0.005501 -0.035233 0.024500
v 0.006500 -0.035233 0.023501
v 0.005544 -0.034973 0.023544
v 0.004767 -0.033500 0.023501
v 0.004767 -0.034499 0.024500
v 0.005027 -0.034456 0.023544
v 0.006500 -0.034499 0.022767
v 0.005501 -0.033500 0.022767
v 0.005544 -0.034456 0.023027
v 0.006500 -0.010500 0.024500
v 0.006500 -0.012500 0.022500
v 0.004500 -0.012500 0.024500
v 0.006500 -0.010767 0.023501
v 0.005501 -0.010767 0.024500
v 0.005544 -0.011027 0.023544
v 0.005501 -0.012500 0.022767
v 0.006500 -0.011501 0.022767
v 0.005544 -0.011544 0.023027
v 0.004767 -0.011501 0.024500
v 0.004767 -0.012500 0.023501
v 0.005027 -0.011544 0.023544
v 0.011500 -0.035500 0.027500
v 0.013500 -0.033500 0.027500
v 0.011500 -0.033500 0.029500
v 0.012499 -0.035233 0.027500
v 0.011500 -0.035233 0.028499
v 0.012456 -0.034973 0.028456
v 0.013233 -0.033500 0.028499
v 0.013233 -0.034499 0.027500
v 0.012973 -0.034456 0.028456
v 0.011500 -0.034499 0.029233
v 0.012499 -0.033500 0.029233
v 0.012456 -0.034456 0.028973
v 0.011500 -0.010500 0.027500
v 0.011500 -0.012500 0.029500
v 0.013500 -0.012500 0.027500
v 0.011500 -0.010767 0.028499
v 0.012499 -0.010767 0.027500
v 0.012456 -0.011027 0.028456
v 0.012499 -0.012500 0.029233
v 0.011500 -0.011501 0.029233
v 0.012456 -0.011544 0.028973
v 0.013233 -0.011501 0.027500
v 0.013233 -0.012500 0.028499
v 0.012973 -0.011544 0.028456
v 0.011500 -0.035500 0.024500
v 0.011500 -0.033500 0.022500
v 0.013500 -0.033500 0.024500
v 0.011500 -0.035233 0.023501
v 0.012499 -0.035233 0.024500
v 0.012456 -0.034973 0.023544
v 0.012499 -0.033500 0.022767
v 0.011500 -0.034499 0.022767
v 0.012456 -0.034456 0.023027
v 0.013233 -0.034499 0.024500
v 0.013233 -0.033500 0.023501
v 0.012973 -0.034456 0.023544
v 0.011500 -0.010500 0.024500
v 0.013500 -0.012500 0.024500
v 0.011500 -0.012500 0.022500
v 0.012499 -0.010767 0.024500
v 0.011500 -0.010767 0.023501
v 0.012456 -0.011027 0.023544
v 0.013233 -0.012500 0.023501
v 0.013233 -0.011501 0.024500
v 0.012973 -0.011544 0.023544
v 0.011500 -0.011501 0.022767
v 0.012499 -0.012500 0.022767
v 0.012456 -0.011544 0.023027
v 0.026000 -0.040000 0.019000
v 0.026000 -0.036000 0.023000
v 0.022000 -0.036000 0.019000
v 0.026000 -0.039466 0.020997
v 0.024003 -0.039466 0.019000
v 0.024087 -0.038947 0.020913
v 0.024003 -0.036000 0.022466
v 0.026000 -0.037997 0.022466
v 0.024087 -0.037913 0.021947
v 0.022534 -0.037997 0.019000
v 0.022534 -0.036000 0.020997
v 0.023053 -0.037913 0.020913
v 0.026000 -0.006000 0.023000
v 0.026000 -0.002000 0.019000
v 0.022000 -0.006000 0.019000
v 0.026000 -0.004003 0.022466
v 0.024003 -0.006000 0.022466
v 0.024087 -0.004087 0.021947
v 0.024003 -0.002534 0.019000
v 0.026000 -0.002534 0.020997
v 0.024087 -0.003053 0.020913
v 0.022534 -0.006000 0.020997
v 0.022534 -0.004003 0.019000
v 0.023053 -0.004087 0.020913
v 0.026000 -0.040000 -0.003000
v 0.022000 -0.036000 -0.003000
v 0.026000 -0.036000 -0.007000
v 0.024003 -0.039466 -0.003000
v 0.026000 -0.039466 -0.004997
v 0.024087 -0.038947 -0.004913
v 0.022534 -0.036000 -0.004997
v 0.022534 -0.037997 -0.003000
v 0.023053 -0.037913 -0.004913
v 0.026000 -0.037997 -0.006466
v 0.024003 -0.036000 -0.006466
v 0.024087 -0.037913 -0.005947
v 0.026000 -0.002000 -0.003000
v 0.026000 -0.006000 -0.007000
v 0.022000 -0.006000 -0.003000
v 0.026000 -0.002534 -0.004997
v 0.024003 -0.002534 -0.003000
v 0.024087 -0.003053 -0.004913
v 0.024003 -0.006000 -0.006466
v 0.026000 -0.004003 -0.006466
v 0.024087 -0.004087 -0.005947
v 0.022534 -0.004003 -0.003000
v 0.022534 -0.006000 -0.004997
v 0.023053 -0.004087 -0.004913
v 0.028000 -0.040000 0.019000
v 0.032000 -0.036000 0.019000
v 0.028000 -0.036000 0.023000
v 0.029997 -0.039466 0.019000
v 0.028000 -0.039466 0.020997
v 0.029913 -0.038947 0.020913
v 0.031466 -0.036000 0.020997
v 0.031466 -0.037997 0.019000
v 0.030947 -0.037913 0.020913
v 0.028000 -0.037997 0.022466
v 0.029997 -0.036000 0.022466
v 0.029913 -0.037913 0.021947
v 0.028000 -0.002000 0.019000
v 0.028000 -0.006000 0.023000
v 0.032000 -0.006000 0.019000
v 0.028000 -0.002534 0.020997
v 0.029997 -0.002534 0.019000
v 0.029913 -0.003053 0.020913
v 0.029997 -0.006000 0.022466
v 0.028000 -0.004003 0.022466
v 0.029913 -0.004087 0.021947
v 0.031466 -0.004003 0.019000
v 0.031466 -0.006000 0.020997
v 0.030947 -0.004087 0.020913
v 0.028000 -0.040000 -0.003000
v 0.028000 -0.036000 -0.007000
v 0.032000 -0.036000 -0.003000
v 0.028000 -0.039466 -0.004997
v 0.029997 -0.039466 -0.003000
v 0.029913 -0.038947 -0.004913
v 0.029997 -0.036000 -0.006466
v 0.028000 -0.037997 -0.006466
v 0.029913 -0.037913 -0.005947
v 0.031466 -0.037997 -0.003000
v 0.031466 -0.036000 -0.004997
v 0.030947 -0.037913 -0.004913
v 0.028000 -0.002000 -0.003000
v 0.032000 -0.006000 -0.003000
v 0.028000 -0.006000 -0.007000
v 0.029997 -0.002534 -0.003000
v 0.028000 -0.002534 -0.004997
v 0.029913 -0.003053 -0.004913
v 0.031466 -0.006000 -0.004997
v 0.031466 -0.004003 -0.003000
v 0.030947 -0.004087 -0.004913
v 0.028000 -0.004003 -0.006466
v 0.029997 -0.006000 -0.006466
v 0.029913 -0.004087 -0.005947
v 0.024500 -0.035500 0.027500
v 0.024500 -0.033500 0.029500
v 0.022500 -0.033500 0.027500
v 0.024500 -0.035233 0.028499
v 0.023501 -0.035233 0.027500
v 0.023544 -0.034973 0.028456
v 0.023501 -0.033500 0.029233
v 0.024500 -0.034499 0.029233
v 0.023544 -0.034456 0.028973
v 0.022767 -0.034499 0.027500
v 0.022767 -0.033500 0.028499
v 0.023027 -0.034456 0.028456
v 0.024500 -0.012500 0.029500
v 0.024500 -0.010500 0.027500
v 0.022500 -0.012500 0.027500
v 0.024500 -0.011501 0.029233
v 0.023501 -0.012500 0.029233
v 0.023544 -0.011544 0.028973
v 0.023501 -0.010767 0.027500
v 0.024500 -0.010767 0.028499
v 0.023544 -0.011027 0.028456
v 0.022767 -0.012500 0.028499
v 0.022767 -0.011501 0.027500
v 0.023027 -0.011544 0.028456
v 0.024500 -0.035500 0.024500
v 0.022500 -0.033500 0.024500
v 0.024500 -0.033500 0.022500
v 0.023501 -0.035233 0.024500
v 0.024500 -0.035233 0.023501
v 0.023544 -0.034973 0.023544
v 0.022767 -0.033500 0.023501
v 0.022767 -0.034499 0.024500
v 0.023027 -0.034456 0.023544
v 0.024500 -0.034499 0.022767
v 0.023501 -0.033500 0.022767
v 0.023544 -0.034456 0.023027
v 0.024500 -0.010500 0.024500
v 0.024500 -0.012500 0.022500
v 0.022500 -0.012500 0.024500
v 0.024500 -0.010767 0.023501
v 0.023501 -0.010767 0.024500
v 0.023544 -0.011027 0.023544
v 0.023501 -0.012500 0.022767
v 0.024500 -0.011501 0.022767
v 0.023544 -0.011544 0.023027
v 0.022767 -0.011501 0.024500
v 0.022767 -0.012500 0.023501
v 0.023027 -0.011544 0.023544
v 0.029500 -0.035500 0.027500
v 0.031500 -0.033500 0.027500
v 0.029500 -0.033500 0.029500
v 0.030499 -0.035233 0.027500
v 0.029500 -0.035233 0.028499
v 0.030456 -0.034973 0.028456
v 0.031233 -0.033500 0.028499
v 0.031233 -0.034499 0.027500
v 0.030973 -0.034456 0.028456
v 0.029500 -0.034499 0.029233
v 0.030499 -0.033500 0.029233
v 0.030456 -0.034456 0.028973
v 0.029500 -0.010500 0.027500
v 0.029500 -0.012500 0.029500
v 0.031500 -0.012500 0.027500
v 0.029500 -0.010767 0.028499
v 0.030499 -0.010767 0.027500
v 0.030456 -0.011027 0.028456
v 0.030499 -0.012500 0.029233
v 0.029500 -0.011501 0.029233
v 0.030456 -0.011544 0.028973
v 0.031233 -0.011501 0.027500
v 0.031233 -0.012500 0.028499
v 0.030973 -0.011544 0.028456
v 0.029500 -0.035500 0.024500
v 0.029500 -0.033500 0.022500
v 0.031500 -0.033500 0.024500
v 0.029500 -0.035233 0.023501
v 0.030499 -0.035233 0.024500
v 0.030456 -0.034973 0.023544
v 0.030499 -0.033500 0.022767
v 0.029500 -0.034499 0.022767
v 0.030456 -0.034456 0.023027
v 0.031233 -0.034499 0.024500
v 0.031233 -0.033500 0.023501
v 0.030973 -0.034456 0.023544
v 0.029500 -0.010500 0.024500
v 0.031500 -0.012500 0.024500
v 0.029500 -0.012500 0.022500
v 0.030499 -0.010767 0.024500
v 0.029500 -0.010767 0.023501
v 0.030456 -0.011027 0.023544
v 0.031233 -0.012500 0.023501
v 0.031233 -0.011501 0.024500
v 0.030973 -0.011544 0.023544
v 0.029500 -0.011501 0.022767
v 0.030499 -0.012500 0.022767
v 0.030456 -0.011544 0.023027
vn -0.2494 -0.9318 0.2637
vn -0.2177 -0.6901 0.6901
vn -0.2637 -0.2494 0.9318
vn -0.6901 -0.2177 0.6901
vn -0.9318 -0.2637 0.2494
vn -0.6901 -0.6901 0.2177
vn -0.5773 -0.5773 0.5774
vn -0.2494 0.2637 0.9318
vn -0.2177 0.6901 0.6901
vn -0.2637 0.9318 0.2494
vn -0.6901 0.6901 0.2177
vn -0.9318 0.2494 0.2637
vn -0.6901 0.2177 0.6901
vn -0.5773 0.5773 0.5774
vn -0.2637 -0.9318 -0.2494
vn -0.6901 -0.6901 -0.2177
vn -0.9318 -0.2494 -0.2637
vn -0.6901 -0.2177 -0.6901
vn -0.2494 -0.2637 -0.9318
vn -0.2177 -0.6901 -0.6901
vn -0.5773 -0.5773 -0.5774
vn -0.2494 0.9318 -0.2637
vn -0.2177 0.6901 -0.6901
vn -0.2637 0.2494 -0.9318
vn -0.6901 0.2177 -0.6901
vn -0.9318 0.2637 -0.2494
vn -0.6901 0.6901 -0.2177
vn -0.5773 0.5773 -0.5774
vn 0.2637 -0.9318 0.2494
vn 0.6901 -0.6901 0.2177
vn 0.9318 -0.2494 0.2637
vn 0.6901 -0.2177 0.6901
vn 0.2494 -0.2637 0.9318
vn 0.2177 -0.6901 0.6901
vn 0.5773 -0.5773 0.5774
vn 0.2494 0.9318 0.2637
vn 0.2177 0.6901 0.6901
vn 0.2637 0.2494 0.9318
vn 0.6901 0.2177 0.6901
vn 0.9318 0.2637 0.2494
vn 0.6901 0.6901 0.2177
vn 0.5773 0.5773 0.5774
vn 0.2494 -0.9318 -0.2637
vn 0.2177 -0.6901 -0.6901
vn 0.2637 -0.2494 -0.9318
vn 0.6901 -0.2177 -0.6901
vn 0.9318 -0.2637 -0.2494
vn 0.6901 -0.6901 -0.2177
vn 0.5773 -0.5773 -0.5774
vn 0.2637 0.9318 -0.2494
vn 0.6901 0.6901 -0.2177
vn 0.9318 0.2494 -0.2637
vn 0.6901 0.2177 -0.6901
vn 0.2494 0.2637 -0.9318
vn 0.2177 0.6901 -0.6901
vn 0.5773 0.5773 -0.5774
vn -0.2586 -0.9660 -0.0000
vn -0.7071 -0.7071 -0.0000
vn -0.9660 -0.2586 -0.0000
vn -0.2586 -0.0000 0.9660
vn -0.7071 -0.0000 0.7071
vn -0.9660 -0.0000 0.2586
vn -0.2586 0.9660 -0.0000
vn -0.7071 0.7071 -0.0000
vn -0.9660 0.2586 -0.0000
vn -0.2586 -0.0000 -0.9660
vn -0.7071 -0.0000 -0.7071
vn -0.9660 -0.0000 -0.2586
vn -0.0000 -0.9660 -0.2586
vn -0.0000 -0.7071 -0.7071
vn -0.0000 -0.2586 -0.9660
vn -0.0000 0.9660 -0.2586
vn -0.0000 0.7071 -0.7071
vn -0.0000 0.2586 -0.9660
vn 0.9660 -0.0000 -0.2586
vn 0.7071 -0.0000 -0.7071
vn 0.2586 -0.0000 -0.9660
vn 0.2586 -0.9660 -0.0000
vn 0.7071 -0.7071 -0.0000
vn 0.9660 -0.2586 -0.0000
vn 0.2586 0.9660 -0.0000
vn 0.7071 0.7071 -0.0000
vn 0.9660 0.2586 -0.0000
vn 0.2586 -0.0000 0.9660
vn 0.7071 -0.0000 0.7071
vn 0.9660 -0.0000 0.2586
vn -0.0000 -0.9660 0.2586
vn -0.0000 -0.7071 0.7071
vn -0.0000 -0.2586 0.9660
vn -0.0000 0.9660 0.2586
vn -0.0000 0.7071 0.7071
vn -0.0000 0.2586 0.9660
vn -0.0000 -1.0000 -0.0000
vn -1.0000 -0.0000 -0.0000
vn -0.0000 -0.0000 1.0000
vn -0.0000 1.0000 -0.0000
vn -0.0000 -0.0000 -1.0000
vn 1.0000 -0.0000 -0.0000
vn -0.2494 -0.9318 0.2636
vn -0.2174 -0.6902 0.6902
vn -0.2636 -0.2494 0.9318
vn -0.6902 -0.2174 0.6902
vn -0.9318 -0.2636 0.2494
vn -0.6902 -0.6902 0.2174
vn -0.5773 -0.5774 0.5774
vn -0.2494 0.2636 0.9318
vn -0.2174 0.6902 0.6902
vn -0.2636 0.9318 0.2494
vn -0.6902 0.6902 0.2174
vn -0.9318 0.2494 0.2636
vn -0.6902 0.2174 0.6902
vn -0.5774 0.5773 0.5773
vn -0.2636 -0.9318 -0.2494
vn -0.6902 -0.6902 -0.2174
vn -0.9318 -0.2494 -0.2636
vn -0.6902 -0.2174 -0.6902
vn -0.2494 -0.2636 -0.9318
vn -0.2174 -0.6902 -0.6902
vn -0.5773 -0.5774 -0.5774
vn -0.2494 0.9318 -0.2636
vn -0.2174 0.6902 -0.6902
vn -0.2636 0.2494 -0.9318
vn -0.6902 0.2174 -0.6902
vn -0.9318 0.2636 -0.2494
vn -0.6902 0.6902 -0.2174
vn -0.5774 0.5774 -0.5774
vn 0.2636 -0.9318 0.2494
vn 0.6902 -0.6902 0.2174
vn 0.9318 -0.2494 0.2636
vn 0.6902 -0.2174 0.6902
vn 0.2494 -0.2636 0.9318
vn 0.2174 -0.6902 0.6902
vn 0.5773 -0.5774 0.5774
vn 0.2494 0.9318 0.2636
vn 0.2174 0.6902 0.6902
vn 0.2636 0.2494 0.9318
vn 0.6902 0.2174 0.6902
vn 0.9318 0.2636 0.2494
vn 0.6902 0.6902 0.2174
vn 0.5774 0.5773 0.5773
vn 0.2494 -0.9318 -0.2636
vn 0.2174 -0.6902 -0.6902
vn 0.2636 -0.2494 -0.9318
vn 0.6902 -0.2174 -0.6902
vn 0.9318 -0.2636 -0.2494
vn 0.6902 -0.6902 -0.2174
vn 0.5773 -0.5774 -0.5774
vn 0.2636 0.9318 -0.2494
vn 0.6902 0.6902 -0.2174
vn 0.9318 0.2494 -0.2636
vn 0.6902 0.2174 -0.6902
vn 0.2494 0.2636 -0.9318
vn 0.2174 0.6902 -0.6902
vn 0.5774 0.5774 -0.5774
vn -0.2492 -0.9319 0.2638
vn -0.2176 -0.6902 0.6902
vn -0.2638 -0.2492 0.9318
vn -0.6902 -0.2175 0.6902
vn -0.9318 -0.2638 0.2492
vn -0.6902 -0.6902 0.2176
vn -0.5774 -0.5774 0.5774
vn -0.2492 0.2638 0.9318
vn -0.2176 0.6902 0.6902
vn -0.2638 0.9319 0.2492
vn -0.6902 0.6902 0.2175
vn -0.9319 0.2492 0.2638
vn -0.6902 0.2175 0.6902
vn -0.5773 0.5774 0.5774
vn -0.2638 -0.9318 -0.2492
vn -0.6902 -0.6902 -0.2175
vn -0.9319 -0.2492 -0.2638
vn -0.6902 -0.2175 -0.6902
vn -0.2492 -0.2638 -0.9318
vn -0.2176 -0.6902 -0.6902
vn -0.5774 -0.5773 -0.5774
vn -0.2492 0.9318 -0.2638
vn -0.2176 0.6902 -0.6902
vn -0.2638 0.2492 -0.9319
vn -0.6902 0.2175 -0.6902
vn -0.9318 0.2638 -0.2492
vn -0.6902 0.6902 -0.2175
vn -0.5774 0.5773 -0.5774
vn 0.2638 -0.9319 0.2492
vn 0.6902 -0.6902 0.2176
vn 0.9319 -0.2492 0.2638
vn 0.6902 -0.2175 0.6902
vn 0.2492 -0.2638 0.9318
vn 0.2176 -0.6902 0.6902
vn 0.5774 -0.5774 0.5774
vn 0.2492 0.9319 0.2638
vn 0.2176 0.6902 0.6902
vn 0.2638 0.2492 0.9319
vn 0.6902 0.2175 0.6902
vn 0.9318 0.2638 0.2492
vn 0.6902 0.6902 0.2175
vn 0.5774 0.5774 0.5773
vn 0.2492 -0.9319 -0.2638
vn 0.2176 -0.6902 -0.6902
vn 0.2638 -0.2492 -0.9318
vn 0.6902 -0.2175 -0.6902
vn 0.9318 -0.2638 -0.2492
vn 0.6902 -0.6902 -0.2176
vn 0.5774 -0.5773 -0.5774
vn 0.2638 0.9318 -0.2492
vn 0.6902 0.6902 -0.2175
vn 0.9318 0.2492 -0.2638
vn 0.6902 0.2175 -0.6902
vn 0.2492 0.2638 -0.9318
vn 0.2176 0.6902 -0.6902
vn 0.5774 0.5774 -0.5773
vn -0.2583 -0.9661 -0.0000
vn -0.9661 -0.2583 -0.0000
vn -0.2583 -0.0000 0.9661
vn -0.9661 -0.0000 0.2583
vn -0.2583 0.9661 -0.0000
vn -0.9661 0.2583 -0.0000
vn -0.2583 -0.0000 -0.9661
vn -0.9661 -0.0000 -0.2583
vn -0.0000 -0.9661 -0.2583
vn -0.0000 -0.2583 -0.9661
vn -0.0000 0.9661 -0.2583
vn -0.0000 0.2583 -0.9661
vn 0.9661 -0.0000 -0.2583
vn 0.2583 -0.0000 -0.9661
vn 0.2583 -0.9661 -0.0000
vn 0.9661 -0.2583 -0.0000
vn 0.2583 0.9661 -0.0000
vn 0.9661 0.2583 -0.0000
vn 0.2583 -0.0000 0.9661
vn 0.9661 -0.0000 0.2583
vn -0.0000 -0.9661 0.2583
vn -0.0000 -0.2583 0.9661
vn -0.0000 0.9661 0.2583
vn -0.0000 0.2583 0.9661
vn -0.2490 -0.9317 0.2646
vn -0.2187 -0.6900 0.6900
vn -0.2646 -0.2490 0.9317
vn -0.6900 -0.2187 0.6900
vn -0.9317 -0.2646 0.2490
vn -0.6900 -0.6900 0.2187
vn -0.2490 0.2646 0.9317
vn -0.2187 0.6900 0.6900
vn -0.2646 0.9317 0.2490
vn -0.6900 0.6900 0.2187
vn -0.9317 0.2490 0.2646
vn -0.6900 0.2187 0.6900
vn -0.2646 -0.9317 -0.2490
vn -0.6900 -0.6900 -0.2187
vn -0.9317 -0.2490 -0.2646
vn -0.6900 -0.2187 -0.6900
vn -0.2490 -0.2646 -0.9317
vn -0.2187 -0.6900 -0.6900
vn -0.2490 0.9317 -0.2646
vn -0.2187 0.6900 -0.6900
vn -0.2646 0.2490 -0.9317
vn -0.6900 0.2187 -0.6900
vn -0.9317 0.2646 -0.2490
vn -0.6900 0.6900 -0.2187
vn -0.5773 0.5774 -0.5774
vn 0.2646 -0.9317 0.2490
vn 0.6900 -0.6900 0.2187
vn 0.9317 -0.2490 0.2646
vn 0.6900 -0.2187 0.6900
vn 0.2490 -0.2646 0.9317
vn 0.2187 -0.6900 0.6900
vn 0.2490 0.9317 0.2646
vn 0.2187 0.6900 0.6900
vn 0.2646 0.2490 0.9317
vn 0.6900 0.2187 0.6900
vn 0.9317 0.2646 0.2490
vn 0.6900 0.6900 0.2187
vn 0.5773 0.5774 0.5774
vn 0.2490 -0.9317 -0.2646
vn 0.2187 -0.6900 -0.6900
vn 0.2646 -0.2490 -0.9317
vn 0.6900 -0.2187 -0.6900
vn 0.9317 -0.2646 -0.2490
vn 0.6900 -0.6900 -0.2187
vn 0.2646 0.9317 -0.2490
vn 0.6900 0.6900 -0.2187
vn 0.9317 0.2490 -0.2646
vn 0.6900 0.2187 -0.6900
vn 0.2490 0.2646 -0.9317
vn 0.2187 0.6900 -0.6900
vn 0.5773 0.5774 -0.5774
vn -0.2582 -0.9661 -0.0000
vn -0.9661 -0.2582 -0.0000
vn -0.2582 -0.0000 0.9661
vn -0.9661 -0.0000 0.2582
vn -0.2582 0.9661 -0.0000
vn -0.9661 0.2582 -0.0000
vn -0.2582 -0.0000 -0.9661
vn -0.9661 -0.0000 -0.2582
vn -0.0000 -0.9661 -0.2582
vn -0.0000 -0.2582 -0.9661
vn -0.0000 0.9661 -0.2582
vn -0.0000 0.2582 -0.9661
vn 0.9661 -0.0000 -0.2582
vn 0.2582 -0.0000 -0.9661
vn 0.2582 -0.9661 -0.0000
vn 0.9661 -0.2582 -0.0000
vn 0.2582 0.9661 -0.0000
vn 0.9661 0.2582 -0.0000
vn 0.2582 -0.0000 0.9661
vn 0.9661 -0.0000 0.2582
vn -0.0000 -0.9661 0.2582
vn -0.0000 -0.2582 0.9661
vn -0.0000 0.9661 0.2582
vn -0.0000 0.2582 0.9661
vn -0.2492 0.2638 0.9319
vn -0.2638 0.9318 0.2492
vn -0.9318 0.2492 0.2638
vn -0.5774 0.5774 0.5773
vn -0.6902 -0.6902 -0.2176
vn -0.2492 -0.2638 -0.9319
vn -0.2638 0.2492 -0.9318
vn -0.6902 0.2176 -0.6902
vn -0.9319 0.2638 -0.2492
vn -0.5774 0.5774 -0.5773
vn 0.6902 -0.6902 0.2175
vn 0.2492 -0.2638 0.9319
vn 0.2492 0.9318 0.2638
vn 0.6902 0.2176 0.6902
vn 0.9319 0.2638 0.2492
vn 0.5773 0.5774 0.5773
vn 0.6902 -0.2176 -0.6902
vn 0.2492 0.2638 -0.9319
vn 0.5774 0.5773 -0.5774
vn -0.5774 -0.5773 0.5774
vn -0.5774 0.5773 0.5774
vn 0.5774 -0.5774 0.5773
vn -0.5773 0.5774 0.5773
vn -0.5774 -0.5774 0.5773
vn 0.5774 -0.5773 0.5774
vn 0.5774 0.5773 0.5774
vn 0.2638 0.9319 -0.2492
vn 0.9319 0.2492 -0.2638
vn -0.2637 -0.9318 0.2494
vn -0.2494 -0.2637 0.9318
vn -0.9318 -0.2494 0.2637
vn -0.2637 0.2494 0.9318
vn -0.2494 0.9318 0.2637
vn -0.9318 0.2637 0.2494
vn -0.2494 -0.9318 -0.2637
vn -0.9318 -0.2637 -0.2494
vn -0.2637 -0.2494 -0.9318
vn -0.2637 0.9318 -0.2494
vn -0.2494 0.2637 -0.9318
vn -0.9318 0.2494 -0.2637
vn 0.2494 -0.9318 0.2637
vn 0.9318 -0.2637 0.2494
vn 0.2637 -0.2494 0.9318
vn 0.2637 0.9318 0.2494
vn 0.2494 0.2637 0.9318
vn 0.9318 0.2494 0.2637
vn 0.2637 -0.9318 -0.2494
vn 0.2494 -0.2637 -0.9318
vn 0.9318 -0.2494 -0.2637
vn 0.2494 0.9318 -0.2637
vn 0.9318 0.2637 -0.2494
vn 0.2637 0.2494 -0.9318
vn -0.2636 -0.9318 0.2494
vn -0.2494 -0.2636 0.9318
vn -0.9318 -0.2494 0.2636
vn -0.2636 0.2494 0.9318
vn -0.2494 0.9318 0.2636
vn -0.9318 0.2636 0.2494
vn -0.2494 -0.9318 -0.2636
vn -0.9318 -0.2636 -0.2494
vn -0.2636 -0.2494 -0.9318
vn -0.2636 0.9318 -0.2494
vn -0.2494 0.2636 -0.9318
vn -0.9318 0.2494 -0.2636
vn 0.2494 -0.9318 0.2636
vn 0.9318 -0.2636 0.2494
vn 0.2636 -0.2494 0.9318
vn 0.2636 0.9318 0.2494
vn 0.2494 0.2636 0.9318
vn 0.9318 0.2494 0.2636
vn 0.2636 -0.9318 -0.2494
vn 0.2494 -0.2636 -0.9318
vn 0.9318 -0.2494 -0.2636
vn 0.2494 0.9318 -0.2636
vn 0.9318 0.2636 -0.2494
vn 0.2636 0.2494 -0.9318
vn -0.2638 -0.9319 0.2492
vn -0.2175 -0.6902 0.6902
vn -0.2492 -0.2638 0.9318
vn -0.6902 -0.2176 0.6902
vn -0.9319 -0.2492 0.2638
vn -0.6902 -0.6902 0.2175
vn -0.2638 0.2492 0.9319
vn -0.2492 0.9319 0.2638
vn -0.6902 0.6902 0.2176
vn -0.9318 0.2638 0.2492
vn -0.6902 0.2176 0.6902
vn -0.2492 -0.9319 -0.2638
vn -0.9318 -0.2638 -0.2492
vn -0.2638 -0.2492 -0.9318
vn -0.2638 0.9319 -0.2492
vn -0.2492 0.2638 -0.9318
vn -0.9319 0.2492 -0.2638
vn -0.6902 0.6902 -0.2176
vn 0.2492 -0.9319 0.2638
vn 0.9318 -0.2638 0.2492
vn 0.6902 -0.2176 0.6902
vn 0.2638 -0.2492 0.9318
vn 0.2638 0.9318 0.2492
vn 0.2492 0.2638 0.9318
vn 0.9318 0.2492 0.2638
vn 0.6902 0.6902 0.2176
vn 0.2638 -0.9318 -0.2492
vn 0.2492 -0.2638 -0.9318
vn 0.9319 -0.2492 -0.2638
vn 0.6902 -0.6902 -0.2175
vn 0.2492 0.9318 -0.2638
vn 0.6902 0.6902 -0.2176
vn 0.9318 0.2638 -0.2492
vn 0.6902 0.2176 -0.6902
vn 0.2638 0.2492 -0.9318
vn -0.2646 -0.9317 0.2490
vn -0.2490 -0.2646 0.9317
vn -0.9317 -0.2490 0.2646
vn -0.2646 0.2490 0.9317
vn -0.2490 0.9317 0.2646
vn -0.9317 0.2646 0.2490
vn -0.2490 -0.9317 -0.2646
vn -0.9317 -0.2646 -0.2490
vn -0.2646 -0.2490 -0.9317
vn -0.2646 0.9317 -0.2490
vn -0.2490 0.2646 -0.9317
vn -0.9317 0.2490 -0.2646
vn 0.2490 -0.9317 0.2646
vn 0.9317 -0.2646 0.2490
vn 0.2646 -0.2490 0.9317
vn 0.2646 0.9317 0.2490
vn 0.2490 0.2646 0.9317
vn 0.9317 0.2490 0.2646
vn 0.2646 -0.9317 -0.2490
vn 0.2490 -0.2646 -0.9317
vn 0.9317 -0.2490 -0.2646
vn 0.2490 0.9317 -0.2646
vn 0.9317 0.2646 -0.2490
vn 0.2646 0.2490 -0.9317
vn -0.2492 -0.2638 0.9319
vn -0.2492 0.9318 0.2638
vn -0.9319 0.2638 0.2492
vn -0.6902 -0.2176 -0.6902
vn -0.2638 0.9318 -0.2492
vn -0.2492 0.2638 -0.9319
vn -0.9318 0.2492 -0.2638
vn 0.2492 0.2638 0.9319
vn 0.2175 -0.6902 -0.6902
vn 0.2638 0.2492 -0.9319
vn 0.2492 -0.2638 -0.9319
vn 0.2638 0.9319 0.2492
vn 0.2175 0.6902 0.6902
vn 0.9319 0.2492 0.2638
vn 0.2175 0.6902 -0.6902
s 0
usemtl DetailGraphite
f 1//1 6//1 5//1
f 4//2 9//2 6//2
f 2//3 9//3 8//3
f 7//4 12//4 9//4
f 3//5 12//5 11//5
f 10//6 6//6 12//6
f 6//7 9//7 12//7
f 13//8 18//8 17//8
f 16//9 21//9 18//9
f 14//10 21//10 20//10
f 19//11 24//11 21//11
f 15//12 24//12 23//12
f 22//13 18//13 24//13
f 18//14 21//14 24//14
f 25//15 30//15 29//15
f 28//16 33//16 30//16
f 26//17 33//17 32//17
f 31//18 36//18 33//18
f 27//19 36//19 35//19
f 34//20 30//20 36//20
f 30//21 33//21 36//21
f 37//22 42//22 41//22
f 40//23 45//23 42//23
f 38//24 45//24 44//24
f 43//25 48//25 45//25
f 39//26 48//26 47//26
f 46//27 42//27 48//27
f 42//28 45//28 48//28
f 49//29 54//29 53//29
f 52//30 57//30 54//30
f 50//31 57//31 56//31
f 55//32 60//32 57//32
f 51//33 60//33 59//33
f 58//34 54//34 60//34
f 54//35 57//35 60//35
f 61//36 66//36 65//36
f 64//37 69//37 66//37
f 62//38 69//38 68//38
f 67//39 72//39 69//39
f 63//40 72//40 71//40
f 70//41 66//41 72//41
f 66//42 69//42 72//42
f 73//43 78//43 77//43
f 76//44 81//44 78//44
f 74//45 81//45 80//45
f 79//46 84//46 81//46
f 75//47 84//47 83//47
f 82//48 78//48 84//48
f 78//49 81//49 84//49
f 85//50 90//50 89//50
f 88//51 93//51 90//51
f 86//52 93//52 92//52
f 91//53 96//53 93//53
f 87//54 96//54 95//54
f 94//55 90//55 96//55
f 90//56 93//56 96//56
f 25//57 5//57 28//57
f 28//58 10//58 32//58
f 32//59 3//59 26//59
f 2//60 17//60 7//60
f 7//61 22//61 11//61
f 11//62 15//62 3//62
f 14//63 41//63 19//63
f 19//64 46//64 23//64
f 23//65 39//65 15//65
f 38//66 35//66 43//66
f 43//67 31//67 47//67
f 47//68 26//68 39//68
f 73//69 29//69 76//69
f 76//70 34//70 80//70
f 80//71 27//71 74//71
f 37//72 89//72 40//72
f 40//73 94//73 44//73
f 44//74 87//74 38//74
f 86//75 83//75 91//75
f 91//76 79//76 95//76
f 95//77 74//77 87//77
f 49//78 77//78 52//78
f 52//79 82//79 56//79
f 56//80 75//80 50//80
f 85//81 65//81 88//81
f 88//82 70//82 92//82
f 92//83 63//83 86//83
f 62//84 59//84 67//84
f 67//85 55//85 71//85
f 71//86 50//86 63//86
f 1//87 53//87 4//87
f 4//88 58//88 8//88
f 8//89 51//89 2//89
f 61//90 20//90 64//90
f 64//91 16//91 68//91
f 68//92 13//92 62//92
f 25//93 49//93 1//93
f 3//94 39//94 26//94
f 51//95 13//95 2//95
f 85//96 14//96 61//96
f 27//97 87//97 74//97
f 75//98 63//98 50//98
f 1//338 4//338 6//338
f 4//2 8//2 9//2
f 2//339 7//339 9//339
f 7//4 11//4 12//4
f 3//340 10//340 12//340
f 10//6 5//6 6//6
f 13//341 16//341 18//341
f 16//9 20//9 21//9
f 14//342 19//342 21//342
f 19//11 23//11 24//11
f 15//343 22//343 24//343
f 22//13 17//13 18//13
f 25//344 28//344 30//344
f 28//16 32//16 33//16
f 26//345 31//345 33//345
f 31//18 35//18 36//18
f 27//346 34//346 36//346
f 34//20 29//20 30//20
f 37//347 40//347 42//347
f 40//23 44//23 45//23
f 38//348 43//348 45//348
f 43//25 47//25 48//25
f 39//349 46//349 48//349
f 46//27 41//27 42//27
f 49//350 52//350 54//350
f 52//30 56//30 57//30
f 50//351 55//351 57//351
f 55//32 59//32 60//32
f 51//352 58//352 60//352
f 58//34 53//34 54//34
f 61//353 64//353 66//353
f 64//37 68//37 69//37
f 62//354 67//354 69//354
f 67//39 71//39 72//39
f 63//355 70//355 72//355
f 70//41 65//41 66//41
f 73//356 76//356 78//356
f 76//44 80//44 81//44
f 74//357 79//357 81//357
f 79//46 83//46 84//46
f 75//358 82//358 84//358
f 82//48 77//48 78//48
f 85//359 88//359 90//359
f 88//51 92//51 93//51
f 86//360 91//360 93//360
f 91//53 95//53 96//53
f 87//361 94//361 96//361
f 94//55 89//55 90//55
f 25//57 1//57 5//57
f 28//58 5//58 10//58
f 32//59 10//59 3//59
f 2//60 13//60 17//60
f 7//61 17//61 22//61
f 11//62 22//62 15//62
f 14//63 37//63 41//63
f 19//64 41//64 46//64
f 23//65 46//65 39//65
f 38//66 27//66 35//66
f 43//67 35//67 31//67
f 47//68 31//68 26//68
f 73//69 25//69 29//69
f 76//70 29//70 34//70
f 80//71 34//71 27//71
f 37//72 85//72 89//72
f 40//73 89//73 94//73
f 44//74 94//74 87//74
f 86//75 75//75 83//75
f 91//76 83//76 79//76
f 95//77 79//77 74//77
f 49//78 73//78 77//78
f 52//79 77//79 82//79
f 56//80 82//80 75//80
f 85//81 61//81 65//81
f 88//82 65//82 70//82
f 92//83 70//83 63//83
f 62//84 51//84 59//84
f 67//85 59//85 55//85
f 71//86 55//86 50//86
f 1//87 49//87 53//87
f 4//88 53//88 58//88
f 8//89 58//89 51//89
f 61//90 14//90 20//90
f 64//91 20//91 16//91
f 68//92 16//92 13//92
f 25//93 73//93 49//93
f 3//94 15//94 39//94
f 51//95 62//95 13//95
f 85//96 37//96 14//96
f 27//97 38//97 87//97
f 75//98 86//98 63//98
usemtl Rubber
f 97//99 102//99 101//99
f 100//100 105//100 102//100
f 98//101 105//101 104//101
f 103//102 108//102 105//102
f 99//103 108//103 107//103
f 106//104 102//104 108//104
f 102//105 105//105 108//105
f 109//106 114//106 113//106
f 112//107 117//107 114//107
f 110//108 117//108 116//108
f 115//109 120//109 117//109
f 111//110 120//110 119//110
f 118//111 114//111 120//111
f 114//112 117//112 120//112
f 121//113 126//113 125//113
f 124//114 129//114 126//114
f 122//115 129//115 128//115
f 127//116 132//116 129//116
f 123//117 132//117 131//117
f 130//118 126//118 132//118
f 126//119 129//119 132//119
f 133//120 138//120 137//120
f 136//121 141//121 138//121
f 134//122 141//122 140//122
f 139//123 144//123 141//123
f 135//124 144//124 143//124
f 142//125 138//125 144//125
f 138//126 141//126 144//126
f 145//127 150//127 149//127
f 148//128 153//128 150//128
f 146//129 153//129 152//129
f 151//130 156//130 153//130
f 147//131 156//131 155//131
f 154//132 150//132 156//132
f 150//133 153//133 156//133
f 157//134 162//134 161//134
f 160//135 165//135 162//135
f 158//136 165//136 164//136
f 163//137 168//137 165//137
f 159//138 168//138 167//138
f 166//139 162//139 168//139
f 162//140 165//140 168//140
f 169//141 174//141 173//141
f 172//142 177//142 174//142
f 170//143 177//143 176//143
f 175//144 180//144 177//144
f 171//145 180//145 179//145
f 178//146 174//146 180//146
f 174//147 177//147 180//147
f 181//148 186//148 185//148
f 184//149 189//149 186//149
f 182//150 189//150 188//150
f 187//151 192//151 189//151
f 183//152 192//152 191//152
f 190//153 186//153 192//153
f 186//154 189//154 192//154
f 121//57 101//57 124//57
f 124//58 106//58 128//58
f 128//59 99//59 122//59
f 98//60 113//60 103//60
f 103//61 118//61 107//61
f 107//62 111//62 99//62
f 110//63 137//63 115//63
f 115//64 142//64 119//64
f 119//65 135//65 111//65
f 134//66 131//66 139//66
f 139//67 127//67 143//67
f 143//68 122//68 135//68
f 169//69 125//69 172//69
f 172//70 130//70 176//70
f 176//71 123//71 170//71
f 133//72 185//72 136//72
f 136//73 190//73 140//73
f 140//74 183//74 134//74
f 182//75 179//75 187//75
f 187//76 175//76 191//76
f 191//77 170//77 183//77
f 145//78 173//78 148//78
f 148//79 178//79 152//79
f 152//80 171//80 146//80
f 181//81 161//81 184//81
f 184//82 166//82 188//82
f 188//83 159//83 182//83
f 158//84 155//84 163//84
f 163//85 151//85 167//85
f 167//86 146//86 159//86
f 97//87 149//87 100//87
f 100//88 154//88 104//88
f 104//89 147//89 98//89
f 157//90 116//90 160//90
f 160//91 112//91 164//91
f 164//92 109//92 158//92
f 121//93 145//93 97//93
f 99//94 135//94 122//94
f 147//95 109//95 98//95
f 181//96 110//96 157//96
f 123//97 183//97 170//97
f 171//98 159//98 146//98
f 289//235 294//235 293//235
f 292//236 297//236 294//236
f 290//237 297//237 296//237
f 295//238 300//238 297//238
f 291//239 300//239 299//239
f 298//240 294//240 300//240
f 294//7 297//7 300//7
f 301//241 306//241 305//241
f 304//242 309//242 306//242
f 302//243 309//243 308//243
f 307//244 312//244 309//244
f 303//245 312//245 311//245
f 310//246 306//246 312//246
f 306//168 309//168 312//168
f 313//247 318//247 317//247
f 316//248 321//248 318//248
f 314//249 321//249 320//249
f 319//250 324//250 321//250
f 315//251 324//251 323//251
f 322//252 318//252 324//252
f 318//119 321//119 324//119
f 325//253 330//253 329//253
f 328//254 333//254 330//254
f 326//255 333//255 332//255
f 331//256 336//256 333//256
f 327//257 336//257 335//257
f 334//258 330//258 336//258
f 330//259 333//259 336//259
f 337//260 342//260 341//260
f 340//261 345//261 342//261
f 338//262 345//262 344//262
f 343//263 348//263 345//263
f 339//264 348//264 347//264
f 346//265 342//265 348//265
f 342//189 345//189 348//189
f 349//266 354//266 353//266
f 352//267 357//267 354//267
f 350//268 357//268 356//268
f 355//269 360//269 357//269
f 351//270 360//270 359//270
f 358//271 354//271 360//271
f 354//272 357//272 360//272
f 361//273 366//273 365//273
f 364//274 369//274 366//274
f 362//275 369//275 368//275
f 367//276 372//276 369//276
f 363//277 372//277 371//277
f 370//278 366//278 372//278
f 366//147 369//147 372//147
f 373//279 378//279 377//279
f 376//280 381//280 378//280
f 374//281 381//281 380//281
f 379//282 384//282 381//282
f 375//283 384//283 383//283
f 382//284 378//284 384//284
f 378//285 381//285 384//285
f 313//286 293//286 316//286
f 316//58 298//58 320//58
f 320//287 291//287 314//287
f 290//288 305//288 295//288
f 295//61 310//61 299//61
f 299//289 303//289 291//289
f 302//290 329//290 307//290
f 307//64 334//64 311//64
f 311//291 327//291 303//291
f 326//292 323//292 331//292
f 331//67 319//67 335//67
f 335//293 314//293 327//293
f 361//294 317//294 364//294
f 364//70 322//70 368//70
f 368//295 315//295 362//295
f 325//296 377//296 328//296
f 328//73 382//73 332//73
f 332//297 375//297 326//297
f 374//298 371//298 379//298
f 379//76 367//76 383//76
f 383//299 362//299 375//299
f 337//300 365//300 340//300
f 340//79 370//79 344//79
f 344//301 363//301 338//301
f 373//302 353//302 376//302
f 376//82 358//82 380//82
f 380//303 351//303 374//303
f 350//304 347//304 355//304
f 355//85 343//85 359//85
f 359//305 338//305 351//305
f 289//306 341//306 292//306
f 292//88 346//88 296//88
f 296//307 339//307 290//307
f 349//308 308//308 352//308
f 352//91 304//91 356//91
f 356//309 301//309 350//309
f 313//93 337//93 289//93
f 291//94 327//94 314//94
f 339//95 301//95 290//95
f 373//96 302//96 349//96
f 315//97 375//97 362//97
f 363//98 351//98 338//98
f 481//235 486//235 485//235
f 484//236 489//236 486//236
f 482//237 489//237 488//237
f 487//238 492//238 489//238
f 483//239 492//239 491//239
f 490//240 486//240 492//240
f 486//329 489//329 492//329
f 493//241 498//241 497//241
f 496//242 501//242 498//242
f 494//243 501//243 500//243
f 499//244 504//244 501//244
f 495//245 504//245 503//245
f 502//246 498//246 504//246
f 498//330 501//330 504//330
f 505//247 510//247 509//247
f 508//248 513//248 510//248
f 506//249 513//249 512//249
f 511//250 516//250 513//250
f 507//251 516//251 515//251
f 514//252 510//252 516//252
f 510//119 513//119 516//119
f 517//253 522//253 521//253
f 520//254 525//254 522//254
f 518//255 525//255 524//255
f 523//256 528//256 525//256
f 519//257 528//257 527//257
f 526//258 522//258 528//258
f 522//259 525//259 528//259
f 529//260 534//260 533//260
f 532//261 537//261 534//261
f 530//262 537//262 536//262
f 535//263 540//263 537//263
f 531//264 540//264 539//264
f 538//265 534//265 540//265
f 534//331 537//331 540//331
f 541//266 546//266 545//266
f 544//267 549//267 546//267
f 542//268 549//268 548//268
f 547//269 552//269 549//269
f 543//270 552//270 551//270
f 550//271 546//271 552//271
f 546//272 549//272 552//272
f 553//273 558//273 557//273
f 556//274 561//274 558//274
f 554//275 561//275 560//275
f 559//276 564//276 561//276
f 555//277 564//277 563//277
f 562//278 558//278 564//278
f 558//147 561//147 564//147
f 565//279 570//279 569//279
f 568//280 573//280 570//280
f 566//281 573//281 572//281
f 571//282 576//282 573//282
f 567//283 576//283 575//283
f 574//284 570//284 576//284
f 570//285 573//285 576//285
f 505//286 485//286 508//286
f 508//58 490//58 512//58
f 512//287 483//287 506//287
f 482//288 497//288 487//288
f 487//61 502//61 491//61
f 491//289 495//289 483//289
f 494//290 521//290 499//290
f 499//64 526//64 503//64
f 503//291 519//291 495//291
f 518//292 515//292 523//292
f 523//67 511//67 527//67
f 527//293 506//293 519//293
f 553//294 509//294 556//294
f 556//70 514//70 560//70
f 560//295 507//295 554//295
f 517//296 569//296 520//296
f 520//73 574//73 524//73
f 524//297 567//297 518//297
f 566//298 563//298 571//298
f 571//76 559//76 575//76
f 575//299 554//299 567//299
f 529//300 557//300 532//300
f 532//79 562//79 536//79
f 536//301 555//301 530//301
f 565//302 545//302 568//302
f 568//82 550//82 572//82
f 572//303 543//303 566//303
f 542//304 539//304 547//304
f 547//85 535//85 551//85
f 551//305 530//305 543//305
f 481//306 533//306 484//306
f 484//88 538//88 488//88
f 488//307 531//307 482//307
f 541//308 500//308 544//308
f 544//91 496//91 548//91
f 548//309 493//309 542//309
f 505//93 529//93 481//93
f 483//94 519//94 506//94
f 531//95 493//95 482//95
f 565//96 494//96 541//96
f 507//97 567//97 554//97
f 555//98 543//98 530//98
f 673//235 678//235 677//235
f 676//236 681//236 678//236
f 674//237 681//237 680//237
f 679//238 684//238 681//238
f 675//239 684//239 683//239
f 682//240 678//240 684//240
f 678//333 681//333 684//333
f 685//241 690//241 689//241
f 688//242 693//242 690//242
f 686//243 693//243 692//243
f 691//244 696//244 693//244
f 687//245 696//245 695//245
f 694//246 690//246 696//246
f 690//168 693//168 696//168
f 697//247 702//247 701//247
f 700//248 705//248 702//248
f 698//249 705//249 704//249
f 703//250 708//250 705//250
f 699//251 708//251 707//251
f 706//252 702//252 708//252
f 702//119 705//119 708//119
f 709//253 714//253 713//253
f 712//254 717//254 714//254
f 710//255 717//255 716//255
f 715//256 720//256 717//256
f 711//257 720//257 719//257
f 718//258 714//258 720//258
f 714//259 717//259 720//259
f 721//260 726//260 725//260
f 724//261 729//261 726//261
f 722//262 729//262 728//262
f 727//263 732//263 729//263
f 723//264 732//264 731//264
f 730//265 726//265 732//265
f 726//334 729//334 732//334
f 733//266 738//266 737//266
f 736//267 741//267 738//267
f 734//268 741//268 740//268
f 739//269 744//269 741//269
f 735//270 744//270 743//270
f 742//271 738//271 744//271
f 738//335 741//335 744//335
f 745//273 750//273 749//273
f 748//274 753//274 750//274
f 746//275 753//275 752//275
f 751//276 756//276 753//276
f 747//277 756//277 755//277
f 754//278 750//278 756//278
f 750//147 753//147 756//147
f 757//279 762//279 761//279
f 760//280 765//280 762//280
f 758//281 765//281 764//281
f 763//282 768//282 765//282
f 759//283 768//283 767//283
f 766//284 762//284 768//284
f 762//285 765//285 768//285
f 697//286 677//286 700//286
f 700//58 682//58 704//58
f 704//287 675//287 698//287
f 674//288 689//288 679//288
f 679//61 694//61 683//61
f 683//289 687//289 675//289
f 686//290 713//290 691//290
f 691//64 718//64 695//64
f 695//291 711//291 687//291
f 710//292 707//292 715//292
f 715//67 703//67 719//67
f 719//293 698//293 711//293
f 745//294 701//294 748//294
f 748//70 706//70 752//70
f 752//295 699//295 746//295
f 709//296 761//296 712//296
f 712//73 766//73 716//73
f 716//297 759//297 710//297
f 758//298 755//298 763//298
f 763//76 751//76 767//76
f 767//299 746//299 759//299
f 721//300 749//300 724//300
f 724//79 754//79 728//79
f 728//301 747//301 722//301
f 757//302 737//302 760//302
f 760//82 742//82 764//82
f 764//303 735//303 758//303
f 734//304 731//304 739//304
f 739//85 727//85 743//85
f 743//305 722//305 735//305
f 673//306 725//306 676//306
f 676//88 730//88 680//88
f 680//307 723//307 674//307
f 733//308 692//308 736//308
f 736//91 688//91 740//91
f 740//309 685//309 734//309
f 697//93 721//93 673//93
f 675//94 711//94 698//94
f 723//95 685//95 674//95
f 757//96 686//96 733//96
f 699//97 759//97 746//97
f 747//98 735//98 722//98
f 865//235 870//235 869//235
f 868//236 873//236 870//236
f 866//237 873//237 872//237
f 871//238 876//238 873//238
f 867//239 876//239 875//239
f 874//240 870//240 876//240
f 870//161 873//161 876//161
f 877//241 882//241 881//241
f 880//242 885//242 882//242
f 878//243 885//243 884//243
f 883//244 888//244 885//244
f 879//245 888//245 887//245
f 886//246 882//246 888//246
f 882//168 885//168 888//168
f 889//247 894//247 893//247
f 892//248 897//248 894//248
f 890//249 897//249 896//249
f 895//250 900//250 897//250
f 891//251 900//251 899//251
f 898//252 894//252 900//252
f 894//119 897//119 900//119
f 901//253 906//253 905//253
f 904//254 909//254 906//254
f 902//255 909//255 908//255
f 907//256 912//256 909//256
f 903//257 912//257 911//257
f 910//258 906//258 912//258
f 906//259 909//259 912//259
f 913//260 918//260 917//260
f 916//261 921//261 918//261
f 914//262 921//262 920//262
f 919//263 924//263 921//263
f 915//264 924//264 923//264
f 922//265 918//265 924//265
f 918//35 921//35 924//35
f 925//266 930//266 929//266
f 928//267 933//267 930//267
f 926//268 933//268 932//268
f 931//269 936//269 933//269
f 927//270 936//270 935//270
f 934//271 930//271 936//271
f 930//272 933//272 936//272
f 937//273 942//273 941//273
f 940//274 945//274 942//274
f 938//275 945//275 944//275
f 943//276 948//276 945//276
f 939//277 948//277 947//277
f 946//278 942//278 948//278
f 942//147 945//147 948//147
f 949//279 954//279 953//279
f 952//280 957//280 954//280
f 950//281 957//281 956//281
f 955//282 960//282 957//282
f 951//283 960//283 959//283
f 958//284 954//284 960//284
f 954//285 957//285 960//285
f 889//286 869//286 892//286
f 892//58 874//58 896//58
f 896//287 867//287 890//287
f 866//288 881//288 871//288
f 871//61 886//61 875//61
f 875//289 879//289 867//289
f 878//290 905//290 883//290
f 883//64 910//64 887//64
f 887//291 903//291 879//291
f 902//292 899//292 907//292
f 907//67 895//67 911//67
f 911//293 890//293 903//293
f 937//294 893//294 940//294
f 940//70 898//70 944//70
f 944//295 891//295 938//295
f 901//296 953//296 904//296
f 904//73 958//73 908//73
f 908//297 951//297 902//297
f 950//298 947//298 955//298
f 955//76 943//76 959//76
f 959//299 938//299 951//299
f 913//300 941//300 916//300
f 916//79 946//79 920//79
f 920//301 939//301 914//301
f 949//302 929//302 952//302
f 952//82 934//82 956//82
f 956//303 927//303 950//303
f 926//304 923//304 931//304
f 931//85 919//85 935//85
f 935//305 914//305 927//305
f 865//306 917//306 868//306
f 868//88 922//88 872//88
f 872//307 915//307 866//307
f 925//308 884//308 928//308
f 928//91 880//91 932//91
f 932//309 877//309 926//309
f 889//93 913//93 865//93
f 867//94 903//94 890//94
f 915//95 877//95 866//95
f 949//96 878//96 925//96
f 891//97 951//97 938//97
f 939//98 927//98 914//98
f 97//362 100//362 102//362
f 100//100 104//100 105//100
f 98//363 103//363 105//363
f 103//102 107//102 108//102
f 99//364 106//364 108//364
f 106//104 101//104 102//104
f 109//365 112//365 114//365
f 112//107 116//107 117//107
f 110//366 115//366 117//366
f 115//109 119//109 120//109
f 111//367 118//367 120//367
f 118//111 113//111 114//111
f 121//368 124//368 126//368
f 124//114 128//114 129//114
f 122//369 127//369 129//369
f 127//116 131//116 132//116
f 123//370 130//370 132//370
f 130//118 125//118 126//118
f 133//371 136//371 138//371
f 136//121 140//121 141//121
f 134//372 139//372 141//372
f 139//123 143//123 144//123
f 135//373 142//373 144//373
f 142//125 137//125 138//125
f 145//374 148//374 150//374
f 148//128 152//128 153//128
f 146//375 151//375 153//375
f 151//130 155//130 156//130
f 147//376 154//376 156//376
f 154//132 149//132 150//132
f 157//377 160//377 162//377
f 160//135 164//135 165//135
f 158//378 163//378 165//378
f 163//137 167//137 168//137
f 159//379 166//379 168//379
f 166//139 161//139 162//139
f 169//380 172//380 174//380
f 172//142 176//142 177//142
f 170//381 175//381 177//381
f 175//144 179//144 180//144
f 171//382 178//382 180//382
f 178//146 173//146 174//146
f 181//383 184//383 186//383
f 184//149 188//149 189//149
f 182//384 187//384 189//384
f 187//151 191//151 192//151
f 183//385 190//385 192//385
f 190//153 185//153 186//153
f 121//57 97//57 101//57
f 124//58 101//58 106//58
f 128//59 106//59 99//59
f 98//60 109//60 113//60
f 103//61 113//61 118//61
f 107//62 118//62 111//62
f 110//63 133//63 137//63
f 115//64 137//64 142//64
f 119//65 142//65 135//65
f 134//66 123//66 131//66
f 139//67 131//67 127//67
f 143//68 127//68 122//68
f 169//69 121//69 125//69
f 172//70 125//70 130//70
f 176//71 130//71 123//71
f 133//72 181//72 185//72
f 136//73 185//73 190//73
f 140//74 190//74 183//74
f 182//75 171//75 179//75
f 187//76 179//76 175//76
f 191//77 175//77 170//77
f 145//78 169//78 173//78
f 148//79 173//79 178//79
f 152//80 178//80 171//80
f 181//81 157//81 161//81
f 184//82 161//82 166//82
f 188//83 166//83 159//83
f 158//84 147//84 155//84
f 163//85 155//85 151//85
f 167//86 151//86 146//86
f 97//87 145//87 149//87
f 100//88 149//88 154//88
f 104//89 154//89 147//89
f 157//90 110//90 116//90
f 160//91 116//91 112//91
f 164//92 112//92 109//92
f 121//93 169//93 145//93
f 99//94 111//94 135//94
f 147//95 158//95 109//95
f 181//96 133//96 110//96
f 123//97 134//97 183//97
f 171//98 182//98 159//98
f 289//421 292//421 294//421
f 292//236 296//236 297//236
f 290//422 295//422 297//422
f 295//238 299//238 300//238
f 291//423 298//423 300//423
f 298//240 293//240 294//240
f 301//424 304//424 306//424
f 304//242 308//242 309//242
f 302//425 307//425 309//425
f 307//244 311//244 312//244
f 303//426 310//426 312//426
f 310//246 305//246 306//246
f 313//427 316//427 318//427
f 316//248 320//248 321//248
f 314//428 319//428 321//428
f 319//250 323//250 324//250
f 315//429 322//429 324//429
f 322//252 317//252 318//252
f 325//430 328//430 330//430
f 328//254 332//254 333//254
f 326//431 331//431 333//431
f 331//256 335//256 336//256
f 327//432 334//432 336//432
f 334//258 329//258 330//258
f 337//433 340//433 342//433
f 340//261 344//261 345//261
f 338//434 343//434 345//434
f 343//263 347//263 348//263
f 339//435 346//435 348//435
f 346//265 341//265 342//265
f 349//436 352//436 354//436
f 352//267 356//267 357//267
f 350//437 355//437 357//437
f 355//269 359//269 360//269
f 351//438 358//438 360//438
f 358//271 353//271 354//271
f 361//439 364//439 366//439
f 364//274 368//274 369//274
f 362//440 367//440 369//440
f 367//276 371//276 372//276
f 363//441 370//441 372//441
f 370//278 365//278 366//278
f 373//442 376//442 378//442
f 376//280 380//280 381//280
f 374//443 379//443 381//443
f 379//282 383//282 384//282
f 375//444 382//444 384//444
f 382//284 377//284 378//284
f 313//286 289//286 293//286
f 316//58 293//58 298//58
f 320//287 298//287 291//287
f 290//288 301//288 305//288
f 295//61 305//61 310//61
f 299//289 310//289 303//289
f 302//290 325//290 329//290
f 307//64 329//64 334//64
f 311//291 334//291 327//291
f 326//292 315//292 323//292
f 331//67 323//67 319//67
f 335//293 319//293 314//293
f 361//294 313//294 317//294
f 364//70 317//70 322//70
f 368//295 322//295 315//295
f 325//296 373//296 377//296
f 328//73 377//73 382//73
f 332//297 382//297 375//297
f 374//298 363//298 371//298
f 379//76 371//76 367//76
f 383//299 367//299 362//299
f 337//300 361//300 365//300
f 340//79 365//79 370//79
f 344//301 370//301 363//301
f 373//302 349//302 353//302
f 376//82 353//82 358//82
f 380//303 358//303 351//303
f 350//304 339//304 347//304
f 355//85 347//85 343//85
f 359//305 343//305 338//305
f 289//306 337//306 341//306
f 292//88 341//88 346//88
f 296//307 346//307 339//307
f 349//308 302//308 308//308
f 352//91 308//91 304//91
f 356//309 304//309 301//309
f 313//93 361//93 337//93
f 291//94 303//94 327//94
f 339//95 350//95 301//95
f 373//96 325//96 302//96
f 315//97 326//97 375//97
f 363//98 374//98 351//98
f 481//421 484//421 486//421
f 484//236 488//236 489//236
f 482//422 487//422 489//422
f 487//238 491//238 492//238
f 483//423 490//423 492//423
f 490//240 485//240 486//240
f 493//424 496//424 498//424
f 496//242 500//242 501//242
f 494//425 499//425 501//425
f 499//244 503//244 504//244
f 495//426 502//426 504//426
f 502//246 497//246 498//246
f 505//427 508//427 510//427
f 508//248 512//248 513//248
f 506//428 511//428 513//428
f 511//250 515//250 516//250
f 507//429 514//429 516//429
f 514//252 509//252 510//252
f 517//430 520//430 522//430
f 520//254 524//254 525//254
f 518//431 523//431 525//431
f 523//256 527//256 528//256
f 519//432 526//432 528//432
f 526//258 521//258 522//258
f 529//433 532//433 534//433
f 532//261 536//261 537//261
f 530//434 535//434 537//434
f 535//263 539//263 540//263
f 531//435 538//435 540//435
f 538//265 533//265 534//265
f 541//436 544//436 546//436
f 544//267 548//267 549//267
f 542//437 547//437 549//437
f 547//269 551//269 552//269
f 543//438 550//438 552//438
f 550//271 545//271 546//271
f 553//439 556//439 558//439
f 556//274 560//274 561//274
f 554//440 559//440 561//440
f 559//276 563//276 564//276
f 555//441 562//441 564//441
f 562//278 557//278 558//278
f 565//442 568//442 570//442
f 568//280 572//280 573//280
f 566//443 571//443 573//443
f 571//282 575//282 576//282
f 567//444 574//444 576//444
f 574//284 569//284 570//284
f 505//286 481//286 485//286
f 508//58 485//58 490//58
f 512//287 490//287 483//287
f 482//288 493//288 497//288
f 487//61 497//61 502//61
f 491//289 502//289 495//289
f 494//290 517//290 521//290
f 499//64 521//64 526//64
f 503//291 526//291 519//291
f 518//292 507//292 515//292
f 523//67 515//67 511//67
f 527//293 511//293 506//293
f 553//294 505//294 509//294
f 556//70 509//70 514//70
f 560//295 514//295 507//295
f 517//296 565//296 569//296
f 520//73 569//73 574//73
f 524//297 574//297 567//297
f 566//298 555//298 563//298
f 571//76 563//76 559//76
f 575//299 559//299 554//299
f 529//300 553//300 557//300
f 532//79 557//79 562//79
f 536//301 562//301 555//301
f 565//302 541//302 545//302
f 568//82 545//82 550//82
f 572//303 550//303 543//303
f 542//304 531//304 539//304
f 547//85 539//85 535//85
f 551//305 535//305 530//305
f 481//306 529//306 533//306
f 484//88 533//88 538//88
f 488//307 538//307 531//307
f 541//308 494//308 500//308
f 544//91 500//91 496//91
f 548//309 496//309 493//309
f 505//93 553//93 529//93
f 483//94 495//94 519//94
f 531//95 542//95 493//95
f 565//96 517//96 494//96
f 507//97 518//97 567//97
f 555//98 566//98 543//98
f 673//421 676//421 678//421
f 676//236 680//236 681//236
f 674//422 679//422 681//422
f 679//238 683//238 684//238
f 675//423 682//423 684//423
f 682//240 677//240 678//240
f 685//424 688//424 690//424
f 688//242 692//242 693//242
f 686//425 691//425 693//425
f 691//244 695//244 696//244
f 687//426 694//426 696//426
f 694//246 689//246 690//246
f 697//427 700//427 702//427
f 700//248 704//248 705//248
f 698//428 703//428 705//428
f 703//250 707//250 708//250
f 699//429 706//429 708//429
f 706//252 701//252 702//252
f 709//430 712//430 714//430
f 712//254 716//254 717//254
f 710//431 715//431 717//431
f 715//256 719//256 720//256
f 711//432 718//432 720//432
f 718//258 713//258 714//258
f 721//433 724//433 726//433
f 724//261 728//261 729//261
f 722//434 727//434 729//434
f 727//263 731//263 732//263
f 723//435 730//435 732//435
f 730//265 725//265 726//265
f 733//436 736//436 738//436
f 736//267 740//267 741//267
f 734//437 739//437 741//437
f 739//269 743//269 744//269
f 735//438 742//438 744//438
f 742//271 737//271 738//271
f 745//439 748//439 750//439
f 748//274 752//274 753//274
f 746//440 751//440 753//440
f 751//276 755//276 756//276
f 747//441 754//441 756//441
f 754//278 749//278 750//278
f 757//442 760//442 762//442
f 760//280 764//280 765//280
f 758//443 763//443 765//443
f 763//282 767//282 768//282
f 759//444 766//444 768//444
f 766//284 761//284 762//284
f 697//286 673//286 677//286
f 700//58 677//58 682//58
f 704//287 682//287 675//287
f 674//288 685//288 689//288
f 679//61 689//61 694//61
f 683//289 694//289 687//289
f 686//290 709//290 713//290
f 691//64 713//64 718//64
f 695//291 718//291 711//291
f 710//292 699//292 707//292
f 715//67 707//67 703//67
f 719//293 703//293 698//293
f 745//294 697//294 701//294
f 748//70 701//70 706//70
f 752//295 706//295 699//295
f 709//296 757//296 761//296
f 712//73 761//73 766//73
f 716//297 766//297 759//297
f 758//298 747//298 755//298
f 763//76 755//76 751//76
f 767//299 751//299 746//299
f 721//300 745//300 749//300
f 724//79 749//79 754//79
f 728//301 754//301 747//301
f 757//302 733//302 737//302
f 760//82 737//82 742//82
f 764//303 742//303 735//303
f 734//304 723//304 731//304
f 739//85 731//85 727//85
f 743//305 727//305 722//305
f 673//306 721//306 725//306
f 676//88 725//88 730//88
f 680//307 730//307 723//307
f 733//308 686//308 692//308
f 736//91 692//91 688//91
f 740//309 688//309 685//309
f 697//93 745//93 721//93
f 675//94 687//94 711//94
f 723//95 734//95 685//95
f 757//96 709//96 686//96
f 699//97 710//97 759//97
f 747//98 758//98 735//98
f 865//421 868//421 870//421
f 868//236 872//236 873//236
f 866//422 871//422 873//422
f 871//238 875//238 876//238
f 867//423 874//423 876//423
f 874//240 869//240 870//240
f 877//424 880//424 882//424
f 880//242 884//242 885//242
f 878//425 883//425 885//425
f 883//244 887//244 888//244
f 879//426 886//426 888//426
f 886//246 881//246 882//246
f 889//427 892//427 894//427
f 892//248 896//248 897//248
f 890//428 895//428 897//428
f 895//250 899//250 900//250
f 891//429 898//429 900//429
f 898//252 893//252 894//252
f 901//430 904//430 906//430
f 904//254 908//254 909//254
f 902//431 907//431 909//431
f 907//256 911//256 912//256
f 903//432 910//432 912//432
f 910//258 905//258 906//258
f 913//433 916//433 918//433
f 916//261 920//261 921//261
f 914//434 919//434 921//434
f 919//263 923//263 924//263
f 915//435 922//435 924//435
f 922//265 917//265 918//265
f 925//436 928//436 930//436
f 928//267 932//267 933//267
f 926//437 931//437 933//437
f 931//269 935//269 936//269
f 927//438 934//438 936//438
f 934//271 929//271 930//271
f 937//439 940//439 942//439
f 940//274 944//274 945//274
f 938//440 943//440 945//440
f 943//276 947//276 948//276
f 939//441 946//441 948//441
f 946//278 941//278 942//278
f 949//442 952//442 954//442
f 952//280 956//280 957//280
f 950//443 955//443 957//443
f 955//282 959//282 960//282
f 951//444 958//444 960//444
f 958//284 953//284 954//284
f 889//286 865//286 869//286
f 892//58 869//58 874//58
f 896//287 874//287 867//287
f 866//288 877//288 881//288
f 871//61 881//61 886//61
f 875//289 886//289 879//289
f 878//290 901//290 905//290
f 883//64 905//64 910//64
f 887//291 910//291 903//291
f 902//292 891//292 899//292
f 907//67 899//67 895//67
f 911//293 895//293 890//293
f 937//294 889//294 893//294
f 940//70 893//70 898//70
f 944//295 898//295 891//295
f 901//296 949//296 953//296
f 904//73 953//73 958//73
f 908//297 958//297 951//297
f 950//298 939//298 947//298
f 955//76 947//76 943//76
f 959//299 943//299 938//299
f 913//300 937//300 941//300
f 916//79 941//79 946//79
f 920//301 946//301 939//301
f 949//302 925//302 929//302
f 952//82 929//82 934//82
f 956//303 934//303 927//303
f 926//304 915//304 923//304
f 931//85 923//85 919//85
f 935//305 919//305 914//305
f 865//306 913//306 917//306
f 868//88 917//88 922//88
f 872//307 922//307 915//307
f 925//308 878//308 884//308
f 928//91 884//91 880//91
f 932//309 880//309 877//309
f 889//93 937//93 913//93
f 867//94 879//94 903//94
f 915//95 926//95 877//95
f 949//96 901//96 878//96
f 891//97 902//97 951//97
f 939//98 950//98 927//98
usemtl Shell
f 193//155 198//155 197//155
f 196//156 201//156 198//156
f 194//157 201//157 200//157
f 199//158 204//158 201//158
f 195//159 204//159 203//159
f 202//160 198//160 204//160
f 198//161 201//161 204//161
f 205//162 210//162 209//162
f 208//163 213//163 210//163
f 206//164 213//164 212//164
f 211//165 216//165 213//165
f 207//166 216//166 215//166
f 214//167 210//167 216//167
f 210//168 213//168 216//168
f 217//169 222//169 221//169
f 220//170 225//170 222//170
f 218//171 225//171 224//171
f 223//172 228//172 225//172
f 219//173 228//173 227//173
f 226//174 222//174 228//174
f 222//175 225//175 228//175
f 229//176 234//176 233//176
f 232//177 237//177 234//177
f 230//178 237//178 236//178
f 235//179 240//179 237//179
f 231//180 240//180 239//180
f 238//181 234//181 240//181
f 234//182 237//182 240//182
f 241//183 246//183 245//183
f 244//184 249//184 246//184
f 242//185 249//185 248//185
f 247//186 252//186 249//186
f 243//187 252//187 251//187
f 250//188 246//188 252//188
f 246//189 249//189 252//189
f 253//190 258//190 257//190
f 256//191 261//191 258//191
f 254//192 261//192 260//192
f 259//193 264//193 261//193
f 255//194 264//194 263//194
f 262//195 258//195 264//195
f 258//196 261//196 264//196
f 265//197 270//197 269//197
f 268//198 273//198 270//198
f 266//199 273//199 272//199
f 271//200 276//200 273//200
f 267//201 276//201 275//201
f 274//202 270//202 276//202
f 270//203 273//203 276//203
f 277//204 282//204 281//204
f 280//205 285//205 282//205
f 278//206 285//206 284//206
f 283//207 288//207 285//207
f 279//208 288//208 287//208
f 286//209 282//209 288//209
f 282//210 285//210 288//210
f 217//211 197//211 220//211
f 220//58 202//58 224//58
f 224//212 195//212 218//212
f 194//213 209//213 199//213
f 199//61 214//61 203//61
f 203//214 207//214 195//214
f 206//215 233//215 211//215
f 211//64 238//64 215//64
f 215//216 231//216 207//216
f 230//217 227//217 235//217
f 235//67 223//67 239//67
f 239//218 218//218 231//218
f 265//219 221//219 268//219
f 268//70 226//70 272//70
f 272//220 219//220 266//220
f 229//221 281//221 232//221
f 232//73 286//73 236//73
f 236//222 279//222 230//222
f 278//223 275//223 283//223
f 283//76 271//76 287//76
f 287//224 266//224 279//224
f 241//225 269//225 244//225
f 244//79 274//79 248//79
f 248//226 267//226 242//226
f 277//227 257//227 280//227
f 280//82 262//82 284//82
f 284//228 255//228 278//228
f 254//229 251//229 259//229
f 259//85 247//85 263//85
f 263//230 242//230 255//230
f 193//231 245//231 196//231
f 196//88 250//88 200//88
f 200//232 243//232 194//232
f 253//233 212//233 256//233
f 256//91 208//91 260//91
f 260//234 205//234 254//234
f 217//93 241//93 193//93
f 195//94 231//94 218//94
f 243//95 205//95 194//95
f 277//96 206//96 253//96
f 219//97 279//97 266//97
f 267//98 255//98 242//98
f 385//155 390//155 389//155
f 388//156 393//156 390//156
f 386//157 393//157 392//157
f 391//158 396//158 393//158
f 387//159 396//159 395//159
f 394//160 390//160 396//160
f 390//161 393//161 396//161
f 397//310 402//310 401//310
f 400//163 405//163 402//163
f 398//311 405//311 404//311
f 403//165 408//165 405//165
f 399//312 408//312 407//312
f 406//167 402//167 408//167
f 402//313 405//313 408//313
f 409//169 414//169 413//169
f 412//314 417//314 414//314
f 410//171 417//171 416//171
f 415//172 420//172 417//172
f 411//315 420//315 419//315
f 418//174 414//174 420//174
f 414//175 417//175 420//175
f 421//176 426//176 425//176
f 424//177 429//177 426//177
f 422//316 429//316 428//316
f 427//317 432//317 429//317
f 423//318 432//318 431//318
f 430//181 426//181 432//181
f 426//319 429//319 432//319
f 433//183 438//183 437//183
f 436//320 441//320 438//320
f 434//185 441//185 440//185
f 439//186 444//186 441//186
f 435//321 444//321 443//321
f 442//188 438//188 444//188
f 438//189 441//189 444//189
f 445//322 450//322 449//322
f 448//191 453//191 450//191
f 446//192 453//192 452//192
f 451//323 456//323 453//323
f 447//324 456//324 455//324
f 454//195 450//195 456//195
f 450//325 453//325 456//325
f 457//197 462//197 461//197
f 460//198 465//198 462//198
f 458//199 465//199 464//199
f 463//326 468//326 465//326
f 459//201 468//201 467//201
f 466//202 462//202 468//202
f 462//203 465//203 468//203
f 469//204 474//204 473//204
f 472//205 477//205 474//205
f 470//206 477//206 476//206
f 475//207 480//207 477//207
f 471//327 480//327 479//327
f 478//209 474//209 480//209
f 474//328 477//328 480//328
f 409//211 389//211 412//211
f 412//58 394//58 416//58
f 416//212 387//212 410//212
f 386//213 401//213 391//213
f 391//61 406//61 395//61
f 395//214 399//214 387//214
f 398//215 425//215 403//215
f 403//64 430//64 407//64
f 407//216 423//216 399//216
f 422//217 419//217 427//217
f 427//67 415//67 431//67
f 431//218 410//218 423//218
f 457//219 413//219 460//219
f 460//70 418//70 464//70
f 464//220 411//220 458//220
f 421//221 473//221 424//221
f 424//73 478//73 428//73
f 428//222 471//222 422//222
f 470//223 467//223 475//223
f 475//76 463//76 479//76
f 479//224 458//224 471//224
f 433//225 461//225 436//225
f 436//79 466//79 440//79
f 440//226 459//226 434//226
f 469//227 449//227 472//227
f 472//82 454//82 476//82
f 476//228 447//228 470//228
f 446//229 443//229 451//229
f 451//85 439//85 455//85
f 455//230 434//230 447//230
f 385//231 437//231 388//231
f 388//88 442//88 392//88
f 392//232 435//232 386//232
f 445//233 404//233 448//233
f 448//91 400//91 452//91
f 452//234 397//234 446//234
f 409//93 433//93 385//93
f 387//94 423//94 410//94
f 435//95 397//95 386//95
f 469//96 398//96 445//96
f 411//97 471//97 458//97
f 459//98 447//98 434//98
f 577//155 582//155 581//155
f 580//156 585//156 582//156
f 578//157 585//157 584//157
f 583//158 588//158 585//158
f 579//159 588//159 587//159
f 586//160 582//160 588//160
f 582//161 585//161 588//161
f 589//310 594//310 593//310
f 592//163 597//163 594//163
f 590//311 597//311 596//311
f 595//165 600//165 597//165
f 591//312 600//312 599//312
f 598//167 594//167 600//167
f 594//332 597//332 600//332
f 601//169 606//169 605//169
f 604//170 609//170 606//170
f 602//171 609//171 608//171
f 607//172 612//172 609//172
f 603//173 612//173 611//173
f 610//174 606//174 612//174
f 606//175 609//175 612//175
f 613//176 618//176 617//176
f 616//177 621//177 618//177
f 614//178 621//178 620//178
f 619//317 624//317 621//317
f 615//318 624//318 623//318
f 622//181 618//181 624//181
f 618//182 621//182 624//182
f 625//183 630//183 629//183
f 628//184 633//184 630//184
f 626//185 633//185 632//185
f 631//186 636//186 633//186
f 627//321 636//321 635//321
f 634//188 630//188 636//188
f 630//189 633//189 636//189
f 637//322 642//322 641//322
f 640//191 645//191 642//191
f 638//192 645//192 644//192
f 643//323 648//323 645//323
f 639//324 648//324 647//324
f 646//195 642//195 648//195
f 642//196 645//196 648//196
f 649//197 654//197 653//197
f 652//198 657//198 654//198
f 650//199 657//199 656//199
f 655//326 660//326 657//326
f 651//201 660//201 659//201
f 658//202 654//202 660//202
f 654//203 657//203 660//203
f 661//204 666//204 665//204
f 664//205 669//205 666//205
f 662//206 669//206 668//206
f 667//207 672//207 669//207
f 663//327 672//327 671//327
f 670//209 666//209 672//209
f 666//210 669//210 672//210
f 601//211 581//211 604//211
f 604//58 586//58 608//58
f 608//212 579//212 602//212
f 578//213 593//213 583//213
f 583//61 598//61 587//61
f 587//214 591//214 579//214
f 590//215 617//215 595//215
f 595//64 622//64 599//64
f 599//216 615//216 591//216
f 614//217 611//217 619//217
f 619//67 607//67 623//67
f 623//218 602//218 615//218
f 649//219 605//219 652//219
f 652//70 610//70 656//70
f 656//220 603//220 650//220
f 613//221 665//221 616//221
f 616//73 670//73 620//73
f 620//222 663//222 614//222
f 662//223 659//223 667//223
f 667//76 655//76 671//76
f 671//224 650//224 663//224
f 625//225 653//225 628//225
f 628//79 658//79 632//79
f 632//226 651//226 626//226
f 661//227 641//227 664//227
f 664//82 646//82 668//82
f 668//228 639//228 662//228
f 638//229 635//229 643//229
f 643//85 631//85 647//85
f 647//230 626//230 639//230
f 577//231 629//231 580//231
f 580//88 634//88 584//88
f 584//232 627//232 578//232
f 637//233 596//233 640//233
f 640//91 592//91 644//91
f 644//234 589//234 638//234
f 601//93 625//93 577//93
f 579//94 615//94 602//94
f 627//95 589//95 578//95
f 661//96 590//96 637//96
f 603//97 663//97 650//97
f 651//98 639//98 626//98
f 769//155 774//155 773//155
f 772//156 777//156 774//156
f 770//157 777//157 776//157
f 775//158 780//158 777//158
f 771//159 780//159 779//159
f 778//160 774//160 780//160
f 774//161 777//161 780//161
f 781//162 786//162 785//162
f 784//163 789//163 786//163
f 782//311 789//311 788//311
f 787//165 792//165 789//165
f 783//312 792//312 791//312
f 790//167 786//167 792//167
f 786//313 789//313 792//313
f 793//169 798//169 797//169
f 796//314 801//314 798//314
f 794//171 801//171 800//171
f 799//172 804//172 801//172
f 795//173 804//173 803//173
f 802//174 798//174 804//174
f 798//175 801//175 804//175
f 805//176 810//176 809//176
f 808//177 813//177 810//177
f 806//316 813//316 812//316
f 811//179 816//179 813//179
f 807//180 816//180 815//180
f 814//181 810//181 816//181
f 810//319 813//319 816//319
f 817//183 822//183 821//183
f 820//320 825//320 822//320
f 818//185 825//185 824//185
f 823//186 828//186 825//186
f 819//187 828//187 827//187
f 826//188 822//188 828//188
f 822//189 825//189 828//189
f 829//190 834//190 833//190
f 832//191 837//191 834//191
f 830//192 837//192 836//192
f 835//193 840//193 837//193
f 831//194 840//194 839//194
f 838//195 834//195 840//195
f 834//272 837//272 840//272
f 841//197 846//197 845//197
f 844//198 849//198 846//198
f 842//199 849//199 848//199
f 847//200 852//200 849//200
f 843//201 852//201 851//201
f 850//202 846//202 852//202
f 846//203 849//203 852//203
f 853//336 858//336 857//336
f 856//205 861//205 858//205
f 854//337 861//337 860//337
f 859//207 864//207 861//207
f 855//208 864//208 863//208
f 862//209 858//209 864//209
f 858//328 861//328 864//328
f 793//211 773//211 796//211
f 796//58 778//58 800//58
f 800//212 771//212 794//212
f 770//213 785//213 775//213
f 775//61 790//61 779//61
f 779//214 783//214 771//214
f 782//215 809//215 787//215
f 787//64 814//64 791//64
f 791//216 807//216 783//216
f 806//217 803//217 811//217
f 811//67 799//67 815//67
f 815//218 794//218 807//218
f 841//219 797//219 844//219
f 844//70 802//70 848//70
f 848//220 795//220 842//220
f 805//221 857//221 808//221
f 808//73 862//73 812//73
f 812//222 855//222 806//222
f 854//223 851//223 859//223
f 859//76 847//76 863//76
f 863//224 842//224 855//224
f 817//225 845//225 820//225
f 820//79 850//79 824//79
f 824//226 843//226 818//226
f 853//227 833//227 856//227
f 856//82 838//82 860//82
f 860//228 831//228 854//228
f 830//229 827//229 835//229
f 835//85 823//85 839//85
f 839//230 818//230 831//230
f 769//231 821//231 772//231
f 772//88 826//88 776//88
f 776//232 819//232 770//232
f 829//233 788//233 832//233
f 832//91 784//91 836//91
f 836//234 781//234 830//234
f 793//93 817//93 769//93
f 771//94 807//94 794//94
f 819//95 781//95 770//95
f 853//96 782//96 829//96
f 795//97 855//97 842//97
f 843//98 831//98 818//98
f 193//386 196//386 198//386
f 196//387 200//387 201//387
f 194//388 199//388 201//388
f 199//389 203//389 204//389
f 195//390 202//390 204//390
f 202//391 197//391 198//391
f 205//392 208//392 210//392
f 208//163 212//163 213//163
f 206//393 211//393 213//393
f 211//394 215//394 216//394
f 207//395 214//395 216//395
f 214//396 209//396 210//396
f 217//397 220//397 222//397
f 220//314 224//314 225//314
f 218//398 223//398 225//398
f 223//172 227//172 228//172
f 219//399 226//399 228//399
f 226//174 221//174 222//174
f 229//400 232//400 234//400
f 232//177 236//177 237//177
f 230//401 235//401 237//401
f 235//179 239//179 240//179
f 231//402 238//402 240//402
f 238//403 233//403 234//403
f 241//404 244//404 246//404
f 244//320 248//320 249//320
f 242//405 247//405 249//405
f 247//406 251//406 252//406
f 243//407 250//407 252//407
f 250//188 245//188 246//188
f 253//408 256//408 258//408
f 256//191 260//191 261//191
f 254//409 259//409 261//409
f 259//193 263//193 264//193
f 255//410 262//410 264//410
f 262//411 257//411 258//411
f 265//412 268//412 270//412
f 268//198 272//198 273//198
f 266//413 271//413 273//413
f 271//200 275//200 276//200
f 267//414 274//414 276//414
f 274//415 269//415 270//415
f 277//416 280//416 282//416
f 280//417 284//417 285//417
f 278//418 283//418 285//418
f 283//419 287//419 288//419
f 279//420 286//420 288//420
f 286//209 281//209 282//209
f 217//211 193//211 197//211
f 220//58 197//58 202//58
f 224//212 202//212 195//212
f 194//213 205//213 209//213
f 199//61 209//61 214//61
f 203//214 214//214 207//214
f 206//215 229//215 233//215
f 211//64 233//64 238//64
f 215//216 238//216 231//216
f 230//217 219//217 227//217
f 235//67 227//67 223//67
f 239//218 223//218 218//218
f 265//219 217//219 221//219
f 268//70 221//70 226//70
f 272//220 226//220 219//220
f 229//221 277//221 281//221
f 232//73 281//73 286//73
f 236//222 286//222 279//222
f 278//223 267//223 275//223
f 283//76 275//76 271//76
f 287//224 271//224 266//224
f 241//225 265//225 269//225
f 244//79 269//79 274//79
f 248//226 274//226 267//226
f 277//227 253//227 257//227
f 280//82 257//82 262//82
f 284//228 262//228 255//228
f 254//229 243//229 251//229
f 259//85 251//85 247//85
f 263//230 247//230 242//230
f 193//231 241//231 245//231
f 196//88 245//88 250//88
f 200//232 250//232 243//232
f 253//233 206//233 212//233
f 256//91 212//91 208//91
f 260//234 208//234 205//234
f 217//93 265//93 241//93
f 195//94 207//94 231//94
f 243//95 254//95 205//95
f 277//96 229//96 206//96
f 219//97 230//97 279//97
f 267//98 278//98 255//98
f 385//386 388//386 390//386
f 388//387 392//387 393//387
f 386//445 391//445 393//445
f 391//389 395//389 396//389
f 387//390 394//390 396//390
f 394//391 389//391 390//391
f 397//392 400//392 402//392
f 400//163 404//163 405//163
f 398//446 403//446 405//446
f 403//394 407//394 408//394
f 399//447 406//447 408//447
f 406//396 401//396 402//396
f 409//397 412//397 414//397
f 412//314 416//314 417//314
f 410//398 415//398 417//398
f 415//448 419//448 420//448
f 411//399 418//399 420//399
f 418//174 413//174 414//174
f 421//449 424//449 426//449
f 424//177 428//177 429//177
f 422//450 427//450 429//450
f 427//179 431//179 432//179
f 423//451 430//451 432//451
f 430//403 425//403 426//403
f 433//404 436//404 438//404
f 436//184 440//184 441//184
f 434//405 439//405 441//405
f 439//406 443//406 444//406
f 435//407 442//407 444//407
f 442//188 437//188 438//188
f 445//408 448//408 450//408
f 448//191 452//191 453//191
f 446//452 451//452 453//452
f 451//323 455//323 456//323
f 447//410 454//410 456//410
f 454//195 449//195 450//195
f 457//412 460//412 462//412
f 460//453 464//453 465//453
f 458//413 463//413 465//413
f 463//200 467//200 468//200
f 459//414 466//414 468//414
f 466//415 461//415 462//415
f 469//416 472//416 474//416
f 472//205 476//205 477//205
f 470//418 475//418 477//418
f 475//207 479//207 480//207
f 471//454 478//454 480//454
f 478//209 473//209 474//209
f 409//211 385//211 389//211
f 412//58 389//58 394//58
f 416//212 394//212 387//212
f 386//213 397//213 401//213
f 391//61 401//61 406//61
f 395//214 406//214 399//214
f 398//215 421//215 425//215
f 403//64 425//64 430//64
f 407//216 430//216 423//216
f 422//217 411//217 419//217
f 427//67 419//67 415//67
f 431//218 415//218 410//218
f 457//219 409//219 413//219
f 460//70 413//70 418//70
f 464//220 418//220 411//220
f 421//221 469//221 473//221
f 424//73 473//73 478//73
f 428//222 478//222 471//222
f 470//223 459//223 467//223
f 475//76 467//76 463//76
f 479//224 463//224 458//224
f 433//225 457//225 461//225
f 436//79 461//79 466//79
f 440//226 466//226 459//226
f 469//227 445//227 449//227
f 472//82 449//82 454//82
f 476//228 454//228 447//228
f 446//229 435//229 443//229
f 451//85 443//85 439//85
f 455//230 439//230 434//230
f 385//231 433//231 437//231
f 388//88 437//88 442//88
f 392//232 442//232 435//232
f 445//233 398//233 404//233
f 448//91 404//91 400//91
f 452//234 400//234 397//234
f 409//93 457//93 433//93
f 387//94 399//94 423//94
f 435//95 446//95 397//95
f 469//96 421//96 398//96
f 411//97 422//97 471//97
f 459//98 470//98 447//98
f 577//386 580//386 582//386
f 580//387 584//387 585//387
f 578//445 583//445 585//445
f 583//389 587//389 588//389
f 579//390 586//390 588//390
f 586//391 581//391 582//391
f 589//392 592//392 594//392
f 592//163 596//163 597//163
f 590//446 595//446 597//446
f 595//165 599//165 600//165
f 591//447 598//447 600//447
f 598//396 593//396 594//396
f 601//397 604//397 606//397
f 604//314 608//314 609//314
f 602//398 607//398 609//398
f 607//172 611//172 612//172
f 603//399 610//399 612//399
f 610//174 605//174 606//174
f 613//449 616//449 618//449
f 616//177 620//177 621//177
f 614//450 619//450 621//450
f 619//179 623//179 624//179
f 615//402 622//402 624//402
f 622//181 617//181 618//181
f 625//404 628//404 630//404
f 628//184 632//184 633//184
f 626//405 631//405 633//405
f 631//406 635//406 636//406
f 627//407 634//407 636//407
f 634//188 629//188 630//188
f 637//408 640//408 642//408
f 640//191 644//191 645//191
f 638//452 643//452 645//452
f 643//323 647//323 648//323
f 639//410 646//410 648//410
f 646//411 641//411 642//411
f 649//412 652//412 654//412
f 652//453 656//453 657//453
f 650//455 655//455 657//455
f 655//200 659//200 660//200
f 651//414 658//414 660//414
f 658//202 653//202 654//202
f 661//416 664//416 666//416
f 664//417 668//417 669//417
f 662//418 667//418 669//418
f 667//419 671//419 672//419
f 663//420 670//420 672//420
f 670//209 665//209 666//209
f 601//211 577//211 581//211
f 604//58 581//58 586//58
f 608//212 586//212 579//212
f 578//213 589//213 593//213
f 583//61 593//61 598//61
f 587//214 598//214 591//214
f 590//215 613//215 617//215
f 595//64 617//64 622//64
f 599//216 622//216 615//216
f 614//217 603//217 611//217
f 619//67 611//67 607//67
f 623//218 607//218 602//218
f 649//219 601//219 605//219
f 652//70 605//70 610//70
f 656//220 610//220 603//220
f 613//221 661//221 665//221
f 616//73 665//73 670//73
f 620//222 670//222 663//222
f 662//223 651//223 659//223
f 667//76 659//76 655//76
f 671//224 655//224 650//224
f 625//225 649//225 653//225
f 628//79 653//79 658//79
f 632//226 658//226 651//226
f 661//227 637//227 641//227
f 664//82 641//82 646//82
f 668//228 646//228 639//228
f 638//229 627//229 635//229
f 643//85 635//85 631//85
f 647//230 631//230 626//230
f 577//231 625//231 629//231
f 580//88 629//88 634//88
f 584//232 634//232 627//232
f 637//233 590//233 596//233
f 640//91 596//91 592//91
f 644//234 592//234 589//234
f 601//93 649//93 625//93
f 579//94 591//94 615//94
f 627//95 638//95 589//95
f 661//96 613//96 590//96
f 603//97 614//97 663//97
f 651//98 662//98 639//98
f 769//386 772//386 774//386
f 772//387 776//387 777//387
f 770//388 775//388 777//388
f 775//158 779//158 780//158
f 771//390 778//390 780//390
f 778//391 773//391 774//391
f 781//392 784//392 786//392
f 784//163 788//163 789//163
f 782//393 787//393 789//393
f 787//394 791//394 792//394
f 783//395 790//395 792//395
f 790//396 785//396 786//396
f 793//397 796//397 798//397
f 796//170 800//170 801//170
f 794//398 799//398 801//398
f 799//448 803//448 804//448
f 795//399 802//399 804//399
f 802//174 797//174 798//174
f 805//449 808//449 810//449
f 808//177 812//177 813//177
f 806//401 811//401 813//401
f 811//179 815//179 816//179
f 807//451 814//451 816//451
f 814//403 809//403 810//403
f 817//404 820//404 822//404
f 820//184 824//184 825//184
f 818//405 823//405 825//405
f 823//406 827//406 828//406
f 819//407 826//407 828//407
f 826//188 821//188 822//188
f 829//456 832//456 834//456
f 832//457 836//457 837//457
f 830//409 835//409 837//409
f 835//323 839//323 840//323
f 831//458 838//458 840//458
f 838//411 833//411 834//411
f 841//412 844//412 846//412
f 844//453 848//453 849//453
f 842//413 847//413 849//413
f 847//200 851//200 852//200
f 843//414 850//414 852//414
f 850//415 845//415 846//415
f 853//416 856//416 858//416
f 856//417 860//417 861//417
f 854//418 859//418 861//418
f 859//207 863//207 864//207
f 855//454 862//454 864//454
f 862//459 857//459 858//459
f 793//211 769//211 773//211
f 796//58 773//58 778//58
f 800//212 778//212 771//212
f 770//213 781//213 785//213
f 775//61 785//61 790//61
f 779//214 790//214 783//214
f 782//215 805//215 809//215
f 787//64 809//64 814//64
f 791//216 814//216 807//216
f 806//217 795//217 803//217
f 811//67 803//67 799//67
f 815//218 799//218 794//218
f 841//219 793//219 797//219
f 844//70 797//70 802//70
f 848//220 802//220 795//220
f 805//221 853//221 857//221
f 808//73 857//73 862//73
f 812//222 862//222 855//222
f 854//223 843//223 851//223
f 859//76 851//76 847//76
f 863//224 847//224 842//224
f 817//225 841//225 845//225
f 820//79 845//79 850//79
f 824//226 850//226 843//226
f 853//227 829//227 833//227
f 856//82 833//82 838//82
f 860//228 838//228 831//228
f 830//229 819//229 827//229
f 835//85 827//85 823//85
f 839//230 823//230 818//230
f 769//231 817//231 821//231
f 772//88 821//88 826//88
f 776//232 826//232 819//232
f 829//233 782//233 788//233
f 832//91 788//91 784//91
f 836//234 784//234 781//234
f 793//93 841//93 817//93
f 771//94 783//94 807//94
f 819//95 830//95 781//95
f 853//96 805//96 782//96
f 795//97 806//97 855//97
f 843//98 854//98 831//98
