# Blender 5.2.1 LTS
# www.blender.org
mtllib modular_pelvis_shell.mtl
o modular_pelvis_shell
v -0.093507 -0.033810 -0.052000
v -0.085001 -0.033000 -0.060000
v -0.082000 -0.041000 -0.052000
v -0.092278 -0.033554 -0.055995
v -0.090780 -0.037548 -0.052000
v -0.089657 -0.037142 -0.055826
v -0.083410 -0.036847 -0.058931
v -0.089156 -0.033256 -0.058931
v -0.087458 -0.036932 -0.057893
v -0.086556 -0.040188 -0.052000
v -0.082308 -0.039783 -0.055995
v -0.086683 -0.039000 -0.055826
v 0.093507 -0.033810 -0.052000
v 0.082000 -0.041000 -0.052000
v 0.085001 -0.033000 -0.060000
v 0.090780 -0.037548 -0.052000
v 0.092278 -0.033554 -0.055995
v 0.089657 -0.037142 -0.055826
v 0.082308 -0.039783 -0.055995
v 0.086556 -0.040188 -0.052000
v 0.086683 -0.039000 -0.055826
v 0.089156 -0.033256 -0.058931
v 0.083410 -0.036847 -0.058931
v 0.087458 -0.036932 -0.057893
v 0.122000 0.041000 -0.052000
v 0.126493 0.033810 -0.052000
v 0.117196 0.033000 -0.060000
v 0.125763 0.040188 -0.052000
v 0.121121 0.039783 -0.055995
v 0.124731 0.039000 -0.055826
v 0.125014 0.033554 -0.055995
v 0.127412 0.037548 -0.052000
v 0.125892 0.037142 -0.055826
v 0.119358 0.036847 -0.058931
v 0.121601 0.033256 -0.058931
v 0.123490 0.036932 -0.057893
v -0.126493 0.033810 -0.052000
v -0.122000 0.041000 -0.052000
v -0.117196 0.033000 -0.060000
v -0.127412 0.037548 -0.052000
v -0.125014 0.033554 -0.055995
v -0.125892 0.037142 -0.055826
v -0.121121 0.039783 -0.055995
v -0.125763 0.040188 -0.052000
v -0.124731 0.039000 -0.055826
v -0.121601 0.033256 -0.058931
v -0.119358 0.036847 -0.058931
v -0.123490 0.036932 -0.057893
v -0.093507 -0.033810 0.052000
v -0.082000 -0.041000 0.052000
v -0.085001 -0.033000 0.060000
v -0.090780 -0.037548 0.052000
v -0.092278 -0.033554 0.055995
v -0.089657 -0.037142 0.055826
v -0.082308 -0.039783 0.055995
v -0.086556 -0.040188 0.052000
v -0.086683 -0.039000 0.055826
v -0.089156 -0.033256 0.058931
v -0.083410 -0.036847 0.058931
v -0.087458 -0.036932 0.057893
v 0.082000 -0.041000 0.052000
v 0.093507 -0.033810 0.052000
v 0.085001 -0.033000 0.060000
v 0.086556 -0.040188 0.052000
v 0.082308 -0.039783 0.055995
v 0.086683 -0.039000 0.055826
v 0.092278 -0.033554 0.055995
v 0.090780 -0.037548 0.052000
v 0.089657 -0.037142 0.055826
v 0.083410 -0.036847 0.058931
v 0.089156 -0.033256 0.058931
v 0.087458 -0.036932 0.057893
v 0.126493 0.033810 0.052000
v 0.122000 0.041000 0.052000
v 0.117196 0.033000 0.060000
v 0.127412 0.037548 0.052000
v 0.125014 0.033554 0.055995
v 0.125892 0.037142 0.055826
v 0.121121 0.039783 0.055995
v 0.125763 0.040188 0.052000
v 0.124731 0.039000 0.055826
v 0.121601 0.033256 0.058931
v 0.119358 0.036847 0.058931
v 0.123490 0.036932 0.057893
v -0.126493 0.033810 0.052000
v -0.117196 0.033000 0.060000
v -0.122000 0.041000 0.052000
v -0.125014 0.033554 0.055995
v -0.127412 0.037548 0.052000
v -0.125892 0.037142 0.055826
v -0.119358 0.036847 0.058931
v -0.121601 0.033256 0.058931
v -0.123490 0.036932 0.057893
v -0.125763 0.040188 0.052000
v -0.121121 0.039783 0.055995
v -0.124731 0.039000 0.055826
v -0.058000 -0.010000 0.063000
v -0.058000 -0.008000 0.065000
v -0.060000 -0.008000 0.063000
v -0.058000 -0.009733 0.063999
v -0.058999 -0.009733 0.063000
v -0.058956 -0.009473 0.063956
v -0.058999 -0.008000 0.064733
v -0.058000 -0.008999 0.064733
v -0.058956 -0.008956 0.064473
v -0.059733 -0.008999 0.063000
v -0.059733 -0.008000 0.063999
v -0.059473 -0.008956 0.063956
v -0.058000 0.014000 0.065000
v -0.058000 0.016000 0.063000
v -0.060000 0.014000 0.063000
v -0.058000 0.014999 0.064733
v -0.058999 0.014000 0.064733
v -0.058956 0.014956 0.064473
v -0.058999 0.015733 0.063000
v -0.058000 0.015733 0.063999
v -0.058956 0.015473 0.063956
v -0.059733 0.014000 0.063999
v -0.059733 0.014999 0.063000
v -0.059473 0.014956 0.063956
v -0.058000 -0.010000 0.061000
v -0.060000 -0.008000 0.061000
v -0.058000 -0.008000 0.059000
v -0.058999 -0.009733 0.061000
v -0.058000 -0.009733 0.060001
v -0.058956 -0.009473 0.060044
v -0.059733 -0.008000 0.060001
v -0.059733 -0.008999 0.061000
v -0.059473 -0.008956 0.060044
v -0.058000 -0.008999 0.059267
v -0.058999 -0.008000 0.059267
v -0.058956 -0.008956 0.059527
v -0.058000 0.016000 0.061000
v -0.058000 0.014000 0.059000
v -0.060000 0.014000 0.061000
v -0.058000 0.015733 0.060001
v -0.058999 0.015733 0.061000
v -0.058956 0.015473 0.060044
v -0.058999 0.014000 0.059267
v -0.058000 0.014999 0.059267
v -0.058956 0.014956 0.059527
v -0.059733 0.014999 0.061000
v -0.059733 0.014000 0.060001
v -0.059473 0.014956 0.060044
v 0.058000 -0.010000 0.063000
v 0.060000 -0.008000 0.063000
v 0.058000 -0.008000 0.065000
v 0.058999 -0.009733 0.063000
v 0.058000 -0.009733 0.063999
v 0.058956 -0.009473 0.063956
v 0.059733 -0.008000 0.063999
v 0.059733 -0.008999 0.063000
v 0.059473 -0.008956 0.063956
v 0.058000 -0.008999 0.064733
v 0.058999 -0.008000 0.064733
v 0.058956 -0.008956 0.064473
v 0.058000 0.016000 0.063000
v 0.058000 0.014000 0.065000
v 0.060000 0.014000 0.063000
v 0.058000 0.015733 0.063999
v 0.058999 0.015733 0.063000
v 0.058956 0.015473 0.063956
v 0.058999 0.014000 0.064733
v 0.058000 0.014999 0.064733
v 0.058956 0.014956 0.064473
v 0.059733 0.014999 0.063000
v 0.059733 0.014000 0.063999
v 0.059473 0.014956 0.063956
v 0.058000 -0.010000 0.061000
v 0.058000 -0.008000 0.059000
v 0.060000 -0.008000 0.061000
v 0.058000 -0.009733 0.060001
v 0.058999 -0.009733 0.061000
v 0.058956 -0.009473 0.060044
v 0.058999 -0.008000 0.059267
v 0.058000 -0.008999 0.059267
v 0.058956 -0.008956 0.059527
v 0.059733 -0.008999 0.061000
v 0.059733 -0.008000 0.060001
v 0.059473 -0.008956 0.060044
v 0.058000 0.016000 0.061000
v 0.060000 0.014000 0.061000
v 0.058000 0.014000 0.059000
v 0.058999 0.015733 0.061000
v 0.058000 0.015733 0.060001
v 0.058956 0.015473 0.060044
v 0.059733 0.014000 0.060001
v 0.059733 0.014999 0.061000
v 0.059473 0.014956 0.060044
v 0.058000 0.014999 0.059267
v 0.058999 0.014000 0.059267
v 0.058956 0.014956 0.059527
v -0.084000 0.014076 0.061500
v -0.084693 0.014600 0.062300
v -0.083307 0.014600 0.062300
v -0.084490 0.014421 0.061734
v -0.084000 0.014636 0.061838
v -0.084000 0.014791 0.062300
v -0.083510 0.014421 0.061734
v -0.084000 0.014076 0.064500
v -0.083307 0.014600 0.063700
v -0.084693 0.014600 0.063700
v -0.083510 0.014421 0.064266
v -0.084000 0.014636 0.064162
v -0.084000 0.014791 0.063700
v -0.084490 0.014421 0.064266
v -0.082202 0.013038 0.061500
v -0.082095 0.013900 0.062300
v -0.081402 0.012700 0.062300
v -0.082148 0.013635 0.061734
v -0.081717 0.013318 0.061838
v -0.081583 0.013396 0.062300
v -0.081658 0.012786 0.061734
v -0.082202 0.013038 0.064500
v -0.081402 0.012700 0.063700
v -0.082095 0.013900 0.063700
v -0.081658 0.012786 0.064266
v -0.081717 0.013318 0.064162
v -0.081583 0.013396 0.063700
v -0.082148 0.013635 0.064266
v -0.082202 0.010962 0.061500
v -0.081402 0.011300 0.062300
v -0.082095 0.010100 0.062300
v -0.081658 0.011214 0.061734
v -0.081717 0.010682 0.061838
v -0.081583 0.010604 0.062300
v -0.082148 0.010365 0.061734
v -0.082202 0.010962 0.064500
v -0.082095 0.010100 0.063700
v -0.081402 0.011300 0.063700
v -0.082148 0.010365 0.064266
v -0.081717 0.010682 0.064162
v -0.081583 0.010604 0.063700
v -0.081658 0.011214 0.064266
v -0.084000 0.009924 0.061500
v -0.083307 0.009400 0.062300
v -0.084693 0.009400 0.062300
v -0.083510 0.009579 0.061734
v -0.084000 0.009364 0.061838
v -0.084000 0.009209 0.062300
v -0.084490 0.009579 0.061734
v -0.084000 0.009924 0.064500
v -0.084693 0.009400 0.063700
v -0.083307 0.009400 0.063700
v -0.084490 0.009579 0.064266
v -0.084000 0.009364 0.064162
v -0.084000 0.009209 0.063700
v -0.083510 0.009579 0.064266
v -0.085798 0.010962 0.061500
v -0.085905 0.010100 0.062300
v -0.086598 0.011300 0.062300
v -0.085852 0.010365 0.061734
v -0.086283 0.010682 0.061838
v -0.086417 0.010604 0.062300
v -0.086342 0.011214 0.061734
v -0.085798 0.010962 0.064500
v -0.086598 0.011300 0.063700
v -0.085905 0.010100 0.063700
v -0.086342 0.011214 0.064266
v -0.086283 0.010682 0.064162
v -0.086417 0.010604 0.063700
v -0.085852 0.010365 0.064266
v -0.085798 0.013038 0.061500
v -0.086598 0.012700 0.062300
v -0.085905 0.013900 0.062300
v -0.086342 0.012786 0.061734
v -0.086283 0.013318 0.061838
v -0.086417 0.013396 0.062300
v -0.085852 0.013635 0.061734
v -0.085798 0.013038 0.064500
v -0.085905 0.013900 0.063700
v -0.086598 0.012700 0.063700
v -0.085852 0.013635 0.064266
v -0.086283 0.013318 0.064162
v -0.086417 0.013396 0.063700
v -0.086342 0.012786 0.064266
v 0.084000 0.014076 0.061500
v 0.083307 0.014600 0.062300
v 0.084693 0.014600 0.062300
v 0.083510 0.014421 0.061734
v 0.084000 0.014636 0.061838
v 0.084000 0.014791 0.062300
v 0.084490 0.014421 0.061734
v 0.084000 0.014076 0.064500
v 0.084693 0.014600 0.063700
v 0.083307 0.014600 0.063700
v 0.084490 0.014421 0.064266
v 0.084000 0.014636 0.064162
v 0.084000 0.014791 0.063700
v 0.083510 0.014421 0.064266
v 0.085798 0.013038 0.061500
v 0.085905 0.013900 0.062300
v 0.086598 0.012700 0.062300
v 0.085852 0.013635 0.061734
v 0.086283 0.013318 0.061838
v 0.086417 0.013396 0.062300
v 0.086342 0.012786 0.061734
v 0.085798 0.013038 0.064500
v 0.086598 0.012700 0.063700
v 0.085905 0.013900 0.063700
v 0.086342 0.012786 0.064266
v 0.086283 0.013318 0.064162
v 0.086417 0.013396 0.063700
v 0.085852 0.013635 0.064266
v 0.085798 0.010962 0.061500
v 0.086598 0.011300 0.062300
v 0.085905 0.010100 0.062300
v 0.086342 0.011214 0.061734
v 0.086283 0.010682 0.061838
v 0.086417 0.010604 0.062300
v 0.085852 0.010365 0.061734
v 0.085798 0.010962 0.064500
v 0.085905 0.010100 0.063700
v 0.086598 0.011300 0.063700
v 0.085852 0.010365 0.064266
v 0.086283 0.010682 0.064162
v 0.086417 0.010604 0.063700
v 0.086342 0.011214 0.064266
v 0.084000 0.009924 0.061500
v 0.084693 0.009400 0.062300
v 0.083307 0.009400 0.062300
v 0.084490 0.009579 0.061734
v 0.084000 0.009364 0.061838
v 0.084000 0.009209 0.062300
v 0.083510 0.009579 0.061734
v 0.084000 0.009924 0.064500
v 0.083307 0.009400 0.063700
v 0.084693 0.009400 0.063700
v 0.083510 0.009579 0.064266
v 0.084000 0.009364 0.064162
v 0.084000 0.009209 0.063700
v 0.084490 0.009579 0.064266
v 0.082202 0.010962 0.061500
v 0.082095 0.010100 0.062300
v 0.081402 0.011300 0.062300
v 0.082148 0.010365 0.061734
v 0.081717 0.010682 0.061838
v 0.081583 0.010604 0.062300
v 0.081658 0.011214 0.061734
v 0.082202 0.010962 0.064500
v 0.081402 0.011300 0.063700
v 0.082095 0.010100 0.063700
v 0.081658 0.011214 0.064266
v 0.081717 0.010682 0.064162
v 0.081583 0.010604 0.063700
v 0.082148 0.010365 0.064266
v 0.082202 0.013038 0.061500
v 0.081402 0.012700 0.062300
v 0.082095 0.013900 0.062300
v 0.081658 0.012786 0.061734
v 0.081717 0.013318 0.061838
v 0.081583 0.013396 0.062300
v 0.082148 0.013635 0.061734
v 0.082202 0.013038 0.064500
v 0.082095 0.013900 0.063700
v 0.081402 0.012700 0.063700
v 0.082148 0.013635 0.064266
v 0.081717 0.013318 0.064162
v 0.081583 0.013396 0.063700
v 0.081658 0.012786 0.064266
vn -0.7739 -0.5646 -0.2871
vn -0.5849 -0.4588 -0.6689
vn -0.2123 -0.3551 -0.9104
vn -0.1562 -0.7269 -0.6687
vn -0.1797 -0.9448 -0.2740
vn -0.5145 -0.8236 -0.2387
vn -0.4443 -0.7111 -0.5449
vn 0.7704 -0.5757 -0.2739
vn 0.5146 -0.8236 -0.2384
vn 0.1681 -0.9430 -0.2872
vn 0.1559 -0.7269 -0.6688
vn 0.2262 -0.3465 -0.9104
vn 0.5848 -0.4590 -0.6688
vn 0.4443 -0.7111 -0.5449
vn 0.2149 0.9201 -0.3276
vn 0.7892 0.4931 -0.3660
vn 0.9135 -0.2246 -0.3391
vn 0.6534 -0.1247 -0.7466
vn 0.2243 0.1563 -0.9619
vn 0.1744 0.6418 -0.7468
vn 0.5880 0.3674 -0.7206
vn -0.9212 -0.2100 -0.3276
vn -0.7892 0.4932 -0.3659
vn -0.1984 0.9196 -0.3391
vn -0.1742 0.6419 -0.7468
vn -0.2389 0.1330 -0.9619
vn -0.6534 -0.1249 -0.7466
vn -0.5880 0.3674 -0.7206
vn -0.7704 -0.5757 0.2739
vn -0.5146 -0.8236 0.2384
vn -0.1681 -0.9430 0.2872
vn -0.1559 -0.7269 0.6688
vn -0.2262 -0.3465 0.9104
vn -0.5848 -0.4590 0.6688
vn -0.4443 -0.7111 0.5449
vn 0.1797 -0.9448 0.2740
vn 0.5145 -0.8236 0.2387
vn 0.7739 -0.5646 0.2871
vn 0.5849 -0.4588 0.6689
vn 0.2123 -0.3551 0.9104
vn 0.1562 -0.7269 0.6687
vn 0.4443 -0.7111 0.5449
vn 0.9212 -0.2100 0.3276
vn 0.7892 0.4932 0.3659
vn 0.1984 0.9196 0.3391
vn 0.1742 0.6419 0.7468
vn 0.2389 0.1330 0.9619
vn 0.6534 -0.1249 0.7466
vn 0.5880 0.3674 0.7206
vn -0.9135 -0.2246 0.3391
vn -0.6534 -0.1247 0.7466
vn -0.2243 0.1563 0.9619
vn -0.1744 0.6418 0.7468
vn -0.2149 0.9201 0.3276
vn -0.7892 0.4931 0.3660
vn -0.5880 0.3674 0.7206
vn -0.8598 -0.4194 -0.2914
vn -0.6355 -0.3100 -0.7072
vn -0.2407 -0.1174 -0.9635
vn -0.0000 0.2677 -0.9635
vn -0.0000 0.7071 -0.7071
vn -0.0000 0.9566 -0.2914
vn 0.2407 -0.1174 -0.9635
vn 0.6355 -0.3100 -0.7072
vn 0.8598 -0.4194 -0.2914
vn -0.0000 -0.2677 -0.9635
vn -0.0000 -0.7071 -0.7071
vn -0.0000 -0.9566 -0.2914
vn -0.2407 -0.1174 0.9635
vn -0.6355 -0.3100 0.7072
vn -0.8598 -0.4194 0.2914
vn -0.0000 -0.9566 0.2914
vn -0.0000 -0.7071 0.7071
vn -0.0000 -0.2677 0.9635
vn 0.8598 -0.4194 0.2914
vn 0.6355 -0.3100 0.7072
vn 0.2407 -0.1174 0.9635
vn -0.0000 0.9566 0.2914
vn -0.0000 0.7071 0.7071
vn -0.0000 0.2677 0.9635
vn -0.1755 -0.9845 -0.0000
vn -0.5300 -0.8480 -0.0000
vn -0.8079 -0.5894 -0.0000
vn 0.8079 -0.5894 -0.0000
vn 0.5300 -0.8480 -0.0000
vn 0.1755 -0.9845 -0.0000
vn 0.2109 0.9775 -0.0000
vn 0.8481 0.5298 -0.0000
vn 0.9711 -0.2387 -0.0000
vn -0.9711 -0.2387 -0.0000
vn -0.8481 0.5298 -0.0000
vn -0.2109 0.9775 -0.0000
vn -0.8988 -0.4384 -0.0000
vn -0.0000 -0.0000 -1.0000
vn -0.0000 -1.0000 -0.0000
vn 0.8988 -0.4384 -0.0000
vn -0.0000 1.0000 -0.0000
vn -0.0000 -0.0000 1.0000
vn -0.2490 -0.9317 0.2646
vn -0.2187 -0.6900 0.6900
vn -0.2646 -0.2490 0.9317
vn -0.6900 -0.2187 0.6900
vn -0.9317 -0.2646 0.2490
vn -0.6900 -0.6900 0.2187
vn -0.5774 -0.5773 0.5774
vn -0.2490 0.2646 0.9317
vn -0.2187 0.6900 0.6900
vn -0.2646 0.9317 0.2490
vn -0.6900 0.6900 0.2187
vn -0.9317 0.2490 0.2646
vn -0.6900 0.2187 0.6900
vn -0.5774 0.5773 0.5774
vn -0.2646 -0.9317 -0.2490
vn -0.6900 -0.6900 -0.2187
vn -0.9317 -0.2490 -0.2646
vn -0.6900 -0.2187 -0.6900
vn -0.2490 -0.2646 -0.9317
vn -0.2187 -0.6900 -0.6900
vn -0.5774 -0.5773 -0.5773
vn -0.2490 0.9317 -0.2646
vn -0.2187 0.6900 -0.6900
vn -0.2646 0.2490 -0.9317
vn -0.6900 0.2187 -0.6900
vn -0.9317 0.2646 -0.2490
vn -0.6900 0.6900 -0.2187
vn -0.5774 0.5773 -0.5773
vn 0.2646 -0.9317 0.2490
vn 0.6900 -0.6900 0.2187
vn 0.9317 -0.2490 0.2646
vn 0.6900 -0.2187 0.6900
vn 0.2490 -0.2646 0.9317
vn 0.2187 -0.6900 0.6900
vn 0.5774 -0.5773 0.5774
vn 0.2490 0.9317 0.2646
vn 0.2187 0.6900 0.6900
vn 0.2646 0.2490 0.9317
vn 0.6900 0.2187 0.6900
vn 0.9317 0.2646 0.2490
vn 0.6900 0.6900 0.2187
vn 0.5774 0.5773 0.5774
vn 0.2490 -0.9317 -0.2646
vn 0.2187 -0.6900 -0.6900
vn 0.2646 -0.2490 -0.9317
vn 0.6900 -0.2187 -0.6900
vn 0.9317 -0.2646 -0.2490
vn 0.6900 -0.6900 -0.2187
vn 0.5774 -0.5773 -0.5773
vn 0.2646 0.9317 -0.2490
vn 0.6900 0.6900 -0.2187
vn 0.9317 0.2490 -0.2646
vn 0.6900 0.2187 -0.6900
vn 0.2490 0.2646 -0.9317
vn 0.2187 0.6900 -0.6900
vn 0.5774 0.5773 -0.5773
vn -0.2582 -0.9661 -0.0000
vn -0.7071 -0.7071 -0.0000
vn -0.9661 -0.2582 -0.0000
vn -0.2582 -0.0000 0.9661
vn -0.7071 -0.0000 0.7071
vn -0.9661 -0.0000 0.2582
vn -0.2582 0.9661 -0.0000
vn -0.7071 0.7071 -0.0000
vn -0.9661 0.2582 -0.0000
vn -0.2582 -0.0000 -0.9661
vn -0.7071 -0.0000 -0.7071
vn -0.9661 -0.0000 -0.2582
vn -0.0000 -0.9661 -0.2582
vn -0.0000 -0.2582 -0.9661
vn -0.0000 0.9661 -0.2582
vn -0.0000 0.2582 -0.9661
vn 0.9661 -0.0000 -0.2582
vn 0.7071 -0.0000 -0.7071
vn 0.2582 -0.0000 -0.9661
vn 0.2582 -0.9661 -0.0000
vn 0.7071 -0.7071 -0.0000
vn 0.9661 -0.2582 -0.0000
vn 0.2582 0.9661 -0.0000
vn 0.7071 0.7071 -0.0000
vn 0.9661 0.2582 -0.0000
vn 0.2582 -0.0000 0.9661
vn 0.7071 -0.0000 0.7071
vn 0.9661 -0.0000 0.2582
vn -0.0000 -0.9661 0.2582
vn -0.0000 -0.2582 0.9661
vn -0.0000 0.9661 0.2582
vn -0.0000 0.2582 0.9661
vn -1.0000 -0.0000 -0.0000
vn 1.0000 -0.0000 -0.0000
vn 0.0450 0.5162 -0.8553
vn -0.3014 0.8727 -0.3841
vn 0.2528 0.9173 -0.3077
vn -0.0450 0.5162 0.8553
vn 0.3014 0.8727 0.3841
vn -0.2528 0.9173 0.3077
vn 0.4695 0.2193 -0.8553
vn 0.6055 0.6975 -0.3833
vn 0.9209 0.2395 -0.3075
vn 0.4247 0.2968 0.8553
vn 0.9067 0.1755 0.3834
vn 0.6674 0.6780 0.3080
vn 0.4247 -0.2968 -0.8553
vn 0.9067 -0.1755 -0.3834
vn 0.6674 -0.6780 -0.3080
vn 0.4694 -0.2193 0.8553
vn 0.6055 -0.6975 0.3833
vn 0.9209 -0.2395 0.3075
vn -0.0450 -0.5162 -0.8553
vn 0.3014 -0.8727 -0.3841
vn -0.2528 -0.9173 -0.3077
vn 0.0450 -0.5162 0.8553
vn -0.3014 -0.8727 0.3841
vn 0.2528 -0.9173 0.3077
vn -0.4695 -0.2193 -0.8553
vn -0.6055 -0.6975 -0.3833
vn -0.9209 -0.2395 -0.3075
vn -0.4247 -0.2968 0.8553
vn -0.9067 -0.1755 0.3834
vn -0.6674 -0.6780 0.3080
vn -0.4247 0.2968 -0.8553
vn -0.9067 0.1755 -0.3834
vn -0.6674 0.6780 -0.3080
vn -0.4695 0.2193 0.8553
vn -0.6055 0.6975 0.3833
vn -0.9209 0.2395 0.3075
vn 0.4553 0.7889 -0.4128
vn 0.1976 0.3423 -0.9186
vn 0.4554 0.7891 0.4121
vn 0.1975 0.3422 0.9186
vn -0.2657 0.9641 -0.0000
vn 0.2657 0.9641 -0.0000
vn 0.9678 0.2517 -0.0000
vn 0.7015 0.7127 -0.0000
vn 0.9111 -0.0000 -0.4121
vn 0.3951 -0.0000 -0.9186
vn 0.9111 -0.0000 0.4121
vn 0.3951 -0.0000 0.9186
vn 0.7015 -0.7127 -0.0000
vn 0.9678 -0.2517 -0.0000
vn 0.4554 -0.7892 -0.4121
vn 0.1975 -0.3422 -0.9186
vn 0.4553 -0.7889 0.4128
vn 0.1976 -0.3423 0.9186
vn -0.2657 -0.9641 -0.0000
vn 0.2657 -0.9641 -0.0000
vn -0.4553 -0.7889 -0.4128
vn -0.1976 -0.3423 -0.9186
vn -0.4554 -0.7891 0.4121
vn -0.1975 -0.3422 0.9186
vn -0.9678 -0.2517 -0.0000
vn -0.7015 -0.7127 -0.0000
vn -0.9111 -0.0000 -0.4121
vn -0.3951 -0.0000 -0.9186
vn -0.9111 -0.0000 0.4121
vn -0.3951 -0.0000 0.9186
vn -0.7015 0.7127 -0.0000
vn -0.9678 0.2517 -0.0000
vn -0.4554 0.7892 -0.4121
vn -0.1976 0.3422 -0.9186
vn -0.4553 0.7889 0.4128
vn -0.1976 0.3423 0.9186
vn 0.5001 0.8659 -0.0000
vn -0.5001 0.8659 -0.0000
vn 0.5001 -0.8659 -0.0000
vn -0.5001 -0.8659 -0.0000
vn 0.4695 -0.2193 0.8553
vn 0.1976 -0.3422 -0.9186
vn -0.1975 0.3422 -0.9186
vn -0.7704 -0.5757 -0.2739
vn -0.5850 -0.4590 -0.6686
vn -0.2262 -0.3465 -0.9104
vn -0.1560 -0.7271 -0.6686
vn -0.1681 -0.9430 -0.2872
vn -0.5147 -0.8235 -0.2385
vn 0.7739 -0.5646 -0.2871
vn 0.5147 -0.8235 -0.2386
vn 0.1797 -0.9448 -0.2740
vn 0.1562 -0.7271 -0.6685
vn 0.2123 -0.3551 -0.9104
vn 0.5851 -0.4589 -0.6687
vn 0.1984 0.9196 -0.3391
vn 0.7893 0.4930 -0.3659
vn 0.9212 -0.2100 -0.3276
vn 0.6533 -0.1248 -0.7467
vn 0.2389 0.1330 -0.9619
vn 0.1742 0.6420 -0.7466
vn -0.9135 -0.2246 -0.3391
vn -0.7893 0.4930 -0.3660
vn -0.2149 0.9201 -0.3276
vn -0.1744 0.6420 -0.7467
vn -0.2243 0.1563 -0.9619
vn -0.6533 -0.1247 -0.7468
vn -0.7739 -0.5646 0.2871
vn -0.5147 -0.8235 0.2386
vn -0.1797 -0.9448 0.2740
vn -0.1562 -0.7271 0.6685
vn -0.2123 -0.3551 0.9104
vn -0.5851 -0.4589 0.6687
vn 0.1681 -0.9430 0.2872
vn 0.5147 -0.8235 0.2385
vn 0.7704 -0.5757 0.2739
vn 0.5850 -0.4590 0.6686
vn 0.2262 -0.3465 0.9104
vn 0.1560 -0.7271 0.6686
vn 0.9135 -0.2246 0.3391
vn 0.7893 0.4930 0.3660
vn 0.2149 0.9201 0.3276
vn 0.1744 0.6420 0.7467
vn 0.2243 0.1563 0.9619
vn 0.6533 -0.1247 0.7468
vn -0.9212 -0.2100 0.3276
vn -0.6533 -0.1248 0.7467
vn -0.2389 0.1330 0.9619
vn -0.1742 0.6420 0.7466
vn -0.1984 0.9196 0.3391
vn -0.7893 0.4930 0.3659
vn -0.6354 -0.3100 -0.7072
vn -0.2406 -0.1174 -0.9635
vn 0.2406 -0.1174 -0.9635
vn 0.6354 -0.3100 -0.7072
vn -0.2406 -0.1174 0.9635
vn -0.6354 -0.3100 0.7072
vn 0.6354 -0.3100 0.7072
vn 0.2406 -0.1174 0.9635
vn -0.2646 -0.9317 0.2490
vn -0.2490 -0.2646 0.9317
vn -0.9317 -0.2490 0.2646
vn -0.2646 0.2490 0.9317
vn -0.2490 0.9317 0.2646
vn -0.9317 0.2646 0.2490
vn -0.2490 -0.9317 -0.2646
vn -0.9317 -0.2646 -0.2490
vn -0.2646 -0.2490 -0.9317
vn -0.2646 0.9317 -0.2490
vn -0.2490 0.2646 -0.9317
vn -0.9317 0.2490 -0.2646
vn 0.2490 -0.9317 0.2646
vn 0.9317 -0.2646 0.2490
vn 0.2646 -0.2490 0.9317
vn 0.2646 0.9317 0.2490
vn 0.2490 0.2646 0.9317
vn 0.9317 0.2490 0.2646
vn 0.2646 -0.9317 -0.2490
vn 0.2490 -0.2646 -0.9317
vn 0.9317 -0.2490 -0.2646
vn 0.2490 0.9317 -0.2646
vn 0.9317 0.2646 -0.2490
vn 0.2646 0.2490 -0.9317
vn -0.0450 0.5162 -0.8553
vn -0.2528 0.9173 -0.3077
vn 0.3014 0.8727 -0.3841
vn 0.0450 0.5162 0.8553
vn 0.2528 0.9173 0.3077
vn -0.3014 0.8727 0.3841
vn 0.4247 0.2968 -0.8553
vn 0.6674 0.6780 -0.3080
vn 0.9067 0.1755 -0.3834
vn 0.4695 0.2193 0.8553
vn 0.9209 0.2395 0.3075
vn 0.6055 0.6975 0.3833
vn 0.4695 -0.2193 -0.8553
vn 0.9209 -0.2395 -0.3075
vn 0.6055 -0.6975 -0.3833
vn 0.4247 -0.2968 0.8553
vn 0.6674 -0.6780 0.3080
vn 0.9067 -0.1755 0.3834
vn 0.0450 -0.5162 -0.8553
vn 0.2528 -0.9173 -0.3077
vn -0.3014 -0.8727 -0.3841
vn -0.0450 -0.5162 0.8553
vn -0.2528 -0.9173 0.3077
vn 0.3014 -0.8727 0.3841
vn -0.4247 -0.2968 -0.8553
vn -0.6674 -0.6780 -0.3080
vn -0.9067 -0.1755 -0.3834
vn -0.4695 -0.2193 0.8553
vn -0.9209 -0.2395 0.3075
vn -0.6055 -0.6975 0.3833
vn -0.4695 0.2193 -0.8553
vn -0.9209 0.2395 -0.3075
vn -0.6055 0.6975 -0.3833
vn -0.4247 0.2968 0.8553
vn -0.6674 0.6780 0.3080
vn -0.9067 0.1755 0.3834
vn 0.4557 0.7890 -0.4121
vn 0.1975 0.3422 -0.9186
vn 0.4555 0.7887 0.4128
vn 0.1976 0.3424 0.9186
vn 0.7015 0.7126 -0.0000
vn 0.7015 -0.7126 -0.0000
vn 0.4555 -0.7887 -0.4128
vn 0.1976 -0.3424 -0.9186
vn 0.4557 -0.7890 0.4121
vn 0.1975 -0.3422 0.9186
vn -0.4557 -0.7890 -0.4121
vn -0.1975 -0.3422 -0.9186
vn -0.4555 -0.7887 0.4128
vn -0.1976 -0.3424 0.9186
vn -0.7015 -0.7126 -0.0000
vn -0.7015 0.7126 -0.0000
vn -0.4555 0.7887 -0.4128
vn -0.1976 0.3424 -0.9186
vn -0.4557 0.7890 0.4121
vn -0.1975 0.3422 0.9186
vn -0.4694 -0.2193 0.8553
s 0
usemtl DetailGraphite
f 1//1 6//1 5//1
f 4//2 9//2 6//2
f 2//3 9//3 8//3
f 7//4 12//4 9//4
f 3//5 12//5 11//5
f 10//6 6//6 12//6
f 6//7 9//7 12//7
f 13//8 18//8 17//8
f 16//9 21//9 18//9
f 14//10 21//10 20//10
f 19//11 24//11 21//11
f 15//12 24//12 23//12
f 22//13 18//13 24//13
f 18//14 21//14 24//14
f 25//15 30//15 29//15
f 28//16 33//16 30//16
f 26//17 33//17 32//17
f 31//18 36//18 33//18
f 27//19 36//19 35//19
f 34//20 30//20 36//20
f 30//21 33//21 36//21
f 37//22 42//22 41//22
f 40//23 45//23 42//23
f 38//24 45//24 44//24
f 43//25 48//25 45//25
f 39//26 48//26 47//26
f 46//27 42//27 48//27
f 42//28 45//28 48//28
f 49//29 54//29 53//29
f 52//30 57//30 54//30
f 50//31 57//31 56//31
f 55//32 60//32 57//32
f 51//33 60//33 59//33
f 58//34 54//34 60//34
f 54//35 57//35 60//35
f 61//36 66//36 65//36
f 64//37 69//37 66//37
f 62//38 69//38 68//38
f 67//39 72//39 69//39
f 63//40 72//40 71//40
f 70//41 66//41 72//41
f 66//42 69//42 72//42
f 73//43 78//43 77//43
f 76//44 81//44 78//44
f 74//45 81//45 80//45
f 79//46 84//46 81//46
f 75//47 84//47 83//47
f 82//48 78//48 84//48
f 78//49 81//49 84//49
f 85//50 90//50 89//50
f 88//51 93//51 90//51
f 86//52 93//52 92//52
f 91//53 96//53 93//53
f 87//54 96//54 95//54
f 94//55 90//55 96//55
f 90//56 93//56 96//56
f 1//57 41//57 4//57
f 4//58 46//58 8//58
f 8//59 39//59 2//59
f 27//60 47//60 34//60
f 34//61 43//61 29//61
f 29//62 38//62 25//62
f 15//63 35//63 22//63
f 22//64 31//64 17//64
f 17//65 26//65 13//65
f 2//66 23//66 7//66
f 7//67 19//67 11//67
f 11//68 14//68 3//68
f 51//69 92//69 58//69
f 58//70 88//70 53//70
f 53//71 85//71 49//71
f 50//72 65//72 55//72
f 55//73 70//73 59//73
f 59//74 63//74 51//74
f 62//75 77//75 67//75
f 67//76 82//76 71//76
f 71//77 75//77 63//77
f 74//78 95//78 79//78
f 79//79 91//79 83//79
f 83//80 86//80 75//80
f 3//81 56//81 10//81
f 10//82 52//82 5//82
f 5//83 49//83 1//83
f 13//84 68//84 16//84
f 16//85 64//85 20//85
f 20//86 61//86 14//86
f 25//87 80//87 28//87
f 28//88 76//88 32//88
f 32//89 73//89 26//89
f 37//90 89//90 40//90
f 40//91 94//91 44//91
f 44//92 87//92 38//92
f 37//93 49//93 85//93
f 39//94 15//94 2//94
f 3//95 61//95 50//95
f 13//96 73//96 62//96
f 25//97 87//97 74//97
f 51//98 75//98 86//98
f 1//268 4//268 6//268
f 4//269 8//269 9//269
f 2//270 7//270 9//270
f 7//271 11//271 12//271
f 3//272 10//272 12//272
f 10//273 5//273 6//273
f 13//274 16//274 18//274
f 16//275 20//275 21//275
f 14//276 19//276 21//276
f 19//277 23//277 24//277
f 15//278 22//278 24//278
f 22//279 17//279 18//279
f 25//280 28//280 30//280
f 28//281 32//281 33//281
f 26//282 31//282 33//282
f 31//283 35//283 36//283
f 27//284 34//284 36//284
f 34//285 29//285 30//285
f 37//286 40//286 42//286
f 40//287 44//287 45//287
f 38//288 43//288 45//288
f 43//289 47//289 48//289
f 39//290 46//290 48//290
f 46//291 41//291 42//291
f 49//292 52//292 54//292
f 52//293 56//293 57//293
f 50//294 55//294 57//294
f 55//295 59//295 60//295
f 51//296 58//296 60//296
f 58//297 53//297 54//297
f 61//298 64//298 66//298
f 64//299 68//299 69//299
f 62//300 67//300 69//300
f 67//301 71//301 72//301
f 63//302 70//302 72//302
f 70//303 65//303 66//303
f 73//304 76//304 78//304
f 76//305 80//305 81//305
f 74//306 79//306 81//306
f 79//307 83//307 84//307
f 75//308 82//308 84//308
f 82//309 77//309 78//309
f 85//310 88//310 90//310
f 88//311 92//311 93//311
f 86//312 91//312 93//312
f 91//313 95//313 96//313
f 87//314 94//314 96//314
f 94//315 89//315 90//315
f 1//57 37//57 41//57
f 4//316 41//316 46//316
f 8//317 46//317 39//317
f 27//60 39//60 47//60
f 34//61 47//61 43//61
f 29//62 43//62 38//62
f 15//318 27//318 35//318
f 22//319 35//319 31//319
f 17//65 31//65 26//65
f 2//66 15//66 23//66
f 7//67 23//67 19//67
f 11//68 19//68 14//68
f 51//320 86//320 92//320
f 58//321 92//321 88//321
f 53//71 88//71 85//71
f 50//72 61//72 65//72
f 55//73 65//73 70//73
f 59//74 70//74 63//74
f 62//75 73//75 77//75
f 67//322 77//322 82//322
f 71//323 82//323 75//323
f 74//78 87//78 95//78
f 79//79 95//79 91//79
f 83//80 91//80 86//80
f 3//81 50//81 56//81
f 10//82 56//82 52//82
f 5//83 52//83 49//83
f 13//84 62//84 68//84
f 16//85 68//85 64//85
f 20//86 64//86 61//86
f 25//87 74//87 80//87
f 28//88 80//88 76//88
f 32//89 76//89 73//89
f 37//90 85//90 89//90
f 40//91 89//91 94//91
f 44//92 94//92 87//92
f 37//93 1//93 49//93
f 39//94 27//94 15//94
f 3//95 14//95 61//95
f 13//96 26//96 73//96
f 25//97 38//97 87//97
f 51//98 63//98 75//98
usemtl DetailTeal
f 97//99 102//99 101//99
f 100//100 105//100 102//100
f 98//101 105//101 104//101
f 103//102 108//102 105//102
f 99//103 108//103 107//103
f 106//104 102//104 108//104
f 102//105 105//105 108//105
f 109//106 114//106 113//106
f 112//107 117//107 114//107
f 110//108 117//108 116//108
f 115//109 120//109 117//109
f 111//110 120//110 119//110
f 118//111 114//111 120//111
f 114//112 117//112 120//112
f 121//113 126//113 125//113
f 124//114 129//114 126//114
f 122//115 129//115 128//115
f 127//116 132//116 129//116
f 123//117 132//117 131//117
f 130//118 126//118 132//118
f 126//119 129//119 132//119
f 133//120 138//120 137//120
f 136//121 141//121 138//121
f 134//122 141//122 140//122
f 139//123 144//123 141//123
f 135//124 144//124 143//124
f 142//125 138//125 144//125
f 138//126 141//126 144//126
f 145//127 150//127 149//127
f 148//128 153//128 150//128
f 146//129 153//129 152//129
f 151//130 156//130 153//130
f 147//131 156//131 155//131
f 154//132 150//132 156//132
f 150//133 153//133 156//133
f 157//134 162//134 161//134
f 160//135 165//135 162//135
f 158//136 165//136 164//136
f 163//137 168//137 165//137
f 159//138 168//138 167//138
f 166//139 162//139 168//139
f 162//140 165//140 168//140
f 169//141 174//141 173//141
f 172//142 177//142 174//142
f 170//143 177//143 176//143
f 175//144 180//144 177//144
f 171//145 180//145 179//145
f 178//146 174//146 180//146
f 174//147 177//147 180//147
f 181//148 186//148 185//148
f 184//149 189//149 186//149
f 182//150 189//150 188//150
f 187//151 192//151 189//151
f 183//152 192//152 191//152
f 190//153 186//153 192//153
f 186//154 189//154 192//154
f 121//155 101//155 124//155
f 124//156 106//156 128//156
f 128//157 99//157 122//157
f 98//158 113//158 103//158
f 103//159 118//159 107//159
f 107//160 111//160 99//160
f 110//161 137//161 115//161
f 115//162 142//162 119//162
f 119//163 135//163 111//163
f 134//164 131//164 139//164
f 139//165 127//165 143//165
f 143//166 122//166 135//166
f 169//167 125//167 172//167
f 172//67 130//67 176//67
f 176//168 123//168 170//168
f 133//169 185//169 136//169
f 136//61 190//61 140//61
f 140//170 183//170 134//170
f 182//171 179//171 187//171
f 187//172 175//172 191//172
f 191//173 170//173 183//173
f 145//174 173//174 148//174
f 148//175 178//175 152//175
f 152//176 171//176 146//176
f 181//177 161//177 184//177
f 184//178 166//178 188//178
f 188//179 159//179 182//179
f 158//180 155//180 163//180
f 163//181 151//181 167//181
f 167//182 146//182 159//182
f 97//183 149//183 100//183
f 100//73 154//73 104//73
f 104//184 147//184 98//184
f 157//185 116//185 160//185
f 160//79 112//79 164//79
f 164//186 109//186 158//186
f 121//95 145//95 97//95
f 99//187 135//187 122//187
f 147//98 109//98 98//98
f 181//97 110//97 157//97
f 123//94 183//94 170//94
f 171//188 159//188 146//188
f 97//324 100//324 102//324
f 100//100 104//100 105//100
f 98//325 103//325 105//325
f 103//102 107//102 108//102
f 99//326 106//326 108//326
f 106//104 101//104 102//104
f 109//327 112//327 114//327
f 112//107 116//107 117//107
f 110//328 115//328 117//328
f 115//109 119//109 120//109
f 111//329 118//329 120//329
f 118//111 113//111 114//111
f 121//330 124//330 126//330
f 124//114 128//114 129//114
f 122//331 127//331 129//331
f 127//116 131//116 132//116
f 123//332 130//332 132//332
f 130//118 125//118 126//118
f 133//333 136//333 138//333
f 136//121 140//121 141//121
f 134//334 139//334 141//334
f 139//123 143//123 144//123
f 135//335 142//335 144//335
f 142//125 137//125 138//125
f 145//336 148//336 150//336
f 148//128 152//128 153//128
f 146//337 151//337 153//337
f 151//130 155//130 156//130
f 147//338 154//338 156//338
f 154//132 149//132 150//132
f 157//339 160//339 162//339
f 160//135 164//135 165//135
f 158//340 163//340 165//340
f 163//137 167//137 168//137
f 159//341 166//341 168//341
f 166//139 161//139 162//139
f 169//342 172//342 174//342
f 172//142 176//142 177//142
f 170//343 175//343 177//343
f 175//144 179//144 180//144
f 171//344 178//344 180//344
f 178//146 173//146 174//146
f 181//345 184//345 186//345
f 184//149 188//149 189//149
f 182//346 187//346 189//346
f 187//151 191//151 192//151
f 183//347 190//347 192//347
f 190//153 185//153 186//153
f 121//155 97//155 101//155
f 124//156 101//156 106//156
f 128//157 106//157 99//157
f 98//158 109//158 113//158
f 103//159 113//159 118//159
f 107//160 118//160 111//160
f 110//161 133//161 137//161
f 115//162 137//162 142//162
f 119//163 142//163 135//163
f 134//164 123//164 131//164
f 139//165 131//165 127//165
f 143//166 127//166 122//166
f 169//167 121//167 125//167
f 172//67 125//67 130//67
f 176//168 130//168 123//168
f 133//169 181//169 185//169
f 136//61 185//61 190//61
f 140//170 190//170 183//170
f 182//171 171//171 179//171
f 187//172 179//172 175//172
f 191//173 175//173 170//173
f 145//174 169//174 173//174
f 148//175 173//175 178//175
f 152//176 178//176 171//176
f 181//177 157//177 161//177
f 184//178 161//178 166//178
f 188//179 166//179 159//179
f 158//180 147//180 155//180
f 163//181 155//181 151//181
f 167//182 151//182 146//182
f 97//183 145//183 149//183
f 100//73 149//73 154//73
f 104//184 154//184 147//184
f 157//185 110//185 116//185
f 160//79 116//79 112//79
f 164//186 112//186 109//186
f 121//95 169//95 145//95
f 99//187 111//187 135//187
f 147//98 158//98 109//98
f 181//97 133//97 110//97
f 123//94 134//94 183//94
f 171//188 182//188 159//188
usemtl DetailSteel
f 193//189 197//189 199//189
f 194//190 197//190 196//190
f 195//191 197//191 198//191
f 200//192 204//192 206//192
f 201//193 204//193 203//193
f 202//194 204//194 205//194
f 207//195 211//195 213//195
f 208//196 211//196 210//196
f 209//197 211//197 212//197
f 214//198 218//198 220//198
f 215//199 218//199 217//199
f 216//200 218//200 219//200
f 221//201 225//201 227//201
f 222//202 225//202 224//202
f 223//203 225//203 226//203
f 228//204 232//204 234//204
f 229//205 232//205 231//205
f 230//206 232//206 233//206
f 235//207 239//207 241//207
f 236//208 239//208 238//208
f 237//209 239//209 240//209
f 242//210 246//210 248//210
f 243//211 246//211 245//211
f 244//212 246//212 247//212
f 249//213 253//213 255//213
f 250//214 253//214 252//214
f 251//215 253//215 254//215
f 256//216 260//216 262//216
f 257//217 260//217 259//217
f 258//218 260//218 261//218
f 263//219 267//219 269//219
f 264//220 267//220 266//220
f 265//221 267//221 268//221
f 270//222 274//222 276//222
f 271//223 274//223 273//223
f 272//224 274//224 275//224
f 195//225 210//225 199//225
f 199//226 207//226 193//226
f 216//227 203//227 220//227
f 220//228 200//228 214//228
f 194//229 205//229 198//229
f 198//230 201//230 195//230
f 215//231 212//231 219//231
f 219//232 208//232 216//232
f 209//233 224//233 213//233
f 213//234 221//234 207//234
f 230//235 217//235 234//235
f 234//236 214//236 228//236
f 229//237 226//237 233//237
f 233//238 222//238 230//238
f 223//239 238//239 227//239
f 227//240 235//240 221//240
f 244//241 231//241 248//241
f 248//242 228//242 242//242
f 243//243 240//243 247//243
f 247//244 236//244 244//244
f 237//245 252//245 241//245
f 241//246 249//246 235//246
f 258//247 245//247 262//247
f 262//248 242//248 256//248
f 257//249 254//249 261//249
f 261//250 250//250 258//250
f 251//251 266//251 255//251
f 255//252 263//252 249//252
f 272//253 259//253 276//253
f 276//254 256//254 270//254
f 271//255 268//255 275//255
f 275//256 264//256 272//256
f 265//257 196//257 269//257
f 269//258 193//258 263//258
f 202//259 273//259 206//259
f 206//260 270//260 200//260
f 207//94 235//94 263//94
f 195//261 216//261 208//261
f 265//262 202//262 194//262
f 200//98 256//98 228//98
f 209//188 230//188 222//188
f 223//263 244//263 236//263
f 237//264 258//264 250//264
f 251//187 272//187 264//187
f 277//189 281//189 283//189
f 278//190 281//190 280//190
f 279//191 281//191 282//191
f 284//192 288//192 290//192
f 285//193 288//193 287//193
f 286//194 288//194 289//194
f 291//195 295//195 297//195
f 292//196 295//196 294//196
f 293//197 295//197 296//197
f 298//198 302//198 304//198
f 299//199 302//199 301//199
f 300//200 302//200 303//200
f 305//201 309//201 311//201
f 306//202 309//202 308//202
f 307//203 309//203 310//203
f 312//265 316//265 318//265
f 313//205 316//205 315//205
f 314//206 316//206 317//206
f 319//207 323//207 325//207
f 320//208 323//208 322//208
f 321//209 323//209 324//209
f 326//210 330//210 332//210
f 327//211 330//211 329//211
f 328//212 330//212 331//212
f 333//213 337//213 339//213
f 334//214 337//214 336//214
f 335//215 337//215 338//215
f 340//216 344//216 346//216
f 341//217 344//217 343//217
f 342//218 344//218 345//218
f 347//219 351//219 353//219
f 348//220 351//220 350//220
f 349//221 351//221 352//221
f 354//222 358//222 360//222
f 355//223 358//223 357//223
f 356//224 358//224 359//224
f 279//225 294//225 283//225
f 283//226 291//226 277//226
f 300//227 287//227 304//227
f 304//228 284//228 298//228
f 278//229 289//229 282//229
f 282//230 285//230 279//230
f 299//231 296//231 303//231
f 303//232 292//232 300//232
f 293//233 308//233 297//233
f 297//234 305//234 291//234
f 314//235 301//235 318//235
f 318//236 298//236 312//236
f 313//237 310//237 317//237
f 317//238 306//238 314//238
f 307//239 322//239 311//239
f 311//266 319//266 305//266
f 328//241 315//241 332//241
f 332//242 312//242 326//242
f 327//243 324//243 331//243
f 331//244 320//244 328//244
f 321//245 336//245 325//245
f 325//246 333//246 319//246
f 342//247 329//247 346//247
f 346//248 326//248 340//248
f 341//249 338//249 345//249
f 345//250 334//250 342//250
f 335//251 350//251 339//251
f 339//252 347//252 333//252
f 356//253 343//253 360//253
f 360//254 340//254 354//254
f 355//255 352//255 359//255
f 359//256 348//256 356//256
f 349//257 280//257 353//257
f 353//267 277//267 347//267
f 286//259 357//259 290//259
f 290//260 354//260 284//260
f 291//94 319//94 347//94
f 279//261 300//261 292//261
f 349//262 286//262 278//262
f 284//98 340//98 312//98
f 293//188 314//188 306//188
f 307//263 328//263 320//263
f 321//264 342//264 334//264
f 335//187 356//187 348//187
f 193//348 196//348 197//348
f 194//349 198//349 197//349
f 195//350 199//350 197//350
f 200//351 203//351 204//351
f 201//352 205//352 204//352
f 202//353 206//353 204//353
f 207//354 210//354 211//354
f 208//355 212//355 211//355
f 209//356 213//356 211//356
f 214//357 217//357 218//357
f 215//358 219//358 218//358
f 216//359 220//359 218//359
f 221//360 224//360 225//360
f 222//361 226//361 225//361
f 223//362 227//362 225//362
f 228//363 231//363 232//363
f 229//364 233//364 232//364
f 230//365 234//365 232//365
f 235//366 238//366 239//366
f 236//367 240//367 239//367
f 237//368 241//368 239//368
f 242//369 245//369 246//369
f 243//370 247//370 246//370
f 244//371 248//371 246//371
f 249//372 252//372 253//372
f 250//373 254//373 253//373
f 251//374 255//374 253//374
f 256//375 259//375 260//375
f 257//376 261//376 260//376
f 258//377 262//377 260//377
f 263//378 266//378 267//378
f 264//379 268//379 267//379
f 265//380 269//380 267//380
f 270//381 273//381 274//381
f 271//382 275//382 274//382
f 272//383 276//383 274//383
f 195//384 208//384 210//384
f 199//385 210//385 207//385
f 216//386 201//386 203//386
f 220//387 203//387 200//387
f 194//229 202//229 205//229
f 198//230 205//230 201//230
f 215//231 209//231 212//231
f 219//388 212//388 208//388
f 209//233 222//233 224//233
f 213//234 224//234 221//234
f 230//235 215//235 217//235
f 234//236 217//236 214//236
f 229//389 223//389 226//389
f 233//238 226//238 222//238
f 223//390 236//390 238//390
f 227//391 238//391 235//391
f 244//392 229//392 231//392
f 248//393 231//393 228//393
f 243//243 237//243 240//243
f 247//244 240//244 236//244
f 237//394 250//394 252//394
f 241//395 252//395 249//395
f 258//396 243//396 245//396
f 262//397 245//397 242//397
f 257//249 251//249 254//249
f 261//398 254//398 250//398
f 251//251 264//251 266//251
f 255//252 266//252 263//252
f 272//253 257//253 259//253
f 276//254 259//254 256//254
f 271//399 265//399 268//399
f 275//256 268//256 264//256
f 265//400 194//400 196//400
f 269//401 196//401 193//401
f 202//402 271//402 273//402
f 206//403 273//403 270//403
f 263//94 193//94 207//94
f 207//94 221//94 235//94
f 235//94 249//94 263//94
f 195//261 201//261 216//261
f 265//262 271//262 202//262
f 228//98 214//98 200//98
f 200//98 270//98 256//98
f 256//98 242//98 228//98
f 209//188 215//188 230//188
f 223//263 229//263 244//263
f 237//264 243//264 258//264
f 251//187 257//187 272//187
f 277//348 280//348 281//348
f 278//349 282//349 281//349
f 279//350 283//350 281//350
f 284//351 287//351 288//351
f 285//352 289//352 288//352
f 286//353 290//353 288//353
f 291//354 294//354 295//354
f 292//355 296//355 295//355
f 293//356 297//356 295//356
f 298//357 301//357 302//357
f 299//358 303//358 302//358
f 300//359 304//359 302//359
f 305//360 308//360 309//360
f 306//361 310//361 309//361
f 307//362 311//362 309//362
f 312//363 315//363 316//363
f 313//364 317//364 316//364
f 314//365 318//365 316//365
f 319//366 322//366 323//366
f 320//367 324//367 323//367
f 321//368 325//368 323//368
f 326//369 329//369 330//369
f 327//370 331//370 330//370
f 328//371 332//371 330//371
f 333//372 336//372 337//372
f 334//373 338//373 337//373
f 335//374 339//374 337//374
f 340//404 343//404 344//404
f 341//376 345//376 344//376
f 342//377 346//377 344//377
f 347//378 350//378 351//378
f 348//379 352//379 351//379
f 349//380 353//380 351//380
f 354//381 357//381 358//381
f 355//382 359//382 358//382
f 356//383 360//383 358//383
f 279//384 292//384 294//384
f 283//385 294//385 291//385
f 300//386 285//386 287//386
f 304//387 287//387 284//387
f 278//229 286//229 289//229
f 282//230 289//230 285//230
f 299//231 293//231 296//231
f 303//388 296//388 292//388
f 293//233 306//233 308//233
f 297//234 308//234 305//234
f 314//235 299//235 301//235
f 318//236 301//236 298//236
f 313//389 307//389 310//389
f 317//238 310//238 306//238
f 307//390 320//390 322//390
f 311//391 322//391 319//391
f 328//392 313//392 315//392
f 332//393 315//393 312//393
f 327//243 321//243 324//243
f 331//244 324//244 320//244
f 321//394 334//394 336//394
f 325//395 336//395 333//395
f 342//396 327//396 329//396
f 346//397 329//397 326//397
f 341//249 335//249 338//249
f 345//398 338//398 334//398
f 335//251 348//251 350//251
f 339//252 350//252 347//252
f 356//253 341//253 343//253
f 360//254 343//254 340//254
f 355//399 349//399 352//399
f 359//256 352//256 348//256
f 349//400 278//400 280//400
f 353//401 280//401 277//401
f 286//402 355//402 357//402
f 290//403 357//403 354//403
f 347//94 277//94 291//94
f 291//94 305//94 319//94
f 319//94 333//94 347//94
f 279//261 285//261 300//261
f 349//262 355//262 286//262
f 312//98 298//98 284//98
f 284//98 354//98 340//98
f 340//98 326//98 312//98
f 293//188 299//188 314//188
f 307//263 313//263 328//263
f 321//264 327//264 342//264
f 335//187 341//187 356//187
