# Blender 5.2.1 LTS
# www.blender.org
mtllib modular_shin_frame.mtl
o modular_shin_frame
v -0.027145 -0.090000 0.011000
v -0.027145 -0.088000 0.013000
v -0.029145 -0.088000 0.011000
v -0.027145 -0.089733 0.011999
v -0.028144 -0.089733 0.011000
v -0.028101 -0.089473 0.011956
v -0.028144 -0.088000 0.012733
v -0.027145 -0.088999 0.012733
v -0.028101 -0.088956 0.012473
v -0.028878 -0.088999 0.011000
v -0.028878 -0.088000 0.011999
v -0.028618 -0.088956 0.011956
v -0.027145 0.088000 0.013000
v -0.027145 0.090000 0.011000
v -0.029145 0.088000 0.011000
v -0.027145 0.088999 0.012733
v -0.028144 0.088000 0.012733
v -0.028101 0.088956 0.012473
v -0.028144 0.089733 0.011000
v -0.027145 0.089733 0.011999
v -0.028101 0.089473 0.011956
v -0.028878 0.088000 0.011999
v -0.028878 0.088999 0.011000
v -0.028618 0.088956 0.011956
v -0.027145 -0.090000 -0.011000
v -0.029145 -0.088000 -0.011000
v -0.027145 -0.088000 -0.013000
v -0.028144 -0.089733 -0.011000
v -0.027145 -0.089733 -0.011999
v -0.028101 -0.089473 -0.011956
v -0.028878 -0.088000 -0.011999
v -0.028878 -0.088999 -0.011000
v -0.028618 -0.088956 -0.011956
v -0.027145 -0.088999 -0.012733
v -0.028144 -0.088000 -0.012733
v -0.028101 -0.088956 -0.012473
v -0.027145 0.090000 -0.011000
v -0.027145 0.088000 -0.013000
v -0.029145 0.088000 -0.011000
v -0.027145 0.089733 -0.011999
v -0.028144 0.089733 -0.011000
v -0.028101 0.089473 -0.011956
v -0.028144 0.088000 -0.012733
v -0.027145 0.088999 -0.012733
v -0.028101 0.088956 -0.012473
v -0.028878 0.088999 -0.011000
v -0.028878 0.088000 -0.011999
v -0.028618 0.088956 -0.011956
v -0.015735 -0.090000 0.011000
v -0.013735 -0.088000 0.011000
v -0.015735 -0.088000 0.013000
v -0.014736 -0.089733 0.011000
v -0.015735 -0.089733 0.011999
v -0.014779 -0.089473 0.011956
v -0.014002 -0.088000 0.011999
v -0.014002 -0.088999 0.011000
v -0.014262 -0.088956 0.011956
v -0.015735 -0.088999 0.012733
v -0.014736 -0.088000 0.012733
v -0.014779 -0.088956 0.012473
v -0.015735 0.090000 0.011000
v -0.015735 0.088000 0.013000
v -0.013735 0.088000 0.011000
v -0.015735 0.089733 0.011999
v -0.014736 0.089733 0.011000
v -0.014779 0.089473 0.011956
v -0.014736 0.088000 0.012733
v -0.015735 0.088999 0.012733
v -0.014779 0.088956 0.012473
v -0.014002 0.088999 0.011000
v -0.014002 0.088000 0.011999
v -0.014262 0.088956 0.011956
v -0.015735 -0.090000 -0.011000
v -0.015735 -0.088000 -0.013000
v -0.013735 -0.088000 -0.011000
v -0.015735 -0.089733 -0.011999
v -0.014736 -0.089733 -0.011000
v -0.014779 -0.089473 -0.011956
v -0.014736 -0.088000 -0.012733
v -0.015735 -0.088999 -0.012733
v -0.014779 -0.088956 -0.012473
v -0.014002 -0.088999 -0.011000
v -0.014002 -0.088000 -0.011999
v -0.014262 -0.088956 -0.011956
v -0.015735 0.090000 -0.011000
v -0.013735 0.088000 -0.011000
v -0.015735 0.088000 -0.013000
v -0.014736 0.089733 -0.011000
v -0.015735 0.089733 -0.011999
v -0.014779 0.089473 -0.011956
v -0.014002 0.088000 -0.011999
v -0.014002 0.088999 -0.011000
v -0.014262 0.088956 -0.011956
v -0.015735 0.088999 -0.012733
v -0.014736 0.088000 -0.012733
v -0.014779 0.088956 -0.012473
v -0.024440 -0.046800 0.013000
v -0.023867 -0.048563 0.013000
v -0.024293 -0.047727 0.013000
v -0.024293 -0.045873 0.013000
v -0.022367 -0.049653 0.013000
v -0.022367 -0.043947 0.013000
v -0.023203 -0.049227 0.013000
v -0.023203 -0.044373 0.013000
v -0.023867 -0.045037 0.013000
v -0.019677 -0.049227 0.013000
v -0.021162 -0.049756 0.013000
v -0.020513 -0.049653 0.013000
v -0.020513 -0.043947 0.013000
v -0.019013 -0.045037 0.013000
v -0.018587 -0.047727 0.013000
v -0.018440 -0.046800 0.013000
v -0.019013 -0.048563 0.013000
v -0.018587 -0.045873 0.013000
v -0.021440 -0.049800 0.013000
v -0.019677 -0.044373 0.013000
v -0.021440 -0.043800 0.013000
v -0.024293 -0.047727 -0.013000
v -0.024440 -0.046800 -0.013000
v -0.023867 -0.048563 -0.013000
v -0.024293 -0.045873 -0.013000
v -0.023203 -0.044373 -0.013000
v -0.022367 -0.049653 -0.013000
v -0.023203 -0.049227 -0.013000
v -0.022367 -0.043947 -0.013000
v -0.021440 -0.049800 -0.013000
v -0.023867 -0.045037 -0.013000
v -0.019677 -0.049227 -0.013000
v -0.019677 -0.044373 -0.013000
v -0.020513 -0.049653 -0.013000
v -0.020513 -0.043947 -0.013000
v -0.018440 -0.046800 -0.013000
v -0.018587 -0.045873 -0.013000
v -0.019013 -0.048563 -0.013000
v -0.018587 -0.047727 -0.013000
v -0.019013 -0.045037 -0.013000
v -0.021440 -0.043800 -0.013000
v -0.021440 0.003000 0.013000
v -0.020513 -0.002853 0.013000
v -0.020513 0.002853 0.013000
v -0.019013 -0.001763 0.013000
v -0.019013 0.001763 0.013000
v -0.018440 0.000000 0.013000
v -0.018587 -0.000927 0.013000
v -0.018587 0.000927 0.013000
v -0.019677 -0.002427 0.013000
v -0.019677 0.002427 0.013000
v -0.021440 -0.003000 0.013000
v -0.022016 -0.002909 0.013000
v -0.024440 0.000000 0.013000
v -0.024293 -0.000927 0.013000
v -0.024293 0.000927 0.013000
v -0.022367 -0.002853 0.013000
v -0.022584 -0.002743 0.013000
v -0.022367 0.002853 0.013000
v -0.023867 -0.001763 0.013000
v -0.023867 0.001763 0.013000
v -0.023203 -0.002427 0.013000
v -0.023203 0.002427 0.013000
v -0.024440 0.000000 -0.013000
v -0.024293 -0.000927 -0.013000
v -0.023867 0.001763 -0.013000
v -0.023867 -0.001763 -0.013000
v -0.024293 0.000927 -0.013000
v -0.023203 -0.002427 -0.013000
v -0.021440 0.003000 -0.013000
v -0.022367 -0.002853 -0.013000
v -0.022367 0.002853 -0.013000
v -0.023203 0.002427 -0.013000
v -0.021440 -0.003000 -0.013000
v -0.020864 -0.002909 -0.013000
v -0.018440 0.000000 -0.013000
v -0.018587 0.000927 -0.013000
v -0.018587 -0.000927 -0.013000
v -0.020513 0.002853 -0.013000
v -0.020296 -0.002743 -0.013000
v -0.020513 -0.002853 -0.013000
v -0.019013 0.001763 -0.013000
v -0.019013 -0.001763 -0.013000
v -0.019677 0.002427 -0.013000
v -0.019677 -0.002427 -0.013000
v -0.024440 0.046800 0.013000
v -0.024293 0.045873 0.013000
v -0.024293 0.047727 0.013000
v -0.023203 0.044373 0.013000
v -0.023867 0.048563 0.013000
v -0.023867 0.045037 0.013000
v -0.023203 0.049227 0.013000
v -0.021440 0.043800 0.013000
v -0.022367 0.049653 0.013000
v -0.021718 0.049756 0.013000
v -0.019677 0.049227 0.013000
v -0.020513 0.049653 0.013000
v -0.020513 0.043947 0.013000
v -0.021440 0.049800 0.013000
v -0.022367 0.043947 0.013000
v -0.019677 0.044373 0.013000
v -0.018440 0.046800 0.013000
v -0.019013 0.048563 0.013000
v -0.019013 0.045037 0.013000
v -0.018587 0.047727 0.013000
v -0.018587 0.045873 0.013000
v -0.023203 0.049227 -0.013000
v -0.022367 0.049653 -0.013000
v -0.021440 0.043800 -0.013000
v -0.021440 0.049800 -0.013000
v -0.021162 0.049756 -0.013000
v -0.022367 0.043947 -0.013000
v -0.019677 0.044373 -0.013000
v -0.019677 0.049227 -0.013000
v -0.018440 0.046800 -0.013000
v -0.018587 0.045873 -0.013000
v -0.018587 0.047727 -0.013000
v -0.019013 0.045037 -0.013000
v -0.019013 0.048563 -0.013000
v -0.020513 0.043947 -0.013000
v -0.020513 0.049653 -0.013000
v -0.023203 0.044373 -0.013000
v -0.024440 0.046800 -0.013000
v -0.023867 0.048563 -0.013000
v -0.024293 0.047727 -0.013000
v -0.023867 0.045037 -0.013000
v -0.024293 0.045873 -0.013000
v 0.015735 -0.090000 0.011000
v 0.015735 -0.088000 0.013000
v 0.013735 -0.088000 0.011000
v 0.015735 -0.089733 0.011999
v 0.014736 -0.089733 0.011000
v 0.014779 -0.089473 0.011956
v 0.014736 -0.088000 0.012733
v 0.015735 -0.088999 0.012733
v 0.014779 -0.088956 0.012473
v 0.014002 -0.088999 0.011000
v 0.014002 -0.088000 0.011999
v 0.014262 -0.088956 0.011956
v 0.015735 0.088000 0.013000
v 0.015735 0.090000 0.011000
v 0.013735 0.088000 0.011000
v 0.015735 0.088999 0.012733
v 0.014736 0.088000 0.012733
v 0.014779 0.088956 0.012473
v 0.014736 0.089733 0.011000
v 0.015735 0.089733 0.011999
v 0.014779 0.089473 0.011956
v 0.014002 0.088000 0.011999
v 0.014002 0.088999 0.011000
v 0.014262 0.088956 0.011956
v 0.015735 -0.090000 -0.011000
v 0.013735 -0.088000 -0.011000
v 0.015735 -0.088000 -0.013000
v 0.014736 -0.089733 -0.011000
v 0.015735 -0.089733 -0.011999
v 0.014779 -0.089473 -0.011956
v 0.014002 -0.088000 -0.011999
v 0.014002 -0.088999 -0.011000
v 0.014262 -0.088956 -0.011956
v 0.015735 -0.088999 -0.012733
v 0.014736 -0.088000 -0.012733
v 0.014779 -0.088956 -0.012473
v 0.015735 0.090000 -0.011000
v 0.015735 0.088000 -0.013000
v 0.013735 0.088000 -0.011000
v 0.015735 0.089733 -0.011999
v 0.014736 0.089733 -0.011000
v 0.014779 0.089473 -0.011956
v 0.014736 0.088000 -0.012733
v 0.015735 0.088999 -0.012733
v 0.014779 0.088956 -0.012473
v 0.014002 0.088999 -0.011000
v 0.014002 0.088000 -0.011999
v 0.014262 0.088956 -0.011956
v 0.027145 -0.090000 0.011000
v 0.029145 -0.088000 0.011000
v 0.027145 -0.088000 0.013000
v 0.028144 -0.089733 0.011000
v 0.027145 -0.089733 0.011999
v 0.028101 -0.089473 0.011956
v 0.028878 -0.088000 0.011999
v 0.028878 -0.088999 0.011000
v 0.028618 -0.088956 0.011956
v 0.027145 -0.088999 0.012733
v 0.028144 -0.088000 0.012733
v 0.028101 -0.088956 0.012473
v 0.027145 0.090000 0.011000
v 0.027145 0.088000 0.013000
v 0.029145 0.088000 0.011000
v 0.027145 0.089733 0.011999
v 0.028144 0.089733 0.011000
v 0.028101 0.089473 0.011956
v 0.028144 0.088000 0.012733
v 0.027145 0.088999 0.012733
v 0.028101 0.088956 0.012473
v 0.028878 0.088999 0.011000
v 0.028878 0.088000 0.011999
v 0.028618 0.088956 0.011956
v 0.027145 -0.090000 -0.011000
v 0.027145 -0.088000 -0.013000
v 0.029145 -0.088000 -0.011000
v 0.027145 -0.089733 -0.011999
v 0.028144 -0.089733 -0.011000
v 0.028101 -0.089473 -0.011956
v 0.028144 -0.088000 -0.012733
v 0.027145 -0.088999 -0.012733
v 0.028101 -0.088956 -0.012473
v 0.028878 -0.088999 -0.011000
v 0.028878 -0.088000 -0.011999
v 0.028618 -0.088956 -0.011956
v 0.027145 0.090000 -0.011000
v 0.029145 0.088000 -0.011000
v 0.027145 0.088000 -0.013000
v 0.028144 0.089733 -0.011000
v 0.027145 0.089733 -0.011999
v 0.028101 0.089473 -0.011956
v 0.028878 0.088000 -0.011999
v 0.028878 0.088999 -0.011000
v 0.028618 0.088956 -0.011956
v 0.027145 0.088999 -0.012733
v 0.028144 0.088000 -0.012733
v 0.028101 0.088956 -0.012473
v 0.018440 -0.046800 0.013000
v 0.019013 -0.048563 0.013000
v 0.018587 -0.047727 0.013000
v 0.018587 -0.045873 0.013000
v 0.020513 -0.049653 0.013000
v 0.020513 -0.043947 0.013000
v 0.019677 -0.049227 0.013000
v 0.019677 -0.044373 0.013000
v 0.019013 -0.045037 0.013000
v 0.023203 -0.049227 0.013000
v 0.022367 -0.049653 0.013000
v 0.022367 -0.043947 0.013000
v 0.023867 -0.045037 0.013000
v 0.024293 -0.047727 0.013000
v 0.024440 -0.046800 0.013000
v 0.023867 -0.048563 0.013000
v 0.024293 -0.045873 0.013000
v 0.021440 -0.049800 0.013000
v 0.023203 -0.044373 0.013000
v 0.021440 -0.043800 0.013000
v 0.018587 -0.047727 -0.013000
v 0.018440 -0.046800 -0.013000
v 0.019013 -0.048563 -0.013000
v 0.018587 -0.045873 -0.013000
v 0.019677 -0.044373 -0.013000
v 0.020513 -0.049653 -0.013000
v 0.021162 -0.049756 -0.013000
v 0.019677 -0.049227 -0.013000
v 0.020513 -0.043947 -0.013000
v 0.021440 -0.049800 -0.013000
v 0.019013 -0.045037 -0.013000
v 0.023203 -0.049227 -0.013000
v 0.023203 -0.044373 -0.013000
v 0.022367 -0.049653 -0.013000
v 0.022367 -0.043947 -0.013000
v 0.024440 -0.046800 -0.013000
v 0.024293 -0.045873 -0.013000
v 0.023867 -0.048563 -0.013000
v 0.024293 -0.047727 -0.013000
v 0.023867 -0.045037 -0.013000
v 0.021440 -0.043800 -0.013000
v 0.021440 0.003000 0.013000
v 0.022367 -0.002853 0.013000
v 0.022367 0.002853 0.013000
v 0.023867 -0.001763 0.013000
v 0.023867 0.001763 0.013000
v 0.024440 0.000000 0.013000
v 0.024293 -0.000927 0.013000
v 0.024293 0.000927 0.013000
v 0.023203 -0.002427 0.013000
v 0.023203 0.002427 0.013000
v 0.021440 -0.003000 0.013000
v 0.020864 -0.002909 0.013000
v 0.018440 0.000000 0.013000
v 0.018587 -0.000927 0.013000
v 0.018587 0.000927 0.013000
v 0.020513 -0.002853 0.013000
v 0.020296 -0.002743 0.013000
v 0.020513 0.002853 0.013000
v 0.019013 -0.001763 0.013000
v 0.019013 0.001763 0.013000
v 0.019677 -0.002427 0.013000
v 0.019677 0.002427 0.013000
v 0.018440 0.000000 -0.013000
v 0.018587 -0.000927 -0.013000
v 0.019013 0.001763 -0.013000
v 0.019013 -0.001763 -0.013000
v 0.018587 0.000927 -0.013000
v 0.019677 -0.002427 -0.013000
v 0.021440 0.003000 -0.013000
v 0.020513 -0.002853 -0.013000
v 0.020513 0.002853 -0.013000
v 0.019677 0.002427 -0.013000
v 0.021440 -0.003000 -0.013000
v 0.022016 -0.002909 -0.013000
v 0.024440 0.000000 -0.013000
v 0.024293 0.000927 -0.013000
v 0.024293 -0.000927 -0.013000
v 0.022367 0.002853 -0.013000
v 0.022584 -0.002743 -0.013000
v 0.022367 -0.002853 -0.013000
v 0.023867 0.001763 -0.013000
v 0.023867 -0.001763 -0.013000
v 0.023203 0.002427 -0.013000
v 0.023203 -0.002427 -0.013000
v 0.018440 0.046800 0.013000
v 0.018587 0.045873 0.013000
v 0.018587 0.047727 0.013000
v 0.019677 0.044373 0.013000
v 0.019013 0.048563 0.013000
v 0.019013 0.045037 0.013000
v 0.019677 0.049227 0.013000
v 0.021440 0.043800 0.013000
v 0.020513 0.049653 0.013000
v 0.021162 0.049756 0.013000
v 0.023203 0.049227 0.013000
v 0.022367 0.049653 0.013000
v 0.022367 0.043947 0.013000
v 0.021440 0.049800 0.013000
v 0.020513 0.043947 0.013000
v 0.023203 0.044373 0.013000
v 0.024440 0.046800 0.013000
v 0.023867 0.048563 0.013000
v 0.023867 0.045037 0.013000
v 0.024293 0.047727 0.013000
v 0.024293 0.045873 0.013000
v 0.019677 0.049227 -0.013000
v 0.020513 0.049653 -0.013000
v 0.021440 0.043800 -0.013000
v 0.021440 0.049800 -0.013000
v 0.021718 0.049756 -0.013000
v 0.020513 0.043947 -0.013000
v 0.023203 0.044373 -0.013000
v 0.023203 0.049227 -0.013000
v 0.024440 0.046800 -0.013000
v 0.024293 0.045873 -0.013000
v 0.024293 0.047727 -0.013000
v 0.023867 0.045037 -0.013000
v 0.023867 0.048563 -0.013000
v 0.022367 0.043947 -0.013000
v 0.022367 0.049653 -0.013000
v 0.019677 0.044373 -0.013000
v 0.018440 0.046800 -0.013000
v 0.019013 0.048563 -0.013000
v 0.018587 0.047727 -0.013000
v 0.019013 0.045037 -0.013000
v 0.018587 0.045873 -0.013000
v -0.019018 -0.052027 0.024700
v -0.012493 -0.052000 0.018200
v -0.011925 -0.058500 0.024700
v -0.018142 -0.052019 0.021454
v -0.017858 -0.055264 0.024700
v -0.017019 -0.055119 0.021592
v -0.012205 -0.055241 0.019068
v -0.015747 -0.052009 0.019068
v -0.015333 -0.055112 0.019912
v -0.015254 -0.057640 0.024700
v -0.011996 -0.057627 0.021454
v -0.015186 -0.056792 0.021592
v 0.019018 -0.052027 0.024700
v 0.011925 -0.058500 0.024700
v 0.012493 -0.052000 0.018200
v 0.017858 -0.055264 0.024700
v 0.018142 -0.052019 0.021454
v 0.017019 -0.055119 0.021592
v 0.011996 -0.057627 0.021454
v 0.015254 -0.057640 0.024700
v 0.015186 -0.056792 0.021592
v 0.015747 -0.052009 0.019068
v 0.012205 -0.055241 0.019068
v 0.015333 -0.055112 0.019912
v 0.022645 0.058500 0.024700
v 0.028552 0.052027 0.024700
v 0.022022 0.052000 0.018200
v 0.025817 0.057640 0.024700
v 0.022556 0.057627 0.021454
v 0.025593 0.056792 0.021592
v 0.027674 0.052019 0.021454
v 0.027985 0.055264 0.024700
v 0.027120 0.055119 0.021592
v 0.022328 0.055241 0.019068
v 0.025277 0.052009 0.019068
v 0.025432 0.055112 0.019912
v -0.028552 0.052027 0.024700
v -0.022645 0.058500 0.024700
v -0.022022 0.052000 0.018200
v -0.027985 0.055264 0.024700
v -0.027674 0.052019 0.021454
v -0.027120 0.055119 0.021592
v -0.022556 0.057627 0.021454
v -0.025817 0.057640 0.024700
v -0.025593 0.056792 0.021592
v -0.025277 0.052009 0.019068
v -0.022328 0.055241 0.019068
v -0.025432 0.055112 0.019912
v -0.012493 -0.052000 0.031200
v -0.018142 -0.052019 0.027946
v -0.017019 -0.055119 0.027808
v -0.011996 -0.057627 0.027946
v -0.015186 -0.056792 0.027808
v -0.015747 -0.052009 0.030332
v -0.012205 -0.055241 0.030332
v -0.015333 -0.055112 0.029488
v 0.012493 -0.052000 0.031200
v 0.011996 -0.057627 0.027946
v 0.015186 -0.056792 0.027808
v 0.018142 -0.052019 0.027946
v 0.017019 -0.055119 0.027808
v 0.012205 -0.055241 0.030332
v 0.015747 -0.052009 0.030332
v 0.015333 -0.055112 0.029488
v 0.022022 0.052000 0.031200
v 0.027674 0.052019 0.027946
v 0.027120 0.055119 0.027808
v 0.022556 0.057627 0.027946
v 0.025593 0.056792 0.027808
v 0.025277 0.052009 0.030332
v 0.022328 0.055241 0.030332
v 0.025432 0.055112 0.029488
v -0.022022 0.052000 0.031200
v -0.027674 0.052019 0.027946
v 0.021718 -0.049756 0.013000
v -0.027120 0.055119 0.027808
v -0.022328 0.055241 0.030332
v -0.025277 0.052009 0.030332
v -0.025432 0.055112 0.029488
v -0.021718 -0.049756 -0.013000
v -0.022556 0.057627 0.027946
v -0.025593 0.056792 0.027808
v -0.004025 -0.041400 0.034500
v -0.004025 -0.040400 0.035500
v -0.005025 -0.040400 0.034500
v -0.004025 -0.041266 0.034999
v -0.004524 -0.041266 0.034500
v -0.004503 -0.041137 0.034978
v -0.004524 -0.040400 0.035366
v -0.004025 -0.040899 0.035366
v -0.004503 -0.040878 0.035237
v -0.004891 -0.040899 0.034500
v -0.004891 -0.040400 0.034999
v -0.004762 -0.040878 0.034978
v -0.004025 0.040400 0.035500
v -0.004025 0.041400 0.034500
v -0.005025 0.040400 0.034500
v -0.004025 0.040899 0.035366
v -0.004524 0.040400 0.035366
v -0.004503 0.040878 0.035237
v -0.004524 0.041266 0.034500
v -0.004025 0.041266 0.034999
v -0.004503 0.041137 0.034978
v -0.004891 0.040400 0.034999
v -0.004891 0.040899 0.034500
v -0.004762 0.040878 0.034978
v -0.004025 -0.041400 0.030500
v -0.005025 -0.040400 0.030500
v -0.004025 -0.040400 0.029500
v -0.004524 -0.041266 0.030500
v -0.004025 -0.041266 0.030001
v -0.004503 -0.041137 0.030022
v -0.004891 -0.040400 0.030001
v -0.004891 -0.040899 0.030500
v -0.004762 -0.040878 0.030022
v -0.004025 -0.040899 0.029634
v -0.004524 -0.040400 0.029634
v -0.004503 -0.040878 0.029763
v -0.004025 0.041400 0.030500
v -0.004025 0.040400 0.029500
v -0.005025 0.040400 0.030500
v -0.004025 0.041266 0.030001
v -0.004524 0.041266 0.030500
v -0.004503 0.041137 0.030022
v -0.004524 0.040400 0.029634
v -0.004025 0.040899 0.029634
v -0.004503 0.040878 0.029763
v -0.004891 0.040899 0.030500
v -0.004891 0.040400 0.030001
v -0.004762 0.040878 0.030022
v 0.004025 -0.041400 0.034500
v 0.005025 -0.040400 0.034500
v 0.004025 -0.040400 0.035500
v 0.004524 -0.041266 0.034500
v 0.004025 -0.041266 0.034999
v 0.004503 -0.041137 0.034978
v 0.004891 -0.040400 0.034999
v 0.004891 -0.040899 0.034500
v 0.004762 -0.040878 0.034978
v 0.004025 -0.040899 0.035366
v 0.004524 -0.040400 0.035366
v 0.004503 -0.040878 0.035237
v 0.004025 0.041400 0.034500
v 0.004025 0.040400 0.035500
v 0.005025 0.040400 0.034500
v 0.004025 0.041266 0.034999
v 0.004524 0.041266 0.034500
v 0.004503 0.041137 0.034978
v 0.004524 0.040400 0.035366
v 0.004025 0.040899 0.035366
v 0.004503 0.040878 0.035237
v 0.004891 0.040899 0.034500
v 0.004891 0.040400 0.034999
v 0.004762 0.040878 0.034978
v 0.004025 -0.041400 0.030500
v 0.004025 -0.040400 0.029500
v 0.005025 -0.040400 0.030500
v 0.004025 -0.041266 0.030001
v 0.004524 -0.041266 0.030500
v 0.004503 -0.041137 0.030022
v 0.004524 -0.040400 0.029634
v 0.004025 -0.040899 0.029634
v 0.004503 -0.040878 0.029763
v 0.004891 -0.040899 0.030500
v 0.004891 -0.040400 0.030001
v 0.004762 -0.040878 0.030022
v 0.004025 0.041400 0.030500
v 0.005025 0.040400 0.030500
v 0.004025 0.040400 0.029500
v 0.004524 0.041266 0.030500
v 0.004025 0.041266 0.030001
v 0.004503 0.041137 0.030022
v 0.004891 0.040400 0.030001
v 0.004891 0.040899 0.030500
v 0.004762 0.040878 0.030022
v 0.004025 0.040899 0.029634
v 0.004524 0.040400 0.029634
v 0.004503 0.040878 0.029763
v -0.011400 -0.063000 -0.011250
v -0.011400 -0.061000 -0.009250
v -0.013400 -0.061000 -0.011250
v -0.011400 -0.062733 -0.010251
v -0.012399 -0.062733 -0.011250
v -0.012356 -0.062473 -0.010294
v -0.012399 -0.061000 -0.009517
v -0.011400 -0.061999 -0.009517
v -0.012356 -0.061956 -0.009777
v -0.013133 -0.061999 -0.011250
v -0.013133 -0.061000 -0.010251
v -0.012873 -0.061956 -0.010294
v -0.011400 0.061000 -0.009250
v -0.011400 0.063000 -0.011250
v -0.013400 0.061000 -0.011250
v -0.011400 0.061999 -0.009517
v -0.012399 0.061000 -0.009517
v -0.012356 0.061956 -0.009777
v -0.012399 0.062733 -0.011250
v -0.011400 0.062733 -0.010251
v -0.012356 0.062473 -0.010294
v -0.013133 0.061000 -0.010251
v -0.013133 0.061999 -0.011250
v -0.012873 0.061956 -0.010294
v -0.011400 -0.063000 -0.021250
v -0.013400 -0.061000 -0.021250
v -0.011400 -0.061000 -0.023250
v -0.012399 -0.062733 -0.021250
v -0.011400 -0.062733 -0.022249
v -0.012356 -0.062473 -0.022206
v -0.013133 -0.061000 -0.022249
v -0.013133 -0.061999 -0.021250
v -0.012873 -0.061956 -0.022206
v -0.011400 -0.061999 -0.022983
v -0.012399 -0.061000 -0.022983
v -0.012356 -0.061956 -0.022723
v -0.011400 0.063000 -0.021250
v -0.011400 0.061000 -0.023250
v -0.013400 0.061000 -0.021250
v -0.011400 0.062733 -0.022249
v -0.012399 0.062733 -0.021250
v -0.012356 0.062473 -0.022206
v -0.012399 0.061000 -0.022983
v -0.011400 0.061999 -0.022983
v -0.012356 0.061956 -0.022723
v -0.013133 0.061999 -0.021250
v -0.013133 0.061000 -0.022249
v -0.012873 0.061956 -0.022206
v 0.011400 -0.063000 -0.011250
v 0.013400 -0.061000 -0.011250
v 0.011400 -0.061000 -0.009250
v 0.012399 -0.062733 -0.011250
v 0.011400 -0.062733 -0.010251
v 0.012356 -0.062473 -0.010294
v 0.013133 -0.061000 -0.010251
v 0.013133 -0.061999 -0.011250
v 0.012873 -0.061956 -0.010294
v 0.011400 -0.061999 -0.009517
v 0.012399 -0.061000 -0.009517
v 0.012356 -0.061956 -0.009777
v 0.011400 0.063000 -0.011250
v 0.011400 0.061000 -0.009250
v 0.013400 0.061000 -0.011250
v 0.011400 0.062733 -0.010251
v 0.012399 0.062733 -0.011250
v 0.012356 0.062473 -0.010294
v 0.012399 0.061000 -0.009517
v 0.011400 0.061999 -0.009517
v 0.012356 0.061956 -0.009777
v 0.013133 0.061999 -0.011250
v 0.013133 0.061000 -0.010251
v 0.012873 0.061956 -0.010294
v 0.011400 -0.063000 -0.021250
v 0.011400 -0.061000 -0.023250
v 0.013400 -0.061000 -0.021250
v 0.011400 -0.062733 -0.022249
v 0.012399 -0.062733 -0.021250
v 0.012356 -0.062473 -0.022206
v 0.012399 -0.061000 -0.022983
v 0.011400 -0.061999 -0.022983
v 0.012356 -0.061956 -0.022723
v 0.013133 -0.061999 -0.021250
v 0.013133 -0.061000 -0.022249
v 0.012873 -0.061956 -0.022206
v 0.011400 0.063000 -0.021250
v 0.013400 0.061000 -0.021250
v 0.011400 0.061000 -0.023250
v 0.012399 0.062733 -0.021250
v 0.011400 0.062733 -0.022249
v 0.012356 0.062473 -0.022206
v 0.013133 0.061000 -0.022249
v 0.013133 0.061999 -0.021250
v 0.012873 0.061956 -0.022206
v 0.011400 0.061999 -0.022983
v 0.012399 0.061000 -0.022983
v 0.012356 0.061956 -0.022723
v -0.031500 -0.090000 0.017500
v -0.031500 -0.088000 0.019500
v -0.033500 -0.088000 0.017500
v -0.031500 -0.089733 0.018499
v -0.032499 -0.089733 0.017500
v -0.032456 -0.089473 0.018456
v -0.032499 -0.088000 0.019233
v -0.031500 -0.088999 0.019233
v -0.032456 -0.088956 0.018973
v -0.033233 -0.088999 0.017500
v -0.033233 -0.088000 0.018499
v -0.032973 -0.088956 0.018456
v -0.031500 -0.080000 0.019500
v -0.031500 -0.078000 0.017500
v -0.033500 -0.080000 0.017500
v -0.031500 -0.079001 0.019233
v -0.032499 -0.080000 0.019233
v -0.032456 -0.079044 0.018973
v -0.032499 -0.078267 0.017500
v -0.031500 -0.078267 0.018499
v -0.032456 -0.078527 0.018456
v -0.033233 -0.080000 0.018499
v -0.033233 -0.079001 0.017500
v -0.032973 -0.079044 0.018456
v -0.031500 -0.090000 -0.017500
v -0.033500 -0.088000 -0.017500
v -0.031500 -0.088000 -0.019500
v -0.032499 -0.089733 -0.017500
v -0.031500 -0.089733 -0.018499
v -0.032456 -0.089473 -0.018456
v -0.033233 -0.088000 -0.018499
v -0.033233 -0.088999 -0.017500
v -0.032973 -0.088956 -0.018456
v -0.031500 -0.088999 -0.019233
v -0.032499 -0.088000 -0.019233
v -0.032456 -0.088956 -0.018973
v -0.031500 -0.078000 -0.017500
v -0.031500 -0.080000 -0.019500
v -0.033500 -0.080000 -0.017500
v -0.031500 -0.078267 -0.018499
v -0.032499 -0.078267 -0.017500
v -0.032456 -0.078527 -0.018456
v -0.032499 -0.080000 -0.019233
v -0.031500 -0.079001 -0.019233
v -0.032456 -0.079044 -0.018973
v -0.033233 -0.079001 -0.017500
v -0.033233 -0.080000 -0.018499
v -0.032973 -0.079044 -0.018456
v 0.031500 -0.090000 0.017500
v 0.033500 -0.088000 0.017500
v 0.031500 -0.088000 0.019500
v 0.032499 -0.089733 0.017500
v 0.031500 -0.089733 0.018499
v 0.032456 -0.089473 0.018456
v 0.033233 -0.088000 0.018499
v 0.033233 -0.088999 0.017500
v 0.032973 -0.088956 0.018456
v 0.031500 -0.088999 0.019233
v 0.032499 -0.088000 0.019233
v 0.032456 -0.088956 0.018973
v 0.031500 -0.078000 0.017500
v 0.031500 -0.080000 0.019500
v 0.033500 -0.080000 0.017500
v 0.031500 -0.078267 0.018499
v 0.032499 -0.078267 0.017500
v 0.032456 -0.078527 0.018456
v 0.032499 -0.080000 0.019233
v 0.031500 -0.079001 0.019233
v 0.032456 -0.079044 0.018973
v 0.033233 -0.079001 0.017500
v 0.033233 -0.080000 0.018499
v 0.032973 -0.079044 0.018456
v 0.031500 -0.090000 -0.017500
v 0.031500 -0.088000 -0.019500
v 0.033500 -0.088000 -0.017500
v 0.031500 -0.089733 -0.018499
v 0.032499 -0.089733 -0.017500
v 0.032456 -0.089473 -0.018456
v 0.032499 -0.088000 -0.019233
v 0.031500 -0.088999 -0.019233
v 0.032456 -0.088956 -0.018973
v 0.033233 -0.088999 -0.017500
v 0.033233 -0.088000 -0.018499
v 0.032973 -0.088956 -0.018456
v 0.031500 -0.078000 -0.017500
v 0.033500 -0.080000 -0.017500
v 0.031500 -0.080000 -0.019500
v 0.032499 -0.078267 -0.017500
v 0.031500 -0.078267 -0.018499
v 0.032456 -0.078527 -0.018456
v 0.033233 -0.080000 -0.018499
v 0.033233 -0.079001 -0.017500
v 0.032973 -0.079044 -0.018456
v 0.031500 -0.079001 -0.019233
v 0.032499 -0.080000 -0.019233
v 0.032456 -0.079044 -0.018973
v -0.031500 0.078000 0.017500
v -0.031500 0.080000 0.019500
v -0.033500 0.080000 0.017500
v -0.031500 0.078267 0.018499
v -0.032499 0.078267 0.017500
v -0.032456 0.078527 0.018456
v -0.032499 0.080000 0.019233
v -0.031500 0.079001 0.019233
v -0.032456 0.079044 0.018973
v -0.033233 0.079001 0.017500
v -0.033233 0.080000 0.018499
v -0.032973 0.079044 0.018456
v -0.031500 0.088000 0.019500
v -0.031500 0.090000 0.017500
v -0.033500 0.088000 0.017500
v -0.031500 0.088999 0.019233
v -0.032499 0.088000 0.019233
v -0.032456 0.088956 0.018973
v -0.032499 0.089733 0.017500
v -0.031500 0.089733 0.018499
v -0.032456 0.089473 0.018456
v -0.033233 0.088000 0.018499
v -0.033233 0.088999 0.017500
v -0.032973 0.088956 0.018456
v -0.031500 0.078000 -0.017500
v -0.033500 0.080000 -0.017500
v -0.031500 0.080000 -0.019500
v -0.032499 0.078267 -0.017500
v -0.031500 0.078267 -0.018499
v -0.032456 0.078527 -0.018456
v -0.033233 0.080000 -0.018499
v -0.033233 0.079001 -0.017500
v -0.032973 0.079044 -0.018456
v -0.031500 0.079001 -0.019233
v -0.032499 0.080000 -0.019233
v -0.032456 0.079044 -0.018973
v -0.031500 0.090000 -0.017500
v -0.031500 0.088000 -0.019500
v -0.033500 0.088000 -0.017500
v -0.031500 0.089733 -0.018499
v -0.032499 0.089733 -0.017500
v -0.032456 0.089473 -0.018456
v -0.032499 0.088000 -0.019233
v -0.031500 0.088999 -0.019233
v -0.032456 0.088956 -0.018973
v -0.033233 0.088999 -0.017500
v -0.033233 0.088000 -0.018499
v -0.032973 0.088956 -0.018456
v 0.031500 0.078000 0.017500
v 0.033500 0.080000 0.017500
v 0.031500 0.080000 0.019500
v 0.032499 0.078267 0.017500
v 0.031500 0.078267 0.018499
v 0.032456 0.078527 0.018456
v 0.033233 0.080000 0.018499
v 0.033233 0.079001 0.017500
v 0.032973 0.079044 0.018456
v 0.031500 0.079001 0.019233
v 0.032499 0.080000 0.019233
v 0.032456 0.079044 0.018973
v 0.031500 0.090000 0.017500
v 0.031500 0.088000 0.019500
v 0.033500 0.088000 0.017500
v 0.031500 0.089733 0.018499
v 0.032499 0.089733 0.017500
v 0.032456 0.089473 0.018456
v 0.032499 0.088000 0.019233
v 0.031500 0.088999 0.019233
v 0.032456 0.088956 0.018973
v 0.033233 0.088999 0.017500
v 0.033233 0.088000 0.018499
v 0.032973 0.088956 0.018456
v 0.031500 0.078000 -0.017500
v 0.031500 0.080000 -0.019500
v 0.033500 0.080000 -0.017500
v 0.031500 0.078267 -0.018499
v 0.032499 0.078267 -0.017500
v 0.032456 0.078527 -0.018456
v 0.032499 0.080000 -0.019233
v 0.031500 0.079001 -0.019233
v 0.032456 0.079044 -0.018973
v 0.033233 0.079001 -0.017500
v 0.033233 0.080000 -0.018499
v 0.032973 0.079044 -0.018456
v 0.031500 0.090000 -0.017500
v 0.033500 0.088000 -0.017500
v 0.031500 0.088000 -0.019500
v 0.032499 0.089733 -0.017500
v 0.031500 0.089733 -0.018499
v 0.032456 0.089473 -0.018456
v 0.033233 0.088000 -0.018499
v 0.033233 0.088999 -0.017500
v 0.032973 0.088956 -0.018456
v 0.031500 0.088999 -0.019233
v 0.032499 0.088000 -0.019233
v 0.032456 0.088956 -0.018973
vn -0.2490 -0.9317 0.2646
vn -0.2187 -0.6900 0.6900
vn -0.2646 -0.2490 0.9317
vn -0.6900 -0.2187 0.6900
vn -0.9317 -0.2646 0.2490
vn -0.6900 -0.6900 0.2187
vn -0.5774 -0.5773 0.5773
vn -0.2490 0.2646 0.9317
vn -0.2187 0.6900 0.6900
vn -0.2646 0.9317 0.2490
vn -0.6900 0.6900 0.2187
vn -0.9317 0.2490 0.2646
vn -0.6900 0.2187 0.6900
vn -0.5774 0.5773 0.5773
vn -0.2646 -0.9317 -0.2490
vn -0.6900 -0.6900 -0.2187
vn -0.9317 -0.2490 -0.2646
vn -0.6900 -0.2187 -0.6900
vn -0.2490 -0.2646 -0.9317
vn -0.2187 -0.6900 -0.6900
vn -0.5774 -0.5773 -0.5773
vn -0.2490 0.9317 -0.2646
vn -0.2187 0.6900 -0.6900
vn -0.2646 0.2490 -0.9317
vn -0.6900 0.2187 -0.6900
vn -0.9317 0.2646 -0.2490
vn -0.6900 0.6900 -0.2187
vn -0.5774 0.5773 -0.5773
vn 0.2646 -0.9317 0.2490
vn 0.6900 -0.6900 0.2187
vn 0.9317 -0.2490 0.2646
vn 0.6900 -0.2187 0.6900
vn 0.2490 -0.2646 0.9317
vn 0.2187 -0.6900 0.6900
vn 0.5774 -0.5773 0.5773
vn 0.2490 0.9317 0.2646
vn 0.2187 0.6900 0.6900
vn 0.2646 0.2490 0.9317
vn 0.6900 0.2187 0.6900
vn 0.9317 0.2646 0.2490
vn 0.6900 0.6900 0.2187
vn 0.5774 0.5773 0.5773
vn 0.2490 -0.9317 -0.2646
vn 0.2187 -0.6900 -0.6900
vn 0.2646 -0.2490 -0.9317
vn 0.6900 -0.2187 -0.6900
vn 0.9317 -0.2646 -0.2490
vn 0.6900 -0.6900 -0.2187
vn 0.5774 -0.5773 -0.5773
vn 0.2646 0.9317 -0.2490
vn 0.6900 0.6900 -0.2187
vn 0.9317 0.2490 -0.2646
vn 0.6900 0.2187 -0.6900
vn 0.2490 0.2646 -0.9317
vn 0.2187 0.6900 -0.6900
vn 0.5774 0.5773 -0.5773
vn -0.2582 -0.9661 -0.0000
vn -0.7071 -0.7071 -0.0000
vn -0.9661 -0.2582 -0.0000
vn -0.2582 -0.0000 0.9661
vn -0.7071 -0.0000 0.7071
vn -0.9661 -0.0000 0.2582
vn -0.2582 0.9661 -0.0000
vn -0.7071 0.7071 -0.0000
vn -0.9661 0.2582 -0.0000
vn -0.2582 -0.0000 -0.9661
vn -0.7071 -0.0000 -0.7071
vn -0.9661 -0.0000 -0.2582
vn -0.0000 -0.9661 -0.2582
vn -0.0000 -0.7071 -0.7071
vn -0.0000 -0.2582 -0.9661
vn -0.0000 0.9661 -0.2582
vn -0.0000 0.7071 -0.7071
vn -0.0000 0.2582 -0.9661
vn 0.9661 -0.0000 -0.2582
vn 0.7071 -0.0000 -0.7071
vn 0.2582 -0.0000 -0.9661
vn 0.2582 -0.9661 -0.0000
vn 0.7071 -0.7071 -0.0000
vn 0.9661 -0.2582 -0.0000
vn 0.2582 0.9661 -0.0000
vn 0.7071 0.7071 -0.0000
vn 0.9661 0.2582 -0.0000
vn 0.2582 -0.0000 0.9661
vn 0.7071 -0.0000 0.7071
vn 0.9661 -0.0000 0.2582
vn -0.0000 -0.9661 0.2582
vn -0.0000 -0.7071 0.7071
vn -0.0000 -0.2582 0.9661
vn -0.0000 0.9661 0.2582
vn -0.0000 0.7071 0.7071
vn -0.0000 0.2582 0.9661
vn -0.0000 -1.0000 -0.0000
vn -1.0000 -0.0000 -0.0000
vn -0.0000 -0.0000 1.0000
vn -0.0000 1.0000 -0.0000
vn -0.0000 -0.0000 -1.0000
vn 1.0000 -0.0000 -0.0000
vn -0.1566 -0.9877 -0.0000
vn -0.4540 -0.8910 -0.0000
vn -0.8910 -0.4540 -0.0000
vn -0.9877 -0.1566 -0.0000
vn -0.9877 0.1566 -0.0000
vn -0.8910 0.4540 -0.0000
vn -0.4540 0.8910 -0.0000
vn -0.1563 0.9877 -0.0000
vn -0.0000 -0.0232 -0.9997
vn 0.4540 0.8910 -0.0000
vn 0.8910 0.4540 -0.0000
vn 0.9877 0.1566 -0.0000
vn 0.9877 -0.1566 -0.0000
vn 0.8910 -0.4540 -0.0000
vn 0.4540 -0.8910 -0.0000
vn 0.1566 -0.9877 -0.0000
vn -0.1566 0.9877 -0.0000
vn 0.1561 0.9877 -0.0000
vn 0.4521 0.8919 0.0001
vn -0.1567 -0.9876 -0.0000
vn 0.1566 0.9877 -0.0000
vn 0.1563 0.9877 -0.0000
vn -0.1576 0.9875 -0.0000
vn -0.9089 -0.3257 -0.2605
vn -0.6779 -0.2759 -0.6814
vn -0.2463 -0.2848 -0.9264
vn -0.2128 -0.7002 -0.6815
vn -0.2554 -0.9350 -0.2459
vn -0.6589 -0.7219 -0.2114
vn -0.5576 -0.6109 -0.5621
vn 0.9078 -0.3398 -0.2458
vn 0.6589 -0.7219 -0.2115
vn 0.2415 -0.9348 -0.2603
vn 0.2128 -0.7002 -0.6815
vn 0.2611 -0.2713 -0.9264
vn 0.6779 -0.2758 -0.6815
vn 0.5576 -0.6109 -0.5621
vn 0.2670 0.9288 -0.2571
vn 0.7187 0.6559 -0.2308
vn 0.9480 0.1660 -0.2716
vn 0.6965 0.1557 -0.7005
vn 0.2493 0.2426 -0.9375
vn 0.2187 0.6794 -0.7004
vn 0.5923 0.5406 -0.5974
vn -0.9492 0.1811 -0.2572
vn -0.7187 0.6560 -0.2306
vn -0.2518 0.9289 -0.2716
vn -0.2186 0.6794 -0.7004
vn -0.2643 0.2261 -0.9375
vn -0.6965 0.1557 -0.7005
vn -0.5923 0.5406 -0.5974
vn -0.9078 -0.3398 0.2458
vn -0.6589 -0.7219 0.2115
vn -0.2415 -0.9348 0.2603
vn -0.2128 -0.7002 0.6815
vn -0.2611 -0.2713 0.9264
vn -0.6779 -0.2758 0.6815
vn -0.5576 -0.6109 0.5621
vn 0.2554 -0.9350 0.2459
vn 0.6589 -0.7219 0.2114
vn 0.9089 -0.3257 0.2605
vn 0.6779 -0.2759 0.6814
vn 0.2463 -0.2848 0.9264
vn 0.2128 -0.7002 0.6815
vn 0.5576 -0.6109 0.5621
vn 0.9492 0.1811 0.2572
vn 0.7187 0.6560 0.2306
vn 0.2518 0.9289 0.2716
vn 0.2186 0.6794 0.7004
vn 0.2643 0.2261 0.9375
vn 0.6965 0.1557 0.7005
vn 0.5923 0.5406 0.5974
vn -0.9480 0.1661 0.2716
vn -0.6965 0.1557 0.7005
vn -0.2493 0.2426 0.9375
vn -0.2187 0.6794 0.7004
vn -0.2670 0.9288 0.2571
vn -0.7187 0.6559 0.2308
vn -0.5923 0.5406 0.5974
vn -0.9617 -0.0881 -0.2597
vn -0.7042 -0.0645 -0.7071
vn -0.2576 -0.0236 -0.9660
vn -0.0000 0.2587 -0.9660
vn -0.0000 0.9657 -0.2597
vn 0.2576 -0.0236 -0.9660
vn 0.7042 -0.0645 -0.7071
vn 0.9617 -0.0881 -0.2597
vn -0.0000 -0.2587 -0.9660
vn -0.0000 -0.9657 -0.2597
vn -0.2576 -0.0236 0.9660
vn -0.7042 -0.0645 0.7071
vn -0.9617 -0.0881 0.2597
vn -0.0000 -0.9657 0.2597
vn -0.0000 -0.2587 0.9660
vn 0.9617 -0.0881 0.2597
vn 0.7042 -0.0645 0.7071
vn 0.2576 -0.0236 0.9660
vn -0.0000 0.9657 0.2597
vn -0.0000 0.2587 0.9660
vn -0.9317 -0.2646 -0.2490
vn -0.2490 -0.9317 -0.2646
vn -0.9317 0.2646 0.2490
vn -0.2490 0.9317 0.2646
vn -0.2646 0.2490 0.9317
vn -0.9317 -0.2490 0.2646
vn -0.2490 -0.2646 0.9317
vn -0.2646 -0.9317 0.2490
vn -0.2502 -0.9319 0.2625
vn -0.2166 -0.6903 0.6903
vn -0.2625 -0.2503 0.9319
vn -0.6903 -0.2166 0.6903
vn -0.9319 -0.2625 0.2503
vn -0.6903 -0.6903 0.2166
vn -0.5773 -0.5774 0.5773
vn -0.2503 0.2625 0.9319
vn -0.2166 0.6903 0.6903
vn -0.2625 0.9319 0.2502
vn -0.6903 0.6903 0.2166
vn -0.9319 0.2502 0.2625
vn -0.6903 0.2166 0.6903
vn -0.5773 0.5774 0.5773
vn -0.2625 -0.9319 -0.2503
vn -0.6903 -0.6903 -0.2166
vn -0.9319 -0.2502 -0.2625
vn -0.6903 -0.2166 -0.6903
vn -0.2503 -0.2625 -0.9319
vn -0.2166 -0.6903 -0.6903
vn -0.5773 -0.5774 -0.5773
vn -0.2502 0.9319 -0.2625
vn -0.2166 0.6903 -0.6903
vn -0.2625 0.2503 -0.9319
vn -0.6903 0.2166 -0.6903
vn -0.9319 0.2625 -0.2503
vn -0.6903 0.6903 -0.2166
vn -0.5773 0.5774 -0.5773
vn 0.2625 -0.9319 0.2502
vn 0.6903 -0.6903 0.2166
vn 0.9319 -0.2502 0.2625
vn 0.6903 -0.2166 0.6903
vn 0.2503 -0.2625 0.9319
vn 0.2166 -0.6903 0.6903
vn 0.5773 -0.5774 0.5773
vn 0.2502 0.9319 0.2625
vn 0.2166 0.6903 0.6903
vn 0.2625 0.2503 0.9319
vn 0.6903 0.2166 0.6903
vn 0.9319 0.2625 0.2503
vn 0.6903 0.6903 0.2166
vn 0.5773 0.5774 0.5773
vn 0.2502 -0.9319 -0.2625
vn 0.2166 -0.6903 -0.6903
vn 0.2625 -0.2503 -0.9319
vn 0.6903 -0.2166 -0.6903
vn 0.9319 -0.2625 -0.2503
vn 0.6903 -0.6903 -0.2166
vn 0.5773 -0.5774 -0.5773
vn 0.2625 0.9319 -0.2503
vn 0.6903 0.6903 -0.2166
vn 0.9319 0.2502 -0.2625
vn 0.6903 0.2166 -0.6903
vn 0.2503 0.2625 -0.9319
vn 0.2166 0.6903 -0.6903
vn 0.5773 0.5774 -0.5773
vn -0.2593 -0.9658 -0.0000
vn -0.9658 -0.2593 -0.0000
vn -0.2594 -0.0000 0.9658
vn -0.9658 -0.0000 0.2593
vn -0.2593 0.9658 -0.0000
vn -0.9658 0.2593 -0.0000
vn -0.2593 -0.0000 -0.9658
vn -0.9658 -0.0000 -0.2593
vn -0.0000 -0.9658 -0.2593
vn -0.0000 -0.2593 -0.9658
vn -0.0000 0.9658 -0.2593
vn -0.0000 0.2593 -0.9658
vn 0.9658 -0.0000 -0.2593
vn 0.2593 -0.0000 -0.9658
vn 0.2593 -0.9658 -0.0000
vn 0.9658 -0.2593 -0.0000
vn 0.2593 0.9658 -0.0000
vn 0.9658 0.2593 -0.0000
vn 0.2594 -0.0000 0.9658
vn 0.9658 -0.0000 0.2593
vn -0.0000 -0.9658 0.2593
vn -0.0000 -0.2593 0.9658
vn -0.0000 0.9658 0.2593
vn -0.0000 0.2593 0.9658
vn -0.5774 -0.5773 -0.5774
vn -0.5774 0.5773 -0.5774
vn 0.5774 -0.5773 -0.5774
vn 0.5774 0.5773 -0.5774
vn -0.5774 -0.5773 0.5774
vn -0.5774 0.5773 0.5774
vn 0.5774 -0.5773 0.5774
vn 0.5774 0.5773 0.5774
vn -0.2646 -0.2490 -0.9317
vn -0.2646 0.9317 -0.2490
vn -0.2490 0.2646 -0.9317
vn -0.9317 0.2490 -0.2646
vn 0.2490 -0.9317 0.2646
vn 0.9317 -0.2646 0.2490
vn 0.2646 -0.2490 0.9317
vn 0.2646 0.9317 0.2490
vn 0.2490 0.2646 0.9317
vn 0.9317 0.2490 0.2646
vn 0.2646 -0.9317 -0.2490
vn 0.2490 -0.2646 -0.9317
vn 0.9317 -0.2490 -0.2646
vn 0.2490 0.9317 -0.2646
vn 0.9317 0.2646 -0.2490
vn 0.2646 0.2490 -0.9317
vn -0.1567 0.9876 -0.0000
vn -0.0000 0.0028 -1.0000
vn 0.1576 0.9875 -0.0000
vn 0.4547 0.8907 -0.0000
vn -0.1563 -0.9877 -0.0000
vn 0.1563 -0.9877 -0.0000
vn 0.1567 -0.9876 -0.0000
vn 0.1567 0.9876 -0.0000
vn -0.1561 0.9877 -0.0000
vn -0.9078 -0.3398 -0.2458
vn -0.6778 -0.2758 -0.6815
vn -0.2611 -0.2713 -0.9264
vn -0.2415 -0.9348 -0.2603
vn -0.6588 -0.7220 -0.2115
vn 0.9089 -0.3257 -0.2605
vn 0.6588 -0.7220 -0.2114
vn 0.2554 -0.9350 -0.2459
vn 0.2463 -0.2848 -0.9264
vn 0.6778 -0.2759 -0.6815
vn 0.2518 0.9289 -0.2716
vn 0.7188 0.6559 -0.2306
vn 0.9492 0.1811 -0.2572
vn 0.6965 0.1557 -0.7004
vn 0.2643 0.2261 -0.9375
vn 0.2186 0.6795 -0.7004
vn -0.9480 0.1660 -0.2716
vn -0.7188 0.6558 -0.2307
vn -0.2670 0.9288 -0.2571
vn -0.2187 0.6795 -0.7004
vn -0.2493 0.2426 -0.9375
vn -0.6966 0.1557 -0.7004
vn -0.9089 -0.3257 0.2605
vn -0.6588 -0.7220 0.2114
vn -0.2554 -0.9350 0.2459
vn -0.2463 -0.2848 0.9264
vn -0.6778 -0.2759 0.6815
vn 0.2415 -0.9348 0.2603
vn 0.6588 -0.7220 0.2115
vn 0.9078 -0.3398 0.2458
vn 0.6778 -0.2758 0.6815
vn 0.2611 -0.2713 0.9264
vn 0.9480 0.1661 0.2716
vn 0.7188 0.6558 0.2307
vn 0.2670 0.9288 0.2571
vn 0.2187 0.6795 0.7004
vn 0.2493 0.2426 0.9375
vn 0.6966 0.1557 0.7004
vn -0.9492 0.1811 0.2572
vn -0.6965 0.1557 0.7004
vn -0.2643 0.2261 0.9375
vn -0.2186 0.6795 0.7004
vn -0.2518 0.9289 0.2716
vn -0.7188 0.6559 0.2306
vn -0.9616 -0.0881 -0.2599
vn -0.7041 -0.0645 -0.7071
vn -0.2577 -0.0236 -0.9659
vn 0.2577 -0.0236 -0.9659
vn 0.7041 -0.0645 -0.7071
vn 0.9616 -0.0881 -0.2599
vn -0.2577 -0.0236 0.9659
vn -0.7041 -0.0645 0.7071
vn -0.9616 -0.0881 0.2599
vn 0.9616 -0.0881 0.2599
vn 0.7041 -0.0645 0.7071
vn 0.2577 -0.0236 0.9659
vn -0.2625 -0.9319 0.2502
vn -0.2503 -0.2625 0.9319
vn -0.9319 -0.2502 0.2625
vn -0.2625 0.2503 0.9319
vn -0.2502 0.9319 0.2625
vn -0.9319 0.2625 0.2503
vn -0.2502 -0.9319 -0.2625
vn -0.9319 -0.2625 -0.2503
vn -0.2625 -0.2503 -0.9319
vn -0.2625 0.9319 -0.2503
vn -0.2503 0.2625 -0.9319
vn -0.9319 0.2502 -0.2625
vn 0.2502 -0.9319 0.2625
vn 0.9319 -0.2625 0.2503
vn 0.2625 -0.2503 0.9319
vn 0.2625 0.9319 0.2502
vn 0.2503 0.2625 0.9319
vn 0.9319 0.2502 0.2625
vn 0.2625 -0.9319 -0.2503
vn 0.2503 -0.2625 -0.9319
vn 0.9319 -0.2502 -0.2625
vn 0.2502 0.9319 -0.2625
vn 0.9319 0.2625 -0.2503
vn 0.2625 0.2503 -0.9319
vn -0.2594 -0.9658 -0.0000
vn -0.2594 0.9658 -0.0000
vn 0.2594 -0.9658 -0.0000
vn 0.2594 0.9658 -0.0000
vn -0.0000 -0.2594 0.9658
vn -0.0000 0.2594 0.9658
vn -0.0000 -0.0465 0.9989
s 0
usemtl ChassisMetal
f 1//1 6//1 5//1
f 4//2 9//2 6//2
f 2//3 9//3 8//3
f 7//4 12//4 9//4
f 3//5 12//5 11//5
f 10//6 6//6 12//6
f 6//7 9//7 12//7
f 13//8 18//8 17//8
f 16//9 21//9 18//9
f 14//10 21//10 20//10
f 19//11 24//11 21//11
f 15//12 24//12 23//12
f 22//13 18//13 24//13
f 18//14 21//14 24//14
f 25//15 30//15 29//15
f 28//16 33//16 30//16
f 26//17 33//17 32//17
f 31//18 36//18 33//18
f 27//19 36//19 35//19
f 34//20 30//20 36//20
f 30//21 33//21 36//21
f 37//22 42//22 41//22
f 40//23 45//23 42//23
f 38//24 45//24 44//24
f 43//25 48//25 45//25
f 39//26 48//26 47//26
f 46//27 42//27 48//27
f 42//28 45//28 48//28
f 49//29 54//29 53//29
f 52//30 57//30 54//30
f 50//31 57//31 56//31
f 55//32 60//32 57//32
f 51//33 60//33 59//33
f 58//34 54//34 60//34
f 54//35 57//35 60//35
f 61//36 66//36 65//36
f 64//37 69//37 66//37
f 62//38 69//38 68//38
f 67//39 72//39 69//39
f 63//40 72//40 71//40
f 70//41 66//41 72//41
f 66//42 69//42 72//42
f 73//43 78//43 77//43
f 76//44 81//44 78//44
f 74//45 81//45 80//45
f 79//46 84//46 81//46
f 75//47 84//47 83//47
f 82//48 78//48 84//48
f 78//49 81//49 84//49
f 85//50 90//50 89//50
f 88//51 93//51 90//51
f 86//52 93//52 92//52
f 91//53 96//53 93//53
f 87//54 96//54 95//54
f 94//55 90//55 96//55
f 90//56 93//56 96//56
f 25//57 5//57 28//57
f 28//58 10//58 32//58
f 32//59 3//59 26//59
f 2//60 17//60 7//60
f 7//61 22//61 11//61
f 11//62 15//62 3//62
f 14//63 41//63 19//63
f 19//64 46//64 23//64
f 23//65 39//65 15//65
f 38//66 35//66 43//66
f 43//67 31//67 47//67
f 47//68 26//68 39//68
f 73//69 29//69 76//69
f 76//70 34//70 80//70
f 80//71 27//71 74//71
f 37//72 89//72 40//72
f 40//73 94//73 44//73
f 44//74 87//74 38//74
f 86//75 83//75 91//75
f 91//76 79//76 95//76
f 95//77 74//77 87//77
f 49//78 77//78 52//78
f 52//79 82//79 56//79
f 56//80 75//80 50//80
f 85//81 65//81 88//81
f 88//82 70//82 92//82
f 92//83 63//83 86//83
f 62//84 59//84 67//84
f 67//85 55//85 71//85
f 71//86 50//86 63//86
f 1//87 53//87 4//87
f 4//88 58//88 8//88
f 8//89 51//89 2//89
f 61//90 20//90 64//90
f 64//91 16//91 68//91
f 68//92 13//92 62//92
f 25//93 49//93 1//93
f 3//94 39//94 26//94
f 13//95 150//95 152//95
f 195//95 13//95 191//95
f 153//95 117//95 149//95
f 51//95 115//95 2//95
f 85//96 14//96 61//96
f 160//97 38//97 219//97
f 38//97 207//97 206//97
f 177//97 137//97 171//97
f 126//97 27//97 526//97
f 75//98 63//98 50//98
f 109//99 137//99 131//99
f 116//100 131//100 129//100
f 116//58 136//58 110//58
f 110//101 133//101 114//101
f 114//102 132//102 112//102
f 112//103 135//103 111//103
f 111//104 134//104 113//104
f 113//64 128//64 106//64
f 130//105 106//105 128//105
f 115//106 107//106 130//106
f 123//107 126//107 526//107
f 124//108 101//108 123//108
f 98//82 124//82 120//82
f 99//109 120//109 118//109
f 97//110 118//110 119//110
f 100//111 119//111 121//111
f 105//112 121//112 127//112
f 104//79 127//79 122//79
f 102//113 122//113 125//113
f 117//114 125//114 137//114
f 140//99 166//99 175//99
f 147//100 175//100 180//100
f 142//58 180//58 178//58
f 173//101 142//101 178//101
f 145//102 172//102 143//102
f 143//103 174//103 144//103
f 141//104 174//104 179//104
f 181//64 141//64 179//64
f 177//105 146//105 181//105
f 170//115 139//115 177//115
f 167//116 149//116 148//116
f 165//117 154//117 153//117
f 163//82 158//82 165//82
f 151//109 163//109 161//109
f 150//110 161//110 160//110
f 152//111 160//111 164//111
f 157//112 164//112 162//112
f 159//79 162//79 169//79
f 155//113 169//113 168//113
f 138//114 168//114 166//114
f 195//118 207//118 217//118
f 192//100 217//100 210//100
f 192//58 215//58 199//58
f 199//101 213//101 201//101
f 201//102 211//102 198//102
f 198//103 212//103 202//103
f 202//104 214//104 200//104
f 200//64 209//64 197//64
f 216//105 197//105 209//105
f 205//115 194//115 216//115
f 208//119 189//119 205//119
f 218//108 196//108 208//108
f 222//82 185//82 218//82
f 183//109 222//109 223//109
f 182//110 223//110 219//110
f 184//111 219//111 221//111
f 186//112 221//112 220//112
f 203//79 186//79 220//79
f 190//113 203//113 204//113
f 191//114 204//114 206//114
f 224//1 229//1 228//1
f 227//2 232//2 229//2
f 225//3 232//3 231//3
f 230//4 235//4 232//4
f 226//5 235//5 234//5
f 233//6 229//6 235//6
f 229//7 232//7 235//7
f 236//8 241//8 240//8
f 239//9 244//9 241//9
f 237//10 244//10 243//10
f 242//11 247//11 244//11
f 238//12 247//12 246//12
f 245//13 241//13 247//13
f 241//14 244//14 247//14
f 248//15 253//15 252//15
f 251//16 256//16 253//16
f 249//17 256//17 255//17
f 254//18 259//18 256//18
f 250//19 259//19 258//19
f 257//20 253//20 259//20
f 253//21 256//21 259//21
f 260//22 265//22 264//22
f 263//23 268//23 265//23
f 261//24 268//24 267//24
f 266//25 271//25 268//25
f 262//26 271//26 270//26
f 269//27 265//27 271//27
f 265//28 268//28 271//28
f 272//29 277//29 276//29
f 275//30 280//30 277//30
f 273//31 280//31 279//31
f 278//32 283//32 280//32
f 274//33 283//33 282//33
f 281//34 277//34 283//34
f 277//35 280//35 283//35
f 284//36 289//36 288//36
f 287//37 292//37 289//37
f 285//38 292//38 291//38
f 290//39 295//39 292//39
f 286//40 295//40 294//40
f 293//41 289//41 295//41
f 289//42 292//42 295//42
f 296//43 301//43 300//43
f 299//44 304//44 301//44
f 297//45 304//45 303//45
f 302//46 307//46 304//46
f 298//47 307//47 306//47
f 305//48 301//48 307//48
f 301//49 304//49 307//49
f 308//50 313//50 312//50
f 311//51 316//51 313//51
f 309//52 316//52 315//52
f 314//53 319//53 316//53
f 310//54 319//54 318//54
f 317//55 313//55 319//55
f 313//56 316//56 319//56
f 248//57 228//57 251//57
f 251//58 233//58 255//58
f 255//59 226//59 249//59
f 225//60 240//60 230//60
f 230//61 245//61 234//61
f 234//62 238//62 226//62
f 237//63 264//63 242//63
f 242//64 269//64 246//64
f 246//65 262//65 238//65
f 261//66 258//66 266//66
f 266//67 254//67 270//67
f 270//68 249//68 262//68
f 296//69 252//69 299//69
f 299//70 257//70 303//70
f 303//71 250//71 297//71
f 260//72 312//72 263//72
f 263//73 317//73 267//73
f 267//74 310//74 261//74
f 309//75 306//75 314//75
f 314//76 302//76 318//76
f 318//77 297//77 310//77
f 272//78 300//78 275//78
f 275//79 305//79 279//79
f 279//80 298//80 273//80
f 308//81 288//81 311//81
f 311//82 293//82 315//82
f 315//83 286//83 309//83
f 285//84 282//84 290//84
f 290//85 278//85 294//85
f 294//86 273//86 286//86
f 224//87 276//87 227//87
f 227//88 281//88 231//88
f 231//89 274//89 225//89
f 284//90 243//90 287//90
f 287//91 239//91 291//91
f 291//92 236//92 285//92
f 248//93 272//93 224//93
f 226//94 262//94 249//94
f 236//95 373//95 375//95
f 418//95 236//95 414//95
f 376//95 339//95 372//95
f 274//95 337//95 225//95
f 308//96 237//96 284//96
f 383//97 261//97 442//97
f 261//97 430//97 429//97
f 400//97 360//97 394//97
f 349//97 250//97 346//97
f 298//98 286//98 273//98
f 331//99 360//99 354//99
f 338//100 354//100 352//100
f 338//58 359//58 332//58
f 332//101 356//101 336//101
f 336//102 355//102 334//102
f 334//103 358//103 333//103
f 333//104 357//104 335//104
f 335//64 351//64 329//64
f 353//105 329//105 351//105
f 337//115 330//115 353//115
f 346//120 324//120 349//120
f 347//108 324//108 345//108
f 321//82 347//82 342//82
f 322//109 342//109 340//109
f 320//110 340//110 341//110
f 323//111 341//111 343//111
f 328//112 343//112 350//112
f 327//79 350//79 344//79
f 325//113 344//113 348//113
f 339//114 348//114 360//114
f 363//99 389//99 398//99
f 370//100 398//100 403//100
f 365//58 403//58 401//58
f 396//101 365//101 401//101
f 368//102 395//102 366//102
f 366//103 397//103 367//103
f 364//104 397//104 402//104
f 404//64 364//64 402//64
f 400//105 369//105 404//105
f 394//121 371//121 400//121
f 390//116 372//116 371//116
f 388//117 377//117 376//117
f 386//82 381//82 388//82
f 374//109 386//109 384//109
f 373//110 384//110 383//110
f 375//111 383//111 387//111
f 380//112 387//112 385//112
f 382//79 385//79 392//79
f 378//113 392//113 391//113
f 361//114 391//114 389//114
f 418//118 430//118 440//118
f 415//100 440//100 433//100
f 415//58 438//58 422//58
f 422//101 436//101 424//101
f 424//102 434//102 421//102
f 421//103 435//103 425//103
f 425//104 437//104 423//104
f 423//64 432//64 420//64
f 439//105 420//105 432//105
f 428//115 417//115 439//115
f 431//119 412//119 428//119
f 441//108 419//108 431//108
f 445//82 408//82 441//82
f 406//109 445//109 446//109
f 405//110 446//110 442//110
f 407//111 442//111 444//111
f 409//112 444//112 443//112
f 426//79 409//79 443//79
f 413//113 426//113 427//113
f 414//114 427//114 429//114
f 31//18 35//18 36//18
f 26//198 31//198 33//198
f 28//16 32//16 33//16
f 25//199 28//199 30//199
f 22//13 17//13 18//13
f 15//200 22//200 24//200
f 19//11 23//11 24//11
f 14//201 19//201 21//201
f 16//9 20//9 21//9
f 13//202 16//202 18//202
f 10//6 5//6 6//6
f 3//203 10//203 12//203
f 7//4 11//4 12//4
f 2//204 7//204 9//204
f 4//2 8//2 9//2
f 1//205 4//205 6//205
f 27//294 34//294 36//294
f 34//20 29//20 30//20
f 37//295 40//295 42//295
f 40//23 44//23 45//23
f 38//296 43//296 45//296
f 43//25 47//25 48//25
f 39//297 46//297 48//297
f 46//27 41//27 42//27
f 49//298 52//298 54//298
f 52//30 56//30 57//30
f 50//299 55//299 57//299
f 55//32 59//32 60//32
f 51//300 58//300 60//300
f 58//34 53//34 54//34
f 61//301 64//301 66//301
f 64//37 68//37 69//37
f 62//302 67//302 69//302
f 67//39 71//39 72//39
f 63//303 70//303 72//303
f 70//41 65//41 66//41
f 73//304 76//304 78//304
f 76//44 80//44 81//44
f 74//305 79//305 81//305
f 79//46 83//46 84//46
f 75//306 82//306 84//306
f 82//48 77//48 78//48
f 85//307 88//307 90//307
f 88//51 92//51 93//51
f 86//308 91//308 93//308
f 91//53 95//53 96//53
f 87//309 94//309 96//309
f 94//55 89//55 90//55
f 25//57 1//57 5//57
f 28//58 5//58 10//58
f 32//59 10//59 3//59
f 2//60 13//60 17//60
f 7//61 17//61 22//61
f 11//62 22//62 15//62
f 14//63 37//63 41//63
f 19//64 41//64 46//64
f 23//65 46//65 39//65
f 38//66 27//66 35//66
f 43//67 35//67 31//67
f 47//68 31//68 26//68
f 73//69 25//69 29//69
f 76//70 29//70 34//70
f 80//71 34//71 27//71
f 37//72 85//72 89//72
f 40//73 89//73 94//73
f 44//74 94//74 87//74
f 86//75 75//75 83//75
f 91//76 83//76 79//76
f 95//77 79//77 74//77
f 49//78 73//78 77//78
f 52//79 77//79 82//79
f 56//80 82//80 75//80
f 85//81 61//81 65//81
f 88//82 65//82 70//82
f 92//83 70//83 63//83
f 62//84 51//84 59//84
f 67//85 59//85 55//85
f 71//86 55//86 50//86
f 1//87 49//87 53//87
f 4//88 53//88 58//88
f 8//89 58//89 51//89
f 61//90 14//90 20//90
f 64//91 20//91 16//91
f 68//92 16//92 13//92
f 25//93 73//93 49//93
f 3//94 15//94 39//94
f 108//95 107//95 51//95
f 62//95 195//95 193//95
f 62//95 193//95 192//95
f 106//95 108//95 51//95
f 113//95 106//95 51//95
f 62//95 192//95 199//95
f 62//95 199//95 201//95
f 111//95 113//95 51//95
f 112//95 111//95 51//95
f 62//95 201//95 198//95
f 51//95 62//95 198//95
f 51//95 198//95 202//95
f 51//95 202//95 200//95
f 51//95 200//95 197//95
f 149//95 109//95 116//95
f 148//95 149//95 116//95
f 148//95 116//95 110//95
f 139//95 148//95 110//95
f 139//95 110//95 114//95
f 146//95 139//95 114//95
f 146//95 114//95 112//95
f 141//95 146//95 112//95
f 190//95 191//95 13//95
f 2//95 115//95 101//95
f 2//95 101//95 103//95
f 188//95 190//95 13//95
f 186//95 188//95 13//95
f 2//95 103//95 98//95
f 2//95 98//95 99//95
f 184//95 186//95 13//95
f 182//95 184//95 13//95
f 2//95 99//95 97//95
f 13//95 2//95 97//95
f 13//95 97//95 100//95
f 13//95 100//95 105//95
f 13//95 105//95 104//95
f 102//95 117//95 154//95
f 141//95 112//95 51//95
f 144//95 141//95 51//95
f 104//95 102//95 154//95
f 104//95 154//95 158//95
f 143//95 144//95 51//95
f 143//95 51//95 197//95
f 143//95 197//95 194//95
f 145//95 143//95 194//95
f 145//95 194//95 189//95
f 142//95 145//95 189//95
f 142//95 189//95 196//95
f 147//95 142//95 196//95
f 147//95 196//95 185//95
f 140//95 147//95 185//95
f 140//95 185//95 187//95
f 138//95 140//95 187//95
f 138//95 187//95 183//95
f 155//95 138//95 183//95
f 155//95 183//95 182//95
f 159//95 155//95 182//95
f 104//95 158//95 156//95
f 104//95 156//95 151//95
f 159//95 182//95 13//95
f 157//95 159//95 13//95
f 104//95 151//95 150//95
f 152//95 157//95 13//95
f 13//95 104//95 150//95
f 195//95 62//95 13//95
f 153//95 154//95 117//95
f 117//95 109//95 149//95
f 51//95 107//95 115//95
f 85//96 37//96 14//96
f 217//97 207//97 87//97
f 74//97 126//97 130//97
f 74//97 130//97 128//97
f 210//97 217//97 87//97
f 215//97 210//97 87//97
f 74//97 128//97 134//97
f 74//97 134//97 135//97
f 213//97 215//97 87//97
f 211//97 213//97 87//97
f 74//97 135//97 132//97
f 87//97 74//97 132//97
f 87//97 132//97 133//97
f 87//97 133//97 136//97
f 87//97 136//97 129//97
f 131//97 137//97 176//97
f 38//97 206//97 204//97
f 123//97 526//97 27//97
f 124//97 123//97 27//97
f 38//97 204//97 203//97
f 38//97 203//97 220//97
f 120//97 124//97 27//97
f 118//97 120//97 27//97
f 38//97 220//97 221//97
f 38//97 221//97 219//97
f 119//97 118//97 27//97
f 119//97 27//97 38//97
f 121//97 119//97 38//97
f 127//97 121//97 38//97
f 122//97 127//97 38//97
f 171//97 125//97 122//97
f 170//97 171//97 122//97
f 129//97 131//97 176//97
f 129//97 176//97 181//97
f 167//97 170//97 122//97
f 165//97 167//97 122//97
f 129//97 181//97 179//97
f 129//97 179//97 174//97
f 163//97 165//97 122//97
f 161//97 163//97 122//97
f 129//97 174//97 172//97
f 87//97 129//97 172//97
f 211//97 87//97 172//97
f 211//97 172//97 173//97
f 212//97 211//97 173//97
f 212//97 173//97 178//97
f 214//97 212//97 178//97
f 214//97 178//97 180//97
f 209//97 214//97 180//97
f 209//97 180//97 175//97
f 216//97 209//97 175//97
f 216//97 175//97 166//97
f 205//97 216//97 166//97
f 205//97 166//97 168//97
f 208//97 205//97 168//97
f 208//97 168//97 169//97
f 218//97 208//97 169//97
f 218//97 169//97 162//97
f 222//97 218//97 162//97
f 222//97 162//97 164//97
f 223//97 222//97 164//97
f 160//97 161//97 122//97
f 223//97 164//97 160//97
f 219//97 223//97 160//97
f 160//97 122//97 38//97
f 38//97 87//97 207//97
f 177//97 176//97 137//97
f 137//97 125//97 171//97
f 126//97 74//97 27//97
f 75//98 86//98 63//98
f 109//99 117//99 137//99
f 116//100 109//100 131//100
f 116//58 129//58 136//58
f 110//101 136//101 133//101
f 114//102 133//102 132//102
f 112//103 132//103 135//103
f 111//104 135//104 134//104
f 113//64 134//64 128//64
f 130//105 108//105 106//105
f 130//115 126//115 115//115
f 107//310 108//310 130//310
f 123//119 101//119 115//119
f 124//108 103//108 101//108
f 98//82 103//82 124//82
f 99//109 98//109 120//109
f 97//110 99//110 118//110
f 100//111 97//111 119//111
f 105//112 100//112 121//112
f 104//79 105//79 127//79
f 102//113 104//113 122//113
f 117//114 102//114 125//114
f 140//99 138//99 166//99
f 147//100 140//100 175//100
f 142//58 147//58 180//58
f 173//101 145//101 142//101
f 145//102 173//102 172//102
f 143//103 172//103 174//103
f 141//104 144//104 174//104
f 181//64 146//64 141//64
f 181//311 176//311 177//311
f 177//105 139//105 146//105
f 177//97 171//97 170//97
f 170//115 148//115 139//115
f 148//119 170//119 167//119
f 167//312 153//312 149//312
f 153//108 167//108 165//108
f 165//313 158//313 154//313
f 163//82 156//82 158//82
f 151//109 156//109 163//109
f 150//110 151//110 161//110
f 152//111 150//111 160//111
f 157//112 152//112 164//112
f 159//79 157//79 162//79
f 155//113 159//113 169//113
f 138//114 155//114 168//114
f 217//99 193//99 195//99
f 195//314 206//314 207//314
f 192//100 193//100 217//100
f 192//58 210//58 215//58
f 199//101 215//101 213//101
f 201//102 213//102 211//102
f 198//103 211//103 212//103
f 202//104 212//104 214//104
f 200//64 214//64 209//64
f 216//105 194//105 197//105
f 205//115 189//115 194//115
f 208//119 196//119 189//119
f 218//108 185//108 196//108
f 222//82 187//82 185//82
f 183//109 187//109 222//109
f 182//110 183//110 223//110
f 184//111 182//111 219//111
f 186//112 184//112 221//112
f 203//79 188//79 186//79
f 190//113 188//113 203//113
f 206//315 195//315 191//315
f 191//316 190//316 204//316
f 224//205 227//205 229//205
f 227//2 231//2 232//2
f 225//204 230//204 232//204
f 230//4 234//4 235//4
f 226//203 233//203 235//203
f 233//6 228//6 229//6
f 236//202 239//202 241//202
f 239//9 243//9 244//9
f 237//201 242//201 244//201
f 242//11 246//11 247//11
f 238//200 245//200 247//200
f 245//13 240//13 241//13
f 248//199 251//199 253//199
f 251//16 255//16 256//16
f 249//198 254//198 256//198
f 254//18 258//18 259//18
f 250//294 257//294 259//294
f 257//20 252//20 253//20
f 260//295 263//295 265//295
f 263//23 267//23 268//23
f 261//296 266//296 268//296
f 266//25 270//25 271//25
f 262//297 269//297 271//297
f 269//27 264//27 265//27
f 272//298 275//298 277//298
f 275//30 279//30 280//30
f 273//299 278//299 280//299
f 278//32 282//32 283//32
f 274//300 281//300 283//300
f 281//34 276//34 277//34
f 284//301 287//301 289//301
f 287//37 291//37 292//37
f 285//302 290//302 292//302
f 290//39 294//39 295//39
f 286//303 293//303 295//303
f 293//41 288//41 289//41
f 296//304 299//304 301//304
f 299//44 303//44 304//44
f 297//305 302//305 304//305
f 302//46 306//46 307//46
f 298//306 305//306 307//306
f 305//48 300//48 301//48
f 308//307 311//307 313//307
f 311//51 315//51 316//51
f 309//308 314//308 316//308
f 314//53 318//53 319//53
f 310//309 317//309 319//309
f 317//55 312//55 313//55
f 248//57 224//57 228//57
f 251//58 228//58 233//58
f 255//59 233//59 226//59
f 225//60 236//60 240//60
f 230//61 240//61 245//61
f 234//62 245//62 238//62
f 237//63 260//63 264//63
f 242//64 264//64 269//64
f 246//65 269//65 262//65
f 261//66 250//66 258//66
f 266//67 258//67 254//67
f 270//68 254//68 249//68
f 296//69 248//69 252//69
f 299//70 252//70 257//70
f 303//71 257//71 250//71
f 260//72 308//72 312//72
f 263//73 312//73 317//73
f 267//74 317//74 310//74
f 309//75 298//75 306//75
f 314//76 306//76 302//76
f 318//77 302//77 297//77
f 272//78 296//78 300//78
f 275//79 300//79 305//79
f 279//80 305//80 298//80
f 308//81 284//81 288//81
f 311//82 288//82 293//82
f 315//83 293//83 286//83
f 285//84 274//84 282//84
f 290//85 282//85 278//85
f 294//86 278//86 273//86
f 224//87 272//87 276//87
f 227//88 276//88 281//88
f 231//89 281//89 274//89
f 284//90 237//90 243//90
f 287//91 243//91 239//91
f 291//92 239//92 236//92
f 248//93 296//93 272//93
f 226//94 238//94 262//94
f 330//95 521//95 274//95
f 285//95 418//95 416//95
f 285//95 416//95 415//95
f 329//95 330//95 274//95
f 335//95 329//95 274//95
f 285//95 415//95 422//95
f 285//95 422//95 424//95
f 333//95 335//95 274//95
f 334//95 333//95 274//95
f 285//95 424//95 421//95
f 274//95 285//95 421//95
f 274//95 421//95 425//95
f 274//95 425//95 423//95
f 274//95 423//95 420//95
f 372//95 331//95 338//95
f 371//95 372//95 338//95
f 371//95 338//95 332//95
f 362//95 371//95 332//95
f 362//95 332//95 336//95
f 369//95 362//95 336//95
f 369//95 336//95 334//95
f 364//95 369//95 334//95
f 413//95 414//95 236//95
f 225//95 337//95 324//95
f 225//95 324//95 326//95
f 411//95 413//95 236//95
f 409//95 411//95 236//95
f 225//95 326//95 321//95
f 225//95 321//95 322//95
f 407//95 409//95 236//95
f 405//95 407//95 236//95
f 225//95 322//95 320//95
f 236//95 225//95 320//95
f 236//95 320//95 323//95
f 236//95 323//95 328//95
f 236//95 328//95 327//95
f 325//95 339//95 377//95
f 364//95 334//95 274//95
f 367//95 364//95 274//95
f 327//95 325//95 377//95
f 327//95 377//95 381//95
f 366//95 367//95 274//95
f 366//95 274//95 420//95
f 366//95 420//95 417//95
f 368//95 366//95 417//95
f 368//95 417//95 412//95
f 365//95 368//95 412//95
f 365//95 412//95 419//95
f 370//95 365//95 419//95
f 370//95 419//95 408//95
f 363//95 370//95 408//95
f 363//95 408//95 410//95
f 361//95 363//95 410//95
f 361//95 410//95 406//95
f 378//95 361//95 406//95
f 378//95 406//95 405//95
f 382//95 378//95 405//95
f 327//95 381//95 379//95
f 327//95 379//95 374//95
f 382//95 405//95 236//95
f 380//95 382//95 236//95
f 327//95 374//95 373//95
f 375//95 380//95 236//95
f 236//95 327//95 373//95
f 418//95 285//95 236//95
f 376//95 377//95 339//95
f 339//95 331//95 372//95
f 274//95 521//95 337//95
f 308//96 260//96 237//96
f 440//97 430//97 310//97
f 297//97 349//97 353//97
f 297//97 353//97 351//97
f 433//97 440//97 310//97
f 438//97 433//97 310//97
f 297//97 351//97 357//97
f 297//97 357//97 358//97
f 436//97 438//97 310//97
f 434//97 436//97 310//97
f 297//97 358//97 355//97
f 310//97 297//97 355//97
f 310//97 355//97 356//97
f 310//97 356//97 359//97
f 310//97 359//97 352//97
f 354//97 360//97 399//97
f 261//97 429//97 427//97
f 345//97 346//97 250//97
f 347//97 345//97 250//97
f 261//97 427//97 426//97
f 261//97 426//97 443//97
f 342//97 347//97 250//97
f 340//97 342//97 250//97
f 261//97 443//97 444//97
f 261//97 444//97 442//97
f 341//97 340//97 250//97
f 341//97 250//97 261//97
f 343//97 341//97 261//97
f 350//97 343//97 261//97
f 344//97 350//97 261//97
f 394//97 348//97 344//97
f 393//97 394//97 344//97
f 352//97 354//97 399//97
f 352//97 399//97 404//97
f 390//97 393//97 344//97
f 388//97 390//97 344//97
f 352//97 404//97 402//97
f 352//97 402//97 397//97
f 386//97 388//97 344//97
f 384//97 386//97 344//97
f 352//97 397//97 395//97
f 310//97 352//97 395//97
f 434//97 310//97 395//97
f 434//97 395//97 396//97
f 435//97 434//97 396//97
f 435//97 396//97 401//97
f 437//97 435//97 401//97
f 437//97 401//97 403//97
f 432//97 437//97 403//97
f 432//97 403//97 398//97
f 439//97 432//97 398//97
f 439//97 398//97 389//97
f 428//97 439//97 389//97
f 428//97 389//97 391//97
f 431//97 428//97 391//97
f 431//97 391//97 392//97
f 441//97 431//97 392//97
f 441//97 392//97 385//97
f 445//97 441//97 385//97
f 445//97 385//97 387//97
f 446//97 445//97 387//97
f 383//97 384//97 344//97
f 446//97 387//97 383//97
f 442//97 446//97 383//97
f 383//97 344//97 261//97
f 261//97 310//97 430//97
f 400//97 399//97 360//97
f 360//97 348//97 394//97
f 349//97 297//97 250//97
f 298//98 309//98 286//98
f 331//99 339//99 360//99
f 338//100 331//100 354//100
f 338//58 352//58 359//58
f 332//101 359//101 356//101
f 336//102 356//102 355//102
f 334//103 355//103 358//103
f 333//104 358//104 357//104
f 335//64 357//64 351//64
f 353//105 330//105 329//105
f 353//115 349//115 337//115
f 346//317 345//317 324//317
f 324//119 337//119 349//119
f 347//108 326//108 324//108
f 321//82 326//82 347//82
f 322//109 321//109 342//109
f 320//110 322//110 340//110
f 323//111 320//111 341//111
f 328//112 323//112 343//112
f 327//79 328//79 350//79
f 325//113 327//113 344//113
f 339//114 325//114 348//114
f 363//99 361//99 389//99
f 370//100 363//100 398//100
f 365//58 370//58 403//58
f 396//101 368//101 365//101
f 368//102 396//102 395//102
f 366//103 395//103 397//103
f 364//104 367//104 397//104
f 404//64 369//64 364//64
f 404//311 399//311 400//311
f 400//105 362//105 369//105
f 394//318 393//318 371//318
f 371//115 362//115 400//115
f 371//119 393//119 390//119
f 390//312 376//312 372//312
f 376//108 390//108 388//108
f 388//313 381//313 377//313
f 386//82 379//82 381//82
f 374//109 379//109 386//109
f 373//110 374//110 384//110
f 375//111 373//111 383//111
f 380//112 375//112 387//112
f 382//79 380//79 385//79
f 378//113 382//113 392//113
f 361//114 378//114 391//114
f 440//99 416//99 418//99
f 418//314 429//314 430//314
f 415//100 416//100 440//100
f 415//58 433//58 438//58
f 422//101 438//101 436//101
f 424//102 436//102 434//102
f 421//103 434//103 435//103
f 425//104 435//104 437//104
f 423//64 437//64 432//64
f 439//105 417//105 420//105
f 428//115 412//115 417//115
f 431//119 419//119 412//119
f 441//108 408//108 419//108
f 445//82 410//82 408//82
f 406//109 410//109 445//109
f 405//110 406//110 446//110
f 407//111 405//111 442//111
f 409//112 407//112 444//112
f 426//79 411//79 409//79
f 413//113 411//113 426//113
f 429//315 418//315 414//315
f 414//316 413//316 427//316
f 337//405 521//405 330//405
f 123//119 115//119 126//119
usemtl Shell
f 447//122 452//122 451//122
f 450//123 455//123 452//123
f 448//124 455//124 454//124
f 453//125 458//125 455//125
f 449//126 458//126 457//126
f 456//127 452//127 458//127
f 452//128 455//128 458//128
f 459//129 464//129 463//129
f 462//130 467//130 464//130
f 460//131 467//131 466//131
f 465//132 470//132 467//132
f 461//133 470//133 469//133
f 468//134 464//134 470//134
f 464//135 467//135 470//135
f 471//136 476//136 475//136
f 474//137 479//137 476//137
f 472//138 479//138 478//138
f 477//139 482//139 479//139
f 473//140 482//140 481//140
f 480//141 476//141 482//141
f 476//142 479//142 482//142
f 483//143 488//143 487//143
f 486//144 491//144 488//144
f 484//145 491//145 490//145
f 489//146 494//146 491//146
f 485//147 494//147 493//147
f 492//148 488//148 494//148
f 488//149 491//149 494//149
f 447//150 497//150 496//150
f 451//151 499//151 497//151
f 449//152 499//152 456//152
f 498//153 502//153 499//153
f 495//154 502//154 501//154
f 500//155 497//155 502//155
f 497//156 499//156 502//156
f 460//157 505//157 504//157
f 466//158 507//158 505//158
f 459//159 507//159 462//159
f 506//160 510//160 507//160
f 503//161 510//161 509//161
f 508//162 505//162 510//162
f 505//163 507//163 510//163
f 472//164 513//164 512//164
f 478//165 515//165 513//165
f 471//166 515//166 474//166
f 514//167 518//167 515//167
f 511//168 518//168 517//168
f 516//169 513//169 518//169
f 513//170 515//170 518//170
f 483//171 522//171 486//171
f 520//172 525//172 522//172
f 519//173 525//173 524//173
f 523//174 528//174 525//174
f 484//175 528//175 527//175
f 490//176 522//176 528//176
f 522//177 525//177 528//177
f 447//178 487//178 450//178
f 450//179 492//179 454//179
f 454//180 485//180 448//180
f 473//181 493//181 480//181
f 480//73 489//73 475//73
f 475//182 484//182 471//182
f 461//183 481//183 468//183
f 468//184 477//184 463//184
f 463//185 472//185 459//185
f 448//186 469//186 453//186
f 453//70 465//70 457//70
f 457//187 460//187 449//187
f 495//188 524//188 500//188
f 500//189 520//189 496//189
f 496//190 483//190 447//190
f 449//191 504//191 498//191
f 498//88 508//88 501//88
f 501//192 503//192 495//192
f 459//193 512//193 506//193
f 506//194 516//194 509//194
f 509//195 511//195 503//195
f 471//196 527//196 514//196
f 514//91 523//91 517//91
f 517//197 519//197 511//197
f 485//97 461//97 448//97
f 495//95 511//95 519//95
f 447//319 450//319 452//319
f 450//320 454//320 455//320
f 448//321 453//321 455//321
f 453//125 457//125 458//125
f 449//322 456//322 458//322
f 456//323 451//323 452//323
f 459//324 462//324 464//324
f 462//325 466//325 467//325
f 460//326 465//326 467//326
f 465//132 469//132 470//132
f 461//327 468//327 470//327
f 468//328 463//328 464//328
f 471//329 474//329 476//329
f 474//330 478//330 479//330
f 472//331 477//331 479//331
f 477//332 481//332 482//332
f 473//333 480//333 482//333
f 480//334 475//334 476//334
f 483//335 486//335 488//335
f 486//336 490//336 491//336
f 484//337 489//337 491//337
f 489//338 493//338 494//338
f 485//339 492//339 494//339
f 492//340 487//340 488//340
f 447//341 451//341 497//341
f 451//342 456//342 499//342
f 449//343 498//343 499//343
f 498//153 501//153 502//153
f 495//344 500//344 502//344
f 500//345 496//345 497//345
f 460//346 466//346 505//346
f 466//347 462//347 507//347
f 459//348 506//348 507//348
f 506//349 509//349 510//349
f 503//350 508//350 510//350
f 508//162 504//162 505//162
f 472//351 478//351 513//351
f 478//352 474//352 515//352
f 471//353 514//353 515//353
f 514//354 517//354 518//354
f 511//355 516//355 518//355
f 516//356 512//356 513//356
f 483//357 520//357 522//357
f 520//358 524//358 525//358
f 519//359 523//359 525//359
f 523//360 527//360 528//360
f 484//361 490//361 528//361
f 490//362 486//362 522//362
f 447//363 483//363 487//363
f 450//364 487//364 492//364
f 454//365 492//365 485//365
f 473//181 485//181 493//181
f 480//73 493//73 489//73
f 475//182 489//182 484//182
f 461//366 473//366 481//366
f 468//367 481//367 477//367
f 463//368 477//368 472//368
f 448//186 461//186 469//186
f 453//70 469//70 465//70
f 457//187 465//187 460//187
f 495//369 519//369 524//369
f 500//370 524//370 520//370
f 496//371 520//371 483//371
f 449//191 460//191 504//191
f 498//88 504//88 508//88
f 501//192 508//192 503//192
f 459//372 472//372 512//372
f 506//373 512//373 516//373
f 509//374 516//374 511//374
f 471//196 484//196 527//196
f 514//91 527//91 523//91
f 517//197 523//197 519//197
f 485//97 473//97 461//97
f 495//95 503//95 511//95
usemtl DetailTeal
f 529//206 534//206 533//206
f 532//207 537//207 534//207
f 530//208 537//208 536//208
f 535//209 540//209 537//209
f 531//210 540//210 539//210
f 538//211 534//211 540//211
f 534//212 537//212 540//212
f 541//213 546//213 545//213
f 544//214 549//214 546//214
f 542//215 549//215 548//215
f 547//216 552//216 549//216
f 543//217 552//217 551//217
f 550//218 546//218 552//218
f 546//219 549//219 552//219
f 553//220 558//220 557//220
f 556//221 561//221 558//221
f 554//222 561//222 560//222
f 559//223 564//223 561//223
f 555//224 564//224 563//224
f 562//225 558//225 564//225
f 558//226 561//226 564//226
f 565//227 570//227 569//227
f 568//228 573//228 570//228
f 566//229 573//229 572//229
f 571//230 576//230 573//230
f 567//231 576//231 575//231
f 574//232 570//232 576//232
f 570//233 573//233 576//233
f 577//234 582//234 581//234
f 580//235 585//235 582//235
f 578//236 585//236 584//236
f 583//237 588//237 585//237
f 579//238 588//238 587//238
f 586//239 582//239 588//239
f 582//240 585//240 588//240
f 589//241 594//241 593//241
f 592//242 597//242 594//242
f 590//243 597//243 596//243
f 595//244 600//244 597//244
f 591//245 600//245 599//245
f 598//246 594//246 600//246
f 594//247 597//247 600//247
f 601//248 606//248 605//248
f 604//249 609//249 606//249
f 602//250 609//250 608//250
f 607//251 612//251 609//251
f 603//252 612//252 611//252
f 610//253 606//253 612//253
f 606//254 609//254 612//254
f 613//255 618//255 617//255
f 616//256 621//256 618//256
f 614//257 621//257 620//257
f 619//258 624//258 621//258
f 615//259 624//259 623//259
f 622//260 618//260 624//260
f 618//261 621//261 624//261
f 553//262 533//262 556//262
f 556//58 538//58 560//58
f 560//263 531//263 554//263
f 530//264 545//264 535//264
f 535//61 550//61 539//61
f 539//265 543//265 531//265
f 542//266 569//266 547//266
f 547//64 574//64 551//64
f 551//267 567//267 543//267
f 566//268 563//268 571//268
f 571//67 559//67 575//67
f 575//269 554//269 567//269
f 601//270 557//270 604//270
f 604//70 562//70 608//70
f 608//271 555//271 602//271
f 565//272 617//272 568//272
f 568//73 622//73 572//73
f 572//273 615//273 566//273
f 614//274 611//274 619//274
f 619//76 607//76 623//76
f 623//275 602//275 615//275
f 577//276 605//276 580//276
f 580//79 610//79 584//79
f 584//277 603//277 578//277
f 613//278 593//278 616//278
f 616//82 598//82 620//82
f 620//279 591//279 614//279
f 590//280 587//280 595//280
f 595//85 583//85 599//85
f 599//281 578//281 591//281
f 529//282 581//282 532//282
f 532//88 586//88 536//88
f 536//283 579//283 530//283
f 589//284 548//284 592//284
f 592//91 544//91 596//91
f 596//285 541//285 590//285
f 553//93 577//93 529//93
f 531//94 567//94 554//94
f 579//95 541//95 530//95
f 613//96 542//96 589//96
f 555//97 615//97 602//97
f 603//98 591//98 578//98
f 529//375 532//375 534//375
f 532//207 536//207 537//207
f 530//376 535//376 537//376
f 535//209 539//209 540//209
f 531//377 538//377 540//377
f 538//211 533//211 534//211
f 541//378 544//378 546//378
f 544//214 548//214 549//214
f 542//379 547//379 549//379
f 547//216 551//216 552//216
f 543//380 550//380 552//380
f 550//218 545//218 546//218
f 553//381 556//381 558//381
f 556//221 560//221 561//221
f 554//382 559//382 561//382
f 559//223 563//223 564//223
f 555//383 562//383 564//383
f 562//225 557//225 558//225
f 565//384 568//384 570//384
f 568//228 572//228 573//228
f 566//385 571//385 573//385
f 571//230 575//230 576//230
f 567//386 574//386 576//386
f 574//232 569//232 570//232
f 577//387 580//387 582//387
f 580//235 584//235 585//235
f 578//388 583//388 585//388
f 583//237 587//237 588//237
f 579//389 586//389 588//389
f 586//239 581//239 582//239
f 589//390 592//390 594//390
f 592//242 596//242 597//242
f 590//391 595//391 597//391
f 595//244 599//244 600//244
f 591//392 598//392 600//392
f 598//246 593//246 594//246
f 601//393 604//393 606//393
f 604//249 608//249 609//249
f 602//394 607//394 609//394
f 607//251 611//251 612//251
f 603//395 610//395 612//395
f 610//253 605//253 606//253
f 613//396 616//396 618//396
f 616//256 620//256 621//256
f 614//397 619//397 621//397
f 619//258 623//258 624//258
f 615//398 622//398 624//398
f 622//260 617//260 618//260
f 553//399 529//399 533//399
f 556//58 533//58 538//58
f 560//263 538//263 531//263
f 530//264 541//264 545//264
f 535//61 545//61 550//61
f 539//265 550//265 543//265
f 542//400 565//400 569//400
f 547//64 569//64 574//64
f 551//267 574//267 567//267
f 566//268 555//268 563//268
f 571//67 563//67 559//67
f 575//269 559//269 554//269
f 601//270 553//270 557//270
f 604//70 557//70 562//70
f 608//271 562//271 555//271
f 565//272 613//272 617//272
f 568//73 617//73 622//73
f 572//273 622//273 615//273
f 614//274 603//274 611//274
f 619//76 611//76 607//76
f 623//275 607//275 602//275
f 577//401 601//401 605//401
f 580//79 605//79 610//79
f 584//277 610//277 603//277
f 613//402 589//402 593//402
f 616//82 593//82 598//82
f 620//279 598//279 591//279
f 590//280 579//280 587//280
f 595//85 587//85 583//85
f 599//281 583//281 578//281
f 529//282 577//282 581//282
f 532//88 581//88 586//88
f 536//403 586//403 579//403
f 589//284 542//284 548//284
f 592//91 548//91 544//91
f 596//404 544//404 541//404
f 553//93 601//93 577//93
f 531//94 543//94 567//94
f 579//95 590//95 541//95
f 613//96 565//96 542//96
f 555//97 566//97 615//97
f 603//98 614//98 591//98
usemtl DetailGraphite
f 625//1 630//1 629//1
f 628//2 633//2 630//2
f 626//3 633//3 632//3
f 631//4 636//4 633//4
f 627//5 636//5 635//5
f 634//6 630//6 636//6
f 630//7 633//7 636//7
f 637//8 642//8 641//8
f 640//9 645//9 642//9
f 638//10 645//10 644//10
f 643//11 648//11 645//11
f 639//12 648//12 647//12
f 646//13 642//13 648//13
f 642//14 645//14 648//14
f 649//15 654//15 653//15
f 652//16 657//16 654//16
f 650//17 657//17 656//17
f 655//18 660//18 657//18
f 651//19 660//19 659//19
f 658//20 654//20 660//20
f 654//286 657//286 660//286
f 661//22 666//22 665//22
f 664//23 669//23 666//23
f 662//24 669//24 668//24
f 667//25 672//25 669//25
f 663//26 672//26 671//26
f 670//27 666//27 672//27
f 666//287 669//287 672//287
f 673//29 678//29 677//29
f 676//30 681//30 678//30
f 674//31 681//31 680//31
f 679//32 684//32 681//32
f 675//33 684//33 683//33
f 682//34 678//34 684//34
f 678//35 681//35 684//35
f 685//36 690//36 689//36
f 688//37 693//37 690//37
f 686//38 693//38 692//38
f 691//39 696//39 693//39
f 687//40 696//40 695//40
f 694//41 690//41 696//41
f 690//42 693//42 696//42
f 697//43 702//43 701//43
f 700//44 705//44 702//44
f 698//45 705//45 704//45
f 703//46 708//46 705//46
f 699//47 708//47 707//47
f 706//48 702//48 708//48
f 702//288 705//288 708//288
f 709//50 714//50 713//50
f 712//51 717//51 714//51
f 710//52 717//52 716//52
f 715//53 720//53 717//53
f 711//54 720//54 719//54
f 718//55 714//55 720//55
f 714//289 717//289 720//289
f 649//57 629//57 652//57
f 652//58 634//58 656//58
f 656//59 627//59 650//59
f 626//60 641//60 631//60
f 631//61 646//61 635//61
f 635//62 639//62 627//62
f 638//63 665//63 643//63
f 643//64 670//64 647//64
f 647//65 663//65 639//65
f 662//66 659//66 667//66
f 667//67 655//67 671//67
f 671//68 650//68 663//68
f 697//69 653//69 700//69
f 700//70 658//70 704//70
f 704//71 651//71 698//71
f 661//72 713//72 664//72
f 664//73 718//73 668//73
f 668//74 711//74 662//74
f 710//75 707//75 715//75
f 715//76 703//76 719//76
f 719//77 698//77 711//77
f 673//78 701//78 676//78
f 676//79 706//79 680//79
f 680//80 699//80 674//80
f 709//81 689//81 712//81
f 712//82 694//82 716//82
f 716//83 687//83 710//83
f 686//84 683//84 691//84
f 691//85 679//85 695//85
f 695//86 674//86 687//86
f 625//87 677//87 628//87
f 628//88 682//88 632//88
f 632//89 675//89 626//89
f 685//90 644//90 688//90
f 688//91 640//91 692//91
f 692//92 637//92 686//92
f 649//93 673//93 625//93
f 627//94 663//94 650//94
f 675//95 637//95 626//95
f 709//96 638//96 685//96
f 651//97 711//97 698//97
f 699//98 687//98 674//98
f 625//205 628//205 630//205
f 628//2 632//2 633//2
f 626//204 631//204 633//204
f 631//4 635//4 636//4
f 627//203 634//203 636//203
f 634//6 629//6 630//6
f 637//202 640//202 642//202
f 640//9 644//9 645//9
f 638//201 643//201 645//201
f 643//11 647//11 648//11
f 639//200 646//200 648//200
f 646//13 641//13 642//13
f 649//199 652//199 654//199
f 652//16 656//16 657//16
f 650//198 655//198 657//198
f 655//18 659//18 660//18
f 651//294 658//294 660//294
f 658//20 653//20 654//20
f 661//295 664//295 666//295
f 664//23 668//23 669//23
f 662//296 667//296 669//296
f 667//25 671//25 672//25
f 663//297 670//297 672//297
f 670//27 665//27 666//27
f 673//298 676//298 678//298
f 676//30 680//30 681//30
f 674//299 679//299 681//299
f 679//32 683//32 684//32
f 675//300 682//300 684//300
f 682//34 677//34 678//34
f 685//301 688//301 690//301
f 688//37 692//37 693//37
f 686//302 691//302 693//302
f 691//39 695//39 696//39
f 687//303 694//303 696//303
f 694//41 689//41 690//41
f 697//304 700//304 702//304
f 700//44 704//44 705//44
f 698//305 703//305 705//305
f 703//46 707//46 708//46
f 699//306 706//306 708//306
f 706//48 701//48 702//48
f 709//307 712//307 714//307
f 712//51 716//51 717//51
f 710//308 715//308 717//308
f 715//53 719//53 720//53
f 711//309 718//309 720//309
f 718//55 713//55 714//55
f 649//57 625//57 629//57
f 652//58 629//58 634//58
f 656//59 634//59 627//59
f 626//60 637//60 641//60
f 631//61 641//61 646//61
f 635//62 646//62 639//62
f 638//63 661//63 665//63
f 643//64 665//64 670//64
f 647//65 670//65 663//65
f 662//66 651//66 659//66
f 667//67 659//67 655//67
f 671//68 655//68 650//68
f 697//69 649//69 653//69
f 700//70 653//70 658//70
f 704//71 658//71 651//71
f 661//72 709//72 713//72
f 664//73 713//73 718//73
f 668//74 718//74 711//74
f 710//75 699//75 707//75
f 715//76 707//76 703//76
f 719//77 703//77 698//77
f 673//78 697//78 701//78
f 676//79 701//79 706//79
f 680//80 706//80 699//80
f 709//81 685//81 689//81
f 712//82 689//82 694//82
f 716//83 694//83 687//83
f 686//84 675//84 683//84
f 691//85 683//85 679//85
f 695//86 679//86 674//86
f 625//87 673//87 677//87
f 628//88 677//88 682//88
f 632//89 682//89 675//89
f 685//90 638//90 644//90
f 688//91 644//91 640//91
f 692//92 640//92 637//92
f 649//93 697//93 673//93
f 627//94 639//94 663//94
f 675//95 686//95 637//95
f 709//96 661//96 638//96
f 651//97 662//97 711//97
f 699//98 710//98 687//98
usemtl BracketMetal
f 721//1 726//1 725//1
f 724//2 729//2 726//2
f 722//3 729//3 728//3
f 727//4 732//4 729//4
f 723//5 732//5 731//5
f 730//6 726//6 732//6
f 726//290 729//290 732//290
f 733//8 738//8 737//8
f 736//9 741//9 738//9
f 734//10 741//10 740//10
f 739//11 744//11 741//11
f 735//12 744//12 743//12
f 742//13 738//13 744//13
f 738//291 741//291 744//291
f 745//15 750//15 749//15
f 748//16 753//16 750//16
f 746//17 753//17 752//17
f 751//18 756//18 753//18
f 747//19 756//19 755//19
f 754//20 750//20 756//20
f 750//286 753//286 756//286
f 757//22 762//22 761//22
f 760//23 765//23 762//23
f 758//24 765//24 764//24
f 763//25 768//25 765//25
f 759//26 768//26 767//26
f 766//27 762//27 768//27
f 762//287 765//287 768//287
f 769//29 774//29 773//29
f 772//30 777//30 774//30
f 770//31 777//31 776//31
f 775//32 780//32 777//32
f 771//33 780//33 779//33
f 778//34 774//34 780//34
f 774//292 777//292 780//292
f 781//36 786//36 785//36
f 784//37 789//37 786//37
f 782//38 789//38 788//38
f 787//39 792//39 789//39
f 783//40 792//40 791//40
f 790//41 786//41 792//41
f 786//293 789//293 792//293
f 793//43 798//43 797//43
f 796//44 801//44 798//44
f 794//45 801//45 800//45
f 799//46 804//46 801//46
f 795//47 804//47 803//47
f 802//48 798//48 804//48
f 798//288 801//288 804//288
f 805//50 810//50 809//50
f 808//51 813//51 810//51
f 806//52 813//52 812//52
f 811//53 816//53 813//53
f 807//54 816//54 815//54
f 814//55 810//55 816//55
f 810//289 813//289 816//289
f 745//57 725//57 748//57
f 748//58 730//58 752//58
f 752//59 723//59 746//59
f 722//60 737//60 727//60
f 727//61 742//61 731//61
f 731//62 735//62 723//62
f 734//63 761//63 739//63
f 739//64 766//64 743//64
f 743//65 759//65 735//65
f 758//66 755//66 763//66
f 763//67 751//67 767//67
f 767//68 746//68 759//68
f 793//69 749//69 796//69
f 796//70 754//70 800//70
f 800//71 747//71 794//71
f 757//72 809//72 760//72
f 760//73 814//73 764//73
f 764//74 807//74 758//74
f 806//75 803//75 811//75
f 811//76 799//76 815//76
f 815//77 794//77 807//77
f 769//78 797//78 772//78
f 772//79 802//79 776//79
f 776//80 795//80 770//80
f 805//81 785//81 808//81
f 808//82 790//82 812//82
f 812//83 783//83 806//83
f 782//84 779//84 787//84
f 787//85 775//85 791//85
f 791//86 770//86 783//86
f 721//87 773//87 724//87
f 724//88 778//88 728//88
f 728//89 771//89 722//89
f 781//90 740//90 784//90
f 784//91 736//91 788//91
f 788//92 733//92 782//92
f 745//93 769//93 721//93
f 723//94 759//94 746//94
f 771//95 733//95 722//95
f 805//96 734//96 781//96
f 747//97 807//97 794//97
f 795//98 783//98 770//98
f 817//1 822//1 821//1
f 820//2 825//2 822//2
f 818//3 825//3 824//3
f 823//4 828//4 825//4
f 819//5 828//5 827//5
f 826//6 822//6 828//6
f 822//290 825//290 828//290
f 829//8 834//8 833//8
f 832//9 837//9 834//9
f 830//10 837//10 836//10
f 835//11 840//11 837//11
f 831//12 840//12 839//12
f 838//13 834//13 840//13
f 834//291 837//291 840//291
f 841//15 846//15 845//15
f 844//16 849//16 846//16
f 842//17 849//17 848//17
f 847//18 852//18 849//18
f 843//19 852//19 851//19
f 850//20 846//20 852//20
f 846//286 849//286 852//286
f 853//22 858//22 857//22
f 856//23 861//23 858//23
f 854//24 861//24 860//24
f 859//25 864//25 861//25
f 855//26 864//26 863//26
f 862//27 858//27 864//27
f 858//287 861//287 864//287
f 865//29 870//29 869//29
f 868//30 873//30 870//30
f 866//31 873//31 872//31
f 871//32 876//32 873//32
f 867//33 876//33 875//33
f 874//34 870//34 876//34
f 870//292 873//292 876//292
f 877//36 882//36 881//36
f 880//37 885//37 882//37
f 878//38 885//38 884//38
f 883//39 888//39 885//39
f 879//40 888//40 887//40
f 886//41 882//41 888//41
f 882//293 885//293 888//293
f 889//43 894//43 893//43
f 892//44 897//44 894//44
f 890//45 897//45 896//45
f 895//46 900//46 897//46
f 891//47 900//47 899//47
f 898//48 894//48 900//48
f 894//288 897//288 900//288
f 901//50 906//50 905//50
f 904//51 909//51 906//51
f 902//52 909//52 908//52
f 907//53 912//53 909//53
f 903//54 912//54 911//54
f 910//55 906//55 912//55
f 906//289 909//289 912//289
f 841//57 821//57 844//57
f 844//58 826//58 848//58
f 848//59 819//59 842//59
f 818//60 833//60 823//60
f 823//61 838//61 827//61
f 827//62 831//62 819//62
f 830//63 857//63 835//63
f 835//64 862//64 839//64
f 839//65 855//65 831//65
f 854//66 851//66 859//66
f 859//67 847//67 863//67
f 863//68 842//68 855//68
f 889//69 845//69 892//69
f 892//70 850//70 896//70
f 896//71 843//71 890//71
f 853//72 905//72 856//72
f 856//73 910//73 860//73
f 860//74 903//74 854//74
f 902//75 899//75 907//75
f 907//76 895//76 911//76
f 911//77 890//77 903//77
f 865//78 893//78 868//78
f 868//79 898//79 872//79
f 872//80 891//80 866//80
f 901//81 881//81 904//81
f 904//82 886//82 908//82
f 908//83 879//83 902//83
f 878//84 875//84 883//84
f 883//85 871//85 887//85
f 887//86 866//86 879//86
f 817//87 869//87 820//87
f 820//88 874//88 824//88
f 824//89 867//89 818//89
f 877//90 836//90 880//90
f 880//91 832//91 884//91
f 884//92 829//92 878//92
f 841//93 865//93 817//93
f 819//94 855//94 842//94
f 867//95 829//95 818//95
f 901//96 830//96 877//96
f 843//97 903//97 890//97
f 891//98 879//98 866//98
f 721//205 724//205 726//205
f 724//2 728//2 729//2
f 722//204 727//204 729//204
f 727//4 731//4 732//4
f 723//203 730//203 732//203
f 730//6 725//6 726//6
f 733//202 736//202 738//202
f 736//9 740//9 741//9
f 734//201 739//201 741//201
f 739//11 743//11 744//11
f 735//200 742//200 744//200
f 742//13 737//13 738//13
f 745//199 748//199 750//199
f 748//16 752//16 753//16
f 746//198 751//198 753//198
f 751//18 755//18 756//18
f 747//294 754//294 756//294
f 754//20 749//20 750//20
f 757//295 760//295 762//295
f 760//23 764//23 765//23
f 758//296 763//296 765//296
f 763//25 767//25 768//25
f 759//297 766//297 768//297
f 766//27 761//27 762//27
f 769//298 772//298 774//298
f 772//30 776//30 777//30
f 770//299 775//299 777//299
f 775//32 779//32 780//32
f 771//300 778//300 780//300
f 778//34 773//34 774//34
f 781//301 784//301 786//301
f 784//37 788//37 789//37
f 782//302 787//302 789//302
f 787//39 791//39 792//39
f 783//303 790//303 792//303
f 790//41 785//41 786//41
f 793//304 796//304 798//304
f 796//44 800//44 801//44
f 794//305 799//305 801//305
f 799//46 803//46 804//46
f 795//306 802//306 804//306
f 802//48 797//48 798//48
f 805//307 808//307 810//307
f 808//51 812//51 813//51
f 806//308 811//308 813//308
f 811//53 815//53 816//53
f 807//309 814//309 816//309
f 814//55 809//55 810//55
f 745//57 721//57 725//57
f 748//58 725//58 730//58
f 752//59 730//59 723//59
f 722//60 733//60 737//60
f 727//61 737//61 742//61
f 731//62 742//62 735//62
f 734//63 757//63 761//63
f 739//64 761//64 766//64
f 743//65 766//65 759//65
f 758//66 747//66 755//66
f 763//67 755//67 751//67
f 767//68 751//68 746//68
f 793//69 745//69 749//69
f 796//70 749//70 754//70
f 800//71 754//71 747//71
f 757//72 805//72 809//72
f 760//73 809//73 814//73
f 764//74 814//74 807//74
f 806//75 795//75 803//75
f 811//76 803//76 799//76
f 815//77 799//77 794//77
f 769//78 793//78 797//78
f 772//79 797//79 802//79
f 776//80 802//80 795//80
f 805//81 781//81 785//81
f 808//82 785//82 790//82
f 812//83 790//83 783//83
f 782//84 771//84 779//84
f 787//85 779//85 775//85
f 791//86 775//86 770//86
f 721//87 769//87 773//87
f 724//88 773//88 778//88
f 728//89 778//89 771//89
f 781//90 734//90 740//90
f 784//91 740//91 736//91
f 788//92 736//92 733//92
f 745//93 793//93 769//93
f 723//94 735//94 759//94
f 771//95 782//95 733//95
f 805//96 757//96 734//96
f 747//97 758//97 807//97
f 795//98 806//98 783//98
f 817//205 820//205 822//205
f 820//2 824//2 825//2
f 818//204 823//204 825//204
f 823//4 827//4 828//4
f 819//203 826//203 828//203
f 826//6 821//6 822//6
f 829//202 832//202 834//202
f 832//9 836//9 837//9
f 830//201 835//201 837//201
f 835//11 839//11 840//11
f 831//200 838//200 840//200
f 838//13 833//13 834//13
f 841//199 844//199 846//199
f 844//16 848//16 849//16
f 842//198 847//198 849//198
f 847//18 851//18 852//18
f 843//294 850//294 852//294
f 850//20 845//20 846//20
f 853//295 856//295 858//295
f 856//23 860//23 861//23
f 854//296 859//296 861//296
f 859//25 863//25 864//25
f 855//297 862//297 864//297
f 862//27 857//27 858//27
f 865//298 868//298 870//298
f 868//30 872//30 873//30
f 866//299 871//299 873//299
f 871//32 875//32 876//32
f 867//300 874//300 876//300
f 874//34 869//34 870//34
f 877//301 880//301 882//301
f 880//37 884//37 885//37
f 878//302 883//302 885//302
f 883//39 887//39 888//39
f 879//303 886//303 888//303
f 886//41 881//41 882//41
f 889//304 892//304 894//304
f 892//44 896//44 897//44
f 890//305 895//305 897//305
f 895//46 899//46 900//46
f 891//306 898//306 900//306
f 898//48 893//48 894//48
f 901//307 904//307 906//307
f 904//51 908//51 909//51
f 902//308 907//308 909//308
f 907//53 911//53 912//53
f 903//309 910//309 912//309
f 910//55 905//55 906//55
f 841//57 817//57 821//57
f 844//58 821//58 826//58
f 848//59 826//59 819//59
f 818//60 829//60 833//60
f 823//61 833//61 838//61
f 827//62 838//62 831//62
f 830//63 853//63 857//63
f 835//64 857//64 862//64
f 839//65 862//65 855//65
f 854//66 843//66 851//66
f 859//67 851//67 847//67
f 863//68 847//68 842//68
f 889//69 841//69 845//69
f 892//70 845//70 850//70
f 896//71 850//71 843//71
f 853//72 901//72 905//72
f 856//73 905//73 910//73
f 860//74 910//74 903//74
f 902//75 891//75 899//75
f 907//76 899//76 895//76
f 911//77 895//77 890//77
f 865//78 889//78 893//78
f 868//79 893//79 898//79
f 872//80 898//80 891//80
f 901//81 877//81 881//81
f 904//82 881//82 886//82
f 908//83 886//83 879//83
f 878//84 867//84 875//84
f 883//85 875//85 871//85
f 887//86 871//86 866//86
f 817//87 865//87 869//87
f 820//88 869//88 874//88
f 824//89 874//89 867//89
f 877//90 830//90 836//90
f 880//91 836//91 832//91
f 884//92 832//92 829//92
f 841//93 889//93 865//93
f 819//94 831//94 855//94
f 867//95 878//95 829//95
f 901//96 853//96 830//96
f 843//97 854//97 903//97
f 891//98 902//98 879//98
