# Blender 5.2.1 LTS
# www.blender.org
mtllib modular_arm_bracket.mtl
o modular_arm_bracket
v -0.027000 -0.036000 0.018000
v -0.027000 -0.034000 0.020000
v -0.029000 -0.034000 0.018000
v -0.027000 -0.035733 0.018999
v -0.027999 -0.035733 0.018000
v -0.027956 -0.035473 0.018956
v -0.027999 -0.034000 0.019733
v -0.027000 -0.034999 0.019733
v -0.027956 -0.034956 0.019473
v -0.028733 -0.034999 0.018000
v -0.028733 -0.034000 0.018999
v -0.028473 -0.034956 0.018956
v -0.027000 -0.030000 0.020000
v -0.027000 -0.028000 0.018000
v -0.029000 -0.030000 0.018000
v -0.027000 -0.029001 0.019733
v -0.027999 -0.030000 0.019733
v -0.027956 -0.029044 0.019473
v -0.027999 -0.028267 0.018000
v -0.027000 -0.028267 0.018999
v -0.027956 -0.028527 0.018956
v -0.028733 -0.030000 0.018999
v -0.028733 -0.029001 0.018000
v -0.028473 -0.029044 0.018956
v -0.027000 -0.036000 -0.018000
v -0.029000 -0.034000 -0.018000
v -0.027000 -0.034000 -0.020000
v -0.027999 -0.035733 -0.018000
v -0.027000 -0.035733 -0.018999
v -0.027956 -0.035473 -0.018956
v -0.028733 -0.034000 -0.018999
v -0.028733 -0.034999 -0.018000
v -0.028473 -0.034956 -0.018956
v -0.027000 -0.034999 -0.019733
v -0.027999 -0.034000 -0.019733
v -0.027956 -0.034956 -0.019473
v -0.027000 -0.028000 -0.018000
v -0.027000 -0.030000 -0.020000
v -0.029000 -0.030000 -0.018000
v -0.027000 -0.028267 -0.018999
v -0.027999 -0.028267 -0.018000
v -0.027956 -0.028527 -0.018956
v -0.027999 -0.030000 -0.019733
v -0.027000 -0.029001 -0.019733
v -0.027956 -0.029044 -0.019473
v -0.028733 -0.029001 -0.018000
v -0.028733 -0.030000 -0.018999
v -0.028473 -0.029044 -0.018956
v 0.027000 -0.036000 0.018000
v 0.029000 -0.034000 0.018000
v 0.027000 -0.034000 0.020000
v 0.027999 -0.035733 0.018000
v 0.027000 -0.035733 0.018999
v 0.027956 -0.035473 0.018956
v 0.028733 -0.034000 0.018999
v 0.028733 -0.034999 0.018000
v 0.028473 -0.034956 0.018956
v 0.027000 -0.034999 0.019733
v 0.027999 -0.034000 0.019733
v 0.027956 -0.034956 0.019473
v 0.027000 -0.028000 0.018000
v 0.027000 -0.030000 0.020000
v 0.029000 -0.030000 0.018000
v 0.027000 -0.028267 0.018999
v 0.027999 -0.028267 0.018000
v 0.027956 -0.028527 0.018956
v 0.027999 -0.030000 0.019733
v 0.027000 -0.029001 0.019733
v 0.027956 -0.029044 0.019473
v 0.028733 -0.029001 0.018000
v 0.028733 -0.030000 0.018999
v 0.028473 -0.029044 0.018956
v 0.027000 -0.036000 -0.018000
v 0.027000 -0.034000 -0.020000
v 0.029000 -0.034000 -0.018000
v 0.027000 -0.035733 -0.018999
v 0.027999 -0.035733 -0.018000
v 0.027956 -0.035473 -0.018956
v 0.027999 -0.034000 -0.019733
v 0.027000 -0.034999 -0.019733
v 0.027956 -0.034956 -0.019473
v 0.028733 -0.034999 -0.018000
v 0.028733 -0.034000 -0.018999
v 0.028473 -0.034956 -0.018956
v 0.027000 -0.028000 -0.018000
v 0.029000 -0.030000 -0.018000
v 0.027000 -0.030000 -0.020000
v 0.027999 -0.028267 -0.018000
v 0.027000 -0.028267 -0.018999
v 0.027956 -0.028527 -0.018956
v 0.028733 -0.030000 -0.018999
v 0.028733 -0.029001 -0.018000
v 0.028473 -0.029044 -0.018956
v 0.027000 -0.029001 -0.019733
v 0.027999 -0.030000 -0.019733
v 0.027956 -0.029044 -0.019473
v -0.030500 -0.047000 0.020000
v -0.030500 -0.045000 0.022000
v -0.032500 -0.045000 0.020000
v -0.030500 -0.046733 0.020999
v -0.031499 -0.046733 0.020000
v -0.031456 -0.046473 0.020956
v -0.031499 -0.045000 0.021733
v -0.030500 -0.045999 0.021733
v -0.031456 -0.045956 0.021473
v -0.032233 -0.045999 0.020000
v -0.032233 -0.045000 0.020999
v -0.031973 -0.045956 0.020956
v -0.030500 0.013000 0.022000
v -0.030500 0.015000 0.020000
v -0.032500 0.013000 0.020000
v -0.030500 0.013999 0.021733
v -0.031499 0.013000 0.021733
v -0.031456 0.013956 0.021473
v -0.031499 0.014733 0.020000
v -0.030500 0.014733 0.020999
v -0.031456 0.014473 0.020956
v -0.032233 0.013000 0.020999
v -0.032233 0.013999 0.020000
v -0.031973 0.013956 0.020956
v -0.030500 -0.047000 -0.020000
v -0.032500 -0.045000 -0.020000
v -0.030500 -0.045000 -0.022000
v -0.031499 -0.046733 -0.020000
v -0.030500 -0.046733 -0.020999
v -0.031456 -0.046473 -0.020956
v -0.032233 -0.045000 -0.020999
v -0.032233 -0.045999 -0.020000
v -0.031973 -0.045956 -0.020956
v -0.030500 -0.045999 -0.021733
v -0.031499 -0.045000 -0.021733
v -0.031456 -0.045956 -0.021473
v -0.030500 0.015000 -0.020000
v -0.030500 0.013000 -0.022000
v -0.032500 0.013000 -0.020000
v -0.030500 0.014733 -0.020999
v -0.031499 0.014733 -0.020000
v -0.031456 0.014473 -0.020956
v -0.031499 0.013000 -0.021733
v -0.030500 0.013999 -0.021733
v -0.031456 0.013956 -0.021473
v -0.032233 0.013999 -0.020000
v -0.032233 0.013000 -0.020999
v -0.031973 0.013956 -0.020956
v -0.027500 -0.047000 0.020000
v -0.025500 -0.045000 0.020000
v -0.027500 -0.045000 0.022000
v -0.026501 -0.046733 0.020000
v -0.027500 -0.046733 0.020999
v -0.026544 -0.046473 0.020956
v -0.025767 -0.045000 0.020999
v -0.025767 -0.045999 0.020000
v -0.026027 -0.045956 0.020956
v -0.027500 -0.045999 0.021733
v -0.026501 -0.045000 0.021733
v -0.026544 -0.045956 0.021473
v -0.027500 0.015000 0.020000
v -0.027500 0.013000 0.022000
v -0.025500 0.013000 0.020000
v -0.027500 0.014733 0.020999
v -0.026501 0.014733 0.020000
v -0.026544 0.014473 0.020956
v -0.026501 0.013000 0.021733
v -0.027500 0.013999 0.021733
v -0.026544 0.013956 0.021473
v -0.025767 0.013999 0.020000
v -0.025767 0.013000 0.020999
v -0.026027 0.013956 0.020956
v -0.027500 -0.047000 -0.020000
v -0.027500 -0.045000 -0.022000
v -0.025500 -0.045000 -0.020000
v -0.027500 -0.046733 -0.020999
v -0.026501 -0.046733 -0.020000
v -0.026544 -0.046473 -0.020956
v -0.026501 -0.045000 -0.021733
v -0.027500 -0.045999 -0.021733
v -0.026544 -0.045956 -0.021473
v -0.025767 -0.045999 -0.020000
v -0.025767 -0.045000 -0.020999
v -0.026027 -0.045956 -0.020956
v -0.027500 0.015000 -0.020000
v -0.025500 0.013000 -0.020000
v -0.027500 0.013000 -0.022000
v -0.026501 0.014733 -0.020000
v -0.027500 0.014733 -0.020999
v -0.026544 0.014473 -0.020956
v -0.025767 0.013000 -0.020999
v -0.025767 0.013999 -0.020000
v -0.026027 0.013956 -0.020956
v -0.027500 0.013999 -0.021733
v -0.026501 0.013000 -0.021733
v -0.026544 0.013956 -0.021473
v -0.032500 0.000000 0.010000
v -0.032500 -0.005878 0.008090
v -0.032500 -0.003090 0.009511
v -0.032500 0.003090 0.009511
v -0.032500 0.009511 0.003090
v -0.032500 -0.008090 0.005878
v -0.032500 0.008090 0.005878
v -0.032500 -0.009511 0.003090
v -0.032500 0.005878 0.008090
v -0.032500 -0.010000 0.000000
v -0.032500 -0.009511 -0.003090
v -0.032500 0.009511 -0.003090
v -0.032500 0.005878 -0.008090
v -0.032500 0.000000 -0.010000
v -0.032500 0.003090 -0.009511
v -0.032500 0.008090 -0.005878
v -0.032500 0.010000 0.000000
v -0.032500 -0.008090 -0.005878
v -0.032500 -0.003090 -0.009511
v -0.032500 -0.005878 -0.008090
v -0.025500 0.000000 0.010000
v -0.025500 0.005878 0.008090
v -0.025500 0.003090 0.009511
v -0.025500 0.008090 0.005878
v -0.025500 -0.010000 0.000000
v -0.025500 -0.009511 0.003090
v -0.025500 0.009511 0.003090
v -0.025500 0.010000 0.000000
v -0.025500 0.009511 -0.003090
v -0.025500 -0.008090 -0.005878
v -0.025500 0.008090 -0.005878
v -0.025500 0.000000 -0.010000
v -0.025500 -0.003090 -0.009511
v -0.025500 0.003090 -0.009511
v -0.025500 0.005878 -0.008090
v -0.025500 -0.009511 -0.003090
v -0.025500 -0.005878 -0.008090
v -0.025500 -0.003090 0.009511
v -0.025500 -0.008090 0.005878
v -0.025500 -0.005878 0.008090
v 0.027500 -0.047000 0.020000
v 0.027500 -0.045000 0.022000
v 0.025500 -0.045000 0.020000
v 0.027500 -0.046733 0.020999
v 0.026501 -0.046733 0.020000
v 0.026544 -0.046473 0.020956
v 0.026501 -0.045000 0.021733
v 0.027500 -0.045999 0.021733
v 0.026544 -0.045956 0.021473
v 0.025767 -0.045999 0.020000
v 0.025767 -0.045000 0.020999
v 0.026027 -0.045956 0.020956
v 0.027500 0.013000 0.022000
v 0.027500 0.015000 0.020000
v 0.025500 0.013000 0.020000
v 0.027500 0.013999 0.021733
v 0.026501 0.013000 0.021733
v 0.026544 0.013956 0.021473
v 0.026501 0.014733 0.020000
v 0.027500 0.014733 0.020999
v 0.026544 0.014473 0.020956
v 0.025767 0.013000 0.020999
v 0.025767 0.013999 0.020000
v 0.026027 0.013956 0.020956
v 0.027500 -0.047000 -0.020000
v 0.025500 -0.045000 -0.020000
v 0.027500 -0.045000 -0.022000
v 0.026501 -0.046733 -0.020000
v 0.027500 -0.046733 -0.020999
v 0.026544 -0.046473 -0.020956
v 0.025767 -0.045000 -0.020999
v 0.025767 -0.045999 -0.020000
v 0.026027 -0.045956 -0.020956
v 0.027500 -0.045999 -0.021733
v 0.026501 -0.045000 -0.021733
v 0.026544 -0.045956 -0.021473
v 0.027500 0.015000 -0.020000
v 0.027500 0.013000 -0.022000
v 0.025500 0.013000 -0.020000
v 0.027500 0.014733 -0.020999
v 0.026501 0.014733 -0.020000
v 0.026544 0.014473 -0.020956
v 0.026501 0.013000 -0.021733
v 0.027500 0.013999 -0.021733
v 0.026544 0.013956 -0.021473
v 0.025767 0.013999 -0.020000
v 0.025767 0.013000 -0.020999
v 0.026027 0.013956 -0.020956
v 0.030500 -0.047000 0.020000
v 0.032500 -0.045000 0.020000
v 0.030500 -0.045000 0.022000
v 0.031499 -0.046733 0.020000
v 0.030500 -0.046733 0.020999
v 0.031456 -0.046473 0.020956
v 0.032233 -0.045000 0.020999
v 0.032233 -0.045999 0.020000
v 0.031973 -0.045956 0.020956
v 0.030500 -0.045999 0.021733
v 0.031499 -0.045000 0.021733
v 0.031456 -0.045956 0.021473
v 0.030500 0.015000 0.020000
v 0.030500 0.013000 0.022000
v 0.032500 0.013000 0.020000
v 0.030500 0.014733 0.020999
v 0.031499 0.014733 0.020000
v 0.031456 0.014473 0.020956
v 0.031499 0.013000 0.021733
v 0.030500 0.013999 0.021733
v 0.031456 0.013956 0.021473
v 0.032233 0.013999 0.020000
v 0.032233 0.013000 0.020999
v 0.031973 0.013956 0.020956
v 0.030500 -0.047000 -0.020000
v 0.030500 -0.045000 -0.022000
v 0.032500 -0.045000 -0.020000
v 0.030500 -0.046733 -0.020999
v 0.031499 -0.046733 -0.020000
v 0.031456 -0.046473 -0.020956
v 0.031499 -0.045000 -0.021733
v 0.030500 -0.045999 -0.021733
v 0.031456 -0.045956 -0.021473
v 0.032233 -0.045999 -0.020000
v 0.032233 -0.045000 -0.020999
v 0.031973 -0.045956 -0.020956
v 0.030500 0.015000 -0.020000
v 0.032500 0.013000 -0.020000
v 0.030500 0.013000 -0.022000
v 0.031499 0.014733 -0.020000
v 0.030500 0.014733 -0.020999
v 0.031456 0.014473 -0.020956
v 0.032233 0.013000 -0.020999
v 0.032233 0.013999 -0.020000
v 0.031973 0.013956 -0.020956
v 0.030500 0.013999 -0.021733
v 0.031499 0.013000 -0.021733
v 0.031456 0.013956 -0.021473
v 0.025500 0.000000 0.010000
v 0.025500 -0.005878 0.008090
v 0.025500 -0.003090 0.009511
v 0.025500 0.003090 0.009511
v 0.025500 0.009511 0.003090
v 0.025500 -0.008090 0.005878
v 0.025500 0.008090 0.005878
v 0.025500 -0.009511 0.003090
v 0.025500 0.005878 0.008090
v 0.025500 -0.010000 0.000000
v 0.025500 -0.009511 -0.003090
v 0.025500 0.009511 -0.003090
v 0.025500 0.005878 -0.008090
v 0.025500 0.000000 -0.010000
v 0.025500 0.003090 -0.009511
v 0.025500 0.008090 -0.005878
v 0.025500 0.010000 0.000000
v 0.025500 -0.008090 -0.005878
v 0.025500 -0.003090 -0.009511
v 0.025500 -0.005878 -0.008090
v 0.032500 0.000000 0.010000
v 0.032500 0.005878 0.008090
v 0.032500 0.003090 0.009511
v 0.032500 0.008090 0.005878
v 0.032500 -0.010000 0.000000
v 0.032500 -0.009511 0.003090
v 0.032500 0.009511 0.003090
v 0.032500 0.010000 0.000000
v 0.032500 0.009511 -0.003090
v 0.032500 -0.008090 -0.005878
v 0.032500 0.008090 -0.005878
v 0.032500 0.000000 -0.010000
v 0.032500 -0.003090 -0.009511
v 0.032500 0.003090 -0.009511
v 0.032500 0.005878 -0.008090
v 0.032500 -0.009511 -0.003090
v 0.032500 -0.005878 -0.008090
v 0.032500 -0.003090 0.009511
v 0.032500 -0.008090 0.005878
v 0.032500 -0.005878 0.008090
vn -0.2490 -0.9317 0.2646
vn -0.2187 -0.6900 0.6900
vn -0.2646 -0.2490 0.9317
vn -0.6900 -0.2187 0.6900
vn -0.9317 -0.2646 0.2490
vn -0.6900 -0.6900 0.2187
vn -0.5774 -0.5773 0.5774
vn -0.2490 0.2646 0.9317
vn -0.2187 0.6900 0.6900
vn -0.2646 0.9317 0.2490
vn -0.6900 0.6900 0.2187
vn -0.9317 0.2490 0.2646
vn -0.6900 0.2187 0.6900
vn -0.5773 0.5773 0.5774
vn -0.2646 -0.9317 -0.2490
vn -0.6900 -0.6900 -0.2187
vn -0.9317 -0.2490 -0.2646
vn -0.6900 -0.2187 -0.6900
vn -0.2490 -0.2646 -0.9317
vn -0.2187 -0.6900 -0.6900
vn -0.5774 -0.5773 -0.5774
vn -0.2490 0.9317 -0.2646
vn -0.2187 0.6900 -0.6900
vn -0.2646 0.2490 -0.9317
vn -0.6900 0.2187 -0.6900
vn -0.9317 0.2646 -0.2490
vn -0.6900 0.6900 -0.2187
vn -0.5773 0.5773 -0.5774
vn 0.2646 -0.9317 0.2490
vn 0.6900 -0.6900 0.2187
vn 0.9317 -0.2490 0.2646
vn 0.6900 -0.2187 0.6900
vn 0.2490 -0.2646 0.9317
vn 0.2187 -0.6900 0.6900
vn 0.5774 -0.5773 0.5774
vn 0.2490 0.9317 0.2646
vn 0.2187 0.6900 0.6900
vn 0.2646 0.2490 0.9317
vn 0.6900 0.2187 0.6900
vn 0.9317 0.2646 0.2490
vn 0.6900 0.6900 0.2187
vn 0.5773 0.5773 0.5774
vn 0.2490 -0.9317 -0.2646
vn 0.2187 -0.6900 -0.6900
vn 0.2646 -0.2490 -0.9317
vn 0.6900 -0.2187 -0.6900
vn 0.9317 -0.2646 -0.2490
vn 0.6900 -0.6900 -0.2187
vn 0.5774 -0.5773 -0.5774
vn 0.2646 0.9317 -0.2490
vn 0.6900 0.6900 -0.2187
vn 0.9317 0.2490 -0.2646
vn 0.6900 0.2187 -0.6900
vn 0.2490 0.2646 -0.9317
vn 0.2187 0.6900 -0.6900
vn 0.5773 0.5773 -0.5774
vn -0.2582 -0.9661 -0.0000
vn -0.7071 -0.7071 -0.0000
vn -0.9661 -0.2582 -0.0000
vn -0.2582 -0.0000 0.9661
vn -0.7071 -0.0000 0.7071
vn -0.9661 -0.0000 0.2582
vn -0.2582 0.9661 -0.0000
vn -0.7071 0.7071 -0.0000
vn -0.9661 0.2582 -0.0000
vn -0.2582 -0.0000 -0.9661
vn -0.7071 -0.0000 -0.7071
vn -0.9661 -0.0000 -0.2582
vn -0.0000 -0.9661 -0.2582
vn -0.0000 -0.7071 -0.7071
vn -0.0000 -0.2582 -0.9661
vn -0.0000 0.9661 -0.2582
vn -0.0000 0.7071 -0.7071
vn -0.0000 0.2582 -0.9661
vn 0.9661 -0.0000 -0.2582
vn 0.7071 -0.0000 -0.7071
vn 0.2582 -0.0000 -0.9661
vn 0.2582 -0.9661 -0.0000
vn 0.7071 -0.7071 -0.0000
vn 0.9661 -0.2582 -0.0000
vn 0.2582 0.9661 -0.0000
vn 0.7071 0.7071 -0.0000
vn 0.9661 0.2582 -0.0000
vn 0.2582 -0.0000 0.9661
vn 0.7071 -0.0000 0.7071
vn 0.9661 -0.0000 0.2582
vn -0.0000 -0.9661 0.2582
vn -0.0000 -0.7071 0.7071
vn -0.0000 -0.2582 0.9661
vn -0.0000 0.9661 0.2582
vn -0.0000 0.7071 0.7071
vn -0.0000 0.2582 0.9661
vn -0.0000 -1.0000 -0.0000
vn -1.0000 -0.0000 -0.0000
vn -0.0000 -0.0000 1.0000
vn -0.0000 1.0000 -0.0000
vn -0.0000 -0.0000 -1.0000
vn 1.0000 -0.0000 -0.0000
vn -0.5773 -0.5774 0.5774
vn -0.5774 0.5773 0.5774
vn -0.5773 -0.5774 -0.5774
vn -0.5774 0.5773 -0.5774
vn 0.5773 -0.5774 0.5774
vn 0.5774 0.5773 0.5773
vn 0.5773 -0.5774 -0.5774
vn 0.5774 0.5773 -0.5773
vn -0.0000 0.1563 0.9877
vn -0.0000 0.4541 0.8909
vn -0.0000 0.8909 0.4541
vn -0.0000 0.9877 0.1563
vn -0.0000 0.9877 -0.1563
vn -0.0000 0.8909 -0.4541
vn -0.0000 0.4541 -0.8909
vn -0.0000 0.1563 -0.9877
vn -0.0000 -0.1563 -0.9877
vn -0.0000 -0.4541 -0.8909
vn -0.0000 -0.8909 -0.4541
vn -0.0000 -0.9877 -0.1563
vn -0.0000 -0.9877 0.1563
vn -0.0000 -0.8909 0.4541
vn -0.0000 -0.4541 0.8909
vn -0.0000 -0.1563 0.9877
vn -0.5774 0.5773 0.5773
vn -0.5774 0.5773 -0.5773
vn 0.5774 0.5773 0.5774
vn 0.5774 0.5773 -0.5774
vn -0.2646 -0.9317 0.2490
vn -0.2490 -0.2646 0.9317
vn -0.9317 -0.2490 0.2646
vn -0.2646 0.2490 0.9317
vn -0.2490 0.9317 0.2646
vn -0.9317 0.2646 0.2490
vn -0.2490 -0.9317 -0.2646
vn -0.9317 -0.2646 -0.2490
vn -0.2646 -0.2490 -0.9317
vn -0.2646 0.9317 -0.2490
vn -0.2490 0.2646 -0.9317
vn -0.9317 0.2490 -0.2646
vn 0.2490 -0.9317 0.2646
vn 0.9317 -0.2646 0.2490
vn 0.2646 -0.2490 0.9317
vn 0.2646 0.9317 0.2490
vn 0.2490 0.2646 0.9317
vn 0.9317 0.2490 0.2646
vn 0.2646 -0.9317 -0.2490
vn 0.2490 -0.2646 -0.9317
vn 0.9317 -0.2490 -0.2646
vn 0.2490 0.9317 -0.2646
vn 0.9317 0.2646 -0.2490
vn 0.2646 0.2490 -0.9317
s 0
usemtl BracketMetal
f 1//1 6//1 5//1
f 4//2 9//2 6//2
f 2//3 9//3 8//3
f 7//4 12//4 9//4
f 3//5 12//5 11//5
f 10//6 6//6 12//6
f 6//7 9//7 12//7
f 13//8 18//8 17//8
f 16//9 21//9 18//9
f 14//10 21//10 20//10
f 19//11 24//11 21//11
f 15//12 24//12 23//12
f 22//13 18//13 24//13
f 18//14 21//14 24//14
f 25//15 30//15 29//15
f 28//16 33//16 30//16
f 26//17 33//17 32//17
f 31//18 36//18 33//18
f 27//19 36//19 35//19
f 34//20 30//20 36//20
f 30//21 33//21 36//21
f 37//22 42//22 41//22
f 40//23 45//23 42//23
f 38//24 45//24 44//24
f 43//25 48//25 45//25
f 39//26 48//26 47//26
f 46//27 42//27 48//27
f 42//28 45//28 48//28
f 49//29 54//29 53//29
f 52//30 57//30 54//30
f 50//31 57//31 56//31
f 55//32 60//32 57//32
f 51//33 60//33 59//33
f 58//34 54//34 60//34
f 54//35 57//35 60//35
f 61//36 66//36 65//36
f 64//37 69//37 66//37
f 62//38 69//38 68//38
f 67//39 72//39 69//39
f 63//40 72//40 71//40
f 70//41 66//41 72//41
f 66//42 69//42 72//42
f 73//43 78//43 77//43
f 76//44 81//44 78//44
f 74//45 81//45 80//45
f 79//46 84//46 81//46
f 75//47 84//47 83//47
f 82//48 78//48 84//48
f 78//49 81//49 84//49
f 85//50 90//50 89//50
f 88//51 93//51 90//51
f 86//52 93//52 92//52
f 91//53 96//53 93//53
f 87//54 96//54 95//54
f 94//55 90//55 96//55
f 90//56 93//56 96//56
f 25//57 5//57 28//57
f 28//58 10//58 32//58
f 32//59 3//59 26//59
f 2//60 17//60 7//60
f 7//61 22//61 11//61
f 11//62 15//62 3//62
f 14//63 41//63 19//63
f 19//64 46//64 23//64
f 23//65 39//65 15//65
f 38//66 35//66 43//66
f 43//67 31//67 47//67
f 47//68 26//68 39//68
f 73//69 29//69 76//69
f 76//70 34//70 80//70
f 80//71 27//71 74//71
f 37//72 89//72 40//72
f 40//73 94//73 44//73
f 44//74 87//74 38//74
f 86//75 83//75 91//75
f 91//76 79//76 95//76
f 95//77 74//77 87//77
f 49//78 77//78 52//78
f 52//79 82//79 56//79
f 56//80 75//80 50//80
f 85//81 65//81 88//81
f 88//82 70//82 92//82
f 92//83 63//83 86//83
f 62//84 59//84 67//84
f 67//85 55//85 71//85
f 71//86 50//86 63//86
f 1//87 53//87 4//87
f 4//88 58//88 8//88
f 8//89 51//89 2//89
f 61//90 20//90 64//90
f 64//91 16//91 68//91
f 68//92 13//92 62//92
f 25//93 49//93 1//93
f 3//94 39//94 26//94
f 51//95 13//95 2//95
f 85//96 14//96 61//96
f 27//97 87//97 74//97
f 75//98 63//98 50//98
f 97//1 102//1 101//1
f 100//2 105//2 102//2
f 98//3 105//3 104//3
f 103//4 108//4 105//4
f 99//5 108//5 107//5
f 106//6 102//6 108//6
f 102//99 105//99 108//99
f 109//8 114//8 113//8
f 112//9 117//9 114//9
f 110//10 117//10 116//10
f 115//11 120//11 117//11
f 111//12 120//12 119//12
f 118//13 114//13 120//13
f 114//100 117//100 120//100
f 121//15 126//15 125//15
f 124//16 129//16 126//16
f 122//17 129//17 128//17
f 127//18 132//18 129//18
f 123//19 132//19 131//19
f 130//20 126//20 132//20
f 126//101 129//101 132//101
f 133//22 138//22 137//22
f 136//23 141//23 138//23
f 134//24 141//24 140//24
f 139//25 144//25 141//25
f 135//26 144//26 143//26
f 142//27 138//27 144//27
f 138//102 141//102 144//102
f 145//29 150//29 149//29
f 148//30 153//30 150//30
f 146//31 153//31 152//31
f 151//32 156//32 153//32
f 147//33 156//33 155//33
f 154//34 150//34 156//34
f 150//103 153//103 156//103
f 157//36 162//36 161//36
f 160//37 165//37 162//37
f 158//38 165//38 164//38
f 163//39 168//39 165//39
f 159//40 168//40 167//40
f 166//41 162//41 168//41
f 162//104 165//104 168//104
f 169//43 174//43 173//43
f 172//44 177//44 174//44
f 170//45 177//45 176//45
f 175//46 180//46 177//46
f 171//47 180//47 179//47
f 178//48 174//48 180//48
f 174//105 177//105 180//105
f 181//50 186//50 185//50
f 184//51 189//51 186//51
f 182//52 189//52 188//52
f 187//53 192//53 189//53
f 183//54 192//54 191//54
f 190//55 186//55 192//55
f 186//106 189//106 192//106
f 121//57 101//57 124//57
f 124//58 106//58 128//58
f 128//59 99//59 122//59
f 98//60 113//60 103//60
f 103//61 118//61 107//61
f 107//62 111//62 99//62
f 110//63 137//63 115//63
f 115//64 142//64 119//64
f 119//65 135//65 111//65
f 134//66 131//66 139//66
f 139//67 127//67 143//67
f 143//68 122//68 135//68
f 169//69 125//69 172//69
f 172//70 130//70 176//70
f 176//71 123//71 170//71
f 133//72 185//72 136//72
f 136//73 190//73 140//73
f 140//74 183//74 134//74
f 182//75 179//75 187//75
f 187//76 175//76 191//76
f 191//77 170//77 183//77
f 145//78 173//78 148//78
f 148//79 178//79 152//79
f 152//80 171//80 146//80
f 181//81 161//81 184//81
f 184//82 166//82 188//82
f 188//83 159//83 182//83
f 158//84 155//84 163//84
f 163//85 151//85 167//85
f 167//86 146//86 159//86
f 97//87 149//87 100//87
f 100//88 154//88 104//88
f 104//89 147//89 98//89
f 157//90 116//90 160//90
f 160//91 112//91 164//91
f 164//92 109//92 158//92
f 121//93 145//93 97//93
f 111//94 135//94 209//94
f 99//94 202//94 203//94
f 147//95 109//95 98//95
f 181//96 110//96 157//96
f 123//97 183//97 170//97
f 171//98 217//98 218//98
f 182//98 159//98 220//98
f 206//107 225//107 224//107
f 211//108 229//108 225//108
f 212//91 222//91 229//91
f 210//109 228//109 222//109
f 203//110 217//110 228//110
f 202//111 218//111 217//111
f 200//112 231//112 218//112
f 198//73 232//73 231//73
f 195//113 232//113 194//113
f 230//114 193//114 213//114
f 196//115 213//115 193//115
f 201//116 215//116 196//116
f 199//70 214//70 201//70
f 197//117 216//117 199//117
f 209//118 219//118 197//118
f 204//119 220//119 209//119
f 208//120 221//120 204//120
f 205//88 223//88 208//88
f 205//121 226//121 227//121
f 207//122 224//122 226//122
f 233//1 238//1 237//1
f 236//2 241//2 238//2
f 234//3 241//3 240//3
f 239//4 244//4 241//4
f 235//5 244//5 243//5
f 242//6 238//6 244//6
f 238//99 241//99 244//99
f 245//8 250//8 249//8
f 248//9 253//9 250//9
f 246//10 253//10 252//10
f 251//11 256//11 253//11
f 247//12 256//12 255//12
f 254//13 250//13 256//13
f 250//123 253//123 256//123
f 257//15 262//15 261//15
f 260//16 265//16 262//16
f 258//17 265//17 264//17
f 263//18 268//18 265//18
f 259//19 268//19 267//19
f 266//20 262//20 268//20
f 262//101 265//101 268//101
f 269//22 274//22 273//22
f 272//23 277//23 274//23
f 270//24 277//24 276//24
f 275//25 280//25 277//25
f 271//26 280//26 279//26
f 278//27 274//27 280//27
f 274//124 277//124 280//124
f 281//29 286//29 285//29
f 284//30 289//30 286//30
f 282//31 289//31 288//31
f 287//32 292//32 289//32
f 283//33 292//33 291//33
f 290//34 286//34 292//34
f 286//103 289//103 292//103
f 293//36 298//36 297//36
f 296//37 301//37 298//37
f 294//38 301//38 300//38
f 299//39 304//39 301//39
f 295//40 304//40 303//40
f 302//41 298//41 304//41
f 298//125 301//125 304//125
f 305//43 310//43 309//43
f 308//44 313//44 310//44
f 306//45 313//45 312//45
f 311//46 316//46 313//46
f 307//47 316//47 315//47
f 314//48 310//48 316//48
f 310//105 313//105 316//105
f 317//50 322//50 321//50
f 320//51 325//51 322//51
f 318//52 325//52 324//52
f 323//53 328//53 325//53
f 319//54 328//54 327//54
f 326//55 322//55 328//55
f 322//126 325//126 328//126
f 257//57 237//57 260//57
f 260//58 242//58 264//58
f 264//59 235//59 258//59
f 234//60 249//60 239//60
f 239//61 254//61 243//61
f 243//62 247//62 235//62
f 246//63 273//63 251//63
f 251//64 278//64 255//64
f 255//65 271//65 247//65
f 270//66 267//66 275//66
f 275//67 263//67 279//67
f 279//68 258//68 271//68
f 305//69 261//69 308//69
f 308//70 266//70 312//70
f 312//71 259//71 306//71
f 269//72 321//72 272//72
f 272//73 326//73 276//73
f 276//74 319//74 270//74
f 318//75 315//75 323//75
f 323//76 311//76 327//76
f 327//77 306//77 319//77
f 281//78 309//78 284//78
f 284//79 314//79 288//79
f 288//80 307//80 282//80
f 317//81 297//81 320//81
f 320//82 302//82 324//82
f 324//83 295//83 318//83
f 294//84 291//84 299//84
f 299//85 287//85 303//85
f 303//86 282//86 295//86
f 233//87 285//87 236//87
f 236//88 290//88 240//88
f 240//89 283//89 234//89
f 293//90 252//90 296//90
f 296//91 248//91 300//91
f 300//92 245//92 294//92
f 257//93 281//93 233//93
f 247//94 271//94 345//94
f 235//94 338//94 339//94
f 283//95 245//95 234//95
f 317//96 246//96 293//96
f 259//97 319//97 306//97
f 307//98 353//98 354//98
f 318//98 295//98 356//98
f 342//107 361//107 360//107
f 347//108 365//108 361//108
f 348//91 358//91 365//91
f 346//109 364//109 358//109
f 339//110 353//110 364//110
f 338//111 354//111 353//111
f 336//112 367//112 354//112
f 334//73 368//73 367//73
f 331//113 368//113 330//113
f 366//114 329//114 349//114
f 332//115 349//115 329//115
f 337//116 351//116 332//116
f 335//70 350//70 337//70
f 333//117 352//117 335//117
f 345//118 355//118 333//118
f 340//119 356//119 345//119
f 344//120 357//120 340//120
f 341//88 359//88 344//88
f 341//121 362//121 363//121
f 343//122 360//122 362//122
f 1//127 4//127 6//127
f 4//2 8//2 9//2
f 2//128 7//128 9//128
f 7//4 11//4 12//4
f 3//129 10//129 12//129
f 10//6 5//6 6//6
f 13//130 16//130 18//130
f 16//9 20//9 21//9
f 14//131 19//131 21//131
f 19//11 23//11 24//11
f 15//132 22//132 24//132
f 22//13 17//13 18//13
f 25//133 28//133 30//133
f 28//16 32//16 33//16
f 26//134 31//134 33//134
f 31//18 35//18 36//18
f 27//135 34//135 36//135
f 34//20 29//20 30//20
f 37//136 40//136 42//136
f 40//23 44//23 45//23
f 38//137 43//137 45//137
f 43//25 47//25 48//25
f 39//138 46//138 48//138
f 46//27 41//27 42//27
f 49//139 52//139 54//139
f 52//30 56//30 57//30
f 50//140 55//140 57//140
f 55//32 59//32 60//32
f 51//141 58//141 60//141
f 58//34 53//34 54//34
f 61//142 64//142 66//142
f 64//37 68//37 69//37
f 62//143 67//143 69//143
f 67//39 71//39 72//39
f 63//144 70//144 72//144
f 70//41 65//41 66//41
f 73//145 76//145 78//145
f 76//44 80//44 81//44
f 74//146 79//146 81//146
f 79//46 83//46 84//46
f 75//147 82//147 84//147
f 82//48 77//48 78//48
f 85//148 88//148 90//148
f 88//51 92//51 93//51
f 86//149 91//149 93//149
f 91//53 95//53 96//53
f 87//150 94//150 96//150
f 94//55 89//55 90//55
f 25//57 1//57 5//57
f 28//58 5//58 10//58
f 32//59 10//59 3//59
f 2//60 13//60 17//60
f 7//61 17//61 22//61
f 11//62 22//62 15//62
f 14//63 37//63 41//63
f 19//64 41//64 46//64
f 23//65 46//65 39//65
f 38//66 27//66 35//66
f 43//67 35//67 31//67
f 47//68 31//68 26//68
f 73//69 25//69 29//69
f 76//70 29//70 34//70
f 80//71 34//71 27//71
f 37//72 85//72 89//72
f 40//73 89//73 94//73
f 44//74 94//74 87//74
f 86//75 75//75 83//75
f 91//76 83//76 79//76
f 95//77 79//77 74//77
f 49//78 73//78 77//78
f 52//79 77//79 82//79
f 56//80 82//80 75//80
f 85//81 61//81 65//81
f 88//82 65//82 70//82
f 92//83 70//83 63//83
f 62//84 51//84 59//84
f 67//85 59//85 55//85
f 71//86 55//86 50//86
f 1//87 49//87 53//87
f 4//88 53//88 58//88
f 8//89 58//89 51//89
f 61//90 14//90 20//90
f 64//91 20//91 16//91
f 68//92 16//92 13//92
f 25//93 73//93 49//93
f 3//94 15//94 39//94
f 51//95 62//95 13//95
f 85//96 37//96 14//96
f 27//97 38//97 87//97
f 75//98 86//98 63//98
f 97//127 100//127 102//127
f 100//2 104//2 105//2
f 98//128 103//128 105//128
f 103//4 107//4 108//4
f 99//129 106//129 108//129
f 106//6 101//6 102//6
f 109//130 112//130 114//130
f 112//9 116//9 117//9
f 110//131 115//131 117//131
f 115//11 119//11 120//11
f 111//132 118//132 120//132
f 118//13 113//13 114//13
f 121//133 124//133 126//133
f 124//16 128//16 129//16
f 122//134 127//134 129//134
f 127//18 131//18 132//18
f 123//135 130//135 132//135
f 130//20 125//20 126//20
f 133//136 136//136 138//136
f 136//23 140//23 141//23
f 134//137 139//137 141//137
f 139//25 143//25 144//25
f 135//138 142//138 144//138
f 142//27 137//27 138//27
f 145//139 148//139 150//139
f 148//30 152//30 153//30
f 146//140 151//140 153//140
f 151//32 155//32 156//32
f 147//141 154//141 156//141
f 154//34 149//34 150//34
f 157//142 160//142 162//142
f 160//37 164//37 165//37
f 158//143 163//143 165//143
f 163//39 167//39 168//39
f 159//144 166//144 168//144
f 166//41 161//41 162//41
f 169//145 172//145 174//145
f 172//44 176//44 177//44
f 170//146 175//146 177//146
f 175//46 179//46 180//46
f 171//147 178//147 180//147
f 178//48 173//48 174//48
f 181//148 184//148 186//148
f 184//51 188//51 189//51
f 182//149 187//149 189//149
f 187//53 191//53 192//53
f 183//150 190//150 192//150
f 190//55 185//55 186//55
f 121//57 97//57 101//57
f 124//58 101//58 106//58
f 128//59 106//59 99//59
f 98//60 109//60 113//60
f 103//61 113//61 118//61
f 107//62 118//62 111//62
f 110//63 133//63 137//63
f 115//64 137//64 142//64
f 119//65 142//65 135//65
f 134//66 123//66 131//66
f 139//67 131//67 127//67
f 143//68 127//68 122//68
f 169//69 121//69 125//69
f 172//70 125//70 130//70
f 176//71 130//71 123//71
f 133//72 181//72 185//72
f 136//73 185//73 190//73
f 140//74 190//74 183//74
f 182//75 171//75 179//75
f 187//76 179//76 175//76
f 191//77 175//77 170//77
f 145//78 169//78 173//78
f 148//79 173//79 178//79
f 152//80 178//80 171//80
f 181//81 157//81 161//81
f 184//82 161//82 166//82
f 188//83 166//83 159//83
f 158//84 147//84 155//84
f 163//85 155//85 151//85
f 167//86 151//86 146//86
f 97//87 145//87 149//87
f 100//88 149//88 154//88
f 104//89 154//89 147//89
f 157//90 110//90 116//90
f 160//91 116//91 112//91
f 164//92 112//92 109//92
f 121//93 169//93 145//93
f 199//94 201//94 111//94
f 135//94 205//94 208//94
f 135//94 208//94 204//94
f 197//94 199//94 111//94
f 135//94 204//94 209//94
f 209//94 197//94 111//94
f 207//94 205//94 135//94
f 111//94 201//94 196//94
f 111//94 196//94 193//94
f 207//94 135//94 122//94
f 206//94 207//94 122//94
f 99//94 111//94 193//94
f 99//94 193//94 195//94
f 211//94 206//94 122//94
f 212//94 211//94 122//94
f 99//94 195//94 194//94
f 99//94 194//94 198//94
f 212//94 122//94 99//94
f 210//94 212//94 99//94
f 99//94 198//94 200//94
f 99//94 200//94 202//94
f 203//94 210//94 99//94
f 147//95 158//95 109//95
f 181//96 133//96 110//96
f 123//97 134//97 183//97
f 215//98 214//98 159//98
f 182//98 227//98 226//98
f 182//98 226//98 224//98
f 215//98 159//98 146//98
f 213//98 215//98 146//98
f 171//98 182//98 224//98
f 171//98 224//98 225//98
f 230//98 213//98 146//98
f 232//98 230//98 146//98
f 171//98 225//98 229//98
f 171//98 229//98 222//98
f 232//98 146//98 171//98
f 231//98 232//98 171//98
f 171//98 222//98 228//98
f 171//98 228//98 217//98
f 218//98 231//98 171//98
f 223//98 227//98 182//98
f 159//98 214//98 216//98
f 159//98 216//98 219//98
f 221//98 223//98 182//98
f 159//98 219//98 220//98
f 220//98 221//98 182//98
f 206//107 211//107 225//107
f 211//108 212//108 229//108
f 212//91 210//91 222//91
f 210//109 203//109 228//109
f 203//110 202//110 217//110
f 202//111 200//111 218//111
f 200//112 198//112 231//112
f 198//73 194//73 232//73
f 195//113 230//113 232//113
f 230//114 195//114 193//114
f 196//115 215//115 213//115
f 201//116 214//116 215//116
f 199//70 216//70 214//70
f 197//117 219//117 216//117
f 209//118 220//118 219//118
f 204//119 221//119 220//119
f 208//120 223//120 221//120
f 205//88 227//88 223//88
f 205//121 207//121 226//121
f 207//122 206//122 224//122
f 233//127 236//127 238//127
f 236//2 240//2 241//2
f 234//128 239//128 241//128
f 239//4 243//4 244//4
f 235//129 242//129 244//129
f 242//6 237//6 238//6
f 245//130 248//130 250//130
f 248//9 252//9 253//9
f 246//131 251//131 253//131
f 251//11 255//11 256//11
f 247//132 254//132 256//132
f 254//13 249//13 250//13
f 257//133 260//133 262//133
f 260//16 264//16 265//16
f 258//134 263//134 265//134
f 263//18 267//18 268//18
f 259//135 266//135 268//135
f 266//20 261//20 262//20
f 269//136 272//136 274//136
f 272//23 276//23 277//23
f 270//137 275//137 277//137
f 275//25 279//25 280//25
f 271//138 278//138 280//138
f 278//27 273//27 274//27
f 281//139 284//139 286//139
f 284//30 288//30 289//30
f 282//140 287//140 289//140
f 287//32 291//32 292//32
f 283//141 290//141 292//141
f 290//34 285//34 286//34
f 293//142 296//142 298//142
f 296//37 300//37 301//37
f 294//143 299//143 301//143
f 299//39 303//39 304//39
f 295//144 302//144 304//144
f 302//41 297//41 298//41
f 305//145 308//145 310//145
f 308//44 312//44 313//44
f 306//146 311//146 313//146
f 311//46 315//46 316//46
f 307//147 314//147 316//147
f 314//48 309//48 310//48
f 317//148 320//148 322//148
f 320//51 324//51 325//51
f 318//149 323//149 325//149
f 323//53 327//53 328//53
f 319//150 326//150 328//150
f 326//55 321//55 322//55
f 257//57 233//57 237//57
f 260//58 237//58 242//58
f 264//59 242//59 235//59
f 234//60 245//60 249//60
f 239//61 249//61 254//61
f 243//62 254//62 247//62
f 246//63 269//63 273//63
f 251//64 273//64 278//64
f 255//65 278//65 271//65
f 270//66 259//66 267//66
f 275//67 267//67 263//67
f 279//68 263//68 258//68
f 305//69 257//69 261//69
f 308//70 261//70 266//70
f 312//71 266//71 259//71
f 269//72 317//72 321//72
f 272//73 321//73 326//73
f 276//74 326//74 319//74
f 318//75 307//75 315//75
f 323//76 315//76 311//76
f 327//77 311//77 306//77
f 281//78 305//78 309//78
f 284//79 309//79 314//79
f 288//80 314//80 307//80
f 317//81 293//81 297//81
f 320//82 297//82 302//82
f 324//83 302//83 295//83
f 294//84 283//84 291//84
f 299//85 291//85 287//85
f 303//86 287//86 282//86
f 233//87 281//87 285//87
f 236//88 285//88 290//88
f 240//89 290//89 283//89
f 293//90 246//90 252//90
f 296//91 252//91 248//91
f 300//92 248//92 245//92
f 257//93 305//93 281//93
f 335//94 337//94 247//94
f 271//94 341//94 344//94
f 271//94 344//94 340//94
f 333//94 335//94 247//94
f 271//94 340//94 345//94
f 345//94 333//94 247//94
f 343//94 341//94 271//94
f 247//94 337//94 332//94
f 247//94 332//94 329//94
f 343//94 271//94 258//94
f 342//94 343//94 258//94
f 235//94 247//94 329//94
f 235//94 329//94 331//94
f 347//94 342//94 258//94
f 348//94 347//94 258//94
f 235//94 331//94 330//94
f 235//94 330//94 334//94
f 348//94 258//94 235//94
f 346//94 348//94 235//94
f 235//94 334//94 336//94
f 235//94 336//94 338//94
f 339//94 346//94 235//94
f 283//95 294//95 245//95
f 317//96 269//96 246//96
f 259//97 270//97 319//97
f 351//98 350//98 295//98
f 318//98 363//98 362//98
f 318//98 362//98 360//98
f 351//98 295//98 282//98
f 349//98 351//98 282//98
f 307//98 318//98 360//98
f 307//98 360//98 361//98
f 366//98 349//98 282//98
f 368//98 366//98 282//98
f 307//98 361//98 365//98
f 307//98 365//98 358//98
f 368//98 282//98 307//98
f 367//98 368//98 307//98
f 307//98 358//98 364//98
f 307//98 364//98 353//98
f 354//98 367//98 307//98
f 359//98 363//98 318//98
f 295//98 350//98 352//98
f 295//98 352//98 355//98
f 357//98 359//98 318//98
f 295//98 355//98 356//98
f 356//98 357//98 318//98
f 342//107 347//107 361//107
f 347//108 348//108 365//108
f 348//91 346//91 358//91
f 346//109 339//109 364//109
f 339//110 338//110 353//110
f 338//111 336//111 354//111
f 336//112 334//112 367//112
f 334//73 330//73 368//73
f 331//113 366//113 368//113
f 366//114 331//114 329//114
f 332//115 351//115 349//115
f 337//116 350//116 351//116
f 335//70 352//70 350//70
f 333//117 355//117 352//117
f 345//118 356//118 355//118
f 340//119 357//119 356//119
f 344//120 359//120 357//120
f 341//88 363//88 359//88
f 341//121 343//121 362//121
f 343//122 342//122 360//122
