# Blender 5.2.1 LTS
# www.blender.org
mtllib modular_thigh_frame.mtl
o modular_thigh_frame
v -0.032800 -0.090000 0.014000
v -0.032800 -0.088000 0.016000
v -0.034800 -0.088000 0.014000
v -0.032800 -0.089733 0.014999
v -0.033799 -0.089733 0.014000
v -0.033756 -0.089473 0.014956
v -0.033799 -0.088000 0.015733
v -0.032800 -0.088999 0.015733
v -0.033756 -0.088956 0.015473
v -0.034533 -0.088999 0.014000
v -0.034533 -0.088000 0.014999
v -0.034273 -0.088956 0.014956
v -0.032800 0.088000 0.016000
v -0.032800 0.090000 0.014000
v -0.034800 0.088000 0.014000
v -0.032800 0.088999 0.015733
v -0.033799 0.088000 0.015733
v -0.033756 0.088956 0.015473
v -0.033799 0.089733 0.014000
v -0.032800 0.089733 0.014999
v -0.033756 0.089473 0.014956
v -0.034533 0.088000 0.014999
v -0.034533 0.088999 0.014000
v -0.034273 0.088956 0.014956
v -0.032800 -0.090000 -0.014000
v -0.034800 -0.088000 -0.014000
v -0.032800 -0.088000 -0.016000
v -0.033799 -0.089733 -0.014000
v -0.032800 -0.089733 -0.014999
v -0.033756 -0.089473 -0.014956
v -0.034533 -0.088000 -0.014999
v -0.034533 -0.088999 -0.014000
v -0.034273 -0.088956 -0.014956
v -0.032800 -0.088999 -0.015733
v -0.033799 -0.088000 -0.015733
v -0.033756 -0.088956 -0.015473
v -0.032800 0.090000 -0.014000
v -0.032800 0.088000 -0.016000
v -0.034800 0.088000 -0.014000
v -0.032800 0.089733 -0.014999
v -0.033799 0.089733 -0.014000
v -0.033756 0.089473 -0.014956
v -0.033799 0.088000 -0.015733
v -0.032800 0.088999 -0.015733
v -0.033756 0.088956 -0.015473
v -0.034533 0.088999 -0.014000
v -0.034533 0.088000 -0.014999
v -0.034273 0.088956 -0.014956
v -0.018400 -0.090000 0.014000
v -0.016400 -0.088000 0.014000
v -0.018400 -0.088000 0.016000
v -0.017401 -0.089733 0.014000
v -0.018400 -0.089733 0.014999
v -0.017444 -0.089473 0.014956
v -0.016667 -0.088000 0.014999
v -0.016667 -0.088999 0.014000
v -0.016927 -0.088956 0.014956
v -0.018400 -0.088999 0.015733
v -0.017401 -0.088000 0.015733
v -0.017444 -0.088956 0.015473
v -0.018400 0.090000 0.014000
v -0.018400 0.088000 0.016000
v -0.016400 0.088000 0.014000
v -0.018400 0.089733 0.014999
v -0.017401 0.089733 0.014000
v -0.017444 0.089473 0.014956
v -0.017401 0.088000 0.015733
v -0.018400 0.088999 0.015733
v -0.017444 0.088956 0.015473
v -0.016667 0.088999 0.014000
v -0.016667 0.088000 0.014999
v -0.016927 0.088956 0.014956
v -0.018400 -0.090000 -0.014000
v -0.018400 -0.088000 -0.016000
v -0.016400 -0.088000 -0.014000
v -0.018400 -0.089733 -0.014999
v -0.017401 -0.089733 -0.014000
v -0.017444 -0.089473 -0.014956
v -0.017401 -0.088000 -0.015733
v -0.018400 -0.088999 -0.015733
v -0.017444 -0.088956 -0.015473
v -0.016667 -0.088999 -0.014000
v -0.016667 -0.088000 -0.014999
v -0.016927 -0.088956 -0.014956
v -0.018400 0.090000 -0.014000
v -0.016400 0.088000 -0.014000
v -0.018400 0.088000 -0.016000
v -0.017401 0.089733 -0.014000
v -0.018400 0.089733 -0.014999
v -0.017444 0.089473 -0.014956
v -0.016667 0.088000 -0.014999
v -0.016667 0.088999 -0.014000
v -0.016927 0.088956 -0.014956
v -0.018400 0.088999 -0.015733
v -0.017401 0.088000 -0.015733
v -0.017444 0.088956 -0.015473
v -0.028600 -0.046800 0.016000
v -0.028027 -0.048563 0.016000
v -0.028453 -0.047727 0.016000
v -0.028453 -0.045873 0.016000
v -0.026527 -0.049653 0.016000
v -0.026527 -0.043947 0.016000
v -0.027363 -0.049227 0.016000
v -0.027363 -0.044373 0.016000
v -0.028027 -0.045037 0.016000
v -0.023837 -0.049227 0.016000
v -0.024673 -0.049653 0.016000
v -0.024673 -0.043947 0.016000
v -0.023173 -0.045037 0.016000
v -0.022747 -0.047727 0.016000
v -0.022600 -0.046800 0.016000
v -0.023173 -0.048563 0.016000
v -0.022747 -0.045873 0.016000
v -0.025600 -0.049800 0.016000
v -0.023837 -0.044373 0.016000
v -0.025600 -0.043800 0.016000
v -0.028453 -0.047727 -0.016000
v -0.028600 -0.046800 -0.016000
v -0.028027 -0.048563 -0.016000
v -0.028453 -0.045873 -0.016000
v -0.027363 -0.044373 -0.016000
v -0.026527 -0.049653 -0.016000
v -0.027363 -0.049227 -0.016000
v -0.026527 -0.043947 -0.016000
v -0.025600 -0.049800 -0.016000
v -0.028027 -0.045037 -0.016000
v -0.023837 -0.049227 -0.016000
v -0.023837 -0.044373 -0.016000
v -0.024673 -0.049653 -0.016000
v -0.024673 -0.043947 -0.016000
v -0.022600 -0.046800 -0.016000
v -0.022747 -0.045873 -0.016000
v -0.023173 -0.048563 -0.016000
v -0.022747 -0.047727 -0.016000
v -0.023173 -0.045037 -0.016000
v -0.025600 -0.043800 -0.016000
v -0.025600 0.003000 0.016000
v -0.024673 -0.002853 0.016000
v -0.024673 0.002853 0.016000
v -0.023173 -0.001763 0.016000
v -0.023173 0.001763 0.016000
v -0.022600 0.000000 0.016000
v -0.022747 -0.000927 0.016000
v -0.022747 0.000927 0.016000
v -0.023837 -0.002427 0.016000
v -0.023837 0.002427 0.016000
v -0.025600 -0.003000 0.016000
v -0.026527 0.002853 0.016000
v -0.026527 -0.002853 0.016000
v -0.026652 -0.002789 0.016000
v -0.027363 0.002427 0.016000
v -0.027226 -0.002497 0.016000
v -0.028027 0.001763 0.016000
v -0.027363 -0.002427 0.016000
v -0.028600 0.000000 0.016000
v -0.028453 0.000927 0.016000
v -0.028027 -0.001763 0.016000
v -0.028453 -0.000927 0.016000
v -0.028600 0.000000 -0.016000
v -0.028453 -0.000927 -0.016000
v -0.028027 0.001763 -0.016000
v -0.028027 -0.001763 -0.016000
v -0.028453 0.000927 -0.016000
v -0.027363 -0.002427 -0.016000
v -0.025600 0.003000 -0.016000
v -0.026527 -0.002853 -0.016000
v -0.026527 0.002853 -0.016000
v -0.027363 0.002427 -0.016000
v -0.025600 -0.003000 -0.016000
v -0.024673 0.002853 -0.016000
v -0.024673 -0.002853 -0.016000
v -0.024548 -0.002789 -0.016000
v -0.023837 0.002427 -0.016000
v -0.023974 -0.002497 -0.016000
v -0.023837 -0.002427 -0.016000
v -0.023173 0.001763 -0.016000
v -0.023173 -0.001763 -0.016000
v -0.022600 0.000000 -0.016000
v -0.022747 -0.000927 -0.016000
v -0.022747 0.000927 -0.016000
v -0.028600 0.046800 0.016000
v -0.028453 0.047727 0.016000
v -0.028453 0.045873 0.016000
v -0.027363 0.044373 0.016000
v -0.027363 0.049227 0.016000
v -0.026527 0.043947 0.016000
v -0.028027 0.045037 0.016000
v -0.028027 0.048563 0.016000
v -0.025600 0.043800 0.016000
v -0.025600 0.049800 0.016000
v -0.023837 0.044373 0.016000
v -0.023173 0.048563 0.016000
v -0.023837 0.049227 0.016000
v -0.024673 0.043947 0.016000
v -0.024673 0.049653 0.016000
v -0.026527 0.049653 0.016000
v -0.023173 0.045037 0.016000
v -0.022747 0.047727 0.016000
v -0.022747 0.045873 0.016000
v -0.022600 0.046800 0.016000
v -0.028027 0.048563 -0.016000
v -0.027363 0.049227 -0.016000
v -0.025600 0.043800 -0.016000
v -0.026527 0.043947 -0.016000
v -0.025600 0.049800 -0.016000
v -0.027363 0.044373 -0.016000
v -0.026527 0.049653 -0.016000
v -0.023837 0.044373 -0.016000
v -0.023837 0.049227 -0.016000
v -0.022600 0.046800 -0.016000
v -0.022747 0.045873 -0.016000
v -0.022747 0.047727 -0.016000
v -0.023173 0.048563 -0.016000
v -0.024673 0.043947 -0.016000
v -0.023173 0.045037 -0.016000
v -0.024673 0.049653 -0.016000
v -0.028453 0.047727 -0.016000
v -0.028027 0.045037 -0.016000
v -0.028600 0.046800 -0.016000
v -0.028453 0.045873 -0.016000
v 0.018400 -0.090000 0.014000
v 0.018400 -0.088000 0.016000
v 0.016400 -0.088000 0.014000
v 0.018400 -0.089733 0.014999
v 0.017401 -0.089733 0.014000
v 0.017444 -0.089473 0.014956
v 0.017401 -0.088000 0.015733
v 0.018400 -0.088999 0.015733
v 0.017444 -0.088956 0.015473
v 0.016667 -0.088999 0.014000
v 0.016667 -0.088000 0.014999
v 0.016927 -0.088956 0.014956
v 0.018400 0.088000 0.016000
v 0.018400 0.090000 0.014000
v 0.016400 0.088000 0.014000
v 0.018400 0.088999 0.015733
v 0.017401 0.088000 0.015733
v 0.017444 0.088956 0.015473
v 0.017401 0.089733 0.014000
v 0.018400 0.089733 0.014999
v 0.017444 0.089473 0.014956
v 0.016667 0.088000 0.014999
v 0.016667 0.088999 0.014000
v 0.016927 0.088956 0.014956
v 0.018400 -0.090000 -0.014000
v 0.016400 -0.088000 -0.014000
v 0.018400 -0.088000 -0.016000
v 0.017401 -0.089733 -0.014000
v 0.018400 -0.089733 -0.014999
v 0.017444 -0.089473 -0.014956
v 0.016667 -0.088000 -0.014999
v 0.016667 -0.088999 -0.014000
v 0.016927 -0.088956 -0.014956
v 0.018400 -0.088999 -0.015733
v 0.017401 -0.088000 -0.015733
v 0.017444 -0.088956 -0.015473
v 0.018400 0.090000 -0.014000
v 0.018400 0.088000 -0.016000
v 0.016400 0.088000 -0.014000
v 0.018400 0.089733 -0.014999
v 0.017401 0.089733 -0.014000
v 0.017444 0.089473 -0.014956
v 0.017401 0.088000 -0.015733
v 0.018400 0.088999 -0.015733
v 0.017444 0.088956 -0.015473
v 0.016667 0.088999 -0.014000
v 0.016667 0.088000 -0.014999
v 0.016927 0.088956 -0.014956
v 0.032800 -0.090000 0.014000
v 0.034800 -0.088000 0.014000
v 0.032800 -0.088000 0.016000
v 0.033799 -0.089733 0.014000
v 0.032800 -0.089733 0.014999
v 0.033756 -0.089473 0.014956
v 0.034533 -0.088000 0.014999
v 0.034533 -0.088999 0.014000
v 0.034273 -0.088956 0.014956
v 0.032800 -0.088999 0.015733
v 0.033799 -0.088000 0.015733
v 0.033756 -0.088956 0.015473
v 0.032800 0.090000 0.014000
v 0.032800 0.088000 0.016000
v 0.034800 0.088000 0.014000
v 0.032800 0.089733 0.014999
v 0.033799 0.089733 0.014000
v 0.033756 0.089473 0.014956
v 0.033799 0.088000 0.015733
v 0.032800 0.088999 0.015733
v 0.033756 0.088956 0.015473
v 0.034533 0.088999 0.014000
v 0.034533 0.088000 0.014999
v 0.034273 0.088956 0.014956
v 0.032800 -0.090000 -0.014000
v 0.032800 -0.088000 -0.016000
v 0.034800 -0.088000 -0.014000
v 0.032800 -0.089733 -0.014999
v 0.033799 -0.089733 -0.014000
v 0.033756 -0.089473 -0.014956
v 0.033799 -0.088000 -0.015733
v 0.032800 -0.088999 -0.015733
v 0.033756 -0.088956 -0.015473
v 0.034533 -0.088999 -0.014000
v 0.034533 -0.088000 -0.014999
v 0.034273 -0.088956 -0.014956
v 0.032800 0.090000 -0.014000
v 0.034800 0.088000 -0.014000
v 0.032800 0.088000 -0.016000
v 0.033799 0.089733 -0.014000
v 0.032800 0.089733 -0.014999
v 0.033756 0.089473 -0.014956
v 0.034533 0.088000 -0.014999
v 0.034533 0.088999 -0.014000
v 0.034273 0.088956 -0.014956
v 0.032800 0.088999 -0.015733
v 0.033799 0.088000 -0.015733
v 0.033756 0.088956 -0.015473
v 0.022600 -0.046800 0.016000
v 0.023173 -0.048563 0.016000
v 0.022747 -0.047727 0.016000
v 0.022747 -0.045873 0.016000
v 0.024673 -0.049653 0.016000
v 0.024673 -0.043947 0.016000
v 0.023837 -0.049227 0.016000
v 0.023837 -0.044373 0.016000
v 0.023173 -0.045037 0.016000
v 0.027363 -0.049227 0.016000
v 0.026527 -0.049653 0.016000
v 0.026527 -0.043947 0.016000
v 0.028027 -0.045037 0.016000
v 0.028453 -0.047727 0.016000
v 0.028600 -0.046800 0.016000
v 0.028027 -0.048563 0.016000
v 0.028453 -0.045873 0.016000
v 0.025600 -0.049800 0.016000
v 0.027363 -0.044373 0.016000
v 0.025600 -0.043800 0.016000
v 0.022747 -0.047727 -0.016000
v 0.022600 -0.046800 -0.016000
v 0.023173 -0.048563 -0.016000
v 0.022747 -0.045873 -0.016000
v 0.023837 -0.044373 -0.016000
v 0.024673 -0.049653 -0.016000
v 0.023837 -0.049227 -0.016000
v 0.024673 -0.043947 -0.016000
v 0.025600 -0.049800 -0.016000
v 0.023173 -0.045037 -0.016000
v 0.027363 -0.049227 -0.016000
v 0.027363 -0.044373 -0.016000
v 0.026527 -0.049653 -0.016000
v 0.026527 -0.043947 -0.016000
v 0.028600 -0.046800 -0.016000
v 0.028453 -0.045873 -0.016000
v 0.028027 -0.048563 -0.016000
v 0.028453 -0.047727 -0.016000
v 0.028027 -0.045037 -0.016000
v 0.025600 -0.043800 -0.016000
v 0.025600 0.003000 0.016000
v 0.026527 -0.002853 0.016000
v 0.026527 0.002853 0.016000
v 0.028027 -0.001763 0.016000
v 0.028027 0.001763 0.016000
v 0.028600 0.000000 0.016000
v 0.028453 -0.000927 0.016000
v 0.028453 0.000927 0.016000
v 0.027363 -0.002427 0.016000
v 0.027363 0.002427 0.016000
v 0.025600 -0.003000 0.016000
v 0.024673 0.002853 0.016000
v 0.024673 -0.002853 0.016000
v 0.024548 -0.002789 0.016000
v 0.023837 0.002427 0.016000
v 0.023974 -0.002497 0.016000
v 0.023173 0.001763 0.016000
v 0.023837 -0.002427 0.016000
v 0.022600 0.000000 0.016000
v 0.022747 0.000927 0.016000
v 0.023173 -0.001763 0.016000
v 0.022747 -0.000927 0.016000
v 0.022600 0.000000 -0.016000
v 0.022747 -0.000927 -0.016000
v 0.023173 0.001763 -0.016000
v 0.023173 -0.001763 -0.016000
v 0.022747 0.000927 -0.016000
v 0.023837 -0.002427 -0.016000
v 0.025600 0.003000 -0.016000
v 0.024673 -0.002853 -0.016000
v 0.024673 0.002853 -0.016000
v 0.023837 0.002427 -0.016000
v 0.025600 -0.003000 -0.016000
v 0.026527 0.002853 -0.016000
v 0.026527 -0.002853 -0.016000
v 0.026652 -0.002789 -0.016000
v 0.027363 0.002427 -0.016000
v 0.027226 -0.002497 -0.016000
v 0.027363 -0.002427 -0.016000
v 0.028027 0.001763 -0.016000
v 0.028027 -0.001763 -0.016000
v 0.028600 0.000000 -0.016000
v 0.028453 -0.000927 -0.016000
v 0.028453 0.000927 -0.016000
v 0.022600 0.046800 0.016000
v 0.022747 0.047727 0.016000
v 0.022747 0.045873 0.016000
v 0.023837 0.044373 0.016000
v 0.023837 0.049227 0.016000
v 0.024673 0.043947 0.016000
v 0.023173 0.045037 0.016000
v 0.023173 0.048563 0.016000
v 0.025600 0.043800 0.016000
v 0.025600 0.049800 0.016000
v 0.027363 0.044373 0.016000
v 0.028027 0.048563 0.016000
v 0.027363 0.049227 0.016000
v 0.026527 0.043947 0.016000
v 0.026527 0.049653 0.016000
v 0.024673 0.049653 0.016000
v 0.028027 0.045037 0.016000
v 0.028453 0.047727 0.016000
v 0.028453 0.045873 0.016000
v 0.028600 0.046800 0.016000
v 0.023173 0.048563 -0.016000
v 0.023837 0.049227 -0.016000
v 0.025600 0.043800 -0.016000
v 0.024673 0.043947 -0.016000
v 0.025600 0.049800 -0.016000
v 0.023837 0.044373 -0.016000
v 0.024673 0.049653 -0.016000
v 0.027363 0.044373 -0.016000
v 0.027363 0.049227 -0.016000
v 0.028600 0.046800 -0.016000
v 0.028453 0.045873 -0.016000
v 0.028453 0.047727 -0.016000
v 0.028027 0.048563 -0.016000
v 0.026527 0.043947 -0.016000
v 0.028027 0.045037 -0.016000
v 0.026527 0.049653 -0.016000
v 0.022747 0.047727 -0.016000
v 0.023173 0.045037 -0.016000
v 0.022600 0.046800 -0.016000
v 0.022747 0.045873 -0.016000
v -0.022707 -0.052039 0.030400
v -0.016172 -0.052000 0.023900
v -0.015500 -0.058500 0.030400
v -0.021828 -0.052026 0.027154
v -0.021492 -0.055272 0.030400
v -0.020652 -0.055123 0.027292
v -0.015830 -0.055239 0.024768
v -0.019429 -0.052012 0.024768
v -0.018964 -0.055113 0.025612
v -0.018846 -0.057644 0.030400
v -0.015584 -0.057625 0.027154
v -0.018790 -0.056793 0.027292
v 0.022707 -0.052039 0.030400
v 0.015500 -0.058500 0.030400
v 0.016172 -0.052000 0.023900
v 0.021492 -0.055272 0.030400
v 0.021828 -0.052026 0.027154
v 0.020652 -0.055123 0.027292
v 0.015584 -0.057625 0.027154
v 0.018846 -0.057644 0.030400
v 0.018790 -0.056793 0.027292
v 0.019429 -0.052012 0.024768
v 0.015830 -0.055239 0.024768
v 0.018964 -0.055113 0.025612
v 0.028300 0.058500 0.030400
v 0.034093 0.052039 0.030400
v 0.027550 0.052000 0.023900
v 0.031459 0.057644 0.030400
v 0.028192 0.057625 0.027154
v 0.031217 0.056793 0.027292
v 0.033211 0.052026 0.027154
v 0.033586 0.055272 0.030400
v 0.032714 0.055123 0.027292
v 0.027917 0.055239 0.024768
v 0.030809 0.052012 0.024768
v 0.031023 0.055113 0.025612
v -0.034093 0.052039 0.030400
v -0.028300 0.058500 0.030400
v -0.027550 0.052000 0.023900
v -0.033586 0.055272 0.030400
v -0.033211 0.052026 0.027154
v -0.032714 0.055123 0.027292
v -0.028192 0.057625 0.027154
v -0.031459 0.057644 0.030400
v -0.031217 0.056793 0.027292
v -0.030809 0.052012 0.024768
v -0.027917 0.055239 0.024768
v -0.031023 0.055113 0.025612
v -0.016172 -0.052000 0.036900
v -0.021828 -0.052026 0.033646
v -0.020652 -0.055123 0.033508
v -0.015584 -0.057625 0.033646
v -0.018790 -0.056793 0.033508
v -0.019429 -0.052012 0.036032
v -0.015830 -0.055239 0.036032
v -0.018964 -0.055113 0.035188
v 0.016172 -0.052000 0.036900
v 0.015584 -0.057625 0.033646
v 0.018790 -0.056793 0.033508
v 0.021828 -0.052026 0.033646
v 0.020652 -0.055123 0.033508
v 0.015830 -0.055239 0.036032
v 0.019429 -0.052012 0.036032
v 0.018964 -0.055113 0.035188
v 0.027550 0.052000 0.036900
v 0.033211 0.052026 0.033646
v 0.032714 0.055123 0.033508
v 0.028192 0.057625 0.033646
v 0.031217 0.056793 0.033508
v 0.030809 0.052012 0.036032
v 0.027917 0.055239 0.036032
v 0.031023 0.055113 0.035188
v -0.027550 0.052000 0.036900
v -0.033211 0.052026 0.033646
v -0.032714 0.055123 0.033508
v -0.027917 0.055239 0.036032
v -0.030809 0.052012 0.036032
v -0.031023 0.055113 0.035188
v -0.028192 0.057625 0.033646
v -0.031217 0.056793 0.033508
v -0.005000 -0.041400 0.042000
v -0.005000 -0.040400 0.043000
v -0.006000 -0.040400 0.042000
v -0.005000 -0.041266 0.042499
v -0.005499 -0.041266 0.042000
v -0.005478 -0.041137 0.042478
v -0.005499 -0.040400 0.042866
v -0.005000 -0.040899 0.042866
v -0.005478 -0.040878 0.042737
v -0.005866 -0.040899 0.042000
v -0.005866 -0.040400 0.042499
v -0.005737 -0.040878 0.042478
v -0.005000 0.040400 0.043000
v -0.005000 0.041400 0.042000
v -0.006000 0.040400 0.042000
v -0.005000 0.040899 0.042866
v -0.005499 0.040400 0.042866
v -0.005478 0.040878 0.042737
v -0.005499 0.041266 0.042000
v -0.005000 0.041266 0.042499
v -0.005478 0.041137 0.042478
v -0.005866 0.040400 0.042499
v -0.005866 0.040899 0.042000
v -0.005737 0.040878 0.042478
v -0.005000 -0.041400 0.038000
v -0.006000 -0.040400 0.038000
v -0.005000 -0.040400 0.037000
v -0.005499 -0.041266 0.038000
v -0.005000 -0.041266 0.037501
v -0.005478 -0.041137 0.037522
v -0.005866 -0.040400 0.037501
v -0.005866 -0.040899 0.038000
v -0.005737 -0.040878 0.037522
v -0.005000 -0.040899 0.037134
v -0.005499 -0.040400 0.037134
v -0.005478 -0.040878 0.037263
v -0.005000 0.041400 0.038000
v -0.005000 0.040400 0.037000
v -0.006000 0.040400 0.038000
v -0.005000 0.041266 0.037501
v -0.005499 0.041266 0.038000
v -0.005478 0.041137 0.037522
v -0.005499 0.040400 0.037134
v -0.005000 0.040899 0.037134
v -0.005478 0.040878 0.037263
v -0.005866 0.040899 0.038000
v -0.005866 0.040400 0.037501
v -0.005737 0.040878 0.037522
v 0.005000 -0.041400 0.042000
v 0.006000 -0.040400 0.042000
v 0.005000 -0.040400 0.043000
v 0.005499 -0.041266 0.042000
v 0.005000 -0.041266 0.042499
v 0.005478 -0.041137 0.042478
v 0.005866 -0.040400 0.042499
v 0.005866 -0.040899 0.042000
v 0.005737 -0.040878 0.042478
v 0.005000 -0.040899 0.042866
v 0.005499 -0.040400 0.042866
v 0.005478 -0.040878 0.042737
v 0.005000 0.041400 0.042000
v 0.005000 0.040400 0.043000
v 0.006000 0.040400 0.042000
v 0.005000 0.041266 0.042499
v 0.005499 0.041266 0.042000
v 0.005478 0.041137 0.042478
v 0.005499 0.040400 0.042866
v 0.005000 0.040899 0.042866
v 0.005478 0.040878 0.042737
v 0.005866 0.040899 0.042000
v 0.005866 0.040400 0.042499
v 0.005737 0.040878 0.042478
v 0.005000 -0.041400 0.038000
v 0.005000 -0.040400 0.037000
v 0.006000 -0.040400 0.038000
v 0.005000 -0.041266 0.037501
v 0.005499 -0.041266 0.038000
v 0.005478 -0.041137 0.037522
v 0.005499 -0.040400 0.037134
v 0.005000 -0.040899 0.037134
v 0.005478 -0.040878 0.037263
v 0.005866 -0.040899 0.038000
v 0.005866 -0.040400 0.037501
v 0.005737 -0.040878 0.037522
v 0.005000 0.041400 0.038000
v 0.006000 0.040400 0.038000
v 0.005000 0.040400 0.037000
v 0.005499 0.041266 0.038000
v 0.005000 0.041266 0.037501
v 0.005478 0.041137 0.037522
v 0.005866 0.040400 0.037501
v 0.005866 0.040899 0.038000
v 0.005737 0.040878 0.037522
v 0.005000 0.040899 0.037134
v 0.005499 0.040400 0.037134
v 0.005478 0.040878 0.037263
v -0.014000 -0.063000 -0.015000
v -0.014000 -0.061000 -0.013000
v -0.016000 -0.061000 -0.015000
v -0.014000 -0.062733 -0.014001
v -0.014999 -0.062733 -0.015000
v -0.014956 -0.062473 -0.014044
v -0.014999 -0.061000 -0.013267
v -0.014000 -0.061999 -0.013267
v -0.014956 -0.061956 -0.013527
v -0.015733 -0.061999 -0.015000
v -0.015733 -0.061000 -0.014001
v -0.015473 -0.061956 -0.014044
v -0.014000 0.061000 -0.013000
v -0.014000 0.063000 -0.015000
v -0.016000 0.061000 -0.015000
v -0.014000 0.061999 -0.013267
v -0.014999 0.061000 -0.013267
v -0.014956 0.061956 -0.013527
v -0.014999 0.062733 -0.015000
v -0.014000 0.062733 -0.014001
v -0.014956 0.062473 -0.014044
v -0.015733 0.061000 -0.014001
v -0.015733 0.061999 -0.015000
v -0.015473 0.061956 -0.014044
v -0.014000 -0.063000 -0.025000
v -0.016000 -0.061000 -0.025000
v -0.014000 -0.061000 -0.027000
v -0.014999 -0.062733 -0.025000
v -0.014000 -0.062733 -0.025999
v -0.014956 -0.062473 -0.025956
v -0.015733 -0.061000 -0.025999
v -0.015733 -0.061999 -0.025000
v -0.015473 -0.061956 -0.025956
v -0.014000 -0.061999 -0.026733
v -0.014999 -0.061000 -0.026733
v -0.014956 -0.061956 -0.026473
v -0.014000 0.063000 -0.025000
v -0.014000 0.061000 -0.027000
v -0.016000 0.061000 -0.025000
v -0.014000 0.062733 -0.025999
v -0.014999 0.062733 -0.025000
v -0.014956 0.062473 -0.025956
v -0.014999 0.061000 -0.026733
v -0.014000 0.061999 -0.026733
v -0.014956 0.061956 -0.026473
v -0.015733 0.061999 -0.025000
v -0.015733 0.061000 -0.025999
v -0.015473 0.061956 -0.025956
v 0.014000 -0.063000 -0.015000
v 0.016000 -0.061000 -0.015000
v 0.014000 -0.061000 -0.013000
v 0.014999 -0.062733 -0.015000
v 0.014000 -0.062733 -0.014001
v 0.014956 -0.062473 -0.014044
v 0.015733 -0.061000 -0.014001
v 0.015733 -0.061999 -0.015000
v 0.015473 -0.061956 -0.014044
v 0.014000 -0.061999 -0.013267
v 0.014999 -0.061000 -0.013267
v 0.014956 -0.061956 -0.013527
v 0.014000 0.063000 -0.015000
v 0.014000 0.061000 -0.013000
v 0.016000 0.061000 -0.015000
v 0.014000 0.062733 -0.014001
v 0.014999 0.062733 -0.015000
v 0.014956 0.062473 -0.014044
v 0.014999 0.061000 -0.013267
v 0.014000 0.061999 -0.013267
v 0.014956 0.061956 -0.013527
v 0.015733 0.061999 -0.015000
v 0.015733 0.061000 -0.014001
v 0.015473 0.061956 -0.014044
v 0.014000 -0.063000 -0.025000
v 0.014000 -0.061000 -0.027000
v 0.016000 -0.061000 -0.025000
v 0.014000 -0.062733 -0.025999
v 0.014999 -0.062733 -0.025000
v 0.014956 -0.062473 -0.025956
v 0.014999 -0.061000 -0.026733
v 0.014000 -0.061999 -0.026733
v 0.014956 -0.061956 -0.026473
v 0.015733 -0.061999 -0.025000
v 0.015733 -0.061000 -0.025999
v 0.015473 -0.061956 -0.025956
v 0.014000 0.063000 -0.025000
v 0.016000 0.061000 -0.025000
v 0.014000 0.061000 -0.027000
v 0.014999 0.062733 -0.025000
v 0.014000 0.062733 -0.025999
v 0.014956 0.062473 -0.025956
v 0.015733 0.061000 -0.025999
v 0.015733 0.061999 -0.025000
v 0.015473 0.061956 -0.025956
v 0.014000 0.061999 -0.026733
v 0.014999 0.061000 -0.026733
v 0.014956 0.061956 -0.026473
v -0.038000 -0.090000 0.022000
v -0.038000 -0.088000 0.024000
v -0.040000 -0.088000 0.022000
v -0.038000 -0.089733 0.022999
v -0.038999 -0.089733 0.022000
v -0.038956 -0.089473 0.022956
v -0.038999 -0.088000 0.023733
v -0.038000 -0.088999 0.023733
v -0.038956 -0.088956 0.023473
v -0.039733 -0.088999 0.022000
v -0.039733 -0.088000 0.022999
v -0.039473 -0.088956 0.022956
v -0.038000 -0.080000 0.024000
v -0.038000 -0.078000 0.022000
v -0.040000 -0.080000 0.022000
v -0.038000 -0.079001 0.023733
v -0.038999 -0.080000 0.023733
v -0.038956 -0.079044 0.023473
v -0.038999 -0.078267 0.022000
v -0.038000 -0.078267 0.022999
v -0.038956 -0.078527 0.022956
v -0.039733 -0.080000 0.022999
v -0.039733 -0.079001 0.022000
v -0.039473 -0.079044 0.022956
v -0.038000 -0.090000 -0.022000
v -0.040000 -0.088000 -0.022000
v -0.038000 -0.088000 -0.024000
v -0.038999 -0.089733 -0.022000
v -0.038000 -0.089733 -0.022999
v -0.038956 -0.089473 -0.022956
v -0.039733 -0.088000 -0.022999
v -0.039733 -0.088999 -0.022000
v -0.039473 -0.088956 -0.022956
v -0.038000 -0.088999 -0.023733
v -0.038999 -0.088000 -0.023733
v -0.038956 -0.088956 -0.023473
v -0.038000 -0.078000 -0.022000
v -0.038000 -0.080000 -0.024000
v -0.040000 -0.080000 -0.022000
v -0.038000 -0.078267 -0.022999
v -0.038999 -0.078267 -0.022000
v -0.038956 -0.078527 -0.022956
v -0.038999 -0.080000 -0.023733
v -0.038000 -0.079001 -0.023733
v -0.038956 -0.079044 -0.023473
v -0.039733 -0.079001 -0.022000
v -0.039733 -0.080000 -0.022999
v -0.039473 -0.079044 -0.022956
v 0.038000 -0.090000 0.022000
v 0.040000 -0.088000 0.022000
v 0.038000 -0.088000 0.024000
v 0.038999 -0.089733 0.022000
v 0.038000 -0.089733 0.022999
v 0.038956 -0.089473 0.022956
v 0.039733 -0.088000 0.022999
v 0.039733 -0.088999 0.022000
v 0.039473 -0.088956 0.022956
v 0.038000 -0.088999 0.023733
v 0.038999 -0.088000 0.023733
v 0.038956 -0.088956 0.023473
v 0.038000 -0.078000 0.022000
v 0.038000 -0.080000 0.024000
v 0.040000 -0.080000 0.022000
v 0.038000 -0.078267 0.022999
v 0.038999 -0.078267 0.022000
v 0.038956 -0.078527 0.022956
v 0.038999 -0.080000 0.023733
v 0.038000 -0.079001 0.023733
v 0.038956 -0.079044 0.023473
v 0.039733 -0.079001 0.022000
v 0.039733 -0.080000 0.022999
v 0.039473 -0.079044 0.022956
v 0.038000 -0.090000 -0.022000
v 0.038000 -0.088000 -0.024000
v 0.040000 -0.088000 -0.022000
v 0.038000 -0.089733 -0.022999
v 0.038999 -0.089733 -0.022000
v 0.038956 -0.089473 -0.022956
v 0.038999 -0.088000 -0.023733
v 0.038000 -0.088999 -0.023733
v 0.038956 -0.088956 -0.023473
v 0.039733 -0.088999 -0.022000
v 0.039733 -0.088000 -0.022999
v 0.039473 -0.088956 -0.022956
v 0.038000 -0.078000 -0.022000
v 0.040000 -0.080000 -0.022000
v 0.038000 -0.080000 -0.024000
v 0.038999 -0.078267 -0.022000
v 0.038000 -0.078267 -0.022999
v 0.038956 -0.078527 -0.022956
v 0.039733 -0.080000 -0.022999
v 0.039733 -0.079001 -0.022000
v 0.039473 -0.079044 -0.022956
v 0.038000 -0.079001 -0.023733
v 0.038999 -0.080000 -0.023733
v 0.038956 -0.079044 -0.023473
v -0.038000 0.078000 0.022000
v -0.038000 0.080000 0.024000
v -0.040000 0.080000 0.022000
v -0.038000 0.078267 0.022999
v -0.038999 0.078267 0.022000
v -0.038956 0.078527 0.022956
v -0.038999 0.080000 0.023733
v -0.038000 0.079001 0.023733
v -0.038956 0.079044 0.023473
v -0.039733 0.079001 0.022000
v -0.039733 0.080000 0.022999
v -0.039473 0.079044 0.022956
v -0.038000 0.088000 0.024000
v -0.038000 0.090000 0.022000
v -0.040000 0.088000 0.022000
v -0.038000 0.088999 0.023733
v -0.038999 0.088000 0.023733
v -0.038956 0.088956 0.023473
v -0.038999 0.089733 0.022000
v -0.038000 0.089733 0.022999
v -0.038956 0.089473 0.022956
v -0.039733 0.088000 0.022999
v -0.039733 0.088999 0.022000
v -0.039473 0.088956 0.022956
v -0.038000 0.078000 -0.022000
v -0.040000 0.080000 -0.022000
v -0.038000 0.080000 -0.024000
v -0.038999 0.078267 -0.022000
v -0.038000 0.078267 -0.022999
v -0.038956 0.078527 -0.022956
v -0.039733 0.080000 -0.022999
v -0.039733 0.079001 -0.022000
v -0.039473 0.079044 -0.022956
v -0.038000 0.079001 -0.023733
v -0.038999 0.080000 -0.023733
v -0.038956 0.079044 -0.023473
v -0.038000 0.090000 -0.022000
v -0.038000 0.088000 -0.024000
v -0.040000 0.088000 -0.022000
v -0.038000 0.089733 -0.022999
v -0.038999 0.089733 -0.022000
v -0.038956 0.089473 -0.022956
v -0.038999 0.088000 -0.023733
v -0.038000 0.088999 -0.023733
v -0.038956 0.088956 -0.023473
v -0.039733 0.088999 -0.022000
v -0.039733 0.088000 -0.022999
v -0.039473 0.088956 -0.022956
v 0.038000 0.078000 0.022000
v 0.040000 0.080000 0.022000
v 0.038000 0.080000 0.024000
v 0.038999 0.078267 0.022000
v 0.038000 0.078267 0.022999
v 0.038956 0.078527 0.022956
v 0.039733 0.080000 0.022999
v 0.039733 0.079001 0.022000
v 0.039473 0.079044 0.022956
v 0.038000 0.079001 0.023733
v 0.038999 0.080000 0.023733
v 0.038956 0.079044 0.023473
v 0.038000 0.090000 0.022000
v 0.038000 0.088000 0.024000
v 0.040000 0.088000 0.022000
v 0.038000 0.089733 0.022999
v 0.038999 0.089733 0.022000
v 0.038956 0.089473 0.022956
v 0.038999 0.088000 0.023733
v 0.038000 0.088999 0.023733
v 0.038956 0.088956 0.023473
v 0.039733 0.088999 0.022000
v 0.039733 0.088000 0.022999
v 0.039473 0.088956 0.022956
v 0.038000 0.078000 -0.022000
v 0.038000 0.080000 -0.024000
v 0.040000 0.080000 -0.022000
v 0.038000 0.078267 -0.022999
v 0.038999 0.078267 -0.022000
v 0.038956 0.078527 -0.022956
v 0.038999 0.080000 -0.023733
v 0.038000 0.079001 -0.023733
v 0.038956 0.079044 -0.023473
v 0.039733 0.079001 -0.022000
v 0.039733 0.080000 -0.022999
v 0.039473 0.079044 -0.022956
v 0.038000 0.090000 -0.022000
v 0.040000 0.088000 -0.022000
v 0.038000 0.088000 -0.024000
v 0.038999 0.089733 -0.022000
v 0.038000 0.089733 -0.022999
v 0.038956 0.089473 -0.022956
v 0.039733 0.088000 -0.022999
v 0.039733 0.088999 -0.022000
v 0.039473 0.088956 -0.022956
v 0.038000 0.088999 -0.023733
v 0.038999 0.088000 -0.023733
v 0.038956 0.088956 -0.023473
vn -0.2490 -0.9317 0.2646
vn -0.2187 -0.6900 0.6900
vn -0.2646 -0.2490 0.9317
vn -0.6900 -0.2187 0.6900
vn -0.9317 -0.2646 0.2490
vn -0.6900 -0.6900 0.2187
vn -0.5774 -0.5773 0.5774
vn -0.2490 0.2646 0.9317
vn -0.2187 0.6900 0.6900
vn -0.2646 0.9317 0.2490
vn -0.6900 0.6900 0.2187
vn -0.9317 0.2490 0.2646
vn -0.6900 0.2187 0.6900
vn -0.5774 0.5773 0.5774
vn -0.2646 -0.9317 -0.2490
vn -0.6900 -0.6900 -0.2187
vn -0.9317 -0.2490 -0.2646
vn -0.6900 -0.2187 -0.6900
vn -0.2490 -0.2646 -0.9317
vn -0.2187 -0.6900 -0.6900
vn -0.5774 -0.5773 -0.5774
vn -0.2490 0.9317 -0.2646
vn -0.2187 0.6900 -0.6900
vn -0.2646 0.2490 -0.9317
vn -0.6900 0.2187 -0.6900
vn -0.9317 0.2646 -0.2490
vn -0.6900 0.6900 -0.2187
vn -0.5774 0.5773 -0.5774
vn 0.2646 -0.9317 0.2490
vn 0.6900 -0.6900 0.2187
vn 0.9317 -0.2490 0.2646
vn 0.6900 -0.2187 0.6900
vn 0.2490 -0.2646 0.9317
vn 0.2187 -0.6900 0.6900
vn 0.5774 -0.5773 0.5773
vn 0.2490 0.9317 0.2646
vn 0.2187 0.6900 0.6900
vn 0.2646 0.2490 0.9317
vn 0.6900 0.2187 0.6900
vn 0.9317 0.2646 0.2490
vn 0.6900 0.6900 0.2187
vn 0.5774 0.5773 0.5773
vn 0.2490 -0.9317 -0.2646
vn 0.2187 -0.6900 -0.6900
vn 0.2646 -0.2490 -0.9317
vn 0.6900 -0.2187 -0.6900
vn 0.9317 -0.2646 -0.2490
vn 0.6900 -0.6900 -0.2187
vn 0.5774 -0.5773 -0.5773
vn 0.2646 0.9317 -0.2490
vn 0.6900 0.6900 -0.2187
vn 0.9317 0.2490 -0.2646
vn 0.6900 0.2187 -0.6900
vn 0.2490 0.2646 -0.9317
vn 0.2187 0.6900 -0.6900
vn 0.5774 0.5773 -0.5773
vn -0.2582 -0.9661 -0.0000
vn -0.7071 -0.7071 -0.0000
vn -0.9661 -0.2582 -0.0000
vn -0.2582 -0.0000 0.9661
vn -0.7071 -0.0000 0.7071
vn -0.9661 -0.0000 0.2582
vn -0.2582 0.9661 -0.0000
vn -0.7071 0.7071 -0.0000
vn -0.9661 0.2582 -0.0000
vn -0.2582 -0.0000 -0.9661
vn -0.7071 -0.0000 -0.7071
vn -0.9661 -0.0000 -0.2582
vn -0.0000 -0.9661 -0.2582
vn -0.0000 -0.7071 -0.7071
vn -0.0000 -0.2582 -0.9661
vn -0.0000 0.9661 -0.2582
vn -0.0000 0.7071 -0.7071
vn -0.0000 0.2582 -0.9661
vn 0.9661 -0.0000 -0.2582
vn 0.7071 -0.0000 -0.7071
vn 0.2582 -0.0000 -0.9661
vn 0.2582 -0.9661 -0.0000
vn 0.7071 -0.7071 -0.0000
vn 0.9661 -0.2582 -0.0000
vn 0.2582 0.9661 -0.0000
vn 0.7071 0.7071 -0.0000
vn 0.9661 0.2582 -0.0000
vn 0.2582 -0.0000 0.9661
vn 0.7071 -0.0000 0.7071
vn 0.9661 -0.0000 0.2582
vn -0.0000 -0.9661 0.2582
vn -0.0000 -0.7071 0.7071
vn -0.0000 -0.2582 0.9661
vn -0.0000 0.9661 0.2582
vn -0.0000 0.7071 0.7071
vn -0.0000 0.2582 0.9661
vn -0.0000 -1.0000 -0.0000
vn -1.0000 -0.0000 -0.0000
vn -0.0000 -0.0000 1.0000
vn -0.0000 1.0000 -0.0000
vn -0.0000 -0.0000 -1.0000
vn 1.0000 -0.0000 -0.0000
vn -0.1566 -0.9877 -0.0000
vn -0.4540 -0.8910 -0.0000
vn -0.8910 -0.4540 -0.0000
vn -0.9877 -0.1566 -0.0000
vn -0.9877 0.1566 -0.0000
vn -0.8910 0.4540 -0.0000
vn -0.4540 0.8910 -0.0000
vn -0.1566 0.9877 -0.0000
vn 0.1566 0.9877 -0.0000
vn 0.4540 0.8910 -0.0000
vn 0.8910 0.4540 -0.0000
vn 0.9877 0.1566 -0.0000
vn 0.9877 -0.1566 -0.0000
vn 0.8910 -0.4540 -0.0000
vn 0.4540 -0.8910 -0.0000
vn 0.1566 -0.9877 -0.0000
vn -0.4538 0.8911 -0.0000
vn 0.4534 0.8913 -0.0000
vn -0.5774 -0.5773 0.5773
vn -0.5774 0.5773 0.5773
vn -0.5774 -0.5773 -0.5773
vn -0.5774 0.5773 -0.5773
vn 0.5774 -0.5773 0.5774
vn 0.5774 0.5773 0.5774
vn 0.5774 -0.5773 -0.5774
vn 0.5774 0.5773 -0.5774
vn -0.4537 0.8911 -0.0000
vn -0.9038 -0.3396 -0.2605
vn -0.6750 -0.2866 -0.6799
vn -0.2456 -0.2887 -0.9254
vn -0.2114 -0.7020 -0.6801
vn -0.2534 -0.9357 -0.2457
vn -0.6526 -0.7277 -0.2110
vn -0.5533 -0.6169 -0.5596
vn 0.9025 -0.3537 -0.2458
vn 0.6526 -0.7276 -0.2113
vn 0.2393 -0.9354 -0.2604
vn 0.2114 -0.7020 -0.6801
vn 0.2603 -0.2755 -0.9254
vn 0.6750 -0.2863 -0.6800
vn 0.5533 -0.6169 -0.5596
vn 0.2671 0.9282 -0.2591
vn 0.7239 0.6489 -0.2341
vn 0.9502 0.1490 -0.2737
vn 0.6971 0.1432 -0.7025
vn 0.2491 0.2383 -0.9387
vn 0.2184 0.6773 -0.7025
vn 0.5947 0.5331 -0.6018
vn -0.9517 0.1643 -0.2593
vn -0.7239 0.6489 -0.2342
vn -0.2515 0.9283 -0.2738
vn -0.2183 0.6773 -0.7025
vn -0.2641 0.2216 -0.9387
vn -0.6971 0.1431 -0.7025
vn -0.5947 0.5331 -0.6018
vn -0.9025 -0.3537 0.2458
vn -0.6526 -0.7276 0.2113
vn -0.2393 -0.9354 0.2604
vn -0.2114 -0.7020 0.6801
vn -0.2603 -0.2755 0.9254
vn -0.6750 -0.2863 0.6800
vn -0.5533 -0.6169 0.5596
vn 0.2534 -0.9357 0.2457
vn 0.6527 -0.7277 0.2110
vn 0.9037 -0.3396 0.2605
vn 0.6750 -0.2866 0.6799
vn 0.2456 -0.2887 0.9254
vn 0.2114 -0.7020 0.6801
vn 0.5533 -0.6169 0.5596
vn 0.9517 0.1643 0.2593
vn 0.7239 0.6489 0.2342
vn 0.2515 0.9283 0.2738
vn 0.2183 0.6773 0.7025
vn 0.2641 0.2216 0.9387
vn 0.6971 0.1431 0.7025
vn 0.5947 0.5331 0.6018
vn -0.9502 0.1490 0.2737
vn -0.6971 0.1432 0.7025
vn -0.2491 0.2383 0.9387
vn -0.2184 0.6773 0.7025
vn -0.2671 0.9282 0.2591
vn -0.7239 0.6489 0.2341
vn -0.5947 0.5331 0.6018
vn -0.9598 -0.1050 -0.2603
vn -0.7029 -0.0769 -0.7072
vn -0.2573 -0.0282 -0.9659
vn -0.0000 0.2589 -0.9659
vn -0.0000 0.9655 -0.2603
vn 0.2573 -0.0281 -0.9659
vn 0.7029 -0.0769 -0.7072
vn 0.9598 -0.1050 -0.2603
vn -0.0000 -0.2588 -0.9659
vn -0.0000 -0.9655 -0.2603
vn -0.2573 -0.0281 0.9659
vn -0.7029 -0.0769 0.7072
vn -0.9598 -0.1050 0.2603
vn -0.0000 -0.9655 0.2603
vn -0.0000 -0.2588 0.9659
vn 0.9598 -0.1050 0.2603
vn 0.7029 -0.0769 0.7072
vn 0.2573 -0.0282 0.9659
vn -0.0000 0.9655 0.2603
vn -0.0000 0.2588 0.9659
vn -0.9317 -0.2646 -0.2490
vn -0.2490 -0.9317 -0.2646
vn -0.9317 0.2646 0.2490
vn -0.2490 0.9317 0.2646
vn -0.2646 0.2490 0.9317
vn -0.9317 -0.2490 0.2646
vn -0.2490 -0.2646 0.9317
vn -0.2646 -0.9317 0.2490
vn -0.2502 -0.9319 0.2625
vn -0.2166 -0.6903 0.6903
vn -0.2625 -0.2503 0.9319
vn -0.6903 -0.2166 0.6903
vn -0.9319 -0.2625 0.2503
vn -0.6903 -0.6903 0.2166
vn -0.5773 -0.5774 0.5773
vn -0.2503 0.2625 0.9319
vn -0.2166 0.6903 0.6903
vn -0.2625 0.9319 0.2503
vn -0.6903 0.6903 0.2166
vn -0.9319 0.2502 0.2625
vn -0.6903 0.2166 0.6903
vn -0.5773 0.5774 0.5773
vn -0.2625 -0.9319 -0.2503
vn -0.6903 -0.6903 -0.2166
vn -0.9319 -0.2502 -0.2625
vn -0.6903 -0.2166 -0.6903
vn -0.2502 -0.2625 -0.9319
vn -0.2166 -0.6903 -0.6903
vn -0.5773 -0.5774 -0.5773
vn -0.2502 0.9319 -0.2625
vn -0.2166 0.6903 -0.6903
vn -0.2625 0.2503 -0.9319
vn -0.6903 0.2166 -0.6903
vn -0.9319 0.2625 -0.2503
vn -0.6903 0.6903 -0.2166
vn -0.5773 0.5774 -0.5773
vn 0.2625 -0.9319 0.2503
vn 0.6903 -0.6903 0.2166
vn 0.9319 -0.2502 0.2625
vn 0.6903 -0.2166 0.6903
vn 0.2503 -0.2625 0.9319
vn 0.2166 -0.6903 0.6903
vn 0.5773 -0.5774 0.5773
vn 0.2502 0.9319 0.2625
vn 0.2166 0.6903 0.6903
vn 0.2625 0.2503 0.9319
vn 0.6903 0.2166 0.6903
vn 0.9319 0.2625 0.2503
vn 0.6903 0.6903 0.2166
vn 0.5773 0.5774 0.5773
vn 0.2502 -0.9319 -0.2625
vn 0.2166 -0.6903 -0.6903
vn 0.2625 -0.2503 -0.9319
vn 0.6903 -0.2166 -0.6903
vn 0.9319 -0.2625 -0.2503
vn 0.6903 -0.6903 -0.2166
vn 0.5773 -0.5774 -0.5773
vn 0.2625 0.9319 -0.2503
vn 0.6903 0.6903 -0.2166
vn 0.9319 0.2502 -0.2625
vn 0.6903 0.2166 -0.6903
vn 0.2502 0.2625 -0.9319
vn 0.2166 0.6903 -0.6903
vn 0.5773 0.5774 -0.5773
vn -0.2594 -0.9658 -0.0000
vn -0.9658 -0.2593 -0.0000
vn -0.2594 -0.0000 0.9658
vn -0.9658 -0.0000 0.2594
vn -0.2594 0.9658 -0.0000
vn -0.9658 0.2593 -0.0000
vn -0.2593 -0.0000 -0.9658
vn -0.9658 -0.0000 -0.2594
vn -0.0000 -0.9658 -0.2593
vn -0.0000 -0.2593 -0.9658
vn -0.0000 0.9658 -0.2593
vn -0.0000 0.2593 -0.9658
vn 0.9658 -0.0000 -0.2593
vn 0.2593 -0.0000 -0.9658
vn 0.2594 -0.9658 -0.0000
vn 0.9658 -0.2593 -0.0000
vn 0.2594 0.9658 -0.0000
vn 0.9658 0.2593 -0.0000
vn 0.2594 -0.0000 0.9658
vn 0.9658 -0.0000 0.2594
vn -0.0000 -0.9658 0.2594
vn -0.0000 -0.2593 0.9658
vn -0.0000 0.9658 0.2594
vn -0.0000 0.2593 0.9658
vn -0.5774 -0.5774 -0.5774
vn -0.5774 0.5774 -0.5774
vn 0.5774 -0.5774 -0.5774
vn 0.5774 0.5774 -0.5774
vn -0.5774 0.5774 0.5773
vn -0.5774 0.5774 -0.5773
vn 0.5774 0.5774 0.5773
vn 0.5774 0.5774 -0.5773
vn -0.5774 -0.5774 0.5773
vn -0.5774 -0.5774 -0.5773
vn 0.5774 -0.5774 0.5773
vn 0.5774 -0.5774 -0.5773
vn -0.2646 -0.2490 -0.9317
vn -0.2646 0.9317 -0.2490
vn -0.2490 0.2646 -0.9317
vn -0.9317 0.2490 -0.2646
vn 0.2490 -0.9317 0.2646
vn 0.9317 -0.2646 0.2490
vn 0.2646 -0.2490 0.9317
vn 0.2646 0.9317 0.2490
vn 0.2490 0.2646 0.9317
vn 0.9317 0.2490 0.2646
vn 0.2646 -0.9317 -0.2490
vn 0.2490 -0.2646 -0.9317
vn 0.9317 -0.2490 -0.2646
vn 0.2490 0.9317 -0.2646
vn 0.9317 0.2646 -0.2490
vn 0.2646 0.2490 -0.9317
vn -0.0000 -0.0019 1.0000
vn -0.4550 0.8905 -0.0000
vn 0.4550 0.8905 -0.0000
vn 0.4557 0.8901 -0.0001
vn -0.4557 0.8901 -0.0000
vn -0.9025 -0.3537 -0.2458
vn -0.6748 -0.2863 -0.6802
vn -0.2603 -0.2755 -0.9254
vn -0.2114 -0.7019 -0.6801
vn -0.2393 -0.9354 -0.2604
vn -0.6524 -0.7278 -0.2112
vn 0.9038 -0.3396 -0.2605
vn 0.6525 -0.7278 -0.2110
vn 0.2534 -0.9357 -0.2457
vn 0.2114 -0.7019 -0.6801
vn 0.2456 -0.2887 -0.9254
vn 0.6748 -0.2865 -0.6801
vn 0.2515 0.9283 -0.2738
vn 0.7238 0.6490 -0.2342
vn 0.9517 0.1643 -0.2593
vn 0.6971 0.1431 -0.7026
vn 0.2641 0.2216 -0.9387
vn -0.9502 0.1490 -0.2737
vn -0.7238 0.6491 -0.2341
vn -0.2671 0.9282 -0.2591
vn -0.2184 0.6773 -0.7025
vn -0.2491 0.2383 -0.9387
vn -0.6971 0.1432 -0.7026
vn -0.9037 -0.3396 0.2605
vn -0.6525 -0.7278 0.2110
vn -0.2534 -0.9357 0.2457
vn -0.2114 -0.7019 0.6801
vn -0.2456 -0.2887 0.9254
vn -0.6748 -0.2865 0.6801
vn 0.2393 -0.9354 0.2604
vn 0.6524 -0.7278 0.2112
vn 0.9025 -0.3537 0.2458
vn 0.6748 -0.2863 0.6802
vn 0.2603 -0.2755 0.9254
vn 0.2114 -0.7019 0.6801
vn 0.9502 0.1490 0.2737
vn 0.7238 0.6491 0.2341
vn 0.2671 0.9282 0.2591
vn 0.2184 0.6773 0.7025
vn 0.2491 0.2383 0.9387
vn 0.6971 0.1432 0.7026
vn -0.9517 0.1643 0.2593
vn -0.6971 0.1431 0.7026
vn -0.2641 0.2216 0.9387
vn -0.2515 0.9283 0.2738
vn -0.7238 0.6490 0.2342
vn -0.9598 -0.1050 -0.2604
vn -0.7029 -0.0769 -0.7071
vn -0.2574 -0.0282 -0.9659
vn 0.2574 -0.0282 -0.9659
vn 0.7029 -0.0769 -0.7071
vn 0.9598 -0.1050 -0.2604
vn -0.0000 -0.2589 -0.9659
vn -0.2574 -0.0282 0.9659
vn -0.7029 -0.0769 0.7071
vn -0.9598 -0.1050 0.2604
vn -0.0000 -0.2589 0.9659
vn 0.9598 -0.1050 0.2604
vn 0.7029 -0.0769 0.7071
vn 0.2574 -0.0282 0.9659
vn -0.0000 0.2589 0.9659
vn -0.2625 -0.9319 0.2503
vn -0.2503 -0.2625 0.9319
vn -0.9319 -0.2502 0.2625
vn -0.2625 0.2503 0.9319
vn -0.2502 0.9319 0.2625
vn -0.9319 0.2625 0.2503
vn -0.2502 -0.9319 -0.2625
vn -0.9319 -0.2625 -0.2503
vn -0.2625 -0.2503 -0.9319
vn -0.2625 0.9319 -0.2503
vn -0.2502 0.2625 -0.9319
vn -0.9319 0.2502 -0.2625
vn 0.2502 -0.9319 0.2625
vn 0.9319 -0.2625 0.2503
vn 0.2625 -0.2503 0.9319
vn 0.2625 0.9319 0.2503
vn 0.2503 0.2625 0.9319
vn 0.9319 0.2502 0.2625
vn 0.2625 -0.9319 -0.2503
vn 0.2502 -0.2625 -0.9319
vn 0.9319 -0.2502 -0.2625
vn 0.2502 0.9319 -0.2625
vn 0.9319 0.2625 -0.2503
vn 0.2625 0.2503 -0.9319
vn -0.2593 -0.9658 -0.0000
vn -0.9658 -0.0000 0.2593
vn -0.2593 0.9658 -0.0000
vn -0.9658 -0.0000 -0.2593
vn 0.9658 -0.0000 -0.2594
vn 0.2593 -0.9658 -0.0000
vn 0.2593 0.9658 -0.0000
vn 0.9658 -0.0000 0.2593
vn -0.0000 -0.9658 0.2593
vn -0.0000 -0.2594 0.9658
vn -0.0000 0.9658 0.2593
vn -0.0000 0.2594 0.9658
s 0
usemtl ChassisMetal
f 1//1 6//1 5//1
f 4//2 9//2 6//2
f 2//3 9//3 8//3
f 7//4 12//4 9//4
f 3//5 12//5 11//5
f 10//6 6//6 12//6
f 6//7 9//7 12//7
f 13//8 18//8 17//8
f 16//9 21//9 18//9
f 14//10 21//10 20//10
f 19//11 24//11 21//11
f 15//12 24//12 23//12
f 22//13 18//13 24//13
f 18//14 21//14 24//14
f 25//15 30//15 29//15
f 28//16 33//16 30//16
f 26//17 33//17 32//17
f 31//18 36//18 33//18
f 27//19 36//19 35//19
f 34//20 30//20 36//20
f 30//21 33//21 36//21
f 37//22 42//22 41//22
f 40//23 45//23 42//23
f 38//24 45//24 44//24
f 43//25 48//25 45//25
f 39//26 48//26 47//26
f 46//27 42//27 48//27
f 42//28 45//28 48//28
f 49//29 54//29 53//29
f 52//30 57//30 54//30
f 50//31 57//31 56//31
f 55//32 60//32 57//32
f 51//33 60//33 59//33
f 58//34 54//34 60//34
f 54//35 57//35 60//35
f 61//36 66//36 65//36
f 64//37 69//37 66//37
f 62//38 69//38 68//38
f 67//39 72//39 69//39
f 63//40 72//40 71//40
f 70//41 66//41 72//41
f 66//42 69//42 72//42
f 73//43 78//43 77//43
f 76//44 81//44 78//44
f 74//45 81//45 80//45
f 79//46 84//46 81//46
f 75//47 84//47 83//47
f 82//48 78//48 84//48
f 78//49 81//49 84//49
f 85//50 90//50 89//50
f 88//51 93//51 90//51
f 86//52 93//52 92//52
f 91//53 96//53 93//53
f 87//54 96//54 95//54
f 94//55 90//55 96//55
f 90//56 93//56 96//56
f 25//57 5//57 28//57
f 28//58 10//58 32//58
f 32//59 3//59 26//59
f 2//60 17//60 7//60
f 7//61 22//61 11//61
f 11//62 15//62 3//62
f 14//63 41//63 19//63
f 19//64 46//64 23//64
f 23//65 39//65 15//65
f 38//66 35//66 43//66
f 43//67 31//67 47//67
f 47//68 26//68 39//68
f 73//69 29//69 76//69
f 76//70 34//70 80//70
f 80//71 27//71 74//71
f 37//72 89//72 40//72
f 40//73 94//73 44//73
f 44//74 87//74 38//74
f 86//75 83//75 91//75
f 91//76 79//76 95//76
f 95//77 74//77 87//77
f 49//78 77//78 52//78
f 52//79 82//79 56//79
f 56//80 75//80 50//80
f 85//81 65//81 88//81
f 88//82 70//82 92//82
f 92//83 63//83 86//83
f 62//84 59//84 67//84
f 67//85 55//85 71//85
f 71//86 50//86 63//86
f 1//87 53//87 4//87
f 4//88 58//88 8//88
f 8//89 51//89 2//89
f 61//90 20//90 64//90
f 64//91 16//91 68//91
f 68//92 13//92 62//92
f 25//93 49//93 1//93
f 3//94 39//94 26//94
f 114//95 2//95 107//95
f 62//95 196//95 190//95
f 144//95 142//95 194//95
f 152//95 108//95 150//95
f 85//96 14//96 61//96
f 38//97 216//97 205//97
f 168//97 161//97 204//97
f 124//97 174//97 136//97
f 125//97 74//97 122//97
f 75//98 63//98 50//98
f 108//99 136//99 130//99
f 115//100 130//100 128//100
f 115//58 135//58 109//58
f 109//101 132//101 113//101
f 113//102 131//102 111//102
f 111//103 134//103 110//103
f 110//104 133//104 112//104
f 112//64 127//64 106//64
f 129//105 106//105 127//105
f 125//106 107//106 129//106
f 122//107 114//107 125//107
f 123//108 101//108 122//108
f 98//82 123//82 119//82
f 99//109 119//109 117//109
f 97//110 117//110 118//110
f 100//111 118//111 120//111
f 105//112 120//112 126//112
f 104//79 126//79 121//79
f 102//113 121//113 124//113
f 116//114 124//114 136//114
f 139//99 165//99 170//99
f 146//100 170//100 173//100
f 141//58 173//58 176//58
f 141//101 180//101 144//101
f 144//102 178//102 142//102
f 142//103 179//103 143//103
f 143//104 177//104 140//104
f 175//64 140//64 177//64
f 171//115 145//115 174//115
f 138//106 169//106 147//106
f 166//107 147//107 169//107
f 164//116 152//116 150//116
f 162//82 154//82 164//82
f 158//109 162//109 160//109
f 155//110 160//110 159//110
f 156//111 159//111 163//111
f 153//112 163//112 161//112
f 151//79 161//79 168//79
f 148//113 168//113 167//113
f 137//114 167//114 165//114
f 195//99 205//99 216//99
f 193//100 216//100 209//100
f 193//58 213//58 192//58
f 192//101 212//101 198//101
f 198//102 210//102 200//102
f 200//103 211//103 199//103
f 199//104 215//104 197//104
f 197//64 208//64 191//64
f 214//105 191//105 208//105
f 203//106 194//106 214//106
f 204//107 189//107 203//107
f 206//108 186//108 204//108
f 218//82 184//82 206//82
f 220//109 187//109 218//109
f 181//110 220//110 219//110
f 182//111 219//111 217//111
f 188//112 217//112 201//112
f 185//79 201//79 202//79
f 196//113 202//113 207//113
f 190//114 207//114 205//114
f 221//1 226//1 225//1
f 224//2 229//2 226//2
f 222//3 229//3 228//3
f 227//4 232//4 229//4
f 223//5 232//5 231//5
f 230//6 226//6 232//6
f 226//117 229//117 232//117
f 233//8 238//8 237//8
f 236//9 241//9 238//9
f 234//10 241//10 240//10
f 239//11 244//11 241//11
f 235//12 244//12 243//12
f 242//13 238//13 244//13
f 238//118 241//118 244//118
f 245//15 250//15 249//15
f 248//16 253//16 250//16
f 246//17 253//17 252//17
f 251//18 256//18 253//18
f 247//19 256//19 255//19
f 254//20 250//20 256//20
f 250//119 253//119 256//119
f 257//22 262//22 261//22
f 260//23 265//23 262//23
f 258//24 265//24 264//24
f 263//25 268//25 265//25
f 259//26 268//26 267//26
f 266//27 262//27 268//27
f 262//120 265//120 268//120
f 269//29 274//29 273//29
f 272//30 277//30 274//30
f 270//31 277//31 276//31
f 275//32 280//32 277//32
f 271//33 280//33 279//33
f 278//34 274//34 280//34
f 274//121 277//121 280//121
f 281//36 286//36 285//36
f 284//37 289//37 286//37
f 282//38 289//38 288//38
f 287//39 292//39 289//39
f 283//40 292//40 291//40
f 290//41 286//41 292//41
f 286//122 289//122 292//122
f 293//43 298//43 297//43
f 296//44 301//44 298//44
f 294//45 301//45 300//45
f 299//46 304//46 301//46
f 295//47 304//47 303//47
f 302//48 298//48 304//48
f 298//123 301//123 304//123
f 305//50 310//50 309//50
f 308//51 313//51 310//51
f 306//52 313//52 312//52
f 311//53 316//53 313//53
f 307//54 316//54 315//54
f 314//55 310//55 316//55
f 310//124 313//124 316//124
f 245//57 225//57 248//57
f 248//58 230//58 252//58
f 252//59 223//59 246//59
f 222//60 237//60 227//60
f 227//61 242//61 231//61
f 231//62 235//62 223//62
f 234//63 261//63 239//63
f 239//64 266//64 243//64
f 243//65 259//65 235//65
f 258//66 255//66 263//66
f 263//67 251//67 267//67
f 267//68 246//68 259//68
f 293//69 249//69 296//69
f 296//70 254//70 300//70
f 300//71 247//71 294//71
f 257//72 309//72 260//72
f 260//73 314//73 264//73
f 264//74 307//74 258//74
f 306//75 303//75 311//75
f 311//76 299//76 315//76
f 315//77 294//77 307//77
f 269//78 297//78 272//78
f 272//79 302//79 276//79
f 276//80 295//80 270//80
f 305//81 285//81 308//81
f 308//82 290//82 312//82
f 312//83 283//83 306//83
f 282//84 279//84 287//84
f 287//85 275//85 291//85
f 291//86 270//86 283//86
f 221//87 273//87 224//87
f 224//88 278//88 228//88
f 228//89 271//89 222//89
f 281//90 240//90 284//90
f 284//91 236//91 288//91
f 288//92 233//92 282//92
f 245//93 269//93 221//93
f 223//94 259//94 246//94
f 334//95 222//95 327//95
f 282//95 416//95 410//95
f 364//95 362//95 414//95
f 372//95 328//95 370//95
f 305//96 234//96 281//96
f 258//97 436//97 425//97
f 388//97 381//97 424//97
f 344//97 394//97 356//97
f 345//97 294//97 342//97
f 295//98 283//98 270//98
f 328//99 356//99 350//99
f 335//100 350//100 348//100
f 335//58 355//58 329//58
f 329//101 352//101 333//101
f 333//102 351//102 331//102
f 331//103 354//103 330//103
f 330//104 353//104 332//104
f 332//64 347//64 326//64
f 349//105 326//105 347//105
f 345//106 327//106 349//106
f 342//107 334//107 345//107
f 343//108 321//108 342//108
f 318//82 343//82 339//82
f 319//109 339//109 337//109
f 317//110 337//110 338//110
f 320//111 338//111 340//111
f 325//112 340//112 346//112
f 324//79 346//79 341//79
f 322//113 341//113 344//113
f 336//114 344//114 356//114
f 359//99 385//99 390//99
f 366//100 390//100 393//100
f 361//58 393//58 396//58
f 361//101 400//101 364//101
f 364//102 398//102 362//102
f 362//103 399//103 363//103
f 363//104 397//104 360//104
f 395//64 360//64 397//64
f 392//125 358//125 395//125
f 358//106 389//106 367//106
f 386//107 367//107 389//107
f 384//116 372//116 370//116
f 382//82 374//82 384//82
f 378//109 382//109 380//109
f 375//110 380//110 379//110
f 376//111 379//111 383//111
f 373//112 383//112 381//112
f 371//79 381//79 388//79
f 368//113 388//113 387//113
f 357//114 387//114 385//114
f 415//99 425//99 436//99
f 413//100 436//100 429//100
f 413//58 433//58 412//58
f 412//101 432//101 418//101
f 418//102 430//102 420//102
f 420//103 431//103 419//103
f 419//104 435//104 417//104
f 417//64 428//64 411//64
f 434//105 411//105 428//105
f 423//106 414//106 434//106
f 424//107 409//107 423//107
f 426//108 406//108 424//108
f 438//82 404//82 426//82
f 440//109 407//109 438//109
f 401//110 440//110 439//110
f 402//111 439//111 437//111
f 408//112 437//112 421//112
f 405//79 421//79 422//79
f 416//113 422//113 427//113
f 410//114 427//114 425//114
f 31//18 35//18 36//18
f 26//202 31//202 33//202
f 28//16 32//16 33//16
f 25//203 28//203 30//203
f 22//13 17//13 18//13
f 15//204 22//204 24//204
f 19//11 23//11 24//11
f 14//205 19//205 21//205
f 16//9 20//9 21//9
f 13//206 16//206 18//206
f 10//6 5//6 6//6
f 3//207 10//207 12//207
f 7//4 11//4 12//4
f 2//208 7//208 9//208
f 4//2 8//2 9//2
f 1//209 4//209 6//209
f 27//302 34//302 36//302
f 34//20 29//20 30//20
f 37//303 40//303 42//303
f 40//23 44//23 45//23
f 38//304 43//304 45//304
f 43//25 47//25 48//25
f 39//305 46//305 48//305
f 46//27 41//27 42//27
f 49//306 52//306 54//306
f 52//30 56//30 57//30
f 50//307 55//307 57//307
f 55//32 59//32 60//32
f 51//308 58//308 60//308
f 58//34 53//34 54//34
f 61//309 64//309 66//309
f 64//37 68//37 69//37
f 62//310 67//310 69//310
f 67//39 71//39 72//39
f 63//311 70//311 72//311
f 70//41 65//41 66//41
f 73//312 76//312 78//312
f 76//44 80//44 81//44
f 74//313 79//313 81//313
f 79//46 83//46 84//46
f 75//314 82//314 84//314
f 82//48 77//48 78//48
f 85//315 88//315 90//315
f 88//51 92//51 93//51
f 86//316 91//316 93//316
f 91//53 95//53 96//53
f 87//317 94//317 96//317
f 94//55 89//55 90//55
f 25//57 1//57 5//57
f 28//58 5//58 10//58
f 32//59 10//59 3//59
f 2//60 13//60 17//60
f 7//61 17//61 22//61
f 11//62 22//62 15//62
f 14//63 37//63 41//63
f 19//64 41//64 46//64
f 23//65 46//65 39//65
f 38//66 27//66 35//66
f 43//67 35//67 31//67
f 47//68 31//68 26//68
f 73//69 25//69 29//69
f 76//70 29//70 34//70
f 80//71 34//71 27//71
f 37//72 85//72 89//72
f 40//73 89//73 94//73
f 44//74 94//74 87//74
f 86//75 75//75 83//75
f 91//76 83//76 79//76
f 95//77 79//77 74//77
f 49//78 73//78 77//78
f 52//79 77//79 82//79
f 56//80 82//80 75//80
f 85//81 61//81 65//81
f 88//82 65//82 70//82
f 92//83 70//83 63//83
f 62//84 51//84 59//84
f 67//85 59//85 55//85
f 71//86 55//86 50//86
f 1//87 49//87 53//87
f 4//88 53//88 58//88
f 8//89 58//89 51//89
f 61//90 14//90 20//90
f 64//91 20//91 16//91
f 68//92 16//92 13//92
f 25//93 73//93 49//93
f 3//94 15//94 39//94
f 114//95 101//95 2//95
f 2//95 51//95 107//95
f 190//95 195//95 62//95
f 62//95 13//95 196//95
f 2//95 101//95 103//95
f 2//95 103//95 98//95
f 185//95 196//95 13//95
f 188//95 185//95 13//95
f 2//95 98//95 99//95
f 2//95 99//95 97//95
f 182//95 188//95 13//95
f 181//95 182//95 13//95
f 13//95 2//95 97//95
f 13//95 97//95 100//95
f 13//95 100//95 105//95
f 13//95 105//95 104//95
f 13//95 104//95 102//95
f 102//95 116//95 152//95
f 102//95 152//95 154//95
f 62//95 195//95 193//95
f 106//95 107//95 51//95
f 112//95 106//95 51//95
f 62//95 193//95 192//95
f 62//95 192//95 198//95
f 110//95 112//95 51//95
f 111//95 110//95 51//95
f 62//95 198//95 200//95
f 51//95 62//95 200//95
f 51//95 200//95 199//95
f 51//95 199//95 197//95
f 51//95 197//95 191//95
f 51//95 191//95 194//95
f 102//95 154//95 157//95
f 102//95 157//95 158//95
f 150//95 108//95 115//95
f 149//95 150//95 115//95
f 149//95 115//95 109//95
f 147//95 149//95 109//95
f 147//95 109//95 113//95
f 138//95 147//95 113//95
f 138//95 113//95 111//95
f 145//95 138//95 111//95
f 102//95 158//95 155//95
f 13//95 102//95 155//95
f 181//95 13//95 155//95
f 181//95 155//95 156//95
f 183//95 181//95 156//95
f 183//95 156//95 153//95
f 187//95 183//95 153//95
f 187//95 153//95 151//95
f 184//95 187//95 151//95
f 184//95 151//95 148//95
f 186//95 184//95 148//95
f 186//95 148//95 137//95
f 189//95 186//95 137//95
f 189//95 137//95 139//95
f 145//95 111//95 51//95
f 140//95 145//95 51//95
f 194//95 189//95 139//95
f 194//95 139//95 146//95
f 143//95 140//95 51//95
f 142//95 143//95 51//95
f 194//95 146//95 141//95
f 194//95 141//95 144//95
f 142//95 51//95 194//95
f 152//95 116//95 108//95
f 85//96 37//96 14//96
f 205//97 207//97 38//97
f 38//97 87//97 216//97
f 209//97 216//97 87//97
f 74//97 129//97 127//97
f 74//97 127//97 133//97
f 213//97 209//97 87//97
f 212//97 213//97 87//97
f 74//97 133//97 134//97
f 74//97 134//97 131//97
f 210//97 212//97 87//97
f 210//97 87//97 74//97
f 211//97 210//97 74//97
f 215//97 211//97 74//97
f 208//97 215//97 74//97
f 214//97 208//97 74//97
f 38//97 207//97 202//97
f 123//97 122//97 27//97
f 119//97 123//97 27//97
f 38//97 202//97 201//97
f 38//97 201//97 217//97
f 117//97 119//97 27//97
f 118//97 117//97 27//97
f 38//97 217//97 219//97
f 27//97 38//97 219//97
f 27//97 219//97 220//97
f 27//97 220//97 218//97
f 27//97 218//97 206//97
f 27//97 206//97 204//97
f 130//97 136//97 174//97
f 130//97 174//97 175//97
f 128//97 130//97 175//97
f 128//97 175//97 177//97
f 135//97 128//97 177//97
f 135//97 177//97 179//97
f 132//97 135//97 179//97
f 132//97 179//97 178//97
f 131//97 132//97 178//97
f 74//97 131//97 178//97
f 172//97 124//97 121//97
f 171//97 172//97 121//97
f 171//97 121//97 126//97
f 169//97 171//97 126//97
f 169//97 126//97 120//97
f 166//97 169//97 120//97
f 166//97 120//97 118//97
f 164//97 166//97 118//97
f 214//97 74//97 178//97
f 214//97 178//97 180//97
f 203//97 214//97 180//97
f 203//97 180//97 176//97
f 164//97 118//97 27//97
f 162//97 164//97 27//97
f 204//97 203//97 176//97
f 204//97 176//97 173//97
f 160//97 162//97 27//97
f 159//97 160//97 27//97
f 204//97 173//97 170//97
f 204//97 170//97 165//97
f 159//97 27//97 204//97
f 163//97 159//97 204//97
f 204//97 165//97 167//97
f 204//97 167//97 168//97
f 161//97 163//97 204//97
f 124//97 172//97 174//97
f 125//97 129//97 74//97
f 74//97 27//97 122//97
f 75//98 86//98 63//98
f 108//99 116//99 136//99
f 115//100 108//100 130//100
f 115//58 128//58 135//58
f 109//101 135//101 132//101
f 113//102 132//102 131//102
f 111//103 131//103 134//103
f 110//104 134//104 133//104
f 112//64 133//64 127//64
f 129//105 107//105 106//105
f 125//106 114//106 107//106
f 122//107 101//107 114//107
f 123//108 103//108 101//108
f 98//82 103//82 123//82
f 99//109 98//109 119//109
f 97//110 99//110 117//110
f 100//111 97//111 118//111
f 105//112 100//112 120//112
f 104//79 105//79 126//79
f 102//113 104//113 121//113
f 116//114 102//114 124//114
f 139//99 137//99 165//99
f 146//100 139//100 170//100
f 141//58 146//58 173//58
f 141//101 176//101 180//101
f 144//102 180//102 178//102
f 142//103 178//103 179//103
f 143//104 179//104 177//104
f 175//64 145//64 140//64
f 174//318 172//318 171//318
f 171//105 138//105 145//105
f 145//319 175//319 174//319
f 138//106 171//106 169//106
f 166//107 149//107 147//107
f 149//108 166//108 164//108
f 164//320 154//320 152//320
f 150//321 149//321 164//321
f 162//82 157//82 154//82
f 158//109 157//109 162//109
f 155//110 158//110 160//110
f 156//111 155//111 159//111
f 153//112 156//112 163//112
f 151//79 153//79 161//79
f 148//113 151//113 168//113
f 137//114 148//114 167//114
f 195//99 190//99 205//99
f 193//100 195//100 216//100
f 193//58 209//58 213//58
f 192//101 213//101 212//101
f 198//102 212//102 210//102
f 200//103 210//103 211//103
f 199//104 211//104 215//104
f 197//64 215//64 208//64
f 214//105 194//105 191//105
f 203//106 189//106 194//106
f 204//107 186//107 189//107
f 206//108 184//108 186//108
f 218//82 187//82 184//82
f 220//109 183//109 187//109
f 181//110 183//110 220//110
f 182//111 181//111 219//111
f 188//112 182//112 217//112
f 185//79 188//79 201//79
f 196//113 185//113 202//113
f 190//114 196//114 207//114
f 221//209 224//209 226//209
f 224//2 228//2 229//2
f 222//208 227//208 229//208
f 227//4 231//4 232//4
f 223//207 230//207 232//207
f 230//6 225//6 226//6
f 233//206 236//206 238//206
f 236//9 240//9 241//9
f 234//205 239//205 241//205
f 239//11 243//11 244//11
f 235//204 242//204 244//204
f 242//13 237//13 238//13
f 245//203 248//203 250//203
f 248//16 252//16 253//16
f 246//202 251//202 253//202
f 251//18 255//18 256//18
f 247//302 254//302 256//302
f 254//20 249//20 250//20
f 257//303 260//303 262//303
f 260//23 264//23 265//23
f 258//304 263//304 265//304
f 263//25 267//25 268//25
f 259//305 266//305 268//305
f 266//27 261//27 262//27
f 269//306 272//306 274//306
f 272//30 276//30 277//30
f 270//307 275//307 277//307
f 275//32 279//32 280//32
f 271//308 278//308 280//308
f 278//34 273//34 274//34
f 281//309 284//309 286//309
f 284//37 288//37 289//37
f 282//310 287//310 289//310
f 287//39 291//39 292//39
f 283//311 290//311 292//311
f 290//41 285//41 286//41
f 293//312 296//312 298//312
f 296//44 300//44 301//44
f 294//313 299//313 301//313
f 299//46 303//46 304//46
f 295//314 302//314 304//314
f 302//48 297//48 298//48
f 305//315 308//315 310//315
f 308//51 312//51 313//51
f 306//316 311//316 313//316
f 311//53 315//53 316//53
f 307//317 314//317 316//317
f 314//55 309//55 310//55
f 245//57 221//57 225//57
f 248//58 225//58 230//58
f 252//59 230//59 223//59
f 222//60 233//60 237//60
f 227//61 237//61 242//61
f 231//62 242//62 235//62
f 234//63 257//63 261//63
f 239//64 261//64 266//64
f 243//65 266//65 259//65
f 258//66 247//66 255//66
f 263//67 255//67 251//67
f 267//68 251//68 246//68
f 293//69 245//69 249//69
f 296//70 249//70 254//70
f 300//71 254//71 247//71
f 257//72 305//72 309//72
f 260//73 309//73 314//73
f 264//74 314//74 307//74
f 306//75 295//75 303//75
f 311//76 303//76 299//76
f 315//77 299//77 294//77
f 269//78 293//78 297//78
f 272//79 297//79 302//79
f 276//80 302//80 295//80
f 305//81 281//81 285//81
f 308//82 285//82 290//82
f 312//83 290//83 283//83
f 282//84 271//84 279//84
f 287//85 279//85 275//85
f 291//86 275//86 270//86
f 221//87 269//87 273//87
f 224//88 273//88 278//88
f 228//89 278//89 271//89
f 281//90 234//90 240//90
f 284//91 240//91 236//91
f 288//92 236//92 233//92
f 245//93 293//93 269//93
f 223//94 235//94 259//94
f 334//95 321//95 222//95
f 222//95 271//95 327//95
f 410//95 415//95 282//95
f 282//95 233//95 416//95
f 222//95 321//95 323//95
f 222//95 323//95 318//95
f 405//95 416//95 233//95
f 408//95 405//95 233//95
f 222//95 318//95 319//95
f 222//95 319//95 317//95
f 402//95 408//95 233//95
f 401//95 402//95 233//95
f 233//95 222//95 317//95
f 233//95 317//95 320//95
f 233//95 320//95 325//95
f 233//95 325//95 324//95
f 233//95 324//95 322//95
f 322//95 336//95 372//95
f 322//95 372//95 374//95
f 282//95 415//95 413//95
f 326//95 327//95 271//95
f 332//95 326//95 271//95
f 282//95 413//95 412//95
f 282//95 412//95 418//95
f 330//95 332//95 271//95
f 331//95 330//95 271//95
f 282//95 418//95 420//95
f 271//95 282//95 420//95
f 271//95 420//95 419//95
f 271//95 419//95 417//95
f 271//95 417//95 411//95
f 271//95 411//95 414//95
f 322//95 374//95 377//95
f 322//95 377//95 378//95
f 370//95 328//95 335//95
f 369//95 370//95 335//95
f 369//95 335//95 329//95
f 367//95 369//95 329//95
f 367//95 329//95 333//95
f 358//95 367//95 333//95
f 358//95 333//95 331//95
f 365//95 358//95 331//95
f 322//95 378//95 375//95
f 233//95 322//95 375//95
f 401//95 233//95 375//95
f 401//95 375//95 376//95
f 403//95 401//95 376//95
f 403//95 376//95 373//95
f 407//95 403//95 373//95
f 407//95 373//95 371//95
f 404//95 407//95 371//95
f 404//95 371//95 368//95
f 406//95 404//95 368//95
f 406//95 368//95 357//95
f 409//95 406//95 357//95
f 409//95 357//95 359//95
f 365//95 331//95 271//95
f 360//95 365//95 271//95
f 414//95 409//95 359//95
f 414//95 359//95 366//95
f 363//95 360//95 271//95
f 362//95 363//95 271//95
f 414//95 366//95 361//95
f 414//95 361//95 364//95
f 362//95 271//95 414//95
f 372//95 336//95 328//95
f 305//96 257//96 234//96
f 425//97 427//97 258//97
f 258//97 307//97 436//97
f 429//97 436//97 307//97
f 294//97 349//97 347//97
f 294//97 347//97 353//97
f 433//97 429//97 307//97
f 432//97 433//97 307//97
f 294//97 353//97 354//97
f 294//97 354//97 351//97
f 430//97 432//97 307//97
f 430//97 307//97 294//97
f 431//97 430//97 294//97
f 435//97 431//97 294//97
f 428//97 435//97 294//97
f 434//97 428//97 294//97
f 258//97 427//97 422//97
f 343//97 342//97 247//97
f 339//97 343//97 247//97
f 258//97 422//97 421//97
f 258//97 421//97 437//97
f 337//97 339//97 247//97
f 338//97 337//97 247//97
f 258//97 437//97 439//97
f 247//97 258//97 439//97
f 247//97 439//97 440//97
f 247//97 440//97 438//97
f 247//97 438//97 426//97
f 247//97 426//97 424//97
f 350//97 356//97 394//97
f 350//97 394//97 395//97
f 348//97 350//97 395//97
f 348//97 395//97 397//97
f 355//97 348//97 397//97
f 355//97 397//97 399//97
f 352//97 355//97 399//97
f 352//97 399//97 398//97
f 351//97 352//97 398//97
f 294//97 351//97 398//97
f 392//97 344//97 341//97
f 391//97 392//97 341//97
f 391//97 341//97 346//97
f 389//97 391//97 346//97
f 389//97 346//97 340//97
f 386//97 389//97 340//97
f 386//97 340//97 338//97
f 384//97 386//97 338//97
f 434//97 294//97 398//97
f 434//97 398//97 400//97
f 423//97 434//97 400//97
f 423//97 400//97 396//97
f 384//97 338//97 247//97
f 382//97 384//97 247//97
f 424//97 423//97 396//97
f 424//97 396//97 393//97
f 380//97 382//97 247//97
f 379//97 380//97 247//97
f 424//97 393//97 390//97
f 424//97 390//97 385//97
f 379//97 247//97 424//97
f 383//97 379//97 424//97
f 424//97 385//97 387//97
f 424//97 387//97 388//97
f 381//97 383//97 424//97
f 344//97 392//97 394//97
f 345//97 349//97 294//97
f 294//97 247//97 342//97
f 295//98 306//98 283//98
f 328//99 336//99 356//99
f 335//100 328//100 350//100
f 335//58 348//58 355//58
f 329//101 355//101 352//101
f 333//102 352//102 351//102
f 331//103 351//103 354//103
f 330//104 354//104 353//104
f 332//64 353//64 347//64
f 349//105 327//105 326//105
f 345//106 334//106 327//106
f 342//107 321//107 334//107
f 343//108 323//108 321//108
f 318//82 323//82 343//82
f 319//109 318//109 339//109
f 317//110 319//110 337//110
f 320//111 317//111 338//111
f 325//112 320//112 340//112
f 324//79 325//79 346//79
f 322//113 324//113 341//113
f 336//114 322//114 344//114
f 359//99 357//99 385//99
f 366//100 359//100 390//100
f 361//58 366//58 393//58
f 361//101 396//101 400//101
f 364//102 400//102 398//102
f 362//103 398//103 399//103
f 363//104 399//104 397//104
f 395//64 365//64 360//64
f 392//322 391//322 358//322
f 358//105 365//105 395//105
f 395//97 394//97 392//97
f 358//106 391//106 389//106
f 386//107 369//107 367//107
f 369//108 386//108 384//108
f 384//320 374//320 372//320
f 370//321 369//321 384//321
f 382//82 377//82 374//82
f 378//109 377//109 382//109
f 375//110 378//110 380//110
f 376//111 375//111 379//111
f 373//112 376//112 383//112
f 371//79 373//79 381//79
f 368//113 371//113 388//113
f 357//114 368//114 387//114
f 415//99 410//99 425//99
f 413//100 415//100 436//100
f 413//58 429//58 433//58
f 412//101 433//101 432//101
f 418//102 432//102 430//102
f 420//103 430//103 431//103
f 419//104 431//104 435//104
f 417//64 435//64 428//64
f 434//105 414//105 411//105
f 423//106 409//106 414//106
f 424//107 406//107 409//107
f 426//108 404//108 406//108
f 438//82 407//82 404//82
f 440//109 403//109 407//109
f 401//110 403//110 440//110
f 402//111 401//111 439//111
f 408//112 402//112 437//112
f 405//79 408//79 421//79
f 416//113 405//113 422//113
f 410//114 416//114 427//114
usemtl Shell
f 441//126 446//126 445//126
f 444//127 449//127 446//127
f 442//128 449//128 448//128
f 447//129 452//129 449//129
f 443//130 452//130 451//130
f 450//131 446//131 452//131
f 446//132 449//132 452//132
f 453//133 458//133 457//133
f 456//134 461//134 458//134
f 454//135 461//135 460//135
f 459//136 464//136 461//136
f 455//137 464//137 463//137
f 462//138 458//138 464//138
f 458//139 461//139 464//139
f 465//140 470//140 469//140
f 468//141 473//141 470//141
f 466//142 473//142 472//142
f 471//143 476//143 473//143
f 467//144 476//144 475//144
f 474//145 470//145 476//145
f 470//146 473//146 476//146
f 477//147 482//147 481//147
f 480//148 485//148 482//148
f 478//149 485//149 484//149
f 483//150 488//150 485//150
f 479//151 488//151 487//151
f 486//152 482//152 488//152
f 482//153 485//153 488//153
f 441//154 491//154 490//154
f 445//155 493//155 491//155
f 443//156 493//156 450//156
f 492//157 496//157 493//157
f 489//158 496//158 495//158
f 494//159 491//159 496//159
f 491//160 493//160 496//160
f 454//161 499//161 498//161
f 460//162 501//162 499//162
f 453//163 501//163 456//163
f 500//164 504//164 501//164
f 497//165 504//165 503//165
f 502//166 499//166 504//166
f 499//167 501//167 504//167
f 466//168 507//168 506//168
f 472//169 509//169 507//169
f 465//170 509//170 468//170
f 508//171 512//171 509//171
f 505//172 512//172 511//172
f 510//173 507//173 512//173
f 507//174 509//174 512//174
f 477//175 515//175 480//175
f 514//176 518//176 515//176
f 513//177 518//177 517//177
f 516//178 520//178 518//178
f 478//179 520//179 519//179
f 484//180 515//180 520//180
f 515//181 518//181 520//181
f 441//182 481//182 444//182
f 444//183 486//183 448//183
f 448//184 479//184 442//184
f 467//185 487//185 474//185
f 474//73 483//73 469//73
f 469//186 478//186 465//186
f 455//187 475//187 462//187
f 462//188 471//188 457//188
f 457//189 466//189 453//189
f 442//190 463//190 447//190
f 447//70 459//70 451//70
f 451//191 454//191 443//191
f 489//192 517//192 494//192
f 494//193 514//193 490//193
f 490//194 477//194 441//194
f 443//195 498//195 492//195
f 492//88 502//88 495//88
f 495//196 497//196 489//196
f 453//197 506//197 500//197
f 500//198 510//198 503//198
f 503//199 505//199 497//199
f 465//200 519//200 508//200
f 508//91 516//91 511//91
f 511//201 513//201 505//201
f 479//97 455//97 442//97
f 489//95 505//95 513//95
f 441//323 444//323 446//323
f 444//324 448//324 449//324
f 442//325 447//325 449//325
f 447//326 451//326 452//326
f 443//327 450//327 452//327
f 450//328 445//328 446//328
f 453//329 456//329 458//329
f 456//330 460//330 461//330
f 454//331 459//331 461//331
f 459//332 463//332 464//332
f 455//333 462//333 464//333
f 462//334 457//334 458//334
f 465//335 468//335 470//335
f 468//336 472//336 473//336
f 466//337 471//337 473//337
f 471//338 475//338 476//338
f 467//339 474//339 476//339
f 474//145 469//145 470//145
f 477//340 480//340 482//340
f 480//341 484//341 485//341
f 478//342 483//342 485//342
f 483//343 487//343 488//343
f 479//344 486//344 488//344
f 486//345 481//345 482//345
f 441//346 445//346 491//346
f 445//347 450//347 493//347
f 443//348 492//348 493//348
f 492//349 495//349 496//349
f 489//350 494//350 496//350
f 494//351 490//351 491//351
f 454//352 460//352 499//352
f 460//353 456//353 501//353
f 453//354 500//354 501//354
f 500//355 503//355 504//355
f 497//356 502//356 504//356
f 502//357 498//357 499//357
f 466//358 472//358 507//358
f 472//359 468//359 509//359
f 465//360 508//360 509//360
f 508//361 511//361 512//361
f 505//362 510//362 512//362
f 510//363 506//363 507//363
f 477//364 514//364 515//364
f 514//365 517//365 518//365
f 513//366 516//366 518//366
f 516//178 519//178 520//178
f 478//367 484//367 520//367
f 484//368 480//368 515//368
f 441//369 477//369 481//369
f 444//370 481//370 486//370
f 448//371 486//371 479//371
f 467//185 479//185 487//185
f 474//73 487//73 483//73
f 469//186 483//186 478//186
f 455//372 467//372 475//372
f 462//373 475//373 471//373
f 457//374 471//374 466//374
f 442//375 455//375 463//375
f 447//70 463//70 459//70
f 451//191 459//191 454//191
f 489//376 513//376 517//376
f 494//377 517//377 514//377
f 490//378 514//378 477//378
f 443//195 454//195 498//195
f 492//88 498//88 502//88
f 495//379 502//379 497//379
f 453//380 466//380 506//380
f 500//381 506//381 510//381
f 503//382 510//382 505//382
f 465//200 478//200 519//200
f 508//91 519//91 516//91
f 511//383 516//383 513//383
f 479//97 467//97 455//97
f 489//95 497//95 505//95
usemtl DetailTeal
f 521//210 526//210 525//210
f 524//211 529//211 526//211
f 522//212 529//212 528//212
f 527//213 532//213 529//213
f 523//214 532//214 531//214
f 530//215 526//215 532//215
f 526//216 529//216 532//216
f 533//217 538//217 537//217
f 536//218 541//218 538//218
f 534//219 541//219 540//219
f 539//220 544//220 541//220
f 535//221 544//221 543//221
f 542//222 538//222 544//222
f 538//223 541//223 544//223
f 545//224 550//224 549//224
f 548//225 553//225 550//225
f 546//226 553//226 552//226
f 551//227 556//227 553//227
f 547//228 556//228 555//228
f 554//229 550//229 556//229
f 550//230 553//230 556//230
f 557//231 562//231 561//231
f 560//232 565//232 562//232
f 558//233 565//233 564//233
f 563//234 568//234 565//234
f 559//235 568//235 567//235
f 566//236 562//236 568//236
f 562//237 565//237 568//237
f 569//238 574//238 573//238
f 572//239 577//239 574//239
f 570//240 577//240 576//240
f 575//241 580//241 577//241
f 571//242 580//242 579//242
f 578//243 574//243 580//243
f 574//244 577//244 580//244
f 581//245 586//245 585//245
f 584//246 589//246 586//246
f 582//247 589//247 588//247
f 587//248 592//248 589//248
f 583//249 592//249 591//249
f 590//250 586//250 592//250
f 586//251 589//251 592//251
f 593//252 598//252 597//252
f 596//253 601//253 598//253
f 594//254 601//254 600//254
f 599//255 604//255 601//255
f 595//256 604//256 603//256
f 602//257 598//257 604//257
f 598//258 601//258 604//258
f 605//259 610//259 609//259
f 608//260 613//260 610//260
f 606//261 613//261 612//261
f 611//262 616//262 613//262
f 607//263 616//263 615//263
f 614//264 610//264 616//264
f 610//265 613//265 616//265
f 545//266 525//266 548//266
f 548//58 530//58 552//58
f 552//267 523//267 546//267
f 522//268 537//268 527//268
f 527//61 542//61 531//61
f 531//269 535//269 523//269
f 534//270 561//270 539//270
f 539//64 566//64 543//64
f 543//271 559//271 535//271
f 558//272 555//272 563//272
f 563//67 551//67 567//67
f 567//273 546//273 559//273
f 593//274 549//274 596//274
f 596//70 554//70 600//70
f 600//275 547//275 594//275
f 557//276 609//276 560//276
f 560//73 614//73 564//73
f 564//277 607//277 558//277
f 606//278 603//278 611//278
f 611//76 599//76 615//76
f 615//279 594//279 607//279
f 569//280 597//280 572//280
f 572//79 602//79 576//79
f 576//281 595//281 570//281
f 605//282 585//282 608//282
f 608//82 590//82 612//82
f 612//283 583//283 606//283
f 582//284 579//284 587//284
f 587//85 575//85 591//85
f 591//285 570//285 583//285
f 521//286 573//286 524//286
f 524//88 578//88 528//88
f 528//287 571//287 522//287
f 581//288 540//288 584//288
f 584//91 536//91 588//91
f 588//289 533//289 582//289
f 545//93 569//93 521//93
f 523//94 559//94 546//94
f 571//95 533//95 522//95
f 605//96 534//96 581//96
f 547//97 607//97 594//97
f 595//98 583//98 570//98
f 521//384 524//384 526//384
f 524//211 528//211 529//211
f 522//385 527//385 529//385
f 527//213 531//213 532//213
f 523//386 530//386 532//386
f 530//215 525//215 526//215
f 533//387 536//387 538//387
f 536//218 540//218 541//218
f 534//388 539//388 541//388
f 539//220 543//220 544//220
f 535//389 542//389 544//389
f 542//222 537//222 538//222
f 545//390 548//390 550//390
f 548//225 552//225 553//225
f 546//391 551//391 553//391
f 551//227 555//227 556//227
f 547//392 554//392 556//392
f 554//229 549//229 550//229
f 557//393 560//393 562//393
f 560//232 564//232 565//232
f 558//394 563//394 565//394
f 563//234 567//234 568//234
f 559//395 566//395 568//395
f 566//236 561//236 562//236
f 569//396 572//396 574//396
f 572//239 576//239 577//239
f 570//397 575//397 577//397
f 575//241 579//241 580//241
f 571//398 578//398 580//398
f 578//243 573//243 574//243
f 581//399 584//399 586//399
f 584//246 588//246 589//246
f 582//400 587//400 589//400
f 587//248 591//248 592//248
f 583//401 590//401 592//401
f 590//250 585//250 586//250
f 593//402 596//402 598//402
f 596//253 600//253 601//253
f 594//403 599//403 601//403
f 599//255 603//255 604//255
f 595//404 602//404 604//404
f 602//257 597//257 598//257
f 605//405 608//405 610//405
f 608//260 612//260 613//260
f 606//406 611//406 613//406
f 611//262 615//262 616//262
f 607//407 614//407 616//407
f 614//264 609//264 610//264
f 545//408 521//408 525//408
f 548//58 525//58 530//58
f 552//267 530//267 523//267
f 522//268 533//268 537//268
f 527//61 537//61 542//61
f 531//409 542//409 535//409
f 534//410 557//410 561//410
f 539//64 561//64 566//64
f 543//271 566//271 559//271
f 558//272 547//272 555//272
f 563//67 555//67 551//67
f 567//411 551//411 546//411
f 593//274 545//274 549//274
f 596//70 549//70 554//70
f 600//275 554//275 547//275
f 557//276 605//276 609//276
f 560//73 609//73 614//73
f 564//277 614//277 607//277
f 606//412 595//412 603//412
f 611//76 603//76 599//76
f 615//279 599//279 594//279
f 569//413 593//413 597//413
f 572//79 597//79 602//79
f 576//281 602//281 595//281
f 605//414 581//414 585//414
f 608//82 585//82 590//82
f 612//283 590//283 583//283
f 582//284 571//284 579//284
f 587//85 579//85 575//85
f 591//415 575//415 570//415
f 521//416 569//416 573//416
f 524//88 573//88 578//88
f 528//417 578//417 571//417
f 581//418 534//418 540//418
f 584//91 540//91 536//91
f 588//419 536//419 533//419
f 545//93 593//93 569//93
f 523//94 535//94 559//94
f 571//95 582//95 533//95
f 605//96 557//96 534//96
f 547//97 558//97 607//97
f 595//98 606//98 583//98
usemtl DetailGraphite
f 617//1 622//1 621//1
f 620//2 625//2 622//2
f 618//3 625//3 624//3
f 623//4 628//4 625//4
f 619//5 628//5 627//5
f 626//6 622//6 628//6
f 622//7 625//7 628//7
f 629//8 634//8 633//8
f 632//9 637//9 634//9
f 630//10 637//10 636//10
f 635//11 640//11 637//11
f 631//12 640//12 639//12
f 638//13 634//13 640//13
f 634//14 637//14 640//14
f 641//15 646//15 645//15
f 644//16 649//16 646//16
f 642//17 649//17 648//17
f 647//18 652//18 649//18
f 643//19 652//19 651//19
f 650//20 646//20 652//20
f 646//290 649//290 652//290
f 653//22 658//22 657//22
f 656//23 661//23 658//23
f 654//24 661//24 660//24
f 659//25 664//25 661//25
f 655//26 664//26 663//26
f 662//27 658//27 664//27
f 658//291 661//291 664//291
f 665//29 670//29 669//29
f 668//30 673//30 670//30
f 666//31 673//31 672//31
f 671//32 676//32 673//32
f 667//33 676//33 675//33
f 674//34 670//34 676//34
f 670//121 673//121 676//121
f 677//36 682//36 681//36
f 680//37 685//37 682//37
f 678//38 685//38 684//38
f 683//39 688//39 685//39
f 679//40 688//40 687//40
f 686//41 682//41 688//41
f 682//122 685//122 688//122
f 689//43 694//43 693//43
f 692//44 697//44 694//44
f 690//45 697//45 696//45
f 695//46 700//46 697//46
f 691//47 700//47 699//47
f 698//48 694//48 700//48
f 694//292 697//292 700//292
f 701//50 706//50 705//50
f 704//51 709//51 706//51
f 702//52 709//52 708//52
f 707//53 712//53 709//53
f 703//54 712//54 711//54
f 710//55 706//55 712//55
f 706//293 709//293 712//293
f 641//57 621//57 644//57
f 644//58 626//58 648//58
f 648//59 619//59 642//59
f 618//60 633//60 623//60
f 623//61 638//61 627//61
f 627//62 631//62 619//62
f 630//63 657//63 635//63
f 635//64 662//64 639//64
f 639//65 655//65 631//65
f 654//66 651//66 659//66
f 659//67 647//67 663//67
f 663//68 642//68 655//68
f 689//69 645//69 692//69
f 692//70 650//70 696//70
f 696//71 643//71 690//71
f 653//72 705//72 656//72
f 656//73 710//73 660//73
f 660//74 703//74 654//74
f 702//75 699//75 707//75
f 707//76 695//76 711//76
f 711//77 690//77 703//77
f 665//78 693//78 668//78
f 668//79 698//79 672//79
f 672//80 691//80 666//80
f 701//81 681//81 704//81
f 704//82 686//82 708//82
f 708//83 679//83 702//83
f 678//84 675//84 683//84
f 683//85 671//85 687//85
f 687//86 666//86 679//86
f 617//87 669//87 620//87
f 620//88 674//88 624//88
f 624//89 667//89 618//89
f 677//90 636//90 680//90
f 680//91 632//91 684//91
f 684//92 629//92 678//92
f 641//93 665//93 617//93
f 619//94 655//94 642//94
f 667//95 629//95 618//95
f 701//96 630//96 677//96
f 643//97 703//97 690//97
f 691//98 679//98 666//98
f 617//209 620//209 622//209
f 620//2 624//2 625//2
f 618//208 623//208 625//208
f 623//4 627//4 628//4
f 619//207 626//207 628//207
f 626//6 621//6 622//6
f 629//206 632//206 634//206
f 632//9 636//9 637//9
f 630//205 635//205 637//205
f 635//11 639//11 640//11
f 631//204 638//204 640//204
f 638//13 633//13 634//13
f 641//203 644//203 646//203
f 644//16 648//16 649//16
f 642//202 647//202 649//202
f 647//18 651//18 652//18
f 643//302 650//302 652//302
f 650//20 645//20 646//20
f 653//303 656//303 658//303
f 656//23 660//23 661//23
f 654//304 659//304 661//304
f 659//25 663//25 664//25
f 655//305 662//305 664//305
f 662//27 657//27 658//27
f 665//306 668//306 670//306
f 668//30 672//30 673//30
f 666//307 671//307 673//307
f 671//32 675//32 676//32
f 667//308 674//308 676//308
f 674//34 669//34 670//34
f 677//309 680//309 682//309
f 680//37 684//37 685//37
f 678//310 683//310 685//310
f 683//39 687//39 688//39
f 679//311 686//311 688//311
f 686//41 681//41 682//41
f 689//312 692//312 694//312
f 692//44 696//44 697//44
f 690//313 695//313 697//313
f 695//46 699//46 700//46
f 691//314 698//314 700//314
f 698//48 693//48 694//48
f 701//315 704//315 706//315
f 704//51 708//51 709//51
f 702//316 707//316 709//316
f 707//53 711//53 712//53
f 703//317 710//317 712//317
f 710//55 705//55 706//55
f 641//57 617//57 621//57
f 644//58 621//58 626//58
f 648//59 626//59 619//59
f 618//60 629//60 633//60
f 623//61 633//61 638//61
f 627//62 638//62 631//62
f 630//63 653//63 657//63
f 635//64 657//64 662//64
f 639//65 662//65 655//65
f 654//66 643//66 651//66
f 659//67 651//67 647//67
f 663//68 647//68 642//68
f 689//69 641//69 645//69
f 692//70 645//70 650//70
f 696//71 650//71 643//71
f 653//72 701//72 705//72
f 656//73 705//73 710//73
f 660//74 710//74 703//74
f 702//75 691//75 699//75
f 707//76 699//76 695//76
f 711//77 695//77 690//77
f 665//78 689//78 693//78
f 668//79 693//79 698//79
f 672//80 698//80 691//80
f 701//81 677//81 681//81
f 704//82 681//82 686//82
f 708//83 686//83 679//83
f 678//84 667//84 675//84
f 683//85 675//85 671//85
f 687//86 671//86 666//86
f 617//87 665//87 669//87
f 620//88 669//88 674//88
f 624//89 674//89 667//89
f 677//90 630//90 636//90
f 680//91 636//91 632//91
f 684//92 632//92 629//92
f 641//93 689//93 665//93
f 619//94 631//94 655//94
f 667//95 678//95 629//95
f 701//96 653//96 630//96
f 643//97 654//97 703//97
f 691//98 702//98 679//98
usemtl BracketMetal
f 713//1 718//1 717//1
f 716//2 721//2 718//2
f 714//3 721//3 720//3
f 719//4 724//4 721//4
f 715//5 724//5 723//5
f 722//6 718//6 724//6
f 718//117 721//117 724//117
f 725//8 730//8 729//8
f 728//9 733//9 730//9
f 726//10 733//10 732//10
f 731//11 736//11 733//11
f 727//12 736//12 735//12
f 734//13 730//13 736//13
f 730//294 733//294 736//294
f 737//15 742//15 741//15
f 740//16 745//16 742//16
f 738//17 745//17 744//17
f 743//18 748//18 745//18
f 739//19 748//19 747//19
f 746//20 742//20 748//20
f 742//119 745//119 748//119
f 749//22 754//22 753//22
f 752//23 757//23 754//23
f 750//24 757//24 756//24
f 755//25 760//25 757//25
f 751//26 760//26 759//26
f 758//27 754//27 760//27
f 754//295 757//295 760//295
f 761//29 766//29 765//29
f 764//30 769//30 766//30
f 762//31 769//31 768//31
f 767//32 772//32 769//32
f 763//33 772//33 771//33
f 770//34 766//34 772//34
f 766//35 769//35 772//35
f 773//36 778//36 777//36
f 776//37 781//37 778//37
f 774//38 781//38 780//38
f 779//39 784//39 781//39
f 775//40 784//40 783//40
f 782//41 778//41 784//41
f 778//296 781//296 784//296
f 785//43 790//43 789//43
f 788//44 793//44 790//44
f 786//45 793//45 792//45
f 791//46 796//46 793//46
f 787//47 796//47 795//47
f 794//48 790//48 796//48
f 790//49 793//49 796//49
f 797//50 802//50 801//50
f 800//51 805//51 802//51
f 798//52 805//52 804//52
f 803//53 808//53 805//53
f 799//54 808//54 807//54
f 806//55 802//55 808//55
f 802//297 805//297 808//297
f 737//57 717//57 740//57
f 740//58 722//58 744//58
f 744//59 715//59 738//59
f 714//60 729//60 719//60
f 719//61 734//61 723//61
f 723//62 727//62 715//62
f 726//63 753//63 731//63
f 731//64 758//64 735//64
f 735//65 751//65 727//65
f 750//66 747//66 755//66
f 755//67 743//67 759//67
f 759//68 738//68 751//68
f 785//69 741//69 788//69
f 788//70 746//70 792//70
f 792//71 739//71 786//71
f 749//72 801//72 752//72
f 752//73 806//73 756//73
f 756//74 799//74 750//74
f 798//75 795//75 803//75
f 803//76 791//76 807//76
f 807//77 786//77 799//77
f 761//78 789//78 764//78
f 764//79 794//79 768//79
f 768//80 787//80 762//80
f 797//81 777//81 800//81
f 800//82 782//82 804//82
f 804//83 775//83 798//83
f 774//84 771//84 779//84
f 779//85 767//85 783//85
f 783//86 762//86 775//86
f 713//87 765//87 716//87
f 716//88 770//88 720//88
f 720//89 763//89 714//89
f 773//90 732//90 776//90
f 776//91 728//91 780//91
f 780//92 725//92 774//92
f 737//93 761//93 713//93
f 715//94 751//94 738//94
f 763//95 725//95 714//95
f 797//96 726//96 773//96
f 739//97 799//97 786//97
f 787//98 775//98 762//98
f 809//1 814//1 813//1
f 812//2 817//2 814//2
f 810//3 817//3 816//3
f 815//4 820//4 817//4
f 811//5 820//5 819//5
f 818//6 814//6 820//6
f 814//298 817//298 820//298
f 821//8 826//8 825//8
f 824//9 829//9 826//9
f 822//10 829//10 828//10
f 827//11 832//11 829//11
f 823//12 832//12 831//12
f 830//13 826//13 832//13
f 826//118 829//118 832//118
f 833//15 838//15 837//15
f 836//16 841//16 838//16
f 834//17 841//17 840//17
f 839//18 844//18 841//18
f 835//19 844//19 843//19
f 842//20 838//20 844//20
f 838//299 841//299 844//299
f 845//22 850//22 849//22
f 848//23 853//23 850//23
f 846//24 853//24 852//24
f 851//25 856//25 853//25
f 847//26 856//26 855//26
f 854//27 850//27 856//27
f 850//120 853//120 856//120
f 857//29 862//29 861//29
f 860//30 865//30 862//30
f 858//31 865//31 864//31
f 863//32 868//32 865//32
f 859//33 868//33 867//33
f 866//34 862//34 868//34
f 862//300 865//300 868//300
f 869//36 874//36 873//36
f 872//37 877//37 874//37
f 870//38 877//38 876//38
f 875//39 880//39 877//39
f 871//40 880//40 879//40
f 878//41 874//41 880//41
f 874//42 877//42 880//42
f 881//43 886//43 885//43
f 884//44 889//44 886//44
f 882//45 889//45 888//45
f 887//46 892//46 889//46
f 883//47 892//47 891//47
f 890//48 886//48 892//48
f 886//301 889//301 892//301
f 893//50 898//50 897//50
f 896//51 901//51 898//51
f 894//52 901//52 900//52
f 899//53 904//53 901//53
f 895//54 904//54 903//54
f 902//55 898//55 904//55
f 898//56 901//56 904//56
f 833//57 813//57 836//57
f 836//58 818//58 840//58
f 840//59 811//59 834//59
f 810//60 825//60 815//60
f 815//61 830//61 819//61
f 819//62 823//62 811//62
f 822//63 849//63 827//63
f 827//64 854//64 831//64
f 831//65 847//65 823//65
f 846//66 843//66 851//66
f 851//67 839//67 855//67
f 855//68 834//68 847//68
f 881//69 837//69 884//69
f 884//70 842//70 888//70
f 888//71 835//71 882//71
f 845//72 897//72 848//72
f 848//73 902//73 852//73
f 852//74 895//74 846//74
f 894//75 891//75 899//75
f 899//76 887//76 903//76
f 903//77 882//77 895//77
f 857//78 885//78 860//78
f 860//79 890//79 864//79
f 864//80 883//80 858//80
f 893//81 873//81 896//81
f 896//82 878//82 900//82
f 900//83 871//83 894//83
f 870//84 867//84 875//84
f 875//85 863//85 879//85
f 879//86 858//86 871//86
f 809//87 861//87 812//87
f 812//88 866//88 816//88
f 816//89 859//89 810//89
f 869//90 828//90 872//90
f 872//91 824//91 876//91
f 876//92 821//92 870//92
f 833//93 857//93 809//93
f 811//94 847//94 834//94
f 859//95 821//95 810//95
f 893//96 822//96 869//96
f 835//97 895//97 882//97
f 883//98 871//98 858//98
f 713//209 716//209 718//209
f 716//2 720//2 721//2
f 714//208 719//208 721//208
f 719//4 723//4 724//4
f 715//207 722//207 724//207
f 722//6 717//6 718//6
f 725//206 728//206 730//206
f 728//9 732//9 733//9
f 726//205 731//205 733//205
f 731//11 735//11 736//11
f 727//204 734//204 736//204
f 734//13 729//13 730//13
f 737//203 740//203 742//203
f 740//16 744//16 745//16
f 738//202 743//202 745//202
f 743//18 747//18 748//18
f 739//302 746//302 748//302
f 746//20 741//20 742//20
f 749//303 752//303 754//303
f 752//23 756//23 757//23
f 750//304 755//304 757//304
f 755//25 759//25 760//25
f 751//305 758//305 760//305
f 758//27 753//27 754//27
f 761//306 764//306 766//306
f 764//30 768//30 769//30
f 762//307 767//307 769//307
f 767//32 771//32 772//32
f 763//308 770//308 772//308
f 770//34 765//34 766//34
f 773//309 776//309 778//309
f 776//37 780//37 781//37
f 774//310 779//310 781//310
f 779//39 783//39 784//39
f 775//311 782//311 784//311
f 782//41 777//41 778//41
f 785//312 788//312 790//312
f 788//44 792//44 793//44
f 786//313 791//313 793//313
f 791//46 795//46 796//46
f 787//314 794//314 796//314
f 794//48 789//48 790//48
f 797//315 800//315 802//315
f 800//51 804//51 805//51
f 798//316 803//316 805//316
f 803//53 807//53 808//53
f 799//317 806//317 808//317
f 806//55 801//55 802//55
f 737//57 713//57 717//57
f 740//58 717//58 722//58
f 744//59 722//59 715//59
f 714//60 725//60 729//60
f 719//61 729//61 734//61
f 723//62 734//62 727//62
f 726//63 749//63 753//63
f 731//64 753//64 758//64
f 735//65 758//65 751//65
f 750//66 739//66 747//66
f 755//67 747//67 743//67
f 759//68 743//68 738//68
f 785//69 737//69 741//69
f 788//70 741//70 746//70
f 792//71 746//71 739//71
f 749//72 797//72 801//72
f 752//73 801//73 806//73
f 756//74 806//74 799//74
f 798//75 787//75 795//75
f 803//76 795//76 791//76
f 807//77 791//77 786//77
f 761//78 785//78 789//78
f 764//79 789//79 794//79
f 768//80 794//80 787//80
f 797//81 773//81 777//81
f 800//82 777//82 782//82
f 804//83 782//83 775//83
f 774//84 763//84 771//84
f 779//85 771//85 767//85
f 783//86 767//86 762//86
f 713//87 761//87 765//87
f 716//88 765//88 770//88
f 720//89 770//89 763//89
f 773//90 726//90 732//90
f 776//91 732//91 728//91
f 780//92 728//92 725//92
f 737//93 785//93 761//93
f 715//94 727//94 751//94
f 763//95 774//95 725//95
f 797//96 749//96 726//96
f 739//97 750//97 799//97
f 787//98 798//98 775//98
f 809//209 812//209 814//209
f 812//2 816//2 817//2
f 810//208 815//208 817//208
f 815//4 819//4 820//4
f 811//207 818//207 820//207
f 818//6 813//6 814//6
f 821//206 824//206 826//206
f 824//9 828//9 829//9
f 822//205 827//205 829//205
f 827//11 831//11 832//11
f 823//204 830//204 832//204
f 830//13 825//13 826//13
f 833//203 836//203 838//203
f 836//16 840//16 841//16
f 834//202 839//202 841//202
f 839//18 843//18 844//18
f 835//302 842//302 844//302
f 842//20 837//20 838//20
f 845//303 848//303 850//303
f 848//23 852//23 853//23
f 846//304 851//304 853//304
f 851//25 855//25 856//25
f 847//305 854//305 856//305
f 854//27 849//27 850//27
f 857//306 860//306 862//306
f 860//30 864//30 865//30
f 858//307 863//307 865//307
f 863//32 867//32 868//32
f 859//308 866//308 868//308
f 866//34 861//34 862//34
f 869//309 872//309 874//309
f 872//37 876//37 877//37
f 870//310 875//310 877//310
f 875//39 879//39 880//39
f 871//311 878//311 880//311
f 878//41 873//41 874//41
f 881//312 884//312 886//312
f 884//44 888//44 889//44
f 882//313 887//313 889//313
f 887//46 891//46 892//46
f 883//314 890//314 892//314
f 890//48 885//48 886//48
f 893//315 896//315 898//315
f 896//51 900//51 901//51
f 894//316 899//316 901//316
f 899//53 903//53 904//53
f 895//317 902//317 904//317
f 902//55 897//55 898//55
f 833//57 809//57 813//57
f 836//58 813//58 818//58
f 840//59 818//59 811//59
f 810//60 821//60 825//60
f 815//61 825//61 830//61
f 819//62 830//62 823//62
f 822//63 845//63 849//63
f 827//64 849//64 854//64
f 831//65 854//65 847//65
f 846//66 835//66 843//66
f 851//67 843//67 839//67
f 855//68 839//68 834//68
f 881//69 833//69 837//69
f 884//70 837//70 842//70
f 888//71 842//71 835//71
f 845//72 893//72 897//72
f 848//73 897//73 902//73
f 852//74 902//74 895//74
f 894//75 883//75 891//75
f 899//76 891//76 887//76
f 903//77 887//77 882//77
f 857//78 881//78 885//78
f 860//79 885//79 890//79
f 864//80 890//80 883//80
f 893//81 869//81 873//81
f 896//82 873//82 878//82
f 900//83 878//83 871//83
f 870//84 859//84 867//84
f 875//85 867//85 863//85
f 879//86 863//86 858//86
f 809//87 857//87 861//87
f 812//88 861//88 866//88
f 816//89 866//89 859//89
f 869//90 822//90 828//90
f 872//91 828//91 824//91
f 876//92 824//92 821//92
f 833//93 881//93 857//93
f 811//94 823//94 847//94
f 859//95 870//95 821//95
f 893//96 845//96 822//96
f 835//97 846//97 895//97
f 883//98 894//98 871//98
