# Blender 5.2.1 LTS
# www.blender.org
mtllib modular_torso_frame.mtl
o modular_torso_frame
v -0.043000 -0.150000 -0.002000
v -0.043000 -0.148000 0.000000
v -0.045000 -0.148000 -0.002000
v -0.043000 -0.149733 -0.001001
v -0.043999 -0.149733 -0.002000
v -0.043956 -0.149473 -0.001044
v -0.043999 -0.148000 -0.000267
v -0.043000 -0.148999 -0.000267
v -0.043956 -0.148956 -0.000527
v -0.044733 -0.148999 -0.002000
v -0.044733 -0.148000 -0.001001
v -0.044473 -0.148956 -0.001044
v -0.043000 0.148000 0.000000
v -0.043000 0.150000 -0.002000
v -0.045000 0.148000 -0.002000
v -0.043000 0.148999 -0.000267
v -0.043999 0.148000 -0.000267
v -0.043956 0.148956 -0.000527
v -0.043999 0.149733 -0.002000
v -0.043000 0.149733 -0.001001
v -0.043956 0.149473 -0.001044
v -0.044733 0.148000 -0.001001
v -0.044733 0.148999 -0.002000
v -0.044473 0.148956 -0.001044
v -0.043000 -0.150000 -0.068000
v -0.045000 -0.148000 -0.068000
v -0.043000 -0.148000 -0.070000
v -0.043999 -0.149733 -0.068000
v -0.043000 -0.149733 -0.068999
v -0.043956 -0.149473 -0.068956
v -0.044733 -0.148000 -0.068999
v -0.044733 -0.148999 -0.068000
v -0.044473 -0.148956 -0.068956
v -0.043000 -0.148999 -0.069733
v -0.043999 -0.148000 -0.069733
v -0.043956 -0.148956 -0.069473
v -0.043000 0.150000 -0.068000
v -0.043000 0.148000 -0.070000
v -0.045000 0.148000 -0.068000
v -0.043000 0.149733 -0.068999
v -0.043999 0.149733 -0.068000
v -0.043956 0.149473 -0.068956
v -0.043999 0.148000 -0.069733
v -0.043000 0.148999 -0.069733
v -0.043956 0.148956 -0.069473
v -0.044733 0.148999 -0.068000
v -0.044733 0.148000 -0.068999
v -0.044473 0.148956 -0.068956
v 0.043000 -0.150000 -0.002000
v 0.045000 -0.148000 -0.002000
v 0.043000 -0.148000 0.000000
v 0.043999 -0.149733 -0.002000
v 0.043000 -0.149733 -0.001001
v 0.043956 -0.149473 -0.001044
v 0.044733 -0.148000 -0.001001
v 0.044733 -0.148999 -0.002000
v 0.044473 -0.148956 -0.001044
v 0.043000 -0.148999 -0.000267
v 0.043999 -0.148000 -0.000267
v 0.043956 -0.148956 -0.000527
v 0.043000 0.150000 -0.002000
v 0.043000 0.148000 0.000000
v 0.045000 0.148000 -0.002000
v 0.043000 0.149733 -0.001001
v 0.043999 0.149733 -0.002000
v 0.043956 0.149473 -0.001044
v 0.043999 0.148000 -0.000267
v 0.043000 0.148999 -0.000267
v 0.043956 0.148956 -0.000527
v 0.044733 0.148999 -0.002000
v 0.044733 0.148000 -0.001001
v 0.044473 0.148956 -0.001044
v 0.043000 -0.150000 -0.068000
v 0.043000 -0.148000 -0.070000
v 0.045000 -0.148000 -0.068000
v 0.043000 -0.149733 -0.068999
v 0.043999 -0.149733 -0.068000
v 0.043956 -0.149473 -0.068956
v 0.043999 -0.148000 -0.069733
v 0.043000 -0.148999 -0.069733
v 0.043956 -0.148956 -0.069473
v 0.044733 -0.148999 -0.068000
v 0.044733 -0.148000 -0.068999
v 0.044473 -0.148956 -0.068956
v 0.043000 0.150000 -0.068000
v 0.045000 0.148000 -0.068000
v 0.043000 0.148000 -0.070000
v 0.043999 0.149733 -0.068000
v 0.043000 0.149733 -0.068999
v 0.043956 0.149473 -0.068956
v 0.044733 0.148000 -0.068999
v 0.044733 0.148999 -0.068000
v 0.044473 0.148956 -0.068956
v 0.043000 0.148999 -0.069733
v 0.043999 0.148000 -0.069733
v 0.043956 0.148956 -0.069473
v -0.193000 0.107500 0.030500
v -0.193000 0.109500 0.032500
v -0.195000 0.109500 0.030500
v -0.193000 0.107767 0.031499
v -0.193999 0.107767 0.030500
v -0.193956 0.108027 0.031456
v -0.193999 0.109500 0.032233
v -0.193000 0.108501 0.032233
v -0.193956 0.108544 0.031973
v -0.194733 0.108501 0.030500
v -0.194733 0.109500 0.031499
v -0.194473 0.108544 0.031456
v -0.193000 0.150500 0.032500
v -0.193000 0.152500 0.030500
v -0.195000 0.150500 0.030500
v -0.193000 0.151499 0.032233
v -0.193999 0.150500 0.032233
v -0.193956 0.151456 0.031973
v -0.193999 0.152233 0.030500
v -0.193000 0.152233 0.031499
v -0.193956 0.151973 0.031456
v -0.194733 0.150500 0.031499
v -0.194733 0.151499 0.030500
v -0.194473 0.151456 0.031456
v -0.193000 0.107500 -0.030500
v -0.195000 0.109500 -0.030500
v -0.193000 0.109500 -0.032500
v -0.193999 0.107767 -0.030500
v -0.193000 0.107767 -0.031499
v -0.193956 0.108027 -0.031456
v -0.194733 0.109500 -0.031499
v -0.194733 0.108501 -0.030500
v -0.194473 0.108544 -0.031456
v -0.193000 0.108501 -0.032233
v -0.193999 0.109500 -0.032233
v -0.193956 0.108544 -0.031973
v -0.193000 0.152500 -0.030500
v -0.193000 0.150500 -0.032500
v -0.195000 0.150500 -0.030500
v -0.193000 0.152233 -0.031499
v -0.193999 0.152233 -0.030500
v -0.193956 0.151973 -0.031456
v -0.193999 0.150500 -0.032233
v -0.193000 0.151499 -0.032233
v -0.193956 0.151456 -0.031973
v -0.194733 0.151499 -0.030500
v -0.194733 0.150500 -0.031499
v -0.194473 0.151456 -0.031456
v 0.193000 0.107500 0.030500
v 0.195000 0.109500 0.030500
v 0.193000 0.109500 0.032500
v 0.193999 0.107767 0.030500
v 0.193000 0.107767 0.031499
v 0.193956 0.108027 0.031456
v 0.194733 0.109500 0.031499
v 0.194733 0.108501 0.030500
v 0.194473 0.108544 0.031456
v 0.193000 0.108501 0.032233
v 0.193999 0.109500 0.032233
v 0.193956 0.108544 0.031973
v 0.193000 0.152500 0.030500
v 0.193000 0.150500 0.032500
v 0.195000 0.150500 0.030500
v 0.193000 0.152233 0.031499
v 0.193999 0.152233 0.030500
v 0.193956 0.151973 0.031456
v 0.193999 0.150500 0.032233
v 0.193000 0.151499 0.032233
v 0.193956 0.151456 0.031973
v 0.194733 0.151499 0.030500
v 0.194733 0.150500 0.031499
v 0.194473 0.151456 0.031456
v 0.193000 0.107500 -0.030500
v 0.193000 0.109500 -0.032500
v 0.195000 0.109500 -0.030500
v 0.193000 0.107767 -0.031499
v 0.193999 0.107767 -0.030500
v 0.193956 0.108027 -0.031456
v 0.193999 0.109500 -0.032233
v 0.193000 0.108501 -0.032233
v 0.193956 0.108544 -0.031973
v 0.194733 0.108501 -0.030500
v 0.194733 0.109500 -0.031499
v 0.194473 0.108544 -0.031456
v 0.193000 0.152500 -0.030500
v 0.195000 0.150500 -0.030500
v 0.193000 0.150500 -0.032500
v 0.193999 0.152233 -0.030500
v 0.193000 0.152233 -0.031499
v 0.193956 0.151973 -0.031456
v 0.194733 0.150500 -0.031499
v 0.194733 0.151499 -0.030500
v 0.194473 0.151456 -0.031456
v 0.193000 0.151499 -0.032233
v 0.193999 0.150500 -0.032233
v 0.193956 0.151456 -0.031973
v -0.133000 -0.160000 0.038000
v -0.133000 -0.158000 0.040000
v -0.135000 -0.158000 0.038000
v -0.133000 -0.159733 0.038999
v -0.133999 -0.159733 0.038000
v -0.133956 -0.159473 0.038956
v -0.133999 -0.158000 0.039733
v -0.133000 -0.158999 0.039733
v -0.133956 -0.158956 0.039473
v -0.134733 -0.158999 0.038000
v -0.134733 -0.158000 0.038999
v -0.134473 -0.158956 0.038956
v -0.133000 -0.122000 0.040000
v -0.133000 -0.120000 0.038000
v -0.135000 -0.122000 0.038000
v -0.133000 -0.121001 0.039733
v -0.133999 -0.122000 0.039733
v -0.133956 -0.121044 0.039473
v -0.133999 -0.120267 0.038000
v -0.133000 -0.120267 0.038999
v -0.133956 -0.120527 0.038956
v -0.134733 -0.122000 0.038999
v -0.134733 -0.121001 0.038000
v -0.134473 -0.121044 0.038956
v -0.133000 -0.160000 -0.038000
v -0.135000 -0.158000 -0.038000
v -0.133000 -0.158000 -0.040000
v -0.133999 -0.159733 -0.038000
v -0.133000 -0.159733 -0.038999
v -0.133956 -0.159473 -0.038956
v -0.134733 -0.158000 -0.038999
v -0.134733 -0.158999 -0.038000
v -0.134473 -0.158956 -0.038956
v -0.133000 -0.158999 -0.039733
v -0.133999 -0.158000 -0.039733
v -0.133956 -0.158956 -0.039473
v -0.133000 -0.120000 -0.038000
v -0.133000 -0.122000 -0.040000
v -0.135000 -0.122000 -0.038000
v -0.133000 -0.120267 -0.038999
v -0.133999 -0.120267 -0.038000
v -0.133956 -0.120527 -0.038956
v -0.133999 -0.122000 -0.039733
v -0.133000 -0.121001 -0.039733
v -0.133956 -0.121044 -0.039473
v -0.134733 -0.121001 -0.038000
v -0.134733 -0.122000 -0.038999
v -0.134473 -0.121044 -0.038956
v 0.133000 -0.160000 0.038000
v 0.135000 -0.158000 0.038000
v 0.133000 -0.158000 0.040000
v 0.133999 -0.159733 0.038000
v 0.133000 -0.159733 0.038999
v 0.133956 -0.159473 0.038956
v 0.134733 -0.158000 0.038999
v 0.134733 -0.158999 0.038000
v 0.134473 -0.158956 0.038956
v 0.133000 -0.158999 0.039733
v 0.133999 -0.158000 0.039733
v 0.133956 -0.158956 0.039473
v 0.133000 -0.120000 0.038000
v 0.133000 -0.122000 0.040000
v 0.135000 -0.122000 0.038000
v 0.133000 -0.120267 0.038999
v 0.133999 -0.120267 0.038000
v 0.133956 -0.120527 0.038956
v 0.133999 -0.122000 0.039733
v 0.133000 -0.121001 0.039733
v 0.133956 -0.121044 0.039473
v 0.134733 -0.121001 0.038000
v 0.134733 -0.122000 0.038999
v 0.134473 -0.121044 0.038956
v 0.133000 -0.160000 -0.038000
v 0.133000 -0.158000 -0.040000
v 0.135000 -0.158000 -0.038000
v 0.133000 -0.159733 -0.038999
v 0.133999 -0.159733 -0.038000
v 0.133956 -0.159473 -0.038956
v 0.133999 -0.158000 -0.039733
v 0.133000 -0.158999 -0.039733
v 0.133956 -0.158956 -0.039473
v 0.134733 -0.158999 -0.038000
v 0.134733 -0.158000 -0.038999
v 0.134473 -0.158956 -0.038956
v 0.133000 -0.120000 -0.038000
v 0.135000 -0.122000 -0.038000
v 0.133000 -0.122000 -0.040000
v 0.133999 -0.120267 -0.038000
v 0.133000 -0.120267 -0.038999
v 0.133956 -0.120527 -0.038956
v 0.134733 -0.122000 -0.038999
v 0.134733 -0.121001 -0.038000
v 0.134473 -0.121044 -0.038956
v 0.133000 -0.121001 -0.039733
v 0.133999 -0.122000 -0.039733
v 0.133956 -0.121044 -0.039473
v -0.122000 -0.125000 -0.002000
v -0.122000 -0.123000 0.000000
v -0.124000 -0.123000 -0.002000
v -0.122000 -0.124733 -0.001001
v -0.122999 -0.124733 -0.002000
v -0.122956 -0.124473 -0.001044
v -0.122999 -0.123000 -0.000267
v -0.122000 -0.123999 -0.000267
v -0.122956 -0.123956 -0.000527
v -0.123733 -0.123999 -0.002000
v -0.123733 -0.123000 -0.001001
v -0.123473 -0.123956 -0.001044
v -0.122000 0.123000 0.000000
v -0.122000 0.125000 -0.002000
v -0.124000 0.123000 -0.002000
v -0.122000 0.123999 -0.000267
v -0.122999 0.123000 -0.000267
v -0.122956 0.123956 -0.000527
v -0.122999 0.124733 -0.002000
v -0.122000 0.124733 -0.001001
v -0.122956 0.124473 -0.001044
v -0.123733 0.123000 -0.001001
v -0.123733 0.123999 -0.002000
v -0.123473 0.123956 -0.001044
v -0.122000 -0.125000 -0.048000
v -0.124000 -0.123000 -0.048000
v -0.122000 -0.123000 -0.050000
v -0.122999 -0.124733 -0.048000
v -0.122000 -0.124733 -0.048999
v -0.122956 -0.124473 -0.048956
v -0.123733 -0.123000 -0.048999
v -0.123733 -0.123999 -0.048000
v -0.123473 -0.123956 -0.048956
v -0.122000 -0.123999 -0.049733
v -0.122999 -0.123000 -0.049733
v -0.122956 -0.123956 -0.049473
v -0.122000 0.125000 -0.048000
v -0.122000 0.123000 -0.050000
v -0.124000 0.123000 -0.048000
v -0.122000 0.124733 -0.048999
v -0.122999 0.124733 -0.048000
v -0.122956 0.124473 -0.048956
v -0.122999 0.123000 -0.049733
v -0.122000 0.123999 -0.049733
v -0.122956 0.123956 -0.049473
v -0.123733 0.123999 -0.048000
v -0.123733 0.123000 -0.048999
v -0.123473 0.123956 -0.048956
v -0.108000 -0.125000 -0.002000
v -0.106000 -0.123000 -0.002000
v -0.108000 -0.123000 0.000000
v -0.107001 -0.124733 -0.002000
v -0.108000 -0.124733 -0.001001
v -0.107044 -0.124473 -0.001044
v -0.106267 -0.123000 -0.001001
v -0.106267 -0.123999 -0.002000
v -0.106527 -0.123956 -0.001044
v -0.108000 -0.123999 -0.000267
v -0.107001 -0.123000 -0.000267
v -0.107044 -0.123956 -0.000527
v -0.108000 0.125000 -0.002000
v -0.108000 0.123000 0.000000
v -0.106000 0.123000 -0.002000
v -0.108000 0.124733 -0.001001
v -0.107001 0.124733 -0.002000
v -0.107044 0.124473 -0.001044
v -0.107001 0.123000 -0.000267
v -0.108000 0.123999 -0.000267
v -0.107044 0.123956 -0.000527
v -0.106267 0.123999 -0.002000
v -0.106267 0.123000 -0.001001
v -0.106527 0.123956 -0.001044
v -0.108000 -0.125000 -0.048000
v -0.108000 -0.123000 -0.050000
v -0.106000 -0.123000 -0.048000
v -0.108000 -0.124733 -0.048999
v -0.107001 -0.124733 -0.048000
v -0.107044 -0.124473 -0.048956
v -0.107001 -0.123000 -0.049733
v -0.108000 -0.123999 -0.049733
v -0.107044 -0.123956 -0.049473
v -0.106267 -0.123999 -0.048000
v -0.106267 -0.123000 -0.048999
v -0.106527 -0.123956 -0.048956
v -0.108000 0.125000 -0.048000
v -0.106000 0.123000 -0.048000
v -0.108000 0.123000 -0.050000
v -0.107001 0.124733 -0.048000
v -0.108000 0.124733 -0.048999
v -0.107044 0.124473 -0.048956
v -0.106267 0.123000 -0.048999
v -0.106267 0.123999 -0.048000
v -0.106527 0.123956 -0.048956
v -0.108000 0.123999 -0.049733
v -0.107001 0.123000 -0.049733
v -0.107044 0.123956 -0.049473
v 0.108000 -0.125000 -0.002000
v 0.108000 -0.123000 0.000000
v 0.106000 -0.123000 -0.002000
v 0.108000 -0.124733 -0.001001
v 0.107001 -0.124733 -0.002000
v 0.107044 -0.124473 -0.001044
v 0.107001 -0.123000 -0.000267
v 0.108000 -0.123999 -0.000267
v 0.107044 -0.123956 -0.000527
v 0.106267 -0.123999 -0.002000
v 0.106267 -0.123000 -0.001001
v 0.106527 -0.123956 -0.001044
v 0.108000 0.123000 0.000000
v 0.108000 0.125000 -0.002000
v 0.106000 0.123000 -0.002000
v 0.108000 0.123999 -0.000267
v 0.107001 0.123000 -0.000267
v 0.107044 0.123956 -0.000527
v 0.107001 0.124733 -0.002000
v 0.108000 0.124733 -0.001001
v 0.107044 0.124473 -0.001044
v 0.106267 0.123000 -0.001001
v 0.106267 0.123999 -0.002000
v 0.106527 0.123956 -0.001044
v 0.108000 -0.125000 -0.048000
v 0.106000 -0.123000 -0.048000
v 0.108000 -0.123000 -0.050000
v 0.107001 -0.124733 -0.048000
v 0.108000 -0.124733 -0.048999
v 0.107044 -0.124473 -0.048956
v 0.106267 -0.123000 -0.048999
v 0.106267 -0.123999 -0.048000
v 0.106527 -0.123956 -0.048956
v 0.108000 -0.123999 -0.049733
v 0.107001 -0.123000 -0.049733
v 0.107044 -0.123956 -0.049473
v 0.108000 0.125000 -0.048000
v 0.108000 0.123000 -0.050000
v 0.106000 0.123000 -0.048000
v 0.108000 0.124733 -0.048999
v 0.107001 0.124733 -0.048000
v 0.107044 0.124473 -0.048956
v 0.107001 0.123000 -0.049733
v 0.108000 0.123999 -0.049733
v 0.107044 0.123956 -0.049473
v 0.106267 0.123999 -0.048000
v 0.106267 0.123000 -0.048999
v 0.106527 0.123956 -0.048956
v 0.122000 -0.125000 -0.002000
v 0.124000 -0.123000 -0.002000
v 0.122000 -0.123000 0.000000
v 0.122999 -0.124733 -0.002000
v 0.122000 -0.124733 -0.001001
v 0.122956 -0.124473 -0.001044
v 0.123733 -0.123000 -0.001001
v 0.123733 -0.123999 -0.002000
v 0.123473 -0.123956 -0.001044
v 0.122000 -0.123999 -0.000267
v 0.122999 -0.123000 -0.000267
v 0.122956 -0.123956 -0.000527
v 0.122000 0.125000 -0.002000
v 0.122000 0.123000 0.000000
v 0.124000 0.123000 -0.002000
v 0.122000 0.124733 -0.001001
v 0.122999 0.124733 -0.002000
v 0.122956 0.124473 -0.001044
v 0.122999 0.123000 -0.000267
v 0.122000 0.123999 -0.000267
v 0.122956 0.123956 -0.000527
v 0.123733 0.123999 -0.002000
v 0.123733 0.123000 -0.001001
v 0.123473 0.123956 -0.001044
v 0.122000 -0.125000 -0.048000
v 0.122000 -0.123000 -0.050000
v 0.124000 -0.123000 -0.048000
v 0.122000 -0.124733 -0.048999
v 0.122999 -0.124733 -0.048000
v 0.122956 -0.124473 -0.048956
v 0.122999 -0.123000 -0.049733
v 0.122000 -0.123999 -0.049733
v 0.122956 -0.123956 -0.049473
v 0.123733 -0.123999 -0.048000
v 0.123733 -0.123000 -0.048999
v 0.123473 -0.123956 -0.048956
v 0.122000 0.125000 -0.048000
v 0.124000 0.123000 -0.048000
v 0.122000 0.123000 -0.050000
v 0.122999 0.124733 -0.048000
v 0.122000 0.124733 -0.048999
v 0.122956 0.124473 -0.048956
v 0.123733 0.123000 -0.048999
v 0.123733 0.123999 -0.048000
v 0.123473 0.123956 -0.048956
v 0.122000 0.123999 -0.049733
v 0.122999 0.123000 -0.049733
v 0.122956 0.123956 -0.049473
vn -0.2490 -0.9317 0.2646
vn -0.2187 -0.6900 0.6900
vn -0.2646 -0.2490 0.9317
vn -0.6900 -0.2187 0.6900
vn -0.9317 -0.2646 0.2490
vn -0.6900 -0.6900 0.2187
vn -0.5774 -0.5773 0.5773
vn -0.2490 0.2646 0.9317
vn -0.2187 0.6900 0.6900
vn -0.2646 0.9317 0.2490
vn -0.6900 0.6900 0.2187
vn -0.9317 0.2490 0.2646
vn -0.6900 0.2187 0.6900
vn -0.5774 0.5773 0.5773
vn -0.2646 -0.9317 -0.2490
vn -0.6900 -0.6900 -0.2187
vn -0.9317 -0.2490 -0.2646
vn -0.6900 -0.2187 -0.6900
vn -0.2490 -0.2646 -0.9317
vn -0.2187 -0.6900 -0.6900
vn -0.5774 -0.5773 -0.5774
vn -0.2490 0.9317 -0.2646
vn -0.2187 0.6900 -0.6900
vn -0.2646 0.2490 -0.9317
vn -0.6900 0.2187 -0.6900
vn -0.9317 0.2646 -0.2490
vn -0.6900 0.6900 -0.2187
vn -0.5774 0.5773 -0.5774
vn 0.2646 -0.9317 0.2490
vn 0.6900 -0.6900 0.2187
vn 0.9317 -0.2490 0.2646
vn 0.6900 -0.2187 0.6900
vn 0.2490 -0.2646 0.9317
vn 0.2187 -0.6900 0.6900
vn 0.5774 -0.5773 0.5773
vn 0.2490 0.9317 0.2646
vn 0.2187 0.6900 0.6900
vn 0.2646 0.2490 0.9317
vn 0.6900 0.2187 0.6900
vn 0.9317 0.2646 0.2490
vn 0.6900 0.6900 0.2187
vn 0.5774 0.5773 0.5773
vn 0.2490 -0.9317 -0.2646
vn 0.2187 -0.6900 -0.6900
vn 0.2646 -0.2490 -0.9317
vn 0.6900 -0.2187 -0.6900
vn 0.9317 -0.2646 -0.2490
vn 0.6900 -0.6900 -0.2187
vn 0.5774 -0.5773 -0.5774
vn 0.2646 0.9317 -0.2490
vn 0.6900 0.6900 -0.2187
vn 0.9317 0.2490 -0.2646
vn 0.6900 0.2187 -0.6900
vn 0.2490 0.2646 -0.9317
vn 0.2187 0.6900 -0.6900
vn 0.5774 0.5773 -0.5774
vn -0.2582 -0.9661 -0.0000
vn -0.7071 -0.7071 -0.0000
vn -0.9661 -0.2582 -0.0000
vn -0.2582 -0.0000 0.9661
vn -0.7071 -0.0000 0.7071
vn -0.9661 -0.0000 0.2582
vn -0.2582 0.9661 -0.0000
vn -0.7071 0.7071 -0.0000
vn -0.9661 0.2582 -0.0000
vn -0.2582 -0.0000 -0.9661
vn -0.7071 -0.0000 -0.7071
vn -0.9661 -0.0000 -0.2582
vn -0.0000 -0.9661 -0.2582
vn -0.0000 -0.7071 -0.7071
vn -0.0000 -0.2582 -0.9661
vn -0.0000 0.9661 -0.2582
vn -0.0000 0.7071 -0.7071
vn -0.0000 0.2582 -0.9661
vn 0.9661 -0.0000 -0.2582
vn 0.7071 -0.0000 -0.7071
vn 0.2582 -0.0000 -0.9661
vn 0.2582 -0.9661 -0.0000
vn 0.7071 -0.7071 -0.0000
vn 0.9661 -0.2582 -0.0000
vn 0.2582 0.9661 -0.0000
vn 0.7071 0.7071 -0.0000
vn 0.9661 0.2582 -0.0000
vn 0.2582 -0.0000 0.9661
vn 0.7071 -0.0000 0.7071
vn 0.9661 -0.0000 0.2582
vn -0.0000 -0.9661 0.2582
vn -0.0000 -0.7071 0.7071
vn -0.0000 -0.2582 0.9661
vn -0.0000 0.9661 0.2582
vn -0.0000 0.7071 0.7071
vn -0.0000 0.2582 0.9661
vn -0.0000 -1.0000 -0.0000
vn -1.0000 -0.0000 -0.0000
vn -0.0000 -0.0000 1.0000
vn -0.0000 1.0000 -0.0000
vn -0.0000 -0.0000 -1.0000
vn 1.0000 -0.0000 -0.0000
vn -0.5774 -0.5774 0.5773
vn -0.5774 0.5774 0.5773
vn -0.5774 -0.5774 -0.5773
vn -0.5774 0.5774 -0.5773
vn 0.5774 -0.5774 0.5773
vn 0.5774 0.5774 0.5773
vn 0.5774 -0.5774 -0.5773
vn 0.5774 0.5774 -0.5773
vn -0.5773 -0.5774 0.5773
vn -0.5773 -0.5774 -0.5773
vn 0.5773 -0.5774 0.5773
vn 0.5773 -0.5774 -0.5773
vn -0.5773 0.5774 0.5773
vn -0.5774 -0.5774 -0.5774
vn -0.5774 0.5774 -0.5774
vn 0.5774 -0.5773 -0.5773
vn 0.5774 0.5773 -0.5773
vn -0.5774 -0.5773 -0.5773
vn -0.5774 0.5773 -0.5773
vn 0.5773 0.5774 0.5773
vn 0.5774 -0.5774 -0.5774
vn 0.5774 0.5774 -0.5774
vn -0.2646 -0.9317 0.2490
vn -0.2490 -0.2646 0.9317
vn -0.9317 -0.2490 0.2646
vn -0.2646 0.2490 0.9317
vn -0.2490 0.9317 0.2646
vn -0.9317 0.2646 0.2490
vn -0.2490 -0.9317 -0.2646
vn -0.9317 -0.2646 -0.2490
vn -0.2646 -0.2490 -0.9317
vn -0.2646 0.9317 -0.2490
vn -0.2490 0.2646 -0.9317
vn -0.9317 0.2490 -0.2646
vn 0.2490 -0.9317 0.2646
vn 0.9317 -0.2646 0.2490
vn 0.2646 -0.2490 0.9317
vn 0.2646 0.9317 0.2490
vn 0.2490 0.2646 0.9317
vn 0.9317 0.2490 0.2646
vn 0.2646 -0.9317 -0.2490
vn 0.2490 -0.2646 -0.9317
vn 0.9317 -0.2490 -0.2646
vn 0.2490 0.9317 -0.2646
vn 0.9317 0.2646 -0.2490
vn 0.2646 0.2490 -0.9317
s 0
usemtl ChassisMetal
f 1//1 6//1 5//1
f 4//2 9//2 6//2
f 2//3 9//3 8//3
f 7//4 12//4 9//4
f 3//5 12//5 11//5
f 10//6 6//6 12//6
f 6//7 9//7 12//7
f 13//8 18//8 17//8
f 16//9 21//9 18//9
f 14//10 21//10 20//10
f 19//11 24//11 21//11
f 15//12 24//12 23//12
f 22//13 18//13 24//13
f 18//14 21//14 24//14
f 25//15 30//15 29//15
f 28//16 33//16 30//16
f 26//17 33//17 32//17
f 31//18 36//18 33//18
f 27//19 36//19 35//19
f 34//20 30//20 36//20
f 30//21 33//21 36//21
f 37//22 42//22 41//22
f 40//23 45//23 42//23
f 38//24 45//24 44//24
f 43//25 48//25 45//25
f 39//26 48//26 47//26
f 46//27 42//27 48//27
f 42//28 45//28 48//28
f 49//29 54//29 53//29
f 52//30 57//30 54//30
f 50//31 57//31 56//31
f 55//32 60//32 57//32
f 51//33 60//33 59//33
f 58//34 54//34 60//34
f 54//35 57//35 60//35
f 61//36 66//36 65//36
f 64//37 69//37 66//37
f 62//38 69//38 68//38
f 67//39 72//39 69//39
f 63//40 72//40 71//40
f 70//41 66//41 72//41
f 66//42 69//42 72//42
f 73//43 78//43 77//43
f 76//44 81//44 78//44
f 74//45 81//45 80//45
f 79//46 84//46 81//46
f 75//47 84//47 83//47
f 82//48 78//48 84//48
f 78//49 81//49 84//49
f 85//50 90//50 89//50
f 88//51 93//51 90//51
f 86//52 93//52 92//52
f 91//53 96//53 93//53
f 87//54 96//54 95//54
f 94//55 90//55 96//55
f 90//56 93//56 96//56
f 25//57 5//57 28//57
f 28//58 10//58 32//58
f 32//59 3//59 26//59
f 2//60 17//60 7//60
f 7//61 22//61 11//61
f 11//62 15//62 3//62
f 14//63 41//63 19//63
f 19//64 46//64 23//64
f 23//65 39//65 15//65
f 38//66 35//66 43//66
f 43//67 31//67 47//67
f 47//68 26//68 39//68
f 73//69 29//69 76//69
f 76//70 34//70 80//70
f 80//71 27//71 74//71
f 37//72 89//72 40//72
f 40//73 94//73 44//73
f 44//74 87//74 38//74
f 86//75 83//75 91//75
f 91//76 79//76 95//76
f 95//77 74//77 87//77
f 49//78 77//78 52//78
f 52//79 82//79 56//79
f 56//80 75//80 50//80
f 85//81 65//81 88//81
f 88//82 70//82 92//82
f 92//83 63//83 86//83
f 62//84 59//84 67//84
f 67//85 55//85 71//85
f 71//86 50//86 63//86
f 1//87 53//87 4//87
f 4//88 58//88 8//88
f 8//89 51//89 2//89
f 61//90 20//90 64//90
f 64//91 16//91 68//91
f 68//92 13//92 62//92
f 25//93 49//93 1//93
f 3//94 39//94 26//94
f 51//95 13//95 2//95
f 85//96 14//96 61//96
f 27//97 87//97 74//97
f 75//98 63//98 50//98
f 97//1 102//1 101//1
f 100//2 105//2 102//2
f 98//3 105//3 104//3
f 103//4 108//4 105//4
f 99//5 108//5 107//5
f 106//6 102//6 108//6
f 102//99 105//99 108//99
f 109//8 114//8 113//8
f 112//9 117//9 114//9
f 110//10 117//10 116//10
f 115//11 120//11 117//11
f 111//12 120//12 119//12
f 118//13 114//13 120//13
f 114//100 117//100 120//100
f 121//15 126//15 125//15
f 124//16 129//16 126//16
f 122//17 129//17 128//17
f 127//18 132//18 129//18
f 123//19 132//19 131//19
f 130//20 126//20 132//20
f 126//101 129//101 132//101
f 133//22 138//22 137//22
f 136//23 141//23 138//23
f 134//24 141//24 140//24
f 139//25 144//25 141//25
f 135//26 144//26 143//26
f 142//27 138//27 144//27
f 138//102 141//102 144//102
f 145//29 150//29 149//29
f 148//30 153//30 150//30
f 146//31 153//31 152//31
f 151//32 156//32 153//32
f 147//33 156//33 155//33
f 154//34 150//34 156//34
f 150//103 153//103 156//103
f 157//36 162//36 161//36
f 160//37 165//37 162//37
f 158//38 165//38 164//38
f 163//39 168//39 165//39
f 159//40 168//40 167//40
f 166//41 162//41 168//41
f 162//104 165//104 168//104
f 169//43 174//43 173//43
f 172//44 177//44 174//44
f 170//45 177//45 176//45
f 175//46 180//46 177//46
f 171//47 180//47 179//47
f 178//48 174//48 180//48
f 174//105 177//105 180//105
f 181//50 186//50 185//50
f 184//51 189//51 186//51
f 182//52 189//52 188//52
f 187//53 192//53 189//53
f 183//54 192//54 191//54
f 190//55 186//55 192//55
f 186//106 189//106 192//106
f 121//57 101//57 124//57
f 124//58 106//58 128//58
f 128//59 99//59 122//59
f 98//60 113//60 103//60
f 103//61 118//61 107//61
f 107//62 111//62 99//62
f 110//63 137//63 115//63
f 115//64 142//64 119//64
f 119//65 135//65 111//65
f 134//66 131//66 139//66
f 139//67 127//67 143//67
f 143//68 122//68 135//68
f 169//69 125//69 172//69
f 172//70 130//70 176//70
f 176//71 123//71 170//71
f 133//72 185//72 136//72
f 136//73 190//73 140//73
f 140//74 183//74 134//74
f 182//75 179//75 187//75
f 187//76 175//76 191//76
f 191//77 170//77 183//77
f 145//78 173//78 148//78
f 148//79 178//79 152//79
f 152//80 171//80 146//80
f 181//81 161//81 184//81
f 184//82 166//82 188//82
f 188//83 159//83 182//83
f 158//84 155//84 163//84
f 163//85 151//85 167//85
f 167//86 146//86 159//86
f 97//87 149//87 100//87
f 100//88 154//88 104//88
f 104//89 147//89 98//89
f 157//90 116//90 160//90
f 160//91 112//91 164//91
f 164//92 109//92 158//92
f 121//93 145//93 97//93
f 99//94 135//94 122//94
f 147//95 109//95 98//95
f 181//96 110//96 157//96
f 123//97 183//97 170//97
f 171//98 159//98 146//98
f 193//1 198//1 197//1
f 196//2 201//2 198//2
f 194//3 201//3 200//3
f 199//4 204//4 201//4
f 195//5 204//5 203//5
f 202//6 198//6 204//6
f 198//107 201//107 204//107
f 205//8 210//8 209//8
f 208//9 213//9 210//9
f 206//10 213//10 212//10
f 211//11 216//11 213//11
f 207//12 216//12 215//12
f 214//13 210//13 216//13
f 210//100 213//100 216//100
f 217//15 222//15 221//15
f 220//16 225//16 222//16
f 218//17 225//17 224//17
f 223//18 228//18 225//18
f 219//19 228//19 227//19
f 226//20 222//20 228//20
f 222//108 225//108 228//108
f 229//22 234//22 233//22
f 232//23 237//23 234//23
f 230//24 237//24 236//24
f 235//25 240//25 237//25
f 231//26 240//26 239//26
f 238//27 234//27 240//27
f 234//102 237//102 240//102
f 241//29 246//29 245//29
f 244//30 249//30 246//30
f 242//31 249//31 248//31
f 247//32 252//32 249//32
f 243//33 252//33 251//33
f 250//34 246//34 252//34
f 246//109 249//109 252//109
f 253//36 258//36 257//36
f 256//37 261//37 258//37
f 254//38 261//38 260//38
f 259//39 264//39 261//39
f 255//40 264//40 263//40
f 262//41 258//41 264//41
f 258//104 261//104 264//104
f 265//43 270//43 269//43
f 268//44 273//44 270//44
f 266//45 273//45 272//45
f 271//46 276//46 273//46
f 267//47 276//47 275//47
f 274//48 270//48 276//48
f 270//110 273//110 276//110
f 277//50 282//50 281//50
f 280//51 285//51 282//51
f 278//52 285//52 284//52
f 283//53 288//53 285//53
f 279//54 288//54 287//54
f 286//55 282//55 288//55
f 282//106 285//106 288//106
f 217//57 197//57 220//57
f 220//58 202//58 224//58
f 224//59 195//59 218//59
f 194//60 209//60 199//60
f 199//61 214//61 203//61
f 203//62 207//62 195//62
f 206//63 233//63 211//63
f 211//64 238//64 215//64
f 215//65 231//65 207//65
f 230//66 227//66 235//66
f 235//67 223//67 239//67
f 239//68 218//68 231//68
f 265//69 221//69 268//69
f 268//70 226//70 272//70
f 272//71 219//71 266//71
f 229//72 281//72 232//72
f 232//73 286//73 236//73
f 236//74 279//74 230//74
f 278//75 275//75 283//75
f 283//76 271//76 287//76
f 287//77 266//77 279//77
f 241//78 269//78 244//78
f 244//79 274//79 248//79
f 248//80 267//80 242//80
f 277//81 257//81 280//81
f 280//82 262//82 284//82
f 284//83 255//83 278//83
f 254//84 251//84 259//84
f 259//85 247//85 263//85
f 263//86 242//86 255//86
f 193//87 245//87 196//87
f 196//88 250//88 200//88
f 200//89 243//89 194//89
f 253//90 212//90 256//90
f 256//91 208//91 260//91
f 260//92 205//92 254//92
f 217//93 241//93 193//93
f 195//94 231//94 218//94
f 243//95 205//95 194//95
f 277//96 206//96 253//96
f 219//97 279//97 266//97
f 267//98 255//98 242//98
f 1//121 4//121 6//121
f 4//2 8//2 9//2
f 2//122 7//122 9//122
f 7//4 11//4 12//4
f 3//123 10//123 12//123
f 10//6 5//6 6//6
f 13//124 16//124 18//124
f 16//9 20//9 21//9
f 14//125 19//125 21//125
f 19//11 23//11 24//11
f 15//126 22//126 24//126
f 22//13 17//13 18//13
f 25//127 28//127 30//127
f 28//16 32//16 33//16
f 26//128 31//128 33//128
f 31//18 35//18 36//18
f 27//129 34//129 36//129
f 34//20 29//20 30//20
f 37//130 40//130 42//130
f 40//23 44//23 45//23
f 38//131 43//131 45//131
f 43//25 47//25 48//25
f 39//132 46//132 48//132
f 46//27 41//27 42//27
f 49//133 52//133 54//133
f 52//30 56//30 57//30
f 50//134 55//134 57//134
f 55//32 59//32 60//32
f 51//135 58//135 60//135
f 58//34 53//34 54//34
f 61//136 64//136 66//136
f 64//37 68//37 69//37
f 62//137 67//137 69//137
f 67//39 71//39 72//39
f 63//138 70//138 72//138
f 70//41 65//41 66//41
f 73//139 76//139 78//139
f 76//44 80//44 81//44
f 74//140 79//140 81//140
f 79//46 83//46 84//46
f 75//141 82//141 84//141
f 82//48 77//48 78//48
f 85//142 88//142 90//142
f 88//51 92//51 93//51
f 86//143 91//143 93//143
f 91//53 95//53 96//53
f 87//144 94//144 96//144
f 94//55 89//55 90//55
f 25//57 1//57 5//57
f 28//58 5//58 10//58
f 32//59 10//59 3//59
f 2//60 13//60 17//60
f 7//61 17//61 22//61
f 11//62 22//62 15//62
f 14//63 37//63 41//63
f 19//64 41//64 46//64
f 23//65 46//65 39//65
f 38//66 27//66 35//66
f 43//67 35//67 31//67
f 47//68 31//68 26//68
f 73//69 25//69 29//69
f 76//70 29//70 34//70
f 80//71 34//71 27//71
f 37//72 85//72 89//72
f 40//73 89//73 94//73
f 44//74 94//74 87//74
f 86//75 75//75 83//75
f 91//76 83//76 79//76
f 95//77 79//77 74//77
f 49//78 73//78 77//78
f 52//79 77//79 82//79
f 56//80 82//80 75//80
f 85//81 61//81 65//81
f 88//82 65//82 70//82
f 92//83 70//83 63//83
f 62//84 51//84 59//84
f 67//85 59//85 55//85
f 71//86 55//86 50//86
f 1//87 49//87 53//87
f 4//88 53//88 58//88
f 8//89 58//89 51//89
f 61//90 14//90 20//90
f 64//91 20//91 16//91
f 68//92 16//92 13//92
f 25//93 73//93 49//93
f 3//94 15//94 39//94
f 51//95 62//95 13//95
f 85//96 37//96 14//96
f 27//97 38//97 87//97
f 75//98 86//98 63//98
f 97//121 100//121 102//121
f 100//2 104//2 105//2
f 98//122 103//122 105//122
f 103//4 107//4 108//4
f 99//123 106//123 108//123
f 106//6 101//6 102//6
f 109//124 112//124 114//124
f 112//9 116//9 117//9
f 110//125 115//125 117//125
f 115//11 119//11 120//11
f 111//126 118//126 120//126
f 118//13 113//13 114//13
f 121//127 124//127 126//127
f 124//16 128//16 129//16
f 122//128 127//128 129//128
f 127//18 131//18 132//18
f 123//129 130//129 132//129
f 130//20 125//20 126//20
f 133//130 136//130 138//130
f 136//23 140//23 141//23
f 134//131 139//131 141//131
f 139//25 143//25 144//25
f 135//132 142//132 144//132
f 142//27 137//27 138//27
f 145//133 148//133 150//133
f 148//30 152//30 153//30
f 146//134 151//134 153//134
f 151//32 155//32 156//32
f 147//135 154//135 156//135
f 154//34 149//34 150//34
f 157//136 160//136 162//136
f 160//37 164//37 165//37
f 158//137 163//137 165//137
f 163//39 167//39 168//39
f 159//138 166//138 168//138
f 166//41 161//41 162//41
f 169//139 172//139 174//139
f 172//44 176//44 177//44
f 170//140 175//140 177//140
f 175//46 179//46 180//46
f 171//141 178//141 180//141
f 178//48 173//48 174//48
f 181//142 184//142 186//142
f 184//51 188//51 189//51
f 182//143 187//143 189//143
f 187//53 191//53 192//53
f 183//144 190//144 192//144
f 190//55 185//55 186//55
f 121//57 97//57 101//57
f 124//58 101//58 106//58
f 128//59 106//59 99//59
f 98//60 109//60 113//60
f 103//61 113//61 118//61
f 107//62 118//62 111//62
f 110//63 133//63 137//63
f 115//64 137//64 142//64
f 119//65 142//65 135//65
f 134//66 123//66 131//66
f 139//67 131//67 127//67
f 143//68 127//68 122//68
f 169//69 121//69 125//69
f 172//70 125//70 130//70
f 176//71 130//71 123//71
f 133//72 181//72 185//72
f 136//73 185//73 190//73
f 140//74 190//74 183//74
f 182//75 171//75 179//75
f 187//76 179//76 175//76
f 191//77 175//77 170//77
f 145//78 169//78 173//78
f 148//79 173//79 178//79
f 152//80 178//80 171//80
f 181//81 157//81 161//81
f 184//82 161//82 166//82
f 188//83 166//83 159//83
f 158//84 147//84 155//84
f 163//85 155//85 151//85
f 167//86 151//86 146//86
f 97//87 145//87 149//87
f 100//88 149//88 154//88
f 104//89 154//89 147//89
f 157//90 110//90 116//90
f 160//91 116//91 112//91
f 164//92 112//92 109//92
f 121//93 169//93 145//93
f 99//94 111//94 135//94
f 147//95 158//95 109//95
f 181//96 133//96 110//96
f 123//97 134//97 183//97
f 171//98 182//98 159//98
f 193//121 196//121 198//121
f 196//2 200//2 201//2
f 194//122 199//122 201//122
f 199//4 203//4 204//4
f 195//123 202//123 204//123
f 202//6 197//6 198//6
f 205//124 208//124 210//124
f 208//9 212//9 213//9
f 206//125 211//125 213//125
f 211//11 215//11 216//11
f 207//126 214//126 216//126
f 214//13 209//13 210//13
f 217//127 220//127 222//127
f 220//16 224//16 225//16
f 218//128 223//128 225//128
f 223//18 227//18 228//18
f 219//129 226//129 228//129
f 226//20 221//20 222//20
f 229//130 232//130 234//130
f 232//23 236//23 237//23
f 230//131 235//131 237//131
f 235//25 239//25 240//25
f 231//132 238//132 240//132
f 238//27 233//27 234//27
f 241//133 244//133 246//133
f 244//30 248//30 249//30
f 242//134 247//134 249//134
f 247//32 251//32 252//32
f 243//135 250//135 252//135
f 250//34 245//34 246//34
f 253//136 256//136 258//136
f 256//37 260//37 261//37
f 254//137 259//137 261//137
f 259//39 263//39 264//39
f 255//138 262//138 264//138
f 262//41 257//41 258//41
f 265//139 268//139 270//139
f 268//44 272//44 273//44
f 266//140 271//140 273//140
f 271//46 275//46 276//46
f 267//141 274//141 276//141
f 274//48 269//48 270//48
f 277//142 280//142 282//142
f 280//51 284//51 285//51
f 278//143 283//143 285//143
f 283//53 287//53 288//53
f 279//144 286//144 288//144
f 286//55 281//55 282//55
f 217//57 193//57 197//57
f 220//58 197//58 202//58
f 224//59 202//59 195//59
f 194//60 205//60 209//60
f 199//61 209//61 214//61
f 203//62 214//62 207//62
f 206//63 229//63 233//63
f 211//64 233//64 238//64
f 215//65 238//65 231//65
f 230//66 219//66 227//66
f 235//67 227//67 223//67
f 239//68 223//68 218//68
f 265//69 217//69 221//69
f 268//70 221//70 226//70
f 272//71 226//71 219//71
f 229//72 277//72 281//72
f 232//73 281//73 286//73
f 236//74 286//74 279//74
f 278//75 267//75 275//75
f 283//76 275//76 271//76
f 287//77 271//77 266//77
f 241//78 265//78 269//78
f 244//79 269//79 274//79
f 248//80 274//80 267//80
f 277//81 253//81 257//81
f 280//82 257//82 262//82
f 284//83 262//83 255//83
f 254//84 243//84 251//84
f 259//85 251//85 247//85
f 263//86 247//86 242//86
f 193//87 241//87 245//87
f 196//88 245//88 250//88
f 200//89 250//89 243//89
f 253//90 206//90 212//90
f 256//91 212//91 208//91
f 260//92 208//92 205//92
f 217//93 265//93 241//93
f 195//94 207//94 231//94
f 243//95 254//95 205//95
f 277//96 229//96 206//96
f 219//97 230//97 279//97
f 267//98 278//98 255//98
usemtl BracketMetal
f 289//1 294//1 293//1
f 292//2 297//2 294//2
f 290//3 297//3 296//3
f 295//4 300//4 297//4
f 291//5 300//5 299//5
f 298//6 294//6 300//6
f 294//107 297//107 300//107
f 301//8 306//8 305//8
f 304//9 309//9 306//9
f 302//10 309//10 308//10
f 307//11 312//11 309//11
f 303//12 312//12 311//12
f 310//13 306//13 312//13
f 306//111 309//111 312//111
f 313//15 318//15 317//15
f 316//16 321//16 318//16
f 314//17 321//17 320//17
f 319//18 324//18 321//18
f 315//19 324//19 323//19
f 322//20 318//20 324//20
f 318//112 321//112 324//112
f 325//22 330//22 329//22
f 328//23 333//23 330//23
f 326//24 333//24 332//24
f 331//25 336//25 333//25
f 327//26 336//26 335//26
f 334//27 330//27 336//27
f 330//113 333//113 336//113
f 337//29 342//29 341//29
f 340//30 345//30 342//30
f 338//31 345//31 344//31
f 343//32 348//32 345//32
f 339//33 348//33 347//33
f 346//34 342//34 348//34
f 342//103 345//103 348//103
f 349//36 354//36 353//36
f 352//37 357//37 354//37
f 350//38 357//38 356//38
f 355//39 360//39 357//39
f 351//40 360//40 359//40
f 358//41 354//41 360//41
f 354//104 357//104 360//104
f 361//43 366//43 365//43
f 364//44 369//44 366//44
f 362//45 369//45 368//45
f 367//46 372//46 369//46
f 363//47 372//47 371//47
f 370//48 366//48 372//48
f 366//114 369//114 372//114
f 373//50 378//50 377//50
f 376//51 381//51 378//51
f 374//52 381//52 380//52
f 379//53 384//53 381//53
f 375//54 384//54 383//54
f 382//55 378//55 384//55
f 378//115 381//115 384//115
f 313//57 293//57 316//57
f 316//58 298//58 320//58
f 320//59 291//59 314//59
f 290//60 305//60 295//60
f 295//61 310//61 299//61
f 299//62 303//62 291//62
f 302//63 329//63 307//63
f 307//64 334//64 311//64
f 311//65 327//65 303//65
f 326//66 323//66 331//66
f 331//67 319//67 335//67
f 335//68 314//68 327//68
f 361//69 317//69 364//69
f 364//70 322//70 368//70
f 368//71 315//71 362//71
f 325//72 377//72 328//72
f 328//73 382//73 332//73
f 332//74 375//74 326//74
f 374//75 371//75 379//75
f 379//76 367//76 383//76
f 383//77 362//77 375//77
f 337//78 365//78 340//78
f 340//79 370//79 344//79
f 344//80 363//80 338//80
f 373//81 353//81 376//81
f 376//82 358//82 380//82
f 380//83 351//83 374//83
f 350//84 347//84 355//84
f 355//85 343//85 359//85
f 359//86 338//86 351//86
f 289//87 341//87 292//87
f 292//88 346//88 296//88
f 296//89 339//89 290//89
f 349//90 308//90 352//90
f 352//91 304//91 356//91
f 356//92 301//92 350//92
f 313//93 337//93 289//93
f 291//94 327//94 314//94
f 339//95 301//95 290//95
f 373//96 302//96 349//96
f 315//97 375//97 362//97
f 363//98 351//98 338//98
f 385//1 390//1 389//1
f 388//2 393//2 390//2
f 386//3 393//3 392//3
f 391//4 396//4 393//4
f 387//5 396//5 395//5
f 394//6 390//6 396//6
f 390//99 393//99 396//99
f 397//8 402//8 401//8
f 400//9 405//9 402//9
f 398//10 405//10 404//10
f 403//11 408//11 405//11
f 399//12 408//12 407//12
f 406//13 402//13 408//13
f 402//100 405//100 408//100
f 409//15 414//15 413//15
f 412//16 417//16 414//16
f 410//17 417//17 416//17
f 415//18 420//18 417//18
f 411//19 420//19 419//19
f 418//20 414//20 420//20
f 414//116 417//116 420//116
f 421//22 426//22 425//22
f 424//23 429//23 426//23
f 422//24 429//24 428//24
f 427//25 432//25 429//25
f 423//26 432//26 431//26
f 430//27 426//27 432//27
f 426//117 429//117 432//117
f 433//29 438//29 437//29
f 436//30 441//30 438//30
f 434//31 441//31 440//31
f 439//32 444//32 441//32
f 435//33 444//33 443//33
f 442//34 438//34 444//34
f 438//109 441//109 444//109
f 445//36 450//36 449//36
f 448//37 453//37 450//37
f 446//38 453//38 452//38
f 451//39 456//39 453//39
f 447//40 456//40 455//40
f 454//41 450//41 456//41
f 450//118 453//118 456//118
f 457//43 462//43 461//43
f 460//44 465//44 462//44
f 458//45 465//45 464//45
f 463//46 468//46 465//46
f 459//47 468//47 467//47
f 466//48 462//48 468//48
f 462//119 465//119 468//119
f 469//50 474//50 473//50
f 472//51 477//51 474//51
f 470//52 477//52 476//52
f 475//53 480//53 477//53
f 471//54 480//54 479//54
f 478//55 474//55 480//55
f 474//120 477//120 480//120
f 409//57 389//57 412//57
f 412//58 394//58 416//58
f 416//59 387//59 410//59
f 386//60 401//60 391//60
f 391//61 406//61 395//61
f 395//62 399//62 387//62
f 398//63 425//63 403//63
f 403//64 430//64 407//64
f 407//65 423//65 399//65
f 422//66 419//66 427//66
f 427//67 415//67 431//67
f 431//68 410//68 423//68
f 457//69 413//69 460//69
f 460//70 418//70 464//70
f 464//71 411//71 458//71
f 421//72 473//72 424//72
f 424//73 478//73 428//73
f 428//74 471//74 422//74
f 470//75 467//75 475//75
f 475//76 463//76 479//76
f 479//77 458//77 471//77
f 433//78 461//78 436//78
f 436//79 466//79 440//79
f 440//80 459//80 434//80
f 469//81 449//81 472//81
f 472//82 454//82 476//82
f 476//83 447//83 470//83
f 446//84 443//84 451//84
f 451//85 439//85 455//85
f 455//86 434//86 447//86
f 385//87 437//87 388//87
f 388//88 442//88 392//88
f 392//89 435//89 386//89
f 445//90 404//90 448//90
f 448//91 400//91 452//91
f 452//92 397//92 446//92
f 409//93 433//93 385//93
f 387//94 423//94 410//94
f 435//95 397//95 386//95
f 469//96 398//96 445//96
f 411//97 471//97 458//97
f 459//98 447//98 434//98
f 289//121 292//121 294//121
f 292//2 296//2 297//2
f 290//122 295//122 297//122
f 295//4 299//4 300//4
f 291//123 298//123 300//123
f 298//6 293//6 294//6
f 301//124 304//124 306//124
f 304//9 308//9 309//9
f 302//125 307//125 309//125
f 307//11 311//11 312//11
f 303//126 310//126 312//126
f 310//13 305//13 306//13
f 313//127 316//127 318//127
f 316//16 320//16 321//16
f 314//128 319//128 321//128
f 319//18 323//18 324//18
f 315//129 322//129 324//129
f 322//20 317//20 318//20
f 325//130 328//130 330//130
f 328//23 332//23 333//23
f 326//131 331//131 333//131
f 331//25 335//25 336//25
f 327//132 334//132 336//132
f 334//27 329//27 330//27
f 337//133 340//133 342//133
f 340//30 344//30 345//30
f 338//134 343//134 345//134
f 343//32 347//32 348//32
f 339//135 346//135 348//135
f 346//34 341//34 342//34
f 349//136 352//136 354//136
f 352//37 356//37 357//37
f 350//137 355//137 357//137
f 355//39 359//39 360//39
f 351//138 358//138 360//138
f 358//41 353//41 354//41
f 361//139 364//139 366//139
f 364//44 368//44 369//44
f 362//140 367//140 369//140
f 367//46 371//46 372//46
f 363//141 370//141 372//141
f 370//48 365//48 366//48
f 373//142 376//142 378//142
f 376//51 380//51 381//51
f 374//143 379//143 381//143
f 379//53 383//53 384//53
f 375//144 382//144 384//144
f 382//55 377//55 378//55
f 313//57 289//57 293//57
f 316//58 293//58 298//58
f 320//59 298//59 291//59
f 290//60 301//60 305//60
f 295//61 305//61 310//61
f 299//62 310//62 303//62
f 302//63 325//63 329//63
f 307//64 329//64 334//64
f 311//65 334//65 327//65
f 326//66 315//66 323//66
f 331//67 323//67 319//67
f 335//68 319//68 314//68
f 361//69 313//69 317//69
f 364//70 317//70 322//70
f 368//71 322//71 315//71
f 325//72 373//72 377//72
f 328//73 377//73 382//73
f 332//74 382//74 375//74
f 374//75 363//75 371//75
f 379//76 371//76 367//76
f 383//77 367//77 362//77
f 337//78 361//78 365//78
f 340//79 365//79 370//79
f 344//80 370//80 363//80
f 373//81 349//81 353//81
f 376//82 353//82 358//82
f 380//83 358//83 351//83
f 350//84 339//84 347//84
f 355//85 347//85 343//85
f 359//86 343//86 338//86
f 289//87 337//87 341//87
f 292//88 341//88 346//88
f 296//89 346//89 339//89
f 349//90 302//90 308//90
f 352//91 308//91 304//91
f 356//92 304//92 301//92
f 313//93 361//93 337//93
f 291//94 303//94 327//94
f 339//95 350//95 301//95
f 373//96 325//96 302//96
f 315//97 326//97 375//97
f 363//98 374//98 351//98
f 385//121 388//121 390//121
f 388//2 392//2 393//2
f 386//122 391//122 393//122
f 391//4 395//4 396//4
f 387//123 394//123 396//123
f 394//6 389//6 390//6
f 397//124 400//124 402//124
f 400//9 404//9 405//9
f 398//125 403//125 405//125
f 403//11 407//11 408//11
f 399//126 406//126 408//126
f 406//13 401//13 402//13
f 409//127 412//127 414//127
f 412//16 416//16 417//16
f 410//128 415//128 417//128
f 415//18 419//18 420//18
f 411//129 418//129 420//129
f 418//20 413//20 414//20
f 421//130 424//130 426//130
f 424//23 428//23 429//23
f 422//131 427//131 429//131
f 427//25 431//25 432//25
f 423//132 430//132 432//132
f 430//27 425//27 426//27
f 433//133 436//133 438//133
f 436//30 440//30 441//30
f 434//134 439//134 441//134
f 439//32 443//32 444//32
f 435//135 442//135 444//135
f 442//34 437//34 438//34
f 445//136 448//136 450//136
f 448//37 452//37 453//37
f 446//137 451//137 453//137
f 451//39 455//39 456//39
f 447//138 454//138 456//138
f 454//41 449//41 450//41
f 457//139 460//139 462//139
f 460//44 464//44 465//44
f 458//140 463//140 465//140
f 463//46 467//46 468//46
f 459//141 466//141 468//141
f 466//48 461//48 462//48
f 469//142 472//142 474//142
f 472//51 476//51 477//51
f 470//143 475//143 477//143
f 475//53 479//53 480//53
f 471//144 478//144 480//144
f 478//55 473//55 474//55
f 409//57 385//57 389//57
f 412//58 389//58 394//58
f 416//59 394//59 387//59
f 386//60 397//60 401//60
f 391//61 401//61 406//61
f 395//62 406//62 399//62
f 398//63 421//63 425//63
f 403//64 425//64 430//64
f 407//65 430//65 423//65
f 422//66 411//66 419//66
f 427//67 419//67 415//67
f 431//68 415//68 410//68
f 457//69 409//69 413//69
f 460//70 413//70 418//70
f 464//71 418//71 411//71
f 421//72 469//72 473//72
f 424//73 473//73 478//73
f 428//74 478//74 471//74
f 470//75 459//75 467//75
f 475//76 467//76 463//76
f 479//77 463//77 458//77
f 433//78 457//78 461//78
f 436//79 461//79 466//79
f 440//80 466//80 459//80
f 469//81 445//81 449//81
f 472//82 449//82 454//82
f 476//83 454//83 447//83
f 446//84 435//84 443//84
f 451//85 443//85 439//85
f 455//86 439//86 434//86
f 385//87 433//87 437//87
f 388//88 437//88 442//88
f 392//89 442//89 435//89
f 445//90 398//90 404//90
f 448//91 404//91 400//91
f 452//92 400//92 397//92
f 409//93 457//93 433//93
f 387//94 399//94 423//94
f 435//95 446//95 397//95
f 469//96 421//96 398//96
f 411//97 422//97 471//97
f 459//98 470//98 447//98
