# Blender 5.2.1 LTS
# www.blender.org
mtllib modular_upper_arm_frame.mtl
o modular_upper_arm_frame
v -0.022795 -0.082000 0.010000
v -0.022795 -0.080000 0.012000
v -0.024795 -0.080000 0.010000
v -0.022795 -0.081733 0.010999
v -0.023794 -0.081733 0.010000
v -0.023751 -0.081473 0.010956
v -0.023794 -0.080000 0.011733
v -0.022795 -0.080999 0.011733
v -0.023751 -0.080956 0.011473
v -0.024528 -0.080999 0.010000
v -0.024528 -0.080000 0.010999
v -0.024268 -0.080956 0.010956
v -0.022795 0.080000 0.012000
v -0.022795 0.082000 0.010000
v -0.024795 0.080000 0.010000
v -0.022795 0.080999 0.011733
v -0.023794 0.080000 0.011733
v -0.023751 0.080956 0.011473
v -0.023794 0.081733 0.010000
v -0.022795 0.081733 0.010999
v -0.023751 0.081473 0.010956
v -0.024528 0.080000 0.010999
v -0.024528 0.080999 0.010000
v -0.024268 0.080956 0.010956
v -0.022795 -0.082000 -0.010000
v -0.024795 -0.080000 -0.010000
v -0.022795 -0.080000 -0.012000
v -0.023794 -0.081733 -0.010000
v -0.022795 -0.081733 -0.010999
v -0.023751 -0.081473 -0.010956
v -0.024528 -0.080000 -0.010999
v -0.024528 -0.080999 -0.010000
v -0.024268 -0.080956 -0.010956
v -0.022795 -0.080999 -0.011733
v -0.023794 -0.080000 -0.011733
v -0.023751 -0.080956 -0.011473
v -0.022795 0.082000 -0.010000
v -0.022795 0.080000 -0.012000
v -0.024795 0.080000 -0.010000
v -0.022795 0.081733 -0.010999
v -0.023794 0.081733 -0.010000
v -0.023751 0.081473 -0.010956
v -0.023794 0.080000 -0.011733
v -0.022795 0.080999 -0.011733
v -0.023751 0.080956 -0.011473
v -0.024528 0.080999 -0.010000
v -0.024528 0.080000 -0.010999
v -0.024268 0.080956 -0.010956
v -0.013685 -0.082000 0.010000
v -0.011685 -0.080000 0.010000
v -0.013685 -0.080000 0.012000
v -0.012686 -0.081733 0.010000
v -0.013685 -0.081733 0.010999
v -0.012729 -0.081473 0.010956
v -0.011952 -0.080000 0.010999
v -0.011952 -0.080999 0.010000
v -0.012212 -0.080956 0.010956
v -0.013685 -0.080999 0.011733
v -0.012686 -0.080000 0.011733
v -0.012729 -0.080956 0.011473
v -0.013685 0.082000 0.010000
v -0.013685 0.080000 0.012000
v -0.011685 0.080000 0.010000
v -0.013685 0.081733 0.010999
v -0.012686 0.081733 0.010000
v -0.012729 0.081473 0.010956
v -0.012686 0.080000 0.011733
v -0.013685 0.080999 0.011733
v -0.012729 0.080956 0.011473
v -0.011952 0.080999 0.010000
v -0.011952 0.080000 0.010999
v -0.012212 0.080956 0.010956
v -0.013685 -0.082000 -0.010000
v -0.013685 -0.080000 -0.012000
v -0.011685 -0.080000 -0.010000
v -0.013685 -0.081733 -0.010999
v -0.012686 -0.081733 -0.010000
v -0.012729 -0.081473 -0.010956
v -0.012686 -0.080000 -0.011733
v -0.013685 -0.080999 -0.011733
v -0.012729 -0.080956 -0.011473
v -0.011952 -0.080999 -0.010000
v -0.011952 -0.080000 -0.010999
v -0.012212 -0.080956 -0.010956
v -0.013685 0.082000 -0.010000
v -0.011685 0.080000 -0.010000
v -0.013685 0.080000 -0.012000
v -0.012686 0.081733 -0.010000
v -0.013685 0.081733 -0.010999
v -0.012729 0.081473 -0.010956
v -0.011952 0.080000 -0.010999
v -0.011952 0.080999 -0.010000
v -0.012212 0.080956 -0.010956
v -0.013685 0.080999 -0.011733
v -0.012686 0.080000 -0.011733
v -0.012729 0.080956 -0.011473
v -0.015813 -0.040877 0.012000
v -0.015240 -0.042640 0.012000
v -0.015387 -0.043567 0.012000
v -0.015387 -0.041713 0.012000
v -0.021240 -0.042640 0.012000
v -0.021093 -0.041713 0.012000
v -0.021093 -0.043567 0.012000
v -0.020003 -0.045067 0.012000
v -0.020003 -0.040213 0.012000
v -0.019167 -0.045493 0.012000
v -0.020667 -0.044403 0.012000
v -0.020667 -0.040877 0.012000
v -0.018240 -0.045640 0.012000
v -0.017962 -0.045596 0.012000
v -0.018240 -0.039640 0.012000
v -0.016477 -0.045067 0.012000
v -0.015813 -0.044403 0.012000
v -0.016477 -0.040213 0.012000
v -0.017313 -0.045493 0.012000
v -0.017313 -0.039787 0.012000
v -0.019167 -0.039787 0.012000
v -0.021240 -0.042640 -0.012000
v -0.021093 -0.043567 -0.012000
v -0.020667 -0.040877 -0.012000
v -0.021093 -0.041713 -0.012000
v -0.020667 -0.044403 -0.012000
v -0.020003 -0.040213 -0.012000
v -0.020003 -0.045067 -0.012000
v -0.018518 -0.045596 -0.012000
v -0.018240 -0.045640 -0.012000
v -0.019167 -0.045493 -0.012000
v -0.018240 -0.039640 -0.012000
v -0.019167 -0.039787 -0.012000
v -0.016477 -0.045067 -0.012000
v -0.016477 -0.040213 -0.012000
v -0.015240 -0.042640 -0.012000
v -0.015387 -0.043567 -0.012000
v -0.015387 -0.041713 -0.012000
v -0.015813 -0.040877 -0.012000
v -0.017313 -0.045493 -0.012000
v -0.015813 -0.044403 -0.012000
v -0.017313 -0.039787 -0.012000
v -0.021240 0.000000 0.012000
v -0.021093 -0.000927 0.012000
v -0.020667 -0.001763 0.012000
v -0.021093 0.000927 0.012000
v -0.020667 0.001763 0.012000
v -0.020003 0.002427 0.012000
v -0.019167 -0.002853 0.012000
v -0.019167 0.002853 0.012000
v -0.020003 -0.002427 0.012000
v -0.015240 0.000000 0.012000
v -0.015387 0.000927 0.012000
v -0.015387 -0.000927 0.012000
v -0.018240 0.003000 0.012000
v -0.018240 -0.003000 0.012000
v -0.018046 -0.002969 0.012000
v -0.015813 0.001763 0.012000
v -0.015813 -0.001763 0.012000
v -0.016477 -0.002427 0.012000
v -0.016477 0.002427 0.012000
v -0.017313 0.002853 0.012000
v -0.017478 -0.002879 0.012000
v -0.017313 -0.002853 0.012000
v -0.016477 0.002427 -0.012000
v -0.017313 -0.002853 -0.012000
v -0.017313 0.002853 -0.012000
v -0.015813 -0.001763 -0.012000
v -0.015240 0.000000 -0.012000
v -0.015387 0.000927 -0.012000
v -0.015387 -0.000927 -0.012000
v -0.015813 0.001763 -0.012000
v -0.016477 -0.002427 -0.012000
v -0.021240 0.000000 -0.012000
v -0.021093 -0.000927 -0.012000
v -0.021093 0.000927 -0.012000
v -0.018240 0.003000 -0.012000
v -0.018240 -0.003000 -0.012000
v -0.018434 -0.002969 -0.012000
v -0.020667 -0.001763 -0.012000
v -0.020667 0.001763 -0.012000
v -0.020003 -0.002427 -0.012000
v -0.020003 0.002427 -0.012000
v -0.019002 -0.002879 -0.012000
v -0.019167 0.002853 -0.012000
v -0.019167 -0.002853 -0.012000
v -0.018518 0.045596 0.012000
v -0.019167 0.045493 0.012000
v -0.017313 0.039787 0.012000
v -0.017313 0.045493 0.012000
v -0.018240 0.039640 0.012000
v -0.018240 0.045640 0.012000
v -0.015813 0.040877 0.012000
v -0.015240 0.042640 0.012000
v -0.015387 0.041713 0.012000
v -0.015387 0.043567 0.012000
v -0.016477 0.040213 0.012000
v -0.015813 0.044403 0.012000
v -0.016477 0.045067 0.012000
v -0.019167 0.039787 0.012000
v -0.020003 0.045067 0.012000
v -0.021240 0.042640 0.012000
v -0.021093 0.041713 0.012000
v -0.021093 0.043567 0.012000
v -0.020667 0.044403 0.012000
v -0.020003 0.040213 0.012000
v -0.020667 0.040877 0.012000
v -0.021240 0.042640 -0.012000
v -0.021093 0.041713 -0.012000
v -0.021093 0.043567 -0.012000
v -0.020667 0.040877 -0.012000
v -0.020667 0.044403 -0.012000
v -0.020003 0.040213 -0.012000
v -0.020003 0.045067 -0.012000
v -0.019167 0.039787 -0.012000
v -0.019167 0.045493 -0.012000
v -0.017313 0.045493 -0.012000
v -0.017962 0.045596 -0.012000
v -0.018240 0.045640 -0.012000
v -0.018240 0.039640 -0.012000
v -0.017313 0.039787 -0.012000
v -0.016477 0.045067 -0.012000
v -0.015387 0.041713 -0.012000
v -0.015240 0.042640 -0.012000
v -0.015387 0.043567 -0.012000
v -0.016477 0.040213 -0.012000
v -0.015813 0.044403 -0.012000
v -0.015813 0.040877 -0.012000
v 0.013685 -0.082000 0.010000
v 0.013685 -0.080000 0.012000
v 0.011685 -0.080000 0.010000
v 0.013685 -0.081733 0.010999
v 0.012686 -0.081733 0.010000
v 0.012729 -0.081473 0.010956
v 0.012686 -0.080000 0.011733
v 0.013685 -0.080999 0.011733
v 0.012729 -0.080956 0.011473
v 0.011952 -0.080999 0.010000
v 0.011952 -0.080000 0.010999
v 0.012212 -0.080956 0.010956
v 0.013685 0.080000 0.012000
v 0.013685 0.082000 0.010000
v 0.011685 0.080000 0.010000
v 0.013685 0.080999 0.011733
v 0.012686 0.080000 0.011733
v 0.012729 0.080956 0.011473
v 0.012686 0.081733 0.010000
v 0.013685 0.081733 0.010999
v 0.012729 0.081473 0.010956
v 0.011952 0.080000 0.010999
v 0.011952 0.080999 0.010000
v 0.012212 0.080956 0.010956
v 0.013685 -0.082000 -0.010000
v 0.011685 -0.080000 -0.010000
v 0.013685 -0.080000 -0.012000
v 0.012686 -0.081733 -0.010000
v 0.013685 -0.081733 -0.010999
v 0.012729 -0.081473 -0.010956
v 0.011952 -0.080000 -0.010999
v 0.011952 -0.080999 -0.010000
v 0.012212 -0.080956 -0.010956
v 0.013685 -0.080999 -0.011733
v 0.012686 -0.080000 -0.011733
v 0.012729 -0.080956 -0.011473
v 0.013685 0.082000 -0.010000
v 0.013685 0.080000 -0.012000
v 0.011685 0.080000 -0.010000
v 0.013685 0.081733 -0.010999
v 0.012686 0.081733 -0.010000
v 0.012729 0.081473 -0.010956
v 0.012686 0.080000 -0.011733
v 0.013685 0.080999 -0.011733
v 0.012729 0.080956 -0.011473
v 0.011952 0.080999 -0.010000
v 0.011952 0.080000 -0.010999
v 0.012212 0.080956 -0.010956
v 0.022795 -0.082000 0.010000
v 0.024795 -0.080000 0.010000
v 0.022795 -0.080000 0.012000
v 0.023794 -0.081733 0.010000
v 0.022795 -0.081733 0.010999
v 0.023751 -0.081473 0.010956
v 0.024528 -0.080000 0.010999
v 0.024528 -0.080999 0.010000
v 0.024268 -0.080956 0.010956
v 0.022795 -0.080999 0.011733
v 0.023794 -0.080000 0.011733
v 0.023751 -0.080956 0.011473
v 0.022795 0.082000 0.010000
v 0.022795 0.080000 0.012000
v 0.024795 0.080000 0.010000
v 0.022795 0.081733 0.010999
v 0.023794 0.081733 0.010000
v 0.023751 0.081473 0.010956
v 0.023794 0.080000 0.011733
v 0.022795 0.080999 0.011733
v 0.023751 0.080956 0.011473
v 0.024528 0.080999 0.010000
v 0.024528 0.080000 0.010999
v 0.024268 0.080956 0.010956
v 0.022795 -0.082000 -0.010000
v 0.022795 -0.080000 -0.012000
v 0.024795 -0.080000 -0.010000
v 0.022795 -0.081733 -0.010999
v 0.023794 -0.081733 -0.010000
v 0.023751 -0.081473 -0.010956
v 0.023794 -0.080000 -0.011733
v 0.022795 -0.080999 -0.011733
v 0.023751 -0.080956 -0.011473
v 0.024528 -0.080999 -0.010000
v 0.024528 -0.080000 -0.010999
v 0.024268 -0.080956 -0.010956
v 0.022795 0.082000 -0.010000
v 0.024795 0.080000 -0.010000
v 0.022795 0.080000 -0.012000
v 0.023794 0.081733 -0.010000
v 0.022795 0.081733 -0.010999
v 0.023751 0.081473 -0.010956
v 0.024528 0.080000 -0.010999
v 0.024528 0.080999 -0.010000
v 0.024268 0.080956 -0.010956
v 0.022795 0.080999 -0.011733
v 0.023794 0.080000 -0.011733
v 0.023751 0.080956 -0.011473
v 0.020667 -0.040877 0.012000
v 0.021240 -0.042640 0.012000
v 0.021093 -0.043567 0.012000
v 0.021093 -0.041713 0.012000
v 0.015240 -0.042640 0.012000
v 0.015387 -0.041713 0.012000
v 0.015387 -0.043567 0.012000
v 0.016477 -0.045067 0.012000
v 0.016477 -0.040213 0.012000
v 0.017313 -0.045493 0.012000
v 0.015813 -0.044403 0.012000
v 0.015813 -0.040877 0.012000
v 0.018240 -0.045640 0.012000
v 0.018518 -0.045596 0.012000
v 0.018240 -0.039640 0.012000
v 0.020003 -0.045067 0.012000
v 0.020667 -0.044403 0.012000
v 0.020003 -0.040213 0.012000
v 0.019167 -0.045493 0.012000
v 0.019167 -0.039787 0.012000
v 0.017313 -0.039787 0.012000
v 0.015240 -0.042640 -0.012000
v 0.015387 -0.043567 -0.012000
v 0.015813 -0.040877 -0.012000
v 0.015387 -0.041713 -0.012000
v 0.015813 -0.044403 -0.012000
v 0.016477 -0.040213 -0.012000
v 0.016477 -0.045067 -0.012000
v 0.017962 -0.045596 -0.012000
v 0.018240 -0.045640 -0.012000
v 0.017313 -0.045493 -0.012000
v 0.018240 -0.039640 -0.012000
v 0.017313 -0.039787 -0.012000
v 0.020003 -0.045067 -0.012000
v 0.020003 -0.040213 -0.012000
v 0.021240 -0.042640 -0.012000
v 0.021093 -0.043567 -0.012000
v 0.021093 -0.041713 -0.012000
v 0.020667 -0.040877 -0.012000
v 0.019167 -0.045493 -0.012000
v 0.020667 -0.044403 -0.012000
v 0.019167 -0.039787 -0.012000
v 0.015240 0.000000 0.012000
v 0.015387 -0.000927 0.012000
v 0.015813 -0.001763 0.012000
v 0.015387 0.000927 0.012000
v 0.015813 0.001763 0.012000
v 0.016477 0.002427 0.012000
v 0.017313 -0.002853 0.012000
v 0.017313 0.002853 0.012000
v 0.016477 -0.002427 0.012000
v 0.021240 0.000000 0.012000
v 0.021093 0.000927 0.012000
v 0.021093 -0.000927 0.012000
v 0.018240 0.003000 0.012000
v 0.018240 -0.003000 0.012000
v 0.018434 -0.002969 0.012000
v 0.020667 0.001763 0.012000
v 0.020667 -0.001763 0.012000
v 0.020003 -0.002427 0.012000
v 0.020003 0.002427 0.012000
v 0.019167 0.002853 0.012000
v 0.019002 -0.002879 0.012000
v 0.019167 -0.002853 0.012000
v 0.020003 0.002427 -0.012000
v 0.019167 -0.002853 -0.012000
v 0.019167 0.002853 -0.012000
v 0.020667 -0.001763 -0.012000
v 0.021240 0.000000 -0.012000
v 0.021093 0.000927 -0.012000
v 0.021093 -0.000927 -0.012000
v 0.020667 0.001763 -0.012000
v 0.020003 -0.002427 -0.012000
v 0.015240 0.000000 -0.012000
v 0.015387 -0.000927 -0.012000
v 0.015387 0.000927 -0.012000
v 0.018240 0.003000 -0.012000
v 0.018240 -0.003000 -0.012000
v 0.018046 -0.002969 -0.012000
v 0.015813 -0.001763 -0.012000
v 0.015813 0.001763 -0.012000
v 0.016477 -0.002427 -0.012000
v 0.016477 0.002427 -0.012000
v 0.017478 -0.002879 -0.012000
v 0.017313 0.002853 -0.012000
v 0.017313 -0.002853 -0.012000
v 0.017962 0.045596 0.012000
v 0.017313 0.045493 0.012000
v 0.019167 0.039787 0.012000
v 0.019167 0.045493 0.012000
v 0.018240 0.039640 0.012000
v 0.018240 0.045640 0.012000
v 0.020667 0.040877 0.012000
v 0.021240 0.042640 0.012000
v 0.021093 0.041713 0.012000
v 0.021093 0.043567 0.012000
v 0.020003 0.040213 0.012000
v 0.020667 0.044403 0.012000
v 0.020003 0.045067 0.012000
v 0.017313 0.039787 0.012000
v 0.016477 0.045067 0.012000
v 0.015240 0.042640 0.012000
v 0.015387 0.041713 0.012000
v 0.015387 0.043567 0.012000
v 0.015813 0.044403 0.012000
v 0.016477 0.040213 0.012000
v 0.015813 0.040877 0.012000
v 0.015240 0.042640 -0.012000
v 0.015387 0.041713 -0.012000
v 0.015387 0.043567 -0.012000
v 0.015813 0.040877 -0.012000
v 0.015813 0.044403 -0.012000
v 0.016477 0.040213 -0.012000
v 0.016477 0.045067 -0.012000
v 0.017313 0.039787 -0.012000
v 0.017313 0.045493 -0.012000
v 0.019167 0.045493 -0.012000
v 0.018518 0.045596 -0.012000
v 0.018240 0.045640 -0.012000
v 0.018240 0.039640 -0.012000
v 0.019167 0.039787 -0.012000
v 0.020003 0.045067 -0.012000
v 0.021093 0.041713 -0.012000
v 0.021240 0.042640 -0.012000
v 0.021093 0.043567 -0.012000
v 0.020003 0.040213 -0.012000
v 0.020667 0.044403 -0.012000
v 0.020667 0.040877 -0.012000
v -0.016229 -0.046824 0.022800
v -0.009707 -0.046800 0.016300
v -0.009175 -0.053300 0.022800
v -0.015354 -0.046816 0.019554
v -0.015088 -0.050062 0.022800
v -0.014249 -0.049918 0.019692
v -0.009438 -0.050041 0.017168
v -0.012960 -0.046807 0.017168
v -0.012564 -0.049911 0.018012
v -0.012499 -0.052439 0.022800
v -0.009242 -0.052427 0.019554
v -0.012426 -0.051591 0.019692
v 0.016229 -0.046824 0.022800
v 0.009175 -0.053300 0.022800
v 0.009707 -0.046800 0.016300
v 0.015088 -0.050062 0.022800
v 0.015354 -0.046816 0.019554
v 0.014249 -0.049918 0.019692
v 0.009242 -0.052427 0.019554
v 0.012499 -0.052439 0.022800
v 0.012426 -0.051591 0.019692
v 0.012960 -0.046807 0.017168
v 0.009438 -0.050041 0.017168
v 0.012564 -0.049911 0.018012
v 0.018295 0.053300 0.022800
v 0.024241 0.046824 0.022800
v 0.017715 0.046800 0.016300
v 0.021471 0.052439 0.022800
v 0.018213 0.052427 0.019554
v 0.021254 0.051591 0.019692
v 0.023364 0.046816 0.019554
v 0.023654 0.050062 0.022800
v 0.022791 0.049918 0.019692
v 0.018000 0.050041 0.017168
v 0.020969 0.046807 0.017168
v 0.021104 0.049911 0.018012
v -0.024241 0.046824 0.022800
v -0.018295 0.053300 0.022800
v -0.017715 0.046800 0.016300
v -0.023654 0.050062 0.022800
v -0.023364 0.046816 0.019554
v -0.022791 0.049918 0.019692
v -0.018213 0.052427 0.019554
v -0.021471 0.052439 0.022800
v -0.021254 0.051591 0.019692
v -0.020969 0.046807 0.017168
v -0.018000 0.050041 0.017168
v -0.021104 0.049911 0.018012
v -0.009707 -0.046800 0.029300
v -0.015354 -0.046816 0.026046
v -0.014249 -0.049918 0.025908
v -0.009242 -0.052427 0.026046
v -0.012426 -0.051591 0.025908
v -0.012960 -0.046807 0.028432
v -0.009438 -0.050041 0.028432
v -0.012564 -0.049911 0.027588
v 0.009707 -0.046800 0.029300
v 0.009242 -0.052427 0.026046
v 0.012426 -0.051591 0.025908
v 0.015354 -0.046816 0.026046
v 0.014249 -0.049918 0.025908
v 0.009438 -0.050041 0.028432
v 0.012960 -0.046807 0.028432
v 0.012564 -0.049911 0.027588
v 0.017715 0.046800 0.029300
v 0.023364 0.046816 0.026046
v 0.022791 0.049918 0.025908
v 0.018213 0.052427 0.026046
v 0.021254 0.051591 0.025908
v 0.020969 0.046807 0.028432
v 0.018000 0.050041 0.028432
v 0.021104 0.049911 0.027588
v -0.017715 0.046800 0.029300
v -0.023364 0.046816 0.026046
v -0.022791 0.049918 0.025908
v -0.018000 0.050041 0.028432
v -0.020969 0.046807 0.028432
v -0.021104 0.049911 0.027588
v -0.018213 0.052427 0.026046
v -0.021254 0.051591 0.025908
v -0.003275 -0.037720 0.032000
v -0.003275 -0.036720 0.033000
v -0.004275 -0.036720 0.032000
v -0.003275 -0.037586 0.032499
v -0.003774 -0.037586 0.032000
v -0.003753 -0.037457 0.032478
v -0.003774 -0.036720 0.032866
v -0.003275 -0.037219 0.032866
v -0.003753 -0.037198 0.032737
v -0.004141 -0.037219 0.032000
v -0.004141 -0.036720 0.032499
v -0.004012 -0.037198 0.032478
v -0.003275 0.036720 0.033000
v -0.003275 0.037720 0.032000
v -0.004275 0.036720 0.032000
v -0.003275 0.037219 0.032866
v -0.003774 0.036720 0.032866
v -0.003753 0.037198 0.032737
v -0.003774 0.037586 0.032000
v -0.003275 0.037586 0.032499
v -0.003753 0.037457 0.032478
v -0.004141 0.036720 0.032499
v -0.004141 0.037219 0.032000
v -0.004012 0.037198 0.032478
v -0.003275 -0.037720 0.028000
v -0.004275 -0.036720 0.028000
v -0.003275 -0.036720 0.027000
v -0.003774 -0.037586 0.028000
v -0.003275 -0.037586 0.027501
v -0.003753 -0.037457 0.027522
v -0.004141 -0.036720 0.027501
v -0.004141 -0.037219 0.028000
v -0.004012 -0.037198 0.027522
v -0.003275 -0.037219 0.027134
v -0.003774 -0.036720 0.027134
v -0.003753 -0.037198 0.027263
v -0.003275 0.037720 0.028000
v -0.003275 0.036720 0.027000
v -0.004275 0.036720 0.028000
v -0.003275 0.037586 0.027501
v -0.003774 0.037586 0.028000
v -0.003753 0.037457 0.027522
v -0.003774 0.036720 0.027134
v -0.003275 0.037219 0.027134
v -0.003753 0.037198 0.027263
v -0.004141 0.037219 0.028000
v -0.004141 0.036720 0.027501
v -0.004012 0.037198 0.027522
v 0.003275 -0.037720 0.032000
v 0.004275 -0.036720 0.032000
v 0.003275 -0.036720 0.033000
v 0.003774 -0.037586 0.032000
v 0.003275 -0.037586 0.032499
v 0.003753 -0.037457 0.032478
v 0.004141 -0.036720 0.032499
v 0.004141 -0.037219 0.032000
v 0.004012 -0.037198 0.032478
v 0.003275 -0.037219 0.032866
v 0.003774 -0.036720 0.032866
v 0.003753 -0.037198 0.032737
v 0.003275 0.037720 0.032000
v 0.003275 0.036720 0.033000
v 0.004275 0.036720 0.032000
v 0.003275 0.037586 0.032499
v 0.003774 0.037586 0.032000
v 0.003753 0.037457 0.032478
v 0.003774 0.036720 0.032866
v 0.003275 0.037219 0.032866
v 0.003753 0.037198 0.032737
v 0.004141 0.037219 0.032000
v 0.004141 0.036720 0.032499
v 0.004012 0.037198 0.032478
v 0.003275 -0.037720 0.028000
v 0.003275 -0.036720 0.027000
v 0.004275 -0.036720 0.028000
v 0.003275 -0.037586 0.027501
v 0.003774 -0.037586 0.028000
v 0.003753 -0.037457 0.027522
v 0.003774 -0.036720 0.027134
v 0.003275 -0.037219 0.027134
v 0.003753 -0.037198 0.027263
v 0.004141 -0.037219 0.028000
v 0.004141 -0.036720 0.027501
v 0.004012 -0.037198 0.027522
v 0.003275 0.037720 0.028000
v 0.004275 0.036720 0.028000
v 0.003275 0.036720 0.027000
v 0.003774 0.037586 0.028000
v 0.003275 0.037586 0.027501
v 0.003753 0.037457 0.027522
v 0.004141 0.036720 0.027501
v 0.004141 0.037219 0.028000
v 0.004012 0.037198 0.027522
v 0.003275 0.037219 0.027134
v 0.003774 0.036720 0.027134
v 0.003753 0.037198 0.027263
v -0.009400 -0.057400 -0.010000
v -0.009400 -0.055400 -0.008000
v -0.011400 -0.055400 -0.010000
v -0.009400 -0.057133 -0.009001
v -0.010399 -0.057133 -0.010000
v -0.010356 -0.056873 -0.009044
v -0.010399 -0.055400 -0.008267
v -0.009400 -0.056399 -0.008267
v -0.010356 -0.056356 -0.008527
v -0.011133 -0.056399 -0.010000
v -0.011133 -0.055400 -0.009001
v -0.010873 -0.056356 -0.009044
v -0.009400 0.055400 -0.008000
v -0.009400 0.057400 -0.010000
v -0.011400 0.055400 -0.010000
v -0.009400 0.056399 -0.008267
v -0.010399 0.055400 -0.008267
v -0.010356 0.056356 -0.008527
v -0.010399 0.057133 -0.010000
v -0.009400 0.057133 -0.009001
v -0.010356 0.056873 -0.009044
v -0.011133 0.055400 -0.009001
v -0.011133 0.056399 -0.010000
v -0.010873 0.056356 -0.009044
v -0.009400 -0.057400 -0.020000
v -0.011400 -0.055400 -0.020000
v -0.009400 -0.055400 -0.022000
v -0.010399 -0.057133 -0.020000
v -0.009400 -0.057133 -0.020999
v -0.010356 -0.056873 -0.020956
v -0.011133 -0.055400 -0.020999
v -0.011133 -0.056399 -0.020000
v -0.010873 -0.056356 -0.020956
v -0.009400 -0.056399 -0.021733
v -0.010399 -0.055400 -0.021733
v -0.010356 -0.056356 -0.021473
v -0.009400 0.057400 -0.020000
v -0.009400 0.055400 -0.022000
v -0.011400 0.055400 -0.020000
v -0.009400 0.057133 -0.020999
v -0.010399 0.057133 -0.020000
v -0.010356 0.056873 -0.020956
v -0.010399 0.055400 -0.021733
v -0.009400 0.056399 -0.021733
v -0.010356 0.056356 -0.021473
v -0.011133 0.056399 -0.020000
v -0.011133 0.055400 -0.020999
v -0.010873 0.056356 -0.020956
v 0.009400 -0.057400 -0.010000
v 0.011400 -0.055400 -0.010000
v 0.009400 -0.055400 -0.008000
v 0.010399 -0.057133 -0.010000
v 0.009400 -0.057133 -0.009001
v 0.010356 -0.056873 -0.009044
v 0.011133 -0.055400 -0.009001
v 0.011133 -0.056399 -0.010000
v 0.010873 -0.056356 -0.009044
v 0.009400 -0.056399 -0.008267
v 0.010399 -0.055400 -0.008267
v 0.010356 -0.056356 -0.008527
v 0.009400 0.057400 -0.010000
v 0.009400 0.055400 -0.008000
v 0.011400 0.055400 -0.010000
v 0.009400 0.057133 -0.009001
v 0.010399 0.057133 -0.010000
v 0.010356 0.056873 -0.009044
v 0.010399 0.055400 -0.008267
v 0.009400 0.056399 -0.008267
v 0.010356 0.056356 -0.008527
v 0.011133 0.056399 -0.010000
v 0.011133 0.055400 -0.009001
v 0.010873 0.056356 -0.009044
v 0.009400 -0.057400 -0.020000
v 0.009400 -0.055400 -0.022000
v 0.011400 -0.055400 -0.020000
v 0.009400 -0.057133 -0.020999
v 0.010399 -0.057133 -0.020000
v 0.010356 -0.056873 -0.020956
v 0.010399 -0.055400 -0.021733
v 0.009400 -0.056399 -0.021733
v 0.010356 -0.056356 -0.021473
v 0.011133 -0.056399 -0.020000
v 0.011133 -0.055400 -0.020999
v 0.010873 -0.056356 -0.020956
v 0.009400 0.057400 -0.020000
v 0.011400 0.055400 -0.020000
v 0.009400 0.055400 -0.022000
v 0.010399 0.057133 -0.020000
v 0.009400 0.057133 -0.020999
v 0.010356 0.056873 -0.020956
v 0.011133 0.055400 -0.020999
v 0.011133 0.056399 -0.020000
v 0.010873 0.056356 -0.020956
v 0.009400 0.056399 -0.021733
v 0.010399 0.055400 -0.021733
v 0.010356 0.056356 -0.021473
v -0.026500 -0.082000 0.016000
v -0.026500 -0.080000 0.018000
v -0.028500 -0.080000 0.016000
v -0.026500 -0.081733 0.016999
v -0.027499 -0.081733 0.016000
v -0.027456 -0.081473 0.016956
v -0.027499 -0.080000 0.017733
v -0.026500 -0.080999 0.017733
v -0.027456 -0.080956 0.017473
v -0.028233 -0.080999 0.016000
v -0.028233 -0.080000 0.016999
v -0.027973 -0.080956 0.016956
v -0.026500 -0.072000 0.018000
v -0.026500 -0.070000 0.016000
v -0.028500 -0.072000 0.016000
v -0.026500 -0.071001 0.017733
v -0.027499 -0.072000 0.017733
v -0.027456 -0.071044 0.017473
v -0.027499 -0.070267 0.016000
v -0.026500 -0.070267 0.016999
v -0.027456 -0.070527 0.016956
v -0.028233 -0.072000 0.016999
v -0.028233 -0.071001 0.016000
v -0.027973 -0.071044 0.016956
v -0.026500 -0.082000 -0.016000
v -0.028500 -0.080000 -0.016000
v -0.026500 -0.080000 -0.018000
v -0.027499 -0.081733 -0.016000
v -0.026500 -0.081733 -0.016999
v -0.027456 -0.081473 -0.016956
v -0.028233 -0.080000 -0.016999
v -0.028233 -0.080999 -0.016000
v -0.027973 -0.080956 -0.016956
v -0.026500 -0.080999 -0.017733
v -0.027499 -0.080000 -0.017733
v -0.027456 -0.080956 -0.017473
v -0.026500 -0.070000 -0.016000
v -0.026500 -0.072000 -0.018000
v -0.028500 -0.072000 -0.016000
v -0.026500 -0.070267 -0.016999
v -0.027499 -0.070267 -0.016000
v -0.027456 -0.070527 -0.016956
v -0.027499 -0.072000 -0.017733
v -0.026500 -0.071001 -0.017733
v -0.027456 -0.071044 -0.017473
v -0.028233 -0.071001 -0.016000
v -0.028233 -0.072000 -0.016999
v -0.027973 -0.071044 -0.016956
v 0.026500 -0.082000 0.016000
v 0.028500 -0.080000 0.016000
v 0.026500 -0.080000 0.018000
v 0.027499 -0.081733 0.016000
v 0.026500 -0.081733 0.016999
v 0.027456 -0.081473 0.016956
v 0.028233 -0.080000 0.016999
v 0.028233 -0.080999 0.016000
v 0.027973 -0.080956 0.016956
v 0.026500 -0.080999 0.017733
v 0.027499 -0.080000 0.017733
v 0.027456 -0.080956 0.017473
v 0.026500 -0.070000 0.016000
v 0.026500 -0.072000 0.018000
v 0.028500 -0.072000 0.016000
v 0.026500 -0.070267 0.016999
v 0.027499 -0.070267 0.016000
v 0.027456 -0.070527 0.016956
v 0.027499 -0.072000 0.017733
v 0.026500 -0.071001 0.017733
v 0.027456 -0.071044 0.017473
v 0.028233 -0.071001 0.016000
v 0.028233 -0.072000 0.016999
v 0.027973 -0.071044 0.016956
v 0.026500 -0.082000 -0.016000
v 0.026500 -0.080000 -0.018000
v 0.028500 -0.080000 -0.016000
v 0.026500 -0.081733 -0.016999
v 0.027499 -0.081733 -0.016000
v 0.027456 -0.081473 -0.016956
v 0.027499 -0.080000 -0.017733
v 0.026500 -0.080999 -0.017733
v 0.027456 -0.080956 -0.017473
v 0.028233 -0.080999 -0.016000
v 0.028233 -0.080000 -0.016999
v 0.027973 -0.080956 -0.016956
v 0.026500 -0.070000 -0.016000
v 0.028500 -0.072000 -0.016000
v 0.026500 -0.072000 -0.018000
v 0.027499 -0.070267 -0.016000
v 0.026500 -0.070267 -0.016999
v 0.027456 -0.070527 -0.016956
v 0.028233 -0.072000 -0.016999
v 0.028233 -0.071001 -0.016000
v 0.027973 -0.071044 -0.016956
v 0.026500 -0.071001 -0.017733
v 0.027499 -0.072000 -0.017733
v 0.027456 -0.071044 -0.017473
v -0.026500 0.070000 0.016000
v -0.026500 0.072000 0.018000
v -0.028500 0.072000 0.016000
v -0.026500 0.070267 0.016999
v -0.027499 0.070267 0.016000
v -0.027456 0.070527 0.016956
v -0.027499 0.072000 0.017733
v -0.026500 0.071001 0.017733
v -0.027456 0.071044 0.017473
v -0.028233 0.071001 0.016000
v -0.028233 0.072000 0.016999
v -0.027973 0.071044 0.016956
v -0.026500 0.080000 0.018000
v -0.026500 0.082000 0.016000
v -0.028500 0.080000 0.016000
v -0.026500 0.080999 0.017733
v -0.027499 0.080000 0.017733
v -0.027456 0.080956 0.017473
v -0.027499 0.081733 0.016000
v -0.026500 0.081733 0.016999
v -0.027456 0.081473 0.016956
v -0.028233 0.080000 0.016999
v -0.028233 0.080999 0.016000
v -0.027973 0.080956 0.016956
v -0.026500 0.070000 -0.016000
v -0.028500 0.072000 -0.016000
v -0.026500 0.072000 -0.018000
v -0.027499 0.070267 -0.016000
v -0.026500 0.070267 -0.016999
v -0.027456 0.070527 -0.016956
v -0.028233 0.072000 -0.016999
v -0.028233 0.071001 -0.016000
v -0.027973 0.071044 -0.016956
v -0.026500 0.071001 -0.017733
v -0.027499 0.072000 -0.017733
v -0.027456 0.071044 -0.017473
v -0.026500 0.082000 -0.016000
v -0.026500 0.080000 -0.018000
v -0.028500 0.080000 -0.016000
v -0.026500 0.081733 -0.016999
v -0.027499 0.081733 -0.016000
v -0.027456 0.081473 -0.016956
v -0.027499 0.080000 -0.017733
v -0.026500 0.080999 -0.017733
v -0.027456 0.080956 -0.017473
v -0.028233 0.080999 -0.016000
v -0.028233 0.080000 -0.016999
v -0.027973 0.080956 -0.016956
v 0.026500 0.070000 0.016000
v 0.028500 0.072000 0.016000
v 0.026500 0.072000 0.018000
v 0.027499 0.070267 0.016000
v 0.026500 0.070267 0.016999
v 0.027456 0.070527 0.016956
v 0.028233 0.072000 0.016999
v 0.028233 0.071001 0.016000
v 0.027973 0.071044 0.016956
v 0.026500 0.071001 0.017733
v 0.027499 0.072000 0.017733
v 0.027456 0.071044 0.017473
v 0.026500 0.082000 0.016000
v 0.026500 0.080000 0.018000
v 0.028500 0.080000 0.016000
v 0.026500 0.081733 0.016999
v 0.027499 0.081733 0.016000
v 0.027456 0.081473 0.016956
v 0.027499 0.080000 0.017733
v 0.026500 0.080999 0.017733
v 0.027456 0.080956 0.017473
v 0.028233 0.080999 0.016000
v 0.028233 0.080000 0.016999
v 0.027973 0.080956 0.016956
v 0.026500 0.070000 -0.016000
v 0.026500 0.072000 -0.018000
v 0.028500 0.072000 -0.016000
v 0.026500 0.070267 -0.016999
v 0.027499 0.070267 -0.016000
v 0.027456 0.070527 -0.016956
v 0.027499 0.072000 -0.017733
v 0.026500 0.071001 -0.017733
v 0.027456 0.071044 -0.017473
v 0.028233 0.071001 -0.016000
v 0.028233 0.072000 -0.016999
v 0.027973 0.071044 -0.016956
v 0.026500 0.082000 -0.016000
v 0.028500 0.080000 -0.016000
v 0.026500 0.080000 -0.018000
v 0.027499 0.081733 -0.016000
v 0.026500 0.081733 -0.016999
v 0.027456 0.081473 -0.016956
v 0.028233 0.080000 -0.016999
v 0.028233 0.080999 -0.016000
v 0.027973 0.080956 -0.016956
v 0.026500 0.080999 -0.017733
v 0.027499 0.080000 -0.017733
v 0.027456 0.080956 -0.017473
vn -0.2490 -0.9317 0.2646
vn -0.2187 -0.6900 0.6900
vn -0.2646 -0.2490 0.9317
vn -0.6900 -0.2187 0.6900
vn -0.9317 -0.2646 0.2490
vn -0.6900 -0.6900 0.2187
vn -0.5773 -0.5773 0.5774
vn -0.2490 0.2646 0.9317
vn -0.2187 0.6900 0.6900
vn -0.2646 0.9317 0.2490
vn -0.6900 0.6900 0.2187
vn -0.9317 0.2490 0.2646
vn -0.6900 0.2187 0.6900
vn -0.5773 0.5773 0.5774
vn -0.2646 -0.9317 -0.2490
vn -0.6900 -0.6900 -0.2187
vn -0.9317 -0.2490 -0.2646
vn -0.6900 -0.2187 -0.6900
vn -0.2490 -0.2646 -0.9317
vn -0.2187 -0.6900 -0.6900
vn -0.5773 -0.5773 -0.5774
vn -0.2490 0.9317 -0.2646
vn -0.2187 0.6900 -0.6900
vn -0.2646 0.2490 -0.9317
vn -0.6900 0.2187 -0.6900
vn -0.9317 0.2646 -0.2490
vn -0.6900 0.6900 -0.2187
vn -0.5773 0.5773 -0.5774
vn 0.2646 -0.9317 0.2490
vn 0.6900 -0.6900 0.2187
vn 0.9317 -0.2490 0.2646
vn 0.6900 -0.2187 0.6900
vn 0.2490 -0.2646 0.9317
vn 0.2187 -0.6900 0.6900
vn 0.5773 -0.5774 0.5774
vn 0.2490 0.9317 0.2646
vn 0.2187 0.6900 0.6900
vn 0.2646 0.2490 0.9317
vn 0.6900 0.2187 0.6900
vn 0.9317 0.2646 0.2490
vn 0.6900 0.6900 0.2187
vn 0.5773 0.5774 0.5774
vn 0.2490 -0.9317 -0.2646
vn 0.2187 -0.6900 -0.6900
vn 0.2646 -0.2490 -0.9317
vn 0.6900 -0.2187 -0.6900
vn 0.9317 -0.2646 -0.2490
vn 0.6900 -0.6900 -0.2187
vn 0.5773 -0.5774 -0.5774
vn 0.2646 0.9317 -0.2490
vn 0.6900 0.6900 -0.2187
vn 0.9317 0.2490 -0.2646
vn 0.6900 0.2187 -0.6900
vn 0.2490 0.2646 -0.9317
vn 0.2187 0.6900 -0.6900
vn 0.5773 0.5774 -0.5774
vn -0.2582 -0.9661 -0.0000
vn -0.7071 -0.7071 -0.0000
vn -0.9661 -0.2582 -0.0000
vn -0.2582 -0.0000 0.9661
vn -0.7071 -0.0000 0.7071
vn -0.9661 -0.0000 0.2582
vn -0.2582 0.9661 -0.0000
vn -0.7071 0.7071 -0.0000
vn -0.9661 0.2582 -0.0000
vn -0.2582 -0.0000 -0.9661
vn -0.7071 -0.0000 -0.7071
vn -0.9661 -0.0000 -0.2582
vn -0.0000 -0.9661 -0.2582
vn -0.0000 -0.7071 -0.7071
vn -0.0000 -0.2582 -0.9661
vn -0.0000 0.9661 -0.2582
vn -0.0000 0.7071 -0.7071
vn -0.0000 0.2582 -0.9661
vn 0.9661 -0.0000 -0.2582
vn 0.7071 -0.0000 -0.7071
vn 0.2582 -0.0000 -0.9661
vn 0.2582 -0.9661 -0.0000
vn 0.7071 -0.7071 -0.0000
vn 0.9661 -0.2582 -0.0000
vn 0.2582 0.9661 -0.0000
vn 0.7071 0.7071 -0.0000
vn 0.9661 0.2582 -0.0000
vn 0.2582 -0.0000 0.9661
vn 0.7071 -0.0000 0.7071
vn 0.9661 -0.0000 0.2582
vn -0.0000 -0.9661 0.2582
vn -0.0000 -0.7071 0.7071
vn -0.0000 -0.2582 0.9661
vn -0.0000 0.9661 0.2582
vn -0.0000 0.7071 0.7071
vn -0.0000 0.2582 0.9661
vn -0.0000 -1.0000 -0.0000
vn -1.0000 -0.0000 -0.0000
vn -0.0000 -0.0000 1.0000
vn -0.0000 1.0000 -0.0000
vn -0.0000 -0.0000 -1.0000
vn 1.0000 -0.0000 -0.0000
vn -0.1566 -0.9877 -0.0000
vn -0.4540 -0.8910 -0.0000
vn -0.8910 -0.4540 -0.0000
vn -0.9877 -0.1566 -0.0000
vn -0.9877 0.1566 -0.0000
vn -0.8910 0.4540 -0.0000
vn -0.4540 0.8910 -0.0000
vn -0.1563 0.9877 -0.0000
vn 0.1563 0.9877 -0.0000
vn 0.4540 0.8910 -0.0000
vn 0.8910 0.4540 -0.0000
vn 0.9877 0.1566 -0.0000
vn 0.9877 -0.1566 -0.0000
vn 0.8910 -0.4540 -0.0000
vn 0.4540 -0.8910 -0.0000
vn 0.1566 -0.9877 -0.0000
vn -0.1565 0.9877 -0.0000
vn 0.1578 0.9875 -0.0000
vn -0.1567 -0.9876 -0.0000
vn -0.1566 0.9877 -0.0000
vn 0.1566 0.9877 -0.0000
vn -0.5773 -0.5774 0.5774
vn -0.5773 0.5774 0.5774
vn -0.5773 -0.5774 -0.5774
vn -0.5773 0.5774 -0.5774
vn 0.5773 -0.5773 0.5774
vn 0.5773 0.5773 0.5774
vn 0.5773 -0.5773 -0.5774
vn 0.5773 0.5773 -0.5774
vn -0.9106 -0.3209 -0.2607
vn -0.6788 -0.2722 -0.6820
vn -0.2467 -0.2835 -0.9267
vn -0.2132 -0.6995 -0.6820
vn -0.2561 -0.9348 -0.2461
vn -0.6608 -0.7200 -0.2120
vn -0.5588 -0.6089 -0.5630
vn 0.9096 -0.3349 -0.2460
vn 0.6608 -0.7201 -0.2117
vn 0.2421 -0.9346 -0.2607
vn 0.2132 -0.6995 -0.6820
vn 0.2614 -0.2699 -0.9267
vn 0.6789 -0.2721 -0.6820
vn 0.5588 -0.6089 -0.5630
vn 0.2670 0.9289 -0.2566
vn 0.7167 0.6585 -0.2297
vn 0.9472 0.1717 -0.2710
vn 0.6962 0.1597 -0.6998
vn 0.2495 0.2440 -0.9371
vn 0.2187 0.6801 -0.6997
vn 0.5913 0.5432 -0.5960
vn -0.9483 0.1866 -0.2567
vn -0.7167 0.6585 -0.2295
vn -0.2519 0.9290 -0.2711
vn -0.2187 0.6802 -0.6997
vn -0.2644 0.2277 -0.9372
vn -0.6962 0.1600 -0.6998
vn -0.5913 0.5432 -0.5960
vn -0.9096 -0.3349 0.2460
vn -0.6608 -0.7201 0.2117
vn -0.2421 -0.9346 0.2607
vn -0.2132 -0.6995 0.6820
vn -0.2614 -0.2699 0.9267
vn -0.6789 -0.2721 0.6820
vn -0.5588 -0.6089 0.5630
vn 0.2561 -0.9348 0.2461
vn 0.6608 -0.7200 0.2120
vn 0.9106 -0.3209 0.2607
vn 0.6788 -0.2722 0.6820
vn 0.2467 -0.2835 0.9267
vn 0.2132 -0.6995 0.6820
vn 0.5588 -0.6089 0.5630
vn 0.9483 0.1866 0.2567
vn 0.7167 0.6585 0.2295
vn 0.2519 0.9290 0.2711
vn 0.2187 0.6802 0.6997
vn 0.2644 0.2277 0.9372
vn 0.6962 0.1600 0.6998
vn 0.5913 0.5432 0.5960
vn -0.9472 0.1717 0.2710
vn -0.6962 0.1597 0.6998
vn -0.2495 0.2440 0.9371
vn -0.2187 0.6801 0.6997
vn -0.2670 0.9289 0.2566
vn -0.7167 0.6585 0.2297
vn -0.5913 0.5432 0.5960
vn -0.9622 -0.0823 -0.2596
vn -0.7045 -0.0603 -0.7071
vn -0.2577 -0.0220 -0.9660
vn -0.0000 0.2587 -0.9660
vn -0.0000 0.9657 -0.2597
vn 0.2577 -0.0220 -0.9660
vn 0.7045 -0.0603 -0.7071
vn 0.9622 -0.0823 -0.2596
vn -0.0000 -0.2587 -0.9660
vn -0.0000 -0.9657 -0.2597
vn -0.2577 -0.0220 0.9660
vn -0.7045 -0.0603 0.7071
vn -0.9622 -0.0823 0.2596
vn -0.0000 -0.9657 0.2597
vn -0.0000 -0.2587 0.9660
vn 0.9622 -0.0823 0.2596
vn 0.7045 -0.0603 0.7071
vn 0.2577 -0.0220 0.9660
vn -0.0000 0.9657 0.2597
vn -0.0000 0.2587 0.9660
vn -0.9317 -0.2646 -0.2490
vn -0.2490 -0.9317 -0.2646
vn -0.9317 0.2646 0.2490
vn -0.2490 0.9317 0.2646
vn -0.2646 0.2490 0.9317
vn -0.9317 -0.2490 0.2646
vn -0.2490 -0.2646 0.9317
vn -0.2646 -0.9317 0.2490
vn -0.2503 -0.9319 0.2625
vn -0.2166 -0.6903 0.6903
vn -0.2625 -0.2502 0.9319
vn -0.6903 -0.2166 0.6903
vn -0.9319 -0.2625 0.2503
vn -0.6903 -0.6903 0.2166
vn -0.5773 -0.5774 0.5773
vn -0.2503 0.2625 0.9319
vn -0.2166 0.6903 0.6903
vn -0.2625 0.9319 0.2503
vn -0.6903 0.6903 0.2166
vn -0.9319 0.2503 0.2625
vn -0.6903 0.2166 0.6903
vn -0.5773 0.5774 0.5773
vn -0.2625 -0.9319 -0.2503
vn -0.6903 -0.6903 -0.2166
vn -0.9319 -0.2503 -0.2625
vn -0.6903 -0.2166 -0.6903
vn -0.2503 -0.2625 -0.9319
vn -0.2166 -0.6903 -0.6903
vn -0.2502 0.9319 -0.2625
vn -0.2166 0.6903 -0.6903
vn -0.2625 0.2503 -0.9319
vn -0.6903 0.2166 -0.6903
vn -0.9319 0.2625 -0.2503
vn -0.6903 0.6903 -0.2166
vn 0.2625 -0.9319 0.2503
vn 0.6903 -0.6903 0.2166
vn 0.9319 -0.2503 0.2625
vn 0.6903 -0.2166 0.6903
vn 0.2503 -0.2625 0.9319
vn 0.2166 -0.6903 0.6903
vn 0.5773 -0.5774 0.5773
vn 0.2503 0.9319 0.2625
vn 0.2166 0.6903 0.6903
vn 0.2625 0.2502 0.9319
vn 0.6903 0.2166 0.6903
vn 0.9319 0.2625 0.2503
vn 0.6903 0.6903 0.2166
vn 0.5773 0.5774 0.5773
vn 0.2502 -0.9319 -0.2625
vn 0.2166 -0.6903 -0.6903
vn 0.2625 -0.2503 -0.9319
vn 0.6903 -0.2166 -0.6903
vn 0.9319 -0.2625 -0.2503
vn 0.6903 -0.6903 -0.2166
vn 0.2625 0.9319 -0.2503
vn 0.6903 0.6903 -0.2166
vn 0.9319 0.2503 -0.2625
vn 0.6903 0.2166 -0.6903
vn 0.2503 0.2625 -0.9319
vn 0.2166 0.6903 -0.6903
vn -0.2593 -0.9658 -0.0000
vn -0.9658 -0.2593 -0.0000
vn -0.2593 -0.0000 0.9658
vn -0.9658 -0.0000 0.2593
vn -0.2593 0.9658 -0.0000
vn -0.9658 0.2593 -0.0000
vn -0.2593 -0.0000 -0.9658
vn -0.9658 -0.0000 -0.2593
vn -0.0000 -0.9658 -0.2593
vn -0.0000 -0.2593 -0.9658
vn -0.0000 0.9658 -0.2593
vn -0.0000 0.2593 -0.9658
vn 0.9658 -0.0000 -0.2593
vn 0.2593 -0.0000 -0.9658
vn 0.2593 -0.9658 -0.0000
vn 0.9658 -0.2593 -0.0000
vn 0.2593 0.9658 -0.0000
vn 0.9658 0.2593 -0.0000
vn 0.2593 -0.0000 0.9658
vn 0.9658 -0.0000 0.2593
vn -0.0000 -0.9658 0.2593
vn -0.0000 -0.2593 0.9658
vn -0.0000 0.9658 0.2593
vn -0.0000 0.2593 0.9658
vn -0.5774 -0.5773 0.5773
vn -0.5774 0.5773 0.5773
vn -0.5774 -0.5773 -0.5773
vn -0.5774 0.5773 -0.5773
vn 0.5774 -0.5773 0.5773
vn 0.5774 0.5773 0.5773
vn 0.5774 -0.5773 -0.5773
vn 0.5774 0.5773 -0.5773
vn -0.2646 -0.2490 -0.9317
vn -0.2646 0.9317 -0.2490
vn -0.2490 0.2646 -0.9317
vn -0.9317 0.2490 -0.2646
vn 0.2490 -0.9317 0.2646
vn 0.9317 -0.2646 0.2490
vn 0.2646 -0.2490 0.9317
vn 0.2646 0.9317 0.2490
vn 0.2490 0.2646 0.9317
vn 0.9317 0.2490 0.2646
vn 0.2646 -0.9317 -0.2490
vn 0.2490 -0.2646 -0.9317
vn 0.9317 -0.2490 -0.2646
vn 0.2490 0.9317 -0.2646
vn 0.9317 0.2646 -0.2490
vn 0.2646 0.2490 -0.9317
vn -0.1567 0.9876 -0.0000
vn 0.1567 0.9876 -0.0000
vn -0.1578 0.9875 -0.0000
vn -0.1557 0.9878 -0.0000
vn 0.1557 0.9878 -0.0000
vn 0.1565 0.9877 -0.0000
vn -0.1563 -0.9877 -0.0000
vn 0.1563 -0.9877 -0.0000
vn 0.1567 -0.9876 -0.0000
vn -0.9096 -0.3349 -0.2460
vn -0.6788 -0.2721 -0.6821
vn -0.2614 -0.2699 -0.9267
vn -0.2421 -0.9346 -0.2607
vn -0.6610 -0.7199 -0.2118
vn 0.9106 -0.3209 -0.2607
vn 0.6609 -0.7199 -0.2119
vn 0.2561 -0.9348 -0.2461
vn 0.2467 -0.2835 -0.9267
vn 0.6788 -0.2721 -0.6821
vn 0.2519 0.9290 -0.2711
vn 0.7169 0.6583 -0.2296
vn 0.9483 0.1866 -0.2567
vn 0.6964 0.1599 -0.6996
vn 0.2644 0.2277 -0.9372
vn 0.2187 0.6802 -0.6997
vn -0.9472 0.1717 -0.2710
vn -0.7168 0.6583 -0.2297
vn -0.2670 0.9289 -0.2566
vn -0.2495 0.2440 -0.9371
vn -0.6964 0.1598 -0.6996
vn -0.9106 -0.3209 0.2607
vn -0.6609 -0.7199 0.2119
vn -0.2561 -0.9348 0.2461
vn -0.2467 -0.2835 0.9267
vn -0.6788 -0.2721 0.6821
vn 0.2421 -0.9346 0.2607
vn 0.6610 -0.7199 0.2118
vn 0.9096 -0.3349 0.2460
vn 0.6788 -0.2721 0.6821
vn 0.2614 -0.2699 0.9267
vn 0.9472 0.1717 0.2710
vn 0.7168 0.6583 0.2297
vn 0.2670 0.9289 0.2566
vn 0.2495 0.2440 0.9371
vn 0.6964 0.1598 0.6996
vn -0.9483 0.1866 0.2567
vn -0.6964 0.1599 0.6996
vn -0.2644 0.2277 0.9372
vn -0.2187 0.6802 0.6997
vn -0.2519 0.9290 0.2711
vn -0.7169 0.6583 0.2296
vn -0.9622 -0.0823 -0.2598
vn -0.7046 -0.0603 -0.7070
vn 0.7046 -0.0603 -0.7070
vn 0.9622 -0.0823 -0.2598
vn -0.7046 -0.0603 0.7070
vn -0.9622 -0.0823 0.2598
vn 0.9622 -0.0823 0.2598
vn 0.7046 -0.0603 0.7070
vn -0.2625 -0.9319 0.2503
vn -0.2503 -0.2625 0.9319
vn -0.9319 -0.2503 0.2625
vn -0.2625 0.2502 0.9319
vn -0.2503 0.9319 0.2625
vn -0.9319 0.2625 0.2503
vn -0.2502 -0.9319 -0.2625
vn -0.9319 -0.2625 -0.2503
vn -0.2625 -0.2503 -0.9319
vn -0.2625 0.9319 -0.2503
vn -0.2503 0.2625 -0.9319
vn -0.9319 0.2503 -0.2625
vn 0.2503 -0.9319 0.2625
vn 0.9319 -0.2625 0.2503
vn 0.2625 -0.2502 0.9319
vn 0.2625 0.9319 0.2503
vn 0.2503 0.2625 0.9319
vn 0.9319 0.2503 0.2625
vn 0.2625 -0.9319 -0.2503
vn 0.2503 -0.2625 -0.9319
vn 0.9319 -0.2503 -0.2625
vn 0.2502 0.9319 -0.2625
vn 0.9319 0.2625 -0.2503
vn 0.2625 0.2503 -0.9319
vn -0.2594 -0.9658 -0.0000
vn -0.9658 -0.0000 0.2594
vn -0.2594 0.9658 -0.0000
vn 0.2594 -0.9658 -0.0000
vn 0.2594 0.9658 -0.0000
vn 0.9658 -0.0000 0.2594
vn -0.0000 -0.2594 0.9658
vn -0.0000 0.2594 0.9658
s 0
usemtl ChassisMetal
f 1//1 6//1 5//1
f 4//2 9//2 6//2
f 2//3 9//3 8//3
f 7//4 12//4 9//4
f 3//5 12//5 11//5
f 10//6 6//6 12//6
f 6//7 9//7 12//7
f 13//8 18//8 17//8
f 16//9 21//9 18//9
f 14//10 21//10 20//10
f 19//11 24//11 21//11
f 15//12 24//12 23//12
f 22//13 18//13 24//13
f 18//14 21//14 24//14
f 25//15 30//15 29//15
f 28//16 33//16 30//16
f 26//17 33//17 32//17
f 31//18 36//18 33//18
f 27//19 36//19 35//19
f 34//20 30//20 36//20
f 30//21 33//21 36//21
f 37//22 42//22 41//22
f 40//23 45//23 42//23
f 38//24 45//24 44//24
f 43//25 48//25 45//25
f 39//26 48//26 47//26
f 46//27 42//27 48//27
f 42//28 45//28 48//28
f 49//29 54//29 53//29
f 52//30 57//30 54//30
f 50//31 57//31 56//31
f 55//32 60//32 57//32
f 51//33 60//33 59//33
f 58//34 54//34 60//34
f 54//35 57//35 60//35
f 61//36 66//36 65//36
f 64//37 69//37 66//37
f 62//38 69//38 68//38
f 67//39 72//39 69//39
f 63//40 72//40 71//40
f 70//41 66//41 72//41
f 66//42 69//42 72//42
f 73//43 78//43 77//43
f 76//44 81//44 78//44
f 74//45 81//45 80//45
f 79//46 84//46 81//46
f 75//47 84//47 83//47
f 82//48 78//48 84//48
f 78//49 81//49 84//49
f 85//50 90//50 89//50
f 88//51 93//51 90//51
f 86//52 93//52 92//52
f 91//53 96//53 93//53
f 87//54 96//54 95//54
f 94//55 90//55 96//55
f 90//56 93//56 96//56
f 25//57 5//57 28//57
f 28//58 10//58 32//58
f 32//59 3//59 26//59
f 2//60 17//60 7//60
f 7//61 22//61 11//61
f 11//62 15//62 3//62
f 14//63 41//63 19//63
f 19//64 46//64 23//64
f 23//65 39//65 15//65
f 38//66 35//66 43//66
f 43//67 31//67 47//67
f 47//68 26//68 39//68
f 73//69 29//69 76//69
f 76//70 34//70 80//70
f 80//71 27//71 74//71
f 37//72 89//72 40//72
f 40//73 94//73 44//73
f 44//74 87//74 38//74
f 86//75 83//75 91//75
f 91//76 79//76 95//76
f 95//77 74//77 87//77
f 49//78 77//78 52//78
f 52//79 82//79 56//79
f 56//80 75//80 50//80
f 85//81 65//81 88//81
f 88//82 70//82 92//82
f 92//83 63//83 86//83
f 62//84 59//84 67//84
f 67//85 55//85 71//85
f 71//86 50//86 63//86
f 1//87 53//87 4//87
f 4//88 58//88 8//88
f 8//89 51//89 2//89
f 61//90 20//90 64//90
f 64//91 16//91 68//91
f 68//92 13//92 62//92
f 25//93 49//93 1//93
f 3//94 39//94 26//94
f 139//95 199//95 198//95
f 13//95 188//95 62//95
f 153//95 111//95 159//95
f 51//95 109//95 2//95
f 85//96 14//96 61//96
f 87//97 135//97 165//97
f 215//97 87//97 214//97
f 138//97 180//97 175//97
f 126//97 27//97 125//97
f 75//98 63//98 50//98
f 116//99 128//99 138//99
f 114//100 138//100 131//100
f 114//58 135//58 97//58
f 97//101 134//101 100//101
f 100//102 132//102 98//102
f 98//103 133//103 99//103
f 99//104 137//104 113//104
f 113//64 130//64 112//64
f 136//105 112//105 130//105
f 109//106 110//106 136//106
f 125//107 106//107 126//107
f 124//108 106//108 127//108
f 107//82 124//82 122//82
f 103//109 122//109 119//109
f 101//110 119//110 118//110
f 102//111 118//111 121//111
f 108//112 121//112 120//112
f 105//79 120//79 123//79
f 117//113 123//113 129//113
f 111//114 129//114 128//114
f 158//99 173//99 163//99
f 157//100 163//100 161//100
f 154//58 161//58 168//58
f 154//101 166//101 149//101
f 149//102 165//102 148//102
f 148//103 167//103 150//103
f 150//104 164//104 155//104
f 169//64 155//64 164//64
f 162//105 156//105 169//105
f 174//115 153//115 159//115
f 145//116 174//116 175//116
f 178//108 145//108 182//108
f 176//82 147//82 178//82
f 140//109 176//109 171//109
f 139//110 171//110 170//110
f 142//111 170//111 172//111
f 143//112 172//112 177//112
f 144//79 177//79 179//79
f 146//113 179//113 181//113
f 151//114 181//114 173//114
f 188//117 214//117 213//117
f 195//100 213//100 218//100
f 223//58 195//58 218//58
f 192//101 223//101 221//101
f 192//102 220//102 190//102
f 190//103 219//103 191//103
f 191//104 224//104 189//104
f 189//64 222//64 193//64
f 217//105 193//105 222//105
f 216//118 185//118 217//118
f 211//119 187//119 216//119
f 209//108 196//108 211//108
f 203//82 209//82 207//82
f 199//109 207//109 205//109
f 198//110 205//110 204//110
f 200//111 204//111 206//111
f 201//112 206//112 208//112
f 197//79 208//79 210//79
f 184//113 210//113 212//113
f 183//114 212//114 215//114
f 225//1 230//1 229//1
f 228//2 233//2 230//2
f 226//3 233//3 232//3
f 231//4 236//4 233//4
f 227//5 236//5 235//5
f 234//6 230//6 236//6
f 230//120 233//120 236//120
f 237//8 242//8 241//8
f 240//9 245//9 242//9
f 238//10 245//10 244//10
f 243//11 248//11 245//11
f 239//12 248//12 247//12
f 246//13 242//13 248//13
f 242//121 245//121 248//121
f 249//15 254//15 253//15
f 252//16 257//16 254//16
f 250//17 257//17 256//17
f 255//18 260//18 257//18
f 251//19 260//19 259//19
f 258//20 254//20 260//20
f 254//122 257//122 260//122
f 261//22 266//22 265//22
f 264//23 269//23 266//23
f 262//24 269//24 268//24
f 267//25 272//25 269//25
f 263//26 272//26 271//26
f 270//27 266//27 272//27
f 266//123 269//123 272//123
f 273//29 278//29 277//29
f 276//30 281//30 278//30
f 274//31 281//31 280//31
f 279//32 284//32 281//32
f 275//33 284//33 283//33
f 282//34 278//34 284//34
f 278//124 281//124 284//124
f 285//36 290//36 289//36
f 288//37 293//37 290//37
f 286//38 293//38 292//38
f 291//39 296//39 293//39
f 287//40 296//40 295//40
f 294//41 290//41 296//41
f 290//125 293//125 296//125
f 297//43 302//43 301//43
f 300//44 305//44 302//44
f 298//45 305//45 304//45
f 303//46 308//46 305//46
f 299//47 308//47 307//47
f 306//48 302//48 308//48
f 302//126 305//126 308//126
f 309//50 314//50 313//50
f 312//51 317//51 314//51
f 310//52 317//52 316//52
f 315//53 320//53 317//53
f 311//54 320//54 319//54
f 318//55 314//55 320//55
f 314//127 317//127 320//127
f 249//57 229//57 252//57
f 252//58 234//58 256//58
f 256//59 227//59 250//59
f 226//60 241//60 231//60
f 231//61 246//61 235//61
f 235//62 239//62 227//62
f 238//63 265//63 243//63
f 243//64 270//64 247//64
f 247//65 263//65 239//65
f 262//66 259//66 267//66
f 267//67 255//67 271//67
f 271//68 250//68 263//68
f 297//69 253//69 300//69
f 300//70 258//70 304//70
f 304//71 251//71 298//71
f 261//72 313//72 264//72
f 264//73 318//73 268//73
f 268//74 311//74 262//74
f 310//75 307//75 315//75
f 315//76 303//76 319//76
f 319//77 298//77 311//77
f 273//78 301//78 276//78
f 276//79 306//79 280//79
f 280//80 299//80 274//80
f 309//81 289//81 312//81
f 312//82 294//82 316//82
f 316//83 287//83 310//83
f 286//84 283//84 291//84
f 291//85 279//85 295//85
f 295//86 274//86 287//86
f 225//87 277//87 228//87
f 228//88 282//88 232//88
f 232//89 275//89 226//89
f 285//90 244//90 288//90
f 288//91 240//91 292//91
f 292//92 237//92 286//92
f 249//93 273//93 225//93
f 227//94 263//94 250//94
f 363//95 423//95 422//95
f 237//95 412//95 286//95
f 377//95 335//95 383//95
f 275//95 333//95 226//95
f 309//96 238//96 285//96
f 311//97 359//97 389//97
f 439//97 311//97 438//97
f 362//97 404//97 399//97
f 350//97 251//97 349//97
f 299//98 287//98 274//98
f 340//99 352//99 362//99
f 338//100 362//100 355//100
f 338//58 359//58 321//58
f 321//101 358//101 324//101
f 324//102 356//102 322//102
f 322//103 357//103 323//103
f 323//104 361//104 337//104
f 337//64 354//64 336//64
f 360//105 336//105 354//105
f 333//106 334//106 360//106
f 349//107 330//107 350//107
f 348//108 330//108 351//108
f 331//82 348//82 346//82
f 327//109 346//109 343//109
f 325//110 343//110 342//110
f 326//111 342//111 345//111
f 332//112 345//112 344//112
f 329//79 344//79 347//79
f 341//113 347//113 353//113
f 335//114 353//114 352//114
f 382//99 397//99 387//99
f 381//100 387//100 385//100
f 378//58 385//58 392//58
f 378//101 390//101 373//101
f 373//102 389//102 372//102
f 372//103 391//103 374//103
f 374//104 388//104 379//104
f 393//64 379//64 388//64
f 386//105 380//105 393//105
f 398//115 377//115 383//115
f 369//116 398//116 399//116
f 402//108 369//108 406//108
f 400//82 371//82 402//82
f 364//109 400//109 395//109
f 363//110 395//110 394//110
f 366//111 394//111 396//111
f 367//112 396//112 401//112
f 368//79 401//79 403//79
f 370//113 403//113 405//113
f 375//114 405//114 397//114
f 412//117 438//117 437//117
f 419//100 437//100 442//100
f 447//58 419//58 442//58
f 416//101 447//101 445//101
f 416//102 444//102 414//102
f 414//103 443//103 415//103
f 415//104 448//104 413//104
f 413//64 446//64 417//64
f 441//105 417//105 446//105
f 440//118 409//118 441//118
f 435//119 411//119 440//119
f 433//108 420//108 435//108
f 427//82 433//82 431//82
f 423//109 431//109 429//109
f 422//110 429//110 428//110
f 424//111 428//111 430//111
f 425//112 430//112 432//112
f 421//79 432//79 434//79
f 408//113 434//113 436//113
f 407//114 436//114 439//114
f 31//18 35//18 36//18
f 26//204 31//204 33//204
f 28//16 32//16 33//16
f 25//205 28//205 30//205
f 22//13 17//13 18//13
f 15//206 22//206 24//206
f 19//11 23//11 24//11
f 14//207 19//207 21//207
f 16//9 20//9 21//9
f 13//208 16//208 18//208
f 10//6 5//6 6//6
f 3//209 10//209 12//209
f 7//4 11//4 12//4
f 2//210 7//210 9//210
f 4//2 8//2 9//2
f 1//211 4//211 6//211
f 27//296 34//296 36//296
f 34//20 29//20 30//20
f 37//297 40//297 42//297
f 40//23 44//23 45//23
f 38//298 43//298 45//298
f 43//25 47//25 48//25
f 39//299 46//299 48//299
f 46//27 41//27 42//27
f 49//300 52//300 54//300
f 52//30 56//30 57//30
f 50//301 55//301 57//301
f 55//32 59//32 60//32
f 51//302 58//302 60//302
f 58//34 53//34 54//34
f 61//303 64//303 66//303
f 64//37 68//37 69//37
f 62//304 67//304 69//304
f 67//39 71//39 72//39
f 63//305 70//305 72//305
f 70//41 65//41 66//41
f 73//306 76//306 78//306
f 76//44 80//44 81//44
f 74//307 79//307 81//307
f 79//46 83//46 84//46
f 75//308 82//308 84//308
f 82//48 77//48 78//48
f 85//309 88//309 90//309
f 88//51 92//51 93//51
f 86//310 91//310 93//310
f 91//53 95//53 96//53
f 87//311 94//311 96//311
f 94//55 89//55 90//55
f 25//57 1//57 5//57
f 28//58 5//58 10//58
f 32//59 10//59 3//59
f 2//60 13//60 17//60
f 7//61 17//61 22//61
f 11//62 22//62 15//62
f 14//63 37//63 41//63
f 19//64 41//64 46//64
f 23//65 46//65 39//65
f 38//66 27//66 35//66
f 43//67 35//67 31//67
f 47//68 31//68 26//68
f 73//69 25//69 29//69
f 76//70 29//70 34//70
f 80//71 34//71 27//71
f 37//72 85//72 89//72
f 40//73 89//73 94//73
f 44//74 94//74 87//74
f 86//75 75//75 83//75
f 91//76 83//76 79//76
f 95//77 79//77 74//77
f 49//78 73//78 77//78
f 52//79 77//79 82//79
f 56//80 82//80 75//80
f 85//81 61//81 65//81
f 88//82 65//82 70//82
f 92//83 70//83 63//83
f 62//84 51//84 59//84
f 67//85 59//85 55//85
f 71//86 55//86 50//86
f 1//87 49//87 53//87
f 4//88 53//88 58//88
f 8//89 58//89 51//89
f 61//90 14//90 20//90
f 64//91 20//91 16//91
f 68//92 16//92 13//92
f 25//93 73//93 49//93
f 3//94 15//94 39//94
f 184//95 183//95 13//95
f 2//95 109//95 106//95
f 2//95 106//95 104//95
f 197//95 184//95 13//95
f 201//95 197//95 13//95
f 2//95 104//95 107//95
f 2//95 107//95 103//95
f 200//95 201//95 13//95
f 198//95 200//95 13//95
f 2//95 103//95 101//95
f 13//95 2//95 101//95
f 13//95 101//95 102//95
f 13//95 102//95 108//95
f 105//95 117//95 153//95
f 105//95 153//95 152//95
f 62//95 188//95 186//95
f 115//95 110//95 51//95
f 112//95 115//95 51//95
f 62//95 186//95 195//95
f 62//95 195//95 194//95
f 113//95 112//95 51//95
f 99//95 113//95 51//95
f 62//95 194//95 192//95
f 62//95 192//95 190//95
f 98//95 99//95 51//95
f 98//95 51//95 62//95
f 100//95 98//95 62//95
f 97//95 100//95 62//95
f 159//95 111//95 116//95
f 160//95 159//95 116//95
f 160//95 116//95 114//95
f 156//95 160//95 114//95
f 108//95 105//95 152//95
f 108//95 152//95 145//95
f 156//95 114//95 97//95
f 155//95 156//95 97//95
f 108//95 145//95 147//95
f 108//95 147//95 141//95
f 150//95 155//95 97//95
f 148//95 150//95 97//95
f 108//95 141//95 140//95
f 108//95 140//95 139//95
f 148//95 97//95 62//95
f 149//95 148//95 62//95
f 149//95 62//95 190//95
f 154//95 149//95 190//95
f 154//95 190//95 191//95
f 157//95 154//95 191//95
f 157//95 191//95 189//95
f 158//95 157//95 189//95
f 158//95 189//95 193//95
f 151//95 158//95 193//95
f 151//95 193//95 185//95
f 146//95 151//95 185//95
f 146//95 185//95 187//95
f 144//95 146//95 187//95
f 144//95 187//95 196//95
f 143//95 144//95 196//95
f 143//95 196//95 202//95
f 142//95 143//95 202//95
f 142//95 202//95 203//95
f 13//95 108//95 139//95
f 139//95 142//95 203//95
f 139//95 203//95 199//95
f 198//95 13//95 139//95
f 13//95 183//95 188//95
f 153//95 117//95 111//95
f 51//95 110//95 109//95
f 85//96 37//96 14//96
f 127//97 125//97 27//97
f 38//97 215//97 212//97
f 38//97 212//97 210//97
f 124//97 127//97 27//97
f 122//97 124//97 27//97
f 38//97 210//97 208//97
f 38//97 208//97 206//97
f 119//97 122//97 27//97
f 118//97 119//97 27//97
f 38//97 206//97 204//97
f 27//97 38//97 204//97
f 27//97 204//97 205//97
f 27//97 205//97 207//97
f 213//97 214//97 87//97
f 74//97 126//97 136//97
f 74//97 136//97 130//97
f 218//97 213//97 87//97
f 223//97 218//97 87//97
f 74//97 130//97 137//97
f 74//97 137//97 133//97
f 221//97 223//97 87//97
f 220//97 221//97 87//97
f 74//97 133//97 132//97
f 87//97 74//97 132//97
f 87//97 132//97 134//97
f 87//97 134//97 135//97
f 131//97 138//97 175//97
f 131//97 175//97 174//97
f 180//97 128//97 129//97
f 182//97 180//97 129//97
f 182//97 129//97 123//97
f 178//97 182//97 123//97
f 178//97 123//97 120//97
f 176//97 178//97 120//97
f 176//97 120//97 121//97
f 171//97 176//97 121//97
f 171//97 121//97 118//97
f 170//97 171//97 118//97
f 135//97 131//97 174//97
f 135//97 174//97 162//97
f 170//97 118//97 27//97
f 170//97 27//97 207//97
f 170//97 207//97 209//97
f 172//97 170//97 209//97
f 172//97 209//97 211//97
f 177//97 172//97 211//97
f 177//97 211//97 216//97
f 179//97 177//97 216//97
f 179//97 216//97 217//97
f 181//97 179//97 217//97
f 181//97 217//97 222//97
f 173//97 181//97 222//97
f 173//97 222//97 224//97
f 163//97 173//97 224//97
f 163//97 224//97 219//97
f 161//97 163//97 219//97
f 161//97 219//97 220//97
f 168//97 161//97 220//97
f 135//97 162//97 169//97
f 135//97 169//97 164//97
f 168//97 220//97 87//97
f 166//97 168//97 87//97
f 135//97 164//97 167//97
f 165//97 166//97 87//97
f 135//97 167//97 165//97
f 215//97 38//97 87//97
f 138//97 128//97 180//97
f 126//97 74//97 27//97
f 75//98 86//98 63//98
f 116//99 111//99 128//99
f 114//100 116//100 138//100
f 114//58 131//58 135//58
f 97//101 135//101 134//101
f 100//102 134//102 132//102
f 98//103 132//103 133//103
f 99//104 133//104 137//104
f 113//64 137//64 130//64
f 136//105 115//105 112//105
f 136//118 126//118 109//118
f 110//312 115//312 136//312
f 125//313 127//313 106//313
f 106//119 109//119 126//119
f 124//108 104//108 106//108
f 107//82 104//82 124//82
f 103//109 107//109 122//109
f 101//110 103//110 119//110
f 102//111 101//111 118//111
f 108//112 102//112 121//112
f 105//79 108//79 120//79
f 117//113 105//113 123//113
f 111//114 117//114 129//114
f 158//99 151//99 173//99
f 157//100 158//100 163//100
f 154//58 157//58 161//58
f 154//101 168//101 166//101
f 149//102 166//102 165//102
f 148//103 165//103 167//103
f 150//104 167//104 164//104
f 169//64 156//64 155//64
f 162//105 160//105 156//105
f 160//118 162//118 174//118
f 174//314 152//314 153//314
f 159//315 160//315 174//315
f 180//316 182//316 145//316
f 145//119 152//119 174//119
f 175//317 180//317 145//317
f 178//108 147//108 145//108
f 176//82 141//82 147//82
f 140//109 141//109 176//109
f 139//110 140//110 171//110
f 142//111 139//111 170//111
f 143//112 142//112 172//112
f 144//79 143//79 177//79
f 146//113 144//113 179//113
f 151//114 146//114 181//114
f 213//99 186//99 188//99
f 188//318 215//318 214//318
f 195//100 186//100 213//100
f 223//58 194//58 195//58
f 192//101 194//101 223//101
f 192//102 221//102 220//102
f 190//103 220//103 219//103
f 191//104 219//104 224//104
f 189//64 224//64 222//64
f 217//105 185//105 193//105
f 216//118 187//118 185//118
f 211//119 196//119 187//119
f 209//108 202//108 196//108
f 203//82 202//82 209//82
f 199//109 203//109 207//109
f 198//110 199//110 205//110
f 200//111 198//111 204//111
f 201//112 200//112 206//112
f 197//79 201//79 208//79
f 184//113 197//113 210//113
f 215//319 188//319 183//319
f 183//320 184//320 212//320
f 225//211 228//211 230//211
f 228//2 232//2 233//2
f 226//210 231//210 233//210
f 231//4 235//4 236//4
f 227//209 234//209 236//209
f 234//6 229//6 230//6
f 237//208 240//208 242//208
f 240//9 244//9 245//9
f 238//207 243//207 245//207
f 243//11 247//11 248//11
f 239//206 246//206 248//206
f 246//13 241//13 242//13
f 249//205 252//205 254//205
f 252//16 256//16 257//16
f 250//204 255//204 257//204
f 255//18 259//18 260//18
f 251//296 258//296 260//296
f 258//20 253//20 254//20
f 261//297 264//297 266//297
f 264//23 268//23 269//23
f 262//298 267//298 269//298
f 267//25 271//25 272//25
f 263//299 270//299 272//299
f 270//27 265//27 266//27
f 273//300 276//300 278//300
f 276//30 280//30 281//30
f 274//301 279//301 281//301
f 279//32 283//32 284//32
f 275//302 282//302 284//302
f 282//34 277//34 278//34
f 285//303 288//303 290//303
f 288//37 292//37 293//37
f 286//304 291//304 293//304
f 291//39 295//39 296//39
f 287//305 294//305 296//305
f 294//41 289//41 290//41
f 297//306 300//306 302//306
f 300//44 304//44 305//44
f 298//307 303//307 305//307
f 303//46 307//46 308//46
f 299//308 306//308 308//308
f 306//48 301//48 302//48
f 309//309 312//309 314//309
f 312//51 316//51 317//51
f 310//310 315//310 317//310
f 315//53 319//53 320//53
f 311//311 318//311 320//311
f 318//55 313//55 314//55
f 249//57 225//57 229//57
f 252//58 229//58 234//58
f 256//59 234//59 227//59
f 226//60 237//60 241//60
f 231//61 241//61 246//61
f 235//62 246//62 239//62
f 238//63 261//63 265//63
f 243//64 265//64 270//64
f 247//65 270//65 263//65
f 262//66 251//66 259//66
f 267//67 259//67 255//67
f 271//68 255//68 250//68
f 297//69 249//69 253//69
f 300//70 253//70 258//70
f 304//71 258//71 251//71
f 261//72 309//72 313//72
f 264//73 313//73 318//73
f 268//74 318//74 311//74
f 310//75 299//75 307//75
f 315//76 307//76 303//76
f 319//77 303//77 298//77
f 273//78 297//78 301//78
f 276//79 301//79 306//79
f 280//80 306//80 299//80
f 309//81 285//81 289//81
f 312//82 289//82 294//82
f 316//83 294//83 287//83
f 286//84 275//84 283//84
f 291//85 283//85 279//85
f 295//86 279//86 274//86
f 225//87 273//87 277//87
f 228//88 277//88 282//88
f 232//89 282//89 275//89
f 285//90 238//90 244//90
f 288//91 244//91 240//91
f 292//92 240//92 237//92
f 249//93 297//93 273//93
f 227//94 239//94 263//94
f 408//95 407//95 237//95
f 226//95 333//95 330//95
f 226//95 330//95 328//95
f 421//95 408//95 237//95
f 425//95 421//95 237//95
f 226//95 328//95 331//95
f 226//95 331//95 327//95
f 424//95 425//95 237//95
f 422//95 424//95 237//95
f 226//95 327//95 325//95
f 237//95 226//95 325//95
f 237//95 325//95 326//95
f 237//95 326//95 332//95
f 329//95 341//95 377//95
f 329//95 377//95 376//95
f 286//95 412//95 410//95
f 339//95 334//95 275//95
f 336//95 339//95 275//95
f 286//95 410//95 419//95
f 286//95 419//95 418//95
f 337//95 336//95 275//95
f 323//95 337//95 275//95
f 286//95 418//95 416//95
f 286//95 416//95 414//95
f 322//95 323//95 275//95
f 322//95 275//95 286//95
f 324//95 322//95 286//95
f 321//95 324//95 286//95
f 383//95 335//95 340//95
f 384//95 383//95 340//95
f 384//95 340//95 338//95
f 380//95 384//95 338//95
f 332//95 329//95 376//95
f 332//95 376//95 369//95
f 380//95 338//95 321//95
f 379//95 380//95 321//95
f 332//95 369//95 371//95
f 332//95 371//95 365//95
f 374//95 379//95 321//95
f 372//95 374//95 321//95
f 332//95 365//95 364//95
f 332//95 364//95 363//95
f 372//95 321//95 286//95
f 373//95 372//95 286//95
f 373//95 286//95 414//95
f 378//95 373//95 414//95
f 378//95 414//95 415//95
f 381//95 378//95 415//95
f 381//95 415//95 413//95
f 382//95 381//95 413//95
f 382//95 413//95 417//95
f 375//95 382//95 417//95
f 375//95 417//95 409//95
f 370//95 375//95 409//95
f 370//95 409//95 411//95
f 368//95 370//95 411//95
f 368//95 411//95 420//95
f 367//95 368//95 420//95
f 367//95 420//95 426//95
f 366//95 367//95 426//95
f 366//95 426//95 427//95
f 237//95 332//95 363//95
f 363//95 366//95 427//95
f 363//95 427//95 423//95
f 422//95 237//95 363//95
f 237//95 407//95 412//95
f 377//95 341//95 335//95
f 275//95 334//95 333//95
f 309//96 261//96 238//96
f 351//97 349//97 251//97
f 262//97 439//97 436//97
f 262//97 436//97 434//97
f 348//97 351//97 251//97
f 346//97 348//97 251//97
f 262//97 434//97 432//97
f 262//97 432//97 430//97
f 343//97 346//97 251//97
f 342//97 343//97 251//97
f 262//97 430//97 428//97
f 251//97 262//97 428//97
f 251//97 428//97 429//97
f 251//97 429//97 431//97
f 437//97 438//97 311//97
f 298//97 350//97 360//97
f 298//97 360//97 354//97
f 442//97 437//97 311//97
f 447//97 442//97 311//97
f 298//97 354//97 361//97
f 298//97 361//97 357//97
f 445//97 447//97 311//97
f 444//97 445//97 311//97
f 298//97 357//97 356//97
f 311//97 298//97 356//97
f 311//97 356//97 358//97
f 311//97 358//97 359//97
f 355//97 362//97 399//97
f 355//97 399//97 398//97
f 404//97 352//97 353//97
f 406//97 404//97 353//97
f 406//97 353//97 347//97
f 402//97 406//97 347//97
f 402//97 347//97 344//97
f 400//97 402//97 344//97
f 400//97 344//97 345//97
f 395//97 400//97 345//97
f 395//97 345//97 342//97
f 394//97 395//97 342//97
f 359//97 355//97 398//97
f 359//97 398//97 386//97
f 394//97 342//97 251//97
f 394//97 251//97 431//97
f 394//97 431//97 433//97
f 396//97 394//97 433//97
f 396//97 433//97 435//97
f 401//97 396//97 435//97
f 401//97 435//97 440//97
f 403//97 401//97 440//97
f 403//97 440//97 441//97
f 405//97 403//97 441//97
f 405//97 441//97 446//97
f 397//97 405//97 446//97
f 397//97 446//97 448//97
f 387//97 397//97 448//97
f 387//97 448//97 443//97
f 385//97 387//97 443//97
f 385//97 443//97 444//97
f 392//97 385//97 444//97
f 359//97 386//97 393//97
f 359//97 393//97 388//97
f 392//97 444//97 311//97
f 390//97 392//97 311//97
f 359//97 388//97 391//97
f 389//97 390//97 311//97
f 359//97 391//97 389//97
f 439//97 262//97 311//97
f 362//97 352//97 404//97
f 350//97 298//97 251//97
f 299//98 310//98 287//98
f 340//99 335//99 352//99
f 338//100 340//100 362//100
f 338//58 355//58 359//58
f 321//101 359//101 358//101
f 324//102 358//102 356//102
f 322//103 356//103 357//103
f 323//104 357//104 361//104
f 337//64 361//64 354//64
f 360//105 339//105 336//105
f 360//118 350//118 333//118
f 334//312 339//312 360//312
f 349//313 351//313 330//313
f 330//119 333//119 350//119
f 348//108 328//108 330//108
f 331//82 328//82 348//82
f 327//109 331//109 346//109
f 325//110 327//110 343//110
f 326//111 325//111 342//111
f 332//112 326//112 345//112
f 329//79 332//79 344//79
f 341//113 329//113 347//113
f 335//114 341//114 353//114
f 382//99 375//99 397//99
f 381//100 382//100 387//100
f 378//58 381//58 385//58
f 378//101 392//101 390//101
f 373//102 390//102 389//102
f 372//103 389//103 391//103
f 374//104 391//104 388//104
f 393//64 380//64 379//64
f 386//105 384//105 380//105
f 384//118 386//118 398//118
f 398//314 376//314 377//314
f 383//315 384//315 398//315
f 404//316 406//316 369//316
f 369//119 376//119 398//119
f 399//317 404//317 369//317
f 402//108 371//108 369//108
f 400//82 365//82 371//82
f 364//109 365//109 400//109
f 363//110 364//110 395//110
f 366//111 363//111 394//111
f 367//112 366//112 396//112
f 368//79 367//79 401//79
f 370//113 368//113 403//113
f 375//114 370//114 405//114
f 437//99 410//99 412//99
f 412//318 439//318 438//318
f 419//100 410//100 437//100
f 447//58 418//58 419//58
f 416//101 418//101 447//101
f 416//102 445//102 444//102
f 414//103 444//103 443//103
f 415//104 443//104 448//104
f 413//64 448//64 446//64
f 441//105 409//105 417//105
f 440//118 411//118 409//118
f 435//119 420//119 411//119
f 433//108 426//108 420//108
f 427//82 426//82 433//82
f 423//109 427//109 431//109
f 422//110 423//110 429//110
f 424//111 422//111 428//111
f 425//112 424//112 430//112
f 421//79 425//79 432//79
f 408//113 421//113 434//113
f 439//319 412//319 407//319
f 407//320 408//320 436//320
usemtl Shell
f 449//128 454//128 453//128
f 452//129 457//129 454//129
f 450//130 457//130 456//130
f 455//131 460//131 457//131
f 451//132 460//132 459//132
f 458//133 454//133 460//133
f 454//134 457//134 460//134
f 461//135 466//135 465//135
f 464//136 469//136 466//136
f 462//137 469//137 468//137
f 467//138 472//138 469//138
f 463//139 472//139 471//139
f 470//140 466//140 472//140
f 466//141 469//141 472//141
f 473//142 478//142 477//142
f 476//143 481//143 478//143
f 474//144 481//144 480//144
f 479//145 484//145 481//145
f 475//146 484//146 483//146
f 482//147 478//147 484//147
f 478//148 481//148 484//148
f 485//149 490//149 489//149
f 488//150 493//150 490//150
f 486//151 493//151 492//151
f 491//152 496//152 493//152
f 487//153 496//153 495//153
f 494//154 490//154 496//154
f 490//155 493//155 496//155
f 449//156 499//156 498//156
f 453//157 501//157 499//157
f 451//158 501//158 458//158
f 500//159 504//159 501//159
f 497//160 504//160 503//160
f 502//161 499//161 504//161
f 499//162 501//162 504//162
f 462//163 507//163 506//163
f 468//164 509//164 507//164
f 461//165 509//165 464//165
f 508//166 512//166 509//166
f 505//167 512//167 511//167
f 510//168 507//168 512//168
f 507//169 509//169 512//169
f 474//170 515//170 514//170
f 480//171 517//171 515//171
f 473//172 517//172 476//172
f 516//173 520//173 517//173
f 513//174 520//174 519//174
f 518//175 515//175 520//175
f 515//176 517//176 520//176
f 485//177 523//177 488//177
f 522//178 526//178 523//178
f 521//179 526//179 525//179
f 524//180 528//180 526//180
f 486//181 528//181 527//181
f 492//182 523//182 528//182
f 523//183 526//183 528//183
f 449//184 489//184 452//184
f 452//185 494//185 456//185
f 456//186 487//186 450//186
f 475//187 495//187 482//187
f 482//73 491//73 477//73
f 477//188 486//188 473//188
f 463//189 483//189 470//189
f 470//190 479//190 465//190
f 465//191 474//191 461//191
f 450//192 471//192 455//192
f 455//70 467//70 459//70
f 459//193 462//193 451//193
f 497//194 525//194 502//194
f 502//195 522//195 498//195
f 498//196 485//196 449//196
f 451//197 506//197 500//197
f 500//88 510//88 503//88
f 503//198 505//198 497//198
f 461//199 514//199 508//199
f 508//200 518//200 511//200
f 511//201 513//201 505//201
f 473//202 527//202 516//202
f 516//91 524//91 519//91
f 519//203 521//203 513//203
f 487//97 463//97 450//97
f 497//95 513//95 521//95
f 449//321 452//321 454//321
f 452//322 456//322 457//322
f 450//323 455//323 457//323
f 455//131 459//131 460//131
f 451//324 458//324 460//324
f 458//325 453//325 454//325
f 461//326 464//326 466//326
f 464//327 468//327 469//327
f 462//328 467//328 469//328
f 467//138 471//138 472//138
f 463//329 470//329 472//329
f 470//330 465//330 466//330
f 473//331 476//331 478//331
f 476//332 480//332 481//332
f 474//333 479//333 481//333
f 479//334 483//334 484//334
f 475//335 482//335 484//335
f 482//336 477//336 478//336
f 485//337 488//337 490//337
f 488//338 492//338 493//338
f 486//339 491//339 493//339
f 491//152 495//152 496//152
f 487//340 494//340 496//340
f 494//341 489//341 490//341
f 449//342 453//342 499//342
f 453//343 458//343 501//343
f 451//344 500//344 501//344
f 500//159 503//159 504//159
f 497//345 502//345 504//345
f 502//346 498//346 499//346
f 462//347 468//347 507//347
f 468//348 464//348 509//348
f 461//349 508//349 509//349
f 508//350 511//350 512//350
f 505//351 510//351 512//351
f 510//168 506//168 507//168
f 474//352 480//352 515//352
f 480//353 476//353 517//353
f 473//354 516//354 517//354
f 516//173 519//173 520//173
f 513//355 518//355 520//355
f 518//356 514//356 515//356
f 485//357 522//357 523//357
f 522//358 525//358 526//358
f 521//359 524//359 526//359
f 524//360 527//360 528//360
f 486//361 492//361 528//361
f 492//362 488//362 523//362
f 449//363 485//363 489//363
f 452//364 489//364 494//364
f 456//186 494//186 487//186
f 475//187 487//187 495//187
f 482//73 495//73 491//73
f 477//188 491//188 486//188
f 463//189 475//189 483//189
f 470//365 483//365 479//365
f 465//366 479//366 474//366
f 450//192 463//192 471//192
f 455//70 471//70 467//70
f 459//193 467//193 462//193
f 497//194 521//194 525//194
f 502//367 525//367 522//367
f 498//368 522//368 485//368
f 451//197 462//197 506//197
f 500//88 506//88 510//88
f 503//198 510//198 505//198
f 461//369 474//369 514//369
f 508//370 514//370 518//370
f 511//201 518//201 513//201
f 473//202 486//202 527//202
f 516//91 527//91 524//91
f 519//203 524//203 521//203
f 487//97 475//97 463//97
f 497//95 505//95 513//95
usemtl DetailTeal
f 529//212 534//212 533//212
f 532//213 537//213 534//213
f 530//214 537//214 536//214
f 535//215 540//215 537//215
f 531//216 540//216 539//216
f 538//217 534//217 540//217
f 534//218 537//218 540//218
f 541//219 546//219 545//219
f 544//220 549//220 546//220
f 542//221 549//221 548//221
f 547//222 552//222 549//222
f 543//223 552//223 551//223
f 550//224 546//224 552//224
f 546//225 549//225 552//225
f 553//226 558//226 557//226
f 556//227 561//227 558//227
f 554//228 561//228 560//228
f 559//229 564//229 561//229
f 555//230 564//230 563//230
f 562//231 558//231 564//231
f 558//122 561//122 564//122
f 565//232 570//232 569//232
f 568//233 573//233 570//233
f 566//234 573//234 572//234
f 571//235 576//235 573//235
f 567//236 576//236 575//236
f 574//237 570//237 576//237
f 570//123 573//123 576//123
f 577//238 582//238 581//238
f 580//239 585//239 582//239
f 578//240 585//240 584//240
f 583//241 588//241 585//241
f 579//242 588//242 587//242
f 586//243 582//243 588//243
f 582//244 585//244 588//244
f 589//245 594//245 593//245
f 592//246 597//246 594//246
f 590//247 597//247 596//247
f 595//248 600//248 597//248
f 591//249 600//249 599//249
f 598//250 594//250 600//250
f 594//251 597//251 600//251
f 601//252 606//252 605//252
f 604//253 609//253 606//253
f 602//254 609//254 608//254
f 607//255 612//255 609//255
f 603//256 612//256 611//256
f 610//257 606//257 612//257
f 606//49 609//49 612//49
f 613//258 618//258 617//258
f 616//259 621//259 618//259
f 614//260 621//260 620//260
f 619//261 624//261 621//261
f 615//262 624//262 623//262
f 622//263 618//263 624//263
f 618//56 621//56 624//56
f 553//264 533//264 556//264
f 556//58 538//58 560//58
f 560//265 531//265 554//265
f 530//266 545//266 535//266
f 535//61 550//61 539//61
f 539//267 543//267 531//267
f 542//268 569//268 547//268
f 547//64 574//64 551//64
f 551//269 567//269 543//269
f 566//270 563//270 571//270
f 571//67 559//67 575//67
f 575//271 554//271 567//271
f 601//272 557//272 604//272
f 604//70 562//70 608//70
f 608//273 555//273 602//273
f 565//274 617//274 568//274
f 568//73 622//73 572//73
f 572//275 615//275 566//275
f 614//276 611//276 619//276
f 619//76 607//76 623//76
f 623//277 602//277 615//277
f 577//278 605//278 580//278
f 580//79 610//79 584//79
f 584//279 603//279 578//279
f 613//280 593//280 616//280
f 616//82 598//82 620//82
f 620//281 591//281 614//281
f 590//282 587//282 595//282
f 595//85 583//85 599//85
f 599//283 578//283 591//283
f 529//284 581//284 532//284
f 532//88 586//88 536//88
f 536//285 579//285 530//285
f 589//286 548//286 592//286
f 592//91 544//91 596//91
f 596//287 541//287 590//287
f 553//93 577//93 529//93
f 531//94 567//94 554//94
f 579//95 541//95 530//95
f 613//96 542//96 589//96
f 555//97 615//97 602//97
f 603//98 591//98 578//98
f 529//371 532//371 534//371
f 532//213 536//213 537//213
f 530//372 535//372 537//372
f 535//215 539//215 540//215
f 531//373 538//373 540//373
f 538//217 533//217 534//217
f 541//374 544//374 546//374
f 544//220 548//220 549//220
f 542//375 547//375 549//375
f 547//222 551//222 552//222
f 543//376 550//376 552//376
f 550//224 545//224 546//224
f 553//377 556//377 558//377
f 556//227 560//227 561//227
f 554//378 559//378 561//378
f 559//229 563//229 564//229
f 555//379 562//379 564//379
f 562//231 557//231 558//231
f 565//380 568//380 570//380
f 568//233 572//233 573//233
f 566//381 571//381 573//381
f 571//235 575//235 576//235
f 567//382 574//382 576//382
f 574//237 569//237 570//237
f 577//383 580//383 582//383
f 580//239 584//239 585//239
f 578//384 583//384 585//384
f 583//241 587//241 588//241
f 579//385 586//385 588//385
f 586//243 581//243 582//243
f 589//386 592//386 594//386
f 592//246 596//246 597//246
f 590//387 595//387 597//387
f 595//248 599//248 600//248
f 591//388 598//388 600//388
f 598//250 593//250 594//250
f 601//389 604//389 606//389
f 604//253 608//253 609//253
f 602//390 607//390 609//390
f 607//255 611//255 612//255
f 603//391 610//391 612//391
f 610//257 605//257 606//257
f 613//392 616//392 618//392
f 616//259 620//259 621//259
f 614//393 619//393 621//393
f 619//261 623//261 624//261
f 615//394 622//394 624//394
f 622//263 617//263 618//263
f 553//395 529//395 533//395
f 556//58 533//58 538//58
f 560//265 538//265 531//265
f 530//266 541//266 545//266
f 535//61 545//61 550//61
f 539//396 550//396 543//396
f 542//397 565//397 569//397
f 547//64 569//64 574//64
f 551//269 574//269 567//269
f 566//270 555//270 563//270
f 571//67 563//67 559//67
f 575//271 559//271 554//271
f 601//272 553//272 557//272
f 604//70 557//70 562//70
f 608//273 562//273 555//273
f 565//274 613//274 617//274
f 568//73 617//73 622//73
f 572//275 622//275 615//275
f 614//276 603//276 611//276
f 619//76 611//76 607//76
f 623//277 607//277 602//277
f 577//398 601//398 605//398
f 580//79 605//79 610//79
f 584//279 610//279 603//279
f 613//399 589//399 593//399
f 616//82 593//82 598//82
f 620//281 598//281 591//281
f 590//282 579//282 587//282
f 595//85 587//85 583//85
f 599//400 583//400 578//400
f 529//284 577//284 581//284
f 532//88 581//88 586//88
f 536//401 586//401 579//401
f 589//286 542//286 548//286
f 592//91 548//91 544//91
f 596//402 544//402 541//402
f 553//93 601//93 577//93
f 531//94 543//94 567//94
f 579//95 590//95 541//95
f 613//96 565//96 542//96
f 555//97 566//97 615//97
f 603//98 614//98 591//98
usemtl DetailGraphite
f 625//1 630//1 629//1
f 628//2 633//2 630//2
f 626//3 633//3 632//3
f 631//4 636//4 633//4
f 627//5 636//5 635//5
f 634//6 630//6 636//6
f 630//288 633//288 636//288
f 637//8 642//8 641//8
f 640//9 645//9 642//9
f 638//10 645//10 644//10
f 643//11 648//11 645//11
f 639//12 648//12 647//12
f 646//13 642//13 648//13
f 642//289 645//289 648//289
f 649//15 654//15 653//15
f 652//16 657//16 654//16
f 650//17 657//17 656//17
f 655//18 660//18 657//18
f 651//19 660//19 659//19
f 658//20 654//20 660//20
f 654//290 657//290 660//290
f 661//22 666//22 665//22
f 664//23 669//23 666//23
f 662//24 669//24 668//24
f 667//25 672//25 669//25
f 663//26 672//26 671//26
f 670//27 666//27 672//27
f 666//291 669//291 672//291
f 673//29 678//29 677//29
f 676//30 681//30 678//30
f 674//31 681//31 680//31
f 679//32 684//32 681//32
f 675//33 684//33 683//33
f 682//34 678//34 684//34
f 678//292 681//292 684//292
f 685//36 690//36 689//36
f 688//37 693//37 690//37
f 686//38 693//38 692//38
f 691//39 696//39 693//39
f 687//40 696//40 695//40
f 694//41 690//41 696//41
f 690//293 693//293 696//293
f 697//43 702//43 701//43
f 700//44 705//44 702//44
f 698//45 705//45 704//45
f 703//46 708//46 705//46
f 699//47 708//47 707//47
f 706//48 702//48 708//48
f 702//294 705//294 708//294
f 709//50 714//50 713//50
f 712//51 717//51 714//51
f 710//52 717//52 716//52
f 715//53 720//53 717//53
f 711//54 720//54 719//54
f 718//55 714//55 720//55
f 714//295 717//295 720//295
f 649//57 629//57 652//57
f 652//58 634//58 656//58
f 656//59 627//59 650//59
f 626//60 641//60 631//60
f 631//61 646//61 635//61
f 635//62 639//62 627//62
f 638//63 665//63 643//63
f 643//64 670//64 647//64
f 647//65 663//65 639//65
f 662//66 659//66 667//66
f 667//67 655//67 671//67
f 671//68 650//68 663//68
f 697//69 653//69 700//69
f 700//70 658//70 704//70
f 704//71 651//71 698//71
f 661//72 713//72 664//72
f 664//73 718//73 668//73
f 668//74 711//74 662//74
f 710//75 707//75 715//75
f 715//76 703//76 719//76
f 719//77 698//77 711//77
f 673//78 701//78 676//78
f 676//79 706//79 680//79
f 680//80 699//80 674//80
f 709//81 689//81 712//81
f 712//82 694//82 716//82
f 716//83 687//83 710//83
f 686//84 683//84 691//84
f 691//85 679//85 695//85
f 695//86 674//86 687//86
f 625//87 677//87 628//87
f 628//88 682//88 632//88
f 632//89 675//89 626//89
f 685//90 644//90 688//90
f 688//91 640//91 692//91
f 692//92 637//92 686//92
f 649//93 673//93 625//93
f 627//94 663//94 650//94
f 675//95 637//95 626//95
f 709//96 638//96 685//96
f 651//97 711//97 698//97
f 699//98 687//98 674//98
f 625//211 628//211 630//211
f 628//2 632//2 633//2
f 626//210 631//210 633//210
f 631//4 635//4 636//4
f 627//209 634//209 636//209
f 634//6 629//6 630//6
f 637//208 640//208 642//208
f 640//9 644//9 645//9
f 638//207 643//207 645//207
f 643//11 647//11 648//11
f 639//206 646//206 648//206
f 646//13 641//13 642//13
f 649//205 652//205 654//205
f 652//16 656//16 657//16
f 650//204 655//204 657//204
f 655//18 659//18 660//18
f 651//296 658//296 660//296
f 658//20 653//20 654//20
f 661//297 664//297 666//297
f 664//23 668//23 669//23
f 662//298 667//298 669//298
f 667//25 671//25 672//25
f 663//299 670//299 672//299
f 670//27 665//27 666//27
f 673//300 676//300 678//300
f 676//30 680//30 681//30
f 674//301 679//301 681//301
f 679//32 683//32 684//32
f 675//302 682//302 684//302
f 682//34 677//34 678//34
f 685//303 688//303 690//303
f 688//37 692//37 693//37
f 686//304 691//304 693//304
f 691//39 695//39 696//39
f 687//305 694//305 696//305
f 694//41 689//41 690//41
f 697//306 700//306 702//306
f 700//44 704//44 705//44
f 698//307 703//307 705//307
f 703//46 707//46 708//46
f 699//308 706//308 708//308
f 706//48 701//48 702//48
f 709//309 712//309 714//309
f 712//51 716//51 717//51
f 710//310 715//310 717//310
f 715//53 719//53 720//53
f 711//311 718//311 720//311
f 718//55 713//55 714//55
f 649//57 625//57 629//57
f 652//58 629//58 634//58
f 656//59 634//59 627//59
f 626//60 637//60 641//60
f 631//61 641//61 646//61
f 635//62 646//62 639//62
f 638//63 661//63 665//63
f 643//64 665//64 670//64
f 647//65 670//65 663//65
f 662//66 651//66 659//66
f 667//67 659//67 655//67
f 671//68 655//68 650//68
f 697//69 649//69 653//69
f 700//70 653//70 658//70
f 704//71 658//71 651//71
f 661//72 709//72 713//72
f 664//73 713//73 718//73
f 668//74 718//74 711//74
f 710//75 699//75 707//75
f 715//76 707//76 703//76
f 719//77 703//77 698//77
f 673//78 697//78 701//78
f 676//79 701//79 706//79
f 680//80 706//80 699//80
f 709//81 685//81 689//81
f 712//82 689//82 694//82
f 716//83 694//83 687//83
f 686//84 675//84 683//84
f 691//85 683//85 679//85
f 695//86 679//86 674//86
f 625//87 673//87 677//87
f 628//88 677//88 682//88
f 632//89 682//89 675//89
f 685//90 638//90 644//90
f 688//91 644//91 640//91
f 692//92 640//92 637//92
f 649//93 697//93 673//93
f 627//94 639//94 663//94
f 675//95 686//95 637//95
f 709//96 661//96 638//96
f 651//97 662//97 711//97
f 699//98 710//98 687//98
usemtl BracketMetal
f 721//1 726//1 725//1
f 724//2 729//2 726//2
f 722//3 729//3 728//3
f 727//4 732//4 729//4
f 723//5 732//5 731//5
f 730//6 726//6 732//6
f 726//288 729//288 732//288
f 733//8 738//8 737//8
f 736//9 741//9 738//9
f 734//10 741//10 740//10
f 739//11 744//11 741//11
f 735//12 744//12 743//12
f 742//13 738//13 744//13
f 738//121 741//121 744//121
f 745//15 750//15 749//15
f 748//16 753//16 750//16
f 746//17 753//17 752//17
f 751//18 756//18 753//18
f 747//19 756//19 755//19
f 754//20 750//20 756//20
f 750//290 753//290 756//290
f 757//22 762//22 761//22
f 760//23 765//23 762//23
f 758//24 765//24 764//24
f 763//25 768//25 765//25
f 759//26 768//26 767//26
f 766//27 762//27 768//27
f 762//123 765//123 768//123
f 769//29 774//29 773//29
f 772//30 777//30 774//30
f 770//31 777//31 776//31
f 775//32 780//32 777//32
f 771//33 780//33 779//33
f 778//34 774//34 780//34
f 774//292 777//292 780//292
f 781//36 786//36 785//36
f 784//37 789//37 786//37
f 782//38 789//38 788//38
f 787//39 792//39 789//39
f 783//40 792//40 791//40
f 790//41 786//41 792//41
f 786//42 789//42 792//42
f 793//43 798//43 797//43
f 796//44 801//44 798//44
f 794//45 801//45 800//45
f 799//46 804//46 801//46
f 795//47 804//47 803//47
f 802//48 798//48 804//48
f 798//294 801//294 804//294
f 805//50 810//50 809//50
f 808//51 813//51 810//51
f 806//52 813//52 812//52
f 811//53 816//53 813//53
f 807//54 816//54 815//54
f 814//55 810//55 816//55
f 810//56 813//56 816//56
f 745//57 725//57 748//57
f 748//58 730//58 752//58
f 752//59 723//59 746//59
f 722//60 737//60 727//60
f 727//61 742//61 731//61
f 731//62 735//62 723//62
f 734//63 761//63 739//63
f 739//64 766//64 743//64
f 743//65 759//65 735//65
f 758//66 755//66 763//66
f 763//67 751//67 767//67
f 767//68 746//68 759//68
f 793//69 749//69 796//69
f 796//70 754//70 800//70
f 800//71 747//71 794//71
f 757//72 809//72 760//72
f 760//73 814//73 764//73
f 764//74 807//74 758//74
f 806//75 803//75 811//75
f 811//76 799//76 815//76
f 815//77 794//77 807//77
f 769//78 797//78 772//78
f 772//79 802//79 776//79
f 776//80 795//80 770//80
f 805//81 785//81 808//81
f 808//82 790//82 812//82
f 812//83 783//83 806//83
f 782//84 779//84 787//84
f 787//85 775//85 791//85
f 791//86 770//86 783//86
f 721//87 773//87 724//87
f 724//88 778//88 728//88
f 728//89 771//89 722//89
f 781//90 740//90 784//90
f 784//91 736//91 788//91
f 788//92 733//92 782//92
f 745//93 769//93 721//93
f 723//94 759//94 746//94
f 771//95 733//95 722//95
f 805//96 734//96 781//96
f 747//97 807//97 794//97
f 795//98 783//98 770//98
f 817//1 822//1 821//1
f 820//2 825//2 822//2
f 818//3 825//3 824//3
f 823//4 828//4 825//4
f 819//5 828//5 827//5
f 826//6 822//6 828//6
f 822//120 825//120 828//120
f 829//8 834//8 833//8
f 832//9 837//9 834//9
f 830//10 837//10 836//10
f 835//11 840//11 837//11
f 831//12 840//12 839//12
f 838//13 834//13 840//13
f 834//289 837//289 840//289
f 841//15 846//15 845//15
f 844//16 849//16 846//16
f 842//17 849//17 848//17
f 847//18 852//18 849//18
f 843//19 852//19 851//19
f 850//20 846//20 852//20
f 846//122 849//122 852//122
f 853//22 858//22 857//22
f 856//23 861//23 858//23
f 854//24 861//24 860//24
f 859//25 864//25 861//25
f 855//26 864//26 863//26
f 862//27 858//27 864//27
f 858//291 861//291 864//291
f 865//29 870//29 869//29
f 868//30 873//30 870//30
f 866//31 873//31 872//31
f 871//32 876//32 873//32
f 867//33 876//33 875//33
f 874//34 870//34 876//34
f 870//35 873//35 876//35
f 877//36 882//36 881//36
f 880//37 885//37 882//37
f 878//38 885//38 884//38
f 883//39 888//39 885//39
f 879//40 888//40 887//40
f 886//41 882//41 888//41
f 882//293 885//293 888//293
f 889//43 894//43 893//43
f 892//44 897//44 894//44
f 890//45 897//45 896//45
f 895//46 900//46 897//46
f 891//47 900//47 899//47
f 898//48 894//48 900//48
f 894//49 897//49 900//49
f 901//50 906//50 905//50
f 904//51 909//51 906//51
f 902//52 909//52 908//52
f 907//53 912//53 909//53
f 903//54 912//54 911//54
f 910//55 906//55 912//55
f 906//295 909//295 912//295
f 841//57 821//57 844//57
f 844//58 826//58 848//58
f 848//59 819//59 842//59
f 818//60 833//60 823//60
f 823//61 838//61 827//61
f 827//62 831//62 819//62
f 830//63 857//63 835//63
f 835//64 862//64 839//64
f 839//65 855//65 831//65
f 854//66 851//66 859//66
f 859//67 847//67 863//67
f 863//68 842//68 855//68
f 889//69 845//69 892//69
f 892//70 850//70 896//70
f 896//71 843//71 890//71
f 853//72 905//72 856//72
f 856//73 910//73 860//73
f 860//74 903//74 854//74
f 902//75 899//75 907//75
f 907//76 895//76 911//76
f 911//77 890//77 903//77
f 865//78 893//78 868//78
f 868//79 898//79 872//79
f 872//80 891//80 866//80
f 901//81 881//81 904//81
f 904//82 886//82 908//82
f 908//83 879//83 902//83
f 878//84 875//84 883//84
f 883//85 871//85 887//85
f 887//86 866//86 879//86
f 817//87 869//87 820//87
f 820//88 874//88 824//88
f 824//89 867//89 818//89
f 877//90 836//90 880//90
f 880//91 832//91 884//91
f 884//92 829//92 878//92
f 841//93 865//93 817//93
f 819//94 855//94 842//94
f 867//95 829//95 818//95
f 901//96 830//96 877//96
f 843//97 903//97 890//97
f 891//98 879//98 866//98
f 721//211 724//211 726//211
f 724//2 728//2 729//2
f 722//210 727//210 729//210
f 727//4 731//4 732//4
f 723//209 730//209 732//209
f 730//6 725//6 726//6
f 733//208 736//208 738//208
f 736//9 740//9 741//9
f 734//207 739//207 741//207
f 739//11 743//11 744//11
f 735//206 742//206 744//206
f 742//13 737//13 738//13
f 745//205 748//205 750//205
f 748//16 752//16 753//16
f 746//204 751//204 753//204
f 751//18 755//18 756//18
f 747//296 754//296 756//296
f 754//20 749//20 750//20
f 757//297 760//297 762//297
f 760//23 764//23 765//23
f 758//298 763//298 765//298
f 763//25 767//25 768//25
f 759//299 766//299 768//299
f 766//27 761//27 762//27
f 769//300 772//300 774//300
f 772//30 776//30 777//30
f 770//301 775//301 777//301
f 775//32 779//32 780//32
f 771//302 778//302 780//302
f 778//34 773//34 774//34
f 781//303 784//303 786//303
f 784//37 788//37 789//37
f 782//304 787//304 789//304
f 787//39 791//39 792//39
f 783//305 790//305 792//305
f 790//41 785//41 786//41
f 793//306 796//306 798//306
f 796//44 800//44 801//44
f 794//307 799//307 801//307
f 799//46 803//46 804//46
f 795//308 802//308 804//308
f 802//48 797//48 798//48
f 805//309 808//309 810//309
f 808//51 812//51 813//51
f 806//310 811//310 813//310
f 811//53 815//53 816//53
f 807//311 814//311 816//311
f 814//55 809//55 810//55
f 745//57 721//57 725//57
f 748//58 725//58 730//58
f 752//59 730//59 723//59
f 722//60 733//60 737//60
f 727//61 737//61 742//61
f 731//62 742//62 735//62
f 734//63 757//63 761//63
f 739//64 761//64 766//64
f 743//65 766//65 759//65
f 758//66 747//66 755//66
f 763//67 755//67 751//67
f 767//68 751//68 746//68
f 793//69 745//69 749//69
f 796//70 749//70 754//70
f 800//71 754//71 747//71
f 757//72 805//72 809//72
f 760//73 809//73 814//73
f 764//74 814//74 807//74
f 806//75 795//75 803//75
f 811//76 803//76 799//76
f 815//77 799//77 794//77
f 769//78 793//78 797//78
f 772//79 797//79 802//79
f 776//80 802//80 795//80
f 805//81 781//81 785//81
f 808//82 785//82 790//82
f 812//83 790//83 783//83
f 782//84 771//84 779//84
f 787//85 779//85 775//85
f 791//86 775//86 770//86
f 721//87 769//87 773//87
f 724//88 773//88 778//88
f 728//89 778//89 771//89
f 781//90 734//90 740//90
f 784//91 740//91 736//91
f 788//92 736//92 733//92
f 745//93 793//93 769//93
f 723//94 735//94 759//94
f 771//95 782//95 733//95
f 805//96 757//96 734//96
f 747//97 758//97 807//97
f 795//98 806//98 783//98
f 817//211 820//211 822//211
f 820//2 824//2 825//2
f 818//210 823//210 825//210
f 823//4 827//4 828//4
f 819//209 826//209 828//209
f 826//6 821//6 822//6
f 829//208 832//208 834//208
f 832//9 836//9 837//9
f 830//207 835//207 837//207
f 835//11 839//11 840//11
f 831//206 838//206 840//206
f 838//13 833//13 834//13
f 841//205 844//205 846//205
f 844//16 848//16 849//16
f 842//204 847//204 849//204
f 847//18 851//18 852//18
f 843//296 850//296 852//296
f 850//20 845//20 846//20
f 853//297 856//297 858//297
f 856//23 860//23 861//23
f 854//298 859//298 861//298
f 859//25 863//25 864//25
f 855//299 862//299 864//299
f 862//27 857//27 858//27
f 865//300 868//300 870//300
f 868//30 872//30 873//30
f 866//301 871//301 873//301
f 871//32 875//32 876//32
f 867//302 874//302 876//302
f 874//34 869//34 870//34
f 877//303 880//303 882//303
f 880//37 884//37 885//37
f 878//304 883//304 885//304
f 883//39 887//39 888//39
f 879//305 886//305 888//305
f 886//41 881//41 882//41
f 889//306 892//306 894//306
f 892//44 896//44 897//44
f 890//307 895//307 897//307
f 895//46 899//46 900//46
f 891//308 898//308 900//308
f 898//48 893//48 894//48
f 901//309 904//309 906//309
f 904//51 908//51 909//51
f 902//310 907//310 909//310
f 907//53 911//53 912//53
f 903//311 910//311 912//311
f 910//55 905//55 906//55
f 841//57 817//57 821//57
f 844//58 821//58 826//58
f 848//59 826//59 819//59
f 818//60 829//60 833//60
f 823//61 833//61 838//61
f 827//62 838//62 831//62
f 830//63 853//63 857//63
f 835//64 857//64 862//64
f 839//65 862//65 855//65
f 854//66 843//66 851//66
f 859//67 851//67 847//67
f 863//68 847//68 842//68
f 889//69 841//69 845//69
f 892//70 845//70 850//70
f 896//71 850//71 843//71
f 853//72 901//72 905//72
f 856//73 905//73 910//73
f 860//74 910//74 903//74
f 902//75 891//75 899//75
f 907//76 899//76 895//76
f 911//77 895//77 890//77
f 865//78 889//78 893//78
f 868//79 893//79 898//79
f 872//80 898//80 891//80
f 901//81 877//81 881//81
f 904//82 881//82 886//82
f 908//83 886//83 879//83
f 878//84 867//84 875//84
f 883//85 875//85 871//85
f 887//86 871//86 866//86
f 817//87 865//87 869//87
f 820//88 869//88 874//88
f 824//89 874//89 867//89
f 877//90 830//90 836//90
f 880//91 836//91 832//91
f 884//92 832//92 829//92
f 841//93 889//93 865//93
f 819//94 831//94 855//94
f 867//95 878//95 829//95
f 901//96 853//96 830//96
f 843//97 854//97 903//97
f 891//98 902//98 879//98
