# Blender 5.2.1 LTS
# www.blender.org
mtllib modular_chest_shell.mtl
o modular_chest_shell
v -0.091787 -0.087202 0.035500
v -0.083626 -0.087000 0.027500
v -0.082000 -0.095000 0.035500
v -0.090667 -0.087138 0.031505
v -0.089855 -0.091133 0.035500
v -0.088804 -0.090905 0.031674
v -0.082785 -0.090958 0.028569
v -0.087672 -0.087064 0.028569
v -0.086695 -0.090852 0.029607
v -0.086263 -0.093995 0.035500
v -0.082188 -0.093894 0.031505
v -0.086275 -0.092920 0.031674
v 0.091787 -0.087202 0.035500
v 0.082000 -0.095000 0.035500
v 0.083626 -0.087000 0.027500
v 0.089855 -0.091133 0.035500
v 0.090667 -0.087138 0.031505
v 0.088804 -0.090905 0.031674
v 0.082188 -0.093894 0.031505
v 0.086263 -0.093995 0.035500
v 0.086275 -0.092920 0.031674
v 0.087672 -0.087064 0.028569
v 0.082785 -0.090958 0.028569
v 0.086695 -0.090852 0.029607
v 0.137000 0.145000 0.035500
v 0.143213 0.137202 0.035500
v 0.134959 0.137000 0.027500
v 0.140802 0.143995 0.035500
v 0.136681 0.143894 0.031505
v 0.140322 0.142920 0.031674
v 0.142064 0.137138 0.031505
v 0.143083 0.141133 0.035500
v 0.141927 0.140905 0.031674
v 0.135932 0.140958 0.028569
v 0.139034 0.137064 0.028569
v 0.139794 0.140852 0.029607
v -0.143213 0.137202 0.035500
v -0.137000 0.145000 0.035500
v -0.134959 0.137000 0.027500
v -0.143083 0.141133 0.035500
v -0.142064 0.137138 0.031505
v -0.141927 0.140905 0.031674
v -0.136681 0.143894 0.031505
v -0.140802 0.143995 0.035500
v -0.140322 0.142920 0.031674
v -0.139034 0.137064 0.028569
v -0.135932 0.140958 0.028569
v -0.139794 0.140852 0.029607
v -0.091787 -0.087202 0.074500
v -0.082000 -0.095000 0.074500
v -0.083626 -0.087000 0.082500
v -0.089855 -0.091133 0.074500
v -0.090667 -0.087138 0.078495
v -0.088804 -0.090905 0.078326
v -0.082188 -0.093894 0.078495
v -0.086263 -0.093995 0.074500
v -0.086275 -0.092920 0.078326
v -0.087672 -0.087064 0.081431
v -0.082785 -0.090958 0.081431
v -0.086695 -0.090852 0.080393
v 0.082000 -0.095000 0.074500
v 0.091787 -0.087202 0.074500
v 0.083626 -0.087000 0.082500
v 0.086263 -0.093995 0.074500
v 0.082188 -0.093894 0.078495
v 0.086275 -0.092920 0.078326
v 0.090667 -0.087138 0.078495
v 0.089855 -0.091133 0.074500
v 0.088804 -0.090905 0.078326
v 0.082785 -0.090958 0.081431
v 0.087672 -0.087064 0.081431
v 0.086695 -0.090852 0.080393
v 0.143213 0.137202 0.074500
v 0.137000 0.145000 0.074500
v 0.134959 0.137000 0.082500
v 0.143083 0.141133 0.074500
v 0.142064 0.137138 0.078495
v 0.141927 0.140905 0.078326
v 0.136681 0.143894 0.078495
v 0.140802 0.143995 0.074500
v 0.140322 0.142920 0.078326
v 0.139034 0.137064 0.081431
v 0.135932 0.140958 0.081431
v 0.139794 0.140852 0.080393
v -0.143213 0.137202 0.074500
v -0.134959 0.137000 0.082500
v -0.137000 0.145000 0.074500
v -0.142064 0.137138 0.078495
v -0.143083 0.141133 0.074500
v -0.141927 0.140905 0.078326
v -0.135932 0.140958 0.081431
v -0.139034 0.137064 0.081431
v -0.139794 0.140852 0.080393
v -0.140802 0.143995 0.074500
v -0.136681 0.143894 0.078495
v -0.140322 0.142920 0.078326
v -0.041997 0.025158 0.086000
v -0.035755 0.025500 0.080000
v -0.034000 0.019500 0.086000
v -0.041119 0.025266 0.083004
v -0.040242 0.022270 0.086000
v -0.039430 0.022497 0.083131
v -0.034834 0.022566 0.080802
v -0.038828 0.025392 0.080802
v -0.037817 0.022586 0.081580
v -0.037307 0.020193 0.086000
v -0.034190 0.020364 0.083004
v -0.037363 0.021035 0.083131
v 0.041997 0.025158 0.086000
v 0.034000 0.019500 0.086000
v 0.035755 0.025500 0.080000
v 0.040242 0.022270 0.086000
v 0.041119 0.025266 0.083004
v 0.039430 0.022497 0.083131
v 0.034190 0.020364 0.083004
v 0.037307 0.020193 0.086000
v 0.037363 0.021035 0.083131
v 0.038828 0.025392 0.080802
v 0.034834 0.022566 0.080802
v 0.037817 0.022586 0.081580
v 0.064000 0.104500 0.086000
v 0.068003 0.098842 0.086000
v 0.061520 0.098500 0.080000
v 0.066818 0.103807 0.086000
v 0.063580 0.103636 0.083004
v 0.066280 0.102965 0.083131
v 0.067049 0.098734 0.083004
v 0.068287 0.101730 0.086000
v 0.067314 0.101503 0.083131
v 0.062670 0.101434 0.080802
v 0.064669 0.098608 0.080802
v 0.065639 0.101414 0.081580
v -0.068003 0.098842 0.086000
v -0.064000 0.104500 0.086000
v -0.061520 0.098500 0.080000
v -0.068287 0.101730 0.086000
v -0.067049 0.098734 0.083004
v -0.067314 0.101503 0.083131
v -0.063580 0.103636 0.083004
v -0.066818 0.103807 0.086000
v -0.066280 0.102965 0.083131
v -0.064669 0.098608 0.080802
v -0.062670 0.101434 0.080802
v -0.065639 0.101414 0.081580
v -0.035755 0.025500 0.092000
v -0.041119 0.025266 0.088996
v -0.039430 0.022497 0.088869
v -0.034190 0.020364 0.088996
v -0.037363 0.021035 0.088869
v -0.038828 0.025392 0.091198
v -0.034834 0.022566 0.091198
v -0.037817 0.022586 0.090420
v 0.035755 0.025500 0.092000
v 0.034190 0.020364 0.088996
v 0.037363 0.021035 0.088869
v 0.041119 0.025266 0.088996
v 0.039430 0.022497 0.088869
v 0.034834 0.022566 0.091198
v 0.038828 0.025392 0.091198
v 0.037817 0.022586 0.090420
v 0.061520 0.098500 0.092000
v 0.067049 0.098734 0.088996
v 0.067314 0.101503 0.088869
v 0.063580 0.103636 0.088996
v 0.066280 0.102965 0.088869
v 0.064669 0.098608 0.091198
v 0.062670 0.101434 0.091198
v 0.065639 0.101414 0.090420
v -0.061520 0.098500 0.092000
v -0.067048 0.098734 0.088996
v -0.067314 0.101503 0.088869
v -0.062670 0.101434 0.091198
v -0.064669 0.098608 0.091198
v -0.065639 0.101414 0.090420
v -0.063580 0.103636 0.088996
v -0.066280 0.102965 0.088869
v -0.034500 0.068500 0.094500
v -0.034500 0.069500 0.095500
v -0.035500 0.069500 0.094500
v -0.034500 0.068634 0.094999
v -0.034999 0.068634 0.094500
v -0.034978 0.068763 0.094978
v -0.034999 0.069500 0.095366
v -0.034500 0.069001 0.095366
v -0.034978 0.069022 0.095237
v -0.035366 0.069001 0.094500
v -0.035366 0.069500 0.094999
v -0.035237 0.069022 0.094978
v -0.034500 0.074500 0.095500
v -0.034500 0.075500 0.094500
v -0.035500 0.074500 0.094500
v -0.034500 0.074999 0.095366
v -0.034999 0.074500 0.095366
v -0.034978 0.074978 0.095237
v -0.034999 0.075366 0.094500
v -0.034500 0.075366 0.094999
v -0.034978 0.075237 0.094978
v -0.035366 0.074500 0.094999
v -0.035366 0.074999 0.094500
v -0.035237 0.074978 0.094978
v -0.034500 0.068500 0.093500
v -0.035500 0.069500 0.093500
v -0.034500 0.069500 0.092500
v -0.034999 0.068634 0.093500
v -0.034500 0.068634 0.093001
v -0.034978 0.068763 0.093022
v -0.035366 0.069500 0.093001
v -0.035366 0.069001 0.093500
v -0.035237 0.069022 0.093022
v -0.034500 0.069001 0.092634
v -0.034999 0.069500 0.092634
v -0.034978 0.069022 0.092763
v -0.034500 0.075500 0.093500
v -0.034500 0.074500 0.092500
v -0.035500 0.074500 0.093500
v -0.034500 0.075366 0.093001
v -0.034999 0.075366 0.093500
v -0.034978 0.075237 0.093022
v -0.034999 0.074500 0.092634
v -0.034500 0.074999 0.092634
v -0.034978 0.074978 0.092763
v -0.035366 0.074999 0.093500
v -0.035366 0.074500 0.093001
v -0.035237 0.074978 0.093022
v 0.034500 0.068500 0.094500
v 0.035500 0.069500 0.094500
v 0.034500 0.069500 0.095500
v 0.034999 0.068634 0.094500
v 0.034500 0.068634 0.094999
v 0.034978 0.068763 0.094978
v 0.035366 0.069500 0.094999
v 0.035366 0.069001 0.094500
v 0.035237 0.069022 0.094978
v 0.034500 0.069001 0.095366
v 0.034999 0.069500 0.095366
v 0.034978 0.069022 0.095237
v 0.034500 0.075500 0.094500
v 0.034500 0.074500 0.095500
v 0.035500 0.074500 0.094500
v 0.034500 0.075366 0.094999
v 0.034999 0.075366 0.094500
v 0.034978 0.075237 0.094978
v 0.034999 0.074500 0.095366
v 0.034500 0.074999 0.095366
v 0.034978 0.074978 0.095237
v 0.035366 0.074999 0.094500
v 0.035366 0.074500 0.094999
v 0.035237 0.074978 0.094978
v 0.034500 0.068500 0.093500
v 0.034500 0.069500 0.092500
v 0.035500 0.069500 0.093500
v 0.034500 0.068634 0.093001
v 0.034999 0.068634 0.093500
v 0.034978 0.068763 0.093022
v 0.034999 0.069500 0.092634
v 0.034500 0.069001 0.092634
v 0.034978 0.069022 0.092763
v 0.035366 0.069001 0.093500
v 0.035366 0.069500 0.093001
v 0.035237 0.069022 0.093022
v 0.034500 0.075500 0.093500
v 0.035500 0.074500 0.093500
v 0.034500 0.074500 0.092500
v 0.034999 0.075366 0.093500
v 0.034500 0.075366 0.093001
v 0.034978 0.075237 0.093022
v 0.035366 0.074500 0.093001
v 0.035366 0.074999 0.093500
v 0.035237 0.074978 0.093022
v 0.034500 0.074999 0.092634
v 0.034999 0.074500 0.092634
v 0.034978 0.074978 0.092763
v -0.051500 -0.028000 0.086500
v -0.051500 -0.027000 0.087500
v -0.052500 -0.027000 0.086500
v -0.051500 -0.027866 0.086999
v -0.051999 -0.027866 0.086500
v -0.051978 -0.027737 0.086978
v -0.051999 -0.027000 0.087366
v -0.051500 -0.027499 0.087366
v -0.051978 -0.027478 0.087237
v -0.052366 -0.027499 0.086500
v -0.052366 -0.027000 0.086999
v -0.052237 -0.027478 0.086978
v -0.051500 -0.023000 0.087500
v -0.051500 -0.022000 0.086500
v -0.052500 -0.023000 0.086500
v -0.051500 -0.022501 0.087366
v -0.051999 -0.023000 0.087366
v -0.051978 -0.022522 0.087237
v -0.051999 -0.022134 0.086500
v -0.051500 -0.022134 0.086999
v -0.051978 -0.022263 0.086978
v -0.052366 -0.023000 0.086999
v -0.052366 -0.022501 0.086500
v -0.052237 -0.022522 0.086978
v -0.051500 -0.028000 0.083500
v -0.052500 -0.027000 0.083500
v -0.051500 -0.027000 0.082500
v -0.051999 -0.027866 0.083500
v -0.051500 -0.027866 0.083001
v -0.051978 -0.027737 0.083022
v -0.052366 -0.027000 0.083001
v -0.052366 -0.027499 0.083500
v -0.052237 -0.027478 0.083022
v -0.051500 -0.027499 0.082634
v -0.051999 -0.027000 0.082634
v -0.051978 -0.027478 0.082763
v -0.051500 -0.022000 0.083500
v -0.051500 -0.023000 0.082500
v -0.052500 -0.023000 0.083500
v -0.051500 -0.022134 0.083001
v -0.051999 -0.022134 0.083500
v -0.051978 -0.022263 0.083022
v -0.051999 -0.023000 0.082634
v -0.051500 -0.022501 0.082634
v -0.051978 -0.022522 0.082763
v -0.052366 -0.022501 0.083500
v -0.052366 -0.023000 0.083001
v -0.052237 -0.022522 0.083022
v 0.051500 -0.028000 0.086500
v 0.052500 -0.027000 0.086500
v 0.051500 -0.027000 0.087500
v 0.051999 -0.027866 0.086500
v 0.051500 -0.027866 0.086999
v 0.051978 -0.027737 0.086978
v 0.052366 -0.027000 0.086999
v 0.052366 -0.027499 0.086500
v 0.052237 -0.027478 0.086978
v 0.051500 -0.027499 0.087366
v 0.051999 -0.027000 0.087366
v 0.051978 -0.027478 0.087237
v 0.051500 -0.022000 0.086500
v 0.051500 -0.023000 0.087500
v 0.052500 -0.023000 0.086500
v 0.051500 -0.022134 0.086999
v 0.051999 -0.022134 0.086500
v 0.051978 -0.022263 0.086978
v 0.051999 -0.023000 0.087366
v 0.051500 -0.022501 0.087366
v 0.051978 -0.022522 0.087237
v 0.052366 -0.022501 0.086500
v 0.052366 -0.023000 0.086999
v 0.052237 -0.022522 0.086978
v 0.051500 -0.028000 0.083500
v 0.051500 -0.027000 0.082500
v 0.052500 -0.027000 0.083500
v 0.051500 -0.027866 0.083001
v 0.051999 -0.027866 0.083500
v 0.051978 -0.027737 0.083022
v 0.051999 -0.027000 0.082634
v 0.051500 -0.027499 0.082634
v 0.051978 -0.027478 0.082763
v 0.052366 -0.027499 0.083500
v 0.052366 -0.027000 0.083001
v 0.052237 -0.027478 0.083022
v 0.051500 -0.022000 0.083500
v 0.052500 -0.023000 0.083500
v 0.051500 -0.023000 0.082500
v 0.051999 -0.022134 0.083500
v 0.051500 -0.022134 0.083001
v 0.051978 -0.022263 0.083022
v 0.052366 -0.023000 0.083001
v 0.052366 -0.022501 0.083500
v 0.052237 -0.022522 0.083022
v 0.051500 -0.022501 0.082634
v 0.051999 -0.023000 0.082634
v 0.051978 -0.022522 0.082763
v -0.051500 -0.044000 0.086500
v -0.051500 -0.043000 0.087500
v -0.052500 -0.043000 0.086500
v -0.051500 -0.043866 0.086999
v -0.051999 -0.043866 0.086500
v -0.051978 -0.043737 0.086978
v -0.051999 -0.043000 0.087366
v -0.051500 -0.043499 0.087366
v -0.051978 -0.043478 0.087237
v -0.052366 -0.043499 0.086500
v -0.052366 -0.043000 0.086999
v -0.052237 -0.043478 0.086978
v -0.051500 -0.039000 0.087500
v -0.051500 -0.038000 0.086500
v -0.052500 -0.039000 0.086500
v -0.051500 -0.038501 0.087366
v -0.051999 -0.039000 0.087366
v -0.051978 -0.038522 0.087237
v -0.051999 -0.038134 0.086500
v -0.051500 -0.038134 0.086999
v -0.051978 -0.038263 0.086978
v -0.052366 -0.039000 0.086999
v -0.052366 -0.038501 0.086500
v -0.052237 -0.038522 0.086978
v -0.051500 -0.044000 0.083500
v -0.052500 -0.043000 0.083500
v -0.051500 -0.043000 0.082500
v -0.051999 -0.043866 0.083500
v -0.051500 -0.043866 0.083001
v -0.051978 -0.043737 0.083022
v -0.052366 -0.043000 0.083001
v -0.052366 -0.043499 0.083500
v -0.052237 -0.043478 0.083022
v -0.051500 -0.043499 0.082634
v -0.051999 -0.043000 0.082634
v -0.051978 -0.043478 0.082763
v -0.051500 -0.038000 0.083500
v -0.051500 -0.039000 0.082500
v -0.052500 -0.039000 0.083500
v -0.051500 -0.038134 0.083001
v -0.051999 -0.038134 0.083500
v -0.051978 -0.038263 0.083022
v -0.051999 -0.039000 0.082634
v -0.051500 -0.038501 0.082634
v -0.051978 -0.038522 0.082763
v -0.052366 -0.038501 0.083500
v -0.052366 -0.039000 0.083001
v -0.052237 -0.038522 0.083022
v 0.051500 -0.044000 0.086500
v 0.052500 -0.043000 0.086500
v 0.051500 -0.043000 0.087500
v 0.051999 -0.043866 0.086500
v 0.051500 -0.043866 0.086999
v 0.051978 -0.043737 0.086978
v 0.052366 -0.043000 0.086999
v 0.052366 -0.043499 0.086500
v 0.052237 -0.043478 0.086978
v 0.051500 -0.043499 0.087366
v 0.051999 -0.043000 0.087366
v 0.051978 -0.043478 0.087237
v 0.051500 -0.038000 0.086500
v 0.051500 -0.039000 0.087500
v 0.052500 -0.039000 0.086500
v 0.051500 -0.038134 0.086999
v 0.051999 -0.038134 0.086500
v 0.051978 -0.038263 0.086978
v 0.051999 -0.039000 0.087366
v 0.051500 -0.038501 0.087366
v 0.051978 -0.038522 0.087237
v 0.052366 -0.038501 0.086500
v 0.052366 -0.039000 0.086999
v 0.052237 -0.038522 0.086978
v 0.051500 -0.044000 0.083500
v 0.051500 -0.043000 0.082500
v 0.052500 -0.043000 0.083500
v 0.051500 -0.043866 0.083001
v 0.051999 -0.043866 0.083500
v 0.051978 -0.043737 0.083022
v 0.051999 -0.043000 0.082634
v 0.051500 -0.043499 0.082634
v 0.051978 -0.043478 0.082763
v 0.052366 -0.043499 0.083500
v 0.052366 -0.043000 0.083001
v 0.052237 -0.043478 0.083022
v 0.051500 -0.038000 0.083500
v 0.052500 -0.039000 0.083500
v 0.051500 -0.039000 0.082500
v 0.051999 -0.038134 0.083500
v 0.051500 -0.038134 0.083001
v 0.051978 -0.038263 0.083022
v 0.052366 -0.039000 0.083001
v 0.052366 -0.038501 0.083500
v 0.052237 -0.038522 0.083022
v 0.051500 -0.038501 0.082634
v 0.051999 -0.039000 0.082634
v 0.051978 -0.038522 0.082763
v -0.051500 -0.060000 0.086500
v -0.051500 -0.059000 0.087500
v -0.052500 -0.059000 0.086500
v -0.051500 -0.059866 0.086999
v -0.051999 -0.059866 0.086500
v -0.051978 -0.059737 0.086978
v -0.051999 -0.059000 0.087366
v -0.051500 -0.059499 0.087366
v -0.051978 -0.059478 0.087237
v -0.052366 -0.059499 0.086500
v -0.052366 -0.059000 0.086999
v -0.052237 -0.059478 0.086978
v -0.051500 -0.055000 0.087500
v -0.051500 -0.054000 0.086500
v -0.052500 -0.055000 0.086500
v -0.051500 -0.054501 0.087366
v -0.051999 -0.055000 0.087366
v -0.051978 -0.054522 0.087237
v -0.051999 -0.054134 0.086500
v -0.051500 -0.054134 0.086999
v -0.051978 -0.054263 0.086978
v -0.052366 -0.055000 0.086999
v -0.052366 -0.054501 0.086500
v -0.052237 -0.054522 0.086978
v -0.051500 -0.060000 0.083500
v -0.052500 -0.059000 0.083500
v -0.051500 -0.059000 0.082500
v -0.051999 -0.059866 0.083500
v -0.051500 -0.059866 0.083001
v -0.051978 -0.059737 0.083022
v -0.052366 -0.059000 0.083001
v -0.052366 -0.059499 0.083500
v -0.052237 -0.059478 0.083022
v -0.051500 -0.059499 0.082634
v -0.051999 -0.059000 0.082634
v -0.051978 -0.059478 0.082763
v -0.051500 -0.054000 0.083500
v -0.051500 -0.055000 0.082500
v -0.052500 -0.055000 0.083500
v -0.051500 -0.054134 0.083001
v -0.051999 -0.054134 0.083500
v -0.051978 -0.054263 0.083022
v -0.051999 -0.055000 0.082634
v -0.051500 -0.054501 0.082634
v -0.051978 -0.054522 0.082763
v -0.052366 -0.054501 0.083500
v -0.052366 -0.055000 0.083001
v -0.052237 -0.054522 0.083022
v 0.051500 -0.060000 0.086500
v 0.052500 -0.059000 0.086500
v 0.051500 -0.059000 0.087500
v 0.051999 -0.059866 0.086500
v 0.051500 -0.059866 0.086999
v 0.051978 -0.059737 0.086978
v 0.052366 -0.059000 0.086999
v 0.052366 -0.059499 0.086500
v 0.052237 -0.059478 0.086978
v 0.051500 -0.059499 0.087366
v 0.051999 -0.059000 0.087366
v 0.051978 -0.059478 0.087237
v 0.051500 -0.054000 0.086500
v 0.051500 -0.055000 0.087500
v 0.052500 -0.055000 0.086500
v 0.051500 -0.054134 0.086999
v 0.051999 -0.054134 0.086500
v 0.051978 -0.054263 0.086978
v 0.051999 -0.055000 0.087366
v 0.051500 -0.054501 0.087366
v 0.051978 -0.054522 0.087237
v 0.052366 -0.054501 0.086500
v 0.052366 -0.055000 0.086999
v 0.052237 -0.054522 0.086978
v 0.051500 -0.060000 0.083500
v 0.051500 -0.059000 0.082500
v 0.052500 -0.059000 0.083500
v 0.051500 -0.059866 0.083001
v 0.051999 -0.059866 0.083500
v 0.051978 -0.059737 0.083022
v 0.051999 -0.059000 0.082634
v 0.051500 -0.059499 0.082634
v 0.051978 -0.059478 0.082763
v 0.052366 -0.059499 0.083500
v 0.052366 -0.059000 0.083001
v 0.052237 -0.059478 0.083022
v 0.051500 -0.054000 0.083500
v 0.052500 -0.055000 0.083500
v 0.051500 -0.055000 0.082500
v 0.051999 -0.054134 0.083500
v 0.051500 -0.054134 0.083001
v 0.051978 -0.054263 0.083022
v 0.052366 -0.055000 0.083001
v 0.052366 -0.054501 0.083500
v 0.052237 -0.054522 0.083022
v 0.051500 -0.054501 0.082634
v 0.051999 -0.055000 0.082634
v 0.051978 -0.054522 0.082763
v -0.112000 0.094076 0.083500
v -0.112693 0.094600 0.084300
v -0.111307 0.094600 0.084300
v -0.112490 0.094421 0.083734
v -0.112000 0.094636 0.083838
v -0.112000 0.094791 0.084300
v -0.111510 0.094421 0.083734
v -0.112000 0.094076 0.086500
v -0.111307 0.094600 0.085700
v -0.112693 0.094600 0.085700
v -0.111510 0.094421 0.086266
v -0.112000 0.094636 0.086162
v -0.112000 0.094791 0.085700
v -0.112490 0.094421 0.086266
v -0.110202 0.093038 0.083500
v -0.110095 0.093900 0.084300
v -0.109402 0.092700 0.084300
v -0.110148 0.093635 0.083734
v -0.109717 0.093318 0.083838
v -0.109583 0.093396 0.084300
v -0.109658 0.092786 0.083734
v -0.110202 0.093038 0.086500
v -0.109402 0.092700 0.085700
v -0.110095 0.093900 0.085700
v -0.109658 0.092786 0.086266
v -0.109717 0.093318 0.086162
v -0.109583 0.093396 0.085700
v -0.110148 0.093635 0.086266
v -0.110202 0.090962 0.083500
v -0.109402 0.091300 0.084300
v -0.110095 0.090100 0.084300
v -0.109658 0.091214 0.083734
v -0.109717 0.090682 0.083838
v -0.109583 0.090604 0.084300
v -0.110148 0.090365 0.083734
v -0.110202 0.090962 0.086500
v -0.110095 0.090100 0.085700
v -0.109402 0.091300 0.085700
v -0.110148 0.090365 0.086266
v -0.109717 0.090682 0.086162
v -0.109583 0.090604 0.085700
v -0.109658 0.091214 0.086266
v -0.112000 0.089924 0.083500
v -0.111307 0.089400 0.084300
v -0.112693 0.089400 0.084300
v -0.111510 0.089579 0.083734
v -0.112000 0.089364 0.083838
v -0.112000 0.089209 0.084300
v -0.112490 0.089579 0.083734
v -0.112000 0.089924 0.086500
v -0.112693 0.089400 0.085700
v -0.111307 0.089400 0.085700
v -0.112490 0.089579 0.086266
v -0.112000 0.089364 0.086162
v -0.112000 0.089209 0.085700
v -0.111510 0.089579 0.086266
v -0.113798 0.090962 0.083500
v -0.113905 0.090100 0.084300
v -0.114598 0.091300 0.084300
v -0.113852 0.090365 0.083734
v -0.114283 0.090682 0.083838
v -0.114417 0.090604 0.084300
v -0.114342 0.091214 0.083734
v -0.113798 0.090962 0.086500
v -0.114598 0.091300 0.085700
v -0.113905 0.090100 0.085700
v -0.114342 0.091214 0.086266
v -0.114283 0.090682 0.086162
v -0.114417 0.090604 0.085700
v -0.113852 0.090365 0.086266
v -0.113798 0.093038 0.083500
v -0.114598 0.092700 0.084300
v -0.113905 0.093900 0.084300
v -0.114342 0.092786 0.083734
v -0.114283 0.093318 0.083838
v -0.114417 0.093396 0.084300
v -0.113852 0.093635 0.083734
v -0.113798 0.093038 0.086500
v -0.113905 0.093900 0.085700
v -0.114598 0.092700 0.085700
v -0.113852 0.093635 0.086266
v -0.114283 0.093318 0.086162
v -0.114417 0.093396 0.085700
v -0.114342 0.092786 0.086266
v 0.112000 0.094076 0.083500
v 0.111307 0.094600 0.084300
v 0.112693 0.094600 0.084300
v 0.111510 0.094421 0.083734
v 0.112000 0.094636 0.083838
v 0.112000 0.094791 0.084300
v 0.112490 0.094421 0.083734
v 0.112000 0.094076 0.086500
v 0.112693 0.094600 0.085700
v 0.111307 0.094600 0.085700
v 0.112490 0.094421 0.086266
v 0.112000 0.094636 0.086162
v 0.112000 0.094791 0.085700
v 0.111510 0.094421 0.086266
v 0.113798 0.093038 0.083500
v 0.113905 0.093900 0.084300
v 0.114598 0.092700 0.084300
v 0.113852 0.093635 0.083734
v 0.114283 0.093318 0.083838
v 0.114417 0.093396 0.084300
v 0.114342 0.092786 0.083734
v 0.113798 0.093038 0.086500
v 0.114598 0.092700 0.085700
v 0.113905 0.093900 0.085700
v 0.114342 0.092786 0.086266
v 0.114283 0.093318 0.086162
v 0.114417 0.093396 0.085700
v 0.113852 0.093635 0.086266
v 0.113798 0.090962 0.083500
v 0.114598 0.091300 0.084300
v 0.113905 0.090100 0.084300
v 0.114342 0.091214 0.083734
v 0.114283 0.090682 0.083838
v 0.114417 0.090604 0.084300
v 0.113852 0.090365 0.083734
v 0.113798 0.090962 0.086500
v 0.113905 0.090100 0.085700
v 0.114598 0.091300 0.085700
v 0.113852 0.090365 0.086266
v 0.114283 0.090682 0.086162
v 0.114417 0.090604 0.085700
v 0.114342 0.091214 0.086266
v 0.112000 0.089924 0.083500
v 0.112693 0.089400 0.084300
v 0.111307 0.089400 0.084300
v 0.112490 0.089579 0.083734
v 0.112000 0.089364 0.083838
v 0.112000 0.089209 0.084300
v 0.111510 0.089579 0.083734
v 0.112000 0.089924 0.086500
v 0.111307 0.089400 0.085700
v 0.112693 0.089400 0.085700
v 0.111510 0.089579 0.086266
v 0.112000 0.089364 0.086162
v 0.112000 0.089209 0.085700
v 0.112490 0.089579 0.086266
v 0.110202 0.090962 0.083500
v 0.110095 0.090100 0.084300
v 0.109402 0.091300 0.084300
v 0.110148 0.090365 0.083734
v 0.109717 0.090682 0.083838
v 0.109583 0.090604 0.084300
v 0.109658 0.091214 0.083734
v 0.110202 0.090962 0.086500
v 0.109402 0.091300 0.085700
v 0.110095 0.090100 0.085700
v 0.109658 0.091214 0.086266
v 0.109717 0.090682 0.086162
v 0.109583 0.090604 0.085700
v 0.110148 0.090365 0.086266
v 0.110202 0.093038 0.083500
v 0.109402 0.092700 0.084300
v 0.110095 0.093900 0.084300
v 0.109658 0.092786 0.083734
v 0.109717 0.093318 0.083838
v 0.109583 0.093396 0.084300
v 0.110148 0.093635 0.083734
v 0.110202 0.093038 0.086500
v 0.110095 0.093900 0.085700
v 0.109402 0.092700 0.085700
v 0.110148 0.093635 0.086266
v 0.109717 0.093318 0.086162
v 0.109583 0.093396 0.085700
v 0.109658 0.092786 0.086266
vn -0.8658 -0.4255 -0.2632
vn -0.6506 -0.3520 -0.6729
vn -0.2379 -0.3133 -0.9194
vn -0.1980 -0.7128 -0.6729
vn -0.2342 -0.9397 -0.2491
vn -0.6089 -0.7642 -0.2128
vn -0.5211 -0.6540 -0.5484
vn 0.8636 -0.4383 -0.2491
vn 0.6089 -0.7642 -0.2128
vn 0.2214 -0.9390 -0.2631
vn 0.1977 -0.7128 -0.6730
vn 0.2522 -0.3019 -0.9194
vn 0.6506 -0.3522 -0.6728
vn 0.5211 -0.6540 -0.5484
vn 0.2603 0.9250 -0.2769
vn 0.7545 0.6010 -0.2635
vn 0.9563 0.0316 -0.2908
vn 0.6940 0.0574 -0.7177
vn 0.2450 0.2102 -0.9465
vn 0.2111 0.6635 -0.7178
vn 0.6039 0.4810 -0.6355
vn -0.9598 0.0473 -0.2768
vn -0.7545 0.6010 -0.2638
vn -0.2445 0.9251 -0.2906
vn -0.2108 0.6636 -0.7178
vn -0.2596 0.1918 -0.9465
vn -0.6940 0.0574 -0.7177
vn -0.6039 0.4810 -0.6355
vn -0.8636 -0.4383 0.2491
vn -0.6089 -0.7642 0.2128
vn -0.2214 -0.9390 0.2631
vn -0.1977 -0.7128 0.6730
vn -0.2523 -0.3019 0.9194
vn -0.6506 -0.3522 0.6728
vn -0.5211 -0.6540 0.5484
vn 0.2342 -0.9397 0.2491
vn 0.6089 -0.7642 0.2128
vn 0.8658 -0.4255 0.2632
vn 0.6506 -0.3520 0.6729
vn 0.2379 -0.3133 0.9194
vn 0.1980 -0.7128 0.6729
vn 0.5211 -0.6540 0.5484
vn 0.9598 0.0473 0.2768
vn 0.7545 0.6010 0.2638
vn 0.2445 0.9251 0.2906
vn 0.2108 0.6636 0.7178
vn 0.2596 0.1918 0.9465
vn 0.6940 0.0574 0.7177
vn 0.6039 0.4810 0.6355
vn -0.9563 0.0316 0.2908
vn -0.6940 0.0574 0.7177
vn -0.2450 0.2102 0.9465
vn -0.2111 0.6635 0.7178
vn -0.2603 0.9250 0.2769
vn -0.7545 0.6010 0.2635
vn -0.6039 0.4810 0.6355
vn -0.9394 -0.2153 -0.2668
vn -0.6893 -0.1580 -0.7071
vn -0.2542 -0.0582 -0.9654
vn -0.0000 0.2607 -0.9654
vn -0.0000 0.7071 -0.7071
vn -0.0000 0.9637 -0.2668
vn 0.2542 -0.0582 -0.9654
vn 0.6893 -0.1580 -0.7071
vn 0.9394 -0.2153 -0.2668
vn -0.0000 -0.2607 -0.9654
vn -0.0000 -0.7071 -0.7071
vn -0.0000 -0.9637 -0.2668
vn -0.2542 -0.0582 0.9654
vn -0.6893 -0.1580 0.7071
vn -0.9394 -0.2153 0.2668
vn -0.0000 -0.9637 0.2668
vn -0.0000 -0.7071 0.7071
vn -0.0000 -0.2607 0.9654
vn 0.9394 -0.2153 0.2668
vn 0.6893 -0.1580 0.7071
vn 0.2542 -0.0582 0.9654
vn -0.0000 0.9637 0.2668
vn -0.0000 0.7071 0.7071
vn -0.0000 0.2607 0.9654
vn -0.2295 -0.9733 -0.0000
vn -0.6232 -0.7821 -0.0000
vn -0.8975 -0.4411 -0.0000
vn 0.8975 -0.4411 -0.0000
vn 0.6232 -0.7821 -0.0000
vn 0.2295 -0.9733 -0.0000
vn 0.2556 0.9668 -0.0000
vn 0.7820 0.6233 -0.0000
vn 0.9995 0.0331 -0.0000
vn -0.9995 0.0331 -0.0000
vn -0.7820 0.6233 -0.0000
vn -0.2556 0.9668 -0.0000
vn -0.9747 -0.2234 -0.0000
vn -0.0000 -0.0000 -1.0000
vn -0.0000 -1.0000 -0.0000
vn 0.9747 -0.2234 -0.0000
vn -0.0000 1.0000 -0.0000
vn -0.0000 -0.0000 1.0000
vn -0.8223 -0.4997 -0.2723
vn -0.6206 -0.4092 -0.6689
vn -0.2269 -0.3353 -0.9144
vn -0.1793 -0.7214 -0.6689
vn -0.2098 -0.9429 -0.2586
vn -0.5630 -0.7959 -0.2226
vn -0.4847 -0.6853 -0.5434
vn 0.8194 -0.5116 -0.2586
vn 0.5630 -0.7960 -0.2223
vn 0.1973 -0.9417 -0.2725
vn 0.1793 -0.7214 -0.6689
vn 0.2407 -0.3255 -0.9144
vn 0.6206 -0.4091 -0.6689
vn 0.4847 -0.6853 -0.5434
vn 0.2433 0.9223 -0.3001
vn 0.7770 0.5496 -0.3070
vn 0.9451 -0.0929 -0.3132
vn 0.6800 -0.0315 -0.7325
vn 0.2368 0.1827 -0.9542
vn 0.1964 0.6516 -0.7327
vn 0.6024 0.4260 -0.6750
vn -0.9508 -0.0772 -0.3000
vn -0.7770 0.5496 -0.3070
vn -0.2268 0.9222 -0.3132
vn -0.1964 0.6516 -0.7327
vn -0.2511 0.1624 -0.9542
vn -0.6800 -0.0320 -0.7325
vn -0.6024 0.4260 -0.6750
vn -0.8194 -0.5116 0.2586
vn -0.5630 -0.7960 0.2223
vn -0.1973 -0.9417 0.2725
vn -0.1793 -0.7214 0.6689
vn -0.2407 -0.3255 0.9144
vn -0.6206 -0.4091 0.6689
vn -0.4847 -0.6853 0.5434
vn 0.2098 -0.9429 0.2586
vn 0.5630 -0.7959 0.2226
vn 0.8223 -0.4997 0.2723
vn 0.6206 -0.4092 0.6689
vn 0.2269 -0.3353 0.9144
vn 0.1793 -0.7214 0.6689
vn 0.4847 -0.6853 0.5434
vn 0.9508 -0.0772 0.3000
vn 0.7770 0.5495 0.3070
vn 0.2268 0.9222 0.3132
vn 0.1964 0.6516 0.7327
vn 0.2511 0.1624 0.9542
vn 0.6800 -0.0320 0.7325
vn 0.6024 0.4260 0.6750
vn -0.9451 -0.0929 0.3132
vn -0.6800 -0.0317 0.7325
vn -0.2368 0.1827 0.9542
vn -0.1964 0.6516 0.7327
vn -0.2433 0.9223 0.3001
vn -0.7770 0.5495 0.3070
vn -0.6024 0.4260 0.6750
vn -0.9061 -0.3198 -0.2771
vn -0.6667 -0.2353 -0.7072
vn -0.2487 -0.0878 -0.9646
vn -0.0000 0.2637 -0.9646
vn -0.0000 0.9608 -0.2771
vn 0.2487 -0.0878 -0.9646
vn 0.6667 -0.2353 -0.7072
vn 0.9061 -0.3198 -0.2771
vn -0.0000 -0.2637 -0.9646
vn -0.0000 -0.9608 -0.2771
vn -0.2487 -0.0878 0.9646
vn -0.6667 -0.2353 0.7072
vn -0.9061 -0.3198 0.2771
vn -0.0000 -0.9608 0.2771
vn -0.0000 -0.2637 0.9646
vn 0.9061 -0.3198 0.2771
vn 0.6667 -0.2353 0.7072
vn 0.2487 -0.0878 0.9646
vn -0.0000 0.9608 0.2771
vn -0.0000 0.2637 0.9646
vn 0.9598 0.0473 -0.2768
vn 0.7543 0.6012 -0.2637
vn 0.2445 0.9251 -0.2906
vn 0.6508 -0.3520 -0.6727
vn 0.2379 -0.3133 -0.9194
vn 0.1979 -0.7129 -0.6727
vn 0.2342 -0.9397 -0.2491
vn 0.8658 -0.4255 -0.2632
vn -0.2214 -0.9390 -0.2631
vn -0.1977 -0.7130 -0.6728
vn -0.2522 -0.3019 -0.9194
vn -0.6507 -0.3522 -0.6727
vn -0.8636 -0.4383 -0.2491
vn -0.2503 -0.9319 0.2625
vn -0.2166 -0.6903 0.6903
vn -0.2625 -0.2503 0.9319
vn -0.6903 -0.2167 0.6903
vn -0.9319 -0.2625 0.2503
vn -0.6903 -0.6903 0.2166
vn -0.5774 -0.5773 0.5774
vn -0.2502 0.2625 0.9319
vn -0.2166 0.6903 0.6903
vn -0.2625 0.9319 0.2503
vn -0.6903 0.6903 0.2166
vn -0.9319 0.2503 0.2625
vn -0.6903 0.2166 0.6903
vn -0.5773 0.5773 0.5774
vn -0.2625 -0.9319 -0.2503
vn -0.6903 -0.6903 -0.2166
vn -0.9319 -0.2502 -0.2625
vn -0.6903 -0.2166 -0.6903
vn -0.2503 -0.2625 -0.9319
vn -0.2166 -0.6903 -0.6903
vn -0.5773 -0.5773 -0.5774
vn -0.2502 0.9319 -0.2625
vn -0.2166 0.6903 -0.6903
vn -0.2625 0.2502 -0.9319
vn -0.6903 0.2166 -0.6903
vn -0.9319 0.2625 -0.2503
vn -0.6903 0.6903 -0.2166
vn -0.5773 0.5773 -0.5774
vn 0.2625 -0.9319 0.2503
vn 0.6903 -0.6903 0.2166
vn 0.9319 -0.2502 0.2625
vn 0.6903 -0.2166 0.6903
vn 0.2503 -0.2625 0.9319
vn 0.2166 -0.6903 0.6903
vn 0.5774 -0.5773 0.5774
vn 0.2502 0.9319 0.2625
vn 0.2166 0.6903 0.6903
vn 0.2625 0.2503 0.9319
vn 0.6903 0.2167 0.6903
vn 0.9319 0.2625 0.2503
vn 0.6903 0.6903 0.2166
vn 0.5773 0.5773 0.5774
vn 0.2503 -0.9319 -0.2625
vn 0.2166 -0.6903 -0.6903
vn 0.2625 -0.2502 -0.9319
vn 0.6903 -0.2166 -0.6903
vn 0.9319 -0.2625 -0.2503
vn 0.6903 -0.6903 -0.2166
vn 0.5773 -0.5773 -0.5774
vn 0.2625 0.9319 -0.2502
vn 0.6903 0.6903 -0.2166
vn 0.9319 0.2503 -0.2625
vn 0.6903 0.2166 -0.6903
vn 0.2502 0.2625 -0.9319
vn 0.2166 0.6903 -0.6903
vn 0.5773 0.5773 -0.5774
vn -0.2593 -0.9658 -0.0000
vn -0.7071 -0.7071 -0.0000
vn -0.9658 -0.2594 -0.0000
vn -0.2593 -0.0000 0.9658
vn -0.7071 -0.0000 0.7071
vn -0.9658 -0.0000 0.2593
vn -0.2593 0.9658 -0.0000
vn -0.7071 0.7071 -0.0000
vn -0.9658 0.2594 -0.0000
vn -0.2593 -0.0000 -0.9658
vn -0.7071 -0.0000 -0.7071
vn -0.9658 -0.0000 -0.2593
vn -0.0000 -0.9658 -0.2594
vn -0.0000 -0.2593 -0.9658
vn -0.0000 0.9658 -0.2593
vn -0.0000 0.2593 -0.9658
vn 0.9658 -0.0000 -0.2594
vn 0.7071 -0.0000 -0.7071
vn 0.2593 -0.0000 -0.9658
vn 0.2593 -0.9658 -0.0000
vn 0.7071 -0.7071 -0.0000
vn 0.9658 -0.2594 -0.0000
vn 0.2593 0.9658 -0.0000
vn 0.7071 0.7071 -0.0000
vn 0.9658 0.2594 -0.0000
vn 0.2593 -0.0000 0.9658
vn 0.7071 -0.0000 0.7071
vn 0.9658 -0.0000 0.2593
vn -0.0000 -0.9658 0.2594
vn -0.0000 -0.2594 0.9658
vn -0.0000 0.9658 0.2593
vn -0.0000 0.2594 0.9658
vn -1.0000 -0.0000 -0.0000
vn 1.0000 -0.0000 -0.0000
vn -0.6903 -0.2166 0.6903
vn -0.9319 -0.2625 0.2502
vn -0.5774 -0.5774 0.5774
vn -0.2503 0.2625 0.9319
vn -0.5774 0.5774 0.5773
vn -0.5774 -0.5774 -0.5774
vn -0.2503 0.9319 -0.2625
vn -0.2625 0.2503 -0.9319
vn -0.5774 0.5774 -0.5773
vn 0.9319 -0.2503 0.2625
vn 0.5774 -0.5774 0.5774
vn 0.2503 0.9319 0.2625
vn 0.6903 0.2166 0.6903
vn 0.9319 0.2625 0.2502
vn 0.5774 0.5774 0.5773
vn 0.5774 -0.5774 -0.5774
vn 0.2625 0.9319 -0.2503
vn 0.9319 0.2502 -0.2625
vn 0.2503 0.2625 -0.9319
vn 0.5774 0.5774 -0.5773
vn -0.9658 -0.2593 -0.0000
vn -0.9658 0.2593 -0.0000
vn -0.9658 -0.0000 -0.2594
vn -0.0000 -0.2594 -0.9658
vn -0.0000 0.9658 -0.2594
vn -0.0000 0.2594 -0.9658
vn 0.9658 -0.0000 -0.2593
vn 0.2594 -0.0000 -0.9658
vn 0.9658 -0.2593 -0.0000
vn 0.9658 0.2593 -0.0000
vn -0.0000 -0.9658 0.2593
vn -0.5774 -0.5774 0.5773
vn -0.2502 -0.2625 -0.9319
vn -0.5774 -0.5774 -0.5773
vn -0.9319 0.2625 -0.2502
vn 0.5774 -0.5774 0.5773
vn 0.2502 -0.9319 -0.2625
vn 0.5774 -0.5774 -0.5773
vn -0.2594 0.9658 -0.0000
vn 0.2594 0.9658 -0.0000
vn -0.9319 -0.2503 -0.2625
vn 0.2625 -0.2503 -0.9319
vn 0.0450 0.5162 -0.8553
vn -0.3014 0.8727 -0.3841
vn 0.2528 0.9173 -0.3077
vn -0.0450 0.5162 0.8553
vn 0.3014 0.8727 0.3841
vn -0.2528 0.9173 0.3078
vn 0.4695 0.2192 -0.8553
vn 0.6055 0.6975 -0.3832
vn 0.9209 0.2395 -0.3076
vn 0.4247 0.2968 0.8553
vn 0.9067 0.1755 0.3835
vn 0.6674 0.6780 0.3081
vn 0.4247 -0.2968 -0.8553
vn 0.9067 -0.1755 -0.3834
vn 0.6674 -0.6780 -0.3081
vn 0.4695 -0.2193 0.8553
vn 0.6055 -0.6975 0.3833
vn 0.9209 -0.2395 0.3076
vn -0.0450 -0.5162 -0.8553
vn 0.3014 -0.8727 -0.3841
vn -0.2528 -0.9173 -0.3078
vn 0.0450 -0.5162 0.8553
vn -0.3014 -0.8727 0.3841
vn 0.2528 -0.9173 0.3077
vn -0.4695 -0.2192 -0.8553
vn -0.6055 -0.6975 -0.3833
vn -0.9209 -0.2395 -0.3075
vn -0.4247 -0.2968 0.8553
vn -0.9067 -0.1755 0.3834
vn -0.6674 -0.6780 0.3080
vn -0.4247 0.2968 -0.8553
vn -0.9067 0.1755 -0.3835
vn -0.6674 0.6780 -0.3080
vn -0.4695 0.2193 0.8553
vn -0.6055 0.6975 0.3833
vn -0.9209 0.2395 0.3075
vn 0.4553 0.7889 -0.4128
vn 0.1976 0.3423 -0.9186
vn 0.4554 0.7891 0.4121
vn 0.1975 0.3422 0.9186
vn -0.2657 0.9641 -0.0000
vn 0.2657 0.9641 -0.0000
vn 0.9678 0.2517 -0.0000
vn 0.7015 0.7127 -0.0000
vn 0.9111 -0.0000 -0.4121
vn 0.3951 -0.0000 -0.9186
vn 0.9111 -0.0000 0.4121
vn 0.3951 -0.0000 0.9186
vn 0.7015 -0.7126 -0.0000
vn 0.9678 -0.2517 -0.0000
vn 0.4554 -0.7891 -0.4121
vn 0.1976 -0.3422 -0.9186
vn 0.4553 -0.7889 0.4128
vn 0.1976 -0.3423 0.9186
vn -0.2657 -0.9641 -0.0000
vn 0.2657 -0.9641 -0.0000
vn -0.4553 -0.7889 -0.4128
vn -0.1976 -0.3423 -0.9186
vn -0.4554 -0.7891 0.4121
vn -0.1975 -0.3422 0.9186
vn -0.9678 -0.2517 -0.0000
vn -0.7015 -0.7127 -0.0000
vn -0.9111 -0.0000 -0.4121
vn -0.3951 -0.0000 -0.9186
vn -0.9111 -0.0000 0.4121
vn -0.3951 -0.0000 0.9186
vn -0.7015 0.7127 -0.0000
vn -0.9678 0.2517 -0.0000
vn -0.4554 0.7891 -0.4121
vn -0.1976 0.3422 -0.9186
vn -0.4553 0.7889 0.4128
vn -0.1976 0.3423 0.9186
vn 0.5001 0.8659 -0.0000
vn -0.5001 0.8660 -0.0000
vn 0.5001 -0.8660 -0.0000
vn -0.5001 -0.8659 -0.0000
vn 0.2528 0.9173 -0.3078
vn -0.2528 0.9173 0.3077
vn 0.6055 0.6975 -0.3833
vn 0.9209 0.2395 -0.3075
vn 0.6674 0.6780 0.3080
vn 0.6674 -0.6780 -0.3080
vn 0.9209 -0.2395 0.3075
vn -0.2528 -0.9173 -0.3077
vn 0.2528 -0.9173 0.3078
vn -0.6055 -0.6975 -0.3832
vn -0.9209 -0.2395 -0.3076
vn -0.6674 0.6780 -0.3081
vn -0.6055 0.6975 0.3832
vn -0.9209 0.2395 0.3076
vn 0.2596 0.1918 -0.9465
vn 0.2109 0.6638 -0.7176
vn -0.9563 0.0316 -0.2908
vn -0.7544 0.6012 -0.2636
vn -0.2603 0.9250 -0.2769
vn -0.2111 0.6637 -0.7176
vn -0.2450 0.2102 -0.9465
vn -0.8658 -0.4255 0.2632
vn -0.2342 -0.9397 0.2491
vn -0.1979 -0.7129 0.6727
vn -0.2379 -0.3133 0.9194
vn -0.6508 -0.3520 0.6727
vn 0.2214 -0.9390 0.2631
vn 0.8636 -0.4383 0.2491
vn 0.6507 -0.3522 0.6727
vn 0.2523 -0.3019 0.9194
vn 0.1977 -0.7130 0.6728
vn 0.9563 0.0316 0.2908
vn 0.7544 0.6012 0.2636
vn 0.2603 0.9250 0.2769
vn 0.2111 0.6637 0.7176
vn 0.2450 0.2102 0.9465
vn -0.9598 0.0473 0.2768
vn -0.2596 0.1918 0.9465
vn -0.2109 0.6638 0.7176
vn -0.2445 0.9251 0.2906
vn -0.7543 0.6012 0.2637
vn -0.9394 -0.2153 -0.2667
vn -0.6891 -0.1579 -0.7072
vn 0.6891 -0.1579 -0.7072
vn 0.9394 -0.2153 -0.2667
vn -0.6891 -0.1579 0.7072
vn -0.9394 -0.2153 0.2667
vn 0.9394 -0.2153 0.2667
vn 0.6891 -0.1579 0.7072
vn -0.8194 -0.5116 -0.2586
vn -0.6205 -0.4091 -0.6690
vn -0.2407 -0.3255 -0.9144
vn -0.1973 -0.9417 -0.2725
vn -0.5632 -0.7958 -0.2224
vn 0.8223 -0.4997 -0.2723
vn 0.5632 -0.7958 -0.2226
vn 0.2098 -0.9429 -0.2586
vn 0.2269 -0.3353 -0.9144
vn 0.6205 -0.4092 -0.6690
vn 0.2268 0.9222 -0.3132
vn 0.9508 -0.0772 -0.3000
vn 0.6797 -0.0318 -0.7328
vn 0.2511 0.1624 -0.9542
vn -0.9451 -0.0929 -0.3132
vn -0.2433 0.9223 -0.3001
vn -0.2368 0.1827 -0.9542
vn -0.6797 -0.0314 -0.7328
vn -0.8223 -0.4997 0.2723
vn -0.5632 -0.7958 0.2226
vn -0.2098 -0.9429 0.2586
vn -0.2269 -0.3353 0.9144
vn -0.6205 -0.4092 0.6690
vn 0.1973 -0.9417 0.2725
vn 0.5632 -0.7958 0.2224
vn 0.8194 -0.5116 0.2586
vn 0.6205 -0.4091 0.6690
vn 0.2407 -0.3255 0.9144
vn 0.9451 -0.0929 0.3132
vn 0.7770 0.5496 0.3070
vn 0.2433 0.9223 0.3001
vn 0.2368 0.1827 0.9542
vn 0.6797 -0.0314 0.7328
vn -0.9507 -0.0776 0.3002
vn -0.6798 -0.0319 0.7327
vn -0.2511 0.1624 0.9542
vn -0.2268 0.9222 0.3132
vn -0.7770 0.5496 0.3070
vn -0.9061 -0.3198 -0.2770
vn 0.9061 -0.3198 -0.2770
vn -0.6669 -0.2354 0.7070
vn -0.9060 -0.3198 0.2773
vn 0.9061 -0.3198 0.2770
vn -0.2625 -0.9319 0.2503
vn -0.2503 -0.2625 0.9319
vn -0.9319 -0.2502 0.2625
vn -0.2625 0.2503 0.9319
vn -0.2502 0.9319 0.2625
vn -0.9319 0.2625 0.2503
vn -0.2503 -0.9319 -0.2625
vn -0.9319 -0.2625 -0.2503
vn -0.2625 -0.2502 -0.9319
vn -0.2625 0.9319 -0.2502
vn -0.2502 0.2625 -0.9319
vn -0.9319 0.2503 -0.2625
vn 0.2503 -0.9319 0.2625
vn 0.9319 -0.2625 0.2503
vn 0.2625 -0.2503 0.9319
vn 0.2167 -0.6903 0.6903
vn 0.2625 0.9319 0.2503
vn 0.2502 0.2625 0.9319
vn 0.9319 0.2503 0.2625
vn 0.2625 -0.9319 -0.2503
vn 0.2503 -0.2625 -0.9319
vn 0.9319 -0.2502 -0.2625
vn 0.2502 0.9319 -0.2625
vn 0.9319 0.2625 -0.2503
vn 0.2625 0.2502 -0.9319
vn -0.2594 -0.9658 -0.0000
vn -0.9658 -0.0000 0.2594
vn 0.2594 -0.9658 -0.0000
vn 0.9658 -0.0000 0.2594
vn -0.0000 -0.2593 0.9658
vn -0.0000 0.2593 0.9658
vn -0.9319 -0.2503 0.2625
vn -0.2503 0.9319 0.2625
vn -0.9319 0.2625 0.2502
vn -0.2625 0.9319 -0.2503
vn -0.2503 0.2625 -0.9319
vn -0.9319 0.2502 -0.2625
vn 0.9319 -0.2625 0.2502
vn 0.2503 0.2625 0.9319
vn 0.2503 0.9319 -0.2625
vn 0.2625 0.2503 -0.9319
vn -0.2594 -0.0000 0.9658
vn -0.2594 -0.0000 -0.9658
vn 0.2594 -0.0000 0.9658
vn -0.2502 -0.9319 -0.2625
vn 0.2502 -0.2625 -0.9319
vn 0.9319 0.2625 -0.2502
vn -0.2625 -0.2503 -0.9319
vn 0.9319 -0.2503 -0.2625
vn -0.0450 0.5162 -0.8553
vn -0.2528 0.9173 -0.3078
vn 0.3014 0.8727 -0.3841
vn 0.0450 0.5162 0.8553
vn 0.2528 0.9173 0.3077
vn -0.3014 0.8727 0.3841
vn 0.4247 0.2968 -0.8553
vn 0.6674 0.6780 -0.3081
vn 0.9067 0.1755 -0.3835
vn 0.4695 0.2193 0.8553
vn 0.9209 0.2395 0.3076
vn 0.6055 0.6975 0.3832
vn 0.4695 -0.2192 -0.8553
vn 0.9209 -0.2395 -0.3076
vn 0.6055 -0.6975 -0.3832
vn 0.4247 -0.2968 0.8553
vn 0.6674 -0.6780 0.3080
vn 0.9067 -0.1755 0.3834
vn 0.0450 -0.5162 -0.8553
vn 0.2528 -0.9173 -0.3077
vn -0.3014 -0.8727 -0.3841
vn -0.0450 -0.5162 0.8553
vn -0.2528 -0.9173 0.3078
vn 0.3014 -0.8727 0.3841
vn -0.4247 -0.2968 -0.8553
vn -0.6674 -0.6780 -0.3080
vn -0.9067 -0.1755 -0.3834
vn -0.4695 -0.2193 0.8553
vn -0.9209 -0.2395 0.3075
vn -0.6055 -0.6975 0.3833
vn -0.4695 0.2192 -0.8553
vn -0.9209 0.2395 -0.3075
vn -0.6055 0.6975 -0.3833
vn -0.4247 0.2968 0.8553
vn -0.6674 0.6780 0.3080
vn -0.9067 0.1755 0.3835
vn 0.4557 0.7890 -0.4121
vn 0.1975 0.3422 -0.9186
vn 0.4555 0.7887 0.4128
vn 0.1976 0.3424 0.9186
vn 0.7015 -0.7127 -0.0000
vn 0.4555 -0.7887 -0.4128
vn 0.1976 -0.3424 -0.9186
vn 0.4557 -0.7890 0.4121
vn 0.1975 -0.3422 0.9186
vn -0.4557 -0.7890 -0.4121
vn -0.1975 -0.3422 -0.9186
vn -0.4555 -0.7887 0.4128
vn -0.1976 -0.3424 0.9186
vn -0.7015 -0.7126 -0.0000
vn -0.3952 -0.0000 -0.9186
vn -0.4555 0.7887 -0.4128
vn -0.1976 0.3424 -0.9186
vn -0.4557 0.7890 0.4121
vn -0.1975 0.3422 0.9186
vn 0.5001 0.8660 -0.0000
vn -0.5001 0.8659 -0.0000
vn 0.5001 -0.8659 -0.0000
vn -0.5001 -0.8660 -0.0000
vn -0.2528 0.9173 -0.3077
vn 0.2528 0.9173 0.3078
vn 0.6674 0.6780 -0.3080
vn 0.9209 0.2395 0.3075
vn 0.6055 0.6975 0.3833
vn 0.9209 -0.2395 -0.3075
vn 0.6055 -0.6975 -0.3833
vn 0.2528 -0.9173 -0.3078
vn -0.2528 -0.9173 0.3077
vn -0.6674 -0.6780 -0.3081
vn -0.9209 -0.2395 0.3076
vn -0.9209 0.2395 -0.3076
vn -0.6055 0.6975 -0.3832
vn -0.6674 0.6780 0.3081
vn 0.1976 0.3424 0.9185
s 0
usemtl Shell
f 1//1 6//1 5//1
f 4//2 9//2 6//2
f 2//3 9//3 8//3
f 7//4 12//4 9//4
f 3//5 12//5 11//5
f 10//6 6//6 12//6
f 6//7 9//7 12//7
f 13//8 18//8 17//8
f 16//9 21//9 18//9
f 14//10 21//10 20//10
f 19//11 24//11 21//11
f 15//12 24//12 23//12
f 22//13 18//13 24//13
f 18//14 21//14 24//14
f 25//15 30//15 29//15
f 28//16 33//16 30//16
f 26//17 33//17 32//17
f 31//18 36//18 33//18
f 27//19 36//19 35//19
f 34//20 30//20 36//20
f 30//21 33//21 36//21
f 37//22 42//22 41//22
f 40//23 45//23 42//23
f 38//24 45//24 44//24
f 43//25 48//25 45//25
f 39//26 48//26 47//26
f 46//27 42//27 48//27
f 42//28 45//28 48//28
f 49//29 54//29 53//29
f 52//30 57//30 54//30
f 50//31 57//31 56//31
f 55//32 60//32 57//32
f 51//33 60//33 59//33
f 58//34 54//34 60//34
f 54//35 57//35 60//35
f 61//36 66//36 65//36
f 64//37 69//37 66//37
f 62//38 69//38 68//38
f 67//39 72//39 69//39
f 63//40 72//40 71//40
f 70//41 66//41 72//41
f 66//42 69//42 72//42
f 73//43 78//43 77//43
f 76//44 81//44 78//44
f 74//45 81//45 80//45
f 79//46 84//46 81//46
f 75//47 84//47 83//47
f 82//48 78//48 84//48
f 78//49 81//49 84//49
f 85//50 90//50 89//50
f 88//51 93//51 90//51
f 86//52 93//52 92//52
f 91//53 96//53 93//53
f 87//54 96//54 95//54
f 94//55 90//55 96//55
f 90//56 93//56 96//56
f 1//57 41//57 4//57
f 4//58 46//58 8//58
f 8//59 39//59 2//59
f 27//60 47//60 34//60
f 34//61 43//61 29//61
f 29//62 38//62 25//62
f 15//63 35//63 22//63
f 22//64 31//64 17//64
f 17//65 26//65 13//65
f 2//66 23//66 7//66
f 7//67 19//67 11//67
f 11//68 14//68 3//68
f 51//69 92//69 58//69
f 58//70 88//70 53//70
f 53//71 85//71 49//71
f 50//72 65//72 55//72
f 55//73 70//73 59//73
f 59//74 63//74 51//74
f 62//75 77//75 67//75
f 67//76 82//76 71//76
f 71//77 75//77 63//77
f 74//78 95//78 79//78
f 79//79 91//79 83//79
f 83//80 86//80 75//80
f 3//81 56//81 10//81
f 10//82 52//82 5//82
f 5//83 49//83 1//83
f 13//84 68//84 16//84
f 16//85 64//85 20//85
f 20//86 61//86 14//86
f 25//87 80//87 28//87
f 28//88 76//88 32//88
f 32//89 73//89 26//89
f 37//90 89//90 40//90
f 40//91 94//91 44//91
f 44//92 87//92 38//92
f 37//93 49//93 85//93
f 39//94 15//94 2//94
f 3//95 61//95 50//95
f 13//96 73//96 62//96
f 25//97 87//97 74//97
f 51//98 75//98 86//98
f 31//18 35//18 36//18
f 26//175 31//175 33//175
f 28//176 32//176 33//176
f 25//177 28//177 30//177
f 22//178 17//178 18//178
f 15//179 22//179 24//179
f 19//180 23//180 24//180
f 14//181 19//181 21//181
f 16//9 20//9 21//9
f 13//182 16//182 18//182
f 10//6 5//6 6//6
f 3//183 10//183 12//183
f 7//184 11//184 12//184
f 2//185 7//185 9//185
f 4//186 8//186 9//186
f 1//187 4//187 6//187
f 27//410 34//410 36//410
f 34//411 29//411 30//411
f 37//412 40//412 42//412
f 40//413 44//413 45//413
f 38//414 43//414 45//414
f 43//415 47//415 48//415
f 39//416 46//416 48//416
f 46//27 41//27 42//27
f 49//417 52//417 54//417
f 52//30 56//30 57//30
f 50//418 55//418 57//418
f 55//419 59//419 60//419
f 51//420 58//420 60//420
f 58//421 53//421 54//421
f 61//422 64//422 66//422
f 64//37 68//37 69//37
f 62//423 67//423 69//423
f 67//424 71//424 72//424
f 63//425 70//425 72//425
f 70//426 65//426 66//426
f 73//427 76//427 78//427
f 76//428 80//428 81//428
f 74//429 79//429 81//429
f 79//430 83//430 84//430
f 75//431 82//431 84//431
f 82//48 77//48 78//48
f 85//432 88//432 90//432
f 88//51 92//51 93//51
f 86//433 91//433 93//433
f 91//434 95//434 96//434
f 87//435 94//435 96//435
f 94//436 89//436 90//436
f 1//437 37//437 41//437
f 4//438 41//438 46//438
f 8//59 46//59 39//59
f 27//60 39//60 47//60
f 34//61 47//61 43//61
f 29//62 43//62 38//62
f 15//63 27//63 35//63
f 22//439 35//439 31//439
f 17//440 31//440 26//440
f 2//66 15//66 23//66
f 7//67 23//67 19//67
f 11//68 19//68 14//68
f 51//69 86//69 92//69
f 58//441 92//441 88//441
f 53//442 88//442 85//442
f 50//72 61//72 65//72
f 55//73 65//73 70//73
f 59//74 70//74 63//74
f 62//443 73//443 77//443
f 67//444 77//444 82//444
f 71//77 82//77 75//77
f 74//78 87//78 95//78
f 79//79 95//79 91//79
f 83//80 91//80 86//80
f 3//81 50//81 56//81
f 10//82 56//82 52//82
f 5//83 52//83 49//83
f 13//84 62//84 68//84
f 16//85 68//85 64//85
f 20//86 64//86 61//86
f 25//87 74//87 80//87
f 28//88 80//88 76//88
f 32//89 76//89 73//89
f 37//90 85//90 89//90
f 40//91 89//91 94//91
f 44//92 94//92 87//92
f 37//93 1//93 49//93
f 39//94 27//94 15//94
f 3//95 14//95 61//95
f 13//96 26//96 73//96
f 25//97 38//97 87//97
f 51//98 63//98 75//98
usemtl DetailGraphite
f 97//99 102//99 101//99
f 100//100 105//100 102//100
f 98//101 105//101 104//101
f 103//102 108//102 105//102
f 99//103 108//103 107//103
f 106//104 102//104 108//104
f 102//105 105//105 108//105
f 109//106 114//106 113//106
f 112//107 117//107 114//107
f 110//108 117//108 116//108
f 115//109 120//109 117//109
f 111//110 120//110 119//110
f 118//111 114//111 120//111
f 114//112 117//112 120//112
f 121//113 126//113 125//113
f 124//114 129//114 126//114
f 122//115 129//115 128//115
f 127//116 132//116 129//116
f 123//117 132//117 131//117
f 130//118 126//118 132//118
f 126//119 129//119 132//119
f 133//120 138//120 137//120
f 136//121 141//121 138//121
f 134//122 141//122 140//122
f 139//123 144//123 141//123
f 135//124 144//124 143//124
f 142//125 138//125 144//125
f 138//126 141//126 144//126
f 97//127 147//127 146//127
f 101//128 149//128 147//128
f 99//129 149//129 106//129
f 148//130 152//130 149//130
f 145//131 152//131 151//131
f 150//132 147//132 152//132
f 147//133 149//133 152//133
f 110//134 155//134 154//134
f 116//135 157//135 155//135
f 109//136 157//136 112//136
f 156//137 160//137 157//137
f 153//138 160//138 159//138
f 158//139 155//139 160//139
f 155//140 157//140 160//140
f 122//141 163//141 162//141
f 128//142 165//142 163//142
f 121//143 165//143 124//143
f 164//144 168//144 165//144
f 161//145 168//145 167//145
f 166//146 163//146 168//146
f 163//147 165//147 168//147
f 133//148 171//148 136//148
f 170//149 174//149 171//149
f 169//150 174//150 173//150
f 172//151 176//151 174//151
f 134//152 176//152 175//152
f 140//153 171//153 176//153
f 171//154 174//154 176//154
f 97//155 137//155 100//155
f 100//156 142//156 104//156
f 104//157 135//157 98//157
f 123//158 143//158 130//158
f 130//61 139//61 125//61
f 125//159 134//159 121//159
f 111//160 131//160 118//160
f 118//161 127//161 113//161
f 113//162 122//162 109//162
f 98//163 119//163 103//163
f 103//67 115//67 107//67
f 107//164 110//164 99//164
f 145//165 173//165 150//165
f 150//166 170//166 146//166
f 146//167 133//167 97//167
f 99//168 154//168 148//168
f 148//73 158//73 151//73
f 151//169 153//169 145//169
f 109//170 162//170 156//170
f 156//171 166//171 159//171
f 159//172 161//172 153//172
f 121//173 175//173 164//173
f 164//79 172//79 167//79
f 167//174 169//174 161//174
f 135//94 111//94 98//94
f 145//98 161//98 169//98
f 273//188 278//188 277//188
f 276//189 281//189 278//189
f 274//190 281//190 280//190
f 279//278 284//278 281//278
f 275//279 284//279 283//279
f 282//193 278//193 284//193
f 278//280 281//280 284//280
f 285//281 290//281 289//281
f 288//196 293//196 290//196
f 286//197 293//197 292//197
f 291//198 296//198 293//198
f 287//199 296//199 295//199
f 294//200 290//200 296//200
f 290//282 293//282 296//282
f 297//202 302//202 301//202
f 300//203 305//203 302//203
f 298//204 305//204 304//204
f 303//205 308//205 305//205
f 299//206 308//206 307//206
f 306//207 302//207 308//207
f 302//283 305//283 308//283
f 309//284 314//284 313//284
f 312//210 317//210 314//210
f 310//285 317//285 316//285
f 315//212 320//212 317//212
f 311//213 320//213 319//213
f 318//214 314//214 320//214
f 314//286 317//286 320//286
f 321//216 326//216 325//216
f 324//217 329//217 326//217
f 322//287 329//287 328//287
f 327//219 332//219 329//219
f 323//220 332//220 331//220
f 330//221 326//221 332//221
f 326//288 329//288 332//288
f 333//289 338//289 337//289
f 336//224 341//224 338//224
f 334//225 341//225 340//225
f 339//290 344//290 341//290
f 335//291 344//291 343//291
f 342//228 338//228 344//228
f 338//292 341//292 344//292
f 345//230 350//230 349//230
f 348//231 353//231 350//231
f 346//232 353//232 352//232
f 351//233 356//233 353//233
f 347//234 356//234 355//234
f 354//235 350//235 356//235
f 350//293 353//293 356//293
f 357//294 362//294 361//294
f 360//238 365//238 362//238
f 358//295 365//295 364//295
f 363//240 368//240 365//240
f 359//296 368//296 367//296
f 366//242 362//242 368//242
f 362//297 365//297 368//297
f 297//244 277//244 300//244
f 300//245 282//245 304//245
f 304//298 275//298 298//298
f 274//247 289//247 279//247
f 279//248 294//248 283//248
f 283//249 287//249 275//249
f 286//250 313//250 291//250
f 291//251 318//251 295//251
f 295//299 311//299 287//299
f 310//253 307//253 315//253
f 315//254 303//254 319//254
f 319//300 298//300 311//300
f 345//256 301//256 348//256
f 348//67 306//67 352//67
f 352//301 299//301 346//301
f 309//302 361//302 312//302
f 312//61 366//61 316//61
f 316//303 359//303 310//303
f 358//304 355//304 363//304
f 363//261 351//261 367//261
f 367//305 346//305 359//305
f 321//263 349//263 324//263
f 324//264 354//264 328//264
f 328//306 347//306 322//306
f 357//266 337//266 360//266
f 360//267 342//267 364//267
f 364//307 335//307 358//307
f 334//269 331//269 339//269
f 339//270 327//270 343//270
f 343//271 322//271 335//271
f 273//308 325//308 276//308
f 276//73 330//73 280//73
f 280//273 323//273 274//273
f 333//274 292//274 336//274
f 336//79 288//79 340//79
f 340//275 285//275 334//275
f 297//95 321//95 273//95
f 275//276 311//276 298//276
f 323//98 285//98 274//98
f 357//97 286//97 333//97
f 299//94 359//94 346//94
f 347//277 335//277 322//277
f 369//188 374//188 373//188
f 372//189 377//189 374//189
f 370//190 377//190 376//190
f 375//278 380//278 377//278
f 371//279 380//279 379//279
f 378//193 374//193 380//193
f 374//309 377//309 380//309
f 381//281 386//281 385//281
f 384//196 389//196 386//196
f 382//197 389//197 388//197
f 387//198 392//198 389//198
f 383//199 392//199 391//199
f 390//200 386//200 392//200
f 386//282 389//282 392//282
f 393//202 398//202 397//202
f 396//203 401//203 398//203
f 394//204 401//204 400//204
f 399//205 404//205 401//205
f 395//310 404//310 403//310
f 402//207 398//207 404//207
f 398//311 401//311 404//311
f 405//284 410//284 409//284
f 408//210 413//210 410//210
f 406//211 413//211 412//211
f 411//212 416//212 413//212
f 407//312 416//312 415//312
f 414//214 410//214 416//214
f 410//286 413//286 416//286
f 417//216 422//216 421//216
f 420//217 425//217 422//217
f 418//287 425//287 424//287
f 423//219 428//219 425//219
f 419//220 428//220 427//220
f 426//221 422//221 428//221
f 422//313 425//313 428//313
f 429//289 434//289 433//289
f 432//224 437//224 434//224
f 430//225 437//225 436//225
f 435//290 440//290 437//290
f 431//291 440//291 439//291
f 438//228 434//228 440//228
f 434//292 437//292 440//292
f 441//314 446//314 445//314
f 444//231 449//231 446//231
f 442//232 449//232 448//232
f 447//233 452//233 449//233
f 443//234 452//234 451//234
f 450//235 446//235 452//235
f 446//315 449//315 452//315
f 453//294 458//294 457//294
f 456//238 461//238 458//238
f 454//295 461//295 460//295
f 459//240 464//240 461//240
f 455//296 464//296 463//296
f 462//242 458//242 464//242
f 458//297 461//297 464//297
f 393//244 373//244 396//244
f 396//245 378//245 400//245
f 400//298 371//298 394//298
f 370//247 385//247 375//247
f 375//248 390//248 379//248
f 379//249 383//249 371//249
f 382//316 409//316 387//316
f 387//251 414//251 391//251
f 391//299 407//299 383//299
f 406//253 403//253 411//253
f 411//254 399//254 415//254
f 415//300 394//300 407//300
f 441//256 397//256 444//256
f 444//67 402//67 448//67
f 448//301 395//301 442//301
f 405//302 457//302 408//302
f 408//61 462//61 412//61
f 412//303 455//303 406//303
f 454//304 451//304 459//304
f 459//261 447//261 463//261
f 463//262 442//262 455//262
f 417//263 445//263 420//263
f 420//264 450//264 424//264
f 424//306 443//306 418//306
f 453//317 433//317 456//317
f 456//267 438//267 460//267
f 460//307 431//307 454//307
f 430//269 427//269 435//269
f 435//270 423//270 439//270
f 439//271 418//271 431//271
f 369//308 421//308 372//308
f 372//73 426//73 376//73
f 376//273 419//273 370//273
f 429//274 388//274 432//274
f 432//79 384//79 436//79
f 436//275 381//275 430//275
f 393//95 417//95 369//95
f 371//276 407//276 394//276
f 419//98 381//98 370//98
f 453//97 382//97 429//97
f 395//94 455//94 442//94
f 443//277 431//277 418//277
f 465//188 470//188 469//188
f 468//189 473//189 470//189
f 466//190 473//190 472//190
f 471//278 476//278 473//278
f 467//279 476//279 475//279
f 474//193 470//193 476//193
f 470//309 473//309 476//309
f 477//281 482//281 481//281
f 480//196 485//196 482//196
f 478//197 485//197 484//197
f 483//198 488//198 485//198
f 479//199 488//199 487//199
f 486//200 482//200 488//200
f 482//282 485//282 488//282
f 489//202 494//202 493//202
f 492//203 497//203 494//203
f 490//318 497//318 496//318
f 495//205 500//205 497//205
f 491//310 500//310 499//310
f 498//207 494//207 500//207
f 494//311 497//311 500//311
f 501//209 506//209 505//209
f 504//210 509//210 506//210
f 502//285 509//285 508//285
f 507//212 512//212 509//212
f 503//213 512//213 511//213
f 510//214 506//214 512//214
f 506//286 509//286 512//286
f 513//216 518//216 517//216
f 516//217 521//217 518//217
f 514//287 521//287 520//287
f 519//219 524//219 521//219
f 515//220 524//220 523//220
f 522//221 518//221 524//221
f 518//313 521//313 524//313
f 525//289 530//289 529//289
f 528//224 533//224 530//224
f 526//225 533//225 532//225
f 531//290 536//290 533//290
f 527//291 536//291 535//291
f 534//228 530//228 536//228
f 530//292 533//292 536//292
f 537//230 542//230 541//230
f 540//231 545//231 542//231
f 538//319 545//319 544//319
f 543//233 548//233 545//233
f 539//234 548//234 547//234
f 546//235 542//235 548//235
f 542//315 545//315 548//315
f 549//294 554//294 553//294
f 552//238 557//238 554//238
f 550//295 557//295 556//295
f 555//240 560//240 557//240
f 551//296 560//296 559//296
f 558//242 554//242 560//242
f 554//297 557//297 560//297
f 489//244 469//244 492//244
f 492//245 474//245 496//245
f 496//298 467//298 490//298
f 466//247 481//247 471//247
f 471//248 486//248 475//248
f 475//249 479//249 467//249
f 478//250 505//250 483//250
f 483//251 510//251 487//251
f 487//299 503//299 479//299
f 502//253 499//253 507//253
f 507//254 495//254 511//254
f 511//300 490//300 503//300
f 537//256 493//256 540//256
f 540//67 498//67 544//67
f 544//301 491//301 538//301
f 501//302 553//302 504//302
f 504//61 558//61 508//61
f 508//303 551//303 502//303
f 550//304 547//304 555//304
f 555//261 543//261 559//261
f 559//305 538//305 551//305
f 513//263 541//263 516//263
f 516//264 546//264 520//264
f 520//306 539//306 514//306
f 549//266 529//266 552//266
f 552//267 534//267 556//267
f 556//307 527//307 550//307
f 526//269 523//269 531//269
f 531//270 519//270 535//270
f 535//271 514//271 527//271
f 465//308 517//308 468//308
f 468//73 522//73 472//73
f 472//273 515//273 466//273
f 525//274 484//274 528//274
f 528//79 480//79 532//79
f 532//275 477//275 526//275
f 489//95 513//95 465//95
f 467//276 503//276 490//276
f 515//98 477//98 466//98
f 549//97 478//97 525//97
f 491//94 551//94 538//94
f 539//277 527//277 514//277
f 97//445 100//445 102//445
f 100//446 104//446 105//446
f 98//447 103//447 105//447
f 103//102 107//102 108//102
f 99//448 106//448 108//448
f 106//449 101//449 102//449
f 109//450 112//450 114//450
f 112//451 116//451 117//451
f 110//452 115//452 117//452
f 115//109 119//109 120//109
f 111//453 118//453 120//453
f 118//454 113//454 114//454
f 121//455 124//455 126//455
f 124//114 128//114 129//114
f 122//456 127//456 129//456
f 127//457 131//457 132//457
f 123//458 130//458 132//458
f 130//118 125//118 126//118
f 133//459 136//459 138//459
f 136//121 140//121 141//121
f 134//460 139//460 141//460
f 139//123 143//123 144//123
f 135//461 142//461 144//461
f 142//462 137//462 138//462
f 97//463 101//463 147//463
f 101//464 106//464 149//464
f 99//465 148//465 149//465
f 148//130 151//130 152//130
f 145//466 150//466 152//466
f 150//467 146//467 147//467
f 110//468 116//468 155//468
f 116//469 112//469 157//469
f 109//470 156//470 157//470
f 156//471 159//471 160//471
f 153//472 158//472 160//472
f 158//139 154//139 155//139
f 122//473 128//473 163//473
f 128//474 124//474 165//474
f 121//475 164//475 165//475
f 164//144 167//144 168//144
f 161//476 166//476 168//476
f 166//477 162//477 163//477
f 133//478 170//478 171//478
f 170//479 173//479 174//479
f 169//480 172//480 174//480
f 172//151 175//151 176//151
f 134//481 140//481 176//481
f 140//482 136//482 171//482
f 97//483 133//483 137//483
f 100//156 137//156 142//156
f 104//157 142//157 135//157
f 123//158 135//158 143//158
f 130//61 143//61 139//61
f 125//159 139//159 134//159
f 111//160 123//160 131//160
f 118//161 131//161 127//161
f 113//484 127//484 122//484
f 98//163 111//163 119//163
f 103//67 119//67 115//67
f 107//164 115//164 110//164
f 145//165 169//165 173//165
f 150//485 173//485 170//485
f 146//486 170//486 133//486
f 99//168 110//168 154//168
f 148//73 154//73 158//73
f 151//169 158//169 153//169
f 109//487 122//487 162//487
f 156//171 162//171 166//171
f 159//172 166//172 161//172
f 121//173 134//173 175//173
f 164//79 175//79 172//79
f 167//174 172//174 169//174
f 135//94 123//94 111//94
f 145//98 153//98 161//98
f 273//488 276//488 278//488
f 276//189 280//189 281//189
f 274//489 279//489 281//489
f 279//278 283//278 284//278
f 275//519 282//519 284//519
f 282//193 277//193 278//193
f 285//491 288//491 290//491
f 288//196 292//196 293//196
f 286//520 291//520 293//520
f 291//198 295//198 296//198
f 287//521 294//521 296//521
f 294//200 289//200 290//200
f 297//494 300//494 302//494
f 300//203 304//203 305//203
f 298//495 303//495 305//495
f 303//205 307//205 308//205
f 299//496 306//496 308//496
f 306//207 301//207 302//207
f 309//522 312//522 314//522
f 312//210 316//210 317//210
f 310//523 315//523 317//523
f 315//212 319//212 320//212
f 311//524 318//524 320//524
f 318//214 313//214 314//214
f 321//500 324//500 326//500
f 324//217 328//217 329//217
f 322//525 327//525 329//525
f 327//219 331//219 332//219
f 323//502 330//502 332//502
f 330//221 325//221 326//221
f 333//504 336//504 338//504
f 336//224 340//224 341//224
f 334//526 339//526 341//526
f 339//290 343//290 344//290
f 335//506 342//506 344//506
f 342//228 337//228 338//228
f 345//507 348//507 350//507
f 348//231 352//231 353//231
f 346//508 351//508 353//508
f 351//233 355//233 356//233
f 347//509 354//509 356//509
f 354//235 349//235 350//235
f 357//527 360//527 362//527
f 360//238 364//238 365//238
f 358//511 363//511 365//511
f 363//240 367//240 368//240
f 359//528 366//528 368//528
f 366//242 361//242 362//242
f 297//244 273//244 277//244
f 300//245 277//245 282//245
f 304//298 282//298 275//298
f 274//529 285//529 289//529
f 279//248 289//248 294//248
f 283//249 294//249 287//249
f 286//250 309//250 313//250
f 291//251 313//251 318//251
f 295//299 318//299 311//299
f 310//530 299//530 307//530
f 315//254 307//254 303//254
f 319//255 303//255 298//255
f 345//256 297//256 301//256
f 348//67 301//67 306//67
f 352//257 306//257 299//257
f 309//302 357//302 361//302
f 312//61 361//61 366//61
f 316//259 366//259 359//259
f 358//260 347//260 355//260
f 363//261 355//261 351//261
f 367//262 351//262 346//262
f 321//263 345//263 349//263
f 324//264 349//264 354//264
f 328//306 354//306 347//306
f 357//266 333//266 337//266
f 360//267 337//267 342//267
f 364//307 342//307 335//307
f 334//531 323//531 331//531
f 339//270 331//270 327//270
f 343//271 327//271 322//271
f 273//308 321//308 325//308
f 276//73 325//73 330//73
f 280//273 330//273 323//273
f 333//274 286//274 292//274
f 336//79 292//79 288//79
f 340//275 288//275 285//275
f 297//95 345//95 321//95
f 275//276 287//276 311//276
f 323//98 334//98 285//98
f 357//97 309//97 286//97
f 299//94 310//94 359//94
f 347//277 358//277 335//277
f 369//488 372//488 374//488
f 372//189 376//189 377//189
f 370//489 375//489 377//489
f 375//278 379//278 380//278
f 371//519 378//519 380//519
f 378//193 373//193 374//193
f 381//491 384//491 386//491
f 384//196 388//196 389//196
f 382//520 387//520 389//520
f 387//198 391//198 392//198
f 383//521 390//521 392//521
f 390//200 385//200 386//200
f 393//532 396//532 398//532
f 396//203 400//203 401//203
f 394//495 399//495 401//495
f 399//205 403//205 404//205
f 395//496 402//496 404//496
f 402//207 397//207 398//207
f 405//522 408//522 410//522
f 408//210 412//210 413//210
f 406//523 411//523 413//523
f 411//212 415//212 416//212
f 407//524 414//524 416//524
f 414//214 409//214 410//214
f 417//500 420//500 422//500
f 420//217 424//217 425//217
f 418//525 423//525 425//525
f 423//219 427//219 428//219
f 419//502 426//502 428//502
f 426//221 421//221 422//221
f 429//504 432//504 434//504
f 432//224 436//224 437//224
f 430//526 435//526 437//526
f 435//290 439//290 440//290
f 431//506 438//506 440//506
f 438//228 433//228 434//228
f 441//507 444//507 446//507
f 444//231 448//231 449//231
f 442//533 447//533 449//533
f 447//233 451//233 452//233
f 443//509 450//509 452//509
f 450//235 445//235 446//235
f 453//527 456//527 458//527
f 456//238 460//238 461//238
f 454//534 459//534 461//534
f 459//240 463//240 464//240
f 455//512 462//512 464//512
f 462//242 457//242 458//242
f 393//513 369//513 373//513
f 396//245 373//245 378//245
f 400//298 378//298 371//298
f 370//247 381//247 385//247
f 375//248 385//248 390//248
f 379//249 390//249 383//249
f 382//250 405//250 409//250
f 387//251 409//251 414//251
f 391//299 414//299 407//299
f 406//530 395//530 403//530
f 411//254 403//254 399//254
f 415//255 399//255 394//255
f 441//256 393//256 397//256
f 444//67 397//67 402//67
f 448//257 402//257 395//257
f 405//302 453//302 457//302
f 408//61 457//61 462//61
f 412//259 462//259 455//259
f 454//260 443//260 451//260
f 459//261 451//261 447//261
f 463//262 447//262 442//262
f 417//515 441//515 445//515
f 420//264 445//264 450//264
f 424//306 450//306 443//306
f 453//266 429//266 433//266
f 456//267 433//267 438//267
f 460//307 438//307 431//307
f 430//531 419//531 427//531
f 435//270 427//270 423//270
f 439//271 423//271 418//271
f 369//308 417//308 421//308
f 372//73 421//73 426//73
f 376//273 426//273 419//273
f 429//274 382//274 388//274
f 432//79 388//79 384//79
f 436//275 384//275 381//275
f 393//95 441//95 417//95
f 371//276 383//276 407//276
f 419//98 430//98 381//98
f 453//97 405//97 382//97
f 395//94 406//94 455//94
f 443//277 454//277 431//277
f 465//488 468//488 470//488
f 468//189 472//189 473//189
f 466//489 471//489 473//489
f 471//278 475//278 476//278
f 467//519 474//519 476//519
f 474//193 469//193 470//193
f 477//491 480//491 482//491
f 480//196 484//196 485//196
f 478//520 483//520 485//520
f 483//198 487//198 488//198
f 479//521 486//521 488//521
f 486//200 481//200 482//200
f 489//494 492//494 494//494
f 492//203 496//203 497//203
f 490//495 495//495 497//495
f 495//205 499//205 500//205
f 491//535 498//535 500//535
f 498//207 493//207 494//207
f 501//522 504//522 506//522
f 504//210 508//210 509//210
f 502//523 507//523 509//523
f 507//212 511//212 512//212
f 503//524 510//524 512//524
f 510//214 505//214 506//214
f 513//500 516//500 518//500
f 516//217 520//217 521//217
f 514//525 519//525 521//525
f 519//219 523//219 524//219
f 515//502 522//502 524//502
f 522//221 517//221 518//221
f 525//504 528//504 530//504
f 528//224 532//224 533//224
f 526//526 531//526 533//526
f 531//290 535//290 536//290
f 527//506 534//506 536//506
f 534//228 529//228 530//228
f 537//507 540//507 542//507
f 540//231 544//231 545//231
f 538//533 543//533 545//533
f 543//233 547//233 548//233
f 539//536 546//536 548//536
f 546//235 541//235 542//235
f 549//510 552//510 554//510
f 552//238 556//238 557//238
f 550//511 555//511 557//511
f 555//240 559//240 560//240
f 551//528 558//528 560//528
f 558//242 553//242 554//242
f 489//513 465//513 469//513
f 492//245 469//245 474//245
f 496//298 474//298 467//298
f 466//529 477//529 481//529
f 471//248 481//248 486//248
f 475//249 486//249 479//249
f 478//316 501//316 505//316
f 483//251 505//251 510//251
f 487//299 510//299 503//299
f 502//253 491//253 499//253
f 507//254 499//254 495//254
f 511//255 495//255 490//255
f 537//256 489//256 493//256
f 540//67 493//67 498//67
f 544//257 498//257 491//257
f 501//302 549//302 553//302
f 504//61 553//61 558//61
f 508//259 558//259 551//259
f 550//260 539//260 547//260
f 555//261 547//261 543//261
f 559//262 543//262 538//262
f 513//515 537//515 541//515
f 516//264 541//264 546//264
f 520//306 546//306 539//306
f 549//317 525//317 529//317
f 552//267 529//267 534//267
f 556//307 534//307 527//307
f 526//269 515//269 523//269
f 531//270 523//270 519//270
f 535//271 519//271 514//271
f 465//308 513//308 517//308
f 468//73 517//73 522//73
f 472//273 522//273 515//273
f 525//274 478//274 484//274
f 528//79 484//79 480//79
f 532//275 480//275 477//275
f 489//95 537//95 513//95
f 467//276 479//276 503//276
f 515//98 526//98 477//98
f 549//97 501//97 478//97
f 491//94 502//94 551//94
f 539//277 550//277 527//277
usemtl DetailTeal
f 177//188 182//188 181//188
f 180//189 185//189 182//189
f 178//190 185//190 184//190
f 183//191 188//191 185//191
f 179//192 188//192 187//192
f 186//193 182//193 188//193
f 182//194 185//194 188//194
f 189//195 194//195 193//195
f 192//196 197//196 194//196
f 190//197 197//197 196//197
f 195//198 200//198 197//198
f 191//199 200//199 199//199
f 198//200 194//200 200//200
f 194//201 197//201 200//201
f 201//202 206//202 205//202
f 204//203 209//203 206//203
f 202//204 209//204 208//204
f 207//205 212//205 209//205
f 203//206 212//206 211//206
f 210//207 206//207 212//207
f 206//208 209//208 212//208
f 213//209 218//209 217//209
f 216//210 221//210 218//210
f 214//211 221//211 220//211
f 219//212 224//212 221//212
f 215//213 224//213 223//213
f 222//214 218//214 224//214
f 218//215 221//215 224//215
f 225//216 230//216 229//216
f 228//217 233//217 230//217
f 226//218 233//218 232//218
f 231//219 236//219 233//219
f 227//220 236//220 235//220
f 234//221 230//221 236//221
f 230//222 233//222 236//222
f 237//223 242//223 241//223
f 240//224 245//224 242//224
f 238//225 245//225 244//225
f 243//226 248//226 245//226
f 239//227 248//227 247//227
f 246//228 242//228 248//228
f 242//229 245//229 248//229
f 249//230 254//230 253//230
f 252//231 257//231 254//231
f 250//232 257//232 256//232
f 255//233 260//233 257//233
f 251//234 260//234 259//234
f 258//235 254//235 260//235
f 254//236 257//236 260//236
f 261//237 266//237 265//237
f 264//238 269//238 266//238
f 262//239 269//239 268//239
f 267//240 272//240 269//240
f 263//241 272//241 271//241
f 270//242 266//242 272//242
f 266//243 269//243 272//243
f 201//244 181//244 204//244
f 204//245 186//245 208//245
f 208//246 179//246 202//246
f 178//247 193//247 183//247
f 183//248 198//248 187//248
f 187//249 191//249 179//249
f 190//250 217//250 195//250
f 195//251 222//251 199//251
f 199//252 215//252 191//252
f 214//253 211//253 219//253
f 219//254 207//254 223//254
f 223//255 202//255 215//255
f 249//256 205//256 252//256
f 252//67 210//67 256//67
f 256//257 203//257 250//257
f 213//258 265//258 216//258
f 216//61 270//61 220//61
f 220//259 263//259 214//259
f 262//260 259//260 267//260
f 267//261 255//261 271//261
f 271//262 250//262 263//262
f 225//263 253//263 228//263
f 228//264 258//264 232//264
f 232//265 251//265 226//265
f 261//266 241//266 264//266
f 264//267 246//267 268//267
f 268//268 239//268 262//268
f 238//269 235//269 243//269
f 243//270 231//270 247//270
f 247//271 226//271 239//271
f 177//272 229//272 180//272
f 180//73 234//73 184//73
f 184//273 227//273 178//273
f 237//274 196//274 240//274
f 240//79 192//79 244//79
f 244//275 189//275 238//275
f 201//95 225//95 177//95
f 179//276 215//276 202//276
f 227//98 189//98 178//98
f 261//97 190//97 237//97
f 203//94 263//94 250//94
f 251//277 239//277 226//277
f 177//488 180//488 182//488
f 180//189 184//189 185//189
f 178//489 183//489 185//489
f 183//278 187//278 188//278
f 179//490 186//490 188//490
f 186//193 181//193 182//193
f 189//491 192//491 194//491
f 192//196 196//196 197//196
f 190//492 195//492 197//492
f 195//198 199//198 200//198
f 191//493 198//493 200//493
f 198//200 193//200 194//200
f 201//494 204//494 206//494
f 204//203 208//203 209//203
f 202//495 207//495 209//495
f 207//205 211//205 212//205
f 203//496 210//496 212//496
f 210//207 205//207 206//207
f 213//497 216//497 218//497
f 216//210 220//210 221//210
f 214//498 219//498 221//498
f 219//212 223//212 224//212
f 215//499 222//499 224//499
f 222//214 217//214 218//214
f 225//500 228//500 230//500
f 228//217 232//217 233//217
f 226//501 231//501 233//501
f 231//219 235//219 236//219
f 227//502 234//502 236//502
f 234//503 229//503 230//503
f 237//504 240//504 242//504
f 240//224 244//224 245//224
f 238//505 243//505 245//505
f 243//290 247//290 248//290
f 239//506 246//506 248//506
f 246//228 241//228 242//228
f 249//507 252//507 254//507
f 252//231 256//231 257//231
f 250//508 255//508 257//508
f 255//233 259//233 260//233
f 251//509 258//509 260//509
f 258//235 253//235 254//235
f 261//510 264//510 266//510
f 264//238 268//238 269//238
f 262//511 267//511 269//511
f 267//240 271//240 272//240
f 263//512 270//512 272//512
f 270//242 265//242 266//242
f 201//513 177//513 181//513
f 204//245 181//245 186//245
f 208//246 186//246 179//246
f 178//247 189//247 193//247
f 183//248 193//248 198//248
f 187//514 198//514 191//514
f 190//250 213//250 217//250
f 195//251 217//251 222//251
f 199//252 222//252 215//252
f 214//253 203//253 211//253
f 219//254 211//254 207//254
f 223//300 207//300 202//300
f 249//256 201//256 205//256
f 252//67 205//67 210//67
f 256//301 210//301 203//301
f 213//258 261//258 265//258
f 216//61 265//61 270//61
f 220//303 270//303 263//303
f 262//304 251//304 259//304
f 267//261 259//261 255//261
f 271//262 255//262 250//262
f 225//515 249//515 253//515
f 228//264 253//264 258//264
f 232//265 258//265 251//265
f 261//266 237//266 241//266
f 264//267 241//267 246//267
f 268//268 246//268 239//268
f 238//269 227//269 235//269
f 243//270 235//270 231//270
f 247//516 231//516 226//516
f 177//272 225//272 229//272
f 180//73 229//73 234//73
f 184//517 234//517 227//517
f 237//274 190//274 196//274
f 240//79 196//79 192//79
f 244//518 192//518 189//518
f 201//95 249//95 225//95
f 179//276 191//276 215//276
f 227//98 238//98 189//98
f 261//97 213//97 190//97
f 203//94 214//94 263//94
f 251//277 262//277 239//277
usemtl DetailSteel
f 561//320 565//320 567//320
f 562//321 565//321 564//321
f 563//322 565//322 566//322
f 568//323 572//323 574//323
f 569//324 572//324 571//324
f 570//325 572//325 573//325
f 575//326 579//326 581//326
f 576//327 579//327 578//327
f 577//328 579//328 580//328
f 582//329 586//329 588//329
f 583//330 586//330 585//330
f 584//331 586//331 587//331
f 589//332 593//332 595//332
f 590//333 593//333 592//333
f 591//334 593//334 594//334
f 596//335 600//335 602//335
f 597//336 600//336 599//336
f 598//337 600//337 601//337
f 603//338 607//338 609//338
f 604//339 607//339 606//339
f 605//340 607//340 608//340
f 610//341 614//341 616//341
f 611//342 614//342 613//342
f 612//343 614//343 615//343
f 617//344 621//344 623//344
f 618//345 621//345 620//345
f 619//346 621//346 622//346
f 624//347 628//347 630//347
f 625//348 628//348 627//348
f 626//349 628//349 629//349
f 631//350 635//350 637//350
f 632//351 635//351 634//351
f 633//352 635//352 636//352
f 638//353 642//353 644//353
f 639//354 642//354 641//354
f 640//355 642//355 643//355
f 563//356 578//356 567//356
f 567//357 575//357 561//357
f 584//358 571//358 588//358
f 588//359 568//359 582//359
f 562//360 573//360 566//360
f 566//361 569//361 563//361
f 583//362 580//362 587//362
f 587//363 576//363 584//363
f 577//364 592//364 581//364
f 581//365 589//365 575//365
f 598//366 585//366 602//366
f 602//367 582//367 596//367
f 597//368 594//368 601//368
f 601//369 590//369 598//369
f 591//370 606//370 595//370
f 595//371 603//371 589//371
f 612//372 599//372 616//372
f 616//373 596//373 610//373
f 611//374 608//374 615//374
f 615//375 604//375 612//375
f 605//376 620//376 609//376
f 609//377 617//377 603//377
f 626//378 613//378 630//378
f 630//379 610//379 624//379
f 625//380 622//380 629//380
f 629//381 618//381 626//381
f 619//382 634//382 623//382
f 623//383 631//383 617//383
f 640//384 627//384 644//384
f 644//385 624//385 638//385
f 639//386 636//386 643//386
f 643//387 632//387 640//387
f 633//388 564//388 637//388
f 637//389 561//389 631//389
f 570//390 641//390 574//390
f 574//391 638//391 568//391
f 575//94 603//94 631//94
f 563//392 584//392 576//392
f 633//393 570//393 562//393
f 568//98 624//98 596//98
f 577//277 598//277 590//277
f 591//394 612//394 604//394
f 605//395 626//395 618//395
f 619//276 640//276 632//276
f 645//320 649//320 651//320
f 646//321 649//321 648//321
f 647//396 649//396 650//396
f 652//323 656//323 658//323
f 653//324 656//324 655//324
f 654//397 656//397 657//397
f 659//326 663//326 665//326
f 660//398 663//398 662//398
f 661//399 663//399 664//399
f 666//329 670//329 672//329
f 667//330 670//330 669//330
f 668//400 670//400 671//400
f 673//332 677//332 679//332
f 674//333 677//333 676//333
f 675//401 677//401 678//401
f 680//335 684//335 686//335
f 681//336 684//336 683//336
f 682//402 684//402 685//402
f 687//338 691//338 693//338
f 688//339 691//339 690//339
f 689//403 691//403 692//403
f 694//341 698//341 700//341
f 695//342 698//342 697//342
f 696//404 698//404 699//404
f 701//344 705//344 707//344
f 702//405 705//405 704//405
f 703//406 705//406 706//406
f 708//347 712//347 714//347
f 709//348 712//348 711//348
f 710//349 712//349 713//349
f 715//350 719//350 721//350
f 716//351 719//351 718//351
f 717//407 719//407 720//407
f 722//353 726//353 728//353
f 723//408 726//408 725//408
f 724//409 726//409 727//409
f 647//356 662//356 651//356
f 651//357 659//357 645//357
f 668//358 655//358 672//358
f 672//359 652//359 666//359
f 646//360 657//360 650//360
f 650//361 653//361 647//361
f 667//362 664//362 671//362
f 671//363 660//363 668//363
f 661//364 676//364 665//364
f 665//365 673//365 659//365
f 682//366 669//366 686//366
f 686//367 666//367 680//367
f 681//368 678//368 685//368
f 685//369 674//369 682//369
f 675//370 690//370 679//370
f 679//371 687//371 673//371
f 696//372 683//372 700//372
f 700//373 680//373 694//373
f 695//374 692//374 699//374
f 699//375 688//375 696//375
f 689//376 704//376 693//376
f 693//377 701//377 687//377
f 710//378 697//378 714//378
f 714//379 694//379 708//379
f 709//380 706//380 713//380
f 713//381 702//381 710//381
f 703//382 718//382 707//382
f 707//383 715//383 701//383
f 724//384 711//384 728//384
f 728//385 708//385 722//385
f 723//386 720//386 727//386
f 727//387 716//387 724//387
f 717//388 648//388 721//388
f 721//389 645//389 715//389
f 654//390 725//390 658//390
f 658//391 722//391 652//391
f 659//94 687//94 715//94
f 647//392 668//392 660//392
f 717//393 654//393 646//393
f 652//98 708//98 680//98
f 661//277 682//277 674//277
f 675//394 696//394 688//394
f 689//395 710//395 702//395
f 703//276 724//276 716//276
f 561//537 564//537 565//537
f 562//538 566//538 565//538
f 563//539 567//539 565//539
f 568//540 571//540 572//540
f 569//541 573//541 572//541
f 570//542 574//542 572//542
f 575//543 578//543 579//543
f 576//544 580//544 579//544
f 577//545 581//545 579//545
f 582//546 585//546 586//546
f 583//547 587//547 586//547
f 584//548 588//548 586//548
f 589//549 592//549 593//549
f 590//550 594//550 593//550
f 591//551 595//551 593//551
f 596//552 599//552 600//552
f 597//553 601//553 600//553
f 598//554 602//554 600//554
f 603//555 606//555 607//555
f 604//556 608//556 607//556
f 605//557 609//557 607//557
f 610//558 613//558 614//558
f 611//559 615//559 614//559
f 612//560 616//560 614//560
f 617//561 620//561 621//561
f 618//562 622//562 621//562
f 619//563 623//563 621//563
f 624//564 627//564 628//564
f 625//565 629//565 628//565
f 626//566 630//566 628//566
f 631//567 634//567 635//567
f 632//568 636//568 635//568
f 633//569 637//569 635//569
f 638//570 641//570 642//570
f 639//571 643//571 642//571
f 640//572 644//572 642//572
f 563//573 576//573 578//573
f 567//574 578//574 575//574
f 584//575 569//575 571//575
f 588//576 571//576 568//576
f 562//360 570//360 573//360
f 566//361 573//361 569//361
f 583//362 577//362 580//362
f 587//363 580//363 576//363
f 577//364 590//364 592//364
f 581//365 592//365 589//365
f 598//366 583//366 585//366
f 602//367 585//367 582//367
f 597//577 591//577 594//577
f 601//369 594//369 590//369
f 591//578 604//578 606//578
f 595//579 606//579 603//579
f 612//580 597//580 599//580
f 616//581 599//581 596//581
f 611//374 605//374 608//374
f 615//375 608//375 604//375
f 605//582 618//582 620//582
f 609//583 620//583 617//583
f 626//584 611//584 613//584
f 630//585 613//585 610//585
f 625//380 619//380 622//380
f 629//586 622//586 618//586
f 619//382 632//382 634//382
f 623//587 634//587 631//587
f 640//384 625//384 627//384
f 644//385 627//385 624//385
f 639//386 633//386 636//386
f 643//387 636//387 632//387
f 633//588 562//588 564//588
f 637//589 564//589 561//589
f 570//590 639//590 641//590
f 574//591 641//591 638//591
f 631//94 561//94 575//94
f 575//94 589//94 603//94
f 603//94 617//94 631//94
f 563//592 569//592 584//592
f 633//593 639//593 570//593
f 596//98 582//98 568//98
f 568//98 638//98 624//98
f 624//98 610//98 596//98
f 577//277 583//277 598//277
f 591//594 597//594 612//594
f 605//595 611//595 626//595
f 619//276 625//276 640//276
f 645//537 648//537 649//537
f 646//596 650//596 649//596
f 647//539 651//539 649//539
f 652//540 655//540 656//540
f 653//597 657//597 656//597
f 654//542 658//542 656//542
f 659//543 662//543 663//543
f 660//598 664//598 663//598
f 661//545 665//545 663//545
f 666//546 669//546 670//546
f 667//599 671//599 670//599
f 668//600 672//600 670//600
f 673//549 676//549 677//549
f 674//601 678//601 677//601
f 675//602 679//602 677//602
f 680//552 683//552 684//552
f 681//553 685//553 684//553
f 682//554 686//554 684//554
f 687//555 690//555 691//555
f 688//603 692//603 691//603
f 689//557 693//557 691//557
f 694//558 697//558 698//558
f 695//604 699//604 698//604
f 696//560 700//560 698//560
f 701//561 704//561 705//561
f 702//605 706//605 705//605
f 703//563 707//563 705//563
f 708//564 711//564 712//564
f 709//606 713//606 712//606
f 710//566 714//566 712//566
f 715//567 718//567 719//567
f 716//607 720//607 719//607
f 717//608 721//608 719//608
f 722//570 725//570 726//570
f 723//609 727//609 726//609
f 724//572 728//572 726//572
f 647//573 660//573 662//573
f 651//574 662//574 659//574
f 668//575 653//575 655//575
f 672//610 655//610 652//610
f 646//360 654//360 657//360
f 650//361 657//361 653//361
f 667//362 661//362 664//362
f 671//363 664//363 660//363
f 661//364 674//364 676//364
f 665//365 676//365 673//365
f 682//366 667//366 669//366
f 686//367 669//367 666//367
f 681//577 675//577 678//577
f 685//369 678//369 674//369
f 675//578 688//578 690//578
f 679//579 690//579 687//579
f 696//580 681//580 683//580
f 700//581 683//581 680//581
f 695//374 689//374 692//374
f 699//375 692//375 688//375
f 689//582 702//582 704//582
f 693//583 704//583 701//583
f 710//584 695//584 697//584
f 714//585 697//585 694//585
f 709//380 703//380 706//380
f 713//586 706//586 702//586
f 703//382 716//382 718//382
f 707//587 718//587 715//587
f 724//384 709//384 711//384
f 728//385 711//385 708//385
f 723//386 717//386 720//386
f 727//387 720//387 716//387
f 717//588 646//588 648//588
f 721//589 648//589 645//589
f 654//590 723//590 725//590
f 658//591 725//591 722//591
f 715//94 645//94 659//94
f 659//94 673//94 687//94
f 687//94 701//94 715//94
f 647//592 653//592 668//592
f 717//593 723//593 654//593
f 680//98 666//98 652//98
f 652//98 722//98 708//98
f 708//98 694//98 680//98
f 661//277 667//277 682//277
f 675//594 681//594 696//594
f 689//595 695//595 710//595
f 703//276 709//276 724//276
