# Blender 5.2.1 LTS
# www.blender.org
mtllib modular_leg_bracket.mtl
o modular_leg_bracket
v -0.041000 -0.044000 0.018000
v -0.041000 -0.042000 0.020000
v -0.043000 -0.042000 0.018000
v -0.041000 -0.043733 0.018999
v -0.041999 -0.043733 0.018000
v -0.041956 -0.043473 0.018956
v -0.041999 -0.042000 0.019733
v -0.041000 -0.042999 0.019733
v -0.041956 -0.042956 0.019473
v -0.042733 -0.042999 0.018000
v -0.042733 -0.042000 0.018999
v -0.042473 -0.042956 0.018956
v -0.041000 -0.038000 0.020000
v -0.041000 -0.036000 0.018000
v -0.043000 -0.038000 0.018000
v -0.041000 -0.037001 0.019733
v -0.041999 -0.038000 0.019733
v -0.041956 -0.037044 0.019473
v -0.041999 -0.036267 0.018000
v -0.041000 -0.036267 0.018999
v -0.041956 -0.036527 0.018956
v -0.042733 -0.038000 0.018999
v -0.042733 -0.037001 0.018000
v -0.042473 -0.037044 0.018956
v -0.041000 -0.044000 -0.018000
v -0.043000 -0.042000 -0.018000
v -0.041000 -0.042000 -0.020000
v -0.041999 -0.043733 -0.018000
v -0.041000 -0.043733 -0.018999
v -0.041956 -0.043473 -0.018956
v -0.042733 -0.042000 -0.018999
v -0.042733 -0.042999 -0.018000
v -0.042473 -0.042956 -0.018956
v -0.041000 -0.042999 -0.019733
v -0.041999 -0.042000 -0.019733
v -0.041956 -0.042956 -0.019473
v -0.041000 -0.036000 -0.018000
v -0.041000 -0.038000 -0.020000
v -0.043000 -0.038000 -0.018000
v -0.041000 -0.036267 -0.018999
v -0.041999 -0.036267 -0.018000
v -0.041956 -0.036527 -0.018956
v -0.041999 -0.038000 -0.019733
v -0.041000 -0.037001 -0.019733
v -0.041956 -0.037044 -0.019473
v -0.042733 -0.037001 -0.018000
v -0.042733 -0.038000 -0.018999
v -0.042473 -0.037044 -0.018956
v 0.041000 -0.044000 0.018000
v 0.043000 -0.042000 0.018000
v 0.041000 -0.042000 0.020000
v 0.041999 -0.043733 0.018000
v 0.041000 -0.043733 0.018999
v 0.041956 -0.043473 0.018956
v 0.042733 -0.042000 0.018999
v 0.042733 -0.042999 0.018000
v 0.042473 -0.042956 0.018956
v 0.041000 -0.042999 0.019733
v 0.041999 -0.042000 0.019733
v 0.041956 -0.042956 0.019473
v 0.041000 -0.036000 0.018000
v 0.041000 -0.038000 0.020000
v 0.043000 -0.038000 0.018000
v 0.041000 -0.036267 0.018999
v 0.041999 -0.036267 0.018000
v 0.041956 -0.036527 0.018956
v 0.041999 -0.038000 0.019733
v 0.041000 -0.037001 0.019733
v 0.041956 -0.037044 0.019473
v 0.042733 -0.037001 0.018000
v 0.042733 -0.038000 0.018999
v 0.042473 -0.037044 0.018956
v 0.041000 -0.044000 -0.018000
v 0.041000 -0.042000 -0.020000
v 0.043000 -0.042000 -0.018000
v 0.041000 -0.043733 -0.018999
v 0.041999 -0.043733 -0.018000
v 0.041956 -0.043473 -0.018956
v 0.041999 -0.042000 -0.019733
v 0.041000 -0.042999 -0.019733
v 0.041956 -0.042956 -0.019473
v 0.042733 -0.042999 -0.018000
v 0.042733 -0.042000 -0.018999
v 0.042473 -0.042956 -0.018956
v 0.041000 -0.036000 -0.018000
v 0.043000 -0.038000 -0.018000
v 0.041000 -0.038000 -0.020000
v 0.041999 -0.036267 -0.018000
v 0.041000 -0.036267 -0.018999
v 0.041956 -0.036527 -0.018956
v 0.042733 -0.038000 -0.018999
v 0.042733 -0.037001 -0.018000
v 0.042473 -0.037044 -0.018956
v 0.041000 -0.037001 -0.019733
v 0.041999 -0.038000 -0.019733
v 0.041956 -0.037044 -0.019473
v -0.044500 -0.055000 0.020000
v -0.044500 -0.053000 0.022000
v -0.046500 -0.053000 0.020000
v -0.044500 -0.054733 0.020999
v -0.045499 -0.054733 0.020000
v -0.045456 -0.054473 0.020956
v -0.045499 -0.053000 0.021733
v -0.044500 -0.053999 0.021733
v -0.045456 -0.053956 0.021473
v -0.046233 -0.053999 0.020000
v -0.046233 -0.053000 0.020999
v -0.045973 -0.053956 0.020956
v -0.044500 0.013000 0.022000
v -0.044500 0.015000 0.020000
v -0.046500 0.013000 0.020000
v -0.044500 0.013999 0.021733
v -0.045499 0.013000 0.021733
v -0.045456 0.013956 0.021473
v -0.045499 0.014733 0.020000
v -0.044500 0.014733 0.020999
v -0.045456 0.014473 0.020956
v -0.046233 0.013000 0.020999
v -0.046233 0.013999 0.020000
v -0.045973 0.013956 0.020956
v -0.044500 -0.055000 -0.020000
v -0.046500 -0.053000 -0.020000
v -0.044500 -0.053000 -0.022000
v -0.045499 -0.054733 -0.020000
v -0.044500 -0.054733 -0.020999
v -0.045456 -0.054473 -0.020956
v -0.046233 -0.053000 -0.020999
v -0.046233 -0.053999 -0.020000
v -0.045973 -0.053956 -0.020956
v -0.044500 -0.053999 -0.021733
v -0.045499 -0.053000 -0.021733
v -0.045456 -0.053956 -0.021473
v -0.044500 0.015000 -0.020000
v -0.044500 0.013000 -0.022000
v -0.046500 0.013000 -0.020000
v -0.044500 0.014733 -0.020999
v -0.045499 0.014733 -0.020000
v -0.045456 0.014473 -0.020956
v -0.045499 0.013000 -0.021733
v -0.044500 0.013999 -0.021733
v -0.045456 0.013956 -0.021473
v -0.046233 0.013999 -0.020000
v -0.046233 0.013000 -0.020999
v -0.045973 0.013956 -0.020956
v -0.041500 -0.055000 0.020000
v -0.039500 -0.053000 0.020000
v -0.041500 -0.053000 0.022000
v -0.040501 -0.054733 0.020000
v -0.041500 -0.054733 0.020999
v -0.040544 -0.054473 0.020956
v -0.039767 -0.053000 0.020999
v -0.039767 -0.053999 0.020000
v -0.040027 -0.053956 0.020956
v -0.041500 -0.053999 0.021733
v -0.040501 -0.053000 0.021733
v -0.040544 -0.053956 0.021473
v -0.041500 0.015000 0.020000
v -0.041500 0.013000 0.022000
v -0.039500 0.013000 0.020000
v -0.041500 0.014733 0.020999
v -0.040501 0.014733 0.020000
v -0.040544 0.014473 0.020956
v -0.040501 0.013000 0.021733
v -0.041500 0.013999 0.021733
v -0.040544 0.013956 0.021473
v -0.039767 0.013999 0.020000
v -0.039767 0.013000 0.020999
v -0.040027 0.013956 0.020956
v -0.041500 -0.055000 -0.020000
v -0.041500 -0.053000 -0.022000
v -0.039500 -0.053000 -0.020000
v -0.041500 -0.054733 -0.020999
v -0.040501 -0.054733 -0.020000
v -0.040544 -0.054473 -0.020956
v -0.040501 -0.053000 -0.021733
v -0.041500 -0.053999 -0.021733
v -0.040544 -0.053956 -0.021473
v -0.039767 -0.053999 -0.020000
v -0.039767 -0.053000 -0.020999
v -0.040027 -0.053956 -0.020956
v -0.041500 0.015000 -0.020000
v -0.039500 0.013000 -0.020000
v -0.041500 0.013000 -0.022000
v -0.040501 0.014733 -0.020000
v -0.041500 0.014733 -0.020999
v -0.040544 0.014473 -0.020956
v -0.039767 0.013000 -0.020999
v -0.039767 0.013999 -0.020000
v -0.040027 0.013956 -0.020956
v -0.041500 0.013999 -0.021733
v -0.040501 0.013000 -0.021733
v -0.040544 0.013956 -0.021473
v -0.046233 0.013999 0.000008
v -0.046231 0.014000 0.000000
v -0.046233 0.013999 -0.000008
v -0.046416 0.013315 0.004326
v -0.046500 0.013000 0.004944
v -0.046416 0.013315 -0.004326
v -0.046500 0.013000 -0.004944
v -0.039767 0.013999 0.000008
v -0.039769 0.014000 0.000000
v -0.039767 0.013999 -0.000008
v -0.039500 0.013000 0.004944
v -0.039584 0.013315 0.004326
v -0.039500 0.013000 -0.004944
v -0.039584 0.013315 -0.004326
v -0.046500 0.000000 0.014000
v -0.046500 -0.004326 0.013315
v -0.046500 0.004326 0.013315
v -0.046500 -0.008229 0.011326
v -0.046500 0.011326 0.008229
v -0.046500 -0.011326 0.008229
v -0.046500 0.008229 0.011326
v -0.046500 -0.013315 0.004326
v -0.046500 -0.014000 0.000000
v -0.046500 0.011326 -0.008229
v -0.046500 0.004326 -0.013315
v -0.046500 0.008229 -0.011326
v -0.046500 -0.011326 -0.008229
v -0.046500 -0.013315 -0.004326
v -0.046500 0.000000 -0.014000
v -0.046500 -0.004326 -0.013315
v -0.046500 -0.008229 -0.011326
v -0.039500 0.004326 0.013315
v -0.039500 0.008229 0.011326
v -0.039500 0.011326 0.008229
v -0.039500 -0.014000 0.000000
v -0.039500 -0.011326 -0.008229
v -0.039500 0.011326 -0.008229
v -0.039500 0.000000 -0.014000
v -0.039500 -0.004326 -0.013315
v -0.039500 0.004326 -0.013315
v -0.039500 -0.008229 -0.011326
v -0.039500 0.008229 -0.011326
v -0.039500 -0.013315 -0.004326
v -0.039500 -0.004326 0.013315
v -0.039500 0.000000 0.014000
v -0.039500 -0.013315 0.004326
v -0.039500 -0.011326 0.008229
v -0.039500 -0.008229 0.011326
v 0.041500 -0.055000 0.020000
v 0.041500 -0.053000 0.022000
v 0.039500 -0.053000 0.020000
v 0.041500 -0.054733 0.020999
v 0.040501 -0.054733 0.020000
v 0.040544 -0.054473 0.020956
v 0.040501 -0.053000 0.021733
v 0.041500 -0.053999 0.021733
v 0.040544 -0.053956 0.021473
v 0.039767 -0.053999 0.020000
v 0.039767 -0.053000 0.020999
v 0.040027 -0.053956 0.020956
v 0.041500 0.013000 0.022000
v 0.041500 0.015000 0.020000
v 0.039500 0.013000 0.020000
v 0.041500 0.013999 0.021733
v 0.040501 0.013000 0.021733
v 0.040544 0.013956 0.021473
v 0.040501 0.014733 0.020000
v 0.041500 0.014733 0.020999
v 0.040544 0.014473 0.020956
v 0.039767 0.013000 0.020999
v 0.039767 0.013999 0.020000
v 0.040027 0.013956 0.020956
v 0.041500 -0.055000 -0.020000
v 0.039500 -0.053000 -0.020000
v 0.041500 -0.053000 -0.022000
v 0.040501 -0.054733 -0.020000
v 0.041500 -0.054733 -0.020999
v 0.040544 -0.054473 -0.020956
v 0.039767 -0.053000 -0.020999
v 0.039767 -0.053999 -0.020000
v 0.040027 -0.053956 -0.020956
v 0.041500 -0.053999 -0.021733
v 0.040501 -0.053000 -0.021733
v 0.040544 -0.053956 -0.021473
v 0.041500 0.015000 -0.020000
v 0.041500 0.013000 -0.022000
v 0.039500 0.013000 -0.020000
v 0.041500 0.014733 -0.020999
v 0.040501 0.014733 -0.020000
v 0.040544 0.014473 -0.020956
v 0.040501 0.013000 -0.021733
v 0.041500 0.013999 -0.021733
v 0.040544 0.013956 -0.021473
v 0.039767 0.013999 -0.020000
v 0.039767 0.013000 -0.020999
v 0.040027 0.013956 -0.020956
v 0.044500 -0.055000 0.020000
v 0.046500 -0.053000 0.020000
v 0.044500 -0.053000 0.022000
v 0.045499 -0.054733 0.020000
v 0.044500 -0.054733 0.020999
v 0.045456 -0.054473 0.020956
v 0.046233 -0.053000 0.020999
v 0.046233 -0.053999 0.020000
v 0.045973 -0.053956 0.020956
v 0.044500 -0.053999 0.021733
v 0.045499 -0.053000 0.021733
v 0.045456 -0.053956 0.021473
v 0.044500 0.015000 0.020000
v 0.044500 0.013000 0.022000
v 0.046500 0.013000 0.020000
v 0.044500 0.014733 0.020999
v 0.045499 0.014733 0.020000
v 0.045456 0.014473 0.020956
v 0.045499 0.013000 0.021733
v 0.044500 0.013999 0.021733
v 0.045456 0.013956 0.021473
v 0.046233 0.013999 0.020000
v 0.046233 0.013000 0.020999
v 0.045973 0.013956 0.020956
v 0.044500 -0.055000 -0.020000
v 0.044500 -0.053000 -0.022000
v 0.046500 -0.053000 -0.020000
v 0.044500 -0.054733 -0.020999
v 0.045499 -0.054733 -0.020000
v 0.045456 -0.054473 -0.020956
v 0.045499 -0.053000 -0.021733
v 0.044500 -0.053999 -0.021733
v 0.045456 -0.053956 -0.021473
v 0.046233 -0.053999 -0.020000
v 0.046233 -0.053000 -0.020999
v 0.045973 -0.053956 -0.020956
v 0.044500 0.015000 -0.020000
v 0.046500 0.013000 -0.020000
v 0.044500 0.013000 -0.022000
v 0.045499 0.014733 -0.020000
v 0.044500 0.014733 -0.020999
v 0.045456 0.014473 -0.020956
v 0.046233 0.013000 -0.020999
v 0.046233 0.013999 -0.020000
v 0.045973 0.013956 -0.020956
v 0.044500 0.013999 -0.021733
v 0.045499 0.013000 -0.021733
v 0.045456 0.013956 -0.021473
v 0.039767 0.013999 0.000008
v 0.039769 0.014000 0.000000
v 0.039767 0.013999 -0.000008
v 0.039584 0.013315 0.004326
v 0.039500 0.013000 0.004944
v 0.039584 0.013315 -0.004326
v 0.039500 0.013000 -0.004944
v 0.046233 0.013999 0.000008
v 0.046231 0.014000 0.000000
v 0.046233 0.013999 -0.000008
v 0.046500 0.013000 0.004944
v 0.046416 0.013315 0.004326
v 0.046500 0.013000 -0.004944
v 0.046416 0.013315 -0.004326
v 0.039500 0.000000 0.014000
v 0.039500 -0.004326 0.013315
v 0.039500 0.004326 0.013315
v 0.039500 -0.008229 0.011326
v 0.039500 0.011326 0.008229
v 0.039500 -0.011326 0.008229
v 0.039500 0.008229 0.011326
v 0.039500 -0.013315 0.004326
v 0.039500 -0.014000 0.000000
v 0.039500 0.011326 -0.008229
v 0.039500 0.004326 -0.013315
v 0.039500 0.008229 -0.011326
v 0.039500 -0.011326 -0.008229
v 0.039500 -0.013315 -0.004326
v 0.039500 0.000000 -0.014000
v 0.039500 -0.004326 -0.013315
v 0.039500 -0.008229 -0.011326
v 0.046500 0.004326 0.013315
v 0.046500 0.008229 0.011326
v 0.046500 0.011326 0.008229
v 0.046500 -0.014000 0.000000
v 0.046500 -0.011326 -0.008229
v 0.046500 0.011326 -0.008229
v 0.046500 0.000000 -0.014000
v 0.046500 -0.004326 -0.013315
v 0.046500 0.004326 -0.013315
v 0.046500 -0.008229 -0.011326
v 0.046500 0.008229 -0.011326
v 0.046500 -0.013315 -0.004326
v 0.046500 -0.004326 0.013315
v 0.046500 0.000000 0.014000
v 0.046500 -0.013315 0.004326
v 0.046500 -0.011326 0.008229
v 0.046500 -0.008229 0.011326
vn -0.2490 -0.9317 0.2646
vn -0.2187 -0.6900 0.6900
vn -0.2646 -0.2490 0.9317
vn -0.6900 -0.2187 0.6900
vn -0.9317 -0.2646 0.2490
vn -0.6900 -0.6900 0.2187
vn -0.5774 -0.5774 0.5773
vn -0.2490 0.2646 0.9317
vn -0.2187 0.6900 0.6900
vn -0.2646 0.9317 0.2490
vn -0.6900 0.6900 0.2187
vn -0.9317 0.2490 0.2646
vn -0.6900 0.2187 0.6900
vn -0.5774 0.5774 0.5773
vn -0.2646 -0.9317 -0.2490
vn -0.6900 -0.6900 -0.2187
vn -0.9317 -0.2490 -0.2646
vn -0.6900 -0.2187 -0.6900
vn -0.2490 -0.2646 -0.9317
vn -0.2187 -0.6900 -0.6900
vn -0.5774 -0.5774 -0.5773
vn -0.2490 0.9317 -0.2646
vn -0.2187 0.6900 -0.6900
vn -0.2646 0.2490 -0.9317
vn -0.6900 0.2187 -0.6900
vn -0.9317 0.2646 -0.2490
vn -0.6900 0.6900 -0.2187
vn -0.5774 0.5774 -0.5773
vn 0.2646 -0.9317 0.2490
vn 0.6900 -0.6900 0.2187
vn 0.9317 -0.2490 0.2646
vn 0.6900 -0.2187 0.6900
vn 0.2490 -0.2646 0.9317
vn 0.2187 -0.6900 0.6900
vn 0.5774 -0.5774 0.5773
vn 0.2490 0.9317 0.2646
vn 0.2187 0.6900 0.6900
vn 0.2646 0.2490 0.9317
vn 0.6900 0.2187 0.6900
vn 0.9317 0.2646 0.2490
vn 0.6900 0.6900 0.2187
vn 0.5774 0.5774 0.5773
vn 0.2490 -0.9317 -0.2646
vn 0.2187 -0.6900 -0.6900
vn 0.2646 -0.2490 -0.9317
vn 0.6900 -0.2187 -0.6900
vn 0.9317 -0.2646 -0.2490
vn 0.6900 -0.6900 -0.2187
vn 0.5774 -0.5774 -0.5773
vn 0.2646 0.9317 -0.2490
vn 0.6900 0.6900 -0.2187
vn 0.9317 0.2490 -0.2646
vn 0.6900 0.2187 -0.6900
vn 0.2490 0.2646 -0.9317
vn 0.2187 0.6900 -0.6900
vn 0.5774 0.5774 -0.5773
vn -0.2582 -0.9661 -0.0000
vn -0.7071 -0.7071 -0.0000
vn -0.9661 -0.2582 -0.0000
vn -0.2582 -0.0000 0.9661
vn -0.7071 -0.0000 0.7071
vn -0.9661 -0.0000 0.2582
vn -0.2582 0.9661 -0.0000
vn -0.7071 0.7071 -0.0000
vn -0.9661 0.2582 -0.0000
vn -0.2582 -0.0000 -0.9661
vn -0.7071 -0.0000 -0.7071
vn -0.9661 -0.0000 -0.2582
vn -0.0000 -0.9661 -0.2582
vn -0.0000 -0.7071 -0.7071
vn -0.0000 -0.2582 -0.9661
vn -0.0000 0.9661 -0.2582
vn -0.0000 0.7071 -0.7071
vn -0.0000 0.2582 -0.9661
vn 0.9661 -0.0000 -0.2582
vn 0.7071 -0.0000 -0.7071
vn 0.2582 -0.0000 -0.9661
vn 0.2582 -0.9661 -0.0000
vn 0.7071 -0.7071 -0.0000
vn 0.9661 -0.2582 -0.0000
vn 0.2582 0.9661 -0.0000
vn 0.7071 0.7071 -0.0000
vn 0.9661 0.2582 -0.0000
vn 0.2582 -0.0000 0.9661
vn 0.7071 -0.0000 0.7071
vn 0.9661 -0.0000 0.2582
vn -0.0000 -0.9661 0.2582
vn -0.0000 -0.7071 0.7071
vn -0.0000 -0.2582 0.9661
vn -0.0000 0.9661 0.2582
vn -0.0000 0.7071 0.7071
vn -0.0000 0.2582 0.9661
vn -0.0000 -1.0000 -0.0000
vn -1.0000 -0.0000 -0.0000
vn -0.0000 -0.0000 1.0000
vn -0.0000 1.0000 -0.0000
vn -0.0000 -0.0000 -1.0000
vn 1.0000 -0.0000 -0.0000
vn -0.5774 -0.5773 0.5774
vn -0.5774 -0.5773 -0.5774
vn 0.5773 -0.5773 0.5774
vn 0.5774 0.5773 0.5774
vn 0.5773 -0.5773 -0.5774
vn 0.5774 0.5773 -0.5774
vn -0.7081 0.7061 -0.0000
vn -0.9662 0.2577 -0.0000
vn -0.9660 0.2586 -0.0000
vn 0.4907 0.8712 -0.0140
vn 0.9660 0.2586 -0.0000
vn -0.0000 0.1564 0.9877
vn -0.0000 0.4540 0.8910
vn -0.0000 0.8910 0.4540
vn -0.0000 0.9877 0.1564
vn -0.0000 0.9877 -0.1564
vn -0.0000 0.8910 -0.4540
vn -0.0000 0.4540 -0.8910
vn -0.0000 0.1564 -0.9877
vn -0.0000 -0.1564 -0.9877
vn -0.0000 -0.4540 -0.8910
vn -0.0000 -0.8910 -0.4540
vn -0.0000 -0.9877 -0.1564
vn -0.0000 -0.9877 0.1564
vn -0.0000 -0.8910 0.4540
vn -0.0000 -0.4540 0.8910
vn -0.0000 -0.1564 0.9877
vn -0.5773 -0.5773 0.5774
vn -0.5774 0.5773 0.5774
vn -0.5773 -0.5773 -0.5774
vn -0.5774 0.5773 -0.5774
vn 0.5774 -0.5773 0.5774
vn 0.5774 -0.5773 -0.5774
vn 0.4913 0.8709 -0.0138
vn -0.2646 -0.9317 0.2490
vn -0.2490 -0.2646 0.9317
vn -0.9317 -0.2490 0.2646
vn -0.2646 0.2490 0.9317
vn -0.2490 0.9317 0.2646
vn -0.9317 0.2646 0.2490
vn -0.2490 -0.9317 -0.2646
vn -0.9317 -0.2646 -0.2490
vn -0.2646 -0.2490 -0.9317
vn -0.2646 0.9317 -0.2490
vn -0.2490 0.2646 -0.9317
vn -0.9317 0.2490 -0.2646
vn 0.2490 -0.9317 0.2646
vn 0.9317 -0.2646 0.2490
vn 0.2646 -0.2490 0.9317
vn 0.2646 0.9317 0.2490
vn 0.2490 0.2646 0.9317
vn 0.9317 0.2490 0.2646
vn 0.2646 -0.9317 -0.2490
vn 0.2490 -0.2646 -0.9317
vn 0.9317 -0.2490 -0.2646
vn 0.2490 0.9317 -0.2646
vn 0.9317 0.2646 -0.2490
vn 0.2646 0.2490 -0.9317
vn -0.4484 0.8939 -0.0000
vn -0.4913 0.8709 0.0138
vn -0.9660 0.2585 -0.0000
vn 0.4477 0.8942 -0.0000
vn 0.7081 0.7061 -0.0000
vn 0.9662 0.2577 -0.0000
vn 0.0008 -0.8910 -0.4540
vn -0.0000 -0.8909 -0.4541
vn -0.0000 -0.9877 -0.1565
vn -0.1567 -0.9743 -0.1616
vn -0.0000 -0.9923 -0.1241
vn -0.0000 -0.9923 0.1241
vn -0.0000 -0.9877 0.1565
vn 0.1564 -0.9744 0.1616
vn 0.0008 -0.8910 0.4541
vn -0.0000 -0.8909 0.4541
vn -0.4477 0.8942 -0.0000
vn -0.4907 0.8712 0.0140
vn 0.4484 0.8939 -0.0000
vn -0.1564 -0.9744 -0.1616
vn 0.1567 -0.9743 0.1616
vn 0.0008 -0.8910 0.4540
s 0
usemtl BracketMetal
f 1//1 6//1 5//1
f 4//2 9//2 6//2
f 2//3 9//3 8//3
f 7//4 12//4 9//4
f 3//5 12//5 11//5
f 10//6 6//6 12//6
f 6//7 9//7 12//7
f 13//8 18//8 17//8
f 16//9 21//9 18//9
f 14//10 21//10 20//10
f 19//11 24//11 21//11
f 15//12 24//12 23//12
f 22//13 18//13 24//13
f 18//14 21//14 24//14
f 25//15 30//15 29//15
f 28//16 33//16 30//16
f 26//17 33//17 32//17
f 31//18 36//18 33//18
f 27//19 36//19 35//19
f 34//20 30//20 36//20
f 30//21 33//21 36//21
f 37//22 42//22 41//22
f 40//23 45//23 42//23
f 38//24 45//24 44//24
f 43//25 48//25 45//25
f 39//26 48//26 47//26
f 46//27 42//27 48//27
f 42//28 45//28 48//28
f 49//29 54//29 53//29
f 52//30 57//30 54//30
f 50//31 57//31 56//31
f 55//32 60//32 57//32
f 51//33 60//33 59//33
f 58//34 54//34 60//34
f 54//35 57//35 60//35
f 61//36 66//36 65//36
f 64//37 69//37 66//37
f 62//38 69//38 68//38
f 67//39 72//39 69//39
f 63//40 72//40 71//40
f 70//41 66//41 72//41
f 66//42 69//42 72//42
f 73//43 78//43 77//43
f 76//44 81//44 78//44
f 74//45 81//45 80//45
f 79//46 84//46 81//46
f 75//47 84//47 83//47
f 82//48 78//48 84//48
f 78//49 81//49 84//49
f 85//50 90//50 89//50
f 88//51 93//51 90//51
f 86//52 93//52 92//52
f 91//53 96//53 93//53
f 87//54 96//54 95//54
f 94//55 90//55 96//55
f 90//56 93//56 96//56
f 25//57 5//57 28//57
f 28//58 10//58 32//58
f 32//59 3//59 26//59
f 2//60 17//60 7//60
f 7//61 22//61 11//61
f 11//62 15//62 3//62
f 14//63 41//63 19//63
f 19//64 46//64 23//64
f 23//65 39//65 15//65
f 38//66 35//66 43//66
f 43//67 31//67 47//67
f 47//68 26//68 39//68
f 73//69 29//69 76//69
f 76//70 34//70 80//70
f 80//71 27//71 74//71
f 37//72 89//72 40//72
f 40//73 94//73 44//73
f 44//74 87//74 38//74
f 86//75 83//75 91//75
f 91//76 79//76 95//76
f 95//77 74//77 87//77
f 49//78 77//78 52//78
f 52//79 82//79 56//79
f 56//80 75//80 50//80
f 85//81 65//81 88//81
f 88//82 70//82 92//82
f 92//83 63//83 86//83
f 62//84 59//84 67//84
f 67//85 55//85 71//85
f 71//86 50//86 63//86
f 1//87 53//87 4//87
f 4//88 58//88 8//88
f 8//89 51//89 2//89
f 61//90 20//90 64//90
f 64//91 16//91 68//91
f 68//92 13//92 62//92
f 25//93 49//93 1//93
f 3//94 39//94 26//94
f 51//95 13//95 2//95
f 85//96 14//96 61//96
f 27//97 87//97 74//97
f 75//98 63//98 50//98
f 97//1 102//1 101//1
f 100//2 105//2 102//2
f 98//3 105//3 104//3
f 103//4 108//4 105//4
f 99//5 108//5 107//5
f 106//6 102//6 108//6
f 102//99 105//99 108//99
f 109//8 114//8 113//8
f 112//9 117//9 114//9
f 110//10 117//10 116//10
f 115//11 120//11 117//11
f 111//12 120//12 119//12
f 118//13 114//13 120//13
f 114//14 117//14 120//14
f 121//15 126//15 125//15
f 124//16 129//16 126//16
f 122//17 129//17 128//17
f 127//18 132//18 129//18
f 123//19 132//19 131//19
f 130//20 126//20 132//20
f 126//100 129//100 132//100
f 133//22 138//22 137//22
f 136//23 141//23 138//23
f 134//24 141//24 140//24
f 139//25 144//25 141//25
f 135//26 144//26 143//26
f 142//27 138//27 144//27
f 138//28 141//28 144//28
f 145//29 150//29 149//29
f 148//30 153//30 150//30
f 146//31 153//31 152//31
f 151//32 156//32 153//32
f 147//33 156//33 155//33
f 154//34 150//34 156//34
f 150//101 153//101 156//101
f 157//36 162//36 161//36
f 160//37 165//37 162//37
f 158//38 165//38 164//38
f 163//39 168//39 165//39
f 159//40 168//40 167//40
f 166//41 162//41 168//41
f 162//102 165//102 168//102
f 169//43 174//43 173//43
f 172//44 177//44 174//44
f 170//45 177//45 176//45
f 175//46 180//46 177//46
f 171//47 180//47 179//47
f 178//48 174//48 180//48
f 174//103 177//103 180//103
f 181//50 186//50 185//50
f 184//51 189//51 186//51
f 182//52 189//52 188//52
f 187//53 192//53 189//53
f 183//54 192//54 191//54
f 190//55 186//55 192//55
f 186//104 189//104 192//104
f 121//57 101//57 124//57
f 124//58 106//58 128//58
f 128//59 99//59 122//59
f 98//60 113//60 103//60
f 103//61 118//61 107//61
f 107//62 111//62 99//62
f 110//63 137//63 115//63
f 137//105 194//105 119//105
f 142//106 199//106 198//106
f 193//107 196//107 111//107
f 134//66 131//66 139//66
f 139//67 127//67 143//67
f 143//68 122//68 135//68
f 169//69 125//69 172//69
f 172//70 130//70 176//70
f 176//71 123//71 170//71
f 133//72 185//72 136//72
f 136//73 190//73 140//73
f 140//74 183//74 134//74
f 182//75 179//75 187//75
f 187//76 175//76 191//76
f 191//77 170//77 183//77
f 145//78 173//78 148//78
f 148//79 178//79 152//79
f 152//80 171//80 146//80
f 181//81 161//81 184//81
f 161//108 200//108 201//108
f 159//109 204//109 200//109
f 182//109 202//109 206//109
f 158//84 155//84 163//84
f 163//85 151//85 167//85
f 167//86 146//86 159//86
f 97//87 149//87 100//87
f 100//88 154//88 104//88
f 104//89 147//89 98//89
f 157//90 116//90 160//90
f 160//91 112//91 164//91
f 164//92 109//92 158//92
f 121//93 145//93 97//93
f 99//94 215//94 220//94
f 147//95 109//95 98//95
f 181//96 110//96 157//96
f 123//97 183//97 170//97
f 171//98 227//98 238//98
f 221//110 231//110 230//110
f 222//111 233//111 231//111
f 223//91 228//91 233//91
f 219//112 235//112 228//112
f 220//113 227//113 235//113
f 215//114 238//114 227//114
f 214//115 239//115 238//115
f 212//73 240//73 239//73
f 208//116 240//116 210//116
f 207//117 236//117 208//117
f 237//118 209//118 224//118
f 213//119 224//119 209//119
f 211//70 225//70 213//70
f 196//120 203//120 211//120
f 196//121 194//121 200//121
f 195//122 206//122 201//122
f 216//123 205//123 198//123
f 218//88 229//88 216//88
f 218//124 232//124 234//124
f 217//125 230//125 232//125
f 241//1 246//1 245//1
f 244//2 249//2 246//2
f 242//3 249//3 248//3
f 247//4 252//4 249//4
f 243//5 252//5 251//5
f 250//6 246//6 252//6
f 246//126 249//126 252//126
f 253//8 258//8 257//8
f 256//9 261//9 258//9
f 254//10 261//10 260//10
f 259//11 264//11 261//11
f 255//12 264//12 263//12
f 262//13 258//13 264//13
f 258//127 261//127 264//127
f 265//15 270//15 269//15
f 268//16 273//16 270//16
f 266//17 273//17 272//17
f 271//18 276//18 273//18
f 267//19 276//19 275//19
f 274//20 270//20 276//20
f 270//128 273//128 276//128
f 277//22 282//22 281//22
f 280//23 285//23 282//23
f 278//24 285//24 284//24
f 283//25 288//25 285//25
f 279//26 288//26 287//26
f 286//27 282//27 288//27
f 282//129 285//129 288//129
f 289//29 294//29 293//29
f 292//30 297//30 294//30
f 290//31 297//31 296//31
f 295//32 300//32 297//32
f 291//33 300//33 299//33
f 298//34 294//34 300//34
f 294//130 297//130 300//130
f 301//36 306//36 305//36
f 304//37 309//37 306//37
f 302//38 309//38 308//38
f 307//39 312//39 309//39
f 303//40 312//40 311//40
f 310//41 306//41 312//41
f 306//42 309//42 312//42
f 313//43 318//43 317//43
f 316//44 321//44 318//44
f 314//45 321//45 320//45
f 319//46 324//46 321//46
f 315//47 324//47 323//47
f 322//48 318//48 324//48
f 318//131 321//131 324//131
f 325//50 330//50 329//50
f 328//51 333//51 330//51
f 326//52 333//52 332//52
f 331//53 336//53 333//53
f 327//54 336//54 335//54
f 334//55 330//55 336//55
f 330//56 333//56 336//56
f 265//57 245//57 268//57
f 268//58 250//58 272//58
f 272//59 243//59 266//59
f 242//60 257//60 247//60
f 247//61 262//61 251//61
f 251//62 255//62 243//62
f 254//63 281//63 259//63
f 281//105 338//105 263//105
f 286//106 343//106 342//106
f 337//107 340//107 255//107
f 278//66 275//66 283//66
f 283//67 271//67 287//67
f 287//68 266//68 279//68
f 313//69 269//69 316//69
f 316//70 274//70 320//70
f 320//71 267//71 314//71
f 277//72 329//72 280//72
f 280//73 334//73 284//73
f 284//74 327//74 278//74
f 326//75 323//75 331//75
f 331//76 319//76 335//76
f 335//77 314//77 327//77
f 289//78 317//78 292//78
f 292//79 322//79 296//79
f 296//80 315//80 290//80
f 325//81 305//81 328//81
f 305//132 344//132 345//132
f 303//109 348//109 344//109
f 326//109 346//109 350//109
f 302//84 299//84 307//84
f 307//85 295//85 311//85
f 311//86 290//86 303//86
f 241//87 293//87 244//87
f 244//88 298//88 248//88
f 248//89 291//89 242//89
f 301//90 260//90 304//90
f 304//91 256//91 308//91
f 308//92 253//92 302//92
f 265//93 289//93 241//93
f 243//94 359//94 364//94
f 291//95 253//95 242//95
f 325//96 254//96 301//96
f 267//97 327//97 314//97
f 315//98 371//98 382//98
f 365//110 375//110 374//110
f 366//111 377//111 375//111
f 367//91 372//91 377//91
f 363//112 379//112 372//112
f 364//113 371//113 379//113
f 359//114 382//114 371//114
f 358//115 383//115 382//115
f 356//73 384//73 383//73
f 352//116 384//116 354//116
f 351//117 380//117 352//117
f 381//118 353//118 368//118
f 357//119 368//119 353//119
f 355//70 369//70 357//70
f 340//120 347//120 355//120
f 340//121 338//121 344//121
f 339//122 350//122 345//122
f 360//123 349//123 342//123
f 362//88 373//88 360//88
f 362//124 376//124 378//124
f 361//125 374//125 376//125
f 1//133 4//133 6//133
f 4//2 8//2 9//2
f 2//134 7//134 9//134
f 7//4 11//4 12//4
f 3//135 10//135 12//135
f 10//6 5//6 6//6
f 13//136 16//136 18//136
f 16//9 20//9 21//9
f 14//137 19//137 21//137
f 19//11 23//11 24//11
f 15//138 22//138 24//138
f 22//13 17//13 18//13
f 25//139 28//139 30//139
f 28//16 32//16 33//16
f 26//140 31//140 33//140
f 31//18 35//18 36//18
f 27//141 34//141 36//141
f 34//20 29//20 30//20
f 37//142 40//142 42//142
f 40//23 44//23 45//23
f 38//143 43//143 45//143
f 43//25 47//25 48//25
f 39//144 46//144 48//144
f 46//27 41//27 42//27
f 49//145 52//145 54//145
f 52//30 56//30 57//30
f 50//146 55//146 57//146
f 55//32 59//32 60//32
f 51//147 58//147 60//147
f 58//34 53//34 54//34
f 61//148 64//148 66//148
f 64//37 68//37 69//37
f 62//149 67//149 69//149
f 67//39 71//39 72//39
f 63//150 70//150 72//150
f 70//41 65//41 66//41
f 73//151 76//151 78//151
f 76//44 80//44 81//44
f 74//152 79//152 81//152
f 79//46 83//46 84//46
f 75//153 82//153 84//153
f 82//48 77//48 78//48
f 85//154 88//154 90//154
f 88//51 92//51 93//51
f 86//155 91//155 93//155
f 91//53 95//53 96//53
f 87//156 94//156 96//156
f 94//55 89//55 90//55
f 25//57 1//57 5//57
f 28//58 5//58 10//58
f 32//59 10//59 3//59
f 2//60 13//60 17//60
f 7//61 17//61 22//61
f 11//62 22//62 15//62
f 14//63 37//63 41//63
f 19//64 41//64 46//64
f 23//65 46//65 39//65
f 38//66 27//66 35//66
f 43//67 35//67 31//67
f 47//68 31//68 26//68
f 73//69 25//69 29//69
f 76//70 29//70 34//70
f 80//71 34//71 27//71
f 37//72 85//72 89//72
f 40//73 89//73 94//73
f 44//74 94//74 87//74
f 86//75 75//75 83//75
f 91//76 83//76 79//76
f 95//77 79//77 74//77
f 49//78 73//78 77//78
f 52//79 77//79 82//79
f 56//80 82//80 75//80
f 85//81 61//81 65//81
f 88//82 65//82 70//82
f 92//83 70//83 63//83
f 62//84 51//84 59//84
f 67//85 59//85 55//85
f 71//86 55//86 50//86
f 1//87 49//87 53//87
f 4//88 53//88 58//88
f 8//89 58//89 51//89
f 61//90 14//90 20//90
f 64//91 20//91 16//91
f 68//92 16//92 13//92
f 25//93 73//93 49//93
f 3//94 15//94 39//94
f 51//95 62//95 13//95
f 85//96 37//96 14//96
f 27//97 38//97 87//97
f 75//98 86//98 63//98
f 97//133 100//133 102//133
f 100//2 104//2 105//2
f 98//134 103//134 105//134
f 103//4 107//4 108//4
f 99//135 106//135 108//135
f 106//6 101//6 102//6
f 109//136 112//136 114//136
f 112//9 116//9 117//9
f 110//137 115//137 117//137
f 115//11 119//11 120//11
f 111//138 118//138 120//138
f 118//13 113//13 114//13
f 121//139 124//139 126//139
f 124//16 128//16 129//16
f 122//140 127//140 129//140
f 127//18 131//18 132//18
f 123//141 130//141 132//141
f 130//20 125//20 126//20
f 133//142 136//142 138//142
f 136//23 140//23 141//23
f 134//143 139//143 141//143
f 139//25 143//25 144//25
f 135//144 142//144 144//144
f 142//27 137//27 138//27
f 145//145 148//145 150//145
f 148//30 152//30 153//30
f 146//146 151//146 153//146
f 151//32 155//32 156//32
f 147//147 154//147 156//147
f 154//34 149//34 150//34
f 157//148 160//148 162//148
f 160//37 164//37 165//37
f 158//149 163//149 165//149
f 163//39 167//39 168//39
f 159//150 166//150 168//150
f 166//41 161//41 162//41
f 169//151 172//151 174//151
f 172//44 176//44 177//44
f 170//152 175//152 177//152
f 175//46 179//46 180//46
f 171//153 178//153 180//153
f 178//48 173//48 174//48
f 181//154 184//154 186//154
f 184//51 188//51 189//51
f 182//155 187//155 189//155
f 187//53 191//53 192//53
f 183//156 190//156 192//156
f 190//55 185//55 186//55
f 121//57 97//57 101//57
f 124//58 101//58 106//58
f 128//59 106//59 99//59
f 98//60 109//60 113//60
f 103//61 113//61 118//61
f 107//62 118//62 111//62
f 110//63 133//63 137//63
f 119//64 115//64 137//64
f 137//64 142//64 195//64
f 194//157 193//157 119//157
f 137//158 195//158 194//158
f 198//159 195//159 142//159
f 142//65 135//65 199//65
f 111//65 119//65 193//65
f 196//106 197//106 111//106
f 134//66 123//66 131//66
f 139//67 131//67 127//67
f 143//68 127//68 122//68
f 169//69 121//69 125//69
f 172//70 125//70 130//70
f 176//71 130//71 123//71
f 133//72 181//72 185//72
f 136//73 185//73 190//73
f 140//74 190//74 183//74
f 182//75 171//75 179//75
f 187//76 179//76 175//76
f 191//77 175//77 170//77
f 145//78 169//78 173//78
f 148//79 173//79 178//79
f 152//80 178//80 171//80
f 181//81 157//81 161//81
f 201//160 202//160 188//160
f 188//82 184//82 161//82
f 161//82 166//82 200//82
f 201//161 188//161 161//161
f 200//83 166//83 159//83
f 159//162 203//162 204//162
f 206//162 205//162 182//162
f 182//83 188//83 202//83
f 158//84 147//84 155//84
f 163//85 155//85 151//85
f 167//86 151//86 146//86
f 97//87 145//87 149//87
f 100//88 149//88 154//88
f 104//89 154//89 147//89
f 157//90 110//90 116//90
f 160//91 116//91 112//91
f 164//92 112//92 109//92
f 121//93 169//93 145//93
f 216//94 199//94 135//94
f 111//94 197//94 211//94
f 111//94 211//94 213//94
f 218//94 216//94 135//94
f 217//94 218//94 135//94
f 111//94 213//94 209//94
f 111//94 209//94 207//94
f 221//94 217//94 135//94
f 222//94 221//94 135//94
f 99//94 111//94 207//94
f 99//94 207//94 208//94
f 222//94 135//94 122//94
f 223//94 222//94 122//94
f 99//94 208//94 210//94
f 99//94 210//94 212//94
f 223//94 122//94 99//94
f 219//94 223//94 99//94
f 99//94 212//94 214//94
f 99//94 214//94 215//94
f 220//94 219//94 99//94
f 147//95 158//95 109//95
f 181//96 133//96 110//96
f 123//97 134//97 183//97
f 226//98 203//98 159//98
f 182//98 205//98 229//98
f 182//98 229//98 234//98
f 225//98 226//98 159//98
f 224//98 225//98 159//98
f 182//98 234//98 232//98
f 182//98 232//98 230//98
f 237//98 224//98 159//98
f 236//98 237//98 159//98
f 171//98 182//98 230//98
f 171//98 230//98 231//98
f 236//98 159//98 146//98
f 240//98 236//98 146//98
f 171//98 231//98 233//98
f 171//98 233//98 228//98
f 240//98 146//98 171//98
f 239//98 240//98 171//98
f 171//98 228//98 235//98
f 171//98 235//98 227//98
f 238//98 239//98 171//98
f 221//110 222//110 231//110
f 222//111 223//111 233//111
f 223//91 219//91 228//91
f 219//112 220//112 235//112
f 220//113 215//113 227//113
f 215//114 214//114 238//114
f 214//115 212//115 239//115
f 212//73 210//73 240//73
f 208//116 236//116 240//116
f 207//117 237//117 236//117
f 237//118 207//118 209//118
f 213//119 225//119 224//119
f 211//70 226//70 225//70
f 211//163 197//163 196//163
f 196//164 204//164 203//164
f 203//120 226//120 211//120
f 200//165 204//165 196//165
f 196//166 193//166 194//166
f 194//167 201//167 200//167
f 201//168 194//168 195//168
f 195//169 198//169 206//169
f 206//170 202//170 201//170
f 198//171 199//171 216//171
f 216//123 229//123 205//123
f 205//172 206//172 198//172
f 218//88 234//88 229//88
f 218//124 217//124 232//124
f 217//125 221//125 230//125
f 241//133 244//133 246//133
f 244//2 248//2 249//2
f 242//134 247//134 249//134
f 247//4 251//4 252//4
f 243//135 250//135 252//135
f 250//6 245//6 246//6
f 253//136 256//136 258//136
f 256//9 260//9 261//9
f 254//137 259//137 261//137
f 259//11 263//11 264//11
f 255//138 262//138 264//138
f 262//13 257//13 258//13
f 265//139 268//139 270//139
f 268//16 272//16 273//16
f 266//140 271//140 273//140
f 271//18 275//18 276//18
f 267//141 274//141 276//141
f 274//20 269//20 270//20
f 277//142 280//142 282//142
f 280//23 284//23 285//23
f 278//143 283//143 285//143
f 283//25 287//25 288//25
f 279//144 286//144 288//144
f 286//27 281//27 282//27
f 289//145 292//145 294//145
f 292//30 296//30 297//30
f 290//146 295//146 297//146
f 295//32 299//32 300//32
f 291//147 298//147 300//147
f 298//34 293//34 294//34
f 301//148 304//148 306//148
f 304//37 308//37 309//37
f 302//149 307//149 309//149
f 307//39 311//39 312//39
f 303//150 310//150 312//150
f 310//41 305//41 306//41
f 313//151 316//151 318//151
f 316//44 320//44 321//44
f 314//152 319//152 321//152
f 319//46 323//46 324//46
f 315//153 322//153 324//153
f 322//48 317//48 318//48
f 325//154 328//154 330//154
f 328//51 332//51 333//51
f 326//155 331//155 333//155
f 331//53 335//53 336//53
f 327//156 334//156 336//156
f 334//55 329//55 330//55
f 265//57 241//57 245//57
f 268//58 245//58 250//58
f 272//59 250//59 243//59
f 242//60 253//60 257//60
f 247//61 257//61 262//61
f 251//62 262//62 255//62
f 254//63 277//63 281//63
f 263//64 259//64 281//64
f 281//64 286//64 339//64
f 338//173 337//173 263//173
f 281//174 339//174 338//174
f 342//159 339//159 286//159
f 286//65 279//65 343//65
f 255//65 263//65 337//65
f 340//106 341//106 255//106
f 278//66 267//66 275//66
f 283//67 275//67 271//67
f 287//68 271//68 266//68
f 313//69 265//69 269//69
f 316//70 269//70 274//70
f 320//71 274//71 267//71
f 277//72 325//72 329//72
f 280//73 329//73 334//73
f 284//74 334//74 327//74
f 326//75 315//75 323//75
f 331//76 323//76 319//76
f 335//77 319//77 314//77
f 289//78 313//78 317//78
f 292//79 317//79 322//79
f 296//80 322//80 315//80
f 325//81 301//81 305//81
f 345//175 346//175 332//175
f 332//82 328//82 305//82
f 305//82 310//82 344//82
f 345//161 332//161 305//161
f 344//83 310//83 303//83
f 303//162 347//162 348//162
f 350//162 349//162 326//162
f 326//83 332//83 346//83
f 302//84 291//84 299//84
f 307//85 299//85 295//85
f 311//86 295//86 290//86
f 241//87 289//87 293//87
f 244//88 293//88 298//88
f 248//89 298//89 291//89
f 301//90 254//90 260//90
f 304//91 260//91 256//91
f 308//92 256//92 253//92
f 265//93 313//93 289//93
f 360//94 343//94 279//94
f 255//94 341//94 355//94
f 255//94 355//94 357//94
f 362//94 360//94 279//94
f 361//94 362//94 279//94
f 255//94 357//94 353//94
f 255//94 353//94 351//94
f 365//94 361//94 279//94
f 366//94 365//94 279//94
f 243//94 255//94 351//94
f 243//94 351//94 352//94
f 366//94 279//94 266//94
f 367//94 366//94 266//94
f 243//94 352//94 354//94
f 243//94 354//94 356//94
f 367//94 266//94 243//94
f 363//94 367//94 243//94
f 243//94 356//94 358//94
f 243//94 358//94 359//94
f 364//94 363//94 243//94
f 291//95 302//95 253//95
f 325//96 277//96 254//96
f 267//97 278//97 327//97
f 370//98 347//98 303//98
f 326//98 349//98 373//98
f 326//98 373//98 378//98
f 369//98 370//98 303//98
f 368//98 369//98 303//98
f 326//98 378//98 376//98
f 326//98 376//98 374//98
f 381//98 368//98 303//98
f 380//98 381//98 303//98
f 315//98 326//98 374//98
f 315//98 374//98 375//98
f 380//98 303//98 290//98
f 384//98 380//98 290//98
f 315//98 375//98 377//98
f 315//98 377//98 372//98
f 384//98 290//98 315//98
f 383//98 384//98 315//98
f 315//98 372//98 379//98
f 315//98 379//98 371//98
f 382//98 383//98 315//98
f 365//110 366//110 375//110
f 366//111 367//111 377//111
f 367//91 363//91 372//91
f 363//112 364//112 379//112
f 364//113 359//113 371//113
f 359//114 358//114 382//114
f 358//115 356//115 383//115
f 356//73 354//73 384//73
f 352//116 380//116 384//116
f 351//117 381//117 380//117
f 381//118 351//118 353//118
f 357//119 369//119 368//119
f 355//70 370//70 369//70
f 355//163 341//163 340//163
f 340//164 348//164 347//164
f 347//120 370//120 355//120
f 344//165 348//165 340//165
f 340//176 337//176 338//176
f 338//167 345//167 344//167
f 345//168 338//168 339//168
f 339//169 342//169 350//169
f 350//177 346//177 345//177
f 342//178 343//178 360//178
f 360//123 373//123 349//123
f 349//172 350//172 342//172
f 362//88 378//88 373//88
f 362//124 361//124 376//124
f 361//125 365//125 374//125
