# Blender 5.2.1 LTS
# www.blender.org
mtllib arm_link.mtl
o arm_link
v -0.004984 -0.039300 -0.004300
v -0.004284 -0.039300 -0.005000
v -0.002000 0.016000 0.004650
v -0.001750 0.033000 0.004650
v -0.002350 -0.003000 0.004650
v -0.001750 0.035000 0.004650
v -0.002000 0.018000 0.004650
v -0.002850 -0.024000 0.004650
v -0.002350 -0.001000 0.004650
v 0.001750 0.033000 0.004650
v -0.004300 -0.040000 -0.004300
v 0.001750 0.035000 0.004650
v -0.004891 -0.039300 -0.004650
v 0.002000 0.016000 0.004650
v 0.002000 0.018000 0.004650
v -0.002850 -0.022000 0.004650
v 0.002350 -0.003000 0.004650
v -0.004899 -0.039650 -0.004300
v 0.002350 -0.001000 0.004650
v -0.004807 -0.039635 -0.004635
v -0.004292 -0.039650 -0.004906
v 0.002850 -0.024000 0.004650
v 0.002850 -0.022000 0.004650
v -0.004634 -0.039300 -0.004906
v -0.004626 -0.039635 -0.004816
v -0.004647 -0.039907 -0.004300
v -0.004298 -0.039906 -0.004650
v -0.004631 -0.039816 -0.004635
v 0.004984 -0.039300 -0.004300
v 0.004300 -0.040000 -0.004300
v 0.004284 -0.039300 -0.005000
v 0.004899 -0.039650 -0.004300
v 0.004891 -0.039300 -0.004650
v 0.004807 -0.039635 -0.004635
v 0.004298 -0.039906 -0.004650
v 0.004647 -0.039907 -0.004300
v 0.004631 -0.039816 -0.004635
v 0.004634 -0.039300 -0.004906
v 0.004292 -0.039650 -0.004906
v 0.004626 -0.039635 -0.004816
v 0.002500 0.040000 -0.004300
v 0.003216 0.039300 -0.004300
v 0.002516 0.039300 -0.005000
v 0.002852 0.039907 -0.004300
v 0.002502 0.039906 -0.004650
v 0.002839 0.039816 -0.004635
v 0.003122 0.039300 -0.004650
v 0.003114 0.039650 -0.004300
v 0.003024 0.039635 -0.004635
v 0.002508 0.039650 -0.004906
v 0.002865 0.039300 -0.004906
v 0.002843 0.039635 -0.004816
v -0.003216 0.039300 -0.004300
v -0.002500 0.040000 -0.004300
v -0.002516 0.039300 -0.005000
v -0.003114 0.039650 -0.004300
v -0.003122 0.039300 -0.004650
v -0.003024 0.039635 -0.004635
v -0.002502 0.039906 -0.004650
v -0.002852 0.039907 -0.004300
v -0.002839 0.039816 -0.004635
v -0.002865 0.039300 -0.004906
v -0.002508 0.039650 -0.004906
v -0.002843 0.039635 -0.004816
v -0.004984 -0.039300 0.004300
v -0.004300 -0.040000 0.004300
v -0.004284 -0.039300 0.005000
v -0.004899 -0.039650 0.004300
v -0.004891 -0.039300 0.004650
v -0.004807 -0.039635 0.004635
v -0.004298 -0.039906 0.004650
v -0.004647 -0.039907 0.004300
v -0.004631 -0.039816 0.004635
v -0.004634 -0.039300 0.004906
v -0.004292 -0.039650 0.004906
v -0.004626 -0.039635 0.004816
v 0.004300 -0.040000 0.004300
v 0.004984 -0.039300 0.004300
v 0.004284 -0.039300 0.005000
v 0.004647 -0.039907 0.004300
v 0.004298 -0.039906 0.004650
v 0.004631 -0.039816 0.004635
v 0.004891 -0.039300 0.004650
v 0.004899 -0.039650 0.004300
v 0.004807 -0.039635 0.004635
v 0.004292 -0.039650 0.004906
v 0.004634 -0.039300 0.004906
v 0.004626 -0.039635 0.004816
v 0.003216 0.039300 0.004300
v 0.002500 0.040000 0.004300
v 0.002516 0.039300 0.005000
v 0.003114 0.039650 0.004300
v 0.003122 0.039300 0.004650
v 0.003024 0.039635 0.004635
v 0.002502 0.039906 0.004650
v 0.002852 0.039907 0.004300
v 0.002839 0.039816 0.004635
v 0.002865 0.039300 0.004906
v 0.002508 0.039650 0.004906
v 0.002843 0.039635 0.004816
v -0.003216 0.039300 0.004300
v -0.002516 0.039300 0.005000
v -0.002500 0.040000 0.004300
v -0.003122 0.039300 0.004650
v -0.003114 0.039650 0.004300
v -0.003024 0.039635 0.004635
v -0.002508 0.039650 0.004906
v -0.002865 0.039300 0.004906
v -0.002843 0.039635 0.004816
v -0.002852 0.039907 0.004300
v -0.002502 0.039906 0.004650
v -0.002839 0.039816 0.004635
v -0.001250 -0.012000 -0.005000
v -0.001011 -0.012735 -0.005000
v -0.001189 -0.012386 -0.005000
v -0.001189 -0.011614 -0.005000
v -0.000386 -0.013189 -0.005000
v -0.000055 -0.013241 -0.005000
v -0.000386 -0.010811 -0.005000
v -0.000735 -0.013011 -0.005000
v -0.000735 -0.010989 -0.005000
v -0.001011 -0.011265 -0.005000
v 0.000735 -0.010989 -0.005000
v 0.000386 -0.013189 -0.005000
v 0.000386 -0.010811 -0.005000
v 0.001011 -0.012735 -0.005000
v 0.001250 -0.012000 -0.005000
v 0.001189 -0.012386 -0.005000
v 0.001189 -0.011614 -0.005000
v 0.000000 -0.013250 -0.005000
v 0.000735 -0.013011 -0.005000
v 0.001011 -0.011265 -0.005000
v 0.000000 -0.010750 -0.005000
v -0.001189 -0.012386 0.005000
v -0.001250 -0.012000 0.005000
v -0.001011 -0.012735 0.005000
v -0.001189 -0.011614 0.005000
v -0.000735 -0.013011 0.005000
v -0.000386 -0.010811 0.005000
v -0.000386 -0.013189 0.005000
v -0.000735 -0.010989 0.005000
v 0.000000 -0.013250 0.005000
v -0.001011 -0.011265 0.005000
v 0.000735 -0.013011 0.005000
v 0.000735 -0.010989 0.005000
v 0.000055 -0.013241 0.005000
v 0.000386 -0.013189 0.005000
v 0.000386 -0.010811 0.005000
v 0.001250 -0.012000 0.005000
v 0.001189 -0.011614 0.005000
v 0.001011 -0.012735 0.005000
v 0.001189 -0.012386 0.005000
v 0.001011 -0.011265 0.005000
v 0.000000 -0.010750 0.005000
v -0.001250 0.008000 -0.005000
v -0.001011 0.007265 -0.005000
v -0.001189 0.007614 -0.005000
v -0.001189 0.008386 -0.005000
v -0.001011 0.008735 -0.005000
v -0.000735 0.006989 -0.005000
v -0.000735 0.009011 -0.005000
v -0.000386 0.006811 -0.005000
v -0.000386 0.009189 -0.005000
v 0.000000 0.009250 -0.005000
v 0.000000 0.006750 -0.005000
v 0.000386 0.009189 -0.005000
v 0.000386 0.006811 -0.005000
v 0.000417 0.006827 -0.005000
v 0.001189 0.007614 -0.005000
v 0.001250 0.008000 -0.005000
v 0.000735 0.009011 -0.005000
v 0.000642 0.006941 -0.005000
v 0.001011 0.007265 -0.005000
v 0.001189 0.008386 -0.005000
v 0.001011 0.008735 -0.005000
v 0.000735 0.006989 -0.005000
v 0.000735 0.006989 0.005000
v 0.000386 0.006811 0.005000
v 0.000386 0.009189 0.005000
v 0.001011 0.008735 0.005000
v 0.001250 0.008000 0.005000
v 0.001189 0.008386 0.005000
v 0.001011 0.007265 0.005000
v 0.001189 0.007614 0.005000
v 0.000735 0.009011 0.005000
v 0.000000 0.006750 0.005000
v 0.000000 0.009250 0.005000
v -0.000386 0.009189 0.005000
v -0.000386 0.006811 0.005000
v -0.000417 0.006827 0.005000
v -0.001250 0.008000 0.005000
v -0.001189 0.007614 0.005000
v -0.000735 0.009011 0.005000
v -0.000642 0.006941 0.005000
v -0.001189 0.008386 0.005000
v -0.001011 0.007265 0.005000
v -0.001011 0.008735 0.005000
v -0.000735 0.006989 0.005000
v -0.000735 0.024989 -0.005000
v -0.000735 0.027011 -0.005000
v 0.000000 0.024750 -0.005000
v 0.000000 0.027250 -0.005000
v -0.000386 0.024811 -0.005000
v -0.000386 0.027189 -0.005000
v 0.000735 0.024989 -0.005000
v 0.000735 0.027011 -0.005000
v 0.001250 0.026000 -0.005000
v 0.001189 0.025614 -0.005000
v 0.001189 0.026386 -0.005000
v 0.001011 0.025265 -0.005000
v 0.001011 0.026735 -0.005000
v 0.000386 0.027189 -0.005000
v 0.000386 0.024811 -0.005000
v -0.001011 0.026735 -0.005000
v -0.001189 0.026386 -0.005000
v -0.001011 0.025265 -0.005000
v -0.001189 0.025614 -0.005000
v -0.001250 0.026000 -0.005000
v -0.000735 0.024989 0.005000
v -0.000735 0.027011 0.005000
v 0.000000 0.024750 0.005000
v 0.000000 0.027250 0.005000
v -0.000386 0.024811 0.005000
v -0.000386 0.027189 0.005000
v 0.000735 0.024989 0.005000
v 0.000735 0.027011 0.005000
v 0.001250 0.026000 0.005000
v 0.001189 0.025614 0.005000
v 0.001189 0.026386 0.005000
v 0.001011 0.025265 0.005000
v 0.001011 0.026735 0.005000
v 0.000386 0.027189 0.005000
v 0.000386 0.024811 0.005000
v -0.001011 0.026735 0.005000
v -0.001189 0.026386 0.005000
v -0.001011 0.025265 0.005000
v -0.001189 0.025614 0.005000
v -0.001250 0.026000 0.005000
v 0.000000 -0.030502 -0.005000
v 0.000000 -0.030502 0.005000
v 0.000877 -0.030589 -0.005000
v 0.000877 -0.030589 0.005000
v 0.001721 -0.030845 -0.005000
v 0.001721 -0.030845 0.005000
v 0.002499 -0.031260 -0.005000
v 0.002499 -0.031260 0.005000
v 0.003180 -0.031820 -0.005000
v 0.003180 -0.031820 0.005000
v 0.003740 -0.032501 -0.005000
v 0.003740 -0.032501 0.005000
v 0.004155 -0.033279 -0.005000
v 0.004155 -0.033279 0.005000
v 0.004411 -0.034123 -0.005000
v 0.004904 -0.034025 -0.004500
v 0.004760 -0.034053 -0.004854
v 0.004411 -0.034123 0.005000
v 0.004904 -0.034025 0.004500
v 0.004760 -0.034053 0.004854
v 0.004498 -0.035000 -0.005000
v 0.005000 -0.035000 -0.004500
v 0.004853 -0.035000 -0.004854
v 0.004498 -0.035000 0.005000
v 0.005000 -0.035000 0.004500
v 0.004853 -0.035000 0.004854
v 0.004411 -0.035877 -0.005000
v 0.004904 -0.035975 -0.004500
v 0.004760 -0.035947 -0.004854
v 0.004411 -0.035877 0.005000
v 0.004904 -0.035975 0.004500
v 0.004760 -0.035947 0.004854
v 0.004155 -0.036721 -0.005000
v 0.004155 -0.036721 0.005000
v 0.003740 -0.037499 -0.005000
v 0.003740 -0.037499 0.005000
v 0.003180 -0.038180 -0.005000
v 0.003180 -0.038180 0.005000
v 0.002499 -0.038740 -0.005000
v 0.002499 -0.038740 0.005000
v 0.001721 -0.039155 -0.005000
v 0.001721 -0.039155 0.005000
v 0.000877 -0.039411 -0.005000
v 0.000947 -0.039760 -0.004854
v 0.000877 -0.039411 0.005000
v 0.000947 -0.039760 0.004854
v 0.000000 -0.039498 -0.005000
v 0.000000 -0.040000 -0.004500
v 0.000000 -0.039853 -0.004854
v 0.000000 -0.039498 0.005000
v 0.000000 -0.040000 0.004500
v 0.000000 -0.039853 0.004854
v -0.000877 -0.039411 -0.005000
v -0.000947 -0.039760 -0.004854
v -0.000877 -0.039411 0.005000
v -0.000947 -0.039760 0.004854
v -0.001721 -0.039155 -0.005000
v -0.001721 -0.039155 0.005000
v -0.002499 -0.038740 -0.005000
v -0.002499 -0.038740 0.005000
v -0.003180 -0.038180 -0.005000
v -0.003180 -0.038180 0.005000
v -0.003740 -0.037499 -0.005000
v -0.003740 -0.037499 0.005000
v -0.004155 -0.036721 -0.005000
v -0.004155 -0.036721 0.005000
v -0.004411 -0.035877 -0.005000
v -0.004904 -0.035975 -0.004500
v -0.004760 -0.035947 -0.004854
v -0.004411 -0.035877 0.005000
v -0.004904 -0.035975 0.004500
v -0.004760 -0.035947 0.004854
v -0.004498 -0.035000 -0.005000
v -0.005000 -0.035000 -0.004500
v -0.004853 -0.035000 -0.004854
v -0.004498 -0.035000 0.005000
v -0.005000 -0.035000 0.004500
v -0.004853 -0.035000 0.004854
v -0.004411 -0.034123 -0.005000
v -0.004904 -0.034025 -0.004500
v -0.004760 -0.034053 -0.004854
v -0.004411 -0.034123 0.005000
v -0.004904 -0.034025 0.004500
v -0.004760 -0.034053 0.004854
v -0.004155 -0.033279 -0.005000
v -0.004155 -0.033279 0.005000
v -0.003740 -0.032501 -0.005000
v -0.003740 -0.032501 0.005000
v -0.003180 -0.031820 -0.005000
v -0.003180 -0.031820 0.005000
v -0.002499 -0.031260 -0.005000
v -0.002499 -0.031260 0.005000
v -0.001721 -0.030845 -0.005000
v -0.001721 -0.030845 0.005000
v -0.000877 -0.030589 -0.005000
v -0.000877 -0.030589 0.005000
v 0.000000 -0.033600 -0.005000
v 0.000433 -0.036331 -0.005000
v 0.000433 -0.033669 -0.005000
v 0.000823 -0.033867 -0.005000
v 0.001133 -0.035823 -0.005000
v 0.001133 -0.034177 -0.005000
v 0.001400 -0.035000 -0.005000
v 0.001341 -0.034629 -0.005000
v 0.001331 -0.035433 -0.005000
v 0.001331 -0.034567 -0.005000
v 0.000823 -0.036133 -0.005000
v -0.001400 -0.035000 -0.005000
v -0.001331 -0.035433 -0.005000
v -0.001341 -0.035371 -0.005000
v -0.001331 -0.034567 -0.005000
v -0.001133 -0.034177 -0.005000
v -0.001133 -0.035823 -0.005000
v -0.000823 -0.036133 -0.005000
v 0.000000 -0.036400 -0.005000
v -0.000433 -0.036331 -0.005000
v -0.000433 -0.033669 -0.005000
v -0.000823 -0.033867 -0.005000
v -0.001331 -0.035433 0.005000
v -0.001400 -0.035000 0.005000
v -0.001133 -0.035823 0.005000
v -0.001331 -0.034567 0.005000
v -0.001133 -0.034177 0.005000
v -0.000823 -0.033867 0.005000
v 0.000433 -0.033669 0.005000
v 0.000000 -0.033600 0.005000
v -0.000433 -0.033669 0.005000
v -0.000823 -0.036133 0.005000
v -0.000433 -0.036331 0.005000
v 0.000000 -0.036400 0.005000
v 0.000433 -0.036331 0.005000
v 0.001133 -0.035823 0.005000
v 0.001133 -0.034177 0.005000
v 0.001400 -0.035000 0.005000
v 0.001331 -0.035433 0.005000
v 0.001331 -0.034567 0.005000
v 0.000823 -0.036133 0.005000
v 0.000823 -0.033867 0.005000
v -0.004908 -0.035930 -0.004300
v -0.004862 -0.033888 -0.004300
v -0.004859 -0.036123 -0.004500
v -0.004904 -0.035975 -0.004321
v -0.004767 -0.033785 -0.004650
v -0.004805 -0.033697 -0.004500
v -0.004817 -0.036047 -0.004650
v -0.004553 -0.033373 -0.004854
v -0.004507 -0.033660 -0.004906
v -0.004563 -0.036155 -0.004906
v -0.004621 -0.036402 -0.004854
v -0.004221 -0.036504 -0.005000
v -0.004218 -0.036345 -0.005000
v -0.004210 -0.036012 -0.005000
v -0.004165 -0.033275 -0.004996
v -0.004170 -0.034208 -0.005000
v -0.004148 -0.033266 -0.005000
v -0.004206 -0.035844 -0.005000
v -0.004188 -0.035036 -0.005000
v -0.004187 -0.035000 -0.005000
v -0.004183 -0.034790 -0.005000
v 0.004148 -0.033266 -0.005000
v 0.004149 -0.033282 -0.005000
v -0.003960 -0.032914 -0.005000
v 0.004165 -0.033275 -0.004996
v 0.004176 -0.034475 -0.005000
v 0.004221 -0.036504 -0.005000
v 0.004218 -0.036345 -0.005000
v 0.004192 -0.035223 -0.005000
v 0.004168 -0.034163 -0.005000
v 0.004507 -0.033660 -0.004906
v 0.004563 -0.036155 -0.004906
v 0.004553 -0.033373 -0.004854
v 0.004621 -0.036402 -0.004854
v 0.004817 -0.036047 -0.004650
v 0.004767 -0.033785 -0.004650
v 0.004904 -0.035975 -0.004321
v 0.004908 -0.035930 -0.004300
v 0.004859 -0.036123 -0.004500
v 0.004862 -0.033888 -0.004300
v 0.004805 -0.033697 -0.004500
v -0.001244 -0.039300 -0.005000
v 0.001244 -0.039300 -0.005000
v -0.000916 -0.039606 -0.004918
v 0.000916 -0.039606 -0.004918
v 0.000761 -0.039650 -0.004906
v -0.000761 -0.039650 -0.004906
v -0.001135 -0.039702 -0.004854
v -0.000927 -0.039661 -0.004895
v 0.000927 -0.039661 -0.004895
v 0.000955 -0.039799 -0.004757
v 0.001135 -0.039702 -0.004854
v -0.000955 -0.039799 -0.004757
v 0.000318 -0.039906 -0.004650
v -0.000318 -0.039906 -0.004650
v -0.000543 -0.039946 -0.004500
v 0.000543 -0.039946 -0.004500
v 0.000000 -0.040000 -0.004300
v -0.004221 -0.036504 0.005000
v -0.004165 -0.033275 0.004996
v -0.004148 -0.033266 0.005000
v -0.004507 -0.033660 0.004906
v -0.004563 -0.036155 0.004906
v -0.004553 -0.033373 0.004854
v -0.004621 -0.036402 0.004854
v -0.004817 -0.036047 0.004650
v -0.004767 -0.033785 0.004650
v -0.004859 -0.036123 0.004500
v -0.004904 -0.035975 0.004321
v -0.004908 -0.035930 0.004300
v -0.004862 -0.033888 0.004300
v -0.004805 -0.033697 0.004500
v 0.000000 -0.040000 0.004300
v -0.000543 -0.039946 0.004500
v -0.000318 -0.039906 0.004650
v 0.000543 -0.039946 0.004500
v 0.000318 -0.039906 0.004650
v 0.000955 -0.039799 0.004757
v -0.001135 -0.039702 0.004854
v -0.000927 -0.039661 0.004895
v -0.000955 -0.039799 0.004757
v 0.001135 -0.039702 0.004854
v 0.000927 -0.039661 0.004895
v 0.000761 -0.039650 0.004906
v -0.000761 -0.039650 0.004906
v -0.000916 -0.039606 0.004918
v 0.000916 -0.039606 0.004918
v -0.001244 -0.039300 0.005000
v 0.001244 -0.039300 0.005000
v 0.004908 -0.035930 0.004300
v 0.004862 -0.033888 0.004300
v 0.004767 -0.033785 0.004650
v 0.004904 -0.035975 0.004321
v 0.004859 -0.036123 0.004500
v 0.004817 -0.036047 0.004650
v 0.004805 -0.033697 0.004500
v 0.004507 -0.033660 0.004906
v 0.004553 -0.033373 0.004854
v 0.004621 -0.036402 0.004854
v 0.004563 -0.036155 0.004906
v 0.004148 -0.033266 0.005000
v 0.004165 -0.033275 0.004996
v 0.004221 -0.036504 0.005000
v 0.004206 -0.035848 0.005000
v 0.004205 -0.035790 0.005000
v 0.004195 -0.035356 0.005000
v 0.004159 -0.033745 0.005000
v 0.003034 -0.031700 -0.005000
v 0.003166 -0.031808 -0.005000
v 0.003166 -0.031808 0.005000
v 0.003053 -0.031715 0.005000
v 0.003463 -0.032165 -0.005000
v 0.003495 -0.032204 -0.005000
v 0.003395 -0.032081 -0.005000
v 0.003293 -0.031957 -0.005000
v 0.003495 -0.032204 0.005000
v 0.003463 -0.032165 0.005000
v 0.003395 -0.032081 0.005000
v 0.003293 -0.031957 0.005000
v 0.003960 -0.032914 -0.005000
v 0.003888 -0.032778 -0.005000
v 0.003990 -0.032970 0.005000
v 0.003863 -0.032732 0.005000
v 0.003849 -0.032706 0.005000
v 0.003816 -0.032645 0.005000
v 0.003767 -0.032552 0.005000
v 0.004025 -0.036965 -0.005000
v 0.004130 -0.036768 -0.005000
v 0.003929 -0.037144 -0.005000
v 0.003980 -0.037049 -0.005000
v 0.003933 -0.037137 0.005000
v -0.003933 -0.037137 -0.005000
v -0.003980 -0.037049 -0.005000
v -0.004109 -0.036808 -0.005000
v -0.003929 -0.037144 0.005000
v -0.003980 -0.037049 0.005000
v -0.003990 -0.032970 -0.005000
v -0.003928 -0.032854 -0.005000
v -0.003816 -0.032645 -0.005000
v -0.003495 -0.032204 -0.005000
v -0.003395 -0.032081 -0.005000
v -0.003293 -0.031957 -0.005000
v -0.003395 -0.032081 0.005000
v -0.003293 -0.031957 0.005000
v -0.003463 -0.032165 0.005000
v -0.003495 -0.032204 0.005000
v -0.003166 -0.031808 -0.005000
v -0.003053 -0.031715 -0.005000
v -0.003034 -0.031700 0.005000
v -0.003166 -0.031808 0.005000
v -0.002850 -0.022000 0.005000
v -0.002850 -0.024000 0.005000
v 0.002850 -0.022000 0.005000
v 0.002850 -0.024000 0.005000
v 0.001801 -0.024000 0.005000
v -0.001768 -0.024000 0.005000
v -0.001439 -0.022000 0.005000
v 0.001477 -0.022000 0.005000
v -0.003502 -0.032264 0.005000
v -0.003471 -0.032233 0.005000
v -0.003547 -0.032667 0.005000
v -0.003543 -0.032628 0.005000
v -0.003519 -0.032643 0.005000
v -0.003523 -0.032687 0.005000
v -0.003514 -0.032607 0.005000
v -0.003405 -0.032167 0.005000
v -0.003308 -0.032070 0.005000
v -0.003187 -0.031948 0.005000
v 0.003704 -0.035775 0.005000
v -0.003857 -0.036706 0.005000
v -0.003551 -0.032703 0.005000
v -0.003528 -0.032727 0.005000
v -0.004011 -0.036843 0.005000
v -0.003334 -0.032935 0.005000
v -0.003942 -0.037010 0.005000
v -0.003252 -0.033022 0.005000
v -0.003554 -0.032728 0.005000
v -0.003604 -0.033182 0.005000
v -0.003531 -0.032755 0.005000
v -0.003485 -0.032812 0.005000
v -0.003419 -0.032892 0.005000
v -0.003342 -0.032986 0.005000
v -0.003426 -0.034080 0.005000
v 0.003053 -0.031815 0.005000
v 0.003712 -0.035776 0.005000
v 0.003895 -0.035803 0.005000
v 0.004017 -0.035821 0.005000
v 0.004117 -0.035792 0.005000
v 0.004121 -0.035793 0.005000
v 0.004036 -0.035768 0.005000
v 0.004013 -0.035761 0.005000
v 0.003887 -0.035725 0.005000
v 0.003471 -0.032233 0.005000
v 0.003308 -0.032070 0.005000
v 0.003187 -0.031948 0.005000
v 0.003695 -0.035669 0.005000
v 0.003686 -0.035666 0.005000
v 0.003842 -0.036578 0.005000
v 0.003072 -0.031834 0.005000
v 0.003872 -0.035720 0.005000
v 0.003405 -0.032167 0.005000
v 0.004119 -0.035753 0.005000
v -0.003518 -0.032410 0.005000
v -0.003482 -0.032329 0.005000
v -0.003420 -0.032288 0.005000
v -0.003431 -0.032373 0.005000
v -0.003329 -0.032227 0.005000
v -0.003344 -0.032337 0.005000
v -0.003217 -0.032152 0.005000
v -0.003238 -0.032294 0.005000
v -0.003124 -0.032246 0.005000
v -0.003535 -0.032561 0.005000
v -0.003510 -0.032569 0.005000
v -0.003511 -0.032582 0.005000
v -0.003457 -0.032584 0.005000
v -0.003459 -0.032600 0.005000
v -0.003383 -0.032627 0.005000
v -0.003289 -0.032634 0.005000
v 0.003768 -0.032570 0.005000
v 0.003502 -0.032264 0.005000
v 0.003820 -0.032695 0.005000
v 0.003854 -0.032777 0.005000
v 0.003893 -0.032872 0.005000
v 0.003935 -0.032972 0.005000
v 0.003997 -0.033123 0.005000
v 0.003113 -0.032180 0.005000
v 0.003669 -0.035562 0.005000
v 0.003134 -0.032211 0.005000
v 0.003267 -0.033115 0.005000
v 0.003289 -0.033168 0.005000
v 0.003678 -0.035566 0.005000
v 0.003879 -0.035651 0.005000
v 0.004009 -0.035706 0.005000
v -0.003976 -0.036529 0.005000
v 0.003124 -0.032248 -0.005000
v 0.003166 -0.031810 -0.005000
v 0.003993 -0.033036 -0.005000
v 0.003468 -0.034397 -0.005000
v 0.003343 -0.033649 -0.005000
v 0.004046 -0.034183 -0.005000
v 0.003997 -0.033121 -0.005000
v 0.003107 -0.032231 -0.005000
v 0.003021 -0.031713 -0.005000
v 0.003448 -0.034281 -0.005000
v 0.003346 -0.033667 -0.005000
v 0.003477 -0.034395 -0.005000
v 0.003458 -0.034280 -0.005000
v 0.003354 -0.033644 -0.005000
v 0.003038 -0.031725 -0.005000
v 0.003474 -0.032260 -0.005000
v 0.003721 -0.034236 -0.005000
v 0.003731 -0.034321 -0.005000
v 0.003960 -0.034254 -0.005000
v 0.003906 -0.033399 -0.005000
v 0.003905 -0.033393 -0.005000
v 0.003871 -0.032853 -0.005000
v 0.003894 -0.032888 -0.005000
v 0.003507 -0.032309 -0.005000
v 0.003641 -0.033514 -0.005000
v 0.003547 -0.032671 -0.005000
v 0.003642 -0.033525 -0.005000
v 0.004040 -0.034184 -0.005000
v 0.003933 -0.032947 -0.005000
v 0.004042 -0.034230 -0.005000
v 0.003404 -0.032154 -0.005000
v 0.003298 -0.031996 -0.005000
v 0.003357 -0.033662 -0.005000
v -0.003933 -0.032947 -0.005000
v -0.003894 -0.032888 -0.005000
v -0.003779 -0.032716 -0.005000
v -0.003507 -0.032309 -0.005000
v -0.003474 -0.032260 -0.005000
v -0.003826 -0.032787 -0.005000
v -0.003404 -0.032154 -0.005000
v -0.003831 -0.033391 -0.005000
v -0.003553 -0.032719 -0.005000
v -0.003440 -0.032446 -0.005000
v -0.003320 -0.032156 -0.005000
v -0.004112 -0.035912 -0.005000
v -0.004097 -0.035913 -0.005000
v -0.004078 -0.035915 -0.005000
v -0.004046 -0.035919 -0.005000
v -0.004025 -0.035922 -0.005000
v -0.003910 -0.035935 -0.005000
v -0.003897 -0.035936 -0.005000
v -0.003870 -0.035939 -0.005000
v -0.003831 -0.035944 -0.005000
v -0.003784 -0.035949 -0.005000
v -0.003795 -0.036289 -0.005000
v -0.003475 -0.034317 -0.005000
v -0.003167 -0.031817 -0.005000
v 0.004111 -0.036602 -0.005000
v 0.004011 -0.036843 -0.005000
v 0.003942 -0.037010 -0.005000
v 0.003917 -0.037070 -0.005000
v 0.003914 -0.037078 -0.005000
v 0.003875 -0.036816 -0.005000
v 0.003873 -0.036830 -0.005000
v 0.003619 -0.035308 -0.005000
v 0.003501 -0.034595 -0.005000
v -0.003727 -0.035866 -0.005000
v -0.003712 -0.035776 -0.005000
v -0.003759 -0.035783 -0.005000
v -0.003810 -0.035791 -0.005000
v -0.003852 -0.035797 -0.005000
v -0.003882 -0.035801 -0.005000
v -0.003903 -0.035869 -0.005000
v -0.003895 -0.035803 -0.005000
v -0.004021 -0.035871 -0.005000
v -0.004017 -0.035821 -0.005000
v -0.004040 -0.035824 -0.005000
v -0.004073 -0.035829 -0.005000
v -0.004093 -0.035831 -0.005000
v -0.004108 -0.035834 -0.005000
v -0.004121 -0.035873 -0.005000
v -0.004123 -0.035830 -0.005000
v -0.003710 -0.035762 -0.005000
v -0.003603 -0.035105 -0.005000
v -0.003757 -0.035769 -0.005000
v -0.003809 -0.035778 -0.005000
v -0.003851 -0.035785 -0.005000
v -0.003880 -0.035790 -0.005000
v -0.004017 -0.035812 -0.005000
v -0.004073 -0.035822 -0.005000
v -0.004092 -0.035825 -0.005000
v -0.004108 -0.035827 -0.005000
v -0.004119 -0.035829 -0.005000
v -0.003959 -0.035063 -0.005000
v -0.003815 -0.035080 -0.005000
v -0.004080 -0.034898 -0.005000
v -0.004076 -0.034942 -0.005000
v -0.003944 -0.034865 -0.005000
v -0.003949 -0.034925 -0.005000
v -0.003787 -0.034826 -0.005000
v -0.003796 -0.034904 -0.005000
v -0.003549 -0.034768 -0.005000
v -0.003566 -0.034873 -0.005000
v -0.004127 -0.035910 -0.005000
v -0.004144 -0.036278 -0.005000
v -0.004082 -0.036671 -0.005000
v -0.003942 -0.037010 -0.005000
v -0.003862 -0.036699 -0.005000
v 0.003487 -0.034516 -0.005000
v 0.003497 -0.034512 -0.005000
v 0.003740 -0.034408 -0.005000
v 0.003964 -0.034313 -0.005000
v 0.003980 -0.034306 -0.005000
v 0.004045 -0.034278 -0.005000
v 0.004051 -0.034276 -0.005000
v -0.003806 -0.035000 -0.005000
v -0.003954 -0.035000 -0.005000
v -0.004079 -0.035000 -0.005000
v -0.004084 -0.035000 -0.005000
v -0.004126 -0.035898 -0.005000
v -0.004096 -0.035900 -0.005000
v -0.004077 -0.035901 -0.005000
v -0.004045 -0.035903 -0.005000
v -0.003908 -0.035913 -0.005000
v -0.003895 -0.035914 -0.005000
v -0.003867 -0.035916 -0.005000
v -0.003828 -0.035919 -0.005000
v -0.003780 -0.035922 -0.005000
v -0.003736 -0.035925 -0.005000
v 0.003510 -0.034590 -0.005000
v 0.003626 -0.035298 -0.005000
v 0.003747 -0.034467 -0.005000
v 0.003967 -0.034353 -0.005000
v 0.004052 -0.034309 -0.005000
v -0.002350 -0.001000 0.005000
v -0.002350 -0.003000 0.005000
v 0.002350 -0.001000 0.005000
v 0.002350 -0.003000 0.005000
v 0.000031 -0.003000 0.005000
v -0.000281 -0.003000 0.005000
v -0.000060 -0.001000 0.005000
v -0.000354 -0.001000 0.005000
v 0.000000 0.016000 0.005000
v 0.000000 0.018000 0.005000
v -0.002000 0.018000 0.005000
v -0.002000 0.016000 0.005000
v 0.002000 0.018000 0.005000
v 0.002000 0.016000 0.005000
v -0.001750 0.035000 0.005000
v -0.001750 0.034946 0.005000
v -0.001750 0.033000 0.005000
v 0.001750 0.035000 0.005000
v 0.001750 0.034946 0.005000
v 0.001750 0.033000 0.005000
v 0.001408 0.033000 0.005000
v -0.001408 0.033000 0.005000
v -0.002750 -0.023900 0.004850
v -0.002750 -0.022100 0.004850
v -0.002750 -0.023900 0.004650
v -0.002750 -0.022100 0.004650
v 0.002750 -0.023900 0.004850
v 0.002750 -0.022100 0.004850
v 0.002750 -0.023900 0.004650
v 0.002750 -0.022100 0.004650
v -0.002250 -0.002900 0.004850
v -0.002250 -0.001100 0.004850
v -0.002250 -0.002900 0.004650
v -0.002250 -0.001100 0.004650
v 0.002250 -0.002900 0.004850
v 0.002250 -0.001100 0.004850
v 0.002250 -0.002900 0.004650
v 0.002250 -0.001100 0.004650
v -0.001900 0.016100 0.004850
v -0.001900 0.017900 0.004850
v -0.001900 0.016100 0.004650
v -0.001900 0.017900 0.004650
v 0.001900 0.016100 0.004850
v 0.001900 0.017900 0.004850
v 0.001900 0.016100 0.004650
v 0.001900 0.017900 0.004650
v -0.001650 0.033100 0.004850
v -0.001650 0.034900 0.004850
v -0.001650 0.033100 0.004650
v -0.001650 0.034900 0.004650
v 0.001650 0.033100 0.004850
v 0.001650 0.034900 0.004850
v 0.001650 0.033100 0.004650
v 0.001650 0.034900 0.004650
v -0.004095 -0.036834 -0.005000
v -0.004011 -0.036843 -0.005000
v -0.003586 -0.035000 -0.005000
v -0.004112 -0.035899 -0.005000
v -0.004039 -0.035816 -0.005000
v 0.003928 -0.032854 0.005000
v 0.003960 -0.032914 0.005000
v -0.003539 -0.032595 0.005000
v 0.003880 -0.033004 -0.005000
v -0.003993 -0.033036 -0.005000
v -0.003894 -0.035792 -0.005000
v -0.003380 -0.032607 0.005000
vn -0.9364 -0.2274 -0.2673
vn -0.6922 -0.2045 -0.6922
vn -0.2507 -0.2567 -0.9334
vn -0.2176 -0.6871 -0.6932
vn -0.2631 -0.9314 -0.2516
vn -0.6997 -0.6803 -0.2182
vn -0.5827 -0.5666 -0.5827
vn 0.9368 -0.2460 -0.2489
vn 0.6990 -0.6797 -0.2224
vn 0.2496 -0.9314 -0.2649
vn 0.2170 -0.6873 -0.6933
vn 0.2625 -0.2447 -0.9334
vn 0.6925 -0.2026 -0.6924
vn 0.5827 -0.5666 -0.5827
vn 0.2602 0.9329 -0.2491
vn 0.6828 0.6979 -0.2161
vn 0.9268 0.2701 -0.2611
vn 0.6878 0.2320 -0.6878
vn 0.2507 0.2665 -0.9307
vn 0.2159 0.6928 -0.6880
vn 0.5731 0.5858 -0.5731
vn -0.9265 0.2822 -0.2488
vn -0.6830 0.6981 -0.2148
vn -0.2464 0.9328 -0.2630
vn -0.2157 0.6928 -0.6881
vn -0.2615 0.2559 -0.9307
vn -0.6881 0.2301 -0.6881
vn -0.5731 0.5858 -0.5731
vn -0.9368 -0.2460 0.2489
vn -0.6990 -0.6797 0.2224
vn -0.2496 -0.9314 0.2649
vn -0.2170 -0.6873 0.6933
vn -0.2625 -0.2447 0.9334
vn -0.6925 -0.2026 0.6924
vn -0.5827 -0.5666 0.5827
vn 0.2631 -0.9314 0.2516
vn 0.6997 -0.6803 0.2182
vn 0.9364 -0.2274 0.2673
vn 0.6922 -0.2045 0.6922
vn 0.2507 -0.2567 0.9334
vn 0.2176 -0.6871 0.6932
vn 0.5827 -0.5666 0.5827
vn 0.9265 0.2822 0.2488
vn 0.6830 0.6981 0.2148
vn 0.2464 0.9328 0.2630
vn 0.2157 0.6928 0.6881
vn 0.2615 0.2559 0.9307
vn 0.6881 0.2301 0.6881
vn 0.5731 0.5858 0.5731
vn -0.9268 0.2701 0.2611
vn -0.6878 0.2320 0.6878
vn -0.2507 0.2665 0.9307
vn -0.2159 0.6928 0.6880
vn -0.2602 0.9329 0.2491
vn -0.6828 0.6979 0.2161
vn -0.5731 0.5858 0.5731
vn -0.9668 0.0218 -0.2547
vn -0.9742 0.0185 -0.2250
vn -0.7039 0.0159 -0.7102
vn -0.7071 0.0159 -0.7070
vn -0.2317 0.0054 -0.9728
vn -0.2595 0.0058 -0.9657
vn -0.0000 0.2594 -0.9658
vn -0.0000 0.7071 -0.7071
vn -0.0000 0.9658 -0.2594
vn 0.2317 0.0054 -0.9728
vn 0.2595 0.0059 -0.9657
vn 0.7039 0.0159 -0.7102
vn 0.7032 0.0155 -0.7108
vn 0.9668 0.0218 -0.2547
vn 0.9655 0.0217 -0.2594
vn 0.0001 -0.2589 -0.9659
vn -0.0001 -0.2589 -0.9659
vn -0.0000 -0.7071 -0.7071
vn -0.0001 -0.9653 -0.2610
vn 0.0002 -0.9663 -0.2574
vn -0.2607 0.0059 0.9654
vn -0.2595 0.0058 0.9657
vn -0.7058 0.0159 0.7083
vn -0.7032 0.0155 0.7108
vn -0.9660 0.0217 0.2575
vn -0.9655 0.0217 0.2594
vn -0.0002 -0.9663 0.2574
vn 0.0001 -0.9653 0.2610
vn -0.0000 -0.7071 0.7071
vn 0.0001 -0.2589 0.9659
vn -0.0001 -0.2589 0.9659
vn 0.9660 0.0217 0.2575
vn 0.9742 0.0185 0.2250
vn 0.7058 0.0159 0.7083
vn 0.7071 0.0159 0.7070
vn 0.2607 0.0059 0.9654
vn 0.2595 0.0059 0.9657
vn -0.0000 0.9658 0.2594
vn -0.0000 0.7071 0.7071
vn -0.0000 0.2594 0.9658
vn 0.9718 -0.2360 -0.0000
vn 0.7140 -0.7001 -0.0000
vn 0.2589 -0.9659 -0.0000
vn -0.2589 -0.9659 -0.0000
vn -0.7140 -0.7001 -0.0000
vn -0.9718 -0.2360 -0.0000
vn 0.2554 0.9668 -0.0000
vn 0.7003 0.7139 -0.0000
vn 0.9601 0.2798 -0.0000
vn -0.9601 0.2798 -0.0000
vn -0.7003 0.7139 -0.0000
vn -0.2554 0.9668 -0.0000
vn -0.9997 0.0225 -0.0000
vn -0.0000 -0.0000 -1.0000
vn -0.0000 0.0001 -1.0000
vn -0.0000 -0.0001 -1.0000
vn -0.0000 -0.0078 -1.0000
vn -0.0000 -1.0000 -0.0000
vn 0.9997 0.0225 -0.0000
vn -0.0000 1.0000 -0.0000
vn -0.0000 -0.0000 1.0000
vn -0.1561 -0.9877 -0.0000
vn -0.4543 -0.8908 -0.0000
vn -0.7071 -0.7071 -0.0000
vn -0.8908 -0.4543 -0.0000
vn -0.9877 -0.1561 -0.0000
vn -0.9877 0.1561 -0.0000
vn -0.8908 0.4543 -0.0000
vn -0.7071 0.7071 -0.0000
vn -0.4544 0.8908 -0.0000
vn -0.1615 0.9869 -0.0002
vn 0.1615 0.9869 0.0002
vn 0.4543 0.8908 -0.0000
vn 0.7071 0.7071 -0.0000
vn 0.8908 0.4543 -0.0000
vn 0.9877 0.1561 -0.0000
vn 0.9877 -0.1561 -0.0000
vn 0.8908 -0.4543 -0.0000
vn 0.7071 -0.7071 -0.0000
vn 0.4543 -0.8908 -0.0000
vn 0.1561 -0.9877 -0.0000
vn -0.4520 0.8920 -0.0001
vn -0.1561 0.9877 -0.0000
vn 0.1561 0.9877 -0.0000
vn 0.4586 0.8886 0.0002
vn 0.3081 0.1660 -0.9367
vn 0.3081 0.1660 0.9367
vn 0.8851 0.2670 -0.3812
vn 0.3753 0.1200 -0.9191
vn 0.8854 0.2667 0.3807
vn 0.3753 0.1200 0.9191
vn 0.9200 0.0903 -0.3814
vn 0.3792 0.0376 -0.9245
vn 0.9198 0.0903 0.3819
vn 0.3801 0.0377 0.9242
vn 0.9198 -0.0903 -0.3819
vn 0.3801 -0.0377 -0.9242
vn 0.9200 -0.0903 0.3814
vn 0.3792 -0.0376 0.9245
vn 0.8832 -0.2736 -0.3809
vn 0.4907 -0.2566 -0.8327
vn 0.8832 -0.2736 0.3809
vn 0.4908 -0.2565 0.8326
vn 0.2729 -0.8846 -0.3782
vn 0.1113 -0.3610 -0.9259
vn 0.1108 -0.3663 -0.9239
vn 0.2729 -0.8846 0.3782
vn 0.1113 -0.3610 0.9259
vn 0.1108 -0.3663 0.9239
vn 0.0907 -0.9203 -0.3805
vn 0.0374 -0.3834 -0.9228
vn 0.1057 -0.9095 0.4020
vn 0.0408 -0.3698 0.9282
vn -0.1052 -0.9095 -0.4021
vn -0.0408 -0.3698 -0.9282
vn -0.0907 -0.9203 0.3805
vn -0.0374 -0.3834 0.9228
vn -0.2729 -0.8846 -0.3782
vn -0.1113 -0.3610 -0.9259
vn -0.1108 -0.3663 -0.9239
vn -0.2729 -0.8846 0.3782
vn -0.1113 -0.3610 0.9259
vn -0.1108 -0.3663 0.9239
vn -0.8832 -0.2736 -0.3809
vn -0.4907 -0.2566 -0.8327
vn -0.8832 -0.2736 0.3809
vn -0.4907 -0.2566 0.8327
vn -0.9200 -0.0903 -0.3814
vn -0.3792 -0.0376 -0.9245
vn -0.9198 -0.0903 0.3819
vn -0.3801 -0.0377 0.9242
vn -0.9198 0.0903 -0.3819
vn -0.3801 0.0377 -0.9242
vn -0.9200 0.0903 0.3814
vn -0.3792 0.0376 0.9245
vn -0.8854 0.2667 -0.3807
vn -0.3753 0.1200 -0.9191
vn -0.8851 0.2670 0.3812
vn -0.3753 0.1200 0.9191
vn -0.3081 0.1660 -0.9367
vn -0.3081 0.1660 0.9367
vn 0.9561 0.2931 -0.0000
vn 0.9952 0.0980 -0.0000
vn 0.9951 -0.0984 -0.0000
vn 0.9568 -0.2909 -0.0000
vn 0.0990 -0.9951 -0.0000
vn -0.0990 -0.9951 -0.0000
vn -0.9568 -0.2909 -0.0000
vn -0.9951 -0.0984 -0.0000
vn -0.9952 0.0980 -0.0000
vn -0.9561 0.2931 -0.0000
vn 1.0000 -0.0000 -0.0000
vn -1.0000 -0.0000 -0.0000
vn -0.9368 -0.2460 -0.2489
vn -0.6911 -0.2029 -0.6937
vn -0.2625 -0.2447 -0.9334
vn -0.2171 -0.6877 -0.6928
vn -0.2496 -0.9314 -0.2649
vn -0.6962 -0.6827 -0.2218
vn 0.9364 -0.2274 -0.2673
vn 0.6967 -0.6832 -0.2189
vn 0.2631 -0.9314 -0.2516
vn 0.2176 -0.6876 -0.6927
vn 0.2507 -0.2567 -0.9334
vn 0.6908 -0.2043 -0.6935
vn 0.2464 0.9328 -0.2630
vn 0.6839 0.6972 -0.2150
vn 0.9265 0.2822 -0.2488
vn 0.6868 0.2303 -0.6894
vn 0.2615 0.2559 -0.9307
vn 0.2157 0.6930 -0.6879
vn -0.9268 0.2701 -0.2611
vn -0.6837 0.6971 -0.2159
vn -0.2602 0.9329 -0.2491
vn -0.2159 0.6930 -0.6879
vn -0.2507 0.2665 -0.9307
vn -0.6865 0.2317 -0.6892
vn -0.9364 -0.2274 0.2673
vn -0.6967 -0.6832 0.2189
vn -0.2631 -0.9314 0.2516
vn -0.2176 -0.6876 0.6927
vn -0.2507 -0.2567 0.9334
vn -0.6908 -0.2043 0.6935
vn 0.2496 -0.9314 0.2649
vn 0.6962 -0.6827 0.2218
vn 0.9368 -0.2460 0.2489
vn 0.6911 -0.2029 0.6937
vn 0.2625 -0.2447 0.9334
vn 0.2171 -0.6877 0.6928
vn 0.9268 0.2701 0.2611
vn 0.6837 0.6971 0.2159
vn 0.2602 0.9329 0.2491
vn 0.2159 0.6930 0.6879
vn 0.2507 0.2665 0.9307
vn 0.6865 0.2317 0.6892
vn -0.9265 0.2822 0.2488
vn -0.6868 0.2303 0.6894
vn -0.2615 0.2559 0.9307
vn -0.2157 0.6930 0.6879
vn -0.2464 0.9328 0.2630
vn -0.6839 0.6972 0.2150
vn -0.9655 0.0217 -0.2593
vn -0.9660 0.0217 -0.2575
vn -0.9656 0.0220 -0.2592
vn -0.9662 0.0218 -0.2567
vn -0.9651 0.0220 -0.2609
vn -0.7058 0.0159 -0.7083
vn -0.7056 0.0159 -0.7084
vn -0.7041 0.0159 -0.7099
vn -0.7056 0.0161 -0.7084
vn -0.2607 0.0059 -0.9654
vn -0.2601 0.0058 -0.9656
vn -0.2594 0.0059 -0.9658
vn 0.2601 0.0058 -0.9656
vn 0.2607 0.0059 -0.9654
vn 0.2594 0.0058 -0.9658
vn 0.7056 0.0159 -0.7084
vn 0.7058 0.0159 -0.7083
vn 0.7069 0.0161 -0.7071
vn 0.9660 0.0217 -0.2575
vn 0.9655 0.0217 -0.2593
vn 0.9724 0.0219 -0.2321
vn 0.9662 0.0220 -0.2567
vn 0.9652 0.0216 -0.2605
vn -0.0000 -0.2594 -0.9658
vn -0.0000 -0.2631 -0.9648
vn -0.0000 -0.9662 -0.2577
vn -0.0000 -0.9658 -0.2594
vn -0.0000 -0.9654 -0.2607
vn -0.2317 0.0052 0.9728
vn -0.2601 0.0059 0.9656
vn -0.2594 0.0059 0.9658
vn -0.7039 0.0158 0.7101
vn -0.7056 0.0159 0.7084
vn -0.7069 0.0161 0.7071
vn -0.9655 0.0217 0.2593
vn -0.9668 0.0217 0.2548
vn -0.9724 0.0219 0.2321
vn -0.9662 0.0220 0.2567
vn -0.9652 0.0216 0.2605
vn -0.0000 -0.9654 0.2607
vn -0.0000 -0.9658 0.2594
vn -0.0000 -0.9662 0.2577
vn -0.0000 -0.2631 0.9648
vn -0.0000 -0.2594 0.9658
vn 0.9668 0.0217 0.2548
vn 0.9655 0.0217 0.2593
vn 0.9656 0.0220 0.2592
vn 0.9662 0.0218 0.2567
vn 0.9651 0.0220 0.2609
vn 0.7056 0.0159 0.7084
vn 0.7039 0.0158 0.7101
vn 0.7041 0.0159 0.7099
vn 0.7056 0.0161 0.7084
vn 0.2601 0.0059 0.9656
vn 0.2317 0.0052 0.9728
vn 0.2594 0.0058 0.9658
vn -0.0000 0.0017 -1.0000
vn -0.0000 -0.0003 -1.0000
vn -0.0000 0.0392 -0.9992
vn -0.0000 0.0012 -1.0000
vn -0.0000 -0.0021 -1.0000
vn -0.0000 -0.0012 -1.0000
vn -0.0000 -0.0020 -1.0000
vn -0.0000 0.0011 -1.0000
vn -0.0000 -0.0002 -1.0000
vn -0.0000 0.0004 1.0000
vn -0.0000 0.0017 1.0000
vn -0.0000 -0.0001 1.0000
vn -0.0000 0.0001 1.0000
vn -0.0000 0.0002 1.0000
vn -0.0000 0.0008 1.0000
vn -0.0000 0.0006 1.0000
vn -0.0000 -0.0002 1.0000
vn -0.0000 0.0005 1.0000
vn -0.0000 -0.0005 1.0000
vn -0.4543 0.8908 -0.0000
vn -0.1552 0.9879 -0.0000
vn 0.1552 0.9879 -0.0000
vn 0.4544 0.8908 -0.0000
vn -0.4586 0.8886 -0.0000
vn -0.4587 0.8886 0.0002
vn 0.4586 0.8886 -0.0000
vn 0.4520 0.8920 -0.0000
vn -0.8908 0.4544 -0.0000
vn 0.8908 0.4544 -0.0000
vn 0.8851 0.2672 -0.3810
vn 0.8835 0.2689 -0.3836
vn 0.3611 0.1099 -0.9260
vn 0.3646 0.1106 -0.9246
vn 0.3408 0.0839 -0.9364
vn 0.8835 0.2689 0.3836
vn 0.8851 0.2671 0.3812
vn 0.3409 0.0839 0.9364
vn 0.3646 0.1106 0.9246
vn 0.3611 0.1099 0.9260
vn 0.9197 0.0906 -0.3819
vn 0.3801 0.0373 -0.9242
vn 0.9200 0.0906 0.3814
vn 0.3793 0.0372 0.9245
vn 0.9200 -0.0906 -0.3814
vn 0.3793 -0.0372 -0.9245
vn 0.9197 -0.0906 0.3819
vn 0.3801 -0.0373 0.9242
vn 0.8847 -0.2703 -0.3797
vn 0.8836 -0.2687 -0.3835
vn 0.3646 -0.1105 -0.9246
vn 0.3608 -0.1102 -0.9261
vn 0.8836 -0.2687 0.3835
vn 0.8847 -0.2703 0.3797
vn 0.3608 -0.1102 0.9261
vn 0.3646 -0.1105 0.9246
vn 0.0914 -0.9195 -0.3824
vn 0.0905 -0.9214 -0.3779
vn 0.0917 -0.9196 -0.3819
vn 0.0365 -0.3761 -0.9259
vn 0.0373 -0.3801 -0.9242
vn 0.0378 -0.3809 -0.9238
vn 0.0408 -0.3698 -0.9282
vn 0.0913 -0.9213 0.3780
vn 0.0915 -0.9197 0.3819
vn 0.0904 -0.9205 0.3801
vn 0.0378 -0.3809 0.9238
vn 0.0373 -0.3801 0.9242
vn 0.0365 -0.3761 0.9259
vn 0.0374 -0.3834 0.9228
vn -0.0905 -0.9214 -0.3779
vn -0.0915 -0.9197 -0.3819
vn -0.0907 -0.9203 -0.3805
vn -0.0378 -0.3809 -0.9238
vn -0.0373 -0.3801 -0.9242
vn -0.0365 -0.3761 -0.9259
vn -0.0374 -0.3834 -0.9228
vn -0.0914 -0.9195 0.3824
vn -0.0905 -0.9214 0.3779
vn -0.0917 -0.9196 0.3819
vn -0.0365 -0.3761 0.9259
vn -0.0373 -0.3801 0.9242
vn -0.0378 -0.3809 0.9238
vn -0.0408 -0.3698 0.9282
vn -0.8847 -0.2703 -0.3797
vn -0.8836 -0.2687 -0.3835
vn -0.3646 -0.1105 -0.9246
vn -0.3608 -0.1102 -0.9261
vn -0.8836 -0.2687 0.3835
vn -0.8847 -0.2703 0.3797
vn -0.3646 -0.1105 0.9246
vn -0.3608 -0.1102 0.9261
vn -0.9197 -0.0906 -0.3819
vn -0.3801 -0.0373 -0.9242
vn -0.9200 -0.0906 0.3814
vn -0.3793 -0.0372 0.9245
vn -0.9200 0.0906 -0.3814
vn -0.3793 0.0372 -0.9245
vn -0.9197 0.0906 0.3819
vn -0.3801 0.0373 0.9242
vn -0.8835 0.2689 -0.3836
vn -0.8851 0.2671 -0.3812
vn -0.3409 0.0839 -0.9364
vn -0.3646 0.1106 -0.9246
vn -0.3611 0.1099 -0.9260
vn -0.8851 0.2672 0.3810
vn -0.8835 0.2689 0.3836
vn -0.3611 0.1099 0.9260
vn -0.3646 0.1106 0.9246
vn -0.3408 0.0839 0.9364
vn 0.9573 0.2890 -0.0031
vn 0.9573 0.2890 0.0031
vn 0.9961 -0.0885 -0.0000
vn 0.9952 -0.0980 -0.0000
vn 0.9953 -0.0953 -0.0147
vn 0.9952 -0.0980 0.0021
vn -0.9952 -0.0980 -0.0000
vn -0.9953 -0.0953 0.0147
vn -0.9953 -0.0953 -0.0147
vn -0.9573 0.2890 0.0031
vn -0.9573 0.2890 -0.0031
vn -0.0000 -0.0017 1.0000
vn -0.0000 0.0009 -1.0000
vn -0.0000 -0.0146 -0.9999
vn -0.0000 0.0007 -1.0000
vn -0.0000 -0.0008 -1.0000
vn -0.0000 0.0033 -1.0000
s 0
usemtl ArmBody
f 1//1 20//1 18//1
f 13//2 25//2 20//2
f 2//3 25//3 24//3
f 21//4 28//4 25//4
f 11//5 28//5 27//5
f 26//6 20//6 28//6
f 20//7 25//7 28//7
f 29//8 34//8 33//8
f 32//9 37//9 34//9
f 30//10 37//10 36//10
f 35//11 40//11 37//11
f 31//12 40//12 39//12
f 38//13 34//13 40//13
f 40//14 34//14 37//14
f 41//15 46//15 45//15
f 44//16 49//16 46//16
f 42//17 49//17 48//17
f 47//18 52//18 49//18
f 43//19 52//19 51//19
f 50//20 46//20 52//20
f 52//21 46//21 49//21
f 53//22 58//22 57//22
f 56//23 61//23 58//23
f 54//24 61//24 60//24
f 59//25 64//25 61//25
f 55//26 64//26 63//26
f 62//27 58//27 64//27
f 64//28 58//28 61//28
f 65//29 70//29 69//29
f 68//30 73//30 70//30
f 66//31 73//31 72//31
f 71//32 76//32 73//32
f 67//33 76//33 75//33
f 74//34 70//34 76//34
f 70//35 73//35 76//35
f 77//36 82//36 81//36
f 80//37 85//37 82//37
f 78//38 85//38 84//38
f 83//39 88//39 85//39
f 79//40 88//40 87//40
f 86//41 82//41 88//41
f 88//42 82//42 85//42
f 89//43 94//43 93//43
f 92//44 97//44 94//44
f 90//45 97//45 96//45
f 95//46 100//46 97//46
f 91//47 100//47 99//47
f 98//48 94//48 100//48
f 97//49 100//49 94//49
f 101//50 106//50 105//50
f 104//51 109//51 106//51
f 102//52 109//52 108//52
f 107//53 112//53 109//53
f 103//54 112//54 111//54
f 110//55 106//55 112//55
f 106//56 109//56 112//56
f 57//57 382//57 378//57
f 13//58 377//58 380//58
f 57//59 385//59 384//59
f 387//60 24//60 383//60
f 62//61 393//61 391//61
f 2//62 386//62 388//62
f 43//63 63//63 50//63
f 50//64 59//64 45//64
f 45//65 54//65 41//65
f 51//66 401//66 398//66
f 38//67 403//67 408//67
f 47//68 409//68 407//68
f 33//69 408//69 410//69
f 417//70 47//70 416//70
f 29//71 411//71 415//71
f 39//72 421//72 419//72
f 420//73 21//73 418//73
f 39//74 427//74 428//74
f 27//74 21//74 424//74
f 35//75 434//75 433//75
f 432//76 11//76 431//76
f 436//77 102//77 438//77
f 439//78 67//78 435//78
f 440//79 108//79 443//79
f 69//80 439//80 441//80
f 101//81 448//81 443//81
f 65//82 442//82 444//82
f 77//83 453//83 452//83
f 450//84 71//84 449//84
f 86//85 454//85 453//85
f 75//85 455//85 456//85
f 463//86 86//86 465//86
f 75//87 462//87 464//87
f 472//88 89//88 468//88
f 83//89 466//89 469//89
f 98//90 474//90 468//90
f 475//91 87//91 471//91
f 91//92 478//92 473//92
f 479//93 87//93 476//93
f 90//94 111//94 95//94
f 95//95 107//95 99//95
f 99//96 102//96 91//96
f 29//97 84//97 32//97
f 32//98 80//98 36//98
f 36//99 77//99 30//99
f 11//100 72//100 26//100
f 26//101 68//101 18//101
f 18//102 65//102 1//102
f 41//103 96//103 44//103
f 44//104 92//104 48//104
f 48//105 89//105 42//105
f 53//106 105//106 56//106
f 56//107 110//107 60//107
f 60//108 103//108 54//108
f 101//109 378//109 447//109
f 1//109 446//109 377//109
f 43//110 202//110 204//110
f 159//110 158//110 199//110
f 31//110 504//110 271//110
f 2//110 799//110 509//110
f 623//110 628//110 622//110
f 624//110 637//110 643//110
f 720//110 742//110 740//110
f 612//110 485//110 247//110
f 491//110 490//110 642//110
f 490//110 488//110 641//110
f 626//111 612//111 642//111
f 271//110 668//110 404//110
f 405//110 741//110 402//110
f 503//110 670//110 669//110
f 640//110 724//110 629//110
f 742//110 722//110 743//110
f 617//110 398//110 616//110
f 399//110 630//110 631//110
f 678//110 695//110 693//110
f 716//110 717//110 800//110
f 694//110 726//110 801//110
f 327//110 523//110 667//110
f 717//110 799//110 800//110
f 650//110 518//110 654//110
f 680//112 697//112 696//112
f 681//110 698//110 697//110
f 683//110 739//110 738//110
f 644//110 645//110 651//110
f 390//110 718//110 715//110
f 682//110 809//110 698//110
f 710//110 713//110 711//110
f 661//110 734//110 735//110
f 513//110 644//110 808//110
f 729//110 728//110 704//110
f 681//110 680//110 683//110
f 708//110 397//110 711//110
f 714//110 802//110 655//110
f 689//110 702//110 701//110
f 651//110 646//110 652//110
f 730//113 732//113 802//113
f 405//110 669//110 671//110
f 633//110 497//110 639//110
f 723//110 744//110 743//110
f 515//110 647//110 653//110
f 686//110 803//110 699//110
f 389//110 510//110 303//110
f 687//110 700//110 803//110
f 657//110 733//110 658//110
f 119//110 172//110 133//110
f 350//110 342//110 352//110
f 2//110 299//110 297//110
f 118//110 241//110 239//110
f 31//110 275//110 273//110
f 620//110 622//110 614//110
f 618//110 625//110 611//110
f 615//110 643//110 621//110
f 275//110 678//110 354//110
f 671//110 505//110 672//110
f 673//110 671//110 674//110
f 625//110 619//110 484//110
f 335//110 355//110 245//110
f 720//110 740//110 719//110
f 676//110 741//110 675//110
f 66//114 434//114 449//114
f 434//114 77//114 449//114
f 466//115 29//115 414//115
f 416//115 89//115 467//115
f 54//116 90//116 41//116
f 67//117 512//117 304//117
f 507//110 479//110 272//110
f 747//117 748//117 529//117
f 527//117 135//117 746//117
f 544//117 585//117 525//117
f 526//117 520//117 544//117
f 550//117 593//117 557//117
f 511//117 610//117 551//117
f 556//117 559//117 558//117
f 536//117 580//117 583//117
f 540//117 548//117 592//117
f 538//117 437//117 549//117
f 806//117 590//117 589//117
f 507//117 272//117 574//117
f 607//117 576//117 608//117
f 248//117 571//117 495//117
f 570//117 494//117 495//117
f 577//117 493//117 494//117
f 482//117 604//117 606//117
f 561//117 568//117 576//117
f 596//117 493//117 569//117
f 601//117 805//117 600//117
f 606//117 609//117 578//117
f 804//117 598//117 599//117
f 502//117 250//117 595//117
f 563//117 481//117 565//117
f 567//117 564//117 578//117
f 597//117 500//117 501//117
f 570//117 575//117 601//117
f 91//117 102//117 759//117
f 222//117 765//117 766//117
f 750//117 148//117 749//117
f 751//117 194//117 752//117
f 67//117 298//117 300//117
f 362//117 368//117 373//117
f 79//117 276//117 278//117
f 242//117 244//117 532//117
f 534//117 142//117 533//117
f 358//117 360//117 546//117
f 572//117 545//117 561//117
f 246//117 574//117 545//117
f 560//117 575//117 487//117
f 602//117 604//117 575//117
f 604//117 605//117 606//117
f 603//117 572//117 607//117
f 133//118 148//118 154//118
f 125//119 145//119 148//119
f 123//120 153//120 145//120
f 153//121 129//121 150//121
f 150//122 127//122 149//122
f 149//123 128//123 152//123
f 152//124 126//124 151//124
f 151//125 131//125 144//125
f 144//126 124//126 147//126
f 146//127 124//127 142//127
f 118//128 140//128 130//128
f 140//129 120//129 138//129
f 138//130 114//130 136//130
f 114//131 134//131 136//131
f 115//132 135//132 134//132
f 113//133 137//133 135//133
f 116//134 143//134 137//134
f 122//135 141//135 143//135
f 121//136 139//136 141//136
f 119//137 154//137 139//137
f 8//208 527//208 528//208
f 16//117 22//117 23//117
f 23//209 530//209 529//209
f 22//116 528//116 532//116
f 23//114 534//114 533//114
f 1//210 13//210 20//210
f 13//211 24//211 25//211
f 2//212 21//212 25//212
f 21//213 27//213 28//213
f 11//214 26//214 28//214
f 26//215 18//215 20//215
f 29//216 32//216 34//216
f 32//217 36//217 37//217
f 30//218 35//218 37//218
f 35//219 39//219 40//219
f 31//220 38//220 40//220
f 38//221 33//221 34//221
f 41//222 44//222 46//222
f 44//223 48//223 49//223
f 42//224 47//224 49//224
f 47//225 51//225 52//225
f 43//226 50//226 52//226
f 50//227 45//227 46//227
f 53//228 56//228 58//228
f 56//229 60//229 61//229
f 54//230 59//230 61//230
f 59//231 63//231 64//231
f 55//232 62//232 64//232
f 62//233 57//233 58//233
f 65//234 68//234 70//234
f 68//235 72//235 73//235
f 66//236 71//236 73//236
f 71//237 75//237 76//237
f 67//238 74//238 76//238
f 74//239 69//239 70//239
f 77//240 80//240 82//240
f 80//241 84//241 85//241
f 78//242 83//242 85//242
f 83//243 87//243 88//243
f 79//244 86//244 88//244
f 86//245 81//245 82//245
f 89//246 92//246 94//246
f 92//247 96//247 97//247
f 90//248 95//248 97//248
f 95//249 99//249 100//249
f 91//250 98//250 100//250
f 98//251 93//251 94//251
f 101//252 104//252 106//252
f 104//253 108//253 109//253
f 102//254 107//254 109//254
f 107//255 111//255 112//255
f 103//256 110//256 112//256
f 110//257 105//257 106//257
f 378//258 53//258 57//258
f 57//259 381//259 382//259
f 379//260 383//260 13//260
f 13//261 1//261 377//261
f 380//262 379//262 13//262
f 384//263 381//263 57//263
f 57//264 62//264 385//264
f 387//265 386//265 24//265
f 24//266 13//266 383//266
f 391//267 385//267 62//267
f 62//268 55//268 393//268
f 2//269 24//269 386//269
f 43//63 55//63 63//63
f 50//64 63//64 59//64
f 45//65 59//65 54//65
f 398//270 43//270 51//270
f 51//271 407//271 401//271
f 38//272 31//272 403//272
f 407//273 51//273 47//273
f 47//274 412//274 409//274
f 410//275 411//275 33//275
f 33//273 38//273 408//273
f 417//276 412//276 47//276
f 47//277 42//277 416//277
f 413//278 414//278 29//278
f 29//279 33//279 411//279
f 415//280 413//280 29//280
f 419//281 31//281 39//281
f 39//282 422//282 421//282
f 420//282 423//282 21//282
f 21//281 2//281 418//281
f 426//74 422//74 39//74
f 39//74 35//74 430//74
f 39//74 430//74 427//74
f 428//74 426//74 39//74
f 429//74 431//74 27//74
f 21//74 423//74 425//74
f 424//74 429//74 27//74
f 21//74 425//74 424//74
f 433//283 430//283 35//283
f 35//284 30//284 434//284
f 432//285 434//285 11//285
f 11//284 27//284 431//284
f 436//286 437//286 102//286
f 102//287 108//287 438//287
f 439//288 74//288 67//288
f 440//289 438//289 108//289
f 108//290 104//290 443//290
f 441//291 442//291 69//291
f 69//290 74//290 439//290
f 443//292 104//292 101//292
f 101//293 447//293 448//293
f 445//294 446//294 65//294
f 65//295 69//295 442//295
f 444//296 445//296 65//296
f 452//297 449//297 77//297
f 77//298 81//298 453//298
f 450//299 451//299 71//299
f 71//298 66//298 449//298
f 86//85 460//85 459//85
f 86//85 459//85 458//85
f 453//85 81//85 86//85
f 86//85 458//85 454//85
f 75//85 71//85 451//85
f 75//85 451//85 457//85
f 456//85 461//85 75//85
f 75//85 457//85 455//85
f 463//300 460//300 86//300
f 86//301 79//301 465//301
f 464//301 67//301 75//301
f 75//300 461//300 462//300
f 472//302 467//302 89//302
f 89//303 93//303 468//303
f 470//304 471//304 83//304
f 83//305 78//305 466//305
f 469//306 470//306 83//306
f 468//307 93//307 98//307
f 98//308 473//308 474//308
f 475//309 476//309 87//309
f 87//310 83//310 471//310
f 473//311 98//311 91//311
f 91//312 477//312 478//312
f 479//313 79//313 87//313
f 90//94 103//94 111//94
f 95//95 111//95 107//95
f 99//96 107//96 102//96
f 29//97 78//97 84//97
f 32//98 84//98 80//98
f 36//99 80//99 77//99
f 11//100 66//100 72//100
f 26//101 72//101 68//101
f 18//102 68//102 65//102
f 41//103 90//103 96//103
f 44//104 96//104 92//104
f 48//105 92//105 89//105
f 53//106 101//106 105//106
f 56//107 105//107 110//107
f 60//108 110//108 103//108
f 101//109 53//109 378//109
f 1//109 65//109 446//109
f 204//110 55//110 43//110
f 43//110 212//110 202//110
f 206//110 212//110 43//110
f 43//110 398//110 496//110
f 43//110 496//110 497//110
f 211//110 206//110 43//110
f 209//110 211//110 43//110
f 43//110 497//110 249//110
f 249//314 489//314 488//314
f 249//112 488//112 490//112
f 207//110 209//110 43//110
f 207//110 43//110 249//110
f 207//110 249//110 490//110
f 208//110 207//110 490//110
f 208//110 490//110 491//110
f 210//110 208//110 491//110
f 210//110 491//110 247//110
f 205//110 210//110 247//110
f 485//110 484//110 130//110
f 205//110 247//110 485//110
f 485//110 130//110 124//110
f 485//110 124//110 131//110
f 55//110 204//110 200//110
f 513//110 393//110 55//110
f 325//110 515//110 514//110
f 517//110 516//110 325//110
f 55//110 200//110 214//110
f 55//110 214//110 215//110
f 325//110 513//110 55//110
f 517//110 325//110 55//110
f 55//110 215//110 218//110
f 517//110 55//110 218//110
f 518//110 517//110 218//110
f 518//110 218//110 217//110
f 327//110 518//110 217//110
f 327//110 217//110 216//110
f 118//110 524//110 523//110
f 523//110 327//110 216//110
f 523//110 216//110 199//110
f 117//110 118//110 523//110
f 120//110 117//110 523//110
f 485//110 131//110 126//110
f 485//110 126//110 128//110
f 114//110 120//110 523//110
f 115//110 114//110 523//110
f 485//110 128//110 127//110
f 113//110 115//110 523//110
f 125//110 133//110 172//110
f 125//110 172//110 176//110
f 123//110 125//110 176//110
f 123//110 176//110 173//110
f 132//110 123//110 173//110
f 132//110 173//110 169//110
f 129//110 132//110 169//110
f 129//110 169//110 170//110
f 127//110 129//110 170//110
f 485//110 127//110 170//110
f 168//110 119//110 121//110
f 167//110 168//110 121//110
f 167//110 121//110 122//110
f 165//110 167//110 122//110
f 165//110 122//110 116//110
f 162//110 165//110 116//110
f 162//110 116//110 113//110
f 160//110 162//110 113//110
f 205//110 485//110 170//110
f 205//110 170//110 174//110
f 213//110 205//110 174//110
f 213//110 174//110 175//110
f 201//110 213//110 175//110
f 201//110 175//110 171//110
f 203//110 201//110 171//110
f 203//110 171//110 166//110
f 160//110 113//110 523//110
f 156//110 160//110 523//110
f 199//110 203//110 166//110
f 199//110 166//110 164//110
f 157//110 156//110 523//110
f 155//110 157//110 523//110
f 199//110 164//110 163//110
f 199//110 163//110 161//110
f 155//110 523//110 199//110
f 158//110 155//110 199//110
f 199//110 161//110 159//110
f 31//110 505//110 506//110
f 31//110 506//110 503//110
f 271//110 403//110 31//110
f 31//110 503//110 504//110
f 509//110 508//110 2//110
f 2//110 388//110 303//110
f 2//110 303//110 510//110
f 623//110 627//110 628//110
f 624//110 635//110 637//110
f 720//110 721//110 742//110
f 626//110 634//110 636//110
f 636//110 611//110 625//110
f 625//110 484//110 485//110
f 612//110 247//110 491//110
f 625//110 485//110 612//110
f 626//110 636//110 625//110
f 488//110 489//110 626//110
f 642//110 490//110 641//110
f 641//110 488//110 626//110
f 626//110 625//110 612//110
f 612//110 491//110 642//110
f 642//315 641//315 626//315
f 404//110 403//110 271//110
f 271//110 504//110 668//110
f 405//110 673//110 741//110
f 503//110 506//110 670//110
f 640//110 638//110 616//110
f 616//110 725//110 724//110
f 724//110 723//110 629//110
f 640//110 616//110 724//110
f 744//110 724//110 725//110
f 725//110 616//110 406//110
f 406//110 402//110 741//110
f 741//110 740//110 742//110
f 721//110 720//110 622//110
f 721//110 622//110 628//110
f 628//110 627//110 638//110
f 638//110 640//110 629//110
f 629//110 723//110 722//110
f 628//110 638//110 629//110
f 742//112 721//112 628//112
f 744//110 725//110 406//110
f 744//110 406//110 741//110
f 742//110 628//110 629//110
f 744//316 742//316 743//316
f 742//110 629//110 722//110
f 634//110 626//110 489//110
f 489//110 249//110 497//110
f 632//110 633//110 807//110
f 489//110 497//110 632//110
f 634//110 489//110 632//110
f 634//110 632//110 807//110
f 624//110 611//110 636//110
f 636//110 634//110 807//110
f 635//110 624//110 636//110
f 623//110 643//110 637//110
f 635//110 807//110 617//110
f 627//110 623//110 637//110
f 637//110 635//110 617//110
f 613//110 639//110 496//110
f 627//110 637//110 617//110
f 613//110 496//110 398//110
f 638//110 627//110 617//110
f 617//110 613//110 398//110
f 398//110 399//110 406//110
f 616//110 638//110 617//110
f 398//110 406//110 616//110
f 678//110 679//110 695//110
f 799//110 510//110 716//110
f 716//110 389//110 715//110
f 508//110 509//110 717//110
f 800//110 799//110 716//110
f 718//110 508//110 717//110
f 716//110 715//110 718//110
f 694//110 705//110 726//110
f 717//110 509//110 799//110
f 650//110 517//110 518//110
f 736//110 662//110 661//110
f 735//110 734//110 683//110
f 736//110 661//110 735//110
f 664//110 663//110 737//110
f 736//110 735//110 683//110
f 738//110 664//110 737//110
f 737//110 736//110 683//110
f 683//110 677//110 739//110
f 738//110 737//110 683//110
f 651//110 392//110 393//110
f 393//110 513//110 808//110
f 644//110 400//110 514//110
f 645//110 649//110 651//110
f 644//110 514//110 645//110
f 651//110 808//110 644//110
f 390//110 665//110 718//110
f 715//110 389//110 390//110
f 682//110 684//110 809//110
f 710//110 712//110 713//110
f 661//110 660//110 734//110
f 513//110 400//110 644//110
f 706//110 708//110 709//110
f 706//110 709//110 707//110
f 395//110 396//110 729//110
f 729//110 706//110 707//110
f 728//110 727//110 704//110
f 729//110 707//110 728//110
f 704//110 395//110 729//110
f 691//110 703//110 702//110
f 691//110 702//110 690//110
f 685//110 691//110 690//110
f 689//110 701//110 700//110
f 685//110 690//110 689//110
f 657//317 658//317 659//317
f 656//318 657//318 659//318
f 802//110 731//110 656//110
f 655//110 802//110 656//110
f 655//110 656//110 659//110
f 692//110 730//110 714//110
f 394//110 692//110 714//110
f 665//110 390//110 394//110
f 738//110 739//110 665//110
f 664//110 738//110 665//110
f 665//110 394//110 714//110
f 665//110 714//110 655//110
f 663//110 664//110 665//110
f 736//110 737//110 663//110
f 660//110 661//110 662//110
f 662//110 736//110 663//110
f 665//110 655//110 659//110
f 665//110 659//110 685//110
f 662//110 663//110 665//110
f 660//110 662//110 665//110
f 660//110 665//110 685//110
f 734//110 660//110 685//110
f 689//110 700//110 688//110
f 687//110 803//110 686//110
f 685//110 689//110 688//110
f 688//110 687//110 686//110
f 686//110 699//110 809//110
f 686//110 809//110 684//110
f 685//110 688//110 686//110
f 683//110 734//110 685//110
f 678//110 677//110 683//110
f 696//110 695//110 679//110
f 679//110 678//110 683//110
f 683//110 685//110 686//110
f 683//110 686//110 684//110
f 680//110 696//110 679//110
f 681//111 697//111 680//111
f 682//110 698//110 681//110
f 683//110 684//110 682//110
f 680//110 679//110 683//110
f 683//110 682//110 681//110
f 728//110 707//110 709//110
f 727//110 728//110 709//110
f 394//110 395//110 704//110
f 727//110 709//110 708//110
f 692//110 394//110 704//110
f 703//110 692//110 704//110
f 700//110 701//110 702//110
f 702//110 703//110 704//110
f 700//110 702//110 704//110
f 697//319 698//319 809//319
f 699//110 700//110 704//110
f 695//320 696//320 697//320
f 694//110 693//110 695//110
f 705//110 694//110 695//110
f 695//110 809//110 699//110
f 699//110 704//110 727//110
f 695//110 699//110 727//110
f 705//110 695//110 727//110
f 705//110 727//110 708//110
f 713//110 801//110 726//110
f 726//110 705//110 708//110
f 706//110 729//110 396//110
f 706//110 396//110 397//110
f 397//110 666//110 712//110
f 397//110 712//110 710//110
f 708//110 706//110 397//110
f 711//110 713//110 726//110
f 397//110 710//110 711//110
f 711//110 726//110 708//110
f 714//110 730//110 802//110
f 689//110 690//110 702//110
f 647//110 516//110 517//110
f 647//110 517//110 650//110
f 648//110 647//110 650//110
f 654//110 518//110 327//110
f 648//110 650//110 654//110
f 653//110 648//110 654//110
f 654//110 327//110 667//110
f 667//112 523//112 524//112
f 524//110 666//110 397//110
f 397//110 392//110 651//110
f 649//110 645//110 514//110
f 524//110 397//110 651//110
f 649//110 514//110 515//110
f 667//110 524//110 651//110
f 653//110 654//110 667//110
f 652//110 653//110 667//110
f 651//110 649//110 515//110
f 651//110 515//110 646//110
f 652//110 667//110 651//110
f 732//110 657//110 656//110
f 732//110 656//110 731//110
f 659//110 658//110 733//110
f 685//110 659//110 733//110
f 685//110 733//110 732//110
f 692//110 703//110 691//110
f 691//110 685//110 732//110
f 730//110 692//110 691//110
f 671//110 673//110 405//110
f 405//110 404//110 668//110
f 668//110 504//110 503//110
f 668//110 503//110 669//110
f 506//110 505//110 671//110
f 670//110 506//110 671//110
f 405//110 668//110 669//110
f 669//110 670//110 671//110
f 613//110 617//110 807//110
f 633//110 632//110 497//110
f 639//110 613//110 807//110
f 497//110 496//110 639//110
f 639//110 807//110 633//110
f 743//110 722//110 723//110
f 723//110 724//110 744//110
f 652//110 646//110 515//110
f 515//110 325//110 516//110
f 647//110 648//110 653//110
f 515//110 516//110 647//110
f 653//110 652//110 515//110
f 303//110 388//110 389//110
f 389//110 716//110 510//110
f 687//110 688//110 700//110
f 657//110 732//110 733//110
f 119//110 168//110 172//110
f 347//321 348//321 346//321
f 346//110 349//110 350//110
f 350//110 356//110 355//110
f 355//110 335//110 337//110
f 337//110 338//110 340//110
f 340//110 344//110 342//110
f 342//110 341//110 343//110
f 343//110 339//110 345//110
f 345//110 336//110 353//110
f 353//110 354//110 352//110
f 352//110 351//110 347//110
f 347//110 346//110 350//110
f 350//110 355//110 337//110
f 337//110 340//110 342//110
f 342//110 343//110 345//110
f 345//110 353//110 352//110
f 352//110 347//110 350//110
f 350//110 337//110 342//110
f 342//110 345//110 352//110
f 295//110 418//110 2//110
f 2//110 508//110 301//110
f 2//110 301//110 299//110
f 297//110 295//110 2//110
f 329//110 524//110 118//110
f 118//110 130//110 484//110
f 118//110 484//110 245//110
f 331//110 329//110 118//110
f 333//110 331//110 118//110
f 118//110 245//110 243//110
f 118//110 243//110 241//110
f 239//110 333//110 118//110
f 31//110 419//110 279//110
f 31//110 279//110 277//110
f 273//110 505//110 31//110
f 31//110 277//110 275//110
f 620//110 623//110 622//110
f 615//110 624//110 643//110
f 719//110 740//110 676//110
f 675//110 741//110 673//110
f 719//110 676//110 675//110
f 622//110 720//110 719//110
f 342//110 620//110 614//110
f 614//110 622//110 719//110
f 675//110 673//110 674//110
f 342//110 614//110 719//110
f 342//110 719//110 675//110
f 341//110 342//110 675//110
f 674//110 671//110 672//110
f 341//110 675//110 674//110
f 343//110 341//110 674//110
f 672//110 505//110 273//110
f 343//110 674//110 672//110
f 339//110 343//110 672//110
f 672//110 273//110 275//110
f 275//110 277//110 279//110
f 279//110 419//110 418//110
f 418//110 295//110 297//110
f 297//110 299//110 301//110
f 301//110 508//110 718//110
f 301//110 718//110 665//110
f 418//110 297//110 301//110
f 275//110 279//110 418//110
f 339//110 672//110 275//110
f 345//110 339//110 275//110
f 275//110 418//110 301//110
f 301//110 665//110 739//110
f 739//322 677//322 678//322
f 678//110 693//110 348//110
f 678//110 348//110 347//110
f 301//110 739//110 678//110
f 336//110 345//110 275//110
f 353//110 336//110 275//110
f 275//110 301//110 678//110
f 678//110 347//110 351//110
f 678//110 351//110 352//110
f 354//110 353//110 275//110
f 678//110 352//110 354//110
f 618//110 611//110 624//110
f 618//110 624//110 615//110
f 619//110 625//110 618//110
f 245//110 484//110 619//110
f 241//110 243//110 245//110
f 333//110 239//110 241//110
f 329//110 331//110 333//110
f 666//110 524//110 329//110
f 713//110 712//110 666//110
f 801//110 713//110 666//110
f 666//110 329//110 333//110
f 333//110 241//110 245//110
f 245//110 619//110 618//110
f 245//110 618//110 615//110
f 666//110 333//110 245//110
f 348//110 693//110 694//110
f 346//110 348//110 694//110
f 694//110 666//110 245//110
f 245//110 615//110 621//110
f 621//110 643//110 623//110
f 620//110 342//110 344//110
f 621//110 623//110 620//110
f 349//110 346//110 694//110
f 350//110 349//110 694//110
f 245//110 621//110 620//110
f 620//110 344//110 340//110
f 620//110 340//110 338//110
f 356//110 350//110 694//110
f 355//110 356//110 694//110
f 245//110 620//110 338//110
f 245//110 338//110 337//110
f 355//110 694//110 245//110
f 245//110 337//110 335//110
f 676//110 740//110 741//110
f 66//114 11//114 434//114
f 434//114 30//114 77//114
f 466//115 78//115 29//115
f 416//115 42//115 89//115
f 54//116 103//116 90//116
f 304//117 435//117 67//117
f 67//117 511//117 512//117
f 507//117 79//117 479//117
f 764//117 765//117 232//117
f 764//117 232//117 226//117
f 91//117 763//117 764//117
f 498//117 477//117 91//117
f 498//117 91//117 764//117
f 764//117 226//117 231//117
f 764//117 231//117 229//117
f 804//117 498//117 764//117
f 502//323 501//323 500//323
f 500//117 499//117 764//117
f 764//117 229//117 227//117
f 502//117 500//117 764//117
f 493//117 492//117 250//117
f 250//117 502//117 764//117
f 493//117 250//117 764//117
f 494//117 493//117 764//117
f 495//117 494//117 764//117
f 248//117 495//117 764//117
f 486//117 248//117 764//117
f 531//117 487//117 486//117
f 530//117 531//117 486//117
f 233//117 221//117 754//117
f 233//117 754//117 757//117
f 225//117 233//117 757//117
f 758//117 753//117 187//117
f 230//117 225//117 757//117
f 758//117 187//117 179//117
f 228//117 230//117 757//117
f 758//117 179//117 185//117
f 227//117 228//117 757//117
f 758//117 185//117 180//117
f 764//117 227//117 757//117
f 758//117 180//117 182//117
f 486//117 764//117 757//117
f 758//117 182//117 181//117
f 486//117 757//117 758//117
f 529//117 530//117 486//117
f 146//117 534//117 529//117
f 147//117 146//117 529//117
f 529//117 486//117 758//117
f 144//117 147//117 529//117
f 151//117 144//117 529//117
f 189//117 190//117 751//117
f 189//117 751//117 747//117
f 186//117 189//117 747//117
f 748//117 749//117 148//117
f 178//117 186//117 747//117
f 748//117 148//117 145//117
f 177//117 178//117 747//117
f 748//117 145//117 153//117
f 183//117 177//117 747//117
f 748//117 153//117 150//117
f 184//117 183//117 747//117
f 748//117 150//117 149//117
f 181//117 184//117 747//117
f 758//117 181//117 747//117
f 152//117 151//117 529//117
f 149//117 152//117 529//117
f 529//117 758//117 747//117
f 748//117 149//117 529//117
f 760//117 102//117 437//117
f 326//324 522//324 521//324
f 760//117 437//117 326//117
f 224//117 766//117 761//117
f 761//117 760//117 326//117
f 326//325 521//325 519//325
f 761//117 326//117 519//117
f 220//117 224//117 761//117
f 234//117 220//117 761//117
f 761//117 519//117 520//117
f 761//117 520//117 328//117
f 235//117 234//117 761//117
f 238//117 235//117 761//117
f 761//117 328//117 526//117
f 526//117 525//117 532//117
f 526//117 532//117 528//117
f 754//117 221//117 223//117
f 755//117 754//117 223//117
f 755//117 223//117 219//117
f 187//117 753//117 756//117
f 755//117 219//117 236//117
f 188//117 187//117 756//117
f 755//117 236//117 237//117
f 193//117 188//117 756//117
f 755//117 237//117 238//117
f 197//117 193//117 756//117
f 755//117 238//117 761//117
f 195//117 197//117 756//117
f 755//117 761//117 526//117
f 191//117 195//117 756//117
f 756//117 755//117 526//117
f 526//117 528//117 527//117
f 527//117 533//117 142//117
f 527//117 142//117 140//117
f 756//117 526//117 527//117
f 527//117 140//117 138//117
f 527//117 138//117 136//117
f 752//117 194//117 198//117
f 745//117 752//117 198//117
f 745//117 198//117 196//117
f 154//117 750//117 746//117
f 745//117 196//117 192//117
f 139//117 154//117 746//117
f 745//117 192//117 191//117
f 141//117 139//117 746//117
f 745//117 191//117 756//117
f 143//117 141//117 746//117
f 745//117 756//117 527//117
f 137//117 143//117 746//117
f 746//117 745//117 527//117
f 527//117 136//117 134//117
f 135//117 137//117 746//117
f 527//117 134//117 135//117
f 544//117 520//117 519//117
f 544//117 519//117 543//117
f 525//117 526//117 544//117
f 585//117 587//117 525//117
f 544//117 543//117 585//117
f 526//117 328//117 520//117
f 550//117 594//117 593//117
f 511//117 546//117 610//117
f 610//117 549//117 551//117
f 551//117 512//117 511//117
f 593//117 810//117 592//117
f 556//117 555//117 554//117
f 593//117 592//117 556//117
f 558//117 550//117 557//117
f 557//117 593//117 556//117
f 556//117 554//117 559//117
f 559//117 552//117 558//117
f 558//117 557//117 556//117
f 542//117 521//117 522//117
f 536//117 535//117 579//117
f 542//117 522//117 536//117
f 584//117 586//117 583//117
f 583//117 542//117 536//117
f 579//117 582//117 580//117
f 581//117 584//117 583//117
f 536//117 579//117 580//117
f 580//117 581//117 583//117
f 541//117 806//117 538//117
f 539//117 537//117 540//117
f 541//117 538//117 539//117
f 591//117 590//117 541//117
f 555//117 556//117 592//117
f 592//117 591//117 541//117
f 541//117 539//117 540//117
f 540//117 547//117 553//117
f 548//117 555//117 592//117
f 540//117 553//117 548//117
f 592//117 541//117 540//117
f 554//117 555//117 548//117
f 554//117 548//117 553//117
f 546//117 559//117 554//117
f 610//117 546//117 554//117
f 610//325 554//325 553//325
f 512//117 551//117 549//117
f 549//117 610//117 553//117
f 547//117 540//117 537//117
f 553//117 547//117 537//117
f 537//117 539//117 538//117
f 589//326 590//326 591//326
f 588//117 589//117 591//117
f 591//117 592//117 810//117
f 810//117 593//117 594//117
f 550//117 558//117 552//117
f 594//117 550//117 552//117
f 552//117 587//117 585//117
f 585//117 543//117 519//117
f 519//117 521//117 542//117
f 542//327 583//327 586//327
f 584//117 581//117 580//117
f 519//117 542//117 586//117
f 584//117 580//117 582//117
f 585//117 519//117 586//117
f 586//328 584//328 582//328
f 586//327 582//327 579//327
f 552//117 585//117 586//117
f 594//117 552//117 586//117
f 594//117 586//117 579//117
f 591//117 594//117 579//117
f 535//117 536//117 522//117
f 588//117 591//117 579//117
f 535//117 522//117 326//117
f 588//117 579//117 535//117
f 553//326 537//326 538//326
f 538//117 588//117 535//117
f 535//117 326//117 437//117
f 437//117 435//117 304//117
f 304//117 512//117 549//117
f 549//323 553//323 538//323
f 538//117 535//117 437//117
f 437//117 304//117 549//117
f 589//117 588//117 806//117
f 806//117 541//117 590//117
f 607//117 572//117 576//117
f 248//117 486//117 571//117
f 482//117 483//117 604//117
f 576//117 572//117 561//117
f 561//117 562//117 568//117
f 596//117 492//117 493//117
f 601//117 498//117 805//117
f 564//329 565//329 481//329
f 481//117 482//117 606//117
f 606//117 607//117 608//117
f 608//117 576//117 568//117
f 562//117 561//117 574//117
f 562//117 574//117 272//117
f 272//117 479//117 480//117
f 563//117 566//117 567//117
f 272//117 480//117 563//117
f 568//117 562//117 272//117
f 608//117 568//117 272//117
f 563//117 567//117 609//117
f 608//117 272//117 563//117
f 578//117 564//117 481//117
f 608//117 563//117 609//117
f 578//117 481//117 606//117
f 606//117 608//117 609//117
f 804//117 499//117 598//117
f 564//117 566//117 563//117
f 563//117 480//117 481//117
f 565//117 564//117 563//117
f 578//117 609//117 567//117
f 567//117 566//117 564//117
f 597//117 501//117 502//117
f 595//117 250//117 492//117
f 597//117 502//117 595//117
f 499//117 500//117 597//117
f 598//117 499//117 597//117
f 597//117 595//117 492//117
f 597//117 492//117 596//117
f 599//117 598//117 597//117
f 805//117 804//117 599//117
f 600//117 805//117 599//117
f 599//117 597//117 596//117
f 569//117 493//117 577//117
f 599//117 596//117 569//117
f 601//330 600//330 599//330
f 477//117 498//117 601//117
f 575//117 604//117 483//117
f 486//117 487//117 575//117
f 570//117 495//117 571//117
f 571//117 486//117 575//117
f 483//117 477//117 601//117
f 601//117 599//117 569//117
f 577//117 494//117 570//117
f 601//117 569//117 577//117
f 575//117 483//117 601//117
f 570//331 571//331 575//331
f 601//117 577//117 570//117
f 762//117 763//117 91//117
f 102//117 760//117 759//117
f 759//117 762//117 91//117
f 766//117 224//117 222//117
f 222//117 232//117 765//117
f 750//117 154//117 148//117
f 751//117 190//117 194//117
f 302//117 511//117 67//117
f 67//117 464//117 296//117
f 67//117 296//117 298//117
f 300//117 302//117 67//117
f 373//117 372//117 374//117
f 374//117 371//117 376//117
f 376//117 363//117 364//117
f 364//117 365//117 362//117
f 362//117 361//117 360//117
f 360//117 358//117 357//117
f 357//117 359//117 366//117
f 366//117 367//117 368//117
f 368//117 369//117 375//117
f 375//117 370//117 373//117
f 373//117 374//117 376//117
f 376//117 364//117 362//117
f 362//117 360//117 357//117
f 357//117 366//117 368//117
f 368//117 375//117 373//117
f 373//117 376//117 362//117
f 362//117 357//117 368//117
f 280//117 465//117 79//117
f 79//117 507//117 274//117
f 79//117 274//117 276//117
f 278//117 280//117 79//117
f 532//117 525//117 330//117
f 532//117 330//117 332//117
f 487//117 531//117 532//117
f 246//117 487//117 532//117
f 532//117 332//117 334//117
f 532//117 334//117 240//117
f 244//117 246//117 532//117
f 532//117 240//117 242//117
f 534//117 146//117 142//117
f 511//117 302//117 300//117
f 300//117 298//117 296//117
f 296//117 464//117 465//117
f 465//117 280//117 278//117
f 278//117 276//117 274//117
f 274//117 507//117 574//117
f 574//117 373//117 370//117
f 574//117 370//117 375//117
f 278//117 274//117 574//117
f 296//117 465//117 278//117
f 511//117 300//117 296//117
f 552//332 559//332 546//332
f 546//117 511//117 296//117
f 296//117 278//117 574//117
f 574//117 375//117 369//117
f 574//117 369//117 368//117
f 546//117 296//117 574//117
f 587//117 552//117 546//117
f 330//117 525//117 587//117
f 334//117 332//117 330//117
f 242//117 240//117 334//117
f 363//117 244//117 242//117
f 364//117 363//117 242//117
f 242//117 334//117 330//117
f 330//117 587//117 546//117
f 546//117 574//117 368//117
f 546//117 368//117 367//117
f 242//117 330//117 546//117
f 365//117 364//117 242//117
f 362//117 365//117 242//117
f 546//117 367//117 366//117
f 546//117 366//117 359//117
f 362//117 242//117 546//117
f 361//117 362//117 546//117
f 546//117 359//117 357//117
f 546//117 357//117 358//117
f 360//117 361//117 546//117
f 602//117 575//117 560//117
f 560//117 487//117 246//117
f 246//117 244//117 363//117
f 246//117 363//117 376//117
f 602//117 560//117 246//117
f 605//117 604//117 602//117
f 607//117 606//117 605//117
f 603//117 607//117 605//117
f 605//117 602//117 246//117
f 246//117 376//117 371//117
f 246//117 371//117 374//117
f 603//117 605//117 246//117
f 545//117 572//117 573//117
f 573//117 603//117 246//117
f 246//117 374//117 372//117
f 372//117 373//117 574//117
f 574//117 561//117 545//117
f 545//117 573//117 246//117
f 246//117 372//117 574//117
f 603//117 573//117 572//117
f 133//118 125//118 148//118
f 125//119 123//119 145//119
f 123//120 132//120 153//120
f 153//121 132//121 129//121
f 150//122 129//122 127//122
f 149//123 127//123 128//123
f 152//124 128//124 126//124
f 151//125 126//125 131//125
f 144//333 131//333 124//333
f 146//334 147//334 124//334
f 124//139 130//139 142//139
f 118//335 117//335 140//335
f 140//140 142//140 130//140
f 140//336 117//336 120//336
f 138//130 120//130 114//130
f 114//131 115//131 134//131
f 115//132 113//132 135//132
f 113//133 116//133 137//133
f 116//134 122//134 143//134
f 122//135 121//135 141//135
f 121//136 119//136 139//136
f 119//137 133//137 154//137
f 8//208 16//208 527//208
f 16//117 8//117 22//117
f 23//209 22//209 530//209
f 531//116 530//116 22//116
f 22//116 8//116 528//116
f 532//116 531//116 22//116
f 527//114 16//114 23//114
f 23//114 529//114 534//114
f 533//114 527//114 23//114
f 538//434 806//434 588//434
f 591//117 810//117 594//117
f 804//117 805//117 498//117
f 764//117 499//117 804//117
f 694//110 801//110 666//110
f 695//435 697//435 809//435
f 699//436 803//436 700//436
f 651//110 393//110 808//110
f 325//437 514//437 400//437
f 635//110 636//110 807//110
f 744//110 741//110 742//110
f 325//438 400//438 513//438
f 730//110 691//110 732//110
f 732//439 731//439 802//439
f 716//110 718//110 717//110
f 2//110 510//110 799//110
usemtl Temporary_cutter
f 164//118 179//118 187//118
f 166//119 185//119 179//119
f 171//120 180//120 185//120
f 180//121 174//121 182//121
f 182//122 170//122 181//122
f 181//123 169//123 184//123
f 173//124 184//124 169//124
f 183//125 176//125 177//125
f 177//138 172//138 168//138
f 178//139 165//139 186//139
f 186//140 162//140 189//140
f 162//141 198//141 194//141
f 198//130 156//130 196//130
f 156//131 192//131 196//131
f 157//132 191//132 192//132
f 155//133 195//133 191//133
f 158//134 197//134 195//134
f 159//135 193//135 197//135
f 161//136 188//136 193//136
f 163//137 187//137 188//137
f 202//118 232//118 222//118
f 212//119 226//119 232//119
f 206//120 231//120 226//120
f 231//121 209//121 229//121
f 229//122 207//122 227//122
f 227//123 208//123 228//123
f 228//124 210//124 230//124
f 230//125 205//125 225//125
f 225//126 213//126 233//126
f 233//139 201//139 221//139
f 221//140 203//140 223//140
f 223//129 199//129 219//129
f 219//130 216//130 236//130
f 216//131 237//131 236//131
f 217//132 238//132 237//132
f 218//133 235//133 238//133
f 215//134 234//134 235//134
f 234//135 200//135 220//135
f 200//136 224//136 220//136
f 204//137 222//137 224//137
f 164//118 166//118 179//118
f 166//119 171//119 185//119
f 171//120 175//120 180//120
f 180//121 175//121 174//121
f 182//122 174//122 170//122
f 181//123 170//123 169//123
f 173//124 183//124 184//124
f 183//125 173//125 176//125
f 167//333 178//333 177//333
f 177//337 176//337 172//337
f 168//338 167//338 177//338
f 178//139 167//139 165//139
f 186//140 165//140 162//140
f 190//339 189//339 162//339
f 162//129 160//129 198//129
f 194//340 190//340 162//340
f 198//130 160//130 156//130
f 156//131 157//131 192//131
f 157//132 155//132 191//132
f 155//133 158//133 195//133
f 158//134 159//134 197//134
f 159//135 161//135 193//135
f 161//136 163//136 188//136
f 163//137 164//137 187//137
f 202//118 212//118 232//118
f 212//119 206//119 226//119
f 206//120 211//120 231//120
f 231//121 211//121 209//121
f 229//122 209//122 207//122
f 227//123 207//123 208//123
f 228//341 208//341 210//341
f 230//125 210//125 205//125
f 225//333 205//333 213//333
f 233//139 213//139 201//139
f 221//140 201//140 203//140
f 223//336 203//336 199//336
f 219//130 199//130 216//130
f 216//342 217//342 237//342
f 217//132 218//132 238//132
f 218//133 215//133 235//133
f 215//134 214//134 234//134
f 234//135 214//135 200//135
f 200//136 204//136 224//136
f 204//137 202//137 222//137
usemtl Cream
f 398//142 401//142 251//142
f 477//143 252//143 478//143
f 254//144 255//144 412//144
f 255//145 251//145 407//145
f 258//146 472//146 468//146
f 252//147 258//147 473//147
f 254//148 261//148 255//148
f 255//149 259//149 253//149
f 263//150 258//150 264//150
f 264//151 256//151 262//151
f 260//152 267//152 261//152
f 261//153 265//153 259//153
f 269//154 264//154 270//154
f 270//155 262//155 268//155
f 411//156 267//156 266//156
f 267//157 408//157 403//157
f 471//158 269//158 270//158
f 476//159 270//159 479//159
f 282//160 428//160 427//160
f 426//161 428//161 282//161
f 281//162 419//162 421//162
f 454//163 458//163 284//163
f 459//164 284//164 458//164
f 283//165 463//165 465//165
f 430//166 287//166 427//166
f 285//167 421//167 422//167
f 453//168 290//168 452//168
f 288//169 284//169 460//169
f 287//170 432//170 431//170
f 285//171 292//171 423//171
f 290//172 457//172 451//172
f 288//173 462//173 461//173
f 424//174 292//174 429//174
f 424//175 425//175 292//175
f 418//176 291//176 420//176
f 457//177 294//177 455//177
f 455//178 294//178 456//178
f 464//179 462//179 293//179
f 306//180 307//180 383//180
f 307//181 388//181 386//181
f 310//182 309//182 442//182
f 310//183 439//183 435//183
f 306//184 313//184 307//184
f 307//185 311//185 305//185
f 315//186 310//186 316//186
f 316//187 308//187 314//187
f 312//188 319//188 313//188
f 313//189 317//189 311//189
f 321//190 316//190 322//190
f 322//191 314//191 320//191
f 381//192 319//192 382//192
f 323//193 319//193 385//193
f 443//194 321//194 322//194
f 322//195 324//195 438//195
f 391//196 393//196 323//196
f 436//197 324//197 437//197
f 251//110 406//110 399//110
f 323//110 397//110 394//110
f 265//110 404//110 402//110
f 285//110 418//110 419//110
f 305//110 390//110 389//110
f 314//117 435//117 324//117
f 288//117 465//117 464//117
f 262//117 483//117 481//117
f 257//198 254//198 416//198
f 254//199 263//199 260//199
f 414//200 260//200 263//200
f 269//201 470//201 469//201
f 413//201 415//201 266//201
f 449//202 452//202 289//202
f 286//202 433//202 434//202
f 450//203 449//203 289//203
f 432//203 286//203 434//203
f 309//204 445//204 444//204
f 380//204 306//204 379//204
f 315//205 312//205 446//205
f 312//206 321//206 318//206
f 318//207 321//207 447//207
f 412//343 417//343 254//343
f 255//344 409//344 412//344
f 407//345 409//345 255//345
f 255//346 253//346 251//346
f 251//347 401//347 407//347
f 468//348 474//348 258//348
f 258//349 257//349 472//349
f 473//350 478//350 252//350
f 252//351 256//351 258//351
f 258//352 474//352 473//352
f 254//353 260//353 261//353
f 255//354 261//354 259//354
f 263//355 257//355 258//355
f 264//356 258//356 256//356
f 260//357 266//357 267//357
f 261//358 267//358 265//358
f 269//359 263//359 264//359
f 270//360 264//360 262//360
f 411//361 410//361 267//361
f 266//362 415//362 411//362
f 403//363 265//363 267//363
f 267//364 410//364 408//364
f 471//365 470//365 269//365
f 270//366 475//366 471//366
f 476//367 475//367 270//367
f 270//368 268//368 479//368
f 430//369 433//369 286//369
f 287//370 282//370 427//370
f 430//371 286//371 287//371
f 422//372 426//372 282//372
f 282//373 287//373 285//373
f 285//374 281//374 421//374
f 422//375 282//375 285//375
f 453//376 454//376 284//376
f 290//377 289//377 452//377
f 453//378 284//378 290//378
f 463//379 283//379 288//379
f 288//380 290//380 284//380
f 284//381 459//381 460//381
f 460//382 463//382 288//382
f 429//383 292//383 287//383
f 287//384 286//384 432//384
f 431//385 429//385 287//385
f 420//386 291//386 285//386
f 285//387 287//387 292//387
f 292//388 425//388 423//388
f 423//389 420//389 285//389
f 451//390 450//390 289//390
f 290//391 294//391 457//391
f 451//392 289//392 290//392
f 461//393 456//393 294//393
f 294//394 290//394 288//394
f 288//395 293//395 462//395
f 461//396 294//396 288//396
f 307//397 387//397 383//397
f 383//398 379//398 306//398
f 307//399 305//399 388//399
f 386//400 387//400 307//400
f 309//401 444//401 442//401
f 442//402 441//402 310//402
f 435//403 308//403 310//403
f 310//404 441//404 439//404
f 306//405 312//405 313//405
f 307//406 313//406 311//406
f 315//407 309//407 310//407
f 316//408 310//408 308//408
f 312//409 318//409 319//409
f 313//410 319//410 317//410
f 321//411 315//411 316//411
f 322//412 316//412 314//412
f 381//413 384//413 319//413
f 319//414 318//414 382//414
f 385//415 391//415 323//415
f 323//416 317//416 319//416
f 319//417 384//417 385//417
f 443//418 448//418 321//418
f 322//419 440//419 443//419
f 438//420 440//420 322//420
f 322//421 320//421 324//421
f 324//422 436//422 438//422
f 399//112 398//112 251//112
f 251//110 253//110 406//110
f 394//110 305//110 311//110
f 311//110 317//110 323//110
f 323//110 393//110 392//110
f 397//110 396//110 395//110
f 323//110 392//110 397//110
f 394//110 311//110 323//110
f 397//110 395//110 394//110
f 402//110 406//110 253//110
f 253//110 259//110 265//110
f 265//110 403//110 404//110
f 404//110 405//110 402//110
f 402//110 253//110 265//110
f 419//110 281//110 285//110
f 285//110 291//110 418//110
f 389//110 388//110 305//110
f 305//110 394//110 390//110
f 324//117 320//117 314//117
f 314//117 308//117 435//117
f 435//117 437//117 324//117
f 464//117 293//117 288//117
f 288//117 283//117 465//117
f 481//117 480//117 479//117
f 479//117 268//117 262//117
f 262//117 256//117 252//117
f 252//117 477//117 483//117
f 483//117 482//117 481//117
f 481//117 479//117 262//117
f 262//117 252//117 483//117
f 467//423 472//423 257//423
f 254//424 417//424 416//424
f 416//198 467//198 257//198
f 254//199 257//199 263//199
f 414//425 413//425 266//425
f 263//426 269//426 469//426
f 263//427 469//427 466//427
f 414//428 266//428 260//428
f 263//200 466//200 414//200
f 312//429 306//429 380//429
f 312//430 380//430 377//430
f 445//429 309//429 315//429
f 312//205 377//205 446//205
f 446//431 445//431 315//431
f 312//206 315//206 321//206
f 378//432 382//432 318//432
f 321//433 448//433 447//433
f 447//207 378//207 318//207
usemtl Black
f 5//208 745//208 746//208
f 9//117 17//117 19//117
f 19//209 748//209 747//209
f 17//116 746//116 750//116
f 19//114 751//114 752//114
f 3//208 755//208 756//208
f 7//117 14//117 15//117
f 15//209 758//209 757//209
f 753//116 14//116 756//116
f 15//114 754//114 755//114
f 4//208 759//208 760//208
f 6//117 10//117 12//117
f 12//209 764//209 763//209
f 10//116 761//116 766//116
f 759//114 12//114 762//114
f 5//208 9//208 745//208
f 9//117 5//117 17//117
f 19//209 17//209 748//209
f 749//116 748//116 17//116
f 17//116 5//116 746//116
f 750//116 749//116 17//116
f 745//114 9//114 19//114
f 19//114 747//114 751//114
f 752//114 745//114 19//114
f 3//208 7//208 755//208
f 7//117 3//117 14//117
f 15//209 14//209 758//209
f 753//116 758//116 14//116
f 14//116 3//116 756//116
f 755//114 7//114 15//114
f 15//114 757//114 754//114
f 760//208 761//208 4//208
f 4//208 6//208 759//208
f 6//117 4//117 10//117
f 763//209 762//209 12//209
f 12//209 10//209 764//209
f 765//116 764//116 10//116
f 10//116 4//116 761//116
f 766//116 765//116 10//116
f 759//114 6//114 12//114
usemtl DetailTeal
f 767//209 770//209 769//209
f 769//110 774//110 773//110
f 773//208 772//208 771//208
f 771//117 768//117 767//117
f 769//114 771//114 767//114
f 774//116 768//116 772//116
f 775//209 778//209 777//209
f 777//110 782//110 781//110
f 781//208 780//208 779//208
f 779//117 776//117 775//117
f 777//114 779//114 775//114
f 782//116 776//116 780//116
f 783//209 786//209 785//209
f 785//110 790//110 789//110
f 789//208 788//208 787//208
f 787//117 784//117 783//117
f 785//114 787//114 783//114
f 790//116 784//116 788//116
f 791//209 794//209 793//209
f 793//110 798//110 797//110
f 797//208 796//208 795//208
f 795//117 792//117 791//117
f 793//114 795//114 791//114
f 798//116 792//116 796//116
f 767//209 768//209 770//209
f 769//110 770//110 774//110
f 773//208 774//208 772//208
f 771//117 772//117 768//117
f 769//114 773//114 771//114
f 774//116 770//116 768//116
f 775//209 776//209 778//209
f 777//110 778//110 782//110
f 781//208 782//208 780//208
f 779//117 780//117 776//117
f 777//114 781//114 779//114
f 782//116 778//116 776//116
f 783//209 784//209 786//209
f 785//110 786//110 790//110
f 789//208 790//208 788//208
f 787//117 788//117 784//117
f 785//114 789//114 787//114
f 790//116 786//116 784//116
f 791//209 792//209 794//209
f 793//110 794//110 798//110
f 797//208 798//208 796//208
f 795//117 796//117 792//117
f 793//114 797//114 795//114
f 798//116 794//116 792//116
