# Blender 5.2.1 LTS
# www.blender.org
mtllib foot.mtl
o foot
v 0.032050 -0.000900 0.015000
v -0.030500 -0.002000 0.022500
v 0.032050 0.000900 0.015000
v -0.032500 -0.002000 0.020500
v 0.032050 -0.000900 -0.015000
v -0.030500 -0.003733 0.021499
v -0.031499 -0.003733 0.020500
v 0.032050 0.000900 -0.015000
v -0.032050 -0.000900 0.015000
v -0.031456 -0.003473 0.021456
v -0.032050 0.000900 0.015000
v -0.031499 -0.002000 0.022233
v -0.032050 -0.000900 -0.015000
v -0.030500 -0.002999 0.022233
v -0.032050 0.000900 -0.015000
v -0.031456 -0.002956 0.021973
v -0.032233 -0.002999 0.020500
v -0.032233 -0.002000 0.021499
v -0.031973 -0.002956 0.021456
v -0.030500 0.002000 0.022500
v -0.030500 0.004000 0.020500
v -0.032500 0.002000 0.020500
v -0.030500 0.002999 0.022233
v -0.031499 0.002000 0.022233
v -0.031456 0.002956 0.021973
v -0.031499 0.003733 0.020500
v -0.030500 0.003733 0.021499
v -0.031456 0.003473 0.021456
v -0.032233 0.002000 0.021499
v -0.032233 0.002999 0.020500
v -0.031973 0.002956 0.021456
v -0.032500 -0.002000 -0.020500
v -0.030500 -0.002000 -0.022500
v -0.031499 -0.003733 -0.020500
v -0.030500 -0.003733 -0.021499
v -0.031456 -0.003473 -0.021456
v -0.032233 -0.002000 -0.021499
v -0.032233 -0.002999 -0.020500
v -0.031973 -0.002956 -0.021456
v -0.030500 -0.002999 -0.022233
v -0.031499 -0.002000 -0.022233
v -0.031456 -0.002956 -0.021973
v -0.030500 0.004000 -0.020500
v -0.030500 0.002000 -0.022500
v -0.032500 0.002000 -0.020500
v -0.030500 0.003733 -0.021499
v -0.031499 0.003733 -0.020500
v -0.031456 0.003473 -0.021456
v -0.031499 0.002000 -0.022233
v -0.030500 0.002999 -0.022233
v -0.031456 0.002956 -0.021973
v -0.032233 0.002999 -0.020500
v -0.032233 0.002000 -0.021499
v -0.031973 0.002956 -0.021456
v 0.032500 -0.002000 0.020500
v 0.030500 -0.002000 0.022500
v 0.031499 -0.003733 0.020500
v 0.030500 -0.003733 0.021499
v 0.031456 -0.003473 0.021456
v 0.032233 -0.002000 0.021499
v 0.032233 -0.002999 0.020500
v 0.031973 -0.002956 0.021456
v 0.030500 -0.002999 0.022233
v 0.031499 -0.002000 0.022233
v 0.031456 -0.002956 0.021973
v 0.030500 0.004000 0.020500
v 0.030500 0.002000 0.022500
v 0.032500 0.002000 0.020500
v 0.030500 0.003733 0.021499
v 0.031499 0.003733 0.020500
v 0.031456 0.003473 0.021456
v 0.031499 0.002000 0.022233
v 0.030500 0.002999 0.022233
v 0.031456 0.002956 0.021973
v 0.032233 0.002999 0.020500
v 0.032233 0.002000 0.021499
v 0.031973 0.002956 0.021456
v 0.030500 -0.002000 -0.022500
v 0.032500 -0.002000 -0.020500
v 0.030500 -0.003733 -0.021499
v 0.031499 -0.003733 -0.020500
v 0.031456 -0.003473 -0.021456
v 0.031499 -0.002000 -0.022233
v 0.030500 -0.002999 -0.022233
v 0.031456 -0.002956 -0.021973
v 0.032233 -0.002999 -0.020500
v 0.032233 -0.002000 -0.021499
v 0.031973 -0.002956 -0.021456
v 0.030500 0.004000 -0.020500
v 0.032500 0.002000 -0.020500
v 0.030500 0.002000 -0.022500
v 0.031499 0.003733 -0.020500
v 0.030500 0.003733 -0.021499
v 0.031456 0.003473 -0.021456
v 0.032233 0.002000 -0.021499
v 0.032233 0.002999 -0.020500
v 0.031973 0.002956 -0.021456
v 0.030500 0.002999 -0.022233
v 0.031499 0.002000 -0.022233
v 0.031456 0.002956 -0.021973
v -0.009499 0.004000 -0.011634
v -0.009866 0.004000 -0.012001
v -0.009000 0.032000 -0.011500
v -0.009000 0.033000 -0.012500
v -0.010000 0.032000 -0.012500
v -0.009000 0.032499 -0.011634
v -0.009499 0.032000 -0.011634
v -0.009478 0.032478 -0.011763
v -0.009499 0.032866 -0.012500
v -0.009000 0.032866 -0.012001
v -0.009478 0.032737 -0.012022
v -0.009866 0.032000 -0.012001
v -0.009866 0.032499 -0.012500
v -0.009737 0.032478 -0.012022
v -0.009866 0.004000 -0.014999
v -0.009499 0.004000 -0.015366
v -0.009000 0.033000 -0.014500
v -0.009000 0.032000 -0.015500
v -0.010000 0.032000 -0.014500
v -0.009000 0.032866 -0.014999
v -0.009499 0.032866 -0.014500
v -0.009478 0.032737 -0.014978
v -0.009499 0.032000 -0.015366
v -0.009000 0.032499 -0.015366
v -0.009478 0.032478 -0.015237
v -0.009866 0.032499 -0.014500
v -0.009866 0.032000 -0.014999
v -0.009737 0.032478 -0.014978
v 0.009866 0.004000 -0.012001
v 0.009499 0.004000 -0.011634
v 0.009000 0.033000 -0.012500
v 0.009000 0.032000 -0.011500
v 0.010000 0.032000 -0.012500
v 0.009000 0.032866 -0.012001
v 0.009499 0.032866 -0.012500
v 0.009478 0.032737 -0.012022
v 0.009499 0.032000 -0.011634
v 0.009000 0.032499 -0.011634
v 0.009478 0.032478 -0.011763
v 0.009866 0.032499 -0.012500
v 0.009866 0.032000 -0.012001
v 0.009737 0.032478 -0.012022
v 0.009499 0.004000 -0.015366
v 0.009866 0.004000 -0.014999
v 0.009000 0.033000 -0.014500
v 0.010000 0.032000 -0.014500
v 0.009000 0.032000 -0.015500
v 0.009499 0.032866 -0.014500
v 0.009000 0.032866 -0.014999
v 0.009478 0.032737 -0.014978
v 0.009866 0.032000 -0.014999
v 0.009866 0.032499 -0.014500
v 0.009737 0.032478 -0.014978
v 0.009000 0.032499 -0.015366
v 0.009499 0.032000 -0.015366
v 0.009478 0.032478 -0.015237
v -0.001331 0.023567 -0.011500
v -0.001400 0.024000 -0.011500
v -0.001133 0.023177 -0.011500
v -0.001331 0.024433 -0.011500
v -0.001133 0.024823 -0.011500
v -0.000823 0.022867 -0.011500
v -0.000433 0.025331 -0.011500
v -0.000433 0.022669 -0.011500
v -0.000823 0.025133 -0.011500
v 0.000823 0.022867 -0.011500
v 0.000823 0.025133 -0.011500
v 0.000433 0.022669 -0.011500
v 0.000433 0.025331 -0.011500
v 0.001400 0.024000 -0.011500
v 0.001331 0.024433 -0.011500
v 0.001133 0.023177 -0.011500
v 0.001331 0.023567 -0.011500
v 0.001133 0.024823 -0.011500
v 0.000000 0.025400 -0.011500
v 0.000000 0.022600 -0.011500
v -0.001400 0.024000 -0.015500
v -0.001133 0.023177 -0.015500
v -0.001331 0.023567 -0.015500
v -0.001331 0.024433 -0.015500
v -0.000433 0.022669 -0.015500
v -0.000433 0.025331 -0.015500
v -0.000823 0.022867 -0.015500
v -0.000823 0.025133 -0.015500
v -0.001133 0.024823 -0.015500
v 0.000823 0.025133 -0.015500
v 0.000433 0.022669 -0.015500
v 0.000433 0.025331 -0.015500
v 0.001133 0.023177 -0.015500
v 0.001400 0.024000 -0.015500
v 0.001331 0.023567 -0.015500
v 0.001331 0.024433 -0.015500
v 0.001133 0.024823 -0.015500
v 0.000823 0.022867 -0.015500
v 0.000000 0.025400 -0.015500
v 0.000000 0.022600 -0.015500
v -0.009499 0.004000 0.015366
v -0.009866 0.004000 0.014999
v -0.009000 0.032000 0.015500
v -0.009000 0.033000 0.014500
v -0.010000 0.032000 0.014500
v -0.009000 0.032499 0.015366
v -0.009499 0.032000 0.015366
v -0.009478 0.032478 0.015237
v -0.009499 0.032866 0.014500
v -0.009000 0.032866 0.014999
v -0.009478 0.032737 0.014978
v -0.009866 0.032000 0.014999
v -0.009866 0.032499 0.014500
v -0.009737 0.032478 0.014978
v -0.009866 0.004000 0.012001
v -0.009499 0.004000 0.011634
v -0.009000 0.033000 0.012500
v -0.009000 0.032000 0.011500
v -0.010000 0.032000 0.012500
v -0.009000 0.032866 0.012001
v -0.009499 0.032866 0.012500
v -0.009478 0.032737 0.012022
v -0.009499 0.032000 0.011634
v -0.009000 0.032499 0.011634
v -0.009478 0.032478 0.011763
v -0.009866 0.032499 0.012500
v -0.009866 0.032000 0.012001
v -0.009737 0.032478 0.012022
v 0.009866 0.004000 0.014999
v 0.009499 0.004000 0.015366
v 0.009000 0.033000 0.014500
v 0.009000 0.032000 0.015500
v 0.010000 0.032000 0.014500
v 0.009000 0.032866 0.014999
v 0.009499 0.032866 0.014500
v 0.009478 0.032737 0.014978
v 0.009499 0.032000 0.015366
v 0.009000 0.032499 0.015366
v 0.009478 0.032478 0.015237
v 0.009866 0.032499 0.014500
v 0.009866 0.032000 0.014999
v 0.009737 0.032478 0.014978
v 0.009499 0.004000 0.011634
v 0.009866 0.004000 0.012001
v 0.009000 0.033000 0.012500
v 0.010000 0.032000 0.012500
v 0.009000 0.032000 0.011500
v 0.009499 0.032866 0.012500
v 0.009000 0.032866 0.012001
v 0.009478 0.032737 0.012022
v 0.009866 0.032000 0.012001
v 0.009866 0.032499 0.012500
v 0.009737 0.032478 0.012022
v 0.009000 0.032499 0.011634
v 0.009499 0.032000 0.011634
v 0.009478 0.032478 0.011763
v -0.001331 0.023567 0.015500
v -0.001400 0.024000 0.015500
v -0.001133 0.023177 0.015500
v -0.001331 0.024433 0.015500
v -0.001133 0.024823 0.015500
v -0.000823 0.022867 0.015500
v -0.000433 0.025331 0.015500
v -0.000433 0.022669 0.015500
v -0.000823 0.025133 0.015500
v 0.000823 0.022867 0.015500
v 0.000823 0.025133 0.015500
v 0.000433 0.022669 0.015500
v 0.000433 0.025331 0.015500
v 0.001400 0.024000 0.015500
v 0.001331 0.024433 0.015500
v 0.001133 0.023177 0.015500
v 0.001331 0.023567 0.015500
v 0.001133 0.024823 0.015500
v 0.000000 0.025400 0.015500
v 0.000000 0.022600 0.015500
v -0.001400 0.024000 0.011500
v -0.001133 0.023177 0.011500
v -0.001331 0.023567 0.011500
v -0.001331 0.024433 0.011500
v -0.000433 0.022669 0.011500
v -0.000433 0.025331 0.011500
v -0.000823 0.022867 0.011500
v -0.000823 0.025133 0.011500
v -0.001133 0.024823 0.011500
v 0.000823 0.025133 0.011500
v 0.000433 0.022669 0.011500
v 0.000433 0.025331 0.011500
v 0.001133 0.023177 0.011500
v 0.001400 0.024000 0.011500
v 0.001331 0.023567 0.011500
v 0.001331 0.024433 0.011500
v 0.001133 0.024823 0.011500
v 0.000823 0.022867 0.011500
v 0.000000 0.025400 0.011500
v 0.000000 0.022600 0.011500
v -0.031500 -0.005000 0.021500
v -0.031500 -0.004000 0.021500
v -0.031500 -0.005000 -0.021500
v -0.031500 -0.004000 -0.021500
v 0.031500 -0.005000 0.021500
v 0.031500 -0.004000 0.021500
v 0.031500 -0.005000 -0.021500
v 0.031500 -0.004000 -0.021500
v -0.030500 -0.004000 0.020500
v -0.030500 -0.004000 -0.020500
v 0.030500 -0.004000 0.020500
v 0.030500 -0.004000 -0.020500
v -0.032500 -0.000900 0.015000
v -0.032500 0.000900 0.015000
v -0.032500 -0.000900 -0.015000
v -0.032500 0.000900 -0.015000
v -0.010000 0.004000 -0.012500
v -0.009933 0.004000 -0.012250
v -0.010000 0.004000 -0.014500
v -0.009933 0.004000 -0.014750
v -0.009250 0.004000 -0.015433
v -0.009000 0.004000 -0.015500
v -0.009000 0.004000 -0.011500
v -0.009250 0.004000 -0.011567
v 0.009000 0.004000 -0.015500
v 0.009250 0.004000 -0.011567
v 0.009250 0.004000 -0.015433
v 0.010000 0.004000 -0.012500
v 0.010000 0.004000 -0.014500
v 0.009933 0.004000 -0.012250
v 0.009933 0.004000 -0.014750
v 0.009000 0.004000 -0.011500
v -0.010000 0.004000 0.014500
v -0.009933 0.004000 0.014750
v -0.010000 0.004000 0.012500
v -0.009933 0.004000 0.012250
v -0.009250 0.004000 0.015433
v -0.009250 0.004000 0.011567
v -0.009000 0.004000 0.011500
v -0.009000 0.004000 0.015500
v 0.009000 0.004000 0.015500
v 0.009250 0.004000 0.015433
v 0.009250 0.004000 0.011567
v 0.010000 0.004000 0.012500
v 0.009933 0.004000 0.014750
v 0.010000 0.004000 0.014500
v 0.009933 0.004000 0.012250
v 0.009000 0.004000 0.011500
v 0.032500 -0.000900 -0.015000
v 0.032500 0.000900 -0.015000
v 0.032500 -0.000900 0.015000
v 0.032500 0.000900 0.015000
v -0.027600 0.003850 -0.004650
v -0.027600 0.004250 -0.004250
v -0.028000 0.004250 -0.004650
v -0.027600 0.004450 -0.004250
v -0.027600 0.004850 -0.004650
v -0.028000 0.004450 -0.004650
v -0.027600 0.003850 -0.009350
v -0.028000 0.004250 -0.009350
v -0.027600 0.004250 -0.009750
v -0.027600 0.004850 -0.009350
v -0.027600 0.004450 -0.009750
v -0.028000 0.004450 -0.009350
v -0.018400 0.003850 -0.004650
v -0.018000 0.004250 -0.004650
v -0.018400 0.004250 -0.004250
v -0.018400 0.004850 -0.004650
v -0.018400 0.004450 -0.004250
v -0.018000 0.004450 -0.004650
v -0.018400 0.003850 -0.009350
v -0.018400 0.004250 -0.009750
v -0.018000 0.004250 -0.009350
v -0.018400 0.004850 -0.009350
v -0.018000 0.004450 -0.009350
v -0.018400 0.004450 -0.009750
v -0.027600 0.003850 0.002350
v -0.027600 0.004250 0.002750
v -0.028000 0.004250 0.002350
v -0.027600 0.004450 0.002750
v -0.027600 0.004850 0.002350
v -0.028000 0.004450 0.002350
v -0.027600 0.003850 -0.002350
v -0.028000 0.004250 -0.002350
v -0.027600 0.004250 -0.002750
v -0.027600 0.004850 -0.002350
v -0.027600 0.004450 -0.002750
v -0.028000 0.004450 -0.002350
v -0.018400 0.003850 0.002350
v -0.018000 0.004250 0.002350
v -0.018400 0.004250 0.002750
v -0.018400 0.004850 0.002350
v -0.018400 0.004450 0.002750
v -0.018000 0.004450 0.002350
v -0.018400 0.003850 -0.002350
v -0.018400 0.004250 -0.002750
v -0.018000 0.004250 -0.002350
v -0.018400 0.004850 -0.002350
v -0.018000 0.004450 -0.002350
v -0.018400 0.004450 -0.002750
v -0.027600 0.003850 0.009350
v -0.027600 0.004250 0.009750
v -0.028000 0.004250 0.009350
v -0.027600 0.004450 0.009750
v -0.027600 0.004850 0.009350
v -0.028000 0.004450 0.009350
v -0.027600 0.003850 0.004650
v -0.028000 0.004250 0.004650
v -0.027600 0.004250 0.004250
v -0.027600 0.004850 0.004650
v -0.027600 0.004450 0.004250
v -0.028000 0.004450 0.004650
v -0.018400 0.003850 0.009350
v -0.018000 0.004250 0.009350
v -0.018400 0.004250 0.009750
v -0.018400 0.004850 0.009350
v -0.018400 0.004450 0.009750
v -0.018000 0.004450 0.009350
v -0.018400 0.003850 0.004650
v -0.018400 0.004250 0.004250
v -0.018000 0.004250 0.004650
v -0.018400 0.004850 0.004650
v -0.018000 0.004450 0.004650
v -0.018400 0.004450 0.004250
v 0.018400 0.003850 -0.004650
v 0.018400 0.004250 -0.004250
v 0.018000 0.004250 -0.004650
v 0.018400 0.004450 -0.004250
v 0.018400 0.004850 -0.004650
v 0.018000 0.004450 -0.004650
v 0.018400 0.003850 -0.009350
v 0.018000 0.004250 -0.009350
v 0.018400 0.004250 -0.009750
v 0.018400 0.004850 -0.009350
v 0.018400 0.004450 -0.009750
v 0.018000 0.004450 -0.009350
v 0.027600 0.003850 -0.004650
v 0.028000 0.004250 -0.004650
v 0.027600 0.004250 -0.004250
v 0.027600 0.004850 -0.004650
v 0.027600 0.004450 -0.004250
v 0.028000 0.004450 -0.004650
v 0.027600 0.003850 -0.009350
v 0.027600 0.004250 -0.009750
v 0.028000 0.004250 -0.009350
v 0.027600 0.004850 -0.009350
v 0.028000 0.004450 -0.009350
v 0.027600 0.004450 -0.009750
v 0.018400 0.003850 0.002350
v 0.018400 0.004250 0.002750
v 0.018000 0.004250 0.002350
v 0.018400 0.004450 0.002750
v 0.018400 0.004850 0.002350
v 0.018000 0.004450 0.002350
v 0.018400 0.003850 -0.002350
v 0.018000 0.004250 -0.002350
v 0.018400 0.004250 -0.002750
v 0.018400 0.004850 -0.002350
v 0.018400 0.004450 -0.002750
v 0.018000 0.004450 -0.002350
v 0.027600 0.003850 0.002350
v 0.028000 0.004250 0.002350
v 0.027600 0.004250 0.002750
v 0.027600 0.004850 0.002350
v 0.027600 0.004450 0.002750
v 0.028000 0.004450 0.002350
v 0.027600 0.003850 -0.002350
v 0.027600 0.004250 -0.002750
v 0.028000 0.004250 -0.002350
v 0.027600 0.004850 -0.002350
v 0.028000 0.004450 -0.002350
v 0.027600 0.004450 -0.002750
v 0.018400 0.003850 0.009350
v 0.018400 0.004250 0.009750
v 0.018000 0.004250 0.009350
v 0.018400 0.004450 0.009750
v 0.018400 0.004850 0.009350
v 0.018000 0.004450 0.009350
v 0.018400 0.003850 0.004650
v 0.018000 0.004250 0.004650
v 0.018400 0.004250 0.004250
v 0.018400 0.004850 0.004650
v 0.018400 0.004450 0.004250
v 0.018000 0.004450 0.004650
v 0.027600 0.003850 0.009350
v 0.028000 0.004250 0.009350
v 0.027600 0.004250 0.009750
v 0.027600 0.004850 0.009350
v 0.027600 0.004450 0.009750
v 0.028000 0.004450 0.009350
v 0.027600 0.003850 0.004650
v 0.027600 0.004250 0.004250
v 0.028000 0.004250 0.004650
v 0.027600 0.004850 0.004650
v 0.028000 0.004450 0.004650
v 0.027600 0.004450 0.004250
v -0.022700 0.003750 -0.018300
v -0.022700 0.004050 -0.018000
v -0.023000 0.004050 -0.018300
v -0.022700 0.004250 -0.018000
v -0.022700 0.004550 -0.018300
v -0.023000 0.004250 -0.018300
v -0.022700 0.003750 -0.020700
v -0.023000 0.004050 -0.020700
v -0.022700 0.004050 -0.021000
v -0.022700 0.004550 -0.020700
v -0.022700 0.004250 -0.021000
v -0.023000 0.004250 -0.020700
v 0.022700 0.003750 -0.018300
v 0.023000 0.004050 -0.018300
v 0.022700 0.004050 -0.018000
v 0.022700 0.004550 -0.018300
v 0.022700 0.004250 -0.018000
v 0.023000 0.004250 -0.018300
v 0.022700 0.003750 -0.020700
v 0.022700 0.004050 -0.021000
v 0.023000 0.004050 -0.020700
v 0.022700 0.004550 -0.020700
v 0.023000 0.004250 -0.020700
v 0.022700 0.004250 -0.021000
v -0.010880 0.004500 -0.019020
v -0.010880 0.004620 -0.018900
v -0.011000 0.004620 -0.019020
v -0.010880 0.004680 -0.018900
v -0.010880 0.004800 -0.019020
v -0.011000 0.004680 -0.019020
v -0.010880 0.004500 -0.019980
v -0.011000 0.004620 -0.019980
v -0.010880 0.004620 -0.020100
v -0.010880 0.004800 -0.019980
v -0.010880 0.004680 -0.020100
v -0.011000 0.004680 -0.019980
v 0.010880 0.004500 -0.019020
v 0.011000 0.004620 -0.019020
v 0.010880 0.004620 -0.018900
v 0.010880 0.004800 -0.019020
v 0.010880 0.004680 -0.018900
v 0.011000 0.004680 -0.019020
v 0.010880 0.004500 -0.019980
v 0.010880 0.004620 -0.020100
v 0.011000 0.004620 -0.019980
v 0.010880 0.004800 -0.019980
v 0.011000 0.004680 -0.019980
v 0.010880 0.004680 -0.020100
v -0.022700 0.003750 0.020700
v -0.022700 0.004050 0.021000
v -0.023000 0.004050 0.020700
v -0.022700 0.004250 0.021000
v -0.022700 0.004550 0.020700
v -0.023000 0.004250 0.020700
v -0.022700 0.003750 0.018300
v -0.023000 0.004050 0.018300
v -0.022700 0.004050 0.018000
v -0.022700 0.004550 0.018300
v -0.022700 0.004250 0.018000
v -0.023000 0.004250 0.018300
v 0.022700 0.003750 0.020700
v 0.023000 0.004050 0.020700
v 0.022700 0.004050 0.021000
v 0.022700 0.004550 0.020700
v 0.022700 0.004250 0.021000
v 0.023000 0.004250 0.020700
v 0.022700 0.003750 0.018300
v 0.022700 0.004050 0.018000
v 0.023000 0.004050 0.018300
v 0.022700 0.004550 0.018300
v 0.023000 0.004250 0.018300
v 0.022700 0.004250 0.018000
v -0.010880 0.004500 0.019980
v -0.010880 0.004620 0.020100
v -0.011000 0.004620 0.019980
v -0.010880 0.004680 0.020100
v -0.010880 0.004800 0.019980
v -0.011000 0.004680 0.019980
v -0.010880 0.004500 0.019020
v -0.011000 0.004620 0.019020
v -0.010880 0.004620 0.018900
v -0.010880 0.004800 0.019020
v -0.010880 0.004680 0.018900
v -0.011000 0.004680 0.019020
v 0.010880 0.004500 0.019980
v 0.011000 0.004620 0.019980
v 0.010880 0.004620 0.020100
v 0.010880 0.004800 0.019980
v 0.010880 0.004680 0.020100
v 0.011000 0.004680 0.019980
v 0.010880 0.004500 0.019020
v 0.010880 0.004620 0.018900
v 0.011000 0.004620 0.019020
v 0.010880 0.004800 0.019020
v 0.011000 0.004680 0.019020
v 0.010880 0.004680 0.018900
v 0.004400 0.024000 -0.015920
v 0.004250 0.025139 -0.015920
v 0.003811 0.026200 -0.015920
v 0.003111 0.027111 -0.015920
v 0.002200 0.027811 -0.015920
v 0.001139 0.028250 -0.015920
v 0.000000 0.028400 -0.015920
v -0.001139 0.028250 -0.015920
v -0.002200 0.027811 -0.015920
v -0.003111 0.027111 -0.015920
v -0.003811 0.026200 -0.015920
v -0.004250 0.025139 -0.015920
v -0.004400 0.024000 -0.015920
v -0.004250 0.022861 -0.015920
v -0.003811 0.021800 -0.015920
v -0.003111 0.020889 -0.015920
v -0.002200 0.020189 -0.015920
v -0.001139 0.019750 -0.015920
v 0.000000 0.019600 -0.015920
v 0.001139 0.019750 -0.015920
v 0.002200 0.020189 -0.015920
v 0.003111 0.020889 -0.015920
v 0.003811 0.021800 -0.015920
v 0.004250 0.022861 -0.015920
v 0.001550 0.024000 -0.015920
v 0.001497 0.024401 -0.015920
v 0.001342 0.024775 -0.015920
v 0.001096 0.025096 -0.015920
v 0.000775 0.025342 -0.015920
v 0.000401 0.025497 -0.015920
v 0.000000 0.025550 -0.015920
v -0.000401 0.025497 -0.015920
v -0.000775 0.025342 -0.015920
v -0.001096 0.025096 -0.015920
v -0.001342 0.024775 -0.015920
v -0.001497 0.024401 -0.015920
v -0.001550 0.024000 -0.015920
v -0.001497 0.023599 -0.015920
v -0.001342 0.023225 -0.015920
v -0.001096 0.022904 -0.015920
v -0.000775 0.022658 -0.015920
v -0.000401 0.022503 -0.015920
v 0.000000 0.022450 -0.015920
v 0.000401 0.022503 -0.015920
v 0.000775 0.022658 -0.015920
v 0.001096 0.022904 -0.015920
v 0.001342 0.023225 -0.015920
v 0.001497 0.023599 -0.015920
v 0.004400 0.024000 -0.015520
v 0.004250 0.025139 -0.015520
v 0.003811 0.026200 -0.015520
v 0.003111 0.027111 -0.015520
v 0.002200 0.027811 -0.015520
v 0.001139 0.028250 -0.015520
v 0.000000 0.028400 -0.015520
v -0.001139 0.028250 -0.015520
v -0.002200 0.027811 -0.015520
v -0.003111 0.027111 -0.015520
v -0.003811 0.026200 -0.015520
v -0.004250 0.025139 -0.015520
v -0.004400 0.024000 -0.015520
v -0.004250 0.022861 -0.015520
v -0.003811 0.021800 -0.015520
v -0.003111 0.020889 -0.015520
v -0.002200 0.020189 -0.015520
v -0.001139 0.019750 -0.015520
v 0.000000 0.019600 -0.015520
v 0.001139 0.019750 -0.015520
v 0.002200 0.020189 -0.015520
v 0.003111 0.020889 -0.015520
v 0.003811 0.021800 -0.015520
v 0.004250 0.022861 -0.015520
v 0.001550 0.024000 -0.015520
v 0.001497 0.024401 -0.015520
v 0.001342 0.024775 -0.015520
v 0.001096 0.025096 -0.015520
v 0.000775 0.025342 -0.015520
v 0.000401 0.025497 -0.015520
v 0.000000 0.025550 -0.015520
v -0.000401 0.025497 -0.015520
v -0.000775 0.025342 -0.015520
v -0.001096 0.025096 -0.015520
v -0.001342 0.024775 -0.015520
v -0.001497 0.024401 -0.015520
v -0.001550 0.024000 -0.015520
v -0.001497 0.023599 -0.015520
v -0.001342 0.023225 -0.015520
v -0.001096 0.022904 -0.015520
v -0.000775 0.022658 -0.015520
v -0.000401 0.022503 -0.015520
v 0.000000 0.022450 -0.015520
v 0.000401 0.022503 -0.015520
v 0.000775 0.022658 -0.015520
v 0.001096 0.022904 -0.015520
v 0.001342 0.023225 -0.015520
v 0.001497 0.023599 -0.015520
v -0.008150 0.006500 -0.015620
v -0.008150 0.006700 -0.015420
v -0.008350 0.006700 -0.015620
v -0.008150 0.027300 -0.015420
v -0.008150 0.027500 -0.015620
v -0.008350 0.027300 -0.015620
v -0.008150 0.006500 -0.015720
v -0.008350 0.006700 -0.015720
v -0.008150 0.006700 -0.015920
v -0.008150 0.027500 -0.015720
v -0.008150 0.027300 -0.015920
v -0.008350 0.027300 -0.015720
v -0.007050 0.006500 -0.015620
v -0.006850 0.006700 -0.015620
v -0.007050 0.006700 -0.015420
v -0.007050 0.027500 -0.015620
v -0.007050 0.027300 -0.015420
v -0.006850 0.027300 -0.015620
v -0.007050 0.006500 -0.015720
v -0.007050 0.006700 -0.015920
v -0.006850 0.006700 -0.015720
v -0.007050 0.027500 -0.015720
v -0.006850 0.027300 -0.015720
v -0.007050 0.027300 -0.015920
v -0.007600 0.010700 -0.016150
v -0.007600 0.010700 -0.015910
v -0.007250 0.010606 -0.016150
v -0.007250 0.010606 -0.015910
v -0.006994 0.010350 -0.016150
v -0.006994 0.010350 -0.015910
v -0.006900 0.010000 -0.016150
v -0.006900 0.010000 -0.015910
v -0.006994 0.009650 -0.016150
v -0.006994 0.009650 -0.015910
v -0.007250 0.009394 -0.016150
v -0.007250 0.009394 -0.015910
v -0.007600 0.009300 -0.016150
v -0.007600 0.009300 -0.015910
v -0.007950 0.009394 -0.016150
v -0.007950 0.009394 -0.015910
v -0.008206 0.009650 -0.016150
v -0.008206 0.009650 -0.015910
v -0.008300 0.010000 -0.016150
v -0.008300 0.010000 -0.015910
v -0.008206 0.010350 -0.016150
v -0.008206 0.010350 -0.015910
v -0.007950 0.010606 -0.016150
v -0.007950 0.010606 -0.015910
v -0.008073 0.009916 -0.016146
v -0.008073 0.010084 -0.016146
v -0.008073 0.009916 -0.016170
v -0.008073 0.010084 -0.016170
v -0.007128 0.009916 -0.016146
v -0.007128 0.010084 -0.016146
v -0.007128 0.009916 -0.016170
v -0.007128 0.010084 -0.016170
v 0.007050 0.006500 -0.015620
v 0.007050 0.006700 -0.015420
v 0.006850 0.006700 -0.015620
v 0.007050 0.027300 -0.015420
v 0.007050 0.027500 -0.015620
v 0.006850 0.027300 -0.015620
v 0.007050 0.006500 -0.015720
v 0.006850 0.006700 -0.015720
v 0.007050 0.006700 -0.015920
v 0.007050 0.027500 -0.015720
v 0.007050 0.027300 -0.015920
v 0.006850 0.027300 -0.015720
v 0.008150 0.006500 -0.015620
v 0.008350 0.006700 -0.015620
v 0.008150 0.006700 -0.015420
v 0.008150 0.027500 -0.015620
v 0.008150 0.027300 -0.015420
v 0.008350 0.027300 -0.015620
v 0.008150 0.006500 -0.015720
v 0.008150 0.006700 -0.015920
v 0.008350 0.006700 -0.015720
v 0.008150 0.027500 -0.015720
v 0.008350 0.027300 -0.015720
v 0.008150 0.027300 -0.015920
v 0.007600 0.010700 -0.016150
v 0.007600 0.010700 -0.015910
v 0.007950 0.010606 -0.016150
v 0.007950 0.010606 -0.015910
v 0.008206 0.010350 -0.016150
v 0.008206 0.010350 -0.015910
v 0.008300 0.010000 -0.016150
v 0.008300 0.010000 -0.015910
v 0.008206 0.009650 -0.016150
v 0.008206 0.009650 -0.015910
v 0.007950 0.009394 -0.016150
v 0.007950 0.009394 -0.015910
v 0.007600 0.009300 -0.016150
v 0.007600 0.009300 -0.015910
v 0.007250 0.009394 -0.016150
v 0.007250 0.009394 -0.015910
v 0.006994 0.009650 -0.016150
v 0.006994 0.009650 -0.015910
v 0.006900 0.010000 -0.016150
v 0.006900 0.010000 -0.015910
v 0.006994 0.010350 -0.016150
v 0.006994 0.010350 -0.015910
v 0.007250 0.010606 -0.016150
v 0.007250 0.010606 -0.015910
v 0.007128 0.009916 -0.016146
v 0.007128 0.010084 -0.016146
v 0.007128 0.009916 -0.016170
v 0.007128 0.010084 -0.016170
v 0.008073 0.009916 -0.016146
v 0.008073 0.010084 -0.016146
v 0.008073 0.009916 -0.016170
v 0.008073 0.010084 -0.016170
v -0.032250 -0.000800 0.014900
v -0.032250 0.000800 0.014900
v -0.032250 -0.000800 -0.014900
v -0.032250 0.000800 -0.014900
v -0.032050 -0.000800 0.014900
v -0.032050 0.000800 0.014900
v -0.032050 -0.000800 -0.014900
v -0.032050 0.000800 -0.014900
v 0.004400 0.024000 0.015520
v 0.004250 0.025139 0.015520
v 0.003811 0.026200 0.015520
v 0.003111 0.027111 0.015520
v 0.002200 0.027811 0.015520
v 0.001139 0.028250 0.015520
v 0.000000 0.028400 0.015520
v -0.001139 0.028250 0.015520
v -0.002200 0.027811 0.015520
v -0.003111 0.027111 0.015520
v -0.003811 0.026200 0.015520
v -0.004250 0.025139 0.015520
v -0.004400 0.024000 0.015520
v -0.004250 0.022861 0.015520
v -0.003811 0.021800 0.015520
v -0.003111 0.020889 0.015520
v -0.002200 0.020189 0.015520
v -0.001139 0.019750 0.015520
v 0.000000 0.019600 0.015520
v 0.001139 0.019750 0.015520
v 0.002200 0.020189 0.015520
v 0.003111 0.020889 0.015520
v 0.003811 0.021800 0.015520
v 0.004250 0.022861 0.015520
v 0.001550 0.024000 0.015520
v 0.001497 0.024401 0.015520
v 0.001342 0.024775 0.015520
v 0.001096 0.025096 0.015520
v 0.000775 0.025342 0.015520
v 0.000401 0.025497 0.015520
v 0.000000 0.025550 0.015520
v -0.000401 0.025497 0.015520
v -0.000775 0.025342 0.015520
v -0.001096 0.025096 0.015520
v -0.001342 0.024775 0.015520
v -0.001497 0.024401 0.015520
v -0.001550 0.024000 0.015520
v -0.001497 0.023599 0.015520
v -0.001342 0.023225 0.015520
v -0.001096 0.022904 0.015520
v -0.000775 0.022658 0.015520
v -0.000401 0.022503 0.015520
v 0.000000 0.022450 0.015520
v 0.000401 0.022503 0.015520
v 0.000775 0.022658 0.015520
v 0.001096 0.022904 0.015520
v 0.001342 0.023225 0.015520
v 0.001497 0.023599 0.015520
v 0.004400 0.024000 0.015920
v 0.004250 0.025139 0.015920
v 0.003811 0.026200 0.015920
v 0.003111 0.027111 0.015920
v 0.002200 0.027811 0.015920
v 0.001139 0.028250 0.015920
v 0.000000 0.028400 0.015920
v -0.001139 0.028250 0.015920
v -0.002200 0.027811 0.015920
v -0.003111 0.027111 0.015920
v -0.003811 0.026200 0.015920
v -0.004250 0.025139 0.015920
v -0.004400 0.024000 0.015920
v -0.004250 0.022861 0.015920
v -0.003811 0.021800 0.015920
v -0.003111 0.020889 0.015920
v -0.002200 0.020189 0.015920
v -0.001139 0.019750 0.015920
v 0.000000 0.019600 0.015920
v 0.001139 0.019750 0.015920
v 0.002200 0.020189 0.015920
v 0.003111 0.020889 0.015920
v 0.003811 0.021800 0.015920
v 0.004250 0.022861 0.015920
v 0.001550 0.024000 0.015920
v 0.001497 0.024401 0.015920
v 0.001342 0.024775 0.015920
v 0.001096 0.025096 0.015920
v 0.000775 0.025342 0.015920
v 0.000401 0.025497 0.015920
v 0.000000 0.025550 0.015920
v -0.000401 0.025497 0.015920
v -0.000775 0.025342 0.015920
v -0.001096 0.025096 0.015920
v -0.001342 0.024775 0.015920
v -0.001497 0.024401 0.015920
v -0.001550 0.024000 0.015920
v -0.001497 0.023599 0.015920
v -0.001342 0.023225 0.015920
v -0.001096 0.022904 0.015920
v -0.000775 0.022658 0.015920
v -0.000401 0.022503 0.015920
v 0.000000 0.022450 0.015920
v 0.000401 0.022503 0.015920
v 0.000775 0.022658 0.015920
v 0.001096 0.022904 0.015920
v 0.001342 0.023225 0.015920
v 0.001497 0.023599 0.015920
v -0.008150 0.006500 0.015720
v -0.008150 0.006700 0.015920
v -0.008350 0.006700 0.015720
v -0.008150 0.027300 0.015920
v -0.008150 0.027500 0.015720
v -0.008350 0.027300 0.015720
v -0.008150 0.006500 0.015620
v -0.008350 0.006700 0.015620
v -0.008150 0.006700 0.015420
v -0.008150 0.027500 0.015620
v -0.008150 0.027300 0.015420
v -0.008350 0.027300 0.015620
v -0.007050 0.006500 0.015720
v -0.006850 0.006700 0.015720
v -0.007050 0.006700 0.015920
v -0.007050 0.027500 0.015720
v -0.007050 0.027300 0.015920
v -0.006850 0.027300 0.015720
v -0.007050 0.006500 0.015620
v -0.007050 0.006700 0.015420
v -0.006850 0.006700 0.015620
v -0.007050 0.027500 0.015620
v -0.006850 0.027300 0.015620
v -0.007050 0.027300 0.015420
v -0.007600 0.010700 0.015910
v -0.007600 0.010700 0.016150
v -0.007250 0.010606 0.015910
v -0.007250 0.010606 0.016150
v -0.006994 0.010350 0.015910
v -0.006994 0.010350 0.016150
v -0.006900 0.010000 0.015910
v -0.006900 0.010000 0.016150
v -0.006994 0.009650 0.015910
v -0.006994 0.009650 0.016150
v -0.007250 0.009394 0.015910
v -0.007250 0.009394 0.016150
v -0.007600 0.009300 0.015910
v -0.007600 0.009300 0.016150
v -0.007950 0.009394 0.015910
v -0.007950 0.009394 0.016150
v -0.008206 0.009650 0.015910
v -0.008206 0.009650 0.016150
v -0.008300 0.010000 0.015910
v -0.008300 0.010000 0.016150
v -0.008206 0.010350 0.015910
v -0.008206 0.010350 0.016150
v -0.007950 0.010606 0.015910
v -0.007950 0.010606 0.016150
v -0.008073 0.009916 0.016170
v -0.008073 0.010084 0.016170
v -0.008073 0.009916 0.016146
v -0.008073 0.010084 0.016146
v -0.007128 0.009916 0.016170
v -0.007128 0.010084 0.016170
v -0.007128 0.009916 0.016146
v -0.007128 0.010084 0.016146
v 0.007050 0.006500 0.015720
v 0.007050 0.006700 0.015920
v 0.006850 0.006700 0.015720
v 0.007050 0.027300 0.015920
v 0.007050 0.027500 0.015720
v 0.006850 0.027300 0.015720
v 0.007050 0.006500 0.015620
v 0.006850 0.006700 0.015620
v 0.007050 0.006700 0.015420
v 0.007050 0.027500 0.015620
v 0.007050 0.027300 0.015420
v 0.006850 0.027300 0.015620
v 0.008150 0.006500 0.015720
v 0.008350 0.006700 0.015720
v 0.008150 0.006700 0.015920
v 0.008150 0.027500 0.015720
v 0.008150 0.027300 0.015920
v 0.008350 0.027300 0.015720
v 0.008150 0.006500 0.015620
v 0.008150 0.006700 0.015420
v 0.008350 0.006700 0.015620
v 0.008150 0.027500 0.015620
v 0.008350 0.027300 0.015620
v 0.008150 0.027300 0.015420
v 0.007600 0.010700 0.015910
v 0.007600 0.010700 0.016150
v 0.007950 0.010606 0.015910
v 0.007950 0.010606 0.016150
v 0.008206 0.010350 0.015910
v 0.008206 0.010350 0.016150
v 0.008300 0.010000 0.015910
v 0.008300 0.010000 0.016150
v 0.008206 0.009650 0.015910
v 0.008206 0.009650 0.016150
v 0.007950 0.009394 0.015910
v 0.007950 0.009394 0.016150
v 0.007600 0.009300 0.015910
v 0.007600 0.009300 0.016150
v 0.007250 0.009394 0.015910
v 0.007250 0.009394 0.016150
v 0.006994 0.009650 0.015910
v 0.006994 0.009650 0.016150
v 0.006900 0.010000 0.015910
v 0.006900 0.010000 0.016150
v 0.006994 0.010350 0.015910
v 0.006994 0.010350 0.016150
v 0.007250 0.010606 0.015910
v 0.007250 0.010606 0.016150
v 0.007128 0.009916 0.016170
v 0.007128 0.010084 0.016170
v 0.007128 0.009916 0.016146
v 0.007128 0.010084 0.016146
v 0.008073 0.009916 0.016170
v 0.008073 0.010084 0.016170
v 0.008073 0.009916 0.016146
v 0.008073 0.010084 0.016146
v 0.032050 -0.000800 0.014900
v 0.032050 0.000800 0.014900
v 0.032050 -0.000800 -0.014900
v 0.032050 0.000800 -0.014900
v 0.032250 -0.000800 0.014900
v 0.032250 0.000800 0.014900
v 0.032250 -0.000800 -0.014900
v 0.032250 0.000800 -0.014900
vn -0.2646 -0.9317 0.2490
vn -0.2187 -0.6900 0.6900
vn -0.2646 -0.2490 0.9317
vn -0.6900 -0.2187 0.6900
vn -0.9317 -0.2646 0.2490
vn -0.6900 -0.6900 0.2187
vn -0.5774 -0.5774 0.5774
vn -0.2490 0.2646 0.9317
vn -0.2187 0.6900 0.6900
vn -0.2646 0.9317 0.2490
vn -0.6900 0.6900 0.2187
vn -0.9317 0.2490 0.2646
vn -0.6900 0.2187 0.6900
vn -0.5774 0.5774 0.5774
vn -0.2490 -0.9317 -0.2646
vn -0.6900 -0.6900 -0.2187
vn -0.9317 -0.2490 -0.2646
vn -0.6900 -0.2187 -0.6900
vn -0.2490 -0.2646 -0.9317
vn -0.2187 -0.6900 -0.6900
vn -0.5774 -0.5774 -0.5774
vn -0.2490 0.9317 -0.2646
vn -0.2187 0.6900 -0.6900
vn -0.2646 0.2490 -0.9317
vn -0.6900 0.2187 -0.6900
vn -0.9317 0.2646 -0.2490
vn -0.6900 0.6900 -0.2187
vn -0.5774 0.5774 -0.5774
vn 0.2646 -0.9317 0.2490
vn 0.6900 -0.6900 0.2187
vn 0.9317 -0.2490 0.2646
vn 0.6900 -0.2187 0.6900
vn 0.2490 -0.2646 0.9317
vn 0.2187 -0.6900 0.6900
vn 0.5774 -0.5774 0.5774
vn 0.2490 0.9317 0.2646
vn 0.2187 0.6900 0.6900
vn 0.2646 0.2490 0.9317
vn 0.6900 0.2187 0.6900
vn 0.9317 0.2646 0.2490
vn 0.6900 0.6900 0.2187
vn 0.5774 0.5774 0.5774
vn 0.2500 -0.9354 -0.2500
vn 0.2187 -0.6900 -0.6900
vn 0.2646 -0.2490 -0.9317
vn 0.6900 -0.2187 -0.6900
vn 0.9317 -0.2646 -0.2490
vn 0.6900 -0.6900 -0.2187
vn 0.5774 -0.5774 -0.5774
vn 0.2646 0.9317 -0.2490
vn 0.6900 0.6900 -0.2187
vn 0.9317 0.2490 -0.2646
vn 0.6900 0.2187 -0.6900
vn 0.2490 0.2646 -0.9317
vn 0.2187 0.6900 -0.6900
vn 0.5774 0.5774 -0.5774
vn -0.2582 -0.9661 -0.0000
vn -0.7071 -0.7071 -0.0000
vn -0.9661 -0.2582 -0.0000
vn -0.2582 -0.0000 0.9661
vn -0.7071 -0.0000 0.7071
vn -0.9661 -0.0000 0.2582
vn -0.2582 0.9661 -0.0000
vn -0.7071 0.7071 -0.0000
vn -0.9661 0.2582 -0.0000
vn -0.2582 -0.0000 -0.9661
vn -0.7071 -0.0000 -0.7071
vn -0.9661 -0.0000 -0.2582
vn -0.0000 -0.9661 -0.2582
vn -0.0000 -0.7071 -0.7071
vn -0.0000 -0.2582 -0.9661
vn -0.0000 0.9661 -0.2582
vn -0.0000 0.7071 -0.7071
vn -0.0000 0.2582 -0.9661
vn 0.9661 -0.0000 -0.2582
vn 0.7071 -0.0000 -0.7071
vn 0.2582 -0.0000 -0.9661
vn 0.2582 -0.9661 -0.0000
vn 0.7071 -0.7071 -0.0000
vn 0.9661 -0.2582 -0.0000
vn 0.2582 0.9661 -0.0000
vn 0.7071 0.7071 -0.0000
vn 0.9661 0.2582 -0.0000
vn 0.2582 -0.0000 0.9661
vn 0.7071 -0.0000 0.7071
vn 0.9661 -0.0000 0.2582
vn -0.0000 -0.9661 0.2582
vn -0.0000 -0.7071 0.7071
vn -0.0000 -0.2582 0.9661
vn -0.0000 0.9661 0.2582
vn -0.0000 0.7071 0.7071
vn -0.0000 0.2582 0.9661
vn -1.0000 -0.0000 -0.0000
vn -0.0000 -0.0000 1.0000
vn -0.0000 1.0000 -0.0000
vn -0.0000 -0.0000 -1.0000
vn 1.0000 -0.0000 -0.0000
vn -0.9317 0.2490 -0.2646
vn -0.2503 0.2625 0.9319
vn -0.2166 0.6903 0.6903
vn -0.2625 0.9319 0.2503
vn -0.6903 0.6903 0.2166
vn -0.9319 0.2503 0.2625
vn -0.6903 0.2166 0.6903
vn -0.5774 0.5773 0.5773
vn -0.2490 0.2646 -0.9317
vn -0.2646 0.9317 -0.2490
vn -0.2502 0.9319 -0.2625
vn -0.2166 0.6903 -0.6903
vn -0.2625 0.2503 -0.9319
vn -0.6903 0.2166 -0.6903
vn -0.9319 0.2625 -0.2503
vn -0.6903 0.6903 -0.2166
vn -0.5774 0.5773 -0.5773
vn -0.2646 -0.2490 -0.9317
vn 0.2502 0.9319 0.2625
vn 0.2166 0.6903 0.6903
vn 0.2625 0.2503 0.9319
vn 0.6903 0.2166 0.6903
vn 0.9319 0.2625 0.2503
vn 0.6903 0.6903 0.2166
vn 0.5774 0.5773 0.5773
vn -0.9317 -0.2646 -0.2490
vn -0.2646 -0.9317 -0.2490
vn 0.2625 0.9319 -0.2503
vn 0.6903 0.6903 -0.2166
vn 0.9319 0.2503 -0.2625
vn 0.6903 0.2166 -0.6903
vn 0.2502 0.2625 -0.9319
vn 0.2166 0.6903 -0.6903
vn 0.5774 0.5773 -0.5773
vn -0.2598 -0.0000 0.9657
vn -0.9659 -0.0000 0.2589
vn -0.2594 0.9658 -0.0000
vn -0.9658 0.2593 -0.0000
vn -0.2589 -0.0000 -0.9659
vn -0.9659 -0.0000 -0.2589
vn -0.0000 0.9658 -0.2593
vn -0.0000 0.2593 -0.9658
vn 0.9659 -0.0000 -0.2589
vn 0.2589 -0.0000 -0.9659
vn 0.2594 0.9658 -0.0000
vn 0.9658 0.2593 -0.0000
vn 0.2589 -0.0000 0.9659
vn 0.9657 -0.0000 0.2598
vn -0.0000 0.9658 0.2593
vn -0.0000 0.2594 0.9658
vn -0.1574 -0.9875 -0.0000
vn -0.4527 -0.8917 -0.0000
vn -0.8917 -0.4527 -0.0000
vn -0.9875 -0.1574 -0.0000
vn -0.9875 0.1574 -0.0000
vn -0.8917 0.4527 -0.0000
vn -0.4527 0.8917 -0.0000
vn -0.1574 0.9875 -0.0000
vn 0.1574 0.9875 -0.0000
vn 0.4527 0.8917 -0.0000
vn 0.8917 0.4527 -0.0000
vn 0.9875 0.1574 -0.0000
vn 0.9875 -0.1574 -0.0000
vn 0.8917 -0.4527 -0.0000
vn 0.4527 -0.8917 -0.0000
vn 0.1574 -0.9875 -0.0000
vn -0.9317 0.2646 0.2490
vn -0.2502 0.2625 0.9319
vn -0.2490 0.9317 0.2646
vn -0.2646 0.2490 0.9317
vn -0.9317 -0.2490 0.2646
vn -0.2490 -0.2646 0.9317
vn -0.2490 -0.9317 0.2646
vn 0.2503 0.2625 -0.9319
vn -0.0000 0.2594 -0.9658
vn -0.0000 0.2593 0.9658
vn -0.0000 -1.0000 -0.0000
vn -0.5773 -0.5773 0.5774
vn -0.5773 0.5773 0.5774
vn -0.5773 -0.5773 -0.5774
vn -0.5773 0.5773 -0.5774
vn 0.5773 -0.5773 0.5774
vn 0.5773 0.5773 0.5774
vn 0.5773 -0.5773 -0.5774
vn 0.5773 0.5773 -0.5774
vn -0.5774 -0.5774 0.5773
vn -0.5774 0.5774 0.5773
vn -0.5774 -0.5773 -0.5773
vn 0.5774 -0.5774 0.5773
vn 0.5774 0.5774 0.5773
vn 0.5774 -0.5773 -0.5773
vn -0.5773 -0.5774 0.5773
vn -0.5773 0.5774 0.5773
vn -0.5773 -0.5774 -0.5774
vn -0.5773 0.5774 -0.5774
vn 0.5773 -0.5774 0.5773
vn 0.5773 0.5774 0.5773
vn 0.5773 -0.5774 -0.5774
vn 0.5773 0.5774 -0.5774
vn -0.5774 -0.5773 0.5773
vn -0.5774 -0.5774 -0.5773
vn -0.5774 0.5774 -0.5773
vn 0.5774 -0.5773 0.5773
vn 0.5774 -0.5774 -0.5773
vn 0.5774 0.5774 -0.5773
vn -0.5773 -0.5774 0.5774
vn -0.5773 0.5774 0.5774
vn -0.5773 -0.5774 -0.5773
vn -0.5773 0.5774 -0.5773
vn 0.5773 -0.5774 0.5774
vn 0.5773 0.5774 0.5774
vn 0.5773 -0.5774 -0.5773
vn 0.5773 0.5774 -0.5773
vn 0.9914 0.1306 -0.0000
vn -0.9914 -0.1310 -0.0000
vn 0.9240 0.3823 -0.0000
vn -0.9238 -0.3829 -0.0000
vn 0.7929 0.6093 -0.0000
vn -0.7937 -0.6083 -0.0000
vn 0.6093 0.7929 -0.0000
vn -0.6083 -0.7937 -0.0000
vn 0.3823 0.9240 -0.0000
vn -0.3829 -0.9238 -0.0000
vn 0.1306 0.9914 -0.0000
vn -0.1310 -0.9914 -0.0000
vn -0.1306 0.9914 -0.0000
vn 0.1310 -0.9914 -0.0000
vn -0.3823 0.9240 -0.0000
vn 0.3829 -0.9238 -0.0000
vn -0.6093 0.7929 -0.0000
vn 0.6083 -0.7937 -0.0000
vn -0.7929 0.6093 -0.0000
vn 0.7937 -0.6083 -0.0000
vn -0.9240 0.3823 -0.0000
vn 0.9238 -0.3829 -0.0000
vn -0.9914 0.1306 -0.0000
vn 0.9914 -0.1310 -0.0000
vn -0.9914 -0.1306 -0.0000
vn 0.9914 0.1310 -0.0000
vn -0.9240 -0.3823 -0.0000
vn 0.9238 0.3829 -0.0000
vn -0.7929 -0.6093 -0.0000
vn 0.7937 0.6083 -0.0000
vn -0.6093 -0.7930 -0.0000
vn 0.6083 0.7937 -0.0000
vn -0.3823 -0.9240 -0.0000
vn 0.3829 0.9238 -0.0000
vn -0.1306 -0.9914 -0.0000
vn 0.1310 0.9914 -0.0000
vn 0.1306 -0.9914 -0.0000
vn -0.1310 0.9914 -0.0000
vn 0.3823 -0.9240 -0.0000
vn -0.3829 0.9238 -0.0000
vn 0.6093 -0.7929 -0.0000
vn -0.6083 0.7937 -0.0000
vn 0.7929 -0.6093 -0.0000
vn -0.7937 0.6083 -0.0000
vn 0.9240 -0.3823 -0.0000
vn -0.9238 0.3829 -0.0000
vn 0.9914 -0.1306 -0.0000
vn -0.9914 0.1310 -0.0000
vn 0.9658 0.2594 -0.0000
vn 0.9658 -0.2594 -0.0000
vn 0.2594 -0.9658 -0.0000
vn -0.2594 -0.9658 -0.0000
vn -0.9658 -0.2594 -0.0000
vn -0.9658 0.2594 -0.0000
vn -0.7930 -0.6093 -0.0000
vn -0.6093 -0.7929 -0.0000
vn 0.2490 -0.9317 0.2646
vn 0.9317 -0.2646 0.2490
vn 0.2646 -0.2490 0.9317
vn 0.2646 0.9317 0.2490
vn 0.2490 0.2646 0.9317
vn 0.9317 0.2490 0.2646
vn 0.2642 -0.9276 -0.2642
vn 0.2490 -0.2646 -0.9317
vn 0.9317 -0.2490 -0.2646
vn 0.2490 0.9317 -0.2646
vn 0.9317 0.2646 -0.2490
vn 0.2646 0.2490 -0.9317
vn -0.2625 0.2503 0.9319
vn -0.2502 0.9319 0.2625
vn -0.9319 0.2625 0.2503
vn -0.2625 0.9319 -0.2503
vn -0.2502 0.2625 -0.9319
vn -0.9319 0.2503 -0.2625
vn 0.2625 0.9319 0.2503
vn 0.2503 0.2625 0.9319
vn 0.9319 0.2503 0.2625
vn 0.2502 0.9319 -0.2625
vn 0.9319 0.2625 -0.2503
vn 0.2625 0.2503 -0.9319
vn -0.2589 -0.0000 0.9659
vn -0.2593 -0.0000 0.9658
vn -0.9657 -0.0000 0.2598
vn -0.9658 -0.0000 0.2593
vn -0.2593 0.9658 -0.0000
vn -0.2598 -0.0000 -0.9657
vn -0.2593 -0.0000 -0.9658
vn -0.9658 -0.0000 -0.2593
vn -0.9657 -0.0000 -0.2598
vn 0.9657 -0.0000 -0.2598
vn 0.9658 -0.0000 -0.2593
vn 0.2593 -0.0000 -0.9658
vn 0.2598 -0.0000 -0.9657
vn 0.2593 0.9658 -0.0000
vn 0.2598 -0.0000 0.9657
vn 0.2593 -0.0000 0.9658
vn 0.9659 -0.0000 0.2589
vn 0.9658 -0.0000 0.2594
vn -0.2503 0.2625 -0.9319
vn 0.2502 0.2625 0.9319
vn 0.7930 -0.6093 -0.0000
vn 0.6093 -0.7930 -0.0000
s 0
usemtl Shell
f 10//1 301//1 6//1
f 6//2 16//2 10//2
f 2//3 16//3 14//3
f 12//4 19//4 16//4
f 4//5 19//5 18//5
f 17//6 10//6 19//6
f 19//7 10//7 16//7
f 20//8 25//8 24//8
f 23//9 28//9 25//9
f 21//10 28//10 27//10
f 26//11 31//11 28//11
f 22//12 31//12 30//12
f 29//13 25//13 31//13
f 31//14 25//14 28//14
f 36//15 302//15 34//15
f 34//16 39//16 36//16
f 32//17 39//17 38//17
f 37//18 42//18 39//18
f 33//19 42//19 41//19
f 40//20 36//20 42//20
f 39//21 42//21 36//21
f 43//22 48//22 47//22
f 46//23 51//23 48//23
f 44//24 51//24 50//24
f 49//25 54//25 51//25
f 45//26 54//26 53//26
f 52//27 48//27 54//27
f 54//28 48//28 51//28
f 303//29 59//29 58//29
f 57//30 62//30 59//30
f 55//31 62//31 61//31
f 60//32 65//32 62//32
f 56//33 65//33 64//33
f 63//34 59//34 65//34
f 65//35 59//35 62//35
f 66//36 71//36 70//36
f 69//37 74//37 71//37
f 67//38 74//38 73//38
f 72//39 77//39 74//39
f 68//40 77//40 76//40
f 75//41 71//41 77//41
f 71//42 74//42 77//42
f 80//43 81//43 304//43
f 80//44 85//44 82//44
f 78//45 85//45 84//45
f 83//46 88//46 85//46
f 79//47 88//47 87//47
f 86//48 82//48 88//48
f 85//49 88//49 82//49
f 89//50 94//50 93//50
f 92//51 97//51 94//51
f 90//52 97//52 96//52
f 95//53 100//53 97//53
f 91//54 100//54 99//54
f 98//55 94//55 100//55
f 94//56 97//56 100//56
f 7//57 302//57 301//57
f 34//58 17//58 38//58
f 38//59 4//59 32//59
f 2//60 24//60 12//60
f 12//61 29//61 18//61
f 18//62 22//62 4//62
f 21//63 47//63 26//63
f 26//64 52//64 30//64
f 30//65 45//65 22//65
f 44//66 41//66 49//66
f 49//67 37//67 53//67
f 53//68 32//68 45//68
f 35//69 304//69 302//69
f 80//70 40//70 84//70
f 84//71 33//71 78//71
f 43//72 93//72 46//72
f 46//73 98//73 50//73
f 50//74 91//74 44//74
f 90//75 87//75 95//75
f 95//76 83//76 99//76
f 99//77 78//77 91//77
f 304//78 57//78 303//78
f 57//79 86//79 61//79
f 61//80 79//80 55//80
f 89//81 70//81 92//81
f 92//82 75//82 96//82
f 96//83 68//83 90//83
f 67//84 64//84 72//84
f 72//85 60//85 76//85
f 76//86 55//86 68//86
f 58//87 301//87 303//87
f 6//88 63//88 14//88
f 14//89 56//89 2//89
f 66//90 27//90 69//90
f 69//91 23//91 73//91
f 73//92 20//92 67//92
f 22//93 308//93 306//93
f 32//93 307//93 45//93
f 56//94 20//94 2//94
f 66//95 321//95 320//95
f 89//95 43//95 314//95
f 21//95 66//95 333//95
f 33//96 91//96 78//96
f 90//97 344//97 342//97
f 55//97 341//97 343//97
f 52//27 47//27 48//27
f 45//98 52//98 54//98
f 49//25 53//25 54//25
f 103//99 108//99 107//99
f 106//100 111//100 108//100
f 104//101 111//101 110//101
f 109//102 114//102 111//102
f 105//103 114//103 113//103
f 112//104 108//104 114//104
f 114//105 108//105 111//105
f 44//106 49//106 51//106
f 46//23 50//23 51//23
f 43//107 46//107 48//107
f 117//108 122//108 121//108
f 120//109 125//109 122//109
f 118//110 125//110 124//110
f 123//111 128//111 125//111
f 119//112 128//112 127//112
f 126//113 122//113 128//113
f 128//114 122//114 125//114
f 40//20 35//20 36//20
f 33//115 40//115 42//115
f 37//18 41//18 42//18
f 131//116 136//116 135//116
f 134//117 139//117 136//117
f 132//118 139//118 138//118
f 137//119 142//119 139//119
f 133//120 142//120 141//120
f 140//121 136//121 142//121
f 136//122 139//122 142//122
f 32//123 37//123 39//123
f 34//16 38//16 39//16
f 36//124 35//124 302//124
f 145//125 150//125 149//125
f 148//126 153//126 150//126
f 146//127 153//127 152//127
f 151//128 156//128 153//128
f 147//129 156//129 155//129
f 154//130 150//130 156//130
f 156//131 150//131 153//131
f 316//132 103//132 101//132
f 101//61 112//61 102//61
f 310//133 112//133 309//133
f 104//134 121//134 109//134
f 109//64 126//64 113//64
f 113//135 119//135 105//135
f 313//136 123//136 314//136
f 123//67 115//67 127//67
f 127//137 312//137 311//137
f 117//138 149//138 120//138
f 120//73 154//73 124//73
f 124//139 147//139 118//139
f 151//140 321//140 323//140
f 151//76 143//76 155//76
f 155//141 319//141 317//141
f 145//142 135//142 148//142
f 148//82 140//82 152//82
f 152//143 133//143 146//143
f 137//144 324//144 318//144
f 137//85 129//85 141//85
f 322//145 133//145 129//145
f 131//146 110//146 134//146
f 134//91 106//91 138//91
f 138//147 103//147 132//147
f 309//93 119//93 311//93
f 324//94 168//94 176//94
f 103//94 175//94 169//94
f 145//95 104//95 131//95
f 147//96 195//96 182//96
f 314//96 181//96 196//96
f 321//97 133//97 320//97
f 169//148 195//148 188//148
f 167//149 188//149 186//149
f 174//58 186//58 193//58
f 174//150 192//150 171//150
f 171//151 190//151 170//151
f 170//152 191//152 173//152
f 173//153 189//153 172//153
f 194//64 172//64 189//64
f 187//154 166//154 194//154
f 196//155 168//155 187//155
f 181//156 176//156 196//156
f 183//157 164//157 181//157
f 178//82 162//82 183//82
f 157//158 178//158 179//158
f 158//159 179//159 177//159
f 160//160 177//160 180//160
f 161//161 180//161 185//161
f 165//79 185//79 184//79
f 163//162 184//162 182//162
f 175//163 182//163 195//163
f 29//13 24//13 25//13
f 22//164 29//164 31//164
f 26//11 30//11 31//11
f 199//165 204//165 203//165
f 202//100 207//100 204//100
f 200//101 207//101 206//101
f 205//102 210//102 207//102
f 201//103 210//103 209//103
f 208//104 204//104 210//104
f 210//105 204//105 207//105
f 21//166 26//166 28//166
f 23//9 27//9 28//9
f 20//167 23//167 25//167
f 213//108 218//108 217//108
f 216//109 221//109 218//109
f 214//110 221//110 220//110
f 219//111 224//111 221//111
f 215//112 224//112 223//112
f 222//113 218//113 224//113
f 224//114 218//114 221//114
f 17//6 7//6 10//6
f 4//168 17//168 19//168
f 12//4 18//4 19//4
f 227//116 232//116 231//116
f 230//117 235//117 232//117
f 228//118 235//118 234//118
f 233//119 238//119 235//119
f 229//120 238//120 237//120
f 236//121 232//121 238//121
f 232//122 235//122 238//122
f 2//169 12//169 16//169
f 6//2 14//2 16//2
f 10//170 7//170 301//170
f 241//125 246//125 245//125
f 244//126 249//126 246//126
f 242//127 249//127 248//127
f 247//128 252//128 249//128
f 243//171 252//171 251//171
f 250//130 246//130 252//130
f 252//131 246//131 249//131
f 329//132 199//132 197//132
f 197//61 208//61 198//61
f 326//133 208//133 325//133
f 200//134 217//134 205//134
f 205//64 222//64 209//64
f 209//135 215//135 201//135
f 330//136 219//136 331//136
f 219//67 211//67 223//67
f 223//137 328//137 327//137
f 213//138 245//138 216//138
f 216//73 250//73 220//73
f 220//172 243//172 214//172
f 247//140 336//140 339//140
f 247//76 239//76 251//76
f 251//141 335//141 340//141
f 241//142 231//142 244//142
f 244//82 236//82 248//82
f 248//143 229//143 242//143
f 233//144 333//144 334//144
f 233//85 225//85 237//85
f 337//145 229//145 225//145
f 227//146 206//146 230//146
f 230//91 202//91 234//91
f 234//173 199//173 228//173
f 325//93 215//93 327//93
f 333//94 264//94 272//94
f 199//94 271//94 265//94
f 241//95 200//95 227//95
f 243//96 291//96 278//96
f 331//96 277//96 292//96
f 336//97 229//97 338//97
f 265//148 291//148 284//148
f 263//149 284//149 282//149
f 270//58 282//58 289//58
f 270//150 288//150 267//150
f 267//151 286//151 266//151
f 266//152 287//152 269//152
f 269//153 285//153 268//153
f 290//64 268//64 285//64
f 283//154 262//154 290//154
f 292//155 264//155 283//155
f 277//156 272//156 292//156
f 279//157 260//157 277//157
f 274//82 258//82 279//82
f 253//158 274//158 275//158
f 254//159 275//159 273//159
f 256//160 273//160 276//160
f 257//161 276//161 281//161
f 261//79 281//79 280//79
f 259//162 280//162 278//162
f 271//163 278//163 291//163
f 13//94 308//94 307//94
f 11//93 13//93 9//93
f 11//96 305//96 306//96
f 9//95 307//95 305//95
f 308//174 11//174 306//174
f 303//267 57//267 59//267
f 57//30 61//30 62//30
f 55//268 60//268 62//268
f 60//32 64//32 65//32
f 56//269 63//269 65//269
f 63//34 58//34 59//34
f 66//270 69//270 71//270
f 69//37 73//37 74//37
f 67//271 72//271 74//271
f 72//39 76//39 77//39
f 68//272 75//272 77//272
f 75//41 70//41 71//41
f 80//273 82//273 81//273
f 80//44 84//44 85//44
f 78//274 83//274 85//274
f 83//46 87//46 88//46
f 79//275 86//275 88//275
f 86//48 81//48 82//48
f 89//276 92//276 94//276
f 92//51 96//51 97//51
f 90//277 95//277 97//277
f 95//53 99//53 100//53
f 91//278 98//278 100//278
f 98//55 93//55 94//55
f 7//57 34//57 302//57
f 34//58 7//58 17//58
f 38//59 17//59 4//59
f 2//60 20//60 24//60
f 12//61 24//61 29//61
f 18//62 29//62 22//62
f 21//63 43//63 47//63
f 26//64 47//64 52//64
f 30//65 52//65 45//65
f 44//66 33//66 41//66
f 49//67 41//67 37//67
f 53//68 37//68 32//68
f 35//69 80//69 304//69
f 80//70 35//70 40//70
f 84//71 40//71 33//71
f 43//72 89//72 93//72
f 46//73 93//73 98//73
f 50//74 98//74 91//74
f 90//75 79//75 87//75
f 95//76 87//76 83//76
f 99//77 83//77 78//77
f 304//78 81//78 57//78
f 57//79 81//79 86//79
f 61//80 86//80 79//80
f 89//81 66//81 70//81
f 92//82 70//82 75//82
f 96//83 75//83 68//83
f 67//84 56//84 64//84
f 72//85 64//85 60//85
f 76//86 60//86 55//86
f 58//87 6//87 301//87
f 6//88 58//88 63//88
f 14//89 63//89 56//89
f 66//90 21//90 27//90
f 69//91 27//91 23//91
f 73//92 23//92 20//92
f 306//93 305//93 4//93
f 22//93 45//93 308//93
f 306//93 4//93 22//93
f 32//93 4//93 305//93
f 307//93 308//93 45//93
f 32//93 305//93 307//93
f 56//94 67//94 20//94
f 115//95 43//95 21//95
f 21//95 198//95 326//95
f 21//95 326//95 325//95
f 312//95 115//95 21//95
f 311//95 312//95 21//95
f 21//95 325//95 327//95
f 21//95 327//95 328//95
f 309//95 311//95 21//95
f 310//95 309//95 21//95
f 21//95 328//95 211//95
f 21//95 211//95 212//95
f 102//95 310//95 21//95
f 101//95 102//95 21//95
f 101//95 21//95 212//95
f 316//95 101//95 212//95
f 316//95 212//95 330//95
f 315//95 316//95 330//95
f 315//95 330//95 331//95
f 324//95 315//95 331//95
f 324//95 331//95 340//95
f 318//95 324//95 340//95
f 318//95 340//95 335//95
f 130//95 318//95 335//95
f 130//95 335//95 239//95
f 129//95 130//95 239//95
f 129//95 239//95 240//95
f 322//95 129//95 240//95
f 322//95 240//95 339//95
f 320//95 322//95 339//95
f 320//95 339//95 336//95
f 337//95 225//95 66//95
f 66//95 89//95 144//95
f 66//95 144//95 323//95
f 338//95 337//95 66//95
f 336//95 338//95 66//95
f 66//95 323//95 321//95
f 320//95 336//95 66//95
f 143//95 144//95 89//95
f 43//95 115//95 116//95
f 43//95 116//95 313//95
f 319//95 143//95 89//95
f 317//95 319//95 89//95
f 43//95 313//95 314//95
f 314//95 317//95 89//95
f 197//95 198//95 21//95
f 66//95 225//95 226//95
f 66//95 226//95 334//95
f 329//95 197//95 21//95
f 332//95 329//95 21//95
f 66//95 334//95 333//95
f 333//95 332//95 21//95
f 33//96 44//96 91//96
f 342//97 341//97 79//97
f 90//97 68//97 344//97
f 342//97 79//97 90//97
f 344//97 68//97 55//97
f 55//97 79//97 341//97
f 343//97 344//97 55//97
f 103//279 106//279 108//279
f 106//100 110//100 111//100
f 104//280 109//280 111//280
f 109//102 113//102 114//102
f 105//281 112//281 114//281
f 112//104 107//104 108//104
f 117//282 120//282 122//282
f 120//109 124//109 125//109
f 118//283 123//283 125//283
f 123//111 127//111 128//111
f 119//284 126//284 128//284
f 126//113 121//113 122//113
f 131//285 134//285 136//285
f 134//117 138//117 139//117
f 132//286 137//286 139//286
f 137//119 141//119 142//119
f 133//287 140//287 142//287
f 140//121 135//121 136//121
f 145//288 148//288 150//288
f 148//126 152//126 153//126
f 146//289 151//289 153//289
f 151//128 155//128 156//128
f 147//290 154//290 156//290
f 154//130 149//130 150//130
f 316//291 315//291 103//291
f 103//292 107//292 101//292
f 101//61 107//61 112//61
f 310//293 102//293 112//293
f 112//294 105//294 309//294
f 104//295 117//295 121//295
f 109//64 121//64 126//64
f 113//135 126//135 119//135
f 313//296 116//296 123//296
f 123//297 118//297 314//297
f 123//67 116//67 115//67
f 311//298 119//298 127//298
f 127//299 115//299 312//299
f 117//138 145//138 149//138
f 120//73 149//73 154//73
f 124//172 154//172 147//172
f 323//300 144//300 151//300
f 151//301 146//301 321//301
f 151//76 144//76 143//76
f 317//302 147//302 155//302
f 155//303 143//303 319//303
f 145//304 131//304 135//304
f 148//82 135//82 140//82
f 152//143 140//143 133//143
f 318//305 130//305 137//305
f 137//306 132//306 324//306
f 137//85 130//85 129//85
f 322//307 320//307 133//307
f 133//308 141//308 129//308
f 131//146 104//146 110//146
f 134//91 110//91 106//91
f 138//173 106//173 103//173
f 309//93 105//93 119//93
f 160//94 161//94 103//94
f 103//94 315//94 324//94
f 132//94 174//94 171//94
f 132//94 171//94 170//94
f 158//94 160//94 103//94
f 157//94 158//94 103//94
f 324//94 132//94 170//94
f 324//94 170//94 173//94
f 159//94 157//94 103//94
f 159//94 103//94 324//94
f 324//94 173//94 172//94
f 324//94 172//94 166//94
f 162//94 159//94 324//94
f 164//94 162//94 324//94
f 324//94 166//94 168//94
f 176//94 164//94 324//94
f 167//94 174//94 132//94
f 103//94 161//94 165//94
f 103//94 165//94 163//94
f 167//94 132//94 103//94
f 169//94 167//94 103//94
f 103//94 163//94 175//94
f 145//95 117//95 104//95
f 184//96 185//96 118//96
f 147//96 193//96 186//96
f 147//96 186//96 188//96
f 184//96 118//96 147//96
f 182//96 184//96 147//96
f 147//96 188//96 195//96
f 192//96 193//96 147//96
f 147//96 317//96 314//96
f 118//96 185//96 180//96
f 118//96 180//96 177//96
f 190//96 192//96 147//96
f 191//96 190//96 147//96
f 314//96 118//96 177//96
f 314//96 177//96 179//96
f 189//96 191//96 147//96
f 189//96 147//96 314//96
f 314//96 179//96 178//96
f 314//96 178//96 183//96
f 194//96 189//96 314//96
f 187//96 194//96 314//96
f 314//96 183//96 181//96
f 196//96 187//96 314//96
f 321//97 146//97 133//97
f 169//148 175//148 195//148
f 167//149 169//149 188//149
f 174//58 167//58 186//58
f 174//150 193//150 192//150
f 171//151 192//151 190//151
f 170//152 190//152 191//152
f 173//153 191//153 189//153
f 194//64 166//64 172//64
f 187//154 168//154 166//154
f 196//155 176//155 168//155
f 181//156 164//156 176//156
f 183//157 162//157 164//157
f 178//82 159//82 162//82
f 157//158 159//158 178//158
f 158//159 157//159 179//159
f 160//160 158//160 177//160
f 161//161 160//161 180//161
f 165//79 161//79 185//79
f 163//162 165//162 184//162
f 175//163 163//163 182//163
f 199//279 202//279 204//279
f 202//100 206//100 207//100
f 200//280 205//280 207//280
f 205//102 209//102 210//102
f 201//281 208//281 210//281
f 208//104 203//104 204//104
f 213//282 216//282 218//282
f 216//109 220//109 221//109
f 214//309 219//309 221//309
f 219//111 223//111 224//111
f 215//284 222//284 224//284
f 222//113 217//113 218//113
f 227//285 230//285 232//285
f 230//117 234//117 235//117
f 228//310 233//310 235//310
f 233//119 237//119 238//119
f 229//287 236//287 238//287
f 236//121 231//121 232//121
f 241//288 244//288 246//288
f 244//126 248//126 249//126
f 242//289 247//289 249//289
f 247//128 251//128 252//128
f 243//290 250//290 252//290
f 250//130 245//130 246//130
f 329//291 332//291 199//291
f 199//292 203//292 197//292
f 197//61 203//61 208//61
f 326//293 198//293 208//293
f 208//294 201//294 325//294
f 200//295 213//295 217//295
f 205//64 217//64 222//64
f 209//135 222//135 215//135
f 330//296 212//296 219//296
f 219//297 214//297 331//297
f 219//67 212//67 211//67
f 327//298 215//298 223//298
f 223//299 211//299 328//299
f 213//138 241//138 245//138
f 216//73 245//73 250//73
f 220//139 250//139 243//139
f 339//300 240//300 247//300
f 247//301 242//301 336//301
f 247//76 240//76 239//76
f 340//302 243//302 251//302
f 251//303 239//303 335//303
f 241//304 227//304 231//304
f 244//82 231//82 236//82
f 248//143 236//143 229//143
f 334//305 226//305 233//305
f 233//306 228//306 333//306
f 233//85 226//85 225//85
f 337//307 338//307 229//307
f 229//308 237//308 225//308
f 227//146 200//146 206//146
f 230//91 206//91 202//91
f 234//147 202//147 199//147
f 325//93 201//93 215//93
f 256//94 257//94 199//94
f 199//94 332//94 333//94
f 228//94 270//94 267//94
f 228//94 267//94 266//94
f 254//94 256//94 199//94
f 253//94 254//94 199//94
f 333//94 228//94 266//94
f 333//94 266//94 269//94
f 255//94 253//94 199//94
f 255//94 199//94 333//94
f 333//94 269//94 268//94
f 333//94 268//94 262//94
f 258//94 255//94 333//94
f 260//94 258//94 333//94
f 333//94 262//94 264//94
f 272//94 260//94 333//94
f 263//94 270//94 228//94
f 199//94 257//94 261//94
f 199//94 261//94 259//94
f 263//94 228//94 199//94
f 265//94 263//94 199//94
f 199//94 259//94 271//94
f 241//95 213//95 200//95
f 280//96 281//96 214//96
f 243//96 289//96 282//96
f 243//96 282//96 284//96
f 280//96 214//96 243//96
f 278//96 280//96 243//96
f 243//96 284//96 291//96
f 288//96 289//96 243//96
f 243//96 340//96 331//96
f 214//96 281//96 276//96
f 214//96 276//96 273//96
f 286//96 288//96 243//96
f 287//96 286//96 243//96
f 331//96 214//96 273//96
f 331//96 273//96 275//96
f 285//96 287//96 243//96
f 285//96 243//96 331//96
f 331//96 275//96 274//96
f 331//96 274//96 279//96
f 290//96 285//96 331//96
f 283//96 290//96 331//96
f 331//96 279//96 277//96
f 292//96 283//96 331//96
f 336//97 242//97 229//97
f 265//148 271//148 291//148
f 263//149 265//149 284//149
f 270//58 263//58 282//58
f 270//150 289//150 288//150
f 267//151 288//151 286//151
f 266//152 286//152 287//152
f 269//153 287//153 285//153
f 290//64 262//64 268//64
f 283//154 264//154 262//154
f 292//155 272//155 264//155
f 277//156 260//156 272//156
f 279//157 258//157 260//157
f 274//82 255//82 258//82
f 253//158 255//158 274//158
f 254//159 253//159 275//159
f 256//160 254//160 273//160
f 257//161 256//161 276//161
f 261//79 257//79 281//79
f 259//162 261//162 280//162
f 271//163 259//163 278//163
f 13//94 15//94 308//94
f 11//93 15//93 13//93
f 11//96 9//96 305//96
f 9//95 13//95 307//95
f 308//174 15//174 11//174
usemtl Rubber
f 293//93 296//93 295//93
f 295//96 300//96 299//96
f 299//97 298//97 297//97
f 297//94 294//94 293//94
f 295//174 297//174 293//174
f 298//95 304//95 303//95
f 296//95 301//95 302//95
f 345//175 346//175 347//175
f 348//176 349//176 350//176
f 351//177 352//177 353//177
f 354//178 355//178 356//178
f 357//179 358//179 359//179
f 360//180 361//180 362//180
f 363//181 364//181 365//181
f 366//182 367//182 368//182
f 351//58 347//58 352//58
f 346//61 350//61 347//61
f 349//64 356//64 350//64
f 355//67 352//67 356//67
f 363//70 353//70 364//70
f 354//73 368//73 355//73
f 367//76 364//76 368//76
f 357//79 365//79 358//79
f 366//82 362//82 367//82
f 361//85 358//85 362//85
f 345//88 359//88 346//88
f 360//91 348//91 361//91
f 351//174 357//174 345//174
f 347//93 356//93 352//93
f 359//94 348//94 346//94
f 366//95 349//95 360//95
f 353//96 368//96 364//96
f 365//97 362//97 358//97
f 369//175 370//175 371//175
f 372//176 373//176 374//176
f 375//177 376//177 377//177
f 378//178 379//178 380//178
f 381//179 382//179 383//179
f 384//180 385//180 386//180
f 387//181 388//181 389//181
f 390//182 391//182 392//182
f 375//58 371//58 376//58
f 370//61 374//61 371//61
f 373//64 380//64 374//64
f 379//67 376//67 380//67
f 387//70 377//70 388//70
f 378//73 392//73 379//73
f 391//76 388//76 392//76
f 381//79 389//79 382//79
f 390//82 386//82 391//82
f 385//85 382//85 386//85
f 369//88 383//88 370//88
f 384//91 372//91 385//91
f 375//174 381//174 369//174
f 371//93 380//93 376//93
f 383//94 372//94 370//94
f 390//95 373//95 384//95
f 377//96 392//96 388//96
f 389//97 386//97 382//97
f 393//175 394//175 395//175
f 396//176 397//176 398//176
f 399//177 400//177 401//177
f 402//178 403//178 404//178
f 405//179 406//179 407//179
f 408//180 409//180 410//180
f 411//181 412//181 413//181
f 414//182 415//182 416//182
f 399//58 395//58 400//58
f 394//61 398//61 395//61
f 397//64 404//64 398//64
f 403//67 400//67 404//67
f 411//70 401//70 412//70
f 402//73 416//73 403//73
f 415//76 412//76 416//76
f 405//79 413//79 406//79
f 414//82 410//82 415//82
f 409//85 406//85 410//85
f 393//88 407//88 394//88
f 408//91 396//91 409//91
f 399//174 405//174 393//174
f 395//93 404//93 400//93
f 407//94 396//94 394//94
f 414//95 397//95 408//95
f 401//96 416//96 412//96
f 413//97 410//97 406//97
f 417//175 418//175 419//175
f 420//176 421//176 422//176
f 423//177 424//177 425//177
f 426//178 427//178 428//178
f 429//179 430//179 431//179
f 432//180 433//180 434//180
f 435//181 436//181 437//181
f 438//182 439//182 440//182
f 423//58 419//58 424//58
f 418//61 422//61 419//61
f 421//64 428//64 422//64
f 427//67 424//67 428//67
f 435//70 425//70 436//70
f 426//73 440//73 427//73
f 439//76 436//76 440//76
f 429//79 437//79 430//79
f 438//82 434//82 439//82
f 433//85 430//85 434//85
f 417//88 431//88 418//88
f 432//91 420//91 433//91
f 423//174 429//174 417//174
f 419//93 428//93 424//93
f 431//94 420//94 418//94
f 438//95 421//95 432//95
f 425//96 440//96 436//96
f 437//97 434//97 430//97
f 441//175 442//175 443//175
f 444//176 445//176 446//176
f 447//177 448//177 449//177
f 450//178 451//178 452//178
f 453//179 454//179 455//179
f 456//180 457//180 458//180
f 459//181 460//181 461//181
f 462//182 463//182 464//182
f 447//58 443//58 448//58
f 442//61 446//61 443//61
f 445//64 452//64 446//64
f 451//67 448//67 452//67
f 459//70 449//70 460//70
f 450//73 464//73 451//73
f 463//76 460//76 464//76
f 453//79 461//79 454//79
f 462//82 458//82 463//82
f 457//85 454//85 458//85
f 441//88 455//88 442//88
f 456//91 444//91 457//91
f 447//174 453//174 441//174
f 443//93 452//93 448//93
f 455//94 444//94 442//94
f 462//95 445//95 456//95
f 449//96 464//96 460//96
f 461//97 458//97 454//97
f 465//175 466//175 467//175
f 468//176 469//176 470//176
f 471//177 472//177 473//177
f 474//178 475//178 476//178
f 477//179 478//179 479//179
f 480//180 481//180 482//180
f 483//181 484//181 485//181
f 486//182 487//182 488//182
f 471//58 467//58 472//58
f 466//61 470//61 467//61
f 469//64 476//64 470//64
f 475//67 472//67 476//67
f 483//70 473//70 484//70
f 474//73 488//73 475//73
f 487//76 484//76 488//76
f 477//79 485//79 478//79
f 486//82 482//82 487//82
f 481//85 478//85 482//85
f 465//88 479//88 466//88
f 480//91 468//91 481//91
f 471//174 477//174 465//174
f 467//93 476//93 472//93
f 479//94 468//94 466//94
f 486//95 469//95 480//95
f 473//96 488//96 484//96
f 485//97 482//97 478//97
f 293//93 294//93 296//93
f 295//96 296//96 300//96
f 299//97 300//97 298//97
f 297//94 298//94 294//94
f 295//174 299//174 297//174
f 303//95 301//95 294//95
f 298//95 300//95 304//95
f 303//95 294//95 298//95
f 302//95 304//95 300//95
f 296//95 294//95 301//95
f 302//95 300//95 296//95
f 351//58 345//58 347//58
f 346//61 348//61 350//61
f 349//64 354//64 356//64
f 355//67 353//67 352//67
f 363//70 351//70 353//70
f 354//73 366//73 368//73
f 367//76 365//76 364//76
f 357//79 363//79 365//79
f 366//82 360//82 362//82
f 361//85 359//85 358//85
f 345//88 357//88 359//88
f 360//91 349//91 348//91
f 351//174 363//174 357//174
f 347//93 350//93 356//93
f 359//94 361//94 348//94
f 366//95 354//95 349//95
f 353//96 355//96 368//96
f 365//97 367//97 362//97
f 375//58 369//58 371//58
f 370//61 372//61 374//61
f 373//64 378//64 380//64
f 379//67 377//67 376//67
f 387//70 375//70 377//70
f 378//73 390//73 392//73
f 391//76 389//76 388//76
f 381//79 387//79 389//79
f 390//82 384//82 386//82
f 385//85 383//85 382//85
f 369//88 381//88 383//88
f 384//91 373//91 372//91
f 375//174 387//174 381//174
f 371//93 374//93 380//93
f 383//94 385//94 372//94
f 390//95 378//95 373//95
f 377//96 379//96 392//96
f 389//97 391//97 386//97
f 399//58 393//58 395//58
f 394//61 396//61 398//61
f 397//64 402//64 404//64
f 403//67 401//67 400//67
f 411//70 399//70 401//70
f 402//73 414//73 416//73
f 415//76 413//76 412//76
f 405//79 411//79 413//79
f 414//82 408//82 410//82
f 409//85 407//85 406//85
f 393//88 405//88 407//88
f 408//91 397//91 396//91
f 399//174 411//174 405//174
f 395//93 398//93 404//93
f 407//94 409//94 396//94
f 414//95 402//95 397//95
f 401//96 403//96 416//96
f 413//97 415//97 410//97
f 423//58 417//58 419//58
f 418//61 420//61 422//61
f 421//64 426//64 428//64
f 427//67 425//67 424//67
f 435//70 423//70 425//70
f 426//73 438//73 440//73
f 439//76 437//76 436//76
f 429//79 435//79 437//79
f 438//82 432//82 434//82
f 433//85 431//85 430//85
f 417//88 429//88 431//88
f 432//91 421//91 420//91
f 423//174 435//174 429//174
f 419//93 422//93 428//93
f 431//94 433//94 420//94
f 438//95 426//95 421//95
f 425//96 427//96 440//96
f 437//97 439//97 434//97
f 447//58 441//58 443//58
f 442//61 444//61 446//61
f 445//64 450//64 452//64
f 451//67 449//67 448//67
f 459//70 447//70 449//70
f 450//73 462//73 464//73
f 463//76 461//76 460//76
f 453//79 459//79 461//79
f 462//82 456//82 458//82
f 457//85 455//85 454//85
f 441//88 453//88 455//88
f 456//91 445//91 444//91
f 447//174 459//174 453//174
f 443//93 446//93 452//93
f 455//94 457//94 444//94
f 462//95 450//95 445//95
f 449//96 451//96 464//96
f 461//97 463//97 458//97
f 471//58 465//58 467//58
f 466//61 468//61 470//61
f 469//64 474//64 476//64
f 475//67 473//67 472//67
f 483//70 471//70 473//70
f 474//73 486//73 488//73
f 487//76 485//76 484//76
f 477//79 483//79 485//79
f 486//82 480//82 482//82
f 481//85 479//85 478//85
f 465//88 477//88 479//88
f 480//91 469//91 468//91
f 471//174 483//174 477//174
f 467//93 470//93 476//93
f 479//94 481//94 468//94
f 486//95 474//95 469//95
f 473//96 475//96 488//96
f 485//97 487//97 482//97
usemtl Black
f 3//97 5//97 8//97
f 342//94 5//94 341//94
f 343//96 3//96 344//96
f 5//95 343//95 341//95
f 3//174 342//174 344//174
f 3//97 1//97 5//97
f 342//94 8//94 5//94
f 343//96 1//96 3//96
f 5//95 1//95 343//95
f 3//174 8//174 342//174
usemtl DetailGraphite
f 489//183 490//183 491//183
f 492//184 493//184 494//184
f 495//185 496//185 497//185
f 498//114 499//114 500//114
f 501//186 502//186 503//186
f 504//187 505//187 506//187
f 507//188 508//188 509//188
f 510//131 511//131 512//131
f 495//58 491//58 496//58
f 490//61 494//61 491//61
f 493//64 500//64 494//64
f 499//67 496//67 500//67
f 507//70 497//70 508//70
f 498//73 512//73 499//73
f 511//76 508//76 512//76
f 501//79 509//79 502//79
f 510//82 506//82 511//82
f 505//85 502//85 506//85
f 489//88 503//88 490//88
f 504//91 492//91 505//91
f 495//174 501//174 489//174
f 491//93 500//93 496//93
f 503//94 492//94 490//94
f 510//95 493//95 504//95
f 497//96 512//96 508//96
f 509//97 506//97 502//97
f 537//197 538//197 539//197
f 540//105 541//105 542//105
f 543//198 544//198 545//198
f 546//199 547//199 548//199
f 549//200 550//200 551//200
f 552//122 553//122 554//122
f 555//201 556//201 557//201
f 558//202 559//202 560//202
f 543//58 539//58 544//58
f 538//61 542//61 539//61
f 541//64 548//64 542//64
f 547//67 544//67 548//67
f 555//70 545//70 556//70
f 546//73 560//73 547//73
f 559//76 556//76 560//76
f 549//79 557//79 550//79
f 558//82 554//82 559//82
f 553//85 550//85 554//85
f 537//88 551//88 538//88
f 552//91 540//91 553//91
f 543//174 549//174 537//174
f 539//93 548//93 544//93
f 551//94 540//94 538//94
f 558//95 541//95 552//95
f 545//96 560//96 556//96
f 557//97 554//97 550//97
f 729//93 732//93 731//93
f 731//96 736//96 735//96
f 735//97 734//97 733//97
f 733//94 730//94 729//94
f 731//174 733//174 729//174
f 736//95 730//95 734//95
f 785//93 788//93 787//93
f 787//96 792//96 791//96
f 791//97 790//97 789//97
f 789//94 786//94 785//94
f 787//174 789//174 785//174
f 792//95 786//95 790//95
f 945//93 948//93 947//93
f 947//96 952//96 951//96
f 951//97 950//97 949//97
f 949//94 946//94 945//94
f 947//174 949//174 945//174
f 952//95 946//95 950//95
f 1001//93 1004//93 1003//93
f 1003//96 1008//96 1007//96
f 1007//97 1006//97 1005//97
f 1005//94 1002//94 1001//94
f 1003//174 1005//174 1001//174
f 1008//95 1002//95 1006//95
f 495//58 489//58 491//58
f 490//61 492//61 494//61
f 493//64 498//64 500//64
f 499//67 497//67 496//67
f 507//70 495//70 497//70
f 498//73 510//73 512//73
f 511//76 509//76 508//76
f 501//79 507//79 509//79
f 510//82 504//82 506//82
f 505//85 503//85 502//85
f 489//88 501//88 503//88
f 504//91 493//91 492//91
f 495//174 507//174 501//174
f 491//93 494//93 500//93
f 503//94 505//94 492//94
f 510//95 498//95 493//95
f 497//96 499//96 512//96
f 509//97 511//97 506//97
f 543//58 537//58 539//58
f 538//61 540//61 542//61
f 541//64 546//64 548//64
f 547//67 545//67 544//67
f 555//70 543//70 545//70
f 546//73 558//73 560//73
f 559//76 557//76 556//76
f 549//79 555//79 557//79
f 558//82 552//82 554//82
f 553//85 551//85 550//85
f 537//88 549//88 551//88
f 552//91 541//91 540//91
f 543//174 555//174 549//174
f 539//93 542//93 548//93
f 551//94 553//94 540//94
f 558//95 546//95 541//95
f 545//96 547//96 560//96
f 557//97 559//97 554//97
f 729//93 730//93 732//93
f 731//96 732//96 736//96
f 735//97 736//97 734//97
f 733//94 734//94 730//94
f 731//174 735//174 733//174
f 736//95 732//95 730//95
f 785//93 786//93 788//93
f 787//96 788//96 792//96
f 791//97 792//97 790//97
f 789//94 790//94 786//94
f 787//174 791//174 789//174
f 792//95 788//95 786//95
f 945//93 946//93 948//93
f 947//96 948//96 952//96
f 951//97 952//97 950//97
f 949//94 950//94 946//94
f 947//174 951//174 949//174
f 952//95 948//95 946//95
f 1001//93 1002//93 1004//93
f 1003//96 1004//96 1008//96
f 1007//97 1008//97 1006//97
f 1005//94 1006//94 1002//94
f 1003//174 1007//174 1005//174
f 1008//95 1004//95 1002//95
usemtl DetailTeal
f 513//189 514//189 515//189
f 516//190 517//190 518//190
f 519//191 520//191 521//191
f 522//192 523//192 524//192
f 525//193 526//193 527//193
f 528//194 529//194 530//194
f 531//195 532//195 533//195
f 534//196 535//196 536//196
f 519//58 515//58 520//58
f 514//61 518//61 515//61
f 517//64 524//64 518//64
f 523//67 520//67 524//67
f 531//70 521//70 532//70
f 522//73 536//73 523//73
f 535//76 532//76 536//76
f 525//79 533//79 526//79
f 534//82 530//82 535//82
f 529//85 526//85 530//85
f 513//88 527//88 514//88
f 528//91 516//91 529//91
f 519//174 525//174 513//174
f 515//93 524//93 520//93
f 527//94 516//94 514//94
f 534//95 517//95 528//95
f 521//96 536//96 532//96
f 533//97 530//97 526//97
f 561//203 562//203 563//203
f 564//204 565//204 566//204
f 567//205 568//205 569//205
f 570//206 571//206 572//206
f 573//207 574//207 575//207
f 576//208 577//208 578//208
f 579//209 580//209 581//209
f 582//210 583//210 584//210
f 567//58 563//58 568//58
f 562//61 566//61 563//61
f 565//64 572//64 566//64
f 571//67 568//67 572//67
f 579//70 569//70 580//70
f 570//73 584//73 571//73
f 583//76 580//76 584//76
f 573//79 581//79 574//79
f 582//82 578//82 583//82
f 577//85 574//85 578//85
f 561//88 575//88 562//88
f 576//91 564//91 577//91
f 567//174 573//174 561//174
f 563//93 572//93 568//93
f 575//94 564//94 562//94
f 582//95 565//95 576//95
f 569//96 584//96 580//96
f 581//97 578//97 574//97
f 585//96 610//96 586//96
f 633//94 658//94 657//94
f 585//211 634//211 633//211
f 610//212 657//212 658//212
f 586//96 611//96 587//96
f 634//94 659//94 658//94
f 586//213 635//213 634//213
f 611//214 658//214 659//214
f 587//96 612//96 588//96
f 635//94 660//94 659//94
f 587//215 636//215 635//215
f 612//216 659//216 660//216
f 588//96 613//96 589//96
f 636//94 661//94 660//94
f 588//217 637//217 636//217
f 613//218 660//218 661//218
f 589//96 614//96 590//96
f 637//94 662//94 661//94
f 589//219 638//219 637//219
f 614//220 661//220 662//220
f 590//96 615//96 591//96
f 638//94 663//94 662//94
f 590//221 639//221 638//221
f 615//222 662//222 663//222
f 591//96 616//96 592//96
f 639//94 664//94 663//94
f 591//223 640//223 639//223
f 616//224 663//224 664//224
f 592//96 617//96 593//96
f 640//94 665//94 664//94
f 592//225 641//225 640//225
f 617//226 664//226 665//226
f 593//96 618//96 594//96
f 641//94 666//94 665//94
f 593//227 642//227 641//227
f 618//228 665//228 666//228
f 594//96 619//96 595//96
f 642//94 667//94 666//94
f 594//229 643//229 642//229
f 619//230 666//230 667//230
f 595//96 620//96 596//96
f 643//94 668//94 667//94
f 595//231 644//231 643//231
f 620//232 667//232 668//232
f 596//96 621//96 597//96
f 644//94 669//94 668//94
f 596//233 645//233 644//233
f 621//234 668//234 669//234
f 597//96 622//96 598//96
f 645//94 670//94 669//94
f 597//235 646//235 645//235
f 622//236 669//236 670//236
f 598//96 623//96 599//96
f 646//94 671//94 670//94
f 598//237 647//237 646//237
f 623//238 670//238 671//238
f 599//96 624//96 600//96
f 647//94 672//94 671//94
f 599//239 648//239 647//239
f 624//240 671//240 672//240
f 600//96 625//96 601//96
f 648//94 673//94 672//94
f 600//241 649//241 648//241
f 625//242 672//242 673//242
f 601//96 626//96 602//96
f 649//94 674//94 673//94
f 601//243 650//243 649//243
f 626//244 673//244 674//244
f 602//96 627//96 603//96
f 650//94 675//94 674//94
f 602//245 651//245 650//245
f 627//246 674//246 675//246
f 603//96 628//96 604//96
f 651//94 676//94 675//94
f 603//247 652//247 651//247
f 628//248 675//248 676//248
f 604//96 629//96 605//96
f 652//94 677//94 676//94
f 604//249 653//249 652//249
f 629//250 676//250 677//250
f 605//96 630//96 606//96
f 653//94 678//94 677//94
f 605//251 654//251 653//251
f 630//252 677//252 678//252
f 606//96 631//96 607//96
f 654//94 679//94 678//94
f 606//253 655//253 654//253
f 631//254 678//254 679//254
f 607//96 632//96 608//96
f 655//94 680//94 679//94
f 607//255 656//255 655//255
f 632//256 679//256 680//256
f 608//96 609//96 585//96
f 656//94 657//94 680//94
f 608//257 633//257 656//257
f 609//258 680//258 657//258
f 793//93 796//93 795//93
f 795//96 800//96 799//96
f 799//97 798//97 797//97
f 797//94 794//94 793//94
f 795//174 797//174 793//174
f 800//95 794//95 798//95
f 801//96 826//96 802//96
f 849//94 874//94 873//94
f 801//211 850//211 849//211
f 826//212 873//212 874//212
f 802//96 827//96 803//96
f 850//94 875//94 874//94
f 802//213 851//213 850//213
f 827//214 874//214 875//214
f 803//96 828//96 804//96
f 851//94 876//94 875//94
f 803//215 852//215 851//215
f 828//216 875//216 876//216
f 804//96 829//96 805//96
f 852//94 877//94 876//94
f 804//217 853//217 852//217
f 829//218 876//218 877//218
f 805//96 830//96 806//96
f 853//94 878//94 877//94
f 805//219 854//219 853//219
f 830//220 877//220 878//220
f 806//96 831//96 807//96
f 854//94 879//94 878//94
f 806//221 855//221 854//221
f 831//222 878//222 879//222
f 807//96 832//96 808//96
f 855//94 880//94 879//94
f 807//223 856//223 855//223
f 832//224 879//224 880//224
f 808//96 833//96 809//96
f 856//94 881//94 880//94
f 808//225 857//225 856//225
f 833//226 880//226 881//226
f 809//96 834//96 810//96
f 857//94 882//94 881//94
f 809//227 858//227 857//227
f 834//228 881//228 882//228
f 810//96 835//96 811//96
f 858//94 883//94 882//94
f 810//229 859//229 858//229
f 835//230 882//230 883//230
f 811//96 836//96 812//96
f 859//94 884//94 883//94
f 811//231 860//231 859//231
f 836//232 883//232 884//232
f 812//96 837//96 813//96
f 860//94 885//94 884//94
f 812//233 861//233 860//233
f 837//234 884//234 885//234
f 813//96 838//96 814//96
f 861//94 886//94 885//94
f 813//235 862//235 861//235
f 838//236 885//236 886//236
f 814//96 839//96 815//96
f 862//94 887//94 886//94
f 814//237 863//237 862//237
f 839//238 886//238 887//238
f 815//96 840//96 816//96
f 863//94 888//94 887//94
f 815//265 864//265 863//265
f 840//240 887//240 888//240
f 816//96 841//96 817//96
f 864//94 889//94 888//94
f 816//266 865//266 864//266
f 841//242 888//242 889//242
f 817//96 842//96 818//96
f 865//94 890//94 889//94
f 817//243 866//243 865//243
f 842//244 889//244 890//244
f 818//96 843//96 819//96
f 866//94 891//94 890//94
f 818//245 867//245 866//245
f 843//246 890//246 891//246
f 819//96 844//96 820//96
f 867//94 892//94 891//94
f 819//247 868//247 867//247
f 844//248 891//248 892//248
f 820//96 845//96 821//96
f 868//94 893//94 892//94
f 820//249 869//249 868//249
f 845//250 892//250 893//250
f 821//96 846//96 822//96
f 869//94 894//94 893//94
f 821//251 870//251 869//251
f 846//252 893//252 894//252
f 822//96 847//96 823//96
f 870//94 895//94 894//94
f 822//253 871//253 870//253
f 847//254 894//254 895//254
f 823//96 848//96 824//96
f 871//94 896//94 895//94
f 823//255 872//255 871//255
f 848//256 895//256 896//256
f 824//96 825//96 801//96
f 872//94 873//94 896//94
f 824//257 849//257 872//257
f 825//258 896//258 873//258
f 1009//93 1012//93 1011//93
f 1011//96 1016//96 1015//96
f 1015//97 1014//97 1013//97
f 1013//94 1010//94 1009//94
f 1011//174 1013//174 1009//174
f 1016//95 1010//95 1014//95
f 519//58 513//58 515//58
f 514//61 516//61 518//61
f 517//64 522//64 524//64
f 523//67 521//67 520//67
f 531//70 519//70 521//70
f 522//73 534//73 536//73
f 535//76 533//76 532//76
f 525//79 531//79 533//79
f 534//82 528//82 530//82
f 529//85 527//85 526//85
f 513//88 525//88 527//88
f 528//91 517//91 516//91
f 519//174 531//174 525//174
f 515//93 518//93 524//93
f 527//94 529//94 516//94
f 534//95 522//95 517//95
f 521//96 523//96 536//96
f 533//97 535//97 530//97
f 567//58 561//58 563//58
f 562//61 564//61 566//61
f 565//64 570//64 572//64
f 571//67 569//67 568//67
f 579//70 567//70 569//70
f 570//73 582//73 584//73
f 583//76 581//76 580//76
f 573//79 579//79 581//79
f 582//82 576//82 578//82
f 577//85 575//85 574//85
f 561//88 573//88 575//88
f 576//91 565//91 564//91
f 567//174 579//174 573//174
f 563//93 566//93 572//93
f 575//94 577//94 564//94
f 582//95 570//95 565//95
f 569//96 571//96 584//96
f 581//97 583//97 578//97
f 585//96 609//96 610//96
f 633//94 634//94 658//94
f 585//211 586//211 634//211
f 610//212 609//212 657//212
f 586//96 610//96 611//96
f 634//94 635//94 659//94
f 586//213 587//213 635//213
f 611//214 610//214 658//214
f 587//96 611//96 612//96
f 635//94 636//94 660//94
f 587//215 588//215 636//215
f 612//216 611//216 659//216
f 588//96 612//96 613//96
f 636//94 637//94 661//94
f 588//217 589//217 637//217
f 613//218 612//218 660//218
f 589//96 613//96 614//96
f 637//94 638//94 662//94
f 589//219 590//219 638//219
f 614//220 613//220 661//220
f 590//96 614//96 615//96
f 638//94 639//94 663//94
f 590//221 591//221 639//221
f 615//222 614//222 662//222
f 591//96 615//96 616//96
f 639//94 640//94 664//94
f 591//223 592//223 640//223
f 616//224 615//224 663//224
f 592//96 616//96 617//96
f 640//94 641//94 665//94
f 592//225 593//225 641//225
f 617//226 616//226 664//226
f 593//96 617//96 618//96
f 641//94 642//94 666//94
f 593//227 594//227 642//227
f 618//228 617//228 665//228
f 594//96 618//96 619//96
f 642//94 643//94 667//94
f 594//229 595//229 643//229
f 619//230 618//230 666//230
f 595//96 619//96 620//96
f 643//94 644//94 668//94
f 595//231 596//231 644//231
f 620//232 619//232 667//232
f 596//96 620//96 621//96
f 644//94 645//94 669//94
f 596//233 597//233 645//233
f 621//234 620//234 668//234
f 597//96 621//96 622//96
f 645//94 646//94 670//94
f 597//235 598//235 646//235
f 622//236 621//236 669//236
f 598//96 622//96 623//96
f 646//94 647//94 671//94
f 598//237 599//237 647//237
f 623//238 622//238 670//238
f 599//96 623//96 624//96
f 647//94 648//94 672//94
f 599//239 600//239 648//239
f 624//240 623//240 671//240
f 600//96 624//96 625//96
f 648//94 649//94 673//94
f 600//266 601//266 649//266
f 625//242 624//242 672//242
f 601//96 625//96 626//96
f 649//94 650//94 674//94
f 601//243 602//243 650//243
f 626//244 625//244 673//244
f 602//96 626//96 627//96
f 650//94 651//94 675//94
f 602//245 603//245 651//245
f 627//246 626//246 674//246
f 603//96 627//96 628//96
f 651//94 652//94 676//94
f 603//247 604//247 652//247
f 628//248 627//248 675//248
f 604//96 628//96 629//96
f 652//94 653//94 677//94
f 604//249 605//249 653//249
f 629//250 628//250 676//250
f 605//96 629//96 630//96
f 653//94 654//94 678//94
f 605//251 606//251 654//251
f 630//252 629//252 677//252
f 606//96 630//96 631//96
f 654//94 655//94 679//94
f 606//311 607//311 655//311
f 631//254 630//254 678//254
f 607//96 631//96 632//96
f 655//94 656//94 680//94
f 607//255 608//255 656//255
f 632//256 631//256 679//256
f 608//96 632//96 609//96
f 656//94 633//94 657//94
f 608//257 585//257 633//257
f 609//258 632//258 680//258
f 793//93 794//93 796//93
f 795//96 796//96 800//96
f 799//97 800//97 798//97
f 797//94 798//94 794//94
f 795//174 799//174 797//174
f 800//95 796//95 794//95
f 801//96 825//96 826//96
f 849//94 850//94 874//94
f 801//211 802//211 850//211
f 826//212 825//212 873//212
f 802//96 826//96 827//96
f 850//94 851//94 875//94
f 802//213 803//213 851//213
f 827//214 826//214 874//214
f 803//96 827//96 828//96
f 851//94 852//94 876//94
f 803//215 804//215 852//215
f 828//216 827//216 875//216
f 804//96 828//96 829//96
f 852//94 853//94 877//94
f 804//217 805//217 853//217
f 829//218 828//218 876//218
f 805//96 829//96 830//96
f 853//94 854//94 878//94
f 805//219 806//219 854//219
f 830//220 829//220 877//220
f 806//96 830//96 831//96
f 854//94 855//94 879//94
f 806//221 807//221 855//221
f 831//222 830//222 878//222
f 807//96 831//96 832//96
f 855//94 856//94 880//94
f 807//223 808//223 856//223
f 832//224 831//224 879//224
f 808//96 832//96 833//96
f 856//94 857//94 881//94
f 808//225 809//225 857//225
f 833//226 832//226 880//226
f 809//96 833//96 834//96
f 857//94 858//94 882//94
f 809//227 810//227 858//227
f 834//228 833//228 881//228
f 810//96 834//96 835//96
f 858//94 859//94 883//94
f 810//229 811//229 859//229
f 835//230 834//230 882//230
f 811//96 835//96 836//96
f 859//94 860//94 884//94
f 811//231 812//231 860//231
f 836//232 835//232 883//232
f 812//96 836//96 837//96
f 860//94 861//94 885//94
f 812//233 813//233 861//233
f 837//234 836//234 884//234
f 813//96 837//96 838//96
f 861//94 862//94 886//94
f 813//235 814//235 862//235
f 838//236 837//236 885//236
f 814//96 838//96 839//96
f 862//94 863//94 887//94
f 814//237 815//237 863//237
f 839//238 838//238 886//238
f 815//96 839//96 840//96
f 863//94 864//94 888//94
f 815//239 816//239 864//239
f 840//240 839//240 887//240
f 816//96 840//96 841//96
f 864//94 865//94 889//94
f 816//266 817//266 865//266
f 841//242 840//242 888//242
f 817//96 841//96 842//96
f 865//94 866//94 890//94
f 817//243 818//243 866//243
f 842//244 841//244 889//244
f 818//96 842//96 843//96
f 866//94 867//94 891//94
f 818//245 819//245 867//245
f 843//246 842//246 890//246
f 819//96 843//96 844//96
f 867//94 868//94 892//94
f 819//247 820//247 868//247
f 844//248 843//248 891//248
f 820//96 844//96 845//96
f 868//94 869//94 893//94
f 820//249 821//249 869//249
f 845//250 844//250 892//250
f 821//96 845//96 846//96
f 869//94 870//94 894//94
f 821//312 822//312 870//312
f 846//252 845//252 893//252
f 822//96 846//96 847//96
f 870//94 871//94 895//94
f 822//253 823//253 871//253
f 847//254 846//254 894//254
f 823//96 847//96 848//96
f 871//94 872//94 896//94
f 823//255 824//255 872//255
f 848//256 847//256 895//256
f 824//96 848//96 825//96
f 872//94 849//94 873//94
f 824//257 801//257 849//257
f 825//258 848//258 896//258
f 1009//93 1010//93 1012//93
f 1011//96 1012//96 1016//96
f 1015//97 1016//97 1014//97
f 1013//94 1014//94 1010//94
f 1011//174 1015//174 1013//174
f 1016//95 1012//95 1010//95
usemtl DetailSteel
f 681//203 682//203 683//203
f 684//204 685//204 686//204
f 687//191 688//191 689//191
f 690//192 691//192 692//192
f 693//193 694//193 695//193
f 696//208 697//208 698//208
f 699//209 700//209 701//209
f 702//196 703//196 704//196
f 687//58 683//58 688//58
f 682//61 686//61 683//61
f 685//64 692//64 686//64
f 691//67 688//67 692//67
f 699//70 689//70 700//70
f 690//73 704//73 691//73
f 703//76 700//76 704//76
f 693//79 701//79 694//79
f 702//82 698//82 703//82
f 697//85 694//85 698//85
f 681//88 695//88 682//88
f 696//91 684//91 697//91
f 687//174 693//174 681//174
f 683//93 692//93 688//93
f 695//94 684//94 682//94
f 702//95 685//95 696//95
f 689//96 704//96 700//96
f 701//97 698//97 694//97
f 737//189 738//189 739//189
f 740//204 741//204 742//204
f 743//205 744//205 745//205
f 746//192 747//192 748//192
f 749//207 750//207 751//207
f 752//208 753//208 754//208
f 755//195 756//195 757//195
f 758//196 759//196 760//196
f 743//58 739//58 744//58
f 738//61 742//61 739//61
f 741//64 748//64 742//64
f 747//67 744//67 748//67
f 755//70 745//70 756//70
f 746//73 760//73 747//73
f 759//76 756//76 760//76
f 749//79 757//79 750//79
f 758//82 754//82 759//82
f 753//85 750//85 754//85
f 737//88 751//88 738//88
f 752//91 740//91 753//91
f 743//174 749//174 737//174
f 739//93 748//93 744//93
f 751//94 740//94 738//94
f 758//95 741//95 752//95
f 745//96 760//96 756//96
f 757//97 754//97 750//97
f 897//203 898//203 899//203
f 900//204 901//204 902//204
f 903//191 904//191 905//191
f 906//192 907//192 908//192
f 909//193 910//193 911//193
f 912//208 913//208 914//208
f 915//209 916//209 917//209
f 918//196 919//196 920//196
f 903//58 899//58 904//58
f 898//61 902//61 899//61
f 901//64 908//64 902//64
f 907//67 904//67 908//67
f 915//70 905//70 916//70
f 906//73 920//73 907//73
f 919//76 916//76 920//76
f 909//79 917//79 910//79
f 918//82 914//82 919//82
f 913//85 910//85 914//85
f 897//88 911//88 898//88
f 912//91 900//91 913//91
f 903//174 909//174 897//174
f 899//93 908//93 904//93
f 911//94 900//94 898//94
f 918//95 901//95 912//95
f 905//96 920//96 916//96
f 917//97 914//97 910//97
f 953//189 954//189 955//189
f 956//204 957//204 958//204
f 959//205 960//205 961//205
f 962//192 963//192 964//192
f 965//207 966//207 967//207
f 968//208 969//208 970//208
f 971//195 972//195 973//195
f 974//196 975//196 976//196
f 959//58 955//58 960//58
f 954//61 958//61 955//61
f 957//64 964//64 958//64
f 963//67 960//67 964//67
f 971//70 961//70 972//70
f 962//73 976//73 963//73
f 975//76 972//76 976//76
f 965//79 973//79 966//79
f 974//82 970//82 975//82
f 969//85 966//85 970//85
f 953//88 967//88 954//88
f 968//91 956//91 969//91
f 959//174 965//174 953//174
f 955//93 964//93 960//93
f 967//94 956//94 954//94
f 974//95 957//95 968//95
f 961//96 976//96 972//96
f 973//97 970//97 966//97
f 687//58 681//58 683//58
f 682//61 684//61 686//61
f 685//64 690//64 692//64
f 691//67 689//67 688//67
f 699//70 687//70 689//70
f 690//73 702//73 704//73
f 703//76 701//76 700//76
f 693//79 699//79 701//79
f 702//82 696//82 698//82
f 697//85 695//85 694//85
f 681//88 693//88 695//88
f 696//91 685//91 684//91
f 687//174 699//174 693//174
f 683//93 686//93 692//93
f 695//94 697//94 684//94
f 702//95 690//95 685//95
f 689//96 691//96 704//96
f 701//97 703//97 698//97
f 743//58 737//58 739//58
f 738//61 740//61 742//61
f 741//64 746//64 748//64
f 747//67 745//67 744//67
f 755//70 743//70 745//70
f 746//73 758//73 760//73
f 759//76 757//76 756//76
f 749//79 755//79 757//79
f 758//82 752//82 754//82
f 753//85 751//85 750//85
f 737//88 749//88 751//88
f 752//91 741//91 740//91
f 743//174 755//174 749//174
f 739//93 742//93 748//93
f 751//94 753//94 740//94
f 758//95 746//95 741//95
f 745//96 747//96 760//96
f 757//97 759//97 754//97
f 903//58 897//58 899//58
f 898//61 900//61 902//61
f 901//64 906//64 908//64
f 907//67 905//67 904//67
f 915//70 903//70 905//70
f 906//73 918//73 920//73
f 919//76 917//76 916//76
f 909//79 915//79 917//79
f 918//82 912//82 914//82
f 913//85 911//85 910//85
f 897//88 909//88 911//88
f 912//91 901//91 900//91
f 903//174 915//174 909//174
f 899//93 902//93 908//93
f 911//94 913//94 900//94
f 918//95 906//95 901//95
f 905//96 907//96 920//96
f 917//97 919//97 914//97
f 959//58 953//58 955//58
f 954//61 956//61 958//61
f 957//64 962//64 964//64
f 963//67 961//67 960//67
f 971//70 959//70 961//70
f 962//73 974//73 976//73
f 975//76 973//76 972//76
f 965//79 971//79 973//79
f 974//82 968//82 970//82
f 969//85 967//85 966//85
f 953//88 965//88 967//88
f 968//91 957//91 956//91
f 959//174 971//174 965//174
f 955//93 958//93 964//93
f 967//94 969//94 956//94
f 974//95 962//95 957//95
f 961//96 963//96 976//96
f 973//97 975//97 970//97
usemtl Silver
f 705//142 708//142 707//142
f 707//82 710//82 709//82
f 709//259 712//259 711//259
f 711//260 714//260 713//260
f 713//79 716//79 715//79
f 715//261 718//261 717//261
f 717//262 720//262 719//262
f 719//58 722//58 721//58
f 721//263 724//263 723//263
f 723//264 726//264 725//264
f 726//94 718//94 710//94
f 725//64 728//64 727//64
f 727//134 706//134 705//134
f 711//96 719//96 727//96
f 761//142 764//142 763//142
f 763//82 766//82 765//82
f 765//259 768//259 767//259
f 767//260 770//260 769//260
f 769//79 772//79 771//79
f 771//261 774//261 773//261
f 773//262 776//262 775//262
f 775//58 778//58 777//58
f 777//263 780//263 779//263
f 779//264 782//264 781//264
f 782//94 774//94 766//94
f 781//64 784//64 783//64
f 783//134 762//134 761//134
f 767//96 775//96 783//96
f 921//142 924//142 923//142
f 923//82 926//82 925//82
f 925//259 928//259 927//259
f 927//260 930//260 929//260
f 929//79 932//79 931//79
f 931//261 934//261 933//261
f 933//262 936//262 935//262
f 935//58 938//58 937//58
f 937//263 940//263 939//263
f 939//264 942//264 941//264
f 942//94 934//94 926//94
f 941//64 944//64 943//64
f 943//134 922//134 921//134
f 927//96 935//96 943//96
f 977//142 980//142 979//142
f 979//82 982//82 981//82
f 981//259 984//259 983//259
f 983//260 986//260 985//260
f 985//79 988//79 987//79
f 987//261 990//261 989//261
f 989//262 992//262 991//262
f 991//58 994//58 993//58
f 993//263 996//263 995//263
f 995//264 998//264 997//264
f 998//94 990//94 982//94
f 997//64 1000//64 999//64
f 999//134 978//134 977//134
f 983//96 991//96 999//96
f 705//142 706//142 708//142
f 707//82 708//82 710//82
f 709//259 710//259 712//259
f 711//260 712//260 714//260
f 713//79 714//79 716//79
f 715//261 716//261 718//261
f 717//262 718//262 720//262
f 719//58 720//58 722//58
f 721//263 722//263 724//263
f 723//264 724//264 726//264
f 710//94 708//94 706//94
f 706//94 728//94 726//94
f 726//94 724//94 722//94
f 722//94 720//94 718//94
f 718//94 716//94 714//94
f 714//94 712//94 710//94
f 710//94 706//94 726//94
f 726//94 722//94 718//94
f 718//94 714//94 710//94
f 725//64 726//64 728//64
f 727//134 728//134 706//134
f 727//96 705//96 707//96
f 707//96 709//96 711//96
f 711//96 713//96 715//96
f 715//96 717//96 719//96
f 719//96 721//96 723//96
f 723//96 725//96 727//96
f 727//96 707//96 711//96
f 711//96 715//96 719//96
f 719//96 723//96 727//96
f 761//142 762//142 764//142
f 763//82 764//82 766//82
f 765//259 766//259 768//259
f 767//260 768//260 770//260
f 769//79 770//79 772//79
f 771//261 772//261 774//261
f 773//262 774//262 776//262
f 775//58 776//58 778//58
f 777//263 778//263 780//263
f 779//264 780//264 782//264
f 766//94 764//94 762//94
f 762//94 784//94 782//94
f 782//94 780//94 778//94
f 778//94 776//94 774//94
f 774//94 772//94 770//94
f 770//94 768//94 766//94
f 766//94 762//94 782//94
f 782//94 778//94 774//94
f 774//94 770//94 766//94
f 781//64 782//64 784//64
f 783//134 784//134 762//134
f 783//96 761//96 763//96
f 763//96 765//96 767//96
f 767//96 769//96 771//96
f 771//96 773//96 775//96
f 775//96 777//96 779//96
f 779//96 781//96 783//96
f 783//96 763//96 767//96
f 767//96 771//96 775//96
f 775//96 779//96 783//96
f 921//142 922//142 924//142
f 923//82 924//82 926//82
f 925//259 926//259 928//259
f 927//260 928//260 930//260
f 929//79 930//79 932//79
f 931//261 932//261 934//261
f 933//262 934//262 936//262
f 935//58 936//58 938//58
f 937//263 938//263 940//263
f 939//264 940//264 942//264
f 926//94 924//94 922//94
f 922//94 944//94 942//94
f 942//94 940//94 938//94
f 938//94 936//94 934//94
f 934//94 932//94 930//94
f 930//94 928//94 926//94
f 926//94 922//94 942//94
f 942//94 938//94 934//94
f 934//94 930//94 926//94
f 941//64 942//64 944//64
f 943//134 944//134 922//134
f 943//96 921//96 923//96
f 923//96 925//96 927//96
f 927//96 929//96 931//96
f 931//96 933//96 935//96
f 935//96 937//96 939//96
f 939//96 941//96 943//96
f 943//96 923//96 927//96
f 927//96 931//96 935//96
f 935//96 939//96 943//96
f 977//142 978//142 980//142
f 979//82 980//82 982//82
f 981//259 982//259 984//259
f 983//260 984//260 986//260
f 985//79 986//79 988//79
f 987//261 988//261 990//261
f 989//262 990//262 992//262
f 991//58 992//58 994//58
f 993//263 994//263 996//263
f 995//264 996//264 998//264
f 982//94 980//94 978//94
f 978//94 1000//94 998//94
f 998//94 996//94 994//94
f 994//94 992//94 990//94
f 990//94 988//94 986//94
f 986//94 984//94 982//94
f 982//94 978//94 998//94
f 998//94 994//94 990//94
f 990//94 986//94 982//94
f 997//64 998//64 1000//64
f 999//134 1000//134 978//134
f 999//96 977//96 979//96
f 979//96 981//96 983//96
f 983//96 985//96 987//96
f 987//96 989//96 991//96
f 991//96 993//96 995//96
f 995//96 997//96 999//96
f 999//96 979//96 983//96
f 983//96 987//96 991//96
f 991//96 995//96 999//96
