# Blender 5.2.1 LTS
# www.blender.org
mtllib leg_link.mtl
o leg_link
v 0.003000 0.014000 -0.001400
v -0.001750 -0.016500 -0.007400
v 0.005450 0.014000 -0.003400
v -0.001750 0.010500 -0.007400
v 0.000000 -0.019000 -0.001500
v 0.005450 0.012949 -0.003234
v -0.004000 -0.020000 0.006000
v 0.001750 -0.016500 -0.007400
v -0.004000 -0.017000 0.007250
v 0.001750 0.010500 -0.007400
v -0.004000 0.009000 0.007250
v 0.005450 0.012002 -0.002751
v -0.004000 -0.018000 0.008000
v 0.003000 0.013567 -0.001331
v 0.005450 0.011249 -0.001998
v 0.000464 -0.019000 -0.001427
v 0.004000 -0.017000 0.007250
v 0.005450 0.010766 -0.001051
v -0.006000 -0.018000 0.006000
v 0.005450 0.010600 0.000000
v -0.004000 -0.019733 0.006999
v 0.004000 0.009000 0.007250
v 0.000882 -0.019000 -0.001214
v 0.005450 0.010766 0.001051
v -0.004999 -0.019733 0.006000
v 0.001214 -0.019000 -0.000882
v 0.005450 0.011249 0.001998
v 0.003000 0.013177 -0.001133
v -0.004956 -0.019473 0.006956
v 0.005450 0.012002 0.002751
v -0.004999 -0.018000 0.007733
v 0.001427 -0.019000 -0.000464
v 0.005450 0.012949 0.003234
v 0.003000 0.012867 -0.000823
v 0.005450 0.014000 0.003400
v -0.004000 -0.018999 0.007733
v 0.001500 -0.019000 0.000000
v 0.003000 0.012669 -0.000433
v 0.005450 0.015051 0.003234
v -0.004956 -0.018956 0.007473
v 0.005450 0.015998 0.002751
v 0.001427 -0.019000 0.000464
v -0.005733 -0.018999 0.006000
v 0.001214 -0.019000 0.000882
v 0.005450 0.016751 0.001998
v -0.005733 -0.018000 0.006999
v 0.005450 0.017234 0.001051
v 0.003000 0.012600 0.000000
v -0.005473 -0.018956 0.006956
v 0.000882 -0.019000 0.001214
v 0.005450 0.017400 0.000000
v 0.003000 0.012669 0.000433
v 0.005450 0.017234 -0.001051
v -0.004000 0.018000 0.008000
v 0.000464 -0.019000 0.001427
v 0.005450 0.016751 -0.001998
v -0.004000 0.020000 0.006000
v 0.003000 0.012867 0.000823
v 0.005450 0.015998 -0.002751
v 0.000000 -0.019000 0.001500
v -0.006000 0.018000 0.006000
v -0.000464 -0.019000 0.001427
v 0.005450 0.015051 -0.003234
v -0.004000 0.018999 0.007733
v 0.003000 0.013177 0.001133
v -0.004999 0.018000 0.007733
v -0.000882 -0.019000 0.001214
v -0.004956 0.018956 0.007473
v -0.001214 -0.019000 0.000882
v -0.004999 0.019733 0.006000
v 0.003000 0.013567 0.001331
v -0.001427 -0.019000 0.000464
v -0.004000 0.019733 0.006999
v -0.004956 0.019473 0.006956
v 0.003000 0.014000 0.001400
v -0.001500 -0.019000 0.000000
v -0.005733 0.018000 0.006999
v -0.001427 -0.019000 -0.000464
v -0.005733 0.018999 0.006000
v 0.003000 0.014433 0.001331
v -0.005473 0.018956 0.006956
v -0.001214 -0.019000 -0.000882
v 0.003000 0.014823 0.001133
v -0.004000 -0.020000 -0.006000
v -0.000882 -0.019000 -0.001214
v -0.006000 -0.018000 -0.006000
v 0.003000 0.015133 0.000823
v -0.000464 -0.019000 -0.001427
v -0.004000 -0.018000 -0.008000
v -0.004999 -0.019733 -0.006000
v 0.003000 0.015331 0.000433
v -0.004000 -0.019733 -0.006999
v -0.004956 -0.019473 -0.006956
v 0.003000 0.015400 0.000000
v -0.005733 -0.018000 -0.006999
v -0.005733 -0.018999 -0.006000
v 0.003000 0.015331 -0.000433
v -0.005473 -0.018956 -0.006956
v -0.004000 -0.018999 -0.007733
v -0.004999 -0.018000 -0.007733
v 0.003000 0.015133 -0.000823
v -0.004956 -0.018956 -0.007473
v 0.003000 0.014823 -0.001133
v -0.004000 0.020000 -0.006000
v -0.004000 0.018000 -0.008000
v 0.003000 0.014433 -0.001331
v -0.006000 0.018000 -0.006000
v -0.004000 0.019733 -0.006999
v -0.004999 0.019733 -0.006000
v -0.004956 0.019473 -0.006956
v -0.004999 0.018000 -0.007733
v -0.004000 0.018999 -0.007733
v -0.004956 0.018956 -0.007473
v -0.005733 0.018999 -0.006000
v -0.005733 0.018000 -0.006999
v -0.005473 0.018956 -0.006956
v 0.004000 -0.020000 0.006000
v 0.006000 -0.018000 0.006000
v 0.004000 -0.018000 0.008000
v 0.004999 -0.019733 0.006000
v 0.004000 -0.019733 0.006999
v 0.004956 -0.019473 0.006956
v 0.005733 -0.018000 0.006999
v 0.005733 -0.018999 0.006000
v 0.005473 -0.018956 0.006956
v 0.004000 -0.018999 0.007733
v 0.004999 -0.018000 0.007733
v 0.004956 -0.018956 0.007473
v 0.004000 0.020000 0.006000
v 0.004000 0.018000 0.008000
v 0.006000 0.018000 0.006000
v 0.004000 0.019733 0.006999
v 0.004999 0.019733 0.006000
v 0.004956 0.019473 0.006956
v 0.004999 0.018000 0.007733
v 0.004000 0.018999 0.007733
v 0.004956 0.018956 0.007473
v 0.005733 0.018999 0.006000
v 0.005733 0.018000 0.006999
v 0.005473 0.018956 0.006956
v 0.004000 -0.020000 -0.006000
v 0.004000 -0.018000 -0.008000
v 0.006000 -0.018000 -0.006000
v 0.004000 -0.019733 -0.006999
v 0.004999 -0.019733 -0.006000
v 0.004956 -0.019473 -0.006956
v 0.004999 -0.018000 -0.007733
v 0.004000 -0.018999 -0.007733
v 0.004956 -0.018956 -0.007473
v 0.005733 -0.018999 -0.006000
v 0.005733 -0.018000 -0.006999
v 0.005473 -0.018956 -0.006956
v 0.004000 0.020000 -0.006000
v 0.006000 0.018000 -0.006000
v 0.004000 0.018000 -0.008000
v 0.004999 0.019733 -0.006000
v 0.004000 0.019733 -0.006999
v 0.004956 0.019473 -0.006956
v 0.005733 0.018000 -0.006999
v 0.005733 0.018999 -0.006000
v 0.005473 0.018956 -0.006956
v 0.004000 0.018999 -0.007733
v 0.004999 0.018000 -0.007733
v 0.004956 0.018956 -0.007473
v -0.000464 -0.020000 -0.001427
v 0.000000 -0.020000 -0.001500
v 0.000464 -0.020000 -0.001427
v 0.001214 -0.020000 0.000882
v 0.001214 -0.020000 -0.000882
v 0.001500 -0.020000 0.000000
v 0.001427 -0.020000 0.000464
v 0.001427 -0.020000 -0.000464
v 0.000882 -0.020000 0.001214
v 0.000882 -0.020000 -0.001214
v -0.001500 -0.020000 0.000000
v -0.001427 -0.020000 0.000464
v -0.001214 -0.020000 0.000882
v -0.001427 -0.020000 -0.000464
v -0.001214 -0.020000 -0.000882
v -0.000882 -0.020000 -0.001214
v 0.000000 -0.020000 0.001500
v 0.000464 -0.020000 0.001427
v -0.000464 -0.020000 0.001427
v -0.000882 -0.020000 0.001214
v -0.004000 -0.017000 0.008000
v -0.004000 0.009000 0.008000
v 0.004000 -0.017000 0.008000
v 0.004000 0.009000 0.008000
v 0.006000 0.010600 0.000000
v 0.006000 0.010766 -0.001051
v 0.005450 0.013567 -0.001331
v 0.005450 0.014000 -0.001400
v 0.005450 0.013177 -0.001133
v 0.005450 0.012867 -0.000823
v 0.005450 0.012669 -0.000433
v 0.005450 0.012600 0.000000
v 0.005450 0.012669 0.000433
v 0.005450 0.012867 0.000823
v 0.005450 0.013177 0.001133
v 0.005450 0.013567 0.001331
v 0.005450 0.014000 0.001400
v 0.005450 0.014433 0.001331
v 0.005450 0.014823 0.001133
v 0.005450 0.015133 0.000823
v 0.005450 0.015331 0.000433
v 0.005450 0.015400 0.000000
v 0.005450 0.015331 -0.000433
v 0.005450 0.015133 -0.000823
v 0.005450 0.014823 -0.001133
v 0.005450 0.014433 -0.001331
v 0.006000 0.014000 -0.003400
v 0.006000 0.012949 -0.003234
v 0.006000 0.012002 -0.002751
v 0.006000 0.011249 -0.001998
v 0.006000 0.010766 0.001051
v 0.006000 0.011249 0.001998
v 0.006000 0.012002 0.002751
v 0.006000 0.012949 0.003234
v 0.006000 0.014000 0.003400
v 0.006000 0.015051 0.003234
v 0.006000 0.015909 0.002796
v 0.006000 0.015998 0.002751
v 0.006000 0.016751 0.001998
v 0.006000 0.017234 0.001051
v 0.006000 0.017400 0.000000
v 0.006000 0.017234 -0.001051
v 0.006000 0.016751 -0.001998
v 0.006000 0.015998 -0.002751
v 0.006000 0.015909 -0.002796
v 0.006000 0.015051 -0.003234
v 0.001750 0.010500 -0.008000
v -0.001750 0.010500 -0.008000
v -0.001750 -0.016500 -0.008000
v 0.001750 -0.016500 -0.008000
v -0.003900 -0.016900 0.007450
v -0.003900 0.008900 0.007450
v -0.003900 -0.016900 0.007250
v -0.003900 0.008900 0.007250
v 0.003900 -0.016900 0.007450
v 0.003900 0.008900 0.007450
v 0.003900 -0.016900 0.007250
v 0.003900 0.008900 0.007250
v -0.003438 -0.012700 0.007698
v -0.003438 -0.012588 0.007810
v -0.003550 -0.012588 0.007698
v -0.003438 -0.011412 0.007810
v -0.003438 -0.011300 0.007698
v -0.003550 -0.011412 0.007698
v -0.003438 -0.012700 0.007642
v -0.003550 -0.012588 0.007642
v -0.003438 -0.012588 0.007530
v -0.003438 -0.011300 0.007642
v -0.003438 -0.011412 0.007530
v -0.003550 -0.011412 0.007642
v 0.003438 -0.012700 0.007698
v 0.003550 -0.012588 0.007698
v 0.003438 -0.012588 0.007810
v 0.003438 -0.011300 0.007698
v 0.003438 -0.011412 0.007810
v 0.003550 -0.011412 0.007698
v 0.003438 -0.012700 0.007642
v 0.003438 -0.012588 0.007530
v 0.003550 -0.012588 0.007642
v 0.003438 -0.011300 0.007642
v 0.003550 -0.011412 0.007642
v 0.003438 -0.011412 0.007530
v -0.003438 -0.008700 0.007698
v -0.003438 -0.008588 0.007810
v -0.003550 -0.008588 0.007698
v -0.003438 -0.007412 0.007810
v -0.003438 -0.007300 0.007698
v -0.003550 -0.007412 0.007698
v -0.003438 -0.008700 0.007642
v -0.003550 -0.008588 0.007642
v -0.003438 -0.008588 0.007530
v -0.003438 -0.007300 0.007642
v -0.003438 -0.007412 0.007530
v -0.003550 -0.007412 0.007642
v 0.003438 -0.008700 0.007698
v 0.003550 -0.008588 0.007698
v 0.003438 -0.008588 0.007810
v 0.003438 -0.007300 0.007698
v 0.003438 -0.007412 0.007810
v 0.003550 -0.007412 0.007698
v 0.003438 -0.008700 0.007642
v 0.003438 -0.008588 0.007530
v 0.003550 -0.008588 0.007642
v 0.003438 -0.007300 0.007642
v 0.003550 -0.007412 0.007642
v 0.003438 -0.007412 0.007530
v -0.003438 -0.004700 0.007698
v -0.003438 -0.004588 0.007810
v -0.003550 -0.004588 0.007698
v -0.003438 -0.003412 0.007810
v -0.003438 -0.003300 0.007698
v -0.003550 -0.003412 0.007698
v -0.003438 -0.004700 0.007642
v -0.003550 -0.004588 0.007642
v -0.003438 -0.004588 0.007530
v -0.003438 -0.003300 0.007642
v -0.003438 -0.003412 0.007530
v -0.003550 -0.003412 0.007642
v 0.003438 -0.004700 0.007698
v 0.003550 -0.004588 0.007698
v 0.003438 -0.004588 0.007810
v 0.003438 -0.003300 0.007698
v 0.003438 -0.003412 0.007810
v 0.003550 -0.003412 0.007698
v 0.003438 -0.004700 0.007642
v 0.003438 -0.004588 0.007530
v 0.003550 -0.004588 0.007642
v 0.003438 -0.003300 0.007642
v 0.003550 -0.003412 0.007642
v 0.003438 -0.003412 0.007530
v -0.003438 -0.000700 0.007698
v -0.003438 -0.000588 0.007810
v -0.003550 -0.000588 0.007698
v -0.003438 0.000588 0.007810
v -0.003438 0.000700 0.007698
v -0.003550 0.000588 0.007698
v -0.003438 -0.000700 0.007642
v -0.003550 -0.000588 0.007642
v -0.003438 -0.000588 0.007530
v -0.003438 0.000700 0.007642
v -0.003438 0.000588 0.007530
v -0.003550 0.000588 0.007642
v 0.003438 -0.000700 0.007698
v 0.003550 -0.000588 0.007698
v 0.003438 -0.000588 0.007810
v 0.003438 0.000700 0.007698
v 0.003438 0.000588 0.007810
v 0.003550 0.000588 0.007698
v 0.003438 -0.000700 0.007642
v 0.003438 -0.000588 0.007530
v 0.003550 -0.000588 0.007642
v 0.003438 0.000700 0.007642
v 0.003550 0.000588 0.007642
v 0.003438 0.000588 0.007530
v -0.003438 0.003300 0.007698
v -0.003438 0.003412 0.007810
v -0.003550 0.003412 0.007698
v -0.003438 0.004588 0.007810
v -0.003438 0.004700 0.007698
v -0.003550 0.004588 0.007698
v -0.003438 0.003300 0.007642
v -0.003550 0.003412 0.007642
v -0.003438 0.003412 0.007530
v -0.003438 0.004700 0.007642
v -0.003438 0.004588 0.007530
v -0.003550 0.004588 0.007642
v 0.003438 0.003300 0.007698
v 0.003550 0.003412 0.007698
v 0.003438 0.003412 0.007810
v 0.003438 0.004700 0.007698
v 0.003438 0.004588 0.007810
v 0.003550 0.004588 0.007698
v 0.003438 0.003300 0.007642
v 0.003438 0.003412 0.007530
v 0.003550 0.003412 0.007642
v 0.003438 0.004700 0.007642
v 0.003550 0.004588 0.007642
v 0.003438 0.004588 0.007530
v -0.003154 -0.016050 0.007704
v -0.003154 -0.015954 0.007800
v -0.003250 -0.015954 0.007704
v -0.003154 -0.015046 0.007800
v -0.003154 -0.014950 0.007704
v -0.003250 -0.015046 0.007704
v -0.003154 -0.016050 0.007656
v -0.003250 -0.015954 0.007656
v -0.003154 -0.015954 0.007560
v -0.003154 -0.014950 0.007656
v -0.003154 -0.015046 0.007560
v -0.003250 -0.015046 0.007656
v 0.003154 -0.016050 0.007704
v 0.003250 -0.015954 0.007704
v 0.003154 -0.015954 0.007800
v 0.003154 -0.014950 0.007704
v 0.003154 -0.015046 0.007800
v 0.003250 -0.015046 0.007704
v 0.003154 -0.016050 0.007656
v 0.003154 -0.015954 0.007560
v 0.003250 -0.015954 0.007656
v 0.003154 -0.014950 0.007656
v 0.003250 -0.015046 0.007656
v 0.003154 -0.015046 0.007560
v -0.003154 0.006950 0.007704
v -0.003154 0.007046 0.007800
v -0.003250 0.007046 0.007704
v -0.003154 0.007954 0.007800
v -0.003154 0.008050 0.007704
v -0.003250 0.007954 0.007704
v -0.003154 0.006950 0.007656
v -0.003250 0.007046 0.007656
v -0.003154 0.007046 0.007560
v -0.003154 0.008050 0.007656
v -0.003154 0.007954 0.007560
v -0.003250 0.007954 0.007656
v 0.003154 0.006950 0.007704
v 0.003250 0.007046 0.007704
v 0.003154 0.007046 0.007800
v 0.003154 0.008050 0.007704
v 0.003154 0.007954 0.007800
v 0.003250 0.007954 0.007704
v 0.003154 0.006950 0.007656
v 0.003154 0.007046 0.007560
v 0.003250 0.007046 0.007656
v 0.003154 0.008050 0.007656
v 0.003250 0.007954 0.007656
v 0.003154 0.007954 0.007560
v 0.005490 0.017250 0.000000
v 0.005490 0.017091 0.001004
v 0.005490 0.016629 0.001910
v 0.005490 0.015910 0.002629
v 0.005490 0.015004 0.003091
v 0.005490 0.014000 0.003250
v 0.005490 0.012996 0.003091
v 0.005490 0.012090 0.002629
v 0.005490 0.011371 0.001910
v 0.005490 0.010909 0.001004
v 0.005490 0.010750 0.000000
v 0.005490 0.010909 -0.001004
v 0.005490 0.011371 -0.001910
v 0.005490 0.012090 -0.002629
v 0.005490 0.012996 -0.003091
v 0.005490 0.014000 -0.003250
v 0.005490 0.015004 -0.003091
v 0.005490 0.015910 -0.002629
v 0.005490 0.016629 -0.001910
v 0.005490 0.017091 -0.001004
v 0.005490 0.015500 0.000000
v 0.005490 0.015427 0.000464
v 0.005490 0.015214 0.000882
v 0.005490 0.014882 0.001214
v 0.005490 0.014464 0.001427
v 0.005490 0.014000 0.001500
v 0.005490 0.013536 0.001427
v 0.005490 0.013118 0.001214
v 0.005490 0.012786 0.000882
v 0.005490 0.012573 0.000464
v 0.005490 0.012500 0.000000
v 0.005490 0.012573 -0.000464
v 0.005490 0.012786 -0.000882
v 0.005490 0.013118 -0.001214
v 0.005490 0.013536 -0.001427
v 0.005490 0.014000 -0.001500
v 0.005490 0.014464 -0.001427
v 0.005490 0.014882 -0.001214
v 0.005490 0.015214 -0.000882
v 0.005490 0.015427 -0.000464
v 0.005810 0.017250 0.000000
v 0.005810 0.017091 0.001004
v 0.005810 0.016629 0.001910
v 0.005810 0.015910 0.002629
v 0.005810 0.015004 0.003091
v 0.005810 0.014000 0.003250
v 0.005810 0.012996 0.003091
v 0.005810 0.012090 0.002629
v 0.005810 0.011371 0.001910
v 0.005810 0.010909 0.001004
v 0.005810 0.010750 0.000000
v 0.005810 0.010909 -0.001004
v 0.005810 0.011371 -0.001910
v 0.005810 0.012090 -0.002629
v 0.005810 0.012996 -0.003091
v 0.005810 0.014000 -0.003250
v 0.005810 0.015004 -0.003091
v 0.005810 0.015910 -0.002629
v 0.005810 0.016629 -0.001910
v 0.005810 0.017091 -0.001004
v 0.005810 0.015500 0.000000
v 0.005810 0.015427 0.000464
v 0.005810 0.015214 0.000882
v 0.005810 0.014882 0.001214
v 0.005810 0.014464 0.001427
v 0.005810 0.014000 0.001500
v 0.005810 0.013536 0.001427
v 0.005810 0.013118 0.001214
v 0.005810 0.012786 0.000882
v 0.005810 0.012573 0.000464
v 0.005810 0.012500 0.000000
v 0.005810 0.012573 -0.000464
v 0.005810 0.012786 -0.000882
v 0.005810 0.013118 -0.001214
v 0.005810 0.013536 -0.001427
v 0.005810 0.014000 -0.001500
v 0.005810 0.014464 -0.001427
v 0.005810 0.014882 -0.001214
v 0.005810 0.015214 -0.000882
v 0.005810 0.015427 -0.000464
v -0.001650 -0.016400 -0.007400
v -0.001650 0.010400 -0.007400
v -0.001650 -0.016400 -0.007600
v -0.001650 0.010400 -0.007600
v 0.001650 -0.016400 -0.007400
v 0.001650 0.010400 -0.007400
v 0.001650 -0.016400 -0.007600
v 0.001650 0.010400 -0.007600
v -0.001500 -0.013700 -0.007640
v -0.001500 -0.013600 -0.007540
v -0.001600 -0.013600 -0.007640
v -0.001500 -0.012400 -0.007540
v -0.001500 -0.012300 -0.007640
v -0.001600 -0.012400 -0.007640
v -0.001500 -0.013700 -0.007720
v -0.001600 -0.013600 -0.007720
v -0.001500 -0.013600 -0.007820
v -0.001500 -0.012300 -0.007720
v -0.001500 -0.012400 -0.007820
v -0.001600 -0.012400 -0.007720
v 0.001500 -0.013700 -0.007640
v 0.001600 -0.013600 -0.007640
v 0.001500 -0.013600 -0.007540
v 0.001500 -0.012300 -0.007640
v 0.001500 -0.012400 -0.007540
v 0.001600 -0.012400 -0.007640
v 0.001500 -0.013700 -0.007720
v 0.001500 -0.013600 -0.007820
v 0.001600 -0.013600 -0.007720
v 0.001500 -0.012300 -0.007720
v 0.001600 -0.012400 -0.007720
v 0.001500 -0.012400 -0.007820
v -0.001500 0.006300 -0.007640
v -0.001500 0.006400 -0.007540
v -0.001600 0.006400 -0.007640
v -0.001500 0.007600 -0.007540
v -0.001500 0.007700 -0.007640
v -0.001600 0.007600 -0.007640
v -0.001500 0.006300 -0.007720
v -0.001600 0.006400 -0.007720
v -0.001500 0.006400 -0.007820
v -0.001500 0.007700 -0.007720
v -0.001500 0.007600 -0.007820
v -0.001600 0.007600 -0.007720
v 0.001500 0.006300 -0.007640
v 0.001600 0.006400 -0.007640
v 0.001500 0.006400 -0.007540
v 0.001500 0.007700 -0.007640
v 0.001500 0.007600 -0.007540
v 0.001600 0.007600 -0.007640
v 0.001500 0.006300 -0.007720
v 0.001500 0.006400 -0.007820
v 0.001600 0.006400 -0.007720
v 0.001500 0.007700 -0.007720
v 0.001600 0.007600 -0.007720
v 0.001500 0.007600 -0.007820
vn -0.2490 -0.9317 0.2646
vn -0.2187 -0.6900 0.6900
vn -0.2646 -0.2490 0.9317
vn -0.6900 -0.2187 0.6900
vn -0.9317 -0.2646 0.2490
vn -0.6900 -0.6900 0.2187
vn -0.5773 -0.5774 0.5774
vn -0.2490 0.2646 0.9317
vn -0.2187 0.6900 0.6900
vn -0.2646 0.9317 0.2490
vn -0.6900 0.6900 0.2187
vn -0.9317 0.2490 0.2646
vn -0.6900 0.2187 0.6900
vn -0.5773 0.5774 0.5774
vn -0.2646 -0.9317 -0.2490
vn -0.6900 -0.6900 -0.2187
vn -0.9317 -0.2490 -0.2646
vn -0.6900 -0.2187 -0.6900
vn -0.2490 -0.2646 -0.9317
vn -0.2187 -0.6900 -0.6900
vn -0.5773 -0.5774 -0.5774
vn -0.2490 0.9317 -0.2646
vn -0.2187 0.6900 -0.6900
vn -0.2646 0.2490 -0.9317
vn -0.6900 0.2187 -0.6900
vn -0.9317 0.2646 -0.2490
vn -0.6900 0.6900 -0.2187
vn -0.5773 0.5774 -0.5774
vn 0.2646 -0.9317 0.2490
vn 0.6900 -0.6900 0.2187
vn 0.9317 -0.2490 0.2646
vn 0.6900 -0.2187 0.6900
vn 0.2490 -0.2646 0.9317
vn 0.2187 -0.6900 0.6900
vn 0.5773 -0.5774 0.5774
vn 0.2490 0.9317 0.2646
vn 0.2187 0.6900 0.6900
vn 0.2646 0.2490 0.9317
vn 0.6900 0.2187 0.6900
vn 0.9317 0.2646 0.2490
vn 0.6900 0.6900 0.2187
vn 0.5773 0.5774 0.5774
vn 0.2490 -0.9317 -0.2646
vn 0.2187 -0.6900 -0.6900
vn 0.2646 -0.2490 -0.9317
vn 0.6900 -0.2187 -0.6900
vn 0.9317 -0.2646 -0.2490
vn 0.6900 -0.6900 -0.2187
vn 0.5773 -0.5774 -0.5774
vn 0.2646 0.9317 -0.2490
vn 0.6900 0.6900 -0.2187
vn 0.9317 0.2490 -0.2646
vn 0.6900 0.2187 -0.6900
vn 0.2490 0.2646 -0.9317
vn 0.2187 0.6900 -0.6900
vn 0.5773 0.5774 -0.5774
vn -0.2582 -0.9661 -0.0000
vn -0.7071 -0.7071 -0.0000
vn -0.9661 -0.2582 -0.0000
vn -0.2582 -0.0000 0.9661
vn -0.7071 -0.0000 0.7071
vn -0.9661 -0.0000 0.2582
vn -0.2582 0.9661 -0.0000
vn -0.7071 0.7071 -0.0000
vn -0.9661 0.2582 -0.0000
vn -0.2582 -0.0000 -0.9661
vn -0.7071 -0.0000 -0.7071
vn -0.9661 -0.0000 -0.2582
vn -0.0000 -0.9661 -0.2582
vn -0.0000 -0.7071 -0.7071
vn -0.0000 -0.2582 -0.9661
vn -0.0000 0.9661 -0.2582
vn -0.0000 0.7071 -0.7071
vn -0.0000 0.2582 -0.9661
vn 0.9661 -0.0000 -0.2582
vn 0.7071 -0.0000 -0.7071
vn 0.2582 -0.0000 -0.9661
vn 0.2582 -0.9661 -0.0000
vn 0.7071 -0.7071 -0.0000
vn 0.9661 -0.2582 -0.0000
vn 0.2582 0.9661 -0.0000
vn 0.7071 0.7071 -0.0000
vn 0.9661 0.2582 -0.0000
vn 0.2582 -0.0000 0.9661
vn 0.7071 -0.0000 0.7071
vn 0.9661 -0.0000 0.2582
vn -0.0000 -0.9661 0.2582
vn -0.0000 -0.7071 0.7071
vn -0.0000 -0.2582 0.9661
vn -0.0000 0.9661 0.2582
vn -0.0000 0.7071 0.7071
vn -0.0000 0.2582 0.9661
vn -0.0000 -1.0000 -0.0000
vn -1.0000 -0.0000 -0.0000
vn -0.0000 -0.0000 1.0000
vn -0.0000 1.0000 -0.0000
vn -0.0000 -0.0000 -1.0000
vn 1.0000 -0.0000 -0.0000
vn -0.0000 0.1574 0.9875
vn -0.0000 0.4527 0.8917
vn -0.0000 0.8917 0.4527
vn -0.0000 0.9875 0.1574
vn -0.0000 0.9875 -0.1574
vn -0.0000 0.8917 -0.4527
vn -0.0000 0.4527 -0.8917
vn -0.0000 0.1574 -0.9875
vn -0.0000 -0.1574 -0.9875
vn -0.0000 -0.4527 -0.8917
vn -0.0000 -0.8917 -0.4527
vn -0.0000 -0.9875 -0.1574
vn -0.0000 -0.9875 0.1574
vn -0.0000 -0.8917 0.4527
vn -0.0000 -0.4527 0.8917
vn -0.0000 -0.1574 0.9875
vn -0.1554 -0.0000 0.9878
vn -0.4540 -0.0000 0.8910
vn -0.8910 -0.0000 0.4540
vn -0.9878 -0.0000 0.1554
vn -0.9878 -0.0000 -0.1554
vn -0.8910 -0.0000 -0.4540
vn -0.4540 -0.0000 -0.8910
vn -0.1554 -0.0000 -0.9878
vn 0.1554 -0.0000 -0.9878
vn 0.4540 -0.0000 -0.8910
vn 0.8910 -0.0000 -0.4540
vn 0.9878 -0.0000 -0.1554
vn 0.9878 -0.0000 0.1554
vn 0.8910 -0.0000 0.4540
vn 0.4540 -0.0000 0.8910
vn 0.1554 -0.0000 0.9878
vn -0.0000 0.1560 0.9878
vn -0.0000 0.4543 0.8908
vn -0.0000 0.8908 0.4543
vn -0.0000 0.9878 0.1560
vn -0.0000 0.9878 -0.1560
vn -0.0000 0.8908 -0.4543
vn -0.0000 0.4543 -0.8908
vn -0.0000 0.1560 -0.9878
vn -0.0000 -0.1560 -0.9878
vn -0.0000 -0.4543 -0.8908
vn -0.0000 -0.8908 -0.4543
vn -0.0000 -0.9878 -0.1560
vn -0.0000 -0.9878 0.1560
vn -0.0000 -0.8908 0.4543
vn -0.0068 -0.4512 0.8924
vn -0.0000 -0.1560 0.9878
vn -0.5773 -0.5773 0.5774
vn -0.5774 0.5773 0.5773
vn -0.5773 -0.5773 -0.5774
vn -0.5774 0.5773 -0.5773
vn 0.5773 -0.5773 0.5774
vn 0.5774 0.5773 0.5773
vn 0.5773 -0.5773 -0.5774
vn 0.5774 0.5773 -0.5773
vn -0.5773 0.5773 0.5774
vn -0.5773 0.5773 -0.5774
vn 0.5773 0.5773 0.5774
vn 0.5773 0.5773 -0.5774
vn -0.5774 -0.5773 0.5773
vn -0.5774 -0.5773 -0.5773
vn 0.5774 -0.5773 0.5773
vn 0.5774 -0.5773 -0.5773
vn -0.5774 -0.5773 0.5774
vn -0.5774 0.5773 0.5774
vn -0.5774 0.5773 -0.5774
vn 0.5774 -0.5773 0.5774
vn 0.5774 0.5773 0.5774
vn 0.5774 0.5773 -0.5774
vn -0.0000 0.9877 0.1564
vn -0.0000 -0.9878 -0.1554
vn -0.0000 0.8909 0.4543
vn -0.0000 -0.8910 -0.4540
vn -0.0000 0.4543 0.8909
vn -0.0000 -0.4540 -0.8910
vn -0.0000 0.1564 0.9877
vn -0.0000 -0.1554 -0.9878
vn -0.0000 -0.1564 0.9877
vn -0.0000 0.1554 -0.9878
vn -0.0000 -0.4543 0.8909
vn -0.0000 0.4540 -0.8910
vn -0.0000 -0.8909 0.4543
vn -0.0000 0.8910 -0.4540
vn -0.0000 -0.9877 0.1564
vn -0.0000 0.9878 -0.1554
vn -0.0000 -0.9877 -0.1564
vn -0.0000 0.9878 0.1554
vn -0.0000 -0.8909 -0.4543
vn -0.0000 0.8910 0.4540
vn -0.0000 -0.4543 -0.8909
vn -0.0000 0.4540 0.8910
vn -0.0000 -0.1564 -0.9877
vn -0.0000 0.1554 0.9878
vn -0.0000 0.1564 -0.9877
vn -0.0000 -0.1554 0.9878
vn -0.0000 0.4543 -0.8909
vn -0.0000 -0.4540 0.8910
vn -0.0000 0.8909 -0.4543
vn -0.0000 -0.8910 0.4540
vn -0.0000 0.9877 -0.1564
vn -0.0000 -0.9878 0.1554
vn -0.5774 -0.5774 0.5773
vn -0.5774 0.5774 0.5773
vn -0.5774 -0.5773 -0.5774
vn 0.5774 -0.5774 0.5773
vn 0.5774 0.5774 0.5773
vn 0.5774 -0.5773 -0.5774
vn -0.2646 -0.9317 0.2490
vn -0.2490 -0.2646 0.9317
vn -0.9317 -0.2490 0.2646
vn -0.2646 0.2490 0.9317
vn -0.2490 0.9317 0.2646
vn -0.9317 0.2646 0.2490
vn -0.2490 -0.9317 -0.2646
vn -0.9317 -0.2646 -0.2490
vn -0.2646 -0.2490 -0.9317
vn -0.2646 0.9317 -0.2490
vn -0.2490 0.2646 -0.9317
vn -0.9317 0.2490 -0.2646
vn 0.2490 -0.9317 0.2646
vn 0.9317 -0.2646 0.2490
vn 0.2646 -0.2490 0.9317
vn 0.2646 0.9317 0.2490
vn 0.2490 0.2646 0.9317
vn 0.9317 0.2490 0.2646
vn 0.2646 -0.9317 -0.2490
vn 0.2490 -0.2646 -0.9317
vn 0.9317 -0.2490 -0.2646
vn 0.2490 0.9317 -0.2646
vn 0.9317 0.2646 -0.2490
vn 0.2646 0.2490 -0.9317
vn -0.0000 -0.4543 0.8908
vn -0.0000 -0.4547 0.8907
s 0
usemtl Shell
f 7//1 29//1 25//1
f 21//2 40//2 29//2
f 13//3 40//3 36//3
f 31//4 49//4 40//4
f 19//5 49//5 46//5
f 43//6 29//6 49//6
f 29//7 40//7 49//7
f 54//8 68//8 66//8
f 64//9 74//9 68//9
f 57//10 74//10 73//10
f 70//11 81//11 74//11
f 61//12 81//12 79//12
f 77//13 68//13 81//13
f 81//14 68//14 74//14
f 84//15 93//15 92//15
f 90//16 98//16 93//16
f 86//17 98//17 96//17
f 95//18 102//18 98//18
f 89//19 102//19 100//19
f 99//20 93//20 102//20
f 102//21 93//21 98//21
f 104//22 110//22 109//22
f 108//23 113//23 110//23
f 105//24 113//24 112//24
f 111//25 116//25 113//25
f 107//26 116//26 115//26
f 114//27 110//27 116//27
f 116//28 110//28 113//28
f 117//29 122//29 121//29
f 120//30 125//30 122//30
f 118//31 125//31 124//31
f 123//32 128//32 125//32
f 119//33 128//33 127//33
f 126//34 122//34 128//34
f 122//35 125//35 128//35
f 129//36 134//36 133//36
f 132//37 137//37 134//37
f 130//38 137//38 136//38
f 135//39 140//39 137//39
f 131//40 140//40 139//40
f 138//41 134//41 140//41
f 134//42 137//42 140//42
f 141//43 146//43 145//43
f 144//44 149//44 146//44
f 142//45 149//45 148//45
f 147//46 152//46 149//46
f 143//47 152//47 151//47
f 150//48 146//48 152//48
f 149//49 152//49 146//49
f 153//50 158//50 157//50
f 156//51 161//51 158//51
f 154//52 161//52 160//52
f 159//53 164//53 161//53
f 155//54 164//54 163//54
f 162//55 158//55 164//55
f 164//56 158//56 161//56
f 84//57 25//57 90//57
f 90//58 43//58 96//58
f 96//59 19//59 86//59
f 66//60 13//60 185//60
f 31//61 77//61 46//61
f 46//62 61//62 19//62
f 57//63 109//63 70//63
f 70//64 114//64 79//64
f 79//65 107//65 61//65
f 105//66 100//66 111//66
f 111//67 95//67 115//67
f 115//68 86//68 107//68
f 141//69 92//69 144//69
f 144//70 99//70 148//70
f 148//71 89//71 142//71
f 104//72 157//72 108//72
f 108//73 162//73 112//73
f 112//74 155//74 105//74
f 154//75 151//75 159//75
f 159//76 147//76 163//76
f 163//77 142//77 155//77
f 117//78 145//78 120//78
f 120//79 150//79 124//79
f 124//80 143//80 118//80
f 153//81 133//81 156//81
f 156//82 138//82 160//82
f 160//83 131//83 154//83
f 127//84 130//84 188//84
f 135//85 123//85 139//85
f 139//86 118//86 131//86
f 7//87 121//87 21//87
f 21//88 126//88 36//88
f 36//89 119//89 13//89
f 129//90 73//90 132//90
f 132//91 64//91 136//91
f 136//92 54//92 130//92
f 7//93 176//93 177//93
f 141//93 172//93 169//93
f 19//94 107//94 86//94
f 188//95 54//95 186//95
f 185//95 119//95 187//95
f 153//96 57//96 129//96
f 105//97 155//97 232//97
f 142//97 233//97 234//97
f 143//98 190//98 189//98
f 154//98 131//98 225//98
f 1//99 191//99 192//99
f 14//100 193//100 191//100
f 28//91 194//91 193//91
f 34//101 195//101 194//101
f 38//102 196//102 195//102
f 48//103 197//103 196//103
f 52//104 198//104 197//104
f 58//73 199//73 198//73
f 65//105 200//105 199//105
f 71//106 201//106 200//106
f 75//107 202//107 201//107
f 80//108 203//108 202//108
f 83//70 204//70 203//70
f 87//109 205//109 204//109
f 91//110 206//110 205//110
f 94//111 207//111 206//111
f 97//112 208//112 207//112
f 101//88 209//88 208//88
f 103//113 210//113 209//113
f 106//114 192//114 210//114
f 34//98 94//98 80//98
f 9//98 186//98 185//98
f 11//95 17//95 22//95
f 22//94 187//94 188//94
f 187//96 9//96 185//96
f 11//93 188//93 186//93
f 7//207 21//207 29//207
f 21//2 36//2 40//2
f 13//208 31//208 40//208
f 31//4 46//4 49//4
f 19//209 43//209 49//209
f 43//6 25//6 29//6
f 54//210 64//210 68//210
f 64//9 73//9 74//9
f 57//211 70//211 74//211
f 70//11 79//11 81//11
f 61//212 77//212 81//212
f 77//13 66//13 68//13
f 84//213 90//213 93//213
f 90//16 96//16 98//16
f 86//214 95//214 98//214
f 95//18 100//18 102//18
f 89//215 99//215 102//215
f 99//20 92//20 93//20
f 104//216 108//216 110//216
f 108//23 112//23 113//23
f 105//217 111//217 113//217
f 111//25 115//25 116//25
f 107//218 114//218 116//218
f 114//27 109//27 110//27
f 117//219 120//219 122//219
f 120//30 124//30 125//30
f 118//220 123//220 125//220
f 123//32 127//32 128//32
f 119//221 126//221 128//221
f 126//34 121//34 122//34
f 129//222 132//222 134//222
f 132//37 136//37 137//37
f 130//223 135//223 137//223
f 135//39 139//39 140//39
f 131//224 138//224 140//224
f 138//41 133//41 134//41
f 141//225 144//225 146//225
f 144//44 148//44 149//44
f 142//226 147//226 149//226
f 147//46 151//46 152//46
f 143//227 150//227 152//227
f 150//48 145//48 146//48
f 153//228 156//228 158//228
f 156//51 160//51 161//51
f 154//229 159//229 161//229
f 159//53 163//53 164//53
f 155//230 162//230 164//230
f 162//55 157//55 158//55
f 84//57 7//57 25//57
f 90//58 25//58 43//58
f 96//59 43//59 19//59
f 186//60 54//60 66//60
f 66//60 31//60 13//60
f 185//60 186//60 66//60
f 31//61 66//61 77//61
f 46//62 77//62 61//62
f 57//63 104//63 109//63
f 70//64 109//64 114//64
f 79//65 114//65 107//65
f 105//66 89//66 100//66
f 111//67 100//67 95//67
f 115//68 95//68 86//68
f 141//69 84//69 92//69
f 144//70 92//70 99//70
f 148//71 99//71 89//71
f 104//72 153//72 157//72
f 108//73 157//73 162//73
f 112//74 162//74 155//74
f 154//75 143//75 151//75
f 159//76 151//76 147//76
f 163//77 147//77 142//77
f 117//78 141//78 145//78
f 120//79 145//79 150//79
f 124//80 150//80 143//80
f 153//81 129//81 133//81
f 156//82 133//82 138//82
f 160//83 138//83 131//83
f 187//84 119//84 127//84
f 127//84 135//84 130//84
f 188//84 187//84 127//84
f 135//85 127//85 123//85
f 139//86 123//86 118//86
f 7//87 117//87 121//87
f 21//88 121//88 126//88
f 36//89 126//89 119//89
f 129//90 57//90 73//90
f 132//91 73//91 64//91
f 136//92 64//92 54//92
f 182//93 173//93 117//93
f 84//93 180//93 179//93
f 84//93 179//93 178//93
f 182//93 117//93 7//93
f 181//93 182//93 7//93
f 7//93 84//93 178//93
f 7//93 178//93 175//93
f 183//93 181//93 7//93
f 184//93 183//93 7//93
f 7//93 175//93 176//93
f 177//93 184//93 7//93
f 165//93 180//93 84//93
f 117//93 173//93 168//93
f 117//93 168//93 171//93
f 165//93 84//93 141//93
f 166//93 165//93 141//93
f 141//93 117//93 171//93
f 141//93 171//93 170//93
f 167//93 166//93 141//93
f 174//93 167//93 141//93
f 141//93 170//93 172//93
f 169//93 174//93 141//93
f 19//94 61//94 107//94
f 188//95 130//95 54//95
f 185//95 13//95 119//95
f 153//96 104//96 57//96
f 233//97 89//97 105//97
f 155//97 142//97 234//97
f 155//97 234//97 231//97
f 232//97 233//97 105//97
f 155//97 231//97 232//97
f 142//97 89//97 233//97
f 220//98 221//98 131//98
f 131//98 118//98 143//98
f 154//98 229//98 230//98
f 154//98 230//98 211//98
f 219//98 220//98 131//98
f 218//98 219//98 131//98
f 143//98 154//98 211//98
f 143//98 211//98 212//98
f 218//98 131//98 143//98
f 217//98 218//98 143//98
f 143//98 212//98 213//98
f 143//98 213//98 214//98
f 216//98 217//98 143//98
f 215//98 216//98 143//98
f 143//98 214//98 190//98
f 189//98 215//98 143//98
f 228//98 229//98 154//98
f 131//98 221//98 222//98
f 131//98 222//98 223//98
f 227//98 228//98 154//98
f 226//98 227//98 154//98
f 131//98 223//98 224//98
f 225//98 226//98 154//98
f 131//98 224//98 225//98
f 1//99 14//99 191//99
f 14//100 28//100 193//100
f 28//91 34//91 194//91
f 34//101 38//101 195//101
f 38//102 48//102 196//102
f 48//103 52//103 197//103
f 52//104 58//104 198//104
f 58//73 65//73 199//73
f 65//105 71//105 200//105
f 71//106 75//106 201//106
f 75//107 80//107 202//107
f 80//108 83//108 203//108
f 83//70 87//70 204//70
f 87//109 91//109 205//109
f 91//110 94//110 206//110
f 94//111 97//111 207//111
f 97//112 101//112 208//112
f 101//88 103//88 209//88
f 103//113 106//113 210//113
f 106//114 1//114 192//114
f 80//98 75//98 71//98
f 71//98 65//98 58//98
f 58//98 52//98 48//98
f 48//98 38//98 34//98
f 34//98 28//98 14//98
f 14//98 1//98 106//98
f 106//98 103//98 101//98
f 101//98 97//98 94//98
f 94//98 91//98 87//98
f 87//98 83//98 80//98
f 80//98 71//98 58//98
f 58//98 48//98 34//98
f 34//98 14//98 106//98
f 106//98 101//98 94//98
f 94//98 87//98 80//98
f 80//98 58//98 34//98
f 34//98 106//98 94//98
f 9//98 11//98 186//98
f 11//95 9//95 17//95
f 22//94 17//94 187//94
f 187//96 17//96 9//96
f 11//93 22//93 188//93
usemtl Temporary_cutter
f 167//115 5//115 166//115
f 174//116 16//116 167//116
f 169//61 23//61 174//61
f 172//117 26//117 169//117
f 170//118 32//118 172//118
f 171//119 37//119 170//119
f 168//120 42//120 171//120
f 173//67 44//67 168//67
f 182//121 50//121 173//121
f 181//122 55//122 182//122
f 183//123 60//123 181//123
f 184//124 62//124 183//124
f 177//76 67//76 184//76
f 176//125 69//125 177//125
f 175//126 72//126 176//126
f 178//127 76//127 175//127
f 179//128 78//128 178//128
f 180//85 82//85 179//85
f 44//93 76//93 88//93
f 165//129 85//129 180//129
f 166//130 88//130 165//130
f 167//115 16//115 5//115
f 174//116 23//116 16//116
f 169//61 26//61 23//61
f 172//117 32//117 26//117
f 170//118 37//118 32//118
f 171//119 42//119 37//119
f 168//120 44//120 42//120
f 173//67 50//67 44//67
f 182//121 55//121 50//121
f 181//122 60//122 55//122
f 183//123 62//123 60//123
f 184//124 67//124 62//124
f 177//76 69//76 67//76
f 176//125 72//125 69//125
f 175//126 76//126 72//126
f 178//127 78//127 76//127
f 179//128 82//128 78//128
f 180//85 85//85 82//85
f 88//93 5//93 16//93
f 16//93 23//93 26//93
f 26//93 32//93 37//93
f 37//93 42//93 44//93
f 44//93 50//93 55//93
f 55//93 60//93 62//93
f 62//93 67//93 69//93
f 69//93 72//93 76//93
f 76//93 78//93 82//93
f 82//93 85//93 88//93
f 88//93 16//93 26//93
f 26//93 37//93 44//93
f 44//93 55//93 62//93
f 62//93 69//93 76//93
f 76//93 82//93 88//93
f 88//93 26//93 44//93
f 44//93 62//93 76//93
f 165//129 88//129 85//129
f 166//130 5//130 88//130
usemtl Black
f 3//131 212//131 211//131
f 6//132 213//132 212//132
f 12//91 214//91 213//91
f 214//133 18//133 190//133
f 18//134 189//134 190//134
f 20//135 215//135 189//135
f 24//136 216//136 215//136
f 27//73 217//73 216//73
f 30//137 218//137 217//137
f 33//138 219//138 218//138
f 35//139 220//139 219//139
f 222//140 220//140 39//140
f 41//70 223//70 222//70
f 45//141 224//141 223//141
f 47//142 225//142 224//142
f 51//143 226//143 225//143
f 53//144 227//144 226//144
f 56//88 228//88 227//88
f 63//145 229//145 228//145
f 63//146 211//146 230//146
f 51//98 206//98 207//98
f 15//98 197//98 24//98
f 232//98 2//98 233//98
f 234//94 10//94 231//94
f 4//97 8//97 2//97
f 233//96 8//96 234//96
f 10//93 232//93 231//93
f 3//131 6//131 212//131
f 6//132 12//132 213//132
f 12//91 15//91 214//91
f 214//133 15//133 18//133
f 18//134 20//134 189//134
f 20//135 24//135 215//135
f 24//136 27//136 216//136
f 27//73 30//73 217//73
f 30//137 33//137 218//137
f 33//138 35//138 219//138
f 35//139 39//139 220//139
f 39//140 41//140 222//140
f 222//94 221//94 220//94
f 41//70 45//70 223//70
f 45//141 47//141 224//141
f 47//142 51//142 225//142
f 51//143 53//143 226//143
f 53//144 56//144 227//144
f 56//88 59//88 228//88
f 228//231 59//231 63//231
f 63//232 230//232 229//232
f 63//146 3//146 211//146
f 15//98 12//98 6//98
f 6//98 3//98 63//98
f 63//98 59//98 56//98
f 56//98 53//98 51//98
f 51//98 47//98 45//98
f 45//98 41//98 39//98
f 39//98 35//98 33//98
f 33//98 30//98 27//98
f 27//98 198//98 199//98
f 27//98 199//98 200//98
f 39//98 33//98 27//98
f 51//98 45//98 39//98
f 63//98 56//98 51//98
f 15//98 6//98 63//98
f 193//98 194//98 15//98
f 191//98 193//98 15//98
f 39//98 27//98 200//98
f 39//98 200//98 201//98
f 191//98 15//98 63//98
f 192//98 191//98 63//98
f 39//98 201//98 202//98
f 39//98 202//98 203//98
f 210//98 192//98 63//98
f 209//98 210//98 63//98
f 51//98 39//98 203//98
f 51//98 203//98 204//98
f 209//98 63//98 51//98
f 208//98 209//98 51//98
f 51//98 204//98 205//98
f 51//98 205//98 206//98
f 207//98 208//98 51//98
f 20//98 18//98 15//98
f 15//98 194//98 195//98
f 15//98 195//98 196//98
f 24//98 20//98 15//98
f 198//98 27//98 24//98
f 15//98 196//98 197//98
f 197//98 198//98 24//98
f 232//98 4//98 2//98
f 234//94 8//94 10//94
f 4//97 10//97 8//97
f 233//96 2//96 8//96
f 10//93 4//93 232//93
usemtl DetailGraphite
f 235//94 238//94 237//94
f 237//97 242//97 241//97
f 241//98 240//98 239//98
f 239//95 236//95 235//95
f 237//93 239//93 235//93
f 242//96 236//96 240//96
f 491//94 494//94 493//94
f 493//97 498//97 497//97
f 497//98 496//98 495//98
f 495//95 492//95 491//95
f 493//93 495//93 491//93
f 498//96 492//96 496//96
f 235//94 236//94 238//94
f 237//97 238//97 242//97
f 241//98 242//98 240//98
f 239//95 240//95 236//95
f 237//93 241//93 239//93
f 242//96 238//96 236//96
f 491//94 492//94 494//94
f 493//97 494//97 498//97
f 497//98 498//98 496//98
f 495//95 496//95 492//95
f 493//93 497//93 495//93
f 498//96 494//96 492//96
usemtl DetailSteel
f 243//147 244//147 245//147
f 246//148 247//148 248//148
f 249//149 250//149 251//149
f 252//150 253//150 254//150
f 255//151 256//151 257//151
f 258//152 259//152 260//152
f 261//153 262//153 263//153
f 264//154 265//154 266//154
f 249//58 245//58 250//58
f 244//61 248//61 245//61
f 247//64 254//64 248//64
f 253//67 250//67 254//67
f 261//70 251//70 262//70
f 252//73 266//73 253//73
f 265//76 262//76 266//76
f 255//79 263//79 256//79
f 264//82 260//82 265//82
f 259//85 256//85 260//85
f 243//88 257//88 244//88
f 258//91 246//91 259//91
f 249//93 255//93 243//93
f 245//94 254//94 250//94
f 257//95 246//95 244//95
f 264//96 247//96 258//96
f 251//97 266//97 262//97
f 263//98 260//98 256//98
f 267//147 268//147 269//147
f 270//155 271//155 272//155
f 273//149 274//149 275//149
f 276//156 277//156 278//156
f 279//151 280//151 281//151
f 282//157 283//157 284//157
f 285//153 286//153 287//153
f 288//158 289//158 290//158
f 273//58 269//58 274//58
f 268//61 272//61 269//61
f 271//64 278//64 272//64
f 277//67 274//67 278//67
f 285//70 275//70 286//70
f 276//73 290//73 277//73
f 289//76 286//76 290//76
f 279//79 287//79 280//79
f 288//82 284//82 289//82
f 283//85 280//85 284//85
f 267//88 281//88 268//88
f 282//91 270//91 283//91
f 273//93 279//93 267//93
f 269//94 278//94 274//94
f 281//95 270//95 268//95
f 288//96 271//96 282//96
f 275//97 290//97 286//97
f 287//98 284//98 280//98
f 291//147 292//147 293//147
f 294//155 295//155 296//155
f 297//149 298//149 299//149
f 300//156 301//156 302//156
f 303//151 304//151 305//151
f 306//157 307//157 308//157
f 309//153 310//153 311//153
f 312//158 313//158 314//158
f 297//58 293//58 298//58
f 292//61 296//61 293//61
f 295//64 302//64 296//64
f 301//67 298//67 302//67
f 309//70 299//70 310//70
f 300//73 314//73 301//73
f 313//76 310//76 314//76
f 303//79 311//79 304//79
f 312//82 308//82 313//82
f 307//85 304//85 308//85
f 291//88 305//88 292//88
f 306//91 294//91 307//91
f 297//93 303//93 291//93
f 293//94 302//94 298//94
f 305//95 294//95 292//95
f 312//96 295//96 306//96
f 299//97 314//97 310//97
f 311//98 308//98 304//98
f 315//159 316//159 317//159
f 318//148 319//148 320//148
f 321//160 322//160 323//160
f 324//150 325//150 326//150
f 327//161 328//161 329//161
f 330//152 331//152 332//152
f 333//162 334//162 335//162
f 336//154 337//154 338//154
f 321//58 317//58 322//58
f 316//61 320//61 317//61
f 319//64 326//64 320//64
f 325//67 322//67 326//67
f 333//70 323//70 334//70
f 324//73 338//73 325//73
f 337//76 334//76 338//76
f 327//79 335//79 328//79
f 336//82 332//82 337//82
f 331//85 328//85 332//85
f 315//88 329//88 316//88
f 330//91 318//91 331//91
f 321//93 327//93 315//93
f 317//94 326//94 322//94
f 329//95 318//95 316//95
f 336//96 319//96 330//96
f 323//97 338//97 334//97
f 335//98 332//98 328//98
f 339//147 340//147 341//147
f 342//155 343//155 344//155
f 345//149 346//149 347//149
f 348//156 349//156 350//156
f 351//151 352//151 353//151
f 354//157 355//157 356//157
f 357//153 358//153 359//153
f 360//158 361//158 362//158
f 345//58 341//58 346//58
f 340//61 344//61 341//61
f 343//64 350//64 344//64
f 349//67 346//67 350//67
f 357//70 347//70 358//70
f 348//73 362//73 349//73
f 361//76 358//76 362//76
f 351//79 359//79 352//79
f 360//82 356//82 361//82
f 355//85 352//85 356//85
f 339//88 353//88 340//88
f 354//91 342//91 355//91
f 345//93 351//93 339//93
f 341//94 350//94 346//94
f 353//95 342//95 340//95
f 360//96 343//96 354//96
f 347//97 362//97 358//97
f 359//98 356//98 352//98
f 249//58 243//58 245//58
f 244//61 246//61 248//61
f 247//64 252//64 254//64
f 253//67 251//67 250//67
f 261//70 249//70 251//70
f 252//73 264//73 266//73
f 265//76 263//76 262//76
f 255//79 261//79 263//79
f 264//82 258//82 260//82
f 259//85 257//85 256//85
f 243//88 255//88 257//88
f 258//91 247//91 246//91
f 249//93 261//93 255//93
f 245//94 248//94 254//94
f 257//95 259//95 246//95
f 264//96 252//96 247//96
f 251//97 253//97 266//97
f 263//98 265//98 260//98
f 273//58 267//58 269//58
f 268//61 270//61 272//61
f 271//64 276//64 278//64
f 277//67 275//67 274//67
f 285//70 273//70 275//70
f 276//73 288//73 290//73
f 289//76 287//76 286//76
f 279//79 285//79 287//79
f 288//82 282//82 284//82
f 283//85 281//85 280//85
f 267//88 279//88 281//88
f 282//91 271//91 270//91
f 273//93 285//93 279//93
f 269//94 272//94 278//94
f 281//95 283//95 270//95
f 288//96 276//96 271//96
f 275//97 277//97 290//97
f 287//98 289//98 284//98
f 297//58 291//58 293//58
f 292//61 294//61 296//61
f 295//64 300//64 302//64
f 301//67 299//67 298//67
f 309//70 297//70 299//70
f 300//73 312//73 314//73
f 313//76 311//76 310//76
f 303//79 309//79 311//79
f 312//82 306//82 308//82
f 307//85 305//85 304//85
f 291//88 303//88 305//88
f 306//91 295//91 294//91
f 297//93 309//93 303//93
f 293//94 296//94 302//94
f 305//95 307//95 294//95
f 312//96 300//96 295//96
f 299//97 301//97 314//97
f 311//98 313//98 308//98
f 321//58 315//58 317//58
f 316//61 318//61 320//61
f 319//64 324//64 326//64
f 325//67 323//67 322//67
f 333//70 321//70 323//70
f 324//73 336//73 338//73
f 337//76 335//76 334//76
f 327//79 333//79 335//79
f 336//82 330//82 332//82
f 331//85 329//85 328//85
f 315//88 327//88 329//88
f 330//91 319//91 318//91
f 321//93 333//93 327//93
f 317//94 320//94 326//94
f 329//95 331//95 318//95
f 336//96 324//96 319//96
f 323//97 325//97 338//97
f 335//98 337//98 332//98
f 345//58 339//58 341//58
f 340//61 342//61 344//61
f 343//64 348//64 350//64
f 349//67 347//67 346//67
f 357//70 345//70 347//70
f 348//73 360//73 362//73
f 361//76 359//76 358//76
f 351//79 357//79 359//79
f 360//82 354//82 356//82
f 355//85 353//85 352//85
f 339//88 351//88 353//88
f 354//91 343//91 342//91
f 345//93 357//93 351//93
f 341//94 344//94 350//94
f 353//95 355//95 342//95
f 360//96 348//96 343//96
f 347//97 349//97 362//97
f 359//98 361//98 356//98
usemtl DetailTeal
f 363//7 364//7 365//7
f 366//155 367//155 368//155
f 369//21 370//21 371//21
f 372//28 373//28 374//28
f 375//35 376//35 377//35
f 378//157 379//157 380//157
f 381//49 382//49 383//49
f 384//56 385//56 386//56
f 369//58 365//58 370//58
f 364//61 368//61 365//61
f 367//64 374//64 368//64
f 373//67 370//67 374//67
f 381//70 371//70 382//70
f 372//73 386//73 373//73
f 385//76 382//76 386//76
f 375//79 383//79 376//79
f 384//82 380//82 385//82
f 379//85 376//85 380//85
f 363//88 377//88 364//88
f 378//91 366//91 379//91
f 369//93 375//93 363//93
f 365//94 374//94 370//94
f 377//95 366//95 364//95
f 384//96 367//96 378//96
f 371//97 386//97 382//97
f 383//98 380//98 376//98
f 387//163 388//163 389//163
f 390//164 391//164 392//164
f 393//149 394//149 395//149
f 396//165 397//165 398//165
f 399//166 400//166 401//166
f 402//167 403//167 404//167
f 405//153 406//153 407//153
f 408//168 409//168 410//168
f 393//58 389//58 394//58
f 388//61 392//61 389//61
f 391//64 398//64 392//64
f 397//67 394//67 398//67
f 405//70 395//70 406//70
f 396//73 410//73 397//73
f 409//76 406//76 410//76
f 399//79 407//79 400//79
f 408//82 404//82 409//82
f 403//85 400//85 404//85
f 387//88 401//88 388//88
f 402//91 390//91 403//91
f 393//93 399//93 387//93
f 389//94 398//94 394//94
f 401//95 390//95 388//95
f 408//96 391//96 402//96
f 395//97 410//97 406//97
f 407//98 404//98 400//98
f 411//94 432//94 412//94
f 451//98 472//98 471//98
f 411//169 452//169 451//169
f 432//170 471//170 472//170
f 412//94 433//94 413//94
f 452//98 473//98 472//98
f 412//171 453//171 452//171
f 433//172 472//172 473//172
f 413//94 434//94 414//94
f 453//98 474//98 473//98
f 413//91 454//91 453//91
f 434//70 473//70 474//70
f 414//94 435//94 415//94
f 454//98 475//98 474//98
f 414//173 455//173 454//173
f 435//174 474//174 475//174
f 415//94 436//94 416//94
f 455//98 476//98 475//98
f 415//175 456//175 455//175
f 436//176 475//176 476//176
f 416//94 437//94 417//94
f 456//98 477//98 476//98
f 416//177 457//177 456//177
f 437//178 476//178 477//178
f 417//94 438//94 418//94
f 457//98 478//98 477//98
f 417//179 458//179 457//179
f 438//180 477//180 478//180
f 418//94 439//94 419//94
f 458//98 479//98 478//98
f 418//88 459//88 458//88
f 439//73 478//73 479//73
f 419//94 440//94 420//94
f 459//98 480//98 479//98
f 419//181 460//181 459//181
f 440//182 479//182 480//182
f 420//94 441//94 421//94
f 460//98 481//98 480//98
f 420//183 461//183 460//183
f 441//184 480//184 481//184
f 421//94 442//94 422//94
f 461//98 482//98 481//98
f 421//185 462//185 461//185
f 442//186 481//186 482//186
f 422//94 443//94 423//94
f 462//98 483//98 482//98
f 422//187 463//187 462//187
f 443//188 482//188 483//188
f 423//94 444//94 424//94
f 463//98 484//98 483//98
f 423//70 464//70 463//70
f 444//91 483//91 484//91
f 424//94 445//94 425//94
f 464//98 485//98 484//98
f 424//189 465//189 464//189
f 445//190 484//190 485//190
f 425//94 446//94 426//94
f 465//98 486//98 485//98
f 425//191 466//191 465//191
f 446//192 485//192 486//192
f 426//94 447//94 427//94
f 466//98 487//98 486//98
f 426//193 467//193 466//193
f 447//194 486//194 487//194
f 427//94 448//94 428//94
f 467//98 488//98 487//98
f 427//195 468//195 467//195
f 448//196 487//196 488//196
f 428//94 449//94 429//94
f 468//98 489//98 488//98
f 428//73 469//73 468//73
f 449//88 488//88 489//88
f 429//94 450//94 430//94
f 469//98 490//98 489//98
f 429//197 470//197 469//197
f 450//198 489//198 490//198
f 430//94 431//94 411//94
f 470//98 471//98 490//98
f 430//199 451//199 470//199
f 431//200 490//200 471//200
f 499//159 500//159 501//159
f 502//14 503//14 504//14
f 505//160 506//160 507//160
f 508//156 509//156 510//156
f 511//161 512//161 513//161
f 514//42 515//42 516//42
f 517//162 518//162 519//162
f 520//158 521//158 522//158
f 505//58 501//58 506//58
f 500//61 504//61 501//61
f 503//64 510//64 504//64
f 509//67 506//67 510//67
f 517//70 507//70 518//70
f 508//73 522//73 509//73
f 521//76 518//76 522//76
f 511//79 519//79 512//79
f 520//82 516//82 521//82
f 515//85 512//85 516//85
f 499//88 513//88 500//88
f 514//91 502//91 515//91
f 505//93 511//93 499//93
f 501//94 510//94 506//94
f 513//95 502//95 500//95
f 520//96 503//96 514//96
f 507//97 522//97 518//97
f 519//98 516//98 512//98
f 523//201 524//201 525//201
f 526//202 527//202 528//202
f 529//203 530//203 531//203
f 532//165 533//165 534//165
f 535//204 536//204 537//204
f 538//205 539//205 540//205
f 541//206 542//206 543//206
f 544//168 545//168 546//168
f 529//58 525//58 530//58
f 524//61 528//61 525//61
f 527//64 534//64 528//64
f 533//67 530//67 534//67
f 541//70 531//70 542//70
f 532//73 546//73 533//73
f 545//76 542//76 546//76
f 535//79 543//79 536//79
f 544//82 540//82 545//82
f 539//85 536//85 540//85
f 523//88 537//88 524//88
f 538//91 526//91 539//91
f 529//93 535//93 523//93
f 525//94 534//94 530//94
f 537//95 526//95 524//95
f 544//96 527//96 538//96
f 531//97 546//97 542//97
f 543//98 540//98 536//98
f 369//58 363//58 365//58
f 364//61 366//61 368//61
f 367//64 372//64 374//64
f 373//67 371//67 370//67
f 381//70 369//70 371//70
f 372//73 384//73 386//73
f 385//76 383//76 382//76
f 375//79 381//79 383//79
f 384//82 378//82 380//82
f 379//85 377//85 376//85
f 363//88 375//88 377//88
f 378//91 367//91 366//91
f 369//93 381//93 375//93
f 365//94 368//94 374//94
f 377//95 379//95 366//95
f 384//96 372//96 367//96
f 371//97 373//97 386//97
f 383//98 385//98 380//98
f 393//58 387//58 389//58
f 388//61 390//61 392//61
f 391//64 396//64 398//64
f 397//67 395//67 394//67
f 405//70 393//70 395//70
f 396//73 408//73 410//73
f 409//76 407//76 406//76
f 399//79 405//79 407//79
f 408//82 402//82 404//82
f 403//85 401//85 400//85
f 387//88 399//88 401//88
f 402//91 391//91 390//91
f 393//93 405//93 399//93
f 389//94 392//94 398//94
f 401//95 403//95 390//95
f 408//96 396//96 391//96
f 395//97 397//97 410//97
f 407//98 409//98 404//98
f 411//94 431//94 432//94
f 451//98 452//98 472//98
f 411//169 412//169 452//169
f 432//170 431//170 471//170
f 412//94 432//94 433//94
f 452//98 453//98 473//98
f 412//171 413//171 453//171
f 433//172 432//172 472//172
f 413//94 433//94 434//94
f 453//98 454//98 474//98
f 413//91 414//91 454//91
f 434//70 433//70 473//70
f 414//94 434//94 435//94
f 454//98 455//98 475//98
f 414//173 415//173 455//173
f 435//174 434//174 474//174
f 415//94 435//94 436//94
f 455//98 456//98 476//98
f 415//175 416//175 456//175
f 436//176 435//176 475//176
f 416//94 436//94 437//94
f 456//98 457//98 477//98
f 416//177 417//177 457//177
f 437//178 436//178 476//178
f 417//94 437//94 438//94
f 457//98 458//98 478//98
f 417//179 418//179 458//179
f 438//180 437//180 477//180
f 418//94 438//94 439//94
f 458//98 459//98 479//98
f 418//88 419//88 459//88
f 439//73 438//73 478//73
f 419//94 439//94 440//94
f 459//98 460//98 480//98
f 419//181 420//181 460//181
f 440//182 439//182 479//182
f 420//94 440//94 441//94
f 460//98 461//98 481//98
f 420//183 421//183 461//183
f 441//184 440//184 480//184
f 421//94 441//94 442//94
f 461//98 462//98 482//98
f 421//185 422//185 462//185
f 442//186 441//186 481//186
f 422//94 442//94 443//94
f 462//98 463//98 483//98
f 422//187 423//187 463//187
f 443//188 442//188 482//188
f 423//94 443//94 444//94
f 463//98 464//98 484//98
f 423//70 424//70 464//70
f 444//91 443//91 483//91
f 424//94 444//94 445//94
f 464//98 465//98 485//98
f 424//189 425//189 465//189
f 445//190 444//190 484//190
f 425//94 445//94 446//94
f 465//98 466//98 486//98
f 425//191 426//191 466//191
f 446//192 445//192 485//192
f 426//94 446//94 447//94
f 466//98 467//98 487//98
f 426//193 427//193 467//193
f 447//194 446//194 486//194
f 427//94 447//94 448//94
f 467//98 468//98 488//98
f 427//195 428//195 468//195
f 448//196 447//196 487//196
f 428//94 448//94 449//94
f 468//98 469//98 489//98
f 428//73 429//73 469//73
f 449//88 448//88 488//88
f 429//94 449//94 450//94
f 469//98 470//98 490//98
f 429//197 430//197 470//197
f 450//198 449//198 489//198
f 430//94 450//94 431//94
f 470//98 451//98 471//98
f 430//199 411//199 451//199
f 431//200 450//200 490//200
f 505//58 499//58 501//58
f 500//61 502//61 504//61
f 503//64 508//64 510//64
f 509//67 507//67 506//67
f 517//70 505//70 507//70
f 508//73 520//73 522//73
f 521//76 519//76 518//76
f 511//79 517//79 519//79
f 520//82 514//82 516//82
f 515//85 513//85 512//85
f 499//88 511//88 513//88
f 514//91 503//91 502//91
f 505//93 517//93 511//93
f 501//94 504//94 510//94
f 513//95 515//95 502//95
f 520//96 508//96 503//96
f 507//97 509//97 522//97
f 519//98 521//98 516//98
f 529//58 523//58 525//58
f 524//61 526//61 528//61
f 527//64 532//64 534//64
f 533//67 531//67 530//67
f 541//70 529//70 531//70
f 532//73 544//73 546//73
f 545//76 543//76 542//76
f 535//79 541//79 543//79
f 544//82 538//82 540//82
f 539//85 537//85 536//85
f 523//88 535//88 537//88
f 538//91 527//91 526//91
f 529//93 541//93 535//93
f 525//94 528//94 534//94
f 537//95 539//95 526//95
f 544//96 532//96 527//96
f 531//97 533//97 546//97
f 543//98 545//98 540//98
