# Blender 5.2.1 LTS
# www.blender.org
mtllib servo_bracket.mtl
o servo_bracket
v -0.017400 -0.002000 0.014400
v -0.017400 -0.001400 0.015000
v -0.018000 -0.001400 0.014400
v -0.017400 -0.001920 0.014700
v -0.017700 -0.001920 0.014400
v -0.017687 -0.001842 0.014687
v -0.017700 -0.001400 0.014920
v -0.017400 -0.001700 0.014920
v -0.017687 -0.001687 0.014842
v -0.017920 -0.001700 0.014400
v -0.017920 -0.001400 0.014700
v -0.017842 -0.001687 0.014687
v -0.017400 0.001400 0.015000
v -0.017400 0.002000 0.014400
v -0.018000 0.001400 0.014400
v -0.017400 0.001700 0.014920
v -0.017700 0.001400 0.014920
v -0.017687 0.001687 0.014842
v -0.017700 0.001920 0.014400
v -0.017400 0.001920 0.014700
v -0.017687 0.001842 0.014687
v -0.017920 0.001400 0.014700
v -0.017920 0.001700 0.014400
v -0.017842 0.001687 0.014687
v -0.017400 -0.002000 -0.014400
v -0.018000 -0.001400 -0.014400
v -0.017400 -0.001400 -0.015000
v -0.017700 -0.001920 -0.014400
v -0.017400 -0.001920 -0.014700
v -0.017687 -0.001842 -0.014687
v -0.017920 -0.001400 -0.014700
v -0.017920 -0.001700 -0.014400
v -0.017842 -0.001687 -0.014687
v -0.017400 -0.001700 -0.014920
v -0.017700 -0.001400 -0.014920
v -0.017687 -0.001687 -0.014842
v -0.017400 0.002000 -0.014400
v -0.017400 0.001400 -0.015000
v -0.018000 0.001400 -0.014400
v -0.017400 0.001920 -0.014700
v -0.017700 0.001920 -0.014400
v -0.017687 0.001842 -0.014687
v -0.017700 0.001400 -0.014920
v -0.017400 0.001700 -0.014920
v -0.017687 0.001687 -0.014842
v -0.017920 0.001700 -0.014400
v -0.017920 0.001400 -0.014700
v -0.017842 0.001687 -0.014687
v 0.017400 -0.002000 0.014400
v 0.018000 -0.001400 0.014400
v 0.017400 -0.001400 0.015000
v 0.017700 -0.001920 0.014400
v 0.017400 -0.001920 0.014700
v 0.017687 -0.001842 0.014687
v 0.017920 -0.001400 0.014700
v 0.017920 -0.001700 0.014400
v 0.017842 -0.001687 0.014687
v 0.017400 -0.001700 0.014920
v 0.017700 -0.001400 0.014920
v 0.017687 -0.001687 0.014842
v 0.017400 0.002000 0.014400
v 0.017400 0.001400 0.015000
v 0.018000 0.001400 0.014400
v 0.017400 0.001920 0.014700
v 0.017700 0.001920 0.014400
v 0.017687 0.001842 0.014687
v 0.017700 0.001400 0.014920
v 0.017400 0.001700 0.014920
v 0.017687 0.001687 0.014842
v 0.017920 0.001700 0.014400
v 0.017920 0.001400 0.014700
v 0.017842 0.001687 0.014687
v 0.017400 -0.002000 -0.014400
v 0.017400 -0.001400 -0.015000
v 0.018000 -0.001400 -0.014400
v 0.017400 -0.001920 -0.014700
v 0.017700 -0.001920 -0.014400
v 0.017687 -0.001842 -0.014687
v 0.017700 -0.001400 -0.014920
v 0.017400 -0.001700 -0.014920
v 0.017687 -0.001687 -0.014842
v 0.017920 -0.001700 -0.014400
v 0.017920 -0.001400 -0.014700
v 0.017842 -0.001687 -0.014687
v 0.017400 0.002000 -0.014400
v 0.018000 0.001400 -0.014400
v 0.017400 0.001400 -0.015000
v 0.017700 0.001920 -0.014400
v 0.017400 0.001920 -0.014700
v 0.017687 0.001842 -0.014687
v 0.017920 0.001400 -0.014700
v 0.017920 0.001700 -0.014400
v 0.017842 0.001687 -0.014687
v 0.017400 0.001700 -0.014920
v 0.017700 0.001400 -0.014920
v 0.017687 0.001687 -0.014842
v -0.011940 -0.002000 -0.010294
v -0.011494 -0.002000 -0.010522
v -0.010060 -0.002000 -0.010294
v -0.010506 -0.002000 -0.010522
v -0.011000 -0.002000 -0.010600
v -0.009706 -0.002000 -0.008060
v -0.009400 -0.002000 -0.009000
v -0.009478 -0.002000 -0.009494
v -0.009478 -0.002000 -0.008506
v -0.009706 -0.002000 -0.009940
v -0.012522 -0.002000 -0.008506
v -0.012600 -0.002000 -0.009000
v -0.012294 -0.002000 -0.009940
v -0.012294 -0.002000 -0.008060
v -0.012522 -0.002000 -0.009494
v -0.011940 -0.002000 -0.007706
v -0.011494 -0.002000 -0.007478
v -0.010506 -0.002000 -0.007478
v -0.010060 -0.002000 -0.007706
v -0.011000 -0.002000 -0.007400
v -0.012600 0.002000 -0.009000
v -0.012294 0.002000 -0.008060
v -0.012522 0.002000 -0.008506
v -0.012522 0.002000 -0.009494
v -0.011494 0.002000 -0.007478
v -0.011494 0.002000 -0.010522
v -0.011940 0.002000 -0.007706
v -0.011940 0.002000 -0.010294
v -0.012294 0.002000 -0.009940
v -0.010060 0.002000 -0.007706
v -0.010506 0.002000 -0.007478
v -0.010506 0.002000 -0.010522
v -0.009706 0.002000 -0.009940
v -0.009400 0.002000 -0.009000
v -0.009478 0.002000 -0.008506
v -0.009478 0.002000 -0.009494
v -0.009706 0.002000 -0.008060
v -0.010060 0.002000 -0.010294
v -0.011000 0.002000 -0.007400
v -0.011000 0.002000 -0.010600
v -0.011494 -0.002000 0.010522
v -0.011940 -0.002000 0.010294
v -0.011000 -0.002000 0.010600
v -0.010506 -0.002000 0.010522
v -0.009706 -0.002000 0.009940
v -0.009706 -0.002000 0.008060
v -0.009400 -0.002000 0.009000
v -0.009478 -0.002000 0.009494
v -0.009478 -0.002000 0.008506
v -0.010060 -0.002000 0.010294
v -0.012600 -0.002000 0.009000
v -0.012522 -0.002000 0.009494
v -0.012522 -0.002000 0.008506
v -0.012294 -0.002000 0.009940
v -0.012294 -0.002000 0.008060
v -0.011000 -0.002000 0.007400
v -0.011494 -0.002000 0.007478
v -0.010506 -0.002000 0.007478
v -0.010060 -0.002000 0.007706
v -0.011940 -0.002000 0.007706
v -0.011940 0.002000 0.010294
v -0.011494 0.002000 0.010522
v -0.010060 0.002000 0.010294
v -0.010506 0.002000 0.010522
v -0.011000 0.002000 0.010600
v -0.009706 0.002000 0.008060
v -0.009400 0.002000 0.009000
v -0.009478 0.002000 0.008506
v -0.009706 0.002000 0.009940
v -0.009478 0.002000 0.009494
v -0.012600 0.002000 0.009000
v -0.012522 0.002000 0.009494
v -0.012522 0.002000 0.008506
v -0.012294 0.002000 0.009940
v -0.012294 0.002000 0.008060
v -0.011000 0.002000 0.007400
v -0.011494 0.002000 0.007478
v -0.010060 0.002000 0.007706
v -0.010506 0.002000 0.007478
v -0.011940 0.002000 0.007706
v 0.010506 -0.002000 -0.007478
v 0.010060 -0.002000 -0.007706
v 0.011000 -0.002000 -0.007400
v 0.011494 -0.002000 -0.007478
v 0.012294 -0.002000 -0.008060
v 0.012600 -0.002000 -0.009000
v 0.012522 -0.002000 -0.009494
v 0.012522 -0.002000 -0.008506
v 0.011940 -0.002000 -0.007706
v 0.012294 -0.002000 -0.009940
v 0.009478 -0.002000 -0.008506
v 0.009400 -0.002000 -0.009000
v 0.009706 -0.002000 -0.008060
v 0.009478 -0.002000 -0.009494
v 0.009706 -0.002000 -0.009940
v 0.010060 -0.002000 -0.010294
v 0.010506 -0.002000 -0.010522
v 0.011494 -0.002000 -0.010522
v 0.011940 -0.002000 -0.010294
v 0.011000 -0.002000 -0.010600
v 0.009478 0.002000 -0.008506
v 0.009400 0.002000 -0.009000
v 0.009706 0.002000 -0.008060
v 0.009478 0.002000 -0.009494
v 0.009706 0.002000 -0.009940
v 0.010060 0.002000 -0.007706
v 0.010506 0.002000 -0.010522
v 0.010506 0.002000 -0.007478
v 0.010060 0.002000 -0.010294
v 0.011940 0.002000 -0.007706
v 0.011940 0.002000 -0.010294
v 0.011494 0.002000 -0.007478
v 0.011494 0.002000 -0.010522
v 0.012600 0.002000 -0.009000
v 0.012522 0.002000 -0.009494
v 0.012294 0.002000 -0.008060
v 0.012522 0.002000 -0.008506
v 0.012294 0.002000 -0.009940
v 0.011000 0.002000 -0.010600
v 0.011000 0.002000 -0.007400
v 0.009706 -0.002000 0.008060
v 0.010060 -0.002000 0.007706
v 0.010506 -0.002000 0.007478
v 0.011494 -0.002000 0.007478
v 0.011000 -0.002000 0.007400
v 0.012294 -0.002000 0.008060
v 0.012600 -0.002000 0.009000
v 0.012522 -0.002000 0.009494
v 0.012522 -0.002000 0.008506
v 0.012294 -0.002000 0.009940
v 0.011940 -0.002000 0.007706
v 0.009400 -0.002000 0.009000
v 0.009706 -0.002000 0.009940
v 0.009478 -0.002000 0.009494
v 0.009478 -0.002000 0.008506
v 0.010060 -0.002000 0.010294
v 0.010506 -0.002000 0.010522
v 0.011494 -0.002000 0.010522
v 0.011940 -0.002000 0.010294
v 0.011000 -0.002000 0.010600
v 0.010060 0.002000 0.007706
v 0.011494 0.002000 0.007478
v 0.011000 0.002000 0.007400
v 0.010506 0.002000 0.007478
v 0.012294 0.002000 0.008060
v 0.012600 0.002000 0.009000
v 0.012522 0.002000 0.009494
v 0.012522 0.002000 0.008506
v 0.011940 0.002000 0.007706
v 0.009478 0.002000 0.009494
v 0.009400 0.002000 0.009000
v 0.009706 0.002000 0.009940
v 0.009478 0.002000 0.008506
v 0.011000 0.002000 0.010600
v 0.010506 0.002000 0.010522
v 0.011494 0.002000 0.010522
v 0.011940 0.002000 0.010294
v 0.010060 0.002000 0.010294
v 0.009706 0.002000 0.008060
v 0.012294 0.002000 0.009940
v -0.017400 0.002000 -0.012600
v -0.017400 0.002600 -0.012000
v -0.018000 0.002600 -0.012600
v -0.017400 0.002080 -0.012300
v -0.017700 0.002080 -0.012600
v -0.017687 0.002158 -0.012313
v -0.017700 0.002600 -0.012080
v -0.017400 0.002300 -0.012080
v -0.017687 0.002313 -0.012158
v -0.017920 0.002300 -0.012600
v -0.017920 0.002600 -0.012300
v -0.017842 0.002313 -0.012313
v -0.017400 0.029400 -0.012000
v -0.017400 0.030000 -0.012600
v -0.018000 0.029400 -0.012600
v -0.017400 0.029700 -0.012080
v -0.017700 0.029400 -0.012080
v -0.017687 0.029687 -0.012158
v -0.017700 0.029920 -0.012600
v -0.017400 0.029920 -0.012300
v -0.017687 0.029842 -0.012313
v -0.017920 0.029400 -0.012300
v -0.017920 0.029700 -0.012600
v -0.017842 0.029687 -0.012313
v -0.018000 0.002600 -0.014400
v -0.017400 0.002600 -0.015000
v -0.017700 0.002080 -0.014400
v -0.017400 0.002080 -0.014700
v -0.017687 0.002158 -0.014687
v -0.017920 0.002600 -0.014700
v -0.017920 0.002300 -0.014400
v -0.017842 0.002313 -0.014687
v -0.017400 0.002300 -0.014920
v -0.017700 0.002600 -0.014920
v -0.017687 0.002313 -0.014842
v -0.017400 0.030000 -0.014400
v -0.017400 0.029400 -0.015000
v -0.018000 0.029400 -0.014400
v -0.017400 0.029920 -0.014700
v -0.017700 0.029920 -0.014400
v -0.017687 0.029842 -0.014687
v -0.017700 0.029400 -0.014920
v -0.017400 0.029700 -0.014920
v -0.017687 0.029687 -0.014842
v -0.017920 0.029700 -0.014400
v -0.017920 0.029400 -0.014700
v -0.017842 0.029687 -0.014687
v 0.017400 0.002000 -0.012600
v 0.018000 0.002600 -0.012600
v 0.017400 0.002600 -0.012000
v 0.017700 0.002080 -0.012600
v 0.017400 0.002080 -0.012300
v 0.017687 0.002158 -0.012313
v 0.017920 0.002600 -0.012300
v 0.017920 0.002300 -0.012600
v 0.017842 0.002313 -0.012313
v 0.017400 0.002300 -0.012080
v 0.017700 0.002600 -0.012080
v 0.017687 0.002313 -0.012158
v 0.017400 0.030000 -0.012600
v 0.017400 0.029400 -0.012000
v 0.018000 0.029400 -0.012600
v 0.017400 0.029920 -0.012300
v 0.017700 0.029920 -0.012600
v 0.017687 0.029842 -0.012313
v 0.017700 0.029400 -0.012080
v 0.017400 0.029700 -0.012080
v 0.017687 0.029687 -0.012158
v 0.017920 0.029700 -0.012600
v 0.017920 0.029400 -0.012300
v 0.017842 0.029687 -0.012313
v 0.017400 0.002600 -0.015000
v 0.018000 0.002600 -0.014400
v 0.017400 0.002080 -0.014700
v 0.017700 0.002080 -0.014400
v 0.017687 0.002158 -0.014687
v 0.017700 0.002600 -0.014920
v 0.017400 0.002300 -0.014920
v 0.017687 0.002313 -0.014842
v 0.017920 0.002300 -0.014400
v 0.017920 0.002600 -0.014700
v 0.017842 0.002313 -0.014687
v 0.017400 0.030000 -0.014400
v 0.018000 0.029400 -0.014400
v 0.017400 0.029400 -0.015000
v 0.017700 0.029920 -0.014400
v 0.017400 0.029920 -0.014700
v 0.017687 0.029842 -0.014687
v 0.017920 0.029400 -0.014700
v 0.017920 0.029700 -0.014400
v 0.017842 0.029687 -0.014687
v 0.017400 0.029700 -0.014920
v 0.017700 0.029400 -0.014920
v 0.017687 0.029687 -0.014842
v -0.014500 0.020000 -0.012000
v -0.013832 0.017943 -0.012000
v -0.014329 0.018918 -0.012000
v -0.014329 0.021082 -0.012000
v -0.012082 0.016671 -0.012000
v -0.012082 0.023329 -0.012000
v -0.013057 0.017168 -0.012000
v -0.013057 0.022832 -0.012000
v -0.013832 0.022057 -0.012000
v -0.008943 0.017168 -0.012000
v -0.009918 0.016671 -0.012000
v -0.009918 0.023329 -0.012000
v -0.008168 0.022057 -0.012000
v -0.007500 0.020000 -0.012000
v -0.007671 0.018918 -0.012000
v -0.007671 0.021082 -0.012000
v -0.008168 0.017943 -0.012000
v -0.008943 0.022832 -0.012000
v -0.011000 0.016500 -0.012000
v -0.011000 0.023500 -0.012000
v -0.014500 0.020000 -0.015000
v -0.013832 0.017943 -0.015000
v -0.014329 0.018918 -0.015000
v -0.014329 0.021082 -0.015000
v -0.012082 0.016671 -0.015000
v -0.012082 0.023329 -0.015000
v -0.013057 0.017168 -0.015000
v -0.013057 0.022832 -0.015000
v -0.013832 0.022057 -0.015000
v -0.008943 0.022832 -0.015000
v -0.009918 0.016671 -0.015000
v -0.009918 0.023329 -0.015000
v -0.008168 0.017943 -0.015000
v -0.007500 0.020000 -0.015000
v -0.007671 0.018918 -0.015000
v -0.007671 0.021082 -0.015000
v -0.008168 0.022057 -0.015000
v -0.008943 0.017168 -0.015000
v -0.011000 0.016500 -0.015000
v -0.011000 0.023500 -0.015000
v -0.011940 0.005706 -0.012000
v -0.012294 0.006060 -0.012000
v -0.010506 0.005478 -0.012000
v -0.011000 0.005400 -0.012000
v -0.011494 0.005478 -0.012000
v -0.009706 0.006060 -0.012000
v -0.009706 0.007940 -0.012000
v -0.009400 0.007000 -0.012000
v -0.009478 0.006506 -0.012000
v -0.009478 0.007494 -0.012000
v -0.010060 0.005706 -0.012000
v -0.012522 0.006506 -0.012000
v -0.012600 0.007000 -0.012000
v -0.012294 0.007940 -0.012000
v -0.012522 0.007494 -0.012000
v -0.011000 0.008600 -0.012000
v -0.011494 0.008522 -0.012000
v -0.010060 0.008294 -0.012000
v -0.010506 0.008522 -0.012000
v -0.011940 0.008294 -0.012000
v -0.012522 0.006506 -0.015000
v -0.012600 0.007000 -0.015000
v -0.012294 0.006060 -0.015000
v -0.012522 0.007494 -0.015000
v -0.011940 0.008294 -0.015000
v -0.011494 0.005478 -0.015000
v -0.011494 0.008522 -0.015000
v -0.011940 0.005706 -0.015000
v -0.012294 0.007940 -0.015000
v -0.010060 0.008294 -0.015000
v -0.010506 0.005478 -0.015000
v -0.010506 0.008522 -0.015000
v -0.009706 0.006060 -0.015000
v -0.009400 0.007000 -0.015000
v -0.009478 0.006506 -0.015000
v -0.009478 0.007494 -0.015000
v -0.009706 0.007940 -0.015000
v -0.010060 0.005706 -0.015000
v -0.011000 0.005400 -0.015000
v -0.011000 0.008600 -0.015000
v 0.007671 0.018918 -0.012000
v 0.007500 0.020000 -0.012000
v 0.008168 0.017943 -0.012000
v 0.007671 0.021082 -0.012000
v 0.008168 0.022057 -0.012000
v 0.008943 0.017168 -0.012000
v 0.009918 0.023329 -0.012000
v 0.009918 0.016671 -0.012000
v 0.008943 0.022832 -0.012000
v 0.013057 0.017168 -0.012000
v 0.013057 0.022832 -0.012000
v 0.012082 0.016671 -0.012000
v 0.012082 0.023329 -0.012000
v 0.014500 0.020000 -0.012000
v 0.014329 0.021082 -0.012000
v 0.013832 0.017943 -0.012000
v 0.014329 0.018918 -0.012000
v 0.013832 0.022057 -0.012000
v 0.011000 0.023500 -0.012000
v 0.011000 0.016500 -0.012000
v 0.007671 0.018918 -0.015000
v 0.007500 0.020000 -0.015000
v 0.008168 0.017943 -0.015000
v 0.007671 0.021082 -0.015000
v 0.008168 0.022057 -0.015000
v 0.008943 0.022832 -0.015000
v 0.009918 0.016671 -0.015000
v 0.008943 0.017168 -0.015000
v 0.009918 0.023329 -0.015000
v 0.013057 0.017168 -0.015000
v 0.013057 0.022832 -0.015000
v 0.012082 0.016671 -0.015000
v 0.012082 0.023329 -0.015000
v 0.014500 0.020000 -0.015000
v 0.014329 0.021082 -0.015000
v 0.013832 0.017943 -0.015000
v 0.014329 0.018918 -0.015000
v 0.013832 0.022057 -0.015000
v 0.011000 0.023500 -0.015000
v 0.011000 0.016500 -0.015000
v 0.009400 0.007000 -0.012000
v 0.009706 0.006060 -0.012000
v 0.009478 0.006506 -0.012000
v 0.009478 0.007494 -0.012000
v 0.010506 0.005478 -0.012000
v 0.010506 0.008522 -0.012000
v 0.010060 0.005706 -0.012000
v 0.010060 0.008294 -0.012000
v 0.009706 0.007940 -0.012000
v 0.011940 0.005706 -0.012000
v 0.011494 0.005478 -0.012000
v 0.011494 0.008522 -0.012000
v 0.012294 0.007940 -0.012000
v 0.012600 0.007000 -0.012000
v 0.012522 0.006506 -0.012000
v 0.012522 0.007494 -0.012000
v 0.012294 0.006060 -0.012000
v 0.011000 0.005400 -0.012000
v 0.011940 0.008294 -0.012000
v 0.011000 0.008600 -0.012000
v 0.009400 0.007000 -0.015000
v 0.009706 0.006060 -0.015000
v 0.009478 0.006506 -0.015000
v 0.009478 0.007494 -0.015000
v 0.010506 0.005478 -0.015000
v 0.010506 0.008522 -0.015000
v 0.010060 0.005706 -0.015000
v 0.010060 0.008294 -0.015000
v 0.009706 0.007940 -0.015000
v 0.011940 0.008294 -0.015000
v 0.011494 0.005478 -0.015000
v 0.011494 0.008522 -0.015000
v 0.012294 0.006060 -0.015000
v 0.012600 0.007000 -0.015000
v 0.012522 0.006506 -0.015000
v 0.012522 0.007494 -0.015000
v 0.012294 0.007940 -0.015000
v 0.011000 0.005400 -0.015000
v 0.011940 0.005706 -0.015000
v 0.011000 0.008600 -0.015000
v -0.017500 0.002500 -0.012000
v -0.017500 0.002000 -0.011500
v -0.018000 0.002500 -0.011500
v -0.017500 0.002146 -0.011854
v -0.017789 0.002211 -0.011789
v -0.017854 0.002146 -0.011500
v -0.017854 0.002500 -0.011854
v -0.017500 0.002000 0.002500
v -0.017500 0.002413 0.002718
v -0.018000 0.002500 0.002054
v -0.017500 0.002103 0.002805
v -0.017789 0.002193 0.002635
v -0.017854 0.002457 0.002490
v -0.017854 0.002164 0.002335
v -0.017500 0.023500 -0.012000
v -0.018000 0.022379 -0.011500
v -0.017500 0.023587 -0.011718
v -0.017854 0.022940 -0.011854
v -0.017789 0.023407 -0.011817
v -0.017854 0.023041 -0.011524
v -0.017500 0.023733 -0.011918
v -0.015500 0.002500 -0.012000
v -0.015000 0.002500 -0.011500
v -0.015500 0.002000 -0.011500
v -0.015146 0.002500 -0.011854
v -0.015211 0.002211 -0.011789
v -0.015146 0.002146 -0.011500
v -0.015500 0.002146 -0.011854
v -0.015500 0.002413 0.002718
v -0.015500 0.002000 0.002500
v -0.015000 0.002500 0.002054
v -0.015500 0.002103 0.002805
v -0.015211 0.002193 0.002635
v -0.015146 0.002164 0.002335
v -0.015146 0.002457 0.002490
v -0.015500 0.023500 -0.012000
v -0.015500 0.023587 -0.011718
v -0.015000 0.022379 -0.011500
v -0.015500 0.023733 -0.011918
v -0.015211 0.023407 -0.011817
v -0.015146 0.023041 -0.011524
v -0.015146 0.022940 -0.011854
v 0.015500 0.002500 -0.012000
v 0.015500 0.002000 -0.011500
v 0.015000 0.002500 -0.011500
v 0.015500 0.002146 -0.011854
v 0.015211 0.002211 -0.011789
v 0.015146 0.002146 -0.011500
v 0.015146 0.002500 -0.011854
v 0.015500 0.002000 0.002500
v 0.015500 0.002413 0.002718
v 0.015000 0.002500 0.002054
v 0.015500 0.002103 0.002805
v 0.015211 0.002193 0.002635
v 0.015146 0.002457 0.002490
v 0.015146 0.002164 0.002335
v 0.015500 0.023500 -0.012000
v 0.015000 0.022379 -0.011500
v 0.015500 0.023587 -0.011718
v 0.015146 0.022940 -0.011854
v 0.015211 0.023407 -0.011817
v 0.015146 0.023041 -0.011524
v 0.015500 0.023733 -0.011918
v 0.017500 0.002500 -0.012000
v 0.018000 0.002500 -0.011500
v 0.017500 0.002000 -0.011500
v 0.017854 0.002500 -0.011854
v 0.017789 0.002211 -0.011789
v 0.017854 0.002146 -0.011500
v 0.017500 0.002146 -0.011854
v 0.017500 0.002413 0.002718
v 0.017500 0.002000 0.002500
v 0.018000 0.002500 0.002054
v 0.017500 0.002103 0.002805
v 0.017789 0.002193 0.002635
v 0.017854 0.002164 0.002335
v 0.017854 0.002457 0.002490
v 0.017500 0.023500 -0.012000
v 0.017500 0.023587 -0.011718
v 0.018000 0.022379 -0.011500
v 0.017500 0.023733 -0.011918
v 0.017789 0.023407 -0.011817
v 0.017854 0.023041 -0.011524
v 0.017854 0.022940 -0.011854
v 0.000000 0.001700 -0.005000
v 0.000000 0.002300 -0.005000
v 0.001294 0.001700 -0.004830
v 0.001294 0.002300 -0.004830
v 0.002500 0.001700 -0.004330
v 0.002500 0.002300 -0.004330
v 0.003536 0.001700 -0.003536
v 0.003536 0.002300 -0.003536
v 0.004330 0.001700 -0.002500
v 0.004330 0.002300 -0.002500
v 0.004830 0.001700 -0.001294
v 0.004830 0.002300 -0.001294
v 0.005000 0.001700 0.000000
v 0.005000 0.002300 0.000000
v 0.004830 0.001700 0.001294
v 0.004830 0.002300 0.001294
v 0.004330 0.001700 0.002500
v 0.004330 0.002300 0.002500
v 0.003536 0.001700 0.003536
v 0.003536 0.002300 0.003536
v 0.002500 0.001700 0.004330
v 0.002500 0.002300 0.004330
v 0.001294 0.001700 0.004830
v 0.001294 0.002300 0.004830
v 0.000000 0.001700 0.005000
v 0.000000 0.002300 0.005000
v -0.001294 0.001700 0.004830
v -0.001294 0.002300 0.004830
v -0.002500 0.001700 0.004330
v -0.002500 0.002300 0.004330
v -0.003536 0.001700 0.003536
v -0.003536 0.002300 0.003536
v -0.004330 0.001700 0.002500
v -0.004330 0.002300 0.002500
v -0.004830 0.001700 0.001294
v -0.004830 0.002300 0.001294
v -0.005000 0.001700 0.000000
v -0.005000 0.002300 0.000000
v -0.004830 0.001700 -0.001294
v -0.004830 0.002300 -0.001294
v -0.004330 0.001700 -0.002500
v -0.004330 0.002300 -0.002500
v -0.003536 0.001700 -0.003536
v -0.003536 0.002300 -0.003536
v -0.002500 0.001700 -0.004330
v -0.002500 0.002300 -0.004330
v -0.001294 0.001700 -0.004830
v -0.001294 0.002300 -0.004830
v -0.002670 0.002300 -0.001940
v 0.000000 0.002300 -0.003300
v -0.001020 0.002300 -0.003138
v -0.001940 0.002300 -0.002670
v -0.001940 0.002300 0.002670
v -0.002670 0.002300 0.001940
v -0.001020 0.002300 0.003138
v 0.000000 0.002300 0.003300
v 0.002670 0.002300 0.001940
v 0.002670 0.002300 -0.001940
v 0.003300 0.002300 0.000000
v 0.003138 0.002300 0.001020
v 0.003138 0.002300 -0.001020
v -0.003138 0.002300 0.001020
v -0.003300 0.002300 0.000000
v -0.003138 0.002300 -0.001020
v 0.001020 0.002300 0.003138
v 0.001940 0.002300 0.002670
v 0.001940 0.002300 -0.002670
v 0.001020 0.002300 -0.003138
v 0.001940 0.001700 -0.002670
v 0.001020 0.001700 -0.003138
v 0.003138 0.001700 -0.001020
v 0.002670 0.001700 -0.001940
v 0.000000 0.001700 0.003300
v -0.001020 0.001700 0.003138
v 0.001940 0.001700 0.002670
v 0.001020 0.001700 0.003138
v 0.002670 0.001700 0.001940
v -0.003138 0.001700 0.001020
v -0.003300 0.001700 0.000000
v -0.003138 0.001700 -0.001020
v -0.001940 0.001700 -0.002670
v -0.002670 0.001700 -0.001940
v -0.002670 0.001700 0.001940
v -0.001940 0.001700 0.002670
v 0.000000 0.001700 -0.003300
v 0.003138 0.001700 0.001020
v 0.003300 0.001700 0.000000
v -0.001020 0.001700 -0.003138
v 0.000000 0.021000 -0.015300
v 0.000000 0.021000 -0.014700
v 0.001294 0.020830 -0.015300
v 0.001294 0.020830 -0.014700
v 0.002500 0.020330 -0.015300
v 0.002500 0.020330 -0.014700
v 0.003536 0.019536 -0.015300
v 0.003536 0.019536 -0.014700
v 0.004330 0.018500 -0.015300
v 0.004330 0.018500 -0.014700
v 0.004830 0.017294 -0.015300
v 0.004830 0.017294 -0.014700
v 0.005000 0.016000 -0.015300
v 0.005000 0.016000 -0.014700
v 0.004830 0.014706 -0.015300
v 0.004830 0.014706 -0.014700
v 0.004330 0.013500 -0.015300
v 0.004330 0.013500 -0.014700
v 0.003536 0.012464 -0.015300
v 0.003536 0.012464 -0.014700
v 0.002500 0.011670 -0.015300
v 0.002500 0.011670 -0.014700
v 0.001294 0.011170 -0.015300
v 0.001294 0.011170 -0.014700
v 0.000000 0.011000 -0.015300
v 0.000000 0.011000 -0.014700
v -0.001294 0.011170 -0.015300
v -0.001294 0.011170 -0.014700
v -0.002500 0.011670 -0.015300
v -0.002500 0.011670 -0.014700
v -0.003536 0.012464 -0.015300
v -0.003536 0.012464 -0.014700
v -0.004330 0.013500 -0.015300
v -0.004330 0.013500 -0.014700
v -0.004830 0.014706 -0.015300
v -0.004830 0.014706 -0.014700
v -0.005000 0.016000 -0.015300
v -0.005000 0.016000 -0.014700
v -0.004830 0.017294 -0.015300
v -0.004830 0.017294 -0.014700
v -0.004330 0.018500 -0.015300
v -0.004330 0.018500 -0.014700
v -0.003536 0.019536 -0.015300
v -0.003536 0.019536 -0.014700
v -0.002500 0.020330 -0.015300
v -0.002500 0.020330 -0.014700
v -0.001294 0.020830 -0.015300
v -0.001294 0.020830 -0.014700
v -0.002670 0.017940 -0.014700
v 0.000000 0.019300 -0.014700
v -0.001020 0.019138 -0.014700
v -0.001940 0.018670 -0.014700
v -0.001940 0.013330 -0.014700
v -0.002670 0.014060 -0.014700
v -0.001020 0.012862 -0.014700
v 0.000000 0.012700 -0.014700
v 0.002670 0.014060 -0.014700
v 0.002670 0.017940 -0.014700
v 0.003300 0.016000 -0.014700
v 0.003138 0.014980 -0.014700
v 0.003138 0.017020 -0.014700
v -0.003138 0.014980 -0.014700
v -0.003300 0.016000 -0.014700
v -0.003138 0.017020 -0.014700
v 0.001020 0.012862 -0.014700
v 0.001940 0.013330 -0.014700
v 0.001940 0.018670 -0.014700
v 0.001020 0.019138 -0.014700
v 0.001940 0.018670 -0.015300
v 0.001020 0.019138 -0.015300
v 0.003138 0.017020 -0.015300
v 0.002670 0.017940 -0.015300
v 0.000000 0.012700 -0.015300
v -0.001020 0.012862 -0.015300
v 0.001940 0.013330 -0.015300
v 0.001020 0.012862 -0.015300
v 0.002670 0.014060 -0.015300
v -0.003138 0.014980 -0.015300
v -0.003300 0.016000 -0.015300
v -0.003138 0.017020 -0.015300
v -0.001940 0.018670 -0.015300
v -0.002670 0.017940 -0.015300
v -0.002670 0.014060 -0.015300
v -0.001940 0.013330 -0.015300
v 0.000000 0.019300 -0.015300
v 0.003138 0.014980 -0.015300
v 0.003300 0.016000 -0.015300
v -0.001020 0.019138 -0.015300
vn -0.2485 -0.9318 0.2645
vn -0.2188 -0.6900 0.6900
vn -0.2645 -0.2485 0.9318
vn -0.6900 -0.2188 0.6900
vn -0.9318 -0.2645 0.2485
vn -0.6900 -0.6900 0.2188
vn -0.5774 -0.5773 0.5774
vn -0.2485 0.2645 0.9318
vn -0.2188 0.6900 0.6900
vn -0.2645 0.9318 0.2485
vn -0.6900 0.6900 0.2188
vn -0.9318 0.2485 0.2645
vn -0.6900 0.2188 0.6900
vn -0.5774 0.5773 0.5774
vn -0.2645 -0.9318 -0.2485
vn -0.6900 -0.6900 -0.2188
vn -0.9318 -0.2485 -0.2645
vn -0.6900 -0.2188 -0.6900
vn -0.2485 -0.2645 -0.9318
vn -0.2188 -0.6900 -0.6900
vn -0.5774 -0.5773 -0.5774
vn -0.2485 0.9318 -0.2645
vn -0.2188 0.6900 -0.6900
vn -0.2645 0.2485 -0.9318
vn -0.6900 0.2188 -0.6900
vn -0.9318 0.2645 -0.2485
vn -0.6900 0.6900 -0.2188
vn -0.5774 0.5773 -0.5774
vn 0.2645 -0.9318 0.2485
vn 0.6900 -0.6900 0.2188
vn 0.9318 -0.2485 0.2645
vn 0.6900 -0.2188 0.6900
vn 0.2485 -0.2645 0.9318
vn 0.2188 -0.6900 0.6900
vn 0.5774 -0.5773 0.5774
vn 0.2485 0.9318 0.2645
vn 0.2188 0.6900 0.6900
vn 0.2645 0.2485 0.9318
vn 0.6900 0.2188 0.6900
vn 0.9318 0.2645 0.2485
vn 0.6900 0.6900 0.2188
vn 0.5774 0.5773 0.5774
vn 0.2485 -0.9318 -0.2645
vn 0.2188 -0.6900 -0.6900
vn 0.2645 -0.2485 -0.9318
vn 0.6900 -0.2188 -0.6900
vn 0.9318 -0.2645 -0.2485
vn 0.6900 -0.6900 -0.2188
vn 0.5774 -0.5773 -0.5774
vn 0.2645 0.9318 -0.2485
vn 0.6900 0.6900 -0.2188
vn 0.9318 0.2485 -0.2645
vn 0.6900 0.2188 -0.6900
vn 0.2485 0.2645 -0.9318
vn 0.2188 0.6900 -0.6900
vn 0.5774 0.5773 -0.5774
vn -0.2577 -0.9662 -0.0000
vn -0.7071 -0.7071 -0.0000
vn -0.9662 -0.2577 -0.0000
vn -0.2577 -0.0000 0.9662
vn -0.7071 -0.0000 0.7071
vn -0.9662 -0.0000 0.2577
vn -0.2577 0.9662 -0.0000
vn -0.7071 0.7071 -0.0000
vn -0.9662 0.2577 -0.0000
vn -0.2577 -0.0000 -0.9662
vn -0.7071 -0.0000 -0.7071
vn -0.9662 -0.0000 -0.2577
vn -0.0000 -0.9662 -0.2577
vn -0.0000 -0.7071 -0.7071
vn -0.0000 -0.2577 -0.9662
vn -0.0000 0.9662 -0.2577
vn -0.0000 0.7071 -0.7071
vn -0.0000 0.2577 -0.9662
vn 0.9662 -0.0000 -0.2577
vn 0.7071 -0.0000 -0.7071
vn 0.2577 -0.0000 -0.9662
vn 0.2577 -0.9662 -0.0000
vn 0.7071 -0.7071 -0.0000
vn 0.9662 -0.2577 -0.0000
vn 0.2577 0.9662 -0.0000
vn 0.7071 0.7071 -0.0000
vn 0.9662 0.2577 -0.0000
vn 0.2577 -0.0000 0.9662
vn 0.7071 -0.0000 0.7071
vn 0.9662 -0.0000 0.2577
vn -0.0000 -0.9662 0.2577
vn -0.0000 -0.7071 0.7071
vn -0.0000 -0.2577 0.9662
vn -0.0000 0.9662 0.2577
vn -0.0000 0.7071 0.7071
vn -0.0000 0.2577 0.9662
vn -0.0000 -1.0000 -0.0000
vn -1.0000 -0.0000 -0.0000
vn -0.0000 -0.0000 1.0000
vn -0.0000 1.0000 -0.0000
vn -0.0000 -0.0000 -1.0000
vn 1.0000 -0.0000 -0.0000
vn -0.1560 -0.0000 0.9878
vn -0.4552 -0.0000 0.8904
vn -0.8904 -0.0000 0.4552
vn -0.9878 -0.0000 0.1560
vn -0.9878 -0.0000 -0.1560
vn -0.8904 -0.0000 -0.4552
vn -0.4552 -0.0000 -0.8904
vn -0.1560 -0.0000 -0.9878
vn 0.1560 -0.0000 -0.9878
vn 0.4552 -0.0000 -0.8904
vn 0.8904 -0.0000 -0.4552
vn 0.9878 -0.0000 -0.1560
vn 0.9878 -0.0000 0.1560
vn 0.8904 -0.0000 0.4552
vn 0.4552 -0.0000 0.8904
vn 0.1560 -0.0000 0.9878
vn -0.5773 -0.5774 0.5774
vn -0.5773 0.5774 0.5774
vn -0.5773 0.5774 -0.5774
vn 0.5773 -0.5774 0.5774
vn 0.5773 0.5774 0.5774
vn 0.5773 0.5774 -0.5774
vn -0.2576 0.9662 -0.0000
vn 0.2576 0.9662 -0.0000
vn -0.1561 -0.9877 -0.0000
vn -0.4541 -0.8909 -0.0000
vn -0.8909 -0.4541 -0.0000
vn -0.9877 -0.1561 -0.0000
vn -0.9877 0.1561 -0.0000
vn -0.8909 0.4541 -0.0000
vn -0.4541 0.8909 -0.0000
vn -0.1561 0.9877 -0.0000
vn 0.1561 0.9877 -0.0000
vn 0.4541 0.8909 -0.0000
vn 0.8909 0.4541 -0.0000
vn 0.9877 0.1561 -0.0000
vn 0.9877 -0.1561 -0.0000
vn 0.8909 -0.4541 -0.0000
vn 0.4541 -0.8909 -0.0000
vn 0.1561 -0.9877 -0.0000
vn -0.1560 -0.9878 -0.0000
vn -0.4552 -0.8904 -0.0000
vn -0.8904 -0.4552 -0.0000
vn -0.9878 -0.1560 -0.0000
vn -0.9878 0.1560 -0.0000
vn -0.8904 0.4552 -0.0000
vn -0.4552 0.8904 -0.0000
vn -0.1560 0.9878 -0.0000
vn 0.1560 0.9878 -0.0000
vn 0.4552 0.8904 -0.0000
vn 0.8904 0.4552 -0.0000
vn 0.9878 0.1560 -0.0000
vn 0.9878 -0.1560 -0.0000
vn 0.8904 -0.4552 -0.0000
vn 0.4552 -0.8904 -0.0000
vn 0.1560 -0.9878 -0.0000
vn -0.3658 -0.2818 -0.8870
vn -0.2818 -0.8870 -0.3658
vn -0.8870 -0.3658 -0.2818
vn -0.4835 -0.8551 0.1874
vn -0.4343 0.2434 0.8672
vn -0.9482 -0.0624 0.3114
vn -0.5757 0.2714 -0.7713
vn -0.9748 0.1488 -0.1661
vn -0.5620 0.5755 0.5942
vn 0.2818 -0.3658 -0.8870
vn 0.8870 -0.2818 -0.3658
vn 0.3658 -0.8870 -0.2818
vn 0.4825 0.3274 0.8124
vn 0.4351 -0.8530 0.2881
vn 0.9482 -0.2222 0.2269
vn 0.5619 0.1428 -0.8148
vn 0.5762 0.6601 0.4819
vn 0.9746 0.2169 0.0548
vn -0.9245 -0.0000 -0.3813
vn -0.3813 -0.0000 -0.9245
vn -0.3813 -0.9245 0.0012
vn -0.9245 -0.3813 -0.0000
vn -0.4197 0.5108 0.7503
vn -0.9172 0.2245 0.3293
vn 0.3813 -0.0000 -0.9245
vn 0.9245 -0.0000 -0.3813
vn 0.9172 0.2242 0.3293
vn 0.4195 0.5114 0.7500
vn 0.9245 -0.3813 0.0005
vn 0.3813 -0.9245 -0.0000
vn -0.0000 -0.3813 -0.9245
vn -0.0000 -0.9245 -0.3813
vn -0.0000 -0.9474 0.3200
vn -0.0000 0.2702 0.9628
vn -0.0000 0.8077 0.5896
vn -0.0000 0.3320 -0.9433
vn -0.0000 0.5633 0.8262
vn -0.9748 0.1488 -0.1662
vn 0.1303 -0.0000 -0.9915
vn 0.3830 -0.0000 -0.9238
vn 0.6083 -0.0000 -0.7937
vn 0.7937 -0.0000 -0.6083
vn 0.9238 -0.0000 -0.3830
vn 0.9915 -0.0000 -0.1303
vn 0.9915 -0.0000 0.1303
vn 0.9238 -0.0000 0.3830
vn 0.7937 -0.0000 0.6083
vn 0.6083 -0.0000 0.7937
vn 0.3830 -0.0000 0.9238
vn 0.1303 -0.0000 0.9915
vn -0.1303 -0.0000 0.9915
vn -0.3830 -0.0000 0.9238
vn -0.6083 -0.0000 0.7937
vn -0.7937 -0.0000 0.6083
vn -0.9238 -0.0000 0.3830
vn -0.9915 -0.0000 0.1303
vn -0.9915 -0.0000 -0.1303
vn -0.9238 -0.0000 -0.3830
vn -0.7937 -0.0000 -0.6083
vn -0.6083 -0.0000 -0.7937
vn -0.3830 -0.0000 -0.9238
vn -0.1303 -0.0000 -0.9915
vn -0.1569 -0.0000 0.9876
vn -0.4534 -0.0000 0.8913
vn -0.8913 -0.0000 0.4534
vn -0.9876 -0.0000 0.1569
vn -0.9876 -0.0000 -0.1569
vn -0.8913 -0.0000 -0.4534
vn -0.4534 -0.0000 -0.8913
vn -0.1569 -0.0000 -0.9876
vn 0.1569 -0.0000 -0.9876
vn 0.4534 -0.0000 -0.8913
vn 0.8913 -0.0000 -0.4534
vn 0.9876 -0.0000 -0.1569
vn 0.9876 -0.0000 0.1569
vn 0.8913 -0.0000 0.4534
vn 0.4534 -0.0000 0.8913
vn 0.1569 -0.0000 0.9876
vn 0.1303 0.9915 -0.0000
vn 0.3830 0.9238 -0.0000
vn 0.6083 0.7937 -0.0000
vn 0.7937 0.6083 -0.0000
vn 0.9238 0.3830 -0.0000
vn 0.9915 0.1303 -0.0000
vn 0.9915 -0.1303 -0.0000
vn 0.9238 -0.3830 -0.0000
vn 0.7937 -0.6083 -0.0000
vn 0.6083 -0.7937 -0.0000
vn 0.3830 -0.9238 -0.0000
vn 0.1303 -0.9915 -0.0000
vn -0.1303 -0.9915 -0.0000
vn -0.3830 -0.9238 -0.0000
vn -0.6083 -0.7937 -0.0000
vn -0.7937 -0.6083 -0.0000
vn -0.9238 -0.3830 -0.0000
vn -0.9915 -0.1303 -0.0000
vn -0.9915 0.1303 -0.0000
vn -0.9238 0.3830 -0.0000
vn -0.7937 0.6083 -0.0000
vn -0.6083 0.7937 -0.0000
vn -0.3830 0.9238 -0.0000
vn -0.1303 0.9915 -0.0000
vn -0.1569 -0.9876 -0.0000
vn -0.4534 -0.8913 -0.0000
vn -0.8913 -0.4534 -0.0000
vn -0.9876 -0.1569 -0.0000
vn -0.9876 0.1569 -0.0000
vn -0.8913 0.4534 -0.0000
vn -0.4534 0.8913 -0.0000
vn -0.1569 0.9876 -0.0000
vn 0.1569 0.9876 -0.0000
vn 0.4534 0.8913 -0.0000
vn 0.8913 0.4534 -0.0000
vn 0.9876 0.1569 -0.0000
vn 0.9876 -0.1569 -0.0000
vn 0.8913 -0.4534 -0.0000
vn 0.4534 -0.8913 -0.0000
vn 0.1569 -0.9876 -0.0000
vn -0.2645 -0.9318 0.2485
vn -0.2485 -0.2645 0.9318
vn -0.9318 -0.2485 0.2645
vn -0.2645 0.2485 0.9318
vn -0.2485 0.9318 0.2645
vn -0.9318 0.2645 0.2485
vn -0.2485 -0.9318 -0.2645
vn -0.9318 -0.2645 -0.2485
vn -0.2645 -0.2485 -0.9318
vn -0.2645 0.9318 -0.2485
vn -0.2485 0.2645 -0.9318
vn -0.9318 0.2485 -0.2645
vn 0.2485 -0.9318 0.2645
vn 0.9318 -0.2645 0.2485
vn 0.2645 -0.2485 0.9318
vn 0.2645 0.9318 0.2485
vn 0.2485 0.2645 0.9318
vn 0.9318 0.2485 0.2645
vn 0.2645 -0.9318 -0.2485
vn 0.2485 -0.2645 -0.9318
vn 0.9318 -0.2485 -0.2645
vn 0.2485 0.9318 -0.2645
vn 0.9318 0.2645 -0.2485
vn 0.2645 0.2485 -0.9318
vn -0.2818 -0.3658 -0.8870
vn -0.3658 -0.8870 -0.2818
vn -0.8870 -0.2818 -0.3658
vn -0.4351 -0.8530 0.2881
vn -0.4825 0.3274 0.8124
vn -0.9482 -0.2222 0.2269
vn -0.5619 0.1428 -0.8148
vn -0.9746 0.2169 0.0548
vn -0.5762 0.6601 0.4819
vn 0.3658 -0.2818 -0.8870
vn 0.8870 -0.3658 -0.2818
vn 0.2818 -0.8870 -0.3658
vn 0.4343 0.2434 0.8672
vn 0.4835 -0.8551 0.1874
vn 0.9482 -0.0624 0.3114
vn 0.5757 0.2714 -0.7713
vn 0.5620 0.5755 0.5942
vn 0.9748 0.1488 -0.1662
vn -0.4204 -0.9074 -0.0000
vn -0.9173 -0.3982 0.0005
vn -0.3841 0.5201 0.7629
vn -0.9240 0.2152 0.3161
vn 0.9241 0.2153 0.3157
vn 0.3833 0.5198 0.7635
vn 0.9172 -0.3985 -0.0000
vn 0.4208 -0.9071 0.0012
vn 0.9748 0.1488 -0.1661
vn -0.3841 0.5201 0.7628
s 0
usemtl BracketMetal
f 1//1 6//1 5//1
f 4//2 9//2 6//2
f 2//3 9//3 8//3
f 7//4 12//4 9//4
f 3//5 12//5 11//5
f 10//6 6//6 12//6
f 6//7 9//7 12//7
f 13//8 18//8 17//8
f 16//9 21//9 18//9
f 14//10 21//10 20//10
f 19//11 24//11 21//11
f 15//12 24//12 23//12
f 22//13 18//13 24//13
f 18//14 21//14 24//14
f 25//15 30//15 29//15
f 28//16 33//16 30//16
f 26//17 33//17 32//17
f 31//18 36//18 33//18
f 27//19 36//19 35//19
f 34//20 30//20 36//20
f 30//21 33//21 36//21
f 37//22 42//22 41//22
f 40//23 45//23 42//23
f 38//24 45//24 44//24
f 43//25 48//25 45//25
f 39//26 48//26 47//26
f 46//27 42//27 48//27
f 42//28 45//28 48//28
f 49//29 54//29 53//29
f 52//30 57//30 54//30
f 50//31 57//31 56//31
f 55//32 60//32 57//32
f 51//33 60//33 59//33
f 58//34 54//34 60//34
f 54//35 57//35 60//35
f 61//36 66//36 65//36
f 64//37 69//37 66//37
f 62//38 69//38 68//38
f 67//39 72//39 69//39
f 63//40 72//40 71//40
f 70//41 66//41 72//41
f 66//42 69//42 72//42
f 73//43 78//43 77//43
f 76//44 81//44 78//44
f 74//45 81//45 80//45
f 79//46 84//46 81//46
f 75//47 84//47 83//47
f 82//48 78//48 84//48
f 78//49 81//49 84//49
f 85//50 90//50 89//50
f 88//51 93//51 90//51
f 86//52 93//52 92//52
f 91//53 96//53 93//53
f 87//54 96//54 95//54
f 94//55 90//55 96//55
f 90//56 93//56 96//56
f 25//57 5//57 28//57
f 28//58 10//58 32//58
f 32//59 3//59 26//59
f 2//60 17//60 7//60
f 7//61 22//61 11//61
f 11//62 15//62 3//62
f 14//63 41//63 19//63
f 19//64 46//64 23//64
f 23//65 39//65 15//65
f 38//66 35//66 43//66
f 43//67 31//67 47//67
f 47//68 26//68 39//68
f 73//69 29//69 76//69
f 76//70 34//70 80//70
f 80//71 27//71 74//71
f 37//72 89//72 40//72
f 40//73 94//73 44//73
f 44//74 87//74 38//74
f 86//75 83//75 91//75
f 91//76 79//76 95//76
f 95//77 74//77 87//77
f 49//78 77//78 52//78
f 52//79 82//79 56//79
f 56//80 75//80 50//80
f 85//81 65//81 88//81
f 88//82 70//82 92//82
f 92//83 63//83 86//83
f 62//84 59//84 67//84
f 67//85 55//85 71//85
f 71//86 50//86 63//86
f 1//87 53//87 4//87
f 4//88 58//88 8//88
f 8//89 51//89 2//89
f 61//90 20//90 64//90
f 64//91 16//91 68//91
f 68//92 13//92 62//92
f 190//93 105//93 103//93
f 220//93 178//93 177//93
f 154//93 115//93 187//93
f 1//93 116//93 151//93
f 1//93 25//93 107//93
f 3//94 39//94 26//94
f 51//95 13//95 2//95
f 198//96 130//96 175//96
f 202//96 199//96 238//96
f 37//96 201//96 205//96
f 14//96 169//96 171//96
f 14//96 119//96 117//96
f 27//97 87//97 74//97
f 75//98 63//98 50//98
f 136//99 100//99 128//99
f 128//100 99//100 134//100
f 134//61 106//61 129//61
f 106//101 132//101 129//101
f 104//102 130//102 132//102
f 103//103 131//103 130//103
f 105//104 133//104 131//104
f 102//67 126//67 133//67
f 115//105 127//105 126//105
f 114//106 135//106 127//106
f 116//107 121//107 135//107
f 113//108 123//108 121//108
f 112//76 118//76 123//76
f 118//109 107//109 119//109
f 119//110 108//110 117//110
f 117//111 111//111 120//111
f 120//112 109//112 125//112
f 125//85 97//85 124//85
f 124//113 98//113 122//113
f 122//114 101//114 136//114
f 257//1 262//1 261//1
f 260//2 265//2 262//2
f 258//3 265//3 264//3
f 263//4 268//4 265//4
f 259//5 268//5 267//5
f 266//6 262//6 268//6
f 262//115 265//115 268//115
f 269//8 274//8 273//8
f 272//9 277//9 274//9
f 270//10 277//10 276//10
f 275//11 280//11 277//11
f 271//12 280//12 279//12
f 278//13 274//13 280//13
f 274//116 277//116 280//116
f 37//15 285//15 284//15
f 283//16 288//16 285//16
f 281//17 288//17 287//17
f 286//18 291//18 288//18
f 282//19 291//19 290//19
f 289//20 285//20 291//20
f 285//21 288//21 291//21
f 292//22 297//22 296//22
f 295//23 300//23 297//23
f 293//24 300//24 299//24
f 298//25 303//25 300//25
f 294//26 303//26 302//26
f 301//27 297//27 303//27
f 297//117 300//117 303//117
f 304//29 309//29 308//29
f 307//30 312//30 309//30
f 305//31 312//31 311//31
f 310//32 315//32 312//32
f 306//33 315//33 314//33
f 313//34 309//34 315//34
f 309//118 312//118 315//118
f 316//36 321//36 320//36
f 319//37 324//37 321//37
f 317//38 324//38 323//38
f 322//39 327//39 324//39
f 318//40 327//40 326//40
f 325//41 321//41 327//41
f 321//119 324//119 327//119
f 85//43 332//43 331//43
f 330//44 335//44 332//44
f 328//45 335//45 334//45
f 333//46 338//46 335//46
f 329//47 338//47 337//47
f 336//48 332//48 338//48
f 332//49 335//49 338//49
f 339//50 344//50 343//50
f 342//51 347//51 344//51
f 340//52 347//52 346//52
f 345//53 350//53 347//53
f 341//54 350//54 349//54
f 348//55 344//55 350//55
f 344//120 347//120 350//120
f 37//57 261//57 283//57
f 283//58 266//58 287//58
f 287//59 259//59 281//59
f 258//60 273//60 263//60
f 263//61 278//61 267//61
f 267//62 271//62 259//62
f 270//121 296//121 275//121
f 275//64 301//64 279//64
f 279//65 294//65 271//65
f 293//66 290//66 298//66
f 298//67 286//67 302//67
f 302//68 281//68 294//68
f 85//69 284//69 330//69
f 330//70 289//70 334//70
f 334//71 282//71 328//71
f 292//72 343//72 295//72
f 295//73 348//73 299//73
f 299//74 341//74 293//74
f 340//75 337//75 345//75
f 345//76 333//76 349//76
f 349//77 328//77 341//77
f 304//78 331//78 307//78
f 307//79 336//79 311//79
f 311//80 329//80 305//80
f 339//122 320//122 342//122
f 342//82 325//82 346//82
f 346//83 318//83 340//83
f 317//84 314//84 322//84
f 322//85 310//85 326//85
f 326//86 305//86 318//86
f 257//87 308//87 260//87
f 260//88 313//88 264//88
f 264//89 306//89 258//89
f 316//90 276//90 319//90
f 319//91 272//91 323//91
f 323//92 269//92 317//92
f 37//93 304//93 257//93
f 259//94 294//94 281//94
f 317//95 269//95 370//95
f 436//95 482//95 489//95
f 306//95 445//95 444//95
f 369//95 258//95 405//95
f 269//95 258//95 353//95
f 339//96 270//96 316//96
f 282//97 374//97 371//97
f 341//97 328//97 467//97
f 328//97 506//97 507//97
f 390//97 293//97 469//97
f 282//97 375//97 419//97
f 329//98 318//98 305//98
f 362//123 390//123 382//123
f 368//124 382//124 380//124
f 363//58 380//58 387//58
f 363//125 386//125 366//125
f 366//126 384//126 364//126
f 364//127 385//127 365//127
f 365//128 383//128 367//128
f 367//64 388//64 360//64
f 381//129 360//129 388//129
f 389//130 361//130 381//130
f 375//131 369//131 389//131
f 377//132 355//132 375//132
f 352//82 377//82 372//82
f 353//133 372//133 373//133
f 351//134 373//134 371//134
f 354//135 371//135 374//135
f 359//136 374//136 379//136
f 358//79 379//79 378//79
f 356//137 378//137 376//137
f 370//138 376//138 390//138
f 511//155 515//155 517//155
f 512//156 515//156 514//156
f 513//157 515//157 516//157
f 518//158 522//158 524//158
f 519//159 522//159 521//159
f 520//160 522//160 523//160
f 525//161 529//161 531//161
f 526//162 529//162 528//162
f 527//163 529//163 530//163
f 532//164 536//164 538//164
f 533//165 536//165 535//165
f 534//166 536//166 537//166
f 539//167 543//167 545//167
f 540//168 543//168 542//168
f 541//169 543//169 544//169
f 546//170 550//170 552//170
f 547//171 550//171 549//171
f 548//172 550//172 551//172
f 513//173 528//173 517//173
f 517//174 525//174 511//174
f 512//175 524//175 516//175
f 516//176 520//176 513//176
f 519//177 530//177 523//177
f 523//178 526//178 520//178
f 532//179 552//179 535//179
f 535//180 548//180 533//180
f 541//181 551//181 545//181
f 545//182 547//182 539//182
f 533//183 544//183 537//183
f 537//184 540//184 534//184
f 511//185 538//185 514//185
f 514//186 534//186 512//186
f 518//187 542//187 521//187
f 521//188 539//188 519//188
f 527//189 549//189 531//189
f 531//190 546//190 525//190
f 525//97 532//97 511//97
f 513//94 520//94 526//94
f 512//93 540//93 518//93
f 519//191 547//191 527//191
f 548//98 541//98 533//98
f 553//155 557//155 559//155
f 554//156 557//156 556//156
f 555//157 557//157 558//157
f 560//158 564//158 566//158
f 561//159 564//159 563//159
f 562//160 564//160 565//160
f 567//161 571//161 573//161
f 568//192 571//192 570//192
f 569//163 571//163 572//163
f 574//164 578//164 580//164
f 575//165 578//165 577//165
f 576//166 578//166 579//166
f 581//167 585//167 587//167
f 582//168 585//168 584//168
f 583//169 585//169 586//169
f 588//170 592//170 594//170
f 589//171 592//171 591//171
f 590//172 592//172 593//172
f 555//173 570//173 559//173
f 559//174 567//174 553//174
f 554//175 566//175 558//175
f 558//176 562//176 555//176
f 561//177 572//177 565//177
f 565//178 568//178 562//178
f 574//179 594//179 577//179
f 577//180 590//180 575//180
f 583//181 593//181 587//181
f 587//182 589//182 581//182
f 575//183 586//183 579//183
f 579//184 582//184 576//184
f 553//185 580//185 556//185
f 556//186 576//186 554//186
f 560//187 584//187 563//187
f 563//188 581//188 561//188
f 569//189 591//189 573//189
f 573//190 588//190 567//190
f 567//97 574//97 553//97
f 555//94 562//94 568//94
f 554//93 582//93 560//93
f 561//191 589//191 569//191
f 590//98 583//98 575//98
f 1//273 4//273 6//273
f 4//2 8//2 9//2
f 2//274 7//274 9//274
f 7//4 11//4 12//4
f 3//275 10//275 12//275
f 10//6 5//6 6//6
f 13//276 16//276 18//276
f 16//9 20//9 21//9
f 14//277 19//277 21//277
f 19//11 23//11 24//11
f 15//278 22//278 24//278
f 22//13 17//13 18//13
f 25//279 28//279 30//279
f 28//16 32//16 33//16
f 26//280 31//280 33//280
f 31//18 35//18 36//18
f 27//281 34//281 36//281
f 34//20 29//20 30//20
f 37//282 40//282 42//282
f 40//23 44//23 45//23
f 38//283 43//283 45//283
f 43//25 47//25 48//25
f 39//284 46//284 48//284
f 46//27 41//27 42//27
f 49//285 52//285 54//285
f 52//30 56//30 57//30
f 50//286 55//286 57//286
f 55//32 59//32 60//32
f 51//287 58//287 60//287
f 58//34 53//34 54//34
f 61//288 64//288 66//288
f 64//37 68//37 69//37
f 62//289 67//289 69//289
f 67//39 71//39 72//39
f 63//290 70//290 72//290
f 70//41 65//41 66//41
f 73//291 76//291 78//291
f 76//44 80//44 81//44
f 74//292 79//292 81//292
f 79//46 83//46 84//46
f 75//293 82//293 84//293
f 82//48 77//48 78//48
f 85//294 88//294 90//294
f 88//51 92//51 93//51
f 86//295 91//295 93//295
f 91//53 95//53 96//53
f 87//296 94//296 96//296
f 94//55 89//55 90//55
f 25//57 1//57 5//57
f 28//58 5//58 10//58
f 32//59 10//59 3//59
f 2//60 13//60 17//60
f 7//61 17//61 22//61
f 11//62 22//62 15//62
f 14//63 37//63 41//63
f 19//64 41//64 46//64
f 23//65 46//65 39//65
f 38//66 27//66 35//66
f 43//67 35//67 31//67
f 47//68 31//68 26//68
f 73//69 25//69 29//69
f 76//70 29//70 34//70
f 80//71 34//71 27//71
f 37//72 85//72 89//72
f 40//73 89//73 94//73
f 44//74 94//74 87//74
f 86//75 75//75 83//75
f 91//76 83//76 79//76
f 95//77 79//77 74//77
f 49//78 73//78 77//78
f 52//79 77//79 82//79
f 56//80 82//80 75//80
f 85//81 61//81 65//81
f 88//82 65//82 70//82
f 92//83 70//83 63//83
f 62//84 51//84 59//84
f 67//85 59//85 55//85
f 71//86 55//86 50//86
f 1//87 49//87 53//87
f 4//88 53//88 58//88
f 8//89 58//89 51//89
f 61//90 14//90 20//90
f 64//91 20//91 16//91
f 68//92 16//92 13//92
f 97//93 109//93 25//93
f 73//93 186//93 195//93
f 73//93 195//93 194//93
f 98//93 97//93 25//93
f 101//93 98//93 25//93
f 73//93 194//93 196//93
f 73//93 196//93 193//93
f 101//93 25//93 73//93
f 100//93 101//93 73//93
f 73//93 193//93 192//93
f 100//93 73//93 192//93
f 99//93 100//93 192//93
f 99//93 192//93 191//93
f 106//93 99//93 191//93
f 190//93 188//93 115//93
f 106//93 191//93 190//93
f 104//93 106//93 190//93
f 190//93 115//93 102//93
f 190//93 102//93 105//93
f 103//93 104//93 190//93
f 183//93 186//93 73//93
f 49//93 226//93 224//93
f 49//93 224//93 223//93
f 183//93 73//93 49//93
f 182//93 183//93 49//93
f 49//93 223//93 225//93
f 49//93 225//93 222//93
f 184//93 182//93 49//93
f 181//93 184//93 49//93
f 181//93 49//93 222//93
f 185//93 181//93 222//93
f 185//93 222//93 227//93
f 180//93 185//93 227//93
f 220//93 221//93 187//93
f 180//93 227//93 220//93
f 179//93 180//93 220//93
f 220//93 187//93 189//93
f 220//93 189//93 178//93
f 177//93 179//93 220//93
f 235//93 226//93 49//93
f 1//93 150//93 138//93
f 1//93 138//93 137//93
f 234//93 235//93 49//93
f 236//93 234//93 49//93
f 1//93 137//93 139//93
f 1//93 139//93 140//93
f 236//93 49//93 1//93
f 233//93 236//93 1//93
f 1//93 140//93 146//93
f 233//93 1//93 146//93
f 232//93 233//93 146//93
f 232//93 146//93 141//93
f 229//93 232//93 141//93
f 229//93 141//93 144//93
f 230//93 229//93 144//93
f 230//93 144//93 143//93
f 228//93 230//93 143//93
f 228//93 143//93 145//93
f 231//93 228//93 145//93
f 231//93 145//93 142//93
f 217//93 231//93 142//93
f 217//93 142//93 155//93
f 218//93 217//93 155//93
f 154//93 152//93 114//93
f 218//93 155//93 154//93
f 187//93 221//93 219//93
f 219//93 218//93 154//93
f 154//93 114//93 115//93
f 115//93 188//93 187//93
f 187//93 219//93 154//93
f 148//93 150//93 1//93
f 1//93 113//93 116//93
f 116//93 114//93 152//93
f 116//93 152//93 153//93
f 147//93 148//93 1//93
f 149//93 147//93 1//93
f 116//93 153//93 156//93
f 151//93 149//93 1//93
f 116//93 156//93 151//93
f 112//93 113//93 1//93
f 25//93 109//93 111//93
f 25//93 111//93 108//93
f 110//93 112//93 1//93
f 25//93 108//93 107//93
f 107//93 110//93 1//93
f 3//94 15//94 39//94
f 51//95 62//95 13//95
f 157//96 170//96 14//96
f 61//96 256//96 253//96
f 61//96 253//96 252//96
f 158//96 157//96 14//96
f 161//96 158//96 14//96
f 61//96 252//96 250//96
f 61//96 250//96 251//96
f 161//96 14//96 61//96
f 160//96 161//96 61//96
f 61//96 251//96 254//96
f 160//96 61//96 254//96
f 159//96 160//96 254//96
f 159//96 254//96 248//96
f 165//96 159//96 248//96
f 165//96 248//96 246//96
f 166//96 165//96 246//96
f 166//96 246//96 247//96
f 163//96 166//96 247//96
f 163//96 247//96 249//96
f 164//96 163//96 249//96
f 164//96 249//96 255//96
f 162//96 164//96 255//96
f 162//96 255//96 237//96
f 174//96 162//96 237//96
f 240//96 239//96 197//96
f 174//96 237//96 240//96
f 126//96 172//96 175//96
f 175//96 174//96 240//96
f 240//96 197//96 198//96
f 198//96 134//96 129//96
f 198//96 129//96 132//96
f 175//96 240//96 198//96
f 133//96 126//96 175//96
f 131//96 133//96 175//96
f 198//96 132//96 130//96
f 130//96 131//96 175//96
f 85//96 214//96 211//96
f 85//96 211//96 210//96
f 243//96 256//96 61//96
f 242//96 243//96 61//96
f 61//96 85//96 210//96
f 61//96 210//96 213//96
f 244//96 242//96 61//96
f 241//96 244//96 61//96
f 61//96 213//96 212//96
f 61//96 212//96 206//96
f 241//96 61//96 206//96
f 241//96 206//96 208//96
f 245//96 241//96 208//96
f 245//96 208//96 216//96
f 197//96 239//96 238//96
f 238//96 245//96 216//96
f 238//96 216//96 204//96
f 199//96 197//96 238//96
f 238//96 204//96 202//96
f 207//96 214//96 85//96
f 37//96 125//96 124//96
f 37//96 124//96 122//96
f 209//96 207//96 85//96
f 215//96 209//96 85//96
f 37//96 122//96 136//96
f 128//96 134//96 198//96
f 37//96 136//96 128//96
f 215//96 85//96 37//96
f 203//96 215//96 37//96
f 37//96 128//96 198//96
f 37//96 198//96 200//96
f 205//96 203//96 37//96
f 37//96 200//96 201//96
f 173//96 172//96 126//96
f 173//96 126//96 127//96
f 176//96 173//96 127//96
f 135//96 121//96 14//96
f 176//96 127//96 135//96
f 171//96 176//96 135//96
f 14//96 170//96 168//96
f 14//96 168//96 167//96
f 171//96 135//96 14//96
f 14//96 167//96 169//96
f 120//96 125//96 37//96
f 14//96 121//96 123//96
f 14//96 123//96 118//96
f 120//96 37//96 14//96
f 117//96 120//96 14//96
f 14//96 118//96 119//96
f 27//97 38//97 87//97
f 75//98 86//98 63//98
f 136//99 101//99 100//99
f 128//100 100//100 99//100
f 134//61 99//61 106//61
f 106//101 104//101 132//101
f 104//102 103//102 130//102
f 103//103 105//103 131//103
f 105//104 102//104 133//104
f 102//67 115//67 126//67
f 115//105 114//105 127//105
f 114//106 116//106 135//106
f 116//107 113//107 121//107
f 113//108 112//108 123//108
f 112//76 110//76 118//76
f 118//109 110//109 107//109
f 119//110 107//110 108//110
f 117//111 108//111 111//111
f 120//112 111//112 109//112
f 125//85 109//85 97//85
f 124//113 97//113 98//113
f 122//114 98//114 101//114
f 257//273 260//273 262//273
f 260//2 264//2 265//2
f 258//274 263//274 265//274
f 263//4 267//4 268//4
f 259//275 266//275 268//275
f 266//6 261//6 262//6
f 269//276 272//276 274//276
f 272//9 276//9 277//9
f 270//277 275//277 277//277
f 275//11 279//11 280//11
f 271//278 278//278 280//278
f 278//13 273//13 274//13
f 37//279 283//279 285//279
f 283//16 287//16 288//16
f 281//280 286//280 288//280
f 286//18 290//18 291//18
f 282//281 289//281 291//281
f 289//20 284//20 285//20
f 292//282 295//282 297//282
f 295//23 299//23 300//23
f 293//283 298//283 300//283
f 298//25 302//25 303//25
f 294//284 301//284 303//284
f 301//27 296//27 297//27
f 304//285 307//285 309//285
f 307//30 311//30 312//30
f 305//286 310//286 312//286
f 310//32 314//32 315//32
f 306//287 313//287 315//287
f 313//34 308//34 309//34
f 316//288 319//288 321//288
f 319//37 323//37 324//37
f 317//289 322//289 324//289
f 322//39 326//39 327//39
f 318//290 325//290 327//290
f 325//41 320//41 321//41
f 85//291 330//291 332//291
f 330//44 334//44 335//44
f 328//292 333//292 335//292
f 333//46 337//46 338//46
f 329//293 336//293 338//293
f 336//48 331//48 332//48
f 339//294 342//294 344//294
f 342//51 346//51 347//51
f 340//295 345//295 347//295
f 345//53 349//53 350//53
f 341//296 348//296 350//296
f 348//55 343//55 344//55
f 37//57 257//57 261//57
f 283//58 261//58 266//58
f 287//59 266//59 259//59
f 258//60 269//60 273//60
f 263//61 273//61 278//61
f 267//62 278//62 271//62
f 270//63 292//63 296//63
f 275//64 296//64 301//64
f 279//65 301//65 294//65
f 293//66 282//66 290//66
f 298//67 290//67 286//67
f 302//68 286//68 281//68
f 85//69 37//69 284//69
f 330//70 284//70 289//70
f 334//71 289//71 282//71
f 292//72 339//72 343//72
f 295//73 343//73 348//73
f 299//74 348//74 341//74
f 340//75 329//75 337//75
f 345//76 337//76 333//76
f 349//77 333//77 328//77
f 304//78 85//78 331//78
f 307//79 331//79 336//79
f 311//80 336//80 329//80
f 339//81 316//81 320//81
f 342//82 320//82 325//82
f 346//83 325//83 318//83
f 317//84 306//84 314//84
f 322//85 314//85 310//85
f 326//86 310//86 305//86
f 257//87 304//87 308//87
f 260//88 308//88 313//88
f 264//89 313//89 306//89
f 316//90 270//90 276//90
f 319//91 276//91 272//91
f 323//92 272//92 269//92
f 37//93 85//93 304//93
f 259//94 271//94 294//94
f 391//95 392//95 258//95
f 306//95 487//95 480//95
f 306//95 480//95 481//95
f 395//95 391//95 258//95
f 394//95 395//95 258//95
f 306//95 481//95 488//95
f 306//95 488//95 475//95
f 394//95 258//95 306//95
f 393//95 394//95 306//95
f 393//95 306//95 475//95
f 401//95 393//95 475//95
f 401//95 475//95 477//95
f 396//95 401//95 477//95
f 396//95 477//95 472//95
f 399//95 396//95 472//95
f 399//95 472//95 473//95
f 398//95 399//95 473//95
f 398//95 473//95 471//95
f 400//95 398//95 471//95
f 400//95 471//95 474//95
f 397//95 400//95 474//95
f 397//95 474//95 479//95
f 360//95 409//95 408//95
f 408//95 397//95 479//95
f 478//95 476//95 433//95
f 408//95 479//95 478//95
f 367//95 360//95 408//95
f 365//95 367//95 408//95
f 408//95 478//95 433//95
f 408//95 433//95 431//95
f 365//95 408//95 431//95
f 365//95 431//95 432//95
f 364//95 365//95 432//95
f 364//95 432//95 434//95
f 366//95 364//95 434//95
f 366//95 434//95 435//95
f 363//95 366//95 435//95
f 363//95 435//95 439//95
f 368//95 363//95 439//95
f 368//95 439//95 437//95
f 362//95 368//95 437//95
f 362//95 437//95 449//95
f 370//95 362//95 449//95
f 443//95 441//95 317//95
f 449//95 443//95 317//95
f 269//95 358//95 356//95
f 370//95 449//95 317//95
f 269//95 356//95 370//95
f 485//95 487//95 306//95
f 306//95 442//95 450//95
f 306//95 450//95 438//95
f 484//95 485//95 306//95
f 486//95 484//95 306//95
f 306//95 438//95 436//95
f 436//95 433//95 476//95
f 436//95 476//95 490//95
f 486//95 306//95 436//95
f 483//95 486//95 436//95
f 436//95 490//95 482//95
f 489//95 483//95 436//95
f 440//95 442//95 306//95
f 317//95 441//95 448//95
f 317//95 448//95 445//95
f 446//95 440//95 306//95
f 447//95 446//95 306//95
f 306//95 317//95 445//95
f 444//95 447//95 306//95
f 406//95 409//95 360//95
f 406//95 360//95 361//95
f 407//95 406//95 361//95
f 369//95 355//95 258//95
f 407//95 361//95 369//95
f 410//95 407//95 369//95
f 258//95 392//95 402//95
f 258//95 402//95 403//95
f 404//95 410//95 369//95
f 258//95 403//95 405//95
f 405//95 404//95 369//95
f 359//95 358//95 269//95
f 258//95 355//95 357//95
f 258//95 357//95 352//95
f 354//95 359//95 269//95
f 351//95 354//95 269//95
f 258//95 352//95 353//95
f 353//95 351//95 269//95
f 339//96 292//96 270//96
f 377//97 375//97 282//97
f 293//97 378//97 379//97
f 293//97 379//97 374//97
f 372//97 377//97 282//97
f 373//97 372//97 282//97
f 282//97 293//97 374//97
f 371//97 373//97 282//97
f 468//97 461//97 341//97
f 328//97 462//97 460//97
f 328//97 460//97 466//97
f 465//97 468//97 341//97
f 464//97 465//97 341//97
f 328//97 466//97 467//97
f 467//97 464//97 341//97
f 510//97 496//97 453//97
f 510//97 453//97 458//97
f 502//97 510//97 458//97
f 502//97 458//97 457//97
f 500//97 502//97 457//97
f 470//97 462//97 328//97
f 500//97 457//97 470//97
f 507//97 500//97 470//97
f 328//97 503//97 505//97
f 328//97 505//97 504//97
f 507//97 470//97 328//97
f 328//97 504//97 506//97
f 509//97 503//97 328//97
f 282//97 413//97 418//97
f 282//97 418//97 416//97
f 501//97 509//97 328//97
f 508//97 501//97 328//97
f 282//97 416//97 429//97
f 282//97 429//97 421//97
f 508//97 328//97 282//97
f 495//97 508//97 282//97
f 495//97 282//97 421//97
f 497//97 495//97 421//97
f 497//97 421//97 428//97
f 492//97 497//97 428//97
f 492//97 428//97 423//97
f 493//97 492//97 423//97
f 493//97 423//97 425//97
f 491//97 493//97 425//97
f 491//97 425//97 424//97
f 494//97 491//97 424//97
f 494//97 424//97 426//97
f 499//97 494//97 426//97
f 499//97 426//97 427//97
f 453//97 496//97 498//97
f 498//97 499//97 427//97
f 498//97 427//97 420//97
f 451//97 453//97 498//97
f 451//97 498//97 420//97
f 422//97 430//97 375//97
f 451//97 420//97 422//97
f 452//97 451//97 422//97
f 422//97 375//97 389//97
f 422//97 389//97 381//97
f 454//97 452//97 422//97
f 455//97 454//97 422//97
f 422//97 381//97 388//97
f 422//97 388//97 383//97
f 456//97 455//97 422//97
f 456//97 422//97 383//97
f 456//97 383//97 385//97
f 459//97 456//97 385//97
f 459//97 385//97 384//97
f 459//97 384//97 386//97
f 459//97 386//97 387//97
f 469//97 459//97 387//97
f 469//97 387//97 380//97
f 341//97 461//97 463//97
f 469//97 380//97 382//97
f 341//97 463//97 469//97
f 376//97 378//97 293//97
f 469//97 382//97 390//97
f 390//97 376//97 293//97
f 293//97 341//97 469//97
f 411//97 413//97 282//97
f 375//97 430//97 417//97
f 375//97 417//97 415//97
f 412//97 411//97 282//97
f 414//97 412//97 282//97
f 375//97 415//97 419//97
f 419//97 414//97 282//97
f 329//98 340//98 318//98
f 362//123 370//123 390//123
f 368//124 362//124 382//124
f 363//58 368//58 380//58
f 363//125 387//125 386//125
f 366//126 386//126 384//126
f 364//127 384//127 385//127
f 365//128 385//128 383//128
f 367//64 383//64 388//64
f 381//129 361//129 360//129
f 389//130 369//130 361//130
f 375//131 355//131 369//131
f 377//132 357//132 355//132
f 352//82 357//82 377//82
f 353//133 352//133 372//133
f 351//134 353//134 373//134
f 354//135 351//135 371//135
f 359//136 354//136 374//136
f 358//79 359//79 379//79
f 356//137 358//137 378//137
f 370//138 356//138 376//138
f 511//297 514//297 515//297
f 512//298 516//298 515//298
f 513//299 517//299 515//299
f 518//300 521//300 522//300
f 519//301 523//301 522//301
f 520//302 524//302 522//302
f 525//303 528//303 529//303
f 526//304 530//304 529//304
f 527//305 531//305 529//305
f 532//306 535//306 536//306
f 533//307 537//307 536//307
f 534//308 538//308 536//308
f 539//309 542//309 543//309
f 540//310 544//310 543//310
f 541//311 545//311 543//311
f 546//312 549//312 550//312
f 547//313 551//313 550//313
f 548//314 552//314 550//314
f 513//173 526//173 528//173
f 517//174 528//174 525//174
f 512//315 518//315 524//315
f 516//316 524//316 520//316
f 519//317 527//317 530//317
f 523//318 530//318 526//318
f 532//179 546//179 552//179
f 535//180 552//180 548//180
f 541//319 548//319 551//319
f 545//320 551//320 547//320
f 533//321 541//321 544//321
f 537//322 544//322 540//322
f 511//185 532//185 538//185
f 514//186 538//186 534//186
f 518//187 540//187 542//187
f 521//188 542//188 539//188
f 527//189 547//189 549//189
f 531//190 549//190 546//190
f 525//97 546//97 532//97
f 512//93 534//93 540//93
f 519//191 539//191 547//191
f 553//297 556//297 557//297
f 554//298 558//298 557//298
f 555//299 559//299 557//299
f 560//300 563//300 564//300
f 561//301 565//301 564//301
f 562//302 566//302 564//302
f 567//303 570//303 571//303
f 568//304 572//304 571//304
f 569//305 573//305 571//305
f 574//306 577//306 578//306
f 575//307 579//307 578//307
f 576//308 580//308 578//308
f 581//309 584//309 585//309
f 582//310 586//310 585//310
f 583//311 587//311 585//311
f 588//312 591//312 592//312
f 589//313 593//313 592//313
f 590//323 594//323 592//323
f 555//173 568//173 570//173
f 559//174 570//174 567//174
f 554//315 560//315 566//315
f 558//316 566//316 562//316
f 561//324 569//324 572//324
f 565//318 572//318 568//318
f 574//179 588//179 594//179
f 577//180 594//180 590//180
f 583//319 590//319 593//319
f 587//320 593//320 589//320
f 575//321 583//321 586//321
f 579//322 586//322 582//322
f 553//185 574//185 580//185
f 556//186 580//186 576//186
f 560//187 582//187 584//187
f 563//188 584//188 581//188
f 569//189 589//189 591//189
f 573//190 591//190 588//190
f 567//97 588//97 574//97
f 554//93 576//93 582//93
f 561//191 581//191 589//191
usemtl Temporary_cutter
f 172//99 154//99 175//99
f 175//100 155//100 174//100
f 174//61 142//61 162//61
f 142//101 164//101 162//101
f 145//102 163//102 164//102
f 143//103 166//103 163//103
f 144//104 165//104 166//104
f 141//67 159//67 165//67
f 146//105 160//105 159//105
f 140//106 161//106 160//106
f 139//107 158//107 161//107
f 137//108 157//108 158//108
f 138//76 170//76 157//76
f 170//109 148//109 168//109
f 168//110 147//110 167//110
f 167//111 149//111 169//111
f 169//112 151//112 171//112
f 171//85 156//85 176//85
f 176//113 153//113 173//113
f 173//114 152//114 172//114
f 215//99 194//99 209//99
f 209//100 195//100 207//100
f 207//61 186//61 214//61
f 186//101 211//101 214//101
f 183//102 210//102 211//102
f 182//103 213//103 210//103
f 184//104 212//104 213//104
f 181//67 206//67 212//67
f 185//105 208//105 206//105
f 180//106 216//106 208//106
f 179//107 204//107 216//107
f 177//108 202//108 204//108
f 178//76 199//76 202//76
f 199//109 187//109 197//109
f 197//110 188//110 198//110
f 198//111 190//111 200//111
f 200//112 191//112 201//112
f 201//85 192//85 205//85
f 205//113 193//113 203//113
f 203//114 196//114 215//114
f 239//99 220//99 238//99
f 238//100 227//100 245//100
f 245//61 222//61 241//61
f 222//101 244//101 241//101
f 225//102 242//102 244//102
f 223//103 243//103 242//103
f 224//104 256//104 243//104
f 226//67 253//67 256//67
f 235//105 252//105 253//105
f 234//106 250//106 252//106
f 236//107 251//107 250//107
f 233//108 254//108 251//108
f 232//76 248//76 254//76
f 248//109 230//109 246//109
f 246//110 228//110 247//110
f 247//111 231//111 249//111
f 249//112 217//112 255//112
f 255//85 218//85 237//85
f 237//113 219//113 240//113
f 240//114 221//114 239//114
f 409//139 430//139 422//139
f 408//140 422//140 420//140
f 397//58 420//58 427//58
f 397//141 426//141 400//141
f 400//142 424//142 398//142
f 398//143 425//143 399//143
f 399//144 423//144 396//144
f 428//64 396//64 423//64
f 421//145 401//145 428//145
f 429//146 393//146 421//146
f 416//147 394//147 429//147
f 418//148 395//148 416//148
f 413//82 391//82 418//82
f 402//149 413//149 411//149
f 403//150 411//150 412//150
f 405//151 412//151 414//151
f 404//152 414//152 419//152
f 410//79 419//79 415//79
f 407//153 415//153 417//153
f 406//154 417//154 430//154
f 443//123 469//123 463//123
f 441//124 463//124 461//124
f 448//58 461//58 468//58
f 448//125 465//125 445//125
f 445//126 464//126 444//126
f 444//127 467//127 447//127
f 447//128 466//128 446//128
f 446//64 460//64 440//64
f 462//129 440//129 460//129
f 470//130 442//130 462//130
f 457//131 450//131 470//131
f 458//132 438//132 457//132
f 433//82 458//82 453//82
f 431//133 453//133 451//133
f 432//134 451//134 452//134
f 434//135 452//135 454//135
f 435//136 454//136 455//136
f 439//79 455//79 456//79
f 437//137 456//137 459//137
f 449//138 459//138 469//138
f 482//139 510//139 502//139
f 489//140 502//140 500//140
f 483//58 500//58 507//58
f 483//141 506//141 486//141
f 486//142 504//142 484//142
f 484//143 505//143 485//143
f 485//144 503//144 487//144
f 509//64 487//64 503//64
f 501//145 480//145 509//145
f 508//146 481//146 501//146
f 495//147 488//147 508//147
f 497//148 475//148 495//148
f 492//82 477//82 497//82
f 473//149 492//149 493//149
f 471//150 493//150 491//150
f 474//151 491//151 494//151
f 479//152 494//152 499//152
f 478//79 499//79 498//79
f 476//153 498//153 496//153
f 490//154 496//154 510//154
f 172//99 152//99 154//99
f 175//100 154//100 155//100
f 174//61 155//61 142//61
f 142//101 145//101 164//101
f 145//102 143//102 163//102
f 143//103 144//103 166//103
f 144//104 141//104 165//104
f 141//67 146//67 159//67
f 146//105 140//105 160//105
f 140//106 139//106 161//106
f 139//107 137//107 158//107
f 137//108 138//108 157//108
f 138//76 150//76 170//76
f 170//109 150//109 148//109
f 168//110 148//110 147//110
f 167//111 147//111 149//111
f 169//112 149//112 151//112
f 171//85 151//85 156//85
f 176//113 156//113 153//113
f 173//114 153//114 152//114
f 215//99 196//99 194//99
f 209//100 194//100 195//100
f 207//61 195//61 186//61
f 186//101 183//101 211//101
f 183//102 182//102 210//102
f 182//103 184//103 213//103
f 184//104 181//104 212//104
f 181//67 185//67 206//67
f 185//105 180//105 208//105
f 180//106 179//106 216//106
f 179//107 177//107 204//107
f 177//108 178//108 202//108
f 178//76 189//76 199//76
f 199//109 189//109 187//109
f 197//110 187//110 188//110
f 198//111 188//111 190//111
f 200//112 190//112 191//112
f 201//85 191//85 192//85
f 205//113 192//113 193//113
f 203//114 193//114 196//114
f 239//99 221//99 220//99
f 238//100 220//100 227//100
f 245//61 227//61 222//61
f 222//101 225//101 244//101
f 225//102 223//102 242//102
f 223//103 224//103 243//103
f 224//104 226//104 256//104
f 226//67 235//67 253//67
f 235//105 234//105 252//105
f 234//106 236//106 250//106
f 236//107 233//107 251//107
f 233//108 232//108 254//108
f 232//76 229//76 248//76
f 248//109 229//109 230//109
f 246//110 230//110 228//110
f 247//111 228//111 231//111
f 249//112 231//112 217//112
f 255//85 217//85 218//85
f 237//113 218//113 219//113
f 240//114 219//114 221//114
f 409//139 406//139 430//139
f 408//140 409//140 422//140
f 397//58 408//58 420//58
f 397//141 427//141 426//141
f 400//142 426//142 424//142
f 398//143 424//143 425//143
f 399//144 425//144 423//144
f 428//64 401//64 396//64
f 421//145 393//145 401//145
f 429//146 394//146 393//146
f 416//147 395//147 394//147
f 418//148 391//148 395//148
f 413//82 392//82 391//82
f 402//149 392//149 413//149
f 403//150 402//150 411//150
f 405//151 403//151 412//151
f 404//152 405//152 414//152
f 410//79 404//79 419//79
f 407//153 410//153 415//153
f 406//154 407//154 417//154
f 443//123 449//123 469//123
f 441//124 443//124 463//124
f 448//58 441//58 461//58
f 448//125 468//125 465//125
f 445//126 465//126 464//126
f 444//127 464//127 467//127
f 447//128 467//128 466//128
f 446//64 466//64 460//64
f 462//129 442//129 440//129
f 470//130 450//130 442//130
f 457//131 438//131 450//131
f 458//132 436//132 438//132
f 433//82 436//82 458//82
f 431//133 433//133 453//133
f 432//134 431//134 451//134
f 434//135 432//135 452//135
f 435//136 434//136 454//136
f 439//79 435//79 455//79
f 437//137 439//137 456//137
f 449//138 437//138 459//138
f 482//139 490//139 510//139
f 489//140 482//140 502//140
f 483//58 489//58 500//58
f 483//141 507//141 506//141
f 486//142 506//142 504//142
f 484//143 504//143 505//143
f 485//144 505//144 503//144
f 509//64 480//64 487//64
f 501//145 481//145 480//145
f 508//146 488//146 481//146
f 495//147 475//147 488//147
f 497//148 477//148 475//148
f 492//82 472//82 477//82
f 473//149 472//149 492//149
f 471//150 473//150 493//150
f 474//151 471//151 491//151
f 479//152 474//152 494//152
f 478//79 479//79 499//79
f 476//153 478//153 498//153
f 490//154 476//154 496//154
usemtl ServoBlue
f 595//193 598//193 597//193
f 597//194 600//194 599//194
f 599//195 602//195 601//195
f 601//196 604//196 603//196
f 603//197 606//197 605//197
f 605//198 608//198 607//198
f 607//199 610//199 609//199
f 609//200 612//200 611//200
f 611//201 614//201 613//201
f 613//202 616//202 615//202
f 615//203 618//203 617//203
f 617//204 620//204 619//204
f 619//205 622//205 621//205
f 621//206 624//206 623//206
f 623//207 626//207 625//207
f 625//208 628//208 627//208
f 627//209 630//209 629//209
f 629//210 632//210 631//210
f 631//211 634//211 633//211
f 633//212 636//212 635//212
f 635//213 638//213 637//213
f 637//214 640//214 639//214
f 600//96 640//96 644//96
f 624//96 616//96 650//96
f 639//215 642//215 641//215
f 641//216 596//216 595//216
f 639//93 676//93 674//93
f 617//93 671//93 680//93
f 664//217 644//217 679//217
f 663//218 662//218 664//218
f 666//61 661//61 663//61
f 655//219 666//219 665//219
f 653//220 665//220 681//220
f 654//221 681//221 680//221
f 651//222 680//222 671//222
f 660//67 671//67 669//67
f 659//223 669//223 670//223
f 650//224 670//224 667//224
f 649//225 667//225 668//225
f 647//226 668//226 678//226
f 648//76 678//76 677//76
f 672//227 648//227 677//227
f 673//228 656//228 672//228
f 674//229 657//229 673//229
f 676//230 658//230 674//230
f 675//85 643//85 676//85
f 682//231 646//231 675//231
f 679//232 645//232 682//232
f 683//233 686//233 685//233
f 685//234 688//234 687//234
f 687//235 690//235 689//235
f 689//236 692//236 691//236
f 691//237 694//237 693//237
f 693//238 696//238 695//238
f 695//239 698//239 697//239
f 697//240 700//240 699//240
f 699//241 702//241 701//241
f 701//242 704//242 703//242
f 703//243 706//243 705//243
f 705//244 708//244 707//244
f 707//245 710//245 709//245
f 709//246 712//246 711//246
f 711//247 714//247 713//247
f 713//248 716//248 715//248
f 715//249 718//249 717//249
f 717//250 720//250 719//250
f 719//251 722//251 721//251
f 721//252 724//252 723//252
f 723//253 726//253 725//253
f 725//254 728//254 727//254
f 688//95 728//95 732//95
f 712//95 704//95 738//95
f 727//255 730//255 729//255
f 729//256 684//256 683//256
f 727//97 764//97 762//97
f 705//97 759//97 768//97
f 752//257 732//257 767//257
f 751//258 750//258 752//258
f 754//58 749//58 751//58
f 743//259 754//259 753//259
f 741//260 753//260 769//260
f 742//261 769//261 768//261
f 739//262 768//262 759//262
f 748//64 759//64 757//64
f 747//263 757//263 758//263
f 738//264 758//264 755//264
f 737//265 755//265 756//265
f 735//266 756//266 766//266
f 736//82 766//82 765//82
f 760//267 736//267 765//267
f 761//268 744//268 760//268
f 762//269 745//269 761//269
f 764//270 746//270 762//270
f 763//79 731//79 764//79
f 770//271 734//271 763//271
f 767//272 733//272 770//272
f 595//193 596//193 598//193
f 597//194 598//194 600//194
f 599//195 600//195 602//195
f 601//196 602//196 604//196
f 603//197 604//197 606//197
f 605//198 606//198 608//198
f 607//199 608//199 610//199
f 609//200 610//200 612//200
f 611//201 612//201 614//201
f 613//202 614//202 616//202
f 615//203 616//203 618//203
f 617//204 618//204 620//204
f 619//205 620//205 622//205
f 621//206 622//206 624//206
f 623//207 624//207 626//207
f 625//208 626//208 628//208
f 627//209 628//209 630//209
f 629//210 630//210 632//210
f 631//211 632//211 634//211
f 633//212 634//212 636//212
f 635//213 636//213 638//213
f 637//214 638//214 640//214
f 655//96 653//96 608//96
f 608//96 606//96 604//96
f 604//96 602//96 600//96
f 600//96 598//96 596//96
f 596//96 642//96 640//96
f 640//96 638//96 636//96
f 636//96 634//96 632//96
f 632//96 657//96 658//96
f 632//96 658//96 643//96
f 640//96 636//96 632//96
f 600//96 596//96 640//96
f 608//96 604//96 600//96
f 652//96 655//96 608//96
f 661//96 652//96 608//96
f 640//96 632//96 643//96
f 640//96 643//96 646//96
f 661//96 608//96 600//96
f 662//96 661//96 600//96
f 640//96 646//96 645//96
f 644//96 662//96 600//96
f 640//96 645//96 644//96
f 656//96 657//96 632//96
f 632//96 630//96 628//96
f 628//96 626//96 624//96
f 624//96 622//96 620//96
f 620//96 618//96 616//96
f 616//96 614//96 612//96
f 612//96 610//96 608//96
f 608//96 653//96 654//96
f 608//96 654//96 651//96
f 616//96 612//96 608//96
f 624//96 620//96 616//96
f 632//96 628//96 624//96
f 648//96 656//96 632//96
f 647//96 648//96 632//96
f 616//96 608//96 651//96
f 616//96 651//96 660//96
f 647//96 632//96 624//96
f 649//96 647//96 624//96
f 616//96 660//96 659//96
f 650//96 649//96 624//96
f 616//96 659//96 650//96
f 639//215 640//215 642//215
f 641//216 642//216 596//216
f 674//93 633//93 635//93
f 635//93 637//93 639//93
f 639//93 641//93 682//93
f 639//93 682//93 675//93
f 674//93 635//93 639//93
f 639//93 675//93 676//93
f 679//93 682//93 641//93
f 641//93 595//93 597//93
f 597//93 599//93 601//93
f 601//93 603//93 605//93
f 605//93 607//93 609//93
f 609//93 611//93 613//93
f 613//93 615//93 617//93
f 617//93 619//93 621//93
f 621//93 623//93 625//93
f 625//93 627//93 629//93
f 629//93 631//93 633//93
f 633//93 674//93 673//93
f 633//93 673//93 672//93
f 625//93 629//93 633//93
f 617//93 621//93 625//93
f 609//93 613//93 617//93
f 601//93 605//93 609//93
f 641//93 597//93 601//93
f 664//93 679//93 641//93
f 663//93 664//93 641//93
f 625//93 633//93 672//93
f 625//93 672//93 677//93
f 663//93 641//93 601//93
f 666//93 663//93 601//93
f 625//93 677//93 678//93
f 625//93 678//93 668//93
f 666//93 601//93 609//93
f 665//93 666//93 609//93
f 617//93 625//93 668//93
f 617//93 668//93 667//93
f 681//93 665//93 609//93
f 680//93 681//93 609//93
f 617//93 667//93 670//93
f 617//93 670//93 669//93
f 680//93 609//93 617//93
f 617//93 669//93 671//93
f 664//217 662//217 644//217
f 663//218 661//218 662//218
f 666//61 652//61 661//61
f 655//219 652//219 666//219
f 653//220 655//220 665//220
f 654//221 653//221 681//221
f 651//222 654//222 680//222
f 660//67 651//67 671//67
f 659//223 660//223 669//223
f 650//224 659//224 670//224
f 649//225 650//225 667//225
f 647//226 649//226 668//226
f 648//76 647//76 678//76
f 672//227 656//227 648//227
f 673//228 657//228 656//228
f 674//229 658//229 657//229
f 676//230 643//230 658//230
f 675//85 646//85 643//85
f 682//231 645//231 646//231
f 679//232 644//232 645//232
f 683//233 684//233 686//233
f 685//234 686//234 688//234
f 687//235 688//235 690//235
f 689//236 690//236 692//236
f 691//237 692//237 694//237
f 693//238 694//238 696//238
f 695//239 696//239 698//239
f 697//240 698//240 700//240
f 699//241 700//241 702//241
f 701//242 702//242 704//242
f 703//243 704//243 706//243
f 705//244 706//244 708//244
f 707//245 708//245 710//245
f 709//246 710//246 712//246
f 711//247 712//247 714//247
f 713//248 714//248 716//248
f 715//249 716//249 718//249
f 717//250 718//250 720//250
f 719//251 720//251 722//251
f 721//252 722//252 724//252
f 723//253 724//253 726//253
f 725//254 726//254 728//254
f 743//95 741//95 696//95
f 696//95 694//95 692//95
f 692//95 690//95 688//95
f 688//95 686//95 684//95
f 684//95 730//95 728//95
f 728//95 726//95 724//95
f 724//95 722//95 720//95
f 720//95 745//95 746//95
f 720//95 746//95 731//95
f 728//95 724//95 720//95
f 688//95 684//95 728//95
f 696//95 692//95 688//95
f 740//95 743//95 696//95
f 749//95 740//95 696//95
f 728//95 720//95 731//95
f 728//95 731//95 734//95
f 749//95 696//95 688//95
f 750//95 749//95 688//95
f 728//95 734//95 733//95
f 732//95 750//95 688//95
f 728//95 733//95 732//95
f 744//95 745//95 720//95
f 720//95 718//95 716//95
f 716//95 714//95 712//95
f 712//95 710//95 708//95
f 708//95 706//95 704//95
f 704//95 702//95 700//95
f 700//95 698//95 696//95
f 696//95 741//95 742//95
f 696//95 742//95 739//95
f 704//95 700//95 696//95
f 712//95 708//95 704//95
f 720//95 716//95 712//95
f 736//95 744//95 720//95
f 735//95 736//95 720//95
f 704//95 696//95 739//95
f 704//95 739//95 748//95
f 735//95 720//95 712//95
f 737//95 735//95 712//95
f 704//95 748//95 747//95
f 738//95 737//95 712//95
f 704//95 747//95 738//95
f 727//255 728//255 730//255
f 729//256 730//256 684//256
f 762//97 721//97 723//97
f 723//97 725//97 727//97
f 727//97 729//97 770//97
f 727//97 770//97 763//97
f 762//97 723//97 727//97
f 727//97 763//97 764//97
f 767//97 770//97 729//97
f 729//97 683//97 685//97
f 685//97 687//97 689//97
f 689//97 691//97 693//97
f 693//97 695//97 697//97
f 697//97 699//97 701//97
f 701//97 703//97 705//97
f 705//97 707//97 709//97
f 709//97 711//97 713//97
f 713//97 715//97 717//97
f 717//97 719//97 721//97
f 721//97 762//97 761//97
f 721//97 761//97 760//97
f 713//97 717//97 721//97
f 705//97 709//97 713//97
f 697//97 701//97 705//97
f 689//97 693//97 697//97
f 729//97 685//97 689//97
f 752//97 767//97 729//97
f 751//97 752//97 729//97
f 713//97 721//97 760//97
f 713//97 760//97 765//97
f 751//97 729//97 689//97
f 754//97 751//97 689//97
f 713//97 765//97 766//97
f 713//97 766//97 756//97
f 754//97 689//97 697//97
f 753//97 754//97 697//97
f 705//97 713//97 756//97
f 705//97 756//97 755//97
f 769//97 753//97 697//97
f 768//97 769//97 697//97
f 705//97 755//97 758//97
f 705//97 758//97 757//97
f 768//97 697//97 705//97
f 705//97 757//97 759//97
f 752//257 750//257 732//257
f 751//258 749//258 750//258
f 754//58 740//58 749//58
f 743//259 740//259 754//259
f 741//260 743//260 753//260
f 742//261 741//261 769//261
f 739//262 742//262 768//262
f 748//64 739//64 759//64
f 747//263 748//263 757//263
f 738//264 747//264 758//264
f 737//265 738//265 755//265
f 735//266 737//266 756//266
f 736//82 735//82 766//82
f 760//267 744//267 736//267
f 761//268 745//268 744//268
f 762//269 746//269 745//269
f 764//270 731//270 746//270
f 763//79 734//79 731//79
f 770//271 733//271 734//271
f 767//272 732//272 733//272
