# Blender 4.5.5 LTS
# www.blender.org
mtllib servo.mtl
o servo
v -0.010000 -0.015000 0.004500
v -0.010000 -0.013500 0.006000
v -0.011500 -0.013500 0.004500
v -0.010000 -0.014800 0.005249
v -0.010749 -0.014800 0.004500
v -0.010717 -0.014605 0.005217
v -0.010749 -0.013500 0.005800
v -0.010000 -0.014249 0.005800
v -0.010717 -0.014217 0.005605
v -0.011300 -0.014249 0.004500
v -0.011300 -0.013500 0.005249
v -0.011105 -0.014217 0.005217
v -0.010000 0.013500 0.006000
v -0.010000 0.015000 0.004500
v -0.011500 0.013500 0.004500
v -0.010000 0.014249 0.005800
v -0.010749 0.013500 0.005800
v -0.010717 0.014217 0.005605
v -0.010749 0.014800 0.004500
v -0.010000 0.014800 0.005249
v -0.010717 0.014605 0.005217
v -0.011300 0.013500 0.005249
v -0.011300 0.014249 0.004500
v -0.011105 0.014217 0.005217
v -0.010000 -0.015000 -0.004500
v -0.011500 -0.013500 -0.004500
v -0.010000 -0.013500 -0.006000
v -0.010749 -0.014800 -0.004500
v -0.010000 -0.014800 -0.005249
v -0.010717 -0.014605 -0.005217
v -0.011300 -0.013500 -0.005249
v -0.011300 -0.014249 -0.004500
v -0.011105 -0.014217 -0.005217
v -0.010000 -0.014249 -0.005800
v -0.010749 -0.013500 -0.005800
v -0.010717 -0.014217 -0.005605
v -0.010000 0.015000 -0.004500
v -0.010000 0.013500 -0.006000
v -0.011500 0.013500 -0.004500
v -0.010000 0.014800 -0.005249
v -0.010749 0.014800 -0.004500
v -0.010717 0.014605 -0.005217
v -0.010749 0.013500 -0.005800
v -0.010000 0.014249 -0.005800
v -0.010717 0.014217 -0.005605
v -0.011300 0.014249 -0.004500
v -0.011300 0.013500 -0.005249
v -0.011105 0.014217 -0.005217
v 0.010000 -0.015000 0.004500
v 0.011500 -0.013500 0.004500
v 0.010000 -0.013500 0.006000
v 0.010749 -0.014800 0.004500
v 0.010000 -0.014800 0.005249
v 0.010717 -0.014605 0.005217
v 0.011300 -0.013500 0.005249
v 0.011300 -0.014249 0.004500
v 0.011105 -0.014217 0.005217
v 0.010000 -0.014249 0.005800
v 0.010749 -0.013500 0.005800
v 0.010717 -0.014217 0.005605
v 0.010000 0.015000 0.004500
v 0.010000 0.013500 0.006000
v 0.011500 0.013500 0.004500
v 0.010000 0.014800 0.005249
v 0.010749 0.014800 0.004500
v 0.010717 0.014605 0.005217
v 0.010749 0.013500 0.005800
v 0.010000 0.014249 0.005800
v 0.010717 0.014217 0.005605
v 0.011300 0.014249 0.004500
v 0.011300 0.013500 0.005249
v 0.011105 0.014217 0.005217
v 0.010000 -0.015000 -0.004500
v 0.010000 -0.013500 -0.006000
v 0.011500 -0.013500 -0.004500
v 0.010000 -0.014800 -0.005249
v 0.010749 -0.014800 -0.004500
v 0.010717 -0.014605 -0.005217
v 0.010749 -0.013500 -0.005800
v 0.010000 -0.014249 -0.005800
v 0.010717 -0.014217 -0.005605
v 0.011300 -0.014249 -0.004500
v 0.011300 -0.013500 -0.005249
v 0.011105 -0.014217 -0.005217
v 0.010000 0.015000 -0.004500
v 0.011500 0.013500 -0.004500
v 0.010000 0.013500 -0.006000
v 0.010749 0.014800 -0.004500
v 0.010000 0.014800 -0.005249
v 0.010717 0.014605 -0.005217
v 0.011300 0.013500 -0.005249
v 0.011300 0.014249 -0.004500
v 0.011105 0.014217 -0.005217
v 0.010000 0.014249 -0.005800
v 0.010749 0.013500 -0.005800
v 0.010717 0.014217 -0.005605
v -0.012500 -0.011500 0.007000
v -0.012500 -0.010500 0.008000
v -0.013500 -0.010500 0.007000
v -0.012500 -0.011366 0.007499
v -0.012999 -0.011366 0.007000
v -0.012978 -0.011237 0.007478
v -0.012999 -0.010500 0.007866
v -0.012500 -0.010999 0.007866
v -0.012978 -0.010978 0.007737
v -0.013366 -0.010999 0.007000
v -0.013366 -0.010500 0.007499
v -0.013237 -0.010978 0.007478
v -0.012500 -0.007500 0.008000
v -0.012500 -0.006500 0.007000
v -0.013500 -0.007500 0.007000
v -0.012500 -0.007001 0.007866
v -0.012999 -0.007500 0.007866
v -0.012978 -0.007022 0.007737
v -0.012999 -0.006634 0.007000
v -0.012500 -0.006634 0.007499
v -0.012978 -0.006763 0.007478
v -0.013366 -0.007500 0.007499
v -0.013366 -0.007001 0.007000
v -0.013237 -0.007022 0.007478
v -0.012500 -0.011500 -0.007000
v -0.013500 -0.010500 -0.007000
v -0.012500 -0.010500 -0.008000
v -0.012999 -0.011366 -0.007000
v -0.012500 -0.011366 -0.007499
v -0.012978 -0.011237 -0.007478
v -0.013366 -0.010500 -0.007499
v -0.013366 -0.010999 -0.007000
v -0.013237 -0.010978 -0.007478
v -0.012500 -0.010999 -0.007866
v -0.012999 -0.010500 -0.007866
v -0.012978 -0.010978 -0.007737
v -0.012500 -0.006500 -0.007000
v -0.012500 -0.007500 -0.008000
v -0.013500 -0.007500 -0.007000
v -0.012500 -0.006634 -0.007499
v -0.012999 -0.006634 -0.007000
v -0.012978 -0.006763 -0.007478
v -0.012999 -0.007500 -0.007866
v -0.012500 -0.007001 -0.007866
v -0.012978 -0.007022 -0.007737
v -0.013366 -0.007001 -0.007000
v -0.013366 -0.007500 -0.007499
v -0.013237 -0.007022 -0.007478
v 0.012500 -0.011500 0.007000
v 0.013500 -0.010500 0.007000
v 0.012500 -0.010500 0.008000
v 0.012999 -0.011366 0.007000
v 0.012500 -0.011366 0.007499
v 0.012978 -0.011237 0.007478
v 0.013366 -0.010500 0.007499
v 0.013366 -0.010999 0.007000
v 0.013237 -0.010978 0.007478
v 0.012500 -0.010999 0.007866
v 0.012999 -0.010500 0.007866
v 0.012978 -0.010978 0.007737
v 0.012500 -0.006500 0.007000
v 0.012500 -0.007500 0.008000
v 0.013500 -0.007500 0.007000
v 0.012500 -0.006634 0.007499
v 0.012999 -0.006634 0.007000
v 0.012978 -0.006763 0.007478
v 0.012999 -0.007500 0.007866
v 0.012500 -0.007001 0.007866
v 0.012978 -0.007022 0.007737
v 0.013366 -0.007001 0.007000
v 0.013366 -0.007500 0.007499
v 0.013237 -0.007022 0.007478
v 0.012500 -0.011500 -0.007000
v 0.012500 -0.010500 -0.008000
v 0.013500 -0.010500 -0.007000
v 0.012500 -0.011366 -0.007499
v 0.012999 -0.011366 -0.007000
v 0.012978 -0.011237 -0.007478
v 0.012999 -0.010500 -0.007866
v 0.012500 -0.010999 -0.007866
v 0.012978 -0.010978 -0.007737
v 0.013366 -0.010999 -0.007000
v 0.013366 -0.010500 -0.007499
v 0.013237 -0.010978 -0.007478
v 0.012500 -0.006500 -0.007000
v 0.013500 -0.007500 -0.007000
v 0.012500 -0.007500 -0.008000
v 0.012999 -0.006634 -0.007000
v 0.012500 -0.006634 -0.007499
v 0.012978 -0.006763 -0.007478
v 0.013366 -0.007500 -0.007499
v 0.013366 -0.007001 -0.007000
v 0.013237 -0.007022 -0.007478
v 0.012500 -0.007001 -0.007866
v 0.012999 -0.007500 -0.007866
v 0.012978 -0.007022 -0.007737
v 0.011500 0.005000 -0.003998
v 0.011900 0.005000 -0.004400
v 0.011617 0.005000 -0.004281
v 0.014500 0.005000 -0.003998
v 0.014100 0.005000 -0.004400
v 0.014383 0.005000 -0.004281
v 0.011500 0.004220 -0.003921
v 0.011900 0.004142 -0.004315
v 0.011617 0.004165 -0.004199
v 0.014500 0.004220 -0.003921
v 0.014100 0.004142 -0.004315
v 0.014383 0.004165 -0.004199
v 0.011500 0.003470 -0.003694
v 0.011900 0.003316 -0.004065
v 0.011617 0.003362 -0.003956
v 0.014500 0.003470 -0.003694
v 0.014100 0.003316 -0.004065
v 0.014383 0.003362 -0.003956
v 0.011500 0.002779 -0.003324
v 0.011900 0.002555 -0.003658
v 0.011617 0.002621 -0.003560
v 0.014500 0.002779 -0.003324
v 0.014100 0.002555 -0.003658
v 0.014383 0.002621 -0.003560
v 0.011500 0.002173 -0.002827
v 0.011900 0.001889 -0.003111
v 0.011617 0.001973 -0.003027
v 0.014500 0.002173 -0.002827
v 0.014100 0.001889 -0.003111
v 0.014383 0.001973 -0.003027
v 0.011500 0.001676 -0.002221
v 0.011900 0.001342 -0.002445
v 0.011617 0.001440 -0.002379
v 0.014500 0.001676 -0.002221
v 0.014100 0.001342 -0.002445
v 0.014383 0.001440 -0.002379
v 0.011500 0.001306 -0.001530
v 0.011900 0.000935 -0.001684
v 0.011617 0.001044 -0.001638
v 0.014500 0.001306 -0.001530
v 0.014100 0.000935 -0.001684
v 0.014383 0.001044 -0.001638
v 0.011500 0.001079 -0.000780
v 0.011900 0.000685 -0.000858
v 0.011617 0.000801 -0.000835
v 0.014500 0.001079 -0.000780
v 0.014100 0.000685 -0.000858
v 0.014383 0.000801 -0.000835
v 0.011500 0.001002 0.000000
v 0.011900 0.000600 0.000000
v 0.011617 0.000719 0.000000
v 0.014500 0.001002 -0.000000
v 0.014100 0.000600 0.000000
v 0.014383 0.000719 -0.000000
v 0.011500 0.001079 0.000780
v 0.011900 0.000685 0.000858
v 0.011617 0.000801 0.000835
v 0.014500 0.001079 0.000780
v 0.014100 0.000685 0.000858
v 0.014383 0.000801 0.000835
v 0.011500 0.001306 0.001530
v 0.011900 0.000935 0.001684
v 0.011617 0.001044 0.001638
v 0.014500 0.001306 0.001530
v 0.014100 0.000935 0.001684
v 0.014383 0.001044 0.001638
v 0.011500 0.001676 0.002221
v 0.011900 0.001342 0.002445
v 0.011617 0.001440 0.002379
v 0.014500 0.001676 0.002221
v 0.014100 0.001342 0.002445
v 0.014383 0.001440 0.002379
v 0.011500 0.002173 0.002827
v 0.011900 0.001889 0.003111
v 0.011617 0.001973 0.003027
v 0.014500 0.002173 0.002827
v 0.014100 0.001889 0.003111
v 0.014383 0.001973 0.003027
v 0.011500 0.002779 0.003324
v 0.011900 0.002555 0.003658
v 0.011617 0.002621 0.003560
v 0.014500 0.002779 0.003324
v 0.014100 0.002555 0.003658
v 0.014383 0.002621 0.003560
v 0.011500 0.003470 0.003694
v 0.011900 0.003316 0.004065
v 0.011617 0.003362 0.003956
v 0.014500 0.003470 0.003694
v 0.014100 0.003316 0.004065
v 0.014383 0.003362 0.003956
v 0.011500 0.004220 0.003921
v 0.011900 0.004142 0.004315
v 0.011617 0.004165 0.004199
v 0.014500 0.004220 0.003921
v 0.014100 0.004142 0.004315
v 0.014383 0.004165 0.004199
v 0.011500 0.005000 0.003998
v 0.011900 0.005000 0.004400
v 0.011617 0.005000 0.004281
v 0.014500 0.005000 0.003998
v 0.014100 0.005000 0.004400
v 0.014383 0.005000 0.004281
v 0.011500 0.005780 0.003921
v 0.011900 0.005858 0.004315
v 0.011617 0.005835 0.004199
v 0.014500 0.005780 0.003921
v 0.014100 0.005858 0.004315
v 0.014383 0.005835 0.004199
v 0.011500 0.006530 0.003694
v 0.011900 0.006684 0.004065
v 0.011617 0.006638 0.003956
v 0.014500 0.006530 0.003694
v 0.014100 0.006684 0.004065
v 0.014383 0.006638 0.003956
v 0.011500 0.007221 0.003324
v 0.011900 0.007445 0.003658
v 0.011617 0.007379 0.003560
v 0.014500 0.007221 0.003324
v 0.014100 0.007445 0.003658
v 0.014383 0.007379 0.003560
v 0.011500 0.007827 0.002827
v 0.011900 0.008111 0.003111
v 0.011617 0.008027 0.003027
v 0.014500 0.007827 0.002827
v 0.014100 0.008111 0.003111
v 0.014383 0.008027 0.003027
v 0.011500 0.008324 0.002221
v 0.011900 0.008658 0.002445
v 0.011617 0.008560 0.002379
v 0.014500 0.008324 0.002221
v 0.014100 0.008658 0.002445
v 0.014383 0.008560 0.002379
v 0.011500 0.008694 0.001530
v 0.011900 0.009065 0.001684
v 0.011617 0.008956 0.001638
v 0.014500 0.008694 0.001530
v 0.014100 0.009065 0.001684
v 0.014383 0.008956 0.001638
v 0.011500 0.008921 0.000780
v 0.011900 0.009315 0.000858
v 0.011617 0.009199 0.000835
v 0.014500 0.008921 0.000780
v 0.014100 0.009315 0.000858
v 0.014383 0.009199 0.000835
v 0.011500 0.008998 -0.000000
v 0.011900 0.009400 0.000000
v 0.011617 0.009281 -0.000000
v 0.014500 0.008998 0.000000
v 0.014100 0.009400 0.000000
v 0.014383 0.009281 0.000000
v 0.011500 0.008921 -0.000780
v 0.011900 0.009315 -0.000858
v 0.011617 0.009199 -0.000835
v 0.014500 0.008921 -0.000780
v 0.014100 0.009315 -0.000858
v 0.014383 0.009199 -0.000835
v 0.011500 0.008694 -0.001530
v 0.011900 0.009065 -0.001684
v 0.011617 0.008956 -0.001638
v 0.014500 0.008694 -0.001530
v 0.014100 0.009065 -0.001684
v 0.014383 0.008956 -0.001638
v 0.011500 0.008324 -0.002221
v 0.011900 0.008658 -0.002445
v 0.011617 0.008560 -0.002379
v 0.014500 0.008324 -0.002221
v 0.014100 0.008658 -0.002445
v 0.014383 0.008560 -0.002379
v 0.011500 0.007827 -0.002827
v 0.011900 0.008111 -0.003111
v 0.011617 0.008027 -0.003027
v 0.014500 0.007827 -0.002827
v 0.014100 0.008111 -0.003111
v 0.014383 0.008027 -0.003027
v 0.011500 0.007221 -0.003324
v 0.011900 0.007445 -0.003658
v 0.011617 0.007379 -0.003560
v 0.014500 0.007221 -0.003324
v 0.014100 0.007445 -0.003658
v 0.014383 0.007379 -0.003560
v 0.011500 0.006530 -0.003694
v 0.011900 0.006684 -0.004065
v 0.011617 0.006638 -0.003956
v 0.014500 0.006530 -0.003694
v 0.014100 0.006684 -0.004065
v 0.014383 0.006638 -0.003956
v 0.011500 0.005780 -0.003921
v 0.011900 0.005858 -0.004315
v 0.011617 0.005835 -0.004199
v 0.014500 0.005780 -0.003921
v 0.014100 0.005858 -0.004315
v 0.014383 0.005835 -0.004199
v 0.014500 0.005000 -0.002496
v 0.014700 0.005000 -0.002700
v 0.014559 0.005000 -0.002639
v 0.017000 0.005000 -0.002496
v 0.016800 0.005000 -0.002700
v 0.016941 0.005000 -0.002639
v 0.014500 0.004045 -0.002306
v 0.014700 0.003967 -0.002494
v 0.014559 0.003990 -0.002438
v 0.017000 0.004045 -0.002306
v 0.016800 0.003967 -0.002494
v 0.016941 0.003990 -0.002438
v 0.014500 0.003235 -0.001765
v 0.014700 0.003091 -0.001909
v 0.014559 0.003134 -0.001866
v 0.017000 0.003235 -0.001765
v 0.016800 0.003091 -0.001909
v 0.016941 0.003134 -0.001866
v 0.014500 0.002694 -0.000955
v 0.014700 0.002506 -0.001033
v 0.014559 0.002562 -0.001010
v 0.017000 0.002694 -0.000955
v 0.016800 0.002506 -0.001033
v 0.016941 0.002562 -0.001010
v 0.014500 0.002504 0.000000
v 0.014700 0.002300 0.000000
v 0.014559 0.002361 0.000000
v 0.017000 0.002504 0.000000
v 0.016800 0.002300 0.000000
v 0.016941 0.002361 -0.000000
v 0.014500 0.002694 0.000955
v 0.014700 0.002506 0.001033
v 0.014559 0.002562 0.001010
v 0.017000 0.002694 0.000955
v 0.016800 0.002506 0.001033
v 0.016941 0.002562 0.001010
v 0.014500 0.003235 0.001765
v 0.014700 0.003091 0.001909
v 0.014559 0.003134 0.001866
v 0.017000 0.003235 0.001765
v 0.016800 0.003091 0.001909
v 0.016941 0.003134 0.001866
v 0.014500 0.004045 0.002306
v 0.014700 0.003967 0.002494
v 0.014559 0.003990 0.002438
v 0.017000 0.004045 0.002306
v 0.016800 0.003967 0.002494
v 0.016941 0.003990 0.002438
v 0.014500 0.005000 0.002496
v 0.014700 0.005000 0.002700
v 0.014559 0.005000 0.002639
v 0.017000 0.005000 0.002496
v 0.016800 0.005000 0.002700
v 0.016941 0.005000 0.002639
v 0.014500 0.005955 0.002306
v 0.014700 0.006033 0.002494
v 0.014559 0.006010 0.002438
v 0.017000 0.005955 0.002306
v 0.016800 0.006033 0.002494
v 0.016941 0.006010 0.002438
v 0.014500 0.006765 0.001765
v 0.014700 0.006909 0.001909
v 0.014559 0.006866 0.001866
v 0.017000 0.006765 0.001765
v 0.016800 0.006909 0.001909
v 0.016941 0.006866 0.001866
v 0.014500 0.007306 0.000955
v 0.014700 0.007494 0.001033
v 0.014559 0.007438 0.001010
v 0.017000 0.007306 0.000955
v 0.016800 0.007494 0.001033
v 0.016941 0.007438 0.001010
v 0.014500 0.007496 0.000000
v 0.014700 0.007700 0.000000
v 0.014559 0.007639 -0.000000
v 0.017000 0.007496 0.000000
v 0.016800 0.007700 0.000000
v 0.016941 0.007639 0.000000
v 0.014500 0.007306 -0.000955
v 0.014700 0.007494 -0.001033
v 0.014559 0.007438 -0.001010
v 0.017000 0.007306 -0.000955
v 0.016800 0.007494 -0.001033
v 0.016941 0.007438 -0.001010
v 0.014500 0.006765 -0.001765
v 0.014700 0.006909 -0.001909
v 0.014559 0.006866 -0.001866
v 0.017000 0.006765 -0.001765
v 0.016800 0.006909 -0.001909
v 0.016941 0.006866 -0.001866
v 0.014500 0.005955 -0.002306
v 0.014700 0.006033 -0.002494
v 0.014559 0.006010 -0.002438
v 0.017000 0.005955 -0.002306
v 0.016800 0.006033 -0.002494
v 0.016941 0.006010 -0.002438
v -0.015500 -0.003250 0.003500
v -0.015500 -0.002750 0.004000
v -0.016000 -0.002750 0.003500
v -0.015500 -0.003183 0.003750
v -0.015750 -0.003183 0.003500
v -0.015739 -0.003118 0.003739
v -0.015750 -0.002750 0.003933
v -0.015500 -0.003000 0.003933
v -0.015739 -0.002989 0.003868
v -0.015933 -0.003000 0.003500
v -0.015933 -0.002750 0.003750
v -0.015868 -0.002989 0.003739
v -0.015500 0.002750 0.004000
v -0.015500 0.003250 0.003500
v -0.016000 0.002750 0.003500
v -0.015500 0.003000 0.003933
v -0.015750 0.002750 0.003933
v -0.015739 0.002989 0.003868
v -0.015750 0.003183 0.003500
v -0.015500 0.003183 0.003750
v -0.015739 0.003118 0.003739
v -0.015933 0.002750 0.003750
v -0.015933 0.003000 0.003500
v -0.015868 0.002989 0.003739
v -0.015500 -0.003250 -0.003500
v -0.016000 -0.002750 -0.003500
v -0.015500 -0.002750 -0.004000
v -0.015750 -0.003183 -0.003500
v -0.015500 -0.003183 -0.003750
v -0.015739 -0.003118 -0.003739
v -0.015933 -0.002750 -0.003750
v -0.015933 -0.003000 -0.003500
v -0.015868 -0.002989 -0.003739
v -0.015500 -0.003000 -0.003933
v -0.015750 -0.002750 -0.003933
v -0.015739 -0.002989 -0.003868
v -0.015500 0.003250 -0.003500
v -0.015500 0.002750 -0.004000
v -0.016000 0.002750 -0.003500
v -0.015500 0.003183 -0.003750
v -0.015750 0.003183 -0.003500
v -0.015739 0.003118 -0.003739
v -0.015750 0.002750 -0.003933
v -0.015500 0.003000 -0.003933
v -0.015739 0.002989 -0.003868
v -0.015933 0.003000 -0.003500
v -0.015933 0.002750 -0.003750
v -0.015868 0.002989 -0.003739
v -0.012000 -0.003250 0.003500
v -0.011500 -0.002750 0.003500
v -0.012000 -0.002750 0.004000
v -0.011750 -0.003183 0.003500
v -0.012000 -0.003183 0.003750
v -0.011761 -0.003118 0.003739
v -0.011567 -0.002750 0.003750
v -0.011567 -0.003000 0.003500
v -0.011632 -0.002989 0.003739
v -0.012000 -0.003000 0.003933
v -0.011750 -0.002750 0.003933
v -0.011761 -0.002989 0.003868
v -0.012000 0.003250 0.003500
v -0.012000 0.002750 0.004000
v -0.011500 0.002750 0.003500
v -0.012000 0.003183 0.003750
v -0.011750 0.003183 0.003500
v -0.011761 0.003118 0.003739
v -0.011750 0.002750 0.003933
v -0.012000 0.003000 0.003933
v -0.011761 0.002989 0.003868
v -0.011567 0.003000 0.003500
v -0.011567 0.002750 0.003750
v -0.011632 0.002989 0.003739
v -0.012000 -0.003250 -0.003500
v -0.012000 -0.002750 -0.004000
v -0.011500 -0.002750 -0.003500
v -0.012000 -0.003183 -0.003750
v -0.011750 -0.003183 -0.003500
v -0.011761 -0.003118 -0.003739
v -0.011750 -0.002750 -0.003933
v -0.012000 -0.003000 -0.003933
v -0.011761 -0.002989 -0.003868
v -0.011567 -0.003000 -0.003500
v -0.011567 -0.002750 -0.003750
v -0.011632 -0.002989 -0.003739
v -0.012000 0.003250 -0.003500
v -0.011500 0.002750 -0.003500
v -0.012000 0.002750 -0.004000
v -0.011750 0.003183 -0.003500
v -0.012000 0.003183 -0.003750
v -0.011761 0.003118 -0.003739
v -0.011567 0.002750 -0.003750
v -0.011567 0.003000 -0.003500
v -0.011632 0.002989 -0.003739
v -0.012000 0.003000 -0.003933
v -0.011750 0.002750 -0.003933
v -0.011761 0.002989 -0.003868
v -0.016750 0.000000 -0.003050
v -0.015750 -0.000000 -0.003050
v -0.016750 -0.000325 -0.002963
v -0.015750 -0.000325 -0.002963
v -0.016750 -0.000563 -0.002725
v -0.015750 -0.000563 -0.002725
v -0.016750 -0.000650 -0.002400
v -0.015750 -0.000650 -0.002400
v -0.016750 -0.000563 -0.002075
v -0.015750 -0.000563 -0.002075
v -0.016750 -0.000325 -0.001837
v -0.015750 -0.000325 -0.001837
v -0.016750 0.000000 -0.001750
v -0.015750 -0.000000 -0.001750
v -0.016750 0.000325 -0.001837
v -0.015750 0.000325 -0.001837
v -0.016750 0.000563 -0.002075
v -0.015750 0.000563 -0.002075
v -0.016750 0.000650 -0.002400
v -0.015750 0.000650 -0.002400
v -0.016750 0.000563 -0.002725
v -0.015750 0.000563 -0.002725
v -0.016750 0.000325 -0.002963
v -0.015750 0.000325 -0.002963
v -0.016750 0.000000 -0.000650
v -0.015750 -0.000000 -0.000650
v -0.016750 -0.000325 -0.000563
v -0.015750 -0.000325 -0.000563
v -0.016750 -0.000563 -0.000325
v -0.015750 -0.000563 -0.000325
v -0.016750 -0.000650 0.000000
v -0.015750 -0.000650 0.000000
v -0.016750 -0.000563 0.000325
v -0.015750 -0.000563 0.000325
v -0.016750 -0.000325 0.000563
v -0.015750 -0.000325 0.000563
v -0.016750 0.000000 0.000650
v -0.015750 -0.000000 0.000650
v -0.016750 0.000325 0.000563
v -0.015750 0.000325 0.000563
v -0.016750 0.000563 0.000325
v -0.015750 0.000563 0.000325
v -0.016750 0.000650 0.000000
v -0.015750 0.000650 0.000000
v -0.016750 0.000563 -0.000325
v -0.015750 0.000563 -0.000325
v -0.016750 0.000325 -0.000563
v -0.015750 0.000325 -0.000563
v -0.016750 0.000000 0.001750
v -0.015750 -0.000000 0.001750
v -0.016750 -0.000325 0.001837
v -0.015750 -0.000325 0.001837
v -0.016750 -0.000563 0.002075
v -0.015750 -0.000563 0.002075
v -0.016750 -0.000650 0.002400
v -0.015750 -0.000650 0.002400
v -0.016750 -0.000563 0.002725
v -0.015750 -0.000563 0.002725
v -0.016750 -0.000325 0.002963
v -0.015750 -0.000325 0.002963
v -0.016750 0.000000 0.003050
v -0.015750 -0.000000 0.003050
v -0.016750 0.000325 0.002963
v -0.015750 0.000325 0.002963
v -0.016750 0.000563 0.002725
v -0.015750 0.000563 0.002725
v -0.016750 0.000650 0.002400
v -0.015750 0.000650 0.002400
v -0.016750 0.000563 0.002075
v -0.015750 0.000563 0.002075
v -0.016750 0.000325 0.001837
v -0.015750 0.000325 0.001837
vn -0.2502 -0.9353 0.2502
vn -0.2178 -0.6901 0.6901
vn -0.2502 -0.2502 0.9353
vn -0.6901 -0.2178 0.6901
vn -0.9353 -0.2502 0.2502
vn -0.6901 -0.6901 0.2178
vn -0.5773 -0.5774 0.5773
vn -0.2502 0.2502 0.9353
vn -0.2178 0.6901 0.6901
vn -0.2502 0.9353 0.2502
vn -0.6901 0.6901 0.2178
vn -0.9353 0.2502 0.2502
vn -0.6901 0.2178 0.6901
vn -0.5773 0.5774 0.5773
vn -0.2502 -0.9353 -0.2502
vn -0.6901 -0.6901 -0.2178
vn -0.9353 -0.2502 -0.2502
vn -0.6901 -0.2178 -0.6901
vn -0.2502 -0.2502 -0.9353
vn -0.2178 -0.6901 -0.6901
vn -0.5773 -0.5774 -0.5773
vn -0.2502 0.9353 -0.2502
vn -0.2178 0.6901 -0.6901
vn -0.2502 0.2502 -0.9353
vn -0.6901 0.2178 -0.6901
vn -0.9353 0.2502 -0.2502
vn -0.6901 0.6901 -0.2178
vn -0.5773 0.5774 -0.5773
vn 0.2502 -0.9353 0.2502
vn 0.6901 -0.6901 0.2178
vn 0.9353 -0.2502 0.2502
vn 0.6901 -0.2178 0.6901
vn 0.2502 -0.2502 0.9353
vn 0.2178 -0.6901 0.6901
vn 0.5773 -0.5774 0.5773
vn 0.2502 0.9353 0.2502
vn 0.2178 0.6901 0.6901
vn 0.2502 0.2502 0.9353
vn 0.6901 0.2178 0.6901
vn 0.9353 0.2502 0.2502
vn 0.6901 0.6901 0.2178
vn 0.5773 0.5774 0.5773
vn 0.2502 -0.9353 -0.2502
vn 0.2178 -0.6901 -0.6901
vn 0.2502 -0.2502 -0.9353
vn 0.6901 -0.2178 -0.6901
vn 0.9353 -0.2502 -0.2502
vn 0.6901 -0.6901 -0.2178
vn 0.5773 -0.5774 -0.5773
vn 0.2502 0.9353 -0.2502
vn 0.6901 0.6901 -0.2178
vn 0.9353 0.2502 -0.2502
vn 0.6901 0.2178 -0.6901
vn 0.2502 0.2502 -0.9353
vn 0.2178 0.6901 -0.6901
vn 0.5773 0.5774 -0.5773
vn -0.2585 -0.9660 -0.0000
vn -0.7071 -0.7071 -0.0000
vn -0.9660 -0.2585 -0.0000
vn -0.2585 -0.0000 0.9660
vn -0.7071 -0.0000 0.7071
vn -0.9660 -0.0000 0.2585
vn -0.2585 0.9660 -0.0000
vn -0.7071 0.7071 -0.0000
vn -0.9660 0.2585 -0.0000
vn -0.2585 -0.0000 -0.9660
vn -0.7071 -0.0000 -0.7071
vn -0.9660 -0.0000 -0.2585
vn -0.0000 -0.9660 -0.2585
vn -0.0000 -0.7071 -0.7071
vn -0.0000 -0.2585 -0.9660
vn -0.0000 0.9660 -0.2585
vn -0.0000 0.7071 -0.7071
vn -0.0000 0.2585 -0.9660
vn 0.9660 -0.0000 -0.2585
vn 0.7071 -0.0000 -0.7071
vn 0.2585 -0.0000 -0.9660
vn 0.2585 -0.9660 -0.0000
vn 0.7071 -0.7071 -0.0000
vn 0.9660 -0.2585 -0.0000
vn 0.2585 0.9660 -0.0000
vn 0.7071 0.7071 -0.0000
vn 0.9660 0.2585 -0.0000
vn 0.2585 -0.0000 0.9660
vn 0.7071 -0.0000 0.7071
vn 0.9660 -0.0000 0.2585
vn -0.0000 -0.9660 0.2585
vn -0.0000 -0.7071 0.7071
vn -0.0000 -0.2585 0.9660
vn -0.0000 0.9660 0.2585
vn -0.0000 0.7071 0.7071
vn -0.0000 0.2585 0.9660
vn -0.0000 -1.0000 -0.0000
vn -1.0000 -0.0000 -0.0000
vn -0.0000 -0.0000 1.0000
vn -0.0000 1.0000 -0.0000
vn -0.0000 -0.0000 -1.0000
vn 1.0000 -0.0000 -0.0000
vn -0.5774 -0.5773 0.5774
vn -0.5774 0.5773 0.5774
vn -0.5774 -0.5773 -0.5774
vn -0.5774 0.5773 -0.5774
vn 0.5774 -0.5773 0.5774
vn 0.5774 0.5773 0.5774
vn 0.5774 -0.5773 -0.5774
vn 0.5774 0.5773 -0.5774
vn -0.2584 -0.9660 -0.0000
vn 0.2584 -0.9660 -0.0000
vn -0.3849 -0.0905 -0.9185
vn -0.9235 -0.0376 -0.3818
vn 0.3849 -0.0905 -0.9185
vn 0.9235 -0.0376 -0.3818
vn -0.3849 -0.2679 -0.8832
vn -0.9235 -0.1114 -0.3671
vn 0.3849 -0.2679 -0.8832
vn 0.9235 -0.1114 -0.3671
vn -0.3849 -0.4351 -0.8140
vn -0.9235 -0.1808 -0.3383
vn 0.3849 -0.4351 -0.8140
vn 0.9235 -0.1808 -0.3383
vn -0.3849 -0.5855 -0.7135
vn -0.9235 -0.2434 -0.2965
vn 0.3849 -0.5855 -0.7135
vn 0.9235 -0.2434 -0.2965
vn -0.3849 -0.7135 -0.5855
vn -0.9235 -0.2965 -0.2434
vn 0.3849 -0.7135 -0.5855
vn 0.9235 -0.2965 -0.2434
vn -0.3849 -0.8140 -0.4351
vn -0.9235 -0.3383 -0.1808
vn 0.3849 -0.8140 -0.4351
vn 0.9235 -0.3383 -0.1808
vn -0.3849 -0.8832 -0.2679
vn -0.9235 -0.3671 -0.1114
vn 0.3849 -0.8832 -0.2679
vn 0.9235 -0.3671 -0.1114
vn -0.3849 -0.9185 -0.0905
vn -0.9235 -0.3818 -0.0376
vn 0.3849 -0.9185 -0.0905
vn 0.9235 -0.3818 -0.0376
vn -0.3849 -0.9185 0.0905
vn -0.9235 -0.3818 0.0376
vn 0.3849 -0.9185 0.0905
vn 0.9235 -0.3818 0.0376
vn -0.3849 -0.8832 0.2679
vn -0.9235 -0.3671 0.1114
vn 0.3849 -0.8832 0.2679
vn 0.9235 -0.3671 0.1114
vn -0.3849 -0.8140 0.4351
vn -0.9235 -0.3383 0.1808
vn 0.3849 -0.8140 0.4351
vn 0.9235 -0.3383 0.1808
vn -0.3849 -0.7135 0.5855
vn -0.9235 -0.2965 0.2434
vn 0.3849 -0.7135 0.5855
vn 0.9235 -0.2965 0.2434
vn -0.3849 -0.5855 0.7135
vn -0.9235 -0.2434 0.2965
vn 0.3849 -0.5855 0.7135
vn 0.9235 -0.2434 0.2965
vn -0.3849 -0.4351 0.8140
vn -0.9235 -0.1808 0.3383
vn 0.3849 -0.4351 0.8140
vn 0.9235 -0.1808 0.3383
vn -0.3849 -0.2679 0.8832
vn -0.9235 -0.1114 0.3671
vn 0.3849 -0.2679 0.8832
vn 0.9235 -0.1114 0.3671
vn -0.3849 -0.0905 0.9185
vn -0.9235 -0.0376 0.3818
vn 0.3849 -0.0905 0.9185
vn 0.9235 -0.0376 0.3818
vn -0.3849 0.0905 0.9185
vn -0.9235 0.0376 0.3818
vn 0.3849 0.0905 0.9185
vn 0.9235 0.0376 0.3818
vn -0.3849 0.2679 0.8832
vn -0.9235 0.1114 0.3671
vn 0.3849 0.2679 0.8832
vn 0.9235 0.1114 0.3671
vn -0.3849 0.4351 0.8140
vn -0.9235 0.1808 0.3383
vn 0.3849 0.4351 0.8140
vn 0.9235 0.1808 0.3383
vn -0.3849 0.5855 0.7135
vn -0.9235 0.2434 0.2965
vn 0.3849 0.5855 0.7135
vn 0.9235 0.2434 0.2965
vn -0.3849 0.7135 0.5855
vn -0.9235 0.2965 0.2434
vn 0.3849 0.7135 0.5855
vn 0.9235 0.2965 0.2434
vn -0.3849 0.8140 0.4351
vn -0.9235 0.3383 0.1808
vn 0.3849 0.8140 0.4351
vn 0.9235 0.3383 0.1808
vn -0.3849 0.8832 0.2679
vn -0.9235 0.3671 0.1114
vn 0.3849 0.8832 0.2679
vn 0.9235 0.3671 0.1114
vn -0.3849 0.9185 0.0905
vn -0.9235 0.3818 0.0376
vn 0.3849 0.9185 0.0905
vn 0.9235 0.3818 0.0376
vn -0.3849 0.9185 -0.0905
vn -0.9235 0.3818 -0.0376
vn 0.3849 0.9185 -0.0905
vn 0.9235 0.3818 -0.0376
vn -0.3849 0.8832 -0.2679
vn -0.9235 0.3671 -0.1114
vn 0.3849 0.8832 -0.2679
vn 0.9235 0.3671 -0.1114
vn -0.3849 0.8140 -0.4351
vn -0.9235 0.3383 -0.1808
vn 0.3849 0.8140 -0.4351
vn 0.9235 0.3383 -0.1808
vn -0.3849 0.7135 -0.5855
vn -0.9235 0.2965 -0.2434
vn 0.3849 0.7135 -0.5855
vn 0.9235 0.2965 -0.2434
vn -0.3849 0.5855 -0.7135
vn -0.9235 0.2434 -0.2965
vn 0.3849 0.5855 -0.7135
vn 0.9235 0.2434 -0.2965
vn -0.3849 0.4351 -0.8140
vn -0.9235 0.1808 -0.3383
vn 0.3849 0.4351 -0.8140
vn 0.9235 0.1808 -0.3383
vn -0.3849 0.2679 -0.8832
vn -0.9235 0.1114 -0.3671
vn 0.3849 0.2679 -0.8832
vn 0.9235 0.1114 -0.3671
vn -0.3849 0.0905 -0.9185
vn -0.9235 0.0376 -0.3818
vn 0.3849 0.0905 -0.9185
vn 0.9235 0.0376 -0.3818
vn -0.0000 -0.0980 -0.9952
vn -0.0000 0.0980 -0.9952
vn -0.0000 -0.2903 -0.9569
vn -0.0000 -0.4714 -0.8819
vn -0.0000 -0.6344 -0.7730
vn -0.0000 -0.7730 -0.6344
vn -0.0000 -0.8819 -0.4714
vn -0.0000 -0.9569 -0.2903
vn -0.0000 -0.9952 -0.0980
vn -0.0000 -0.9952 0.0980
vn -0.0000 -0.9569 0.2903
vn -0.0000 -0.8819 0.4714
vn -0.0000 -0.7730 0.6344
vn -0.0000 -0.6344 0.7730
vn -0.0000 -0.4714 0.8819
vn -0.0000 -0.2903 0.9569
vn -0.0000 -0.0980 0.9952
vn -0.0000 0.0980 0.9952
vn -0.0000 0.2903 0.9569
vn -0.0000 0.4714 0.8819
vn -0.0000 0.6344 0.7730
vn -0.0000 0.7730 0.6344
vn -0.0000 0.8819 0.4714
vn -0.0000 0.9569 0.2903
vn -0.0000 0.9952 0.0980
vn -0.0000 0.9952 -0.0980
vn -0.0000 0.9569 -0.2903
vn -0.0000 0.8819 -0.4714
vn -0.0000 0.7730 -0.6344
vn -0.0000 0.6344 -0.7730
vn -0.0000 0.4714 -0.8819
vn -0.0000 0.2903 -0.9569
vn -0.3914 -0.1795 -0.9025
vn -0.9224 -0.0754 -0.3789
vn 0.3914 -0.1795 -0.9025
vn 0.9223 -0.0754 -0.3790
vn -0.3914 -0.5112 -0.7651
vn -0.9224 -0.2146 -0.3212
vn 0.3914 -0.5112 -0.7651
vn 0.9223 -0.2147 -0.3213
vn -0.3914 -0.7651 -0.5112
vn -0.9224 -0.3212 -0.2146
vn 0.3914 -0.7651 -0.5112
vn 0.9223 -0.3213 -0.2146
vn -0.3914 -0.9025 -0.1795
vn -0.9224 -0.3789 -0.0754
vn 0.3914 -0.9025 -0.1795
vn 0.9223 -0.3789 -0.0754
vn -0.3914 -0.9025 0.1795
vn -0.9223 -0.3789 0.0754
vn 0.3914 -0.9025 0.1795
vn 0.9223 -0.3789 0.0754
vn -0.3914 -0.7651 0.5112
vn -0.9224 -0.3212 0.2146
vn 0.3914 -0.7651 0.5112
vn 0.9223 -0.3213 0.2146
vn -0.3914 -0.5112 0.7651
vn -0.9224 -0.2146 0.3212
vn 0.3914 -0.5112 0.7651
vn 0.9224 -0.2147 0.3212
vn -0.3914 -0.1795 0.9025
vn -0.9223 -0.0754 0.3789
vn 0.3914 -0.1795 0.9025
vn 0.9223 -0.0754 0.3789
vn -0.3914 0.1795 0.9025
vn -0.9224 0.0754 0.3789
vn 0.3914 0.1795 0.9025
vn 0.9223 0.0754 0.3790
vn -0.3914 0.5112 0.7651
vn -0.9224 0.2146 0.3212
vn 0.3914 0.5112 0.7651
vn 0.9223 0.2147 0.3213
vn -0.3914 0.7651 0.5112
vn -0.9224 0.3212 0.2146
vn 0.3914 0.7651 0.5112
vn 0.9223 0.3213 0.2146
vn -0.3914 0.9025 0.1795
vn -0.9224 0.3789 0.0754
vn 0.3914 0.9025 0.1795
vn 0.9223 0.3789 0.0754
vn -0.3914 0.9025 -0.1795
vn -0.9223 0.3789 -0.0754
vn 0.3914 0.9025 -0.1795
vn 0.9223 0.3789 -0.0754
vn -0.3914 0.7651 -0.5112
vn -0.9223 0.3212 -0.2146
vn 0.3914 0.7651 -0.5112
vn 0.9223 0.3213 -0.2147
vn -0.3914 0.5112 -0.7651
vn -0.9224 0.2146 -0.3212
vn 0.3914 0.5112 -0.7651
vn 0.9223 0.2147 -0.3212
vn -0.3914 0.1795 -0.9025
vn -0.9223 0.0754 -0.3789
vn 0.3914 0.1795 -0.9025
vn 0.9223 0.0754 -0.3789
vn -0.0000 -0.1951 -0.9808
vn -0.0000 0.1951 -0.9808
vn -0.0000 -0.5556 -0.8315
vn -0.0000 -0.8315 -0.5556
vn -0.0000 -0.9808 -0.1951
vn -0.0000 -0.9808 0.1951
vn -0.0000 -0.8315 0.5556
vn -0.0000 -0.5556 0.8315
vn -0.0000 -0.1951 0.9808
vn -0.0000 0.1951 0.9808
vn -0.0000 0.5556 0.8315
vn -0.0000 0.8315 0.5556
vn -0.0000 0.9808 0.1951
vn -0.0000 0.9808 -0.1951
vn -0.0000 0.8315 -0.5556
vn -0.0000 0.5556 -0.8315
vn -0.5774 -0.5773 0.5773
vn -0.5774 0.5773 0.5773
vn -0.5774 -0.5773 -0.5773
vn -0.5774 0.5773 -0.5773
vn 0.9660 -0.0000 0.2584
vn -0.0000 -0.2588 -0.9659
vn -0.0000 -0.9659 -0.2588
vn -0.0000 -0.9659 0.2588
vn -0.0000 -0.2588 0.9659
vn -0.0000 0.2588 0.9659
vn -0.0000 0.9659 0.2588
vn -0.0000 0.9659 -0.2588
vn -0.0000 0.2588 -0.9659
vn -0.2635 -0.9280 0.2635
vn -0.2635 -0.2635 0.9280
vn -0.9280 -0.2635 0.2635
vn -0.2635 0.2635 0.9280
vn -0.2635 0.9280 0.2635
vn -0.9280 0.2635 0.2635
vn -0.2635 -0.9280 -0.2635
vn -0.9280 -0.2635 -0.2635
vn -0.2635 -0.2635 -0.9280
vn -0.2635 0.9280 -0.2635
vn -0.2635 0.2635 -0.9280
vn -0.9280 0.2635 -0.2635
vn 0.2635 -0.9280 0.2635
vn 0.9280 -0.2635 0.2635
vn 0.2635 -0.2635 0.9280
vn 0.2635 0.9280 0.2635
vn 0.2635 0.2635 0.9280
vn 0.9280 0.2635 0.2635
vn 0.2635 -0.9280 -0.2635
vn 0.2635 -0.2635 -0.9280
vn 0.9280 -0.2635 -0.2635
vn 0.2635 0.9280 -0.2635
vn 0.9280 0.2635 -0.2635
vn 0.2635 0.2635 -0.9280
vn -0.9223 -0.0754 -0.3789
vn 0.9223 -0.0754 -0.3789
vn 0.9223 -0.2147 -0.3212
vn -0.9223 -0.3212 -0.2146
vn -0.9223 -0.3789 -0.0754
vn -0.9224 -0.3789 0.0754
vn -0.9223 -0.3212 0.2146
vn 0.9223 -0.2147 0.3213
vn -0.9224 -0.0754 0.3789
vn 0.9223 -0.0754 0.3790
vn -0.9223 0.0754 0.3789
vn 0.9223 0.0754 0.3789
vn 0.9223 0.2147 0.3212
vn -0.9223 0.3212 0.2146
vn 0.9223 0.3213 0.2147
vn -0.9223 0.3789 0.0754
vn -0.9224 0.3789 -0.0754
vn -0.9224 0.3212 -0.2146
vn 0.9223 0.3213 -0.2146
vn 0.9223 0.2147 -0.3213
vn -0.9224 0.0754 -0.3789
vn 0.9223 0.0754 -0.3790
vn 0.9660 -0.0000 -0.2584
vt 0.141304 0.734355
vt 0.133163 0.718750
vt 0.141304 0.718750
vt 0.141304 0.750000
vt 0.133507 0.733694
vt 0.387500 1.000000
vt 0.375000 0.983696
vt 0.387500 0.983696
vt 0.387500 0.015646
vt 0.375000 0.000000
vt 0.387500 0.000000
vt 0.375000 0.031250
vt 0.387500 0.031250
vt 0.125000 0.718750
vt 0.125000 0.733694
vt 0.133507 0.750000
vt 0.618742 0.983696
vt 0.612500 1.000000
vt 0.612500 0.983696
vt 0.625000 0.991493
vt 0.618478 0.991492
vt 0.875000 0.718750
vt 0.858696 0.750000
vt 0.858696 0.718750
vt 0.618742 0.031250
vt 0.625000 0.000000
vt 0.625000 0.031250
vt 0.612500 0.015646
vt 0.612500 0.031250
vt 0.612500 0.000000
vt 0.618478 0.016306
vt 0.618478 0.995706
vt 0.133163 0.531250
vt 0.141304 0.515645
vt 0.141304 0.531250
vt 0.125000 0.531250
vt 0.133507 0.516306
vt 0.387500 0.234354
vt 0.375000 0.218750
vt 0.387500 0.218750
vt 0.387500 0.258163
vt 0.375000 0.233694
vt 0.375000 0.266304
vt 0.387500 0.266304
vt 0.133507 0.500000
vt 0.141304 0.500000
vt 0.125000 0.516306
vt 0.858696 0.500000
vt 0.875000 0.531250
vt 0.858696 0.531250
vt 0.618742 0.266304
vt 0.625000 0.254755
vt 0.625000 0.266304
vt 0.612500 0.258163
vt 0.612500 0.266304
vt 0.612500 0.234354
vt 0.618478 0.258507
vt 0.618742 0.218750
vt 0.612500 0.218750
vt 0.618478 0.235288
vt 0.366837 0.718750
vt 0.358696 0.734354
vt 0.358696 0.718750
vt 0.381258 0.718750
vt 0.366493 0.733694
vt 0.387500 0.734354
vt 0.387500 0.718750
vt 0.387500 0.758163
vt 0.380686 0.733694
vt 0.366854 0.758158
vt 0.387500 0.766304
vt 0.371875 0.755383
vt 0.633158 0.758146
vt 0.633163 0.718750
vt 0.641304 0.718750
vt 0.618742 0.766304
vt 0.630383 0.753125
vt 0.612500 0.758163
vt 0.612500 0.766304
vt 0.612500 0.734354
vt 0.618478 0.758507
vt 0.618742 0.718750
vt 0.612500 0.718750
vt 0.618478 0.735288
vt 0.358696 0.515645
vt 0.366837 0.531250
vt 0.358696 0.531250
vt 0.366854 0.491842
vt 0.366492 0.516306
vt 0.387500 0.491837
vt 0.387500 0.483696
vt 0.387500 0.515646
vt 0.371875 0.494617
vt 0.381258 0.531250
vt 0.387500 0.531250
vt 0.380686 0.516306
vt 0.633163 0.531250
vt 0.633158 0.491854
vt 0.641304 0.531250
vt 0.618742 0.531250
vt 0.629174 0.509112
vt 0.612500 0.515646
vt 0.612500 0.531250
vt 0.612500 0.491837
vt 0.618478 0.516306
vt 0.618742 0.483696
vt 0.612500 0.483696
vt 0.618478 0.492788
vt 0.625000 0.218750
vt 0.625000 0.983696
vt 0.134259 0.742177
vt 0.129636 0.734375
vt 0.134259 0.734375
vt 0.134259 0.750000
vt 0.129831 0.741847
vt 0.425000 1.000000
vt 0.375000 0.990741
vt 0.425000 0.990741
vt 0.425000 0.007823
vt 0.425000 0.000000
vt 0.375000 0.015625
vt 0.425000 0.015625
vt 0.125000 0.741847
vt 0.125000 0.734375
vt 0.129831 0.750000
vt 0.599967 0.990741
vt 0.575000 1.000000
vt 0.575000 0.990741
vt 0.625000 0.995169
vt 0.598911 0.995169
vt 0.875000 0.734375
vt 0.865741 0.750000
vt 0.865741 0.734375
vt 0.625000 0.015625
vt 0.598911 0.008153
vt 0.575000 0.007823
vt 0.599967 0.015625
vt 0.575000 0.015625
vt 0.575000 0.000000
vt 0.598911 0.997561
vt 0.129636 0.515625
vt 0.134259 0.507823
vt 0.134259 0.515625
vt 0.125000 0.508153
vt 0.129831 0.508153
vt 0.425000 0.242177
vt 0.375000 0.234375
vt 0.425000 0.234375
vt 0.425000 0.254636
vt 0.375000 0.241847
vt 0.375000 0.259259
vt 0.425000 0.259259
vt 0.134259 0.500000
vt 0.129831 0.500000
vt 0.865741 0.500000
vt 0.875000 0.515625
vt 0.865741 0.515625
vt 0.599967 0.259259
vt 0.625000 0.252700
vt 0.625000 0.259259
vt 0.575000 0.254636
vt 0.575000 0.259259
vt 0.575000 0.242177
vt 0.598911 0.254831
vt 0.599967 0.234375
vt 0.575000 0.234375
vt 0.625000 0.234375
vt 0.598911 0.242666
vt 0.370364 0.734375
vt 0.365741 0.742177
vt 0.365741 0.734375
vt 0.398882 0.741847
vt 0.370169 0.741847
vt 0.425000 0.742177
vt 0.400033 0.734375
vt 0.425000 0.734375
vt 0.425000 0.754636
vt 0.370368 0.754627
vt 0.425000 0.759259
vt 0.373226 0.753057
vt 0.629627 0.754632
vt 0.629636 0.734375
vt 0.634259 0.734375
vt 0.599967 0.759259
vt 0.628057 0.751774
vt 0.575000 0.754636
vt 0.575000 0.759259
vt 0.575000 0.742177
vt 0.598911 0.754831
vt 0.599967 0.734375
vt 0.575000 0.734375
vt 0.598911 0.742667
vt 0.365741 0.507823
vt 0.370364 0.515625
vt 0.365741 0.515625
vt 0.370368 0.495373
vt 0.370169 0.508153
vt 0.425000 0.495364
vt 0.425000 0.490741
vt 0.425000 0.507823
vt 0.373226 0.496943
vt 0.400033 0.515625
vt 0.425000 0.515625
vt 0.398882 0.508153
vt 0.629636 0.515625
vt 0.629627 0.495368
vt 0.634259 0.515625
vt 0.598911 0.508153
vt 0.623221 0.504389
vt 0.575000 0.507823
vt 0.599967 0.515625
vt 0.575000 0.515625
vt 0.575000 0.495364
vt 0.599967 0.490741
vt 0.575000 0.490741
vt 0.598911 0.495861
vt 0.125000 0.515625
vt 0.625000 0.990741
vt 0.968750 0.566667
vt 0.999579 0.500000
vt 1.000000 0.566667
vt 0.750000 0.489938
vt 0.792544 0.463886
vt 0.750000 0.468076
vt 1.000000 0.933333
vt 0.968750 1.000000
vt 0.968750 0.933333
vt 0.250000 0.489938
vt 0.292545 0.463886
vt 0.296809 0.485328
vt 0.937500 0.500000
vt 0.968750 0.500000
vt 0.796809 0.485328
vt 0.833454 0.451476
vt 0.937500 1.000000
vt 0.937500 0.933333
vt 0.341820 0.471674
vt 0.333454 0.451476
vt 0.937500 0.566667
vt 0.906250 0.500000
vt 0.841820 0.471674
vt 0.871157 0.431324
vt 0.906250 1.000000
vt 0.906250 0.933333
vt 0.383302 0.449501
vt 0.371157 0.431324
vt 0.875000 0.566667
vt 0.906250 0.566667
vt 0.883302 0.449501
vt 0.904203 0.404203
vt 0.875000 1.000000
vt 0.875000 0.933333
vt 0.419662 0.419662
vt 0.404203 0.404203
vt 0.843750 0.566667
vt 0.875000 0.500000
vt 0.949501 0.383302
vt 0.919662 0.419662
vt 0.843750 0.933333
vt 0.843750 1.000000
vt 0.431324 0.371157
vt 0.449501 0.383302
vt 0.812500 0.566667
vt 0.843750 0.500000
vt 0.951476 0.333454
vt 0.931324 0.371157
vt 0.812500 0.933333
vt 0.812500 1.000000
vt 0.451476 0.333454
vt 0.471674 0.341820
vt 0.781250 0.566667
vt 0.812500 0.500000
vt 0.985328 0.296810
vt 0.971674 0.341820
vt 0.781250 0.933333
vt 0.781250 1.000000
vt 0.485328 0.296810
vt 0.463886 0.292545
vt 0.750000 0.566667
vt 0.781250 0.500000
vt 0.989938 0.250000
vt 0.963886 0.292545
vt 0.750000 0.933333
vt 0.750000 1.000000
vt 0.489938 0.250000
vt 0.468076 0.250000
vt 0.718750 0.500000
vt 0.750000 0.500000
vt 0.963886 0.207456
vt 0.968076 0.250000
vt 0.718750 1.000000
vt 0.718750 0.933333
vt 0.463886 0.207455
vt 0.485328 0.203190
vt 0.718750 0.566667
vt 0.687500 0.500000
vt 0.985328 0.203190
vt 0.951476 0.166546
vt 0.687500 1.000000
vt 0.687500 0.933333
vt 0.451476 0.166546
vt 0.471674 0.158180
vt 0.687500 0.566667
vt 0.656250 0.500000
vt 0.949501 0.116698
vt 0.971674 0.158180
vt 0.656250 1.000000
vt 0.656250 0.933333
vt 0.449501 0.116698
vt 0.431324 0.128843
vt 0.656250 0.566667
vt 0.625000 0.500000
vt 0.904203 0.095797
vt 0.931324 0.128843
vt 0.625000 1.000000
vt 0.625000 0.933333
vt 0.419662 0.080338
vt 0.404203 0.095797
vt 0.593750 0.566667
vt 0.625000 0.566667
vt 0.883302 0.050499
vt 0.919662 0.080338
vt 0.593750 0.933333
vt 0.593750 1.000000
vt 0.383302 0.050499
vt 0.371157 0.068676
vt 0.562500 0.566667
vt 0.593750 0.500000
vt 0.841820 0.028326
vt 0.871157 0.068676
vt 0.562500 0.933333
vt 0.562500 1.000000
vt 0.333454 0.048524
vt 0.341820 0.028326
vt 0.531250 0.566667
vt 0.562500 0.500000
vt 0.796809 0.014672
vt 0.833454 0.048524
vt 0.531250 0.933333
vt 0.531250 1.000000
vt 0.296810 0.014672
vt 0.292545 0.036114
vt 0.500000 0.566667
vt 0.531250 0.500000
vt 0.750000 0.010062
vt 0.792544 0.036114
vt 0.500000 1.000000
vt 0.500000 0.933333
vt 0.250000 0.010062
vt 0.250000 0.031924
vt 0.468750 0.566667
vt 0.500000 0.500000
vt 0.707455 0.036114
vt 0.750000 0.031924
vt 0.468750 1.000000
vt 0.468750 0.933333
vt 0.207456 0.036114
vt 0.203190 0.014672
vt 0.437500 0.500000
vt 0.468750 0.500000
vt 0.658180 0.028326
vt 0.703191 0.014672
vt 0.437500 1.000000
vt 0.437500 0.933333
vt 0.166546 0.048524
vt 0.158180 0.028326
vt 0.406250 0.566667
vt 0.437500 0.566667
vt 0.616698 0.050499
vt 0.666546 0.048524
vt 0.406250 1.000000
vt 0.406250 0.933333
vt 0.128843 0.068676
vt 0.116698 0.050499
vt 0.375000 0.500000
vt 0.406250 0.500000
vt 0.595797 0.095797
vt 0.628843 0.068676
vt 0.375000 1.000000
vt 0.375000 0.933333
vt 0.095797 0.095797
vt 0.080338 0.080338
vt 0.343750 0.566667
vt 0.375000 0.566667
vt 0.550499 0.116698
vt 0.580338 0.080338
vt 0.343750 1.000000
vt 0.343750 0.933333
vt 0.050499 0.116698
vt 0.068676 0.128843
vt 0.312500 0.566667
vt 0.343750 0.500000
vt 0.528326 0.158180
vt 0.568676 0.128843
vt 0.312500 0.933333
vt 0.312500 1.000000
vt 0.048524 0.166546
vt 0.028326 0.158180
vt 0.281250 0.566667
vt 0.312500 0.500000
vt 0.514672 0.203190
vt 0.548524 0.166546
vt 0.281250 0.933333
vt 0.281250 1.000000
vt 0.014672 0.203190
vt 0.036114 0.207456
vt 0.250000 0.566667
vt 0.281250 0.500000
vt 0.510062 0.250000
vt 0.536114 0.207456
vt 0.250000 0.933333
vt 0.250000 1.000000
vt 0.010062 0.250000
vt 0.031924 0.250000
vt 0.218750 0.500000
vt 0.250000 0.500000
vt 0.536114 0.292544
vt 0.531924 0.250000
vt 0.218750 1.000000
vt 0.218750 0.933333
vt 0.036114 0.292544
vt 0.014672 0.296810
vt 0.218750 0.566667
vt 0.187500 0.500000
vt 0.514672 0.296810
vt 0.548524 0.333454
vt 0.187500 1.000000
vt 0.187500 0.933333
vt 0.048524 0.333454
vt 0.028326 0.341820
vt 0.156250 0.566667
vt 0.187500 0.566667
vt 0.550499 0.383302
vt 0.528326 0.341820
vt 0.156250 0.933333
vt 0.156250 1.000000
vt 0.068676 0.371157
vt 0.050499 0.383302
vt 0.125000 0.566667
vt 0.156250 0.500000
vt 0.580338 0.419662
vt 0.568676 0.371157
vt 0.125000 1.000000
vt 0.125000 0.933333
vt 0.095797 0.404203
vt 0.080338 0.419662
vt 0.093750 0.566667
vt 0.125000 0.500000
vt 0.616698 0.449501
vt 0.595797 0.404203
vt 0.093750 0.933333
vt 0.093750 1.000000
vt 0.116698 0.449501
vt 0.128843 0.431324
vt 0.062500 0.500000
vt 0.093750 0.500000
vt 0.666546 0.451476
vt 0.628843 0.431324
vt 0.062500 0.933333
vt 0.062500 1.000000
vt 0.166546 0.451476
vt 0.158180 0.471674
vt 0.031250 0.566667
vt 0.062500 0.566667
vt 0.658180 0.471674
vt 0.707456 0.463886
vt 0.031250 0.933333
vt 0.031250 1.000000
vt 0.203190 0.485328
vt 0.207456 0.463886
vt 0.000000 0.566667
vt 0.031250 0.500000
vt 0.703190 0.485328
vt 0.000421 1.000000
vt 0.000000 0.933333
vt 0.250000 0.468076
vt 1.000000 0.540000
vt 0.937500 0.500000
vt 0.999290 0.500000
vt 0.750000 0.489792
vt 0.834907 0.454985
vt 0.750000 0.471874
vt 0.937500 0.960000
vt 0.999290 1.000000
vt 0.937500 1.000000
vt 0.250000 0.489792
vt 0.334908 0.454985
vt 0.341765 0.471539
vt 0.875000 0.540000
vt 0.937500 0.540000
vt 0.841765 0.471539
vt 0.906889 0.406889
vt 0.875000 1.000000
vt 0.875000 0.960000
vt 0.406889 0.406889
vt 0.419559 0.419559
vt 0.812500 0.540000
vt 0.875000 0.500000
vt 0.971539 0.341765
vt 0.919559 0.419559
vt 0.812500 0.960000
vt 0.812500 1.000000
vt 0.471539 0.341765
vt 0.454985 0.334907
vt 0.812500 0.500000
vt 0.989792 0.250000
vt 0.954985 0.334908
vt 0.750000 0.960000
vt 0.471874 0.250000
vt 0.489792 0.250000
vt 0.687500 0.540000
vt 0.750000 0.540000
vt 0.954985 0.165093
vt 0.971874 0.250000
vt 0.687500 1.000000
vt 0.687500 0.960000
vt 0.454985 0.165093
vt 0.471539 0.158235
vt 0.625000 0.540000
vt 0.687500 0.500000
vt 0.919559 0.080441
vt 0.971539 0.158235
vt 0.625000 0.960000
vt 0.406889 0.093111
vt 0.419559 0.080441
vt 0.562500 0.540000
vt 0.625000 0.500000
vt 0.841765 0.028461
vt 0.906888 0.093111
vt 0.562500 0.960000
vt 0.562500 1.000000
vt 0.334907 0.045015
vt 0.341765 0.028461
vt 0.500000 0.540000
vt 0.562500 0.500000
vt 0.750000 0.010208
vt 0.834907 0.045015
vt 0.500000 0.960000
vt 0.500000 1.000000
vt 0.250000 0.010208
vt 0.250000 0.028126
vt 0.437500 0.540000
vt 0.500000 0.500000
vt 0.658235 0.028461
vt 0.750000 0.028126
vt 0.437500 1.000000
vt 0.437500 0.960000
vt 0.165093 0.045015
vt 0.158235 0.028461
vt 0.375000 0.500000
vt 0.437500 0.500000
vt 0.593111 0.093111
vt 0.665093 0.045015
vt 0.375000 1.000000
vt 0.375000 0.960000
vt 0.080441 0.080441
vt 0.093111 0.093111
vt 0.375000 0.540000
vt 0.312500 0.500000
vt 0.528461 0.158235
vt 0.580441 0.080441
vt 0.312500 1.000000
vt 0.312500 0.960000
vt 0.028461 0.158235
vt 0.045015 0.165093
vt 0.250000 0.540000
vt 0.312500 0.540000
vt 0.528126 0.250000
vt 0.545015 0.165093
vt 0.250000 0.960000
vt 0.250000 1.000000
vt 0.028126 0.250000
vt 0.010208 0.250000
vt 0.187500 0.540000
vt 0.250000 0.500000
vt 0.528461 0.341765
vt 0.510207 0.250000
vt 0.187500 1.000000
vt 0.187500 0.960000
vt 0.045015 0.334908
vt 0.028461 0.341765
vt 0.125000 0.540000
vt 0.187500 0.500000
vt 0.580441 0.419559
vt 0.545015 0.334907
vt 0.125000 1.000000
vt 0.125000 0.960000
vt 0.093111 0.406889
vt 0.080441 0.419559
vt 0.062500 0.540000
vt 0.125000 0.500000
vt 0.658235 0.471539
vt 0.593111 0.406889
vt 0.062500 0.960000
vt 0.062500 1.000000
vt 0.158235 0.471539
vt 0.165093 0.454985
vt 0.000000 0.540000
vt 0.665093 0.454985
vt 0.000710 1.000000
vt 0.000000 0.960000
vt 0.250000 0.471874
vt 1.000000 0.960000
vt 0.152778 0.742177
vt 0.138907 0.734375
vt 0.152778 0.734375
vt 0.152778 0.750000
vt 0.139494 0.741847
vt 0.394231 1.000000
vt 0.375000 0.972222
vt 0.394231 0.972222
vt 0.394231 0.007823
vt 0.394231 0.000000
vt 0.375000 0.015625
vt 0.394231 0.015625
vt 0.125000 0.741847
vt 0.125000 0.734375
vt 0.139494 0.750000
vt 0.615372 0.972222
vt 0.605769 1.000000
vt 0.605769 0.972222
vt 0.625000 0.985506
vt 0.614966 0.985506
vt 0.875000 0.734375
vt 0.847222 0.750000
vt 0.847222 0.734375
vt 0.614966 0.008153
vt 0.605769 0.007823
vt 0.615372 0.015625
vt 0.605769 0.015625
vt 0.614966 0.004115
vt 0.614966 0.992684
vt 0.138907 0.515625
vt 0.152778 0.507823
vt 0.152778 0.515625
vt 0.139494 0.508153
vt 0.394231 0.242177
vt 0.375000 0.234375
vt 0.394231 0.234375
vt 0.375000 0.264494
vt 0.375000 0.277778
vt 0.394231 0.263907
vt 0.394231 0.277778
vt 0.152778 0.500000
vt 0.139494 0.500000
vt 0.847222 0.500000
vt 0.875000 0.515625
vt 0.847222 0.515625
vt 0.615372 0.277778
vt 0.625000 0.258100
vt 0.625000 0.277778
vt 0.605769 0.263907
vt 0.605769 0.277778
vt 0.605769 0.242177
vt 0.614965 0.264494
vt 0.615372 0.234375
vt 0.605769 0.234375
vt 0.625000 0.234375
vt 0.614966 0.243044
vt 0.361093 0.734375
vt 0.347222 0.742177
vt 0.347222 0.734375
vt 0.383692 0.741847
vt 0.360506 0.741847
vt 0.394231 0.742177
vt 0.384628 0.734375
vt 0.394231 0.734375
vt 0.369677 0.759171
vt 0.361155 0.763932
vt 0.394231 0.763907
vt 0.394231 0.777778
vt 0.638932 0.763845
vt 0.638907 0.734375
vt 0.652778 0.734375
vt 0.615372 0.777778
vt 0.634171 0.755323
vt 0.605769 0.763907
vt 0.605769 0.777778
vt 0.605769 0.742177
vt 0.614965 0.764494
vt 0.615372 0.734375
vt 0.605769 0.734375
vt 0.614966 0.743044
vt 0.347222 0.507823
vt 0.361093 0.515625
vt 0.347222 0.515625
vt 0.361155 0.486068
vt 0.360506 0.508153
vt 0.394231 0.486093
vt 0.394231 0.472222
vt 0.394231 0.507823
vt 0.369677 0.490829
vt 0.384628 0.515625
vt 0.394231 0.515625
vt 0.383692 0.508153
vt 0.638907 0.515625
vt 0.638932 0.486155
vt 0.652778 0.515625
vt 0.614966 0.508153
vt 0.632311 0.501588
vt 0.605769 0.507823
vt 0.615372 0.515625
vt 0.605769 0.515625
vt 0.614966 0.486946
vt 0.615372 0.472222
vt 0.605769 0.486093
vt 0.605769 0.472222
vt 0.605769 0.000000
vt 0.625000 0.972222
vt 1.000000 1.000000
vt 0.916667 0.500000
vt 1.000000 0.500000
vt 0.916667 1.000000
vt 0.833333 0.500000
vt 0.833333 1.000000
vt 0.750000 0.500000
vt 0.750000 1.000000
vt 0.666667 0.500000
vt 0.666667 1.000000
vt 0.583333 0.500000
vt 0.583333 1.000000
vt 0.500000 0.500000
vt 0.500000 1.000000
vt 0.416667 0.500000
vt 0.416667 1.000000
vt 0.333333 0.500000
vt 0.333333 1.000000
vt 0.250000 0.500000
vt 0.250000 1.000000
vt 0.166667 0.500000
vt 0.042154 0.370000
vt 0.250000 0.010000
vt 0.457846 0.370000
vt 0.166667 1.000000
vt 0.083333 0.500000
vt 0.083333 1.000000
vt 0.000000 0.500000
vt 0.990000 0.250000
vt 0.630000 0.042154
vt 0.630000 0.457846
vt 0.375000 0.991493
vt 0.375000 0.016306
vt 0.866493 0.750000
vt 0.618478 0.008230
vt 0.375000 0.258507
vt 0.866493 0.500000
vt 0.375000 0.995169
vt 0.375000 0.008153
vt 0.870169 0.750000
vt 0.598911 0.004115
vt 0.375000 0.254831
vt 0.870169 0.500000
vt 0.999579 1.000000
vt 0.000421 0.500000
vt 0.000710 0.500000
vt 0.375000 0.985506
vt 0.860506 0.750000
vt 0.860506 0.500000
vt 0.370000 0.457846
vt 0.250000 0.490000
vt 0.130000 0.457846
vt 0.010000 0.250000
vt 0.042154 0.130000
vt 0.130000 0.042154
vt 0.370000 0.042154
vt 0.457846 0.130000
vt 0.490000 0.250000
vt 0.000000 1.000000
vt 0.750000 0.490000
vt 0.870000 0.457846
vt 0.957846 0.370000
vt 0.957846 0.130000
vt 0.870000 0.042154
vt 0.750000 0.010000
vt 0.542154 0.130000
vt 0.510000 0.250000
vt 0.542154 0.370000
s 0
usemtl ServoBody
f 4/1/1 5/2/1 1/3/1
f 8/4/2 6/5/2 4/1/2
f 7/6/3 8/7/3 2/8/3
f 11/9/4 9/10/4 7/11/4
f 10/12/5 11/9/5 3/13/5
f 10/14/6 6/5/6 12/15/6
f 6/5/7 9/16/7 12/15/7
f 16/17/8 17/18/8 13/19/8
f 16/17/9 21/20/9 18/21/9
f 19/22/10 20/23/10 14/24/10
f 23/25/11 21/26/11 19/27/11
f 22/28/12 23/25/12 15/29/12
f 17/30/13 24/31/13 22/28/13
f 18/21/14 21/20/14 24/32/14
f 28/33/15 29/34/15 25/35/15
f 32/36/16 30/37/16 28/33/16
f 31/38/17 32/39/17 26/40/17
f 35/41/18 33/42/18 31/38/18
f 34/43/19 35/41/19 27/44/19
f 29/34/20 36/45/20 34/46/20
f 30/37/21 33/47/21 36/45/21
f 40/48/22 41/49/22 37/50/22
f 44/51/23 42/52/23 40/53/23
f 43/54/24 44/51/24 38/55/24
f 47/56/25 45/57/25 43/54/25
f 46/58/26 47/56/26 39/59/26
f 46/58/27 42/52/27 48/60/27
f 42/52/28 45/57/28 48/60/28
f 52/61/29 53/62/29 49/63/29
f 56/64/30 54/65/30 52/61/30
f 55/66/31 56/64/31 50/67/31
f 59/68/32 57/69/32 55/66/32
f 58/70/33 59/68/33 51/71/33
f 53/62/34 60/72/34 58/70/34
f 54/65/35 57/69/35 60/72/35
f 64/73/36 65/74/36 61/75/36
f 68/76/37 66/77/37 64/73/37
f 67/78/38 68/76/38 62/79/38
f 71/80/39 69/81/39 67/78/39
f 70/82/40 71/80/40 63/83/40
f 70/82/41 66/77/41 72/84/41
f 66/77/42 69/81/42 72/84/42
f 76/85/43 77/86/43 73/87/43
f 80/88/44 78/89/44 76/85/44
f 79/90/45 80/88/45 74/91/45
f 83/92/46 81/93/46 79/90/46
f 82/94/47 83/92/47 75/95/47
f 82/94/48 78/89/48 84/96/48
f 78/89/49 81/93/49 84/96/49
f 88/97/50 89/98/50 85/99/50
f 92/100/51 90/101/51 88/97/51
f 91/102/52 92/100/52 86/103/52
f 95/104/53 93/105/53 91/102/53
f 94/106/54 95/104/54 87/107/54
f 89/98/55 96/108/55 94/106/55
f 90/101/56 93/105/56 96/108/56
f 1/3/57 28/33/57 25/35/57
f 5/2/58 32/36/58 28/33/58
f 10/12/59 26/40/59 32/39/59
f 13/19/60 7/6/60 2/8/60
f 17/30/61 11/9/61 7/11/61
f 11/9/62 15/29/62 3/13/62
f 37/50/63 19/22/63 14/24/63
f 41/109/64 23/25/64 19/27/64
f 46/58/65 15/29/65 23/25/65
f 27/44/66 43/54/66 38/55/66
f 35/41/67 47/56/67 43/54/67
f 31/38/68 39/59/68 47/56/68
f 73/87/69 29/34/69 76/85/69
f 29/34/70 80/88/70 76/85/70
f 34/43/71 74/91/71 80/88/71
f 37/50/72 89/98/72 40/48/72
f 89/98/73 44/51/73 40/53/73
f 94/106/74 38/55/74 44/51/74
f 75/95/75 91/102/75 86/103/75
f 83/92/76 95/104/76 91/102/76
f 79/90/77 87/107/77 95/104/77
f 73/87/78 52/61/78 49/63/78
f 77/86/79 56/64/79 52/61/79
f 82/94/80 50/67/80 56/64/80
f 61/75/81 88/97/81 85/99/81
f 65/74/82 92/100/82 88/97/82
f 70/82/83 86/103/83 92/100/83
f 51/71/84 67/78/84 62/79/84
f 59/68/85 71/80/85 67/78/85
f 55/66/86 63/83/86 71/80/86
f 1/3/87 53/62/87 4/1/87
f 53/62/88 8/4/88 4/1/88
f 58/70/89 2/8/89 8/7/89
f 14/24/90 64/73/90 61/75/90
f 20/110/91 68/76/91 64/73/91
f 16/17/92 62/79/92 68/76/92
f 73/87/93 1/3/93 25/35/93
f 15/29/94 26/40/94 3/13/94
f 62/79/95 2/8/95 51/71/95
f 37/50/96 61/75/96 85/99/96
f 38/55/97 74/91/97 27/44/97
f 86/103/98 50/67/98 75/95/98
f 4/1/362 6/5/362 5/2/362
f 8/4/2 9/16/2 6/5/2
f 7/6/363 9/741/363 8/7/363
f 11/9/4 12/742/4 9/10/4
f 10/12/364 12/742/364 11/9/364
f 10/14/6 5/2/6 6/5/6
f 16/17/365 18/21/365 17/18/365
f 16/17/9 20/110/9 21/20/9
f 19/22/366 21/743/366 20/23/366
f 23/25/11 24/31/11 21/26/11
f 22/28/367 24/31/367 23/25/367
f 17/30/13 18/744/13 24/31/13
f 28/33/368 30/37/368 29/34/368
f 32/36/16 33/47/16 30/37/16
f 31/38/369 33/42/369 32/39/369
f 35/41/18 36/745/18 33/42/18
f 34/43/370 36/745/370 35/41/370
f 29/34/20 30/37/20 36/45/20
f 40/48/371 42/746/371 41/49/371
f 44/51/23 45/57/23 42/52/23
f 43/54/372 45/57/372 44/51/372
f 47/56/25 48/60/25 45/57/25
f 46/58/373 48/60/373 47/56/373
f 46/58/27 41/109/27 42/52/27
f 52/61/374 54/65/374 53/62/374
f 56/64/30 57/69/30 54/65/30
f 55/66/375 57/69/375 56/64/375
f 59/68/32 60/72/32 57/69/32
f 58/70/376 60/72/376 59/68/376
f 53/62/34 54/65/34 60/72/34
f 64/73/377 66/77/377 65/74/377
f 68/76/37 69/81/37 66/77/37
f 67/78/378 69/81/378 68/76/378
f 71/80/39 72/84/39 69/81/39
f 70/82/379 72/84/379 71/80/379
f 70/82/41 65/74/41 66/77/41
f 76/85/380 78/89/380 77/86/380
f 80/88/44 81/93/44 78/89/44
f 79/90/381 81/93/381 80/88/381
f 83/92/46 84/96/46 81/93/46
f 82/94/382 84/96/382 83/92/382
f 82/94/48 77/86/48 78/89/48
f 88/97/383 90/101/383 89/98/383
f 92/100/51 93/105/51 90/101/51
f 91/102/384 93/105/384 92/100/384
f 95/104/53 96/108/53 93/105/53
f 94/106/385 96/108/385 95/104/385
f 89/98/55 90/101/55 96/108/55
f 1/3/57 5/2/57 28/33/57
f 5/2/58 10/14/58 32/36/58
f 10/12/59 3/13/59 26/40/59
f 13/19/60 17/18/60 7/6/60
f 17/30/61 22/28/61 11/9/61
f 11/9/62 22/28/62 15/29/62
f 37/50/63 41/49/63 19/22/63
f 41/109/64 46/58/64 23/25/64
f 46/58/65 39/59/65 15/29/65
f 27/44/66 35/41/66 43/54/66
f 35/41/67 31/38/67 47/56/67
f 31/38/68 26/40/68 39/59/68
f 73/87/69 25/35/69 29/34/69
f 29/34/70 34/46/70 80/88/70
f 34/43/71 27/44/71 74/91/71
f 37/50/72 85/99/72 89/98/72
f 89/98/73 94/106/73 44/51/73
f 94/106/74 87/107/74 38/55/74
f 75/95/75 83/92/75 91/102/75
f 83/92/76 79/90/76 95/104/76
f 79/90/77 74/91/77 87/107/77
f 73/87/78 77/86/78 52/61/78
f 77/86/79 82/94/79 56/64/79
f 82/94/80 75/95/80 50/67/80
f 61/75/81 65/74/81 88/97/81
f 65/74/82 70/82/82 92/100/82
f 70/82/83 63/83/83 86/103/83
f 51/71/84 59/68/84 67/78/84
f 59/68/85 55/66/85 71/80/85
f 55/66/86 50/67/86 63/83/86
f 1/3/87 49/63/87 53/62/87
f 53/62/88 58/70/88 8/4/88
f 58/70/89 51/71/89 2/8/89
f 14/24/90 20/23/90 64/73/90
f 20/110/91 16/17/91 68/76/91
f 16/17/92 13/19/92 62/79/92
f 73/87/93 49/63/93 1/3/93
f 15/29/94 39/59/94 26/40/94
f 62/79/95 13/19/95 2/8/95
f 37/50/96 14/24/96 61/75/96
f 38/55/97 87/107/97 74/91/97
f 86/103/98 63/83/98 50/67/98
usemtl ServoBlue
f 100/111/1 101/112/1 97/113/1
f 104/114/2 102/115/2 100/111/2
f 103/116/3 104/117/3 98/118/3
f 107/119/4 105/10/4 103/120/4
f 106/121/5 107/119/5 99/122/5
f 101/112/6 108/123/6 106/124/6
f 102/115/99 105/125/99 108/123/99
f 112/126/8 113/127/8 109/128/8
f 112/126/9 117/129/9 114/130/9
f 115/131/10 116/132/10 110/133/10
f 115/134/11 120/135/11 117/26/11
f 118/136/12 119/137/12 111/138/12
f 113/139/13 120/135/13 118/136/13
f 114/130/100 117/129/100 120/140/100
f 124/141/15 125/142/15 121/143/15
f 124/141/16 129/144/16 126/145/16
f 127/146/17 128/147/17 122/148/17
f 131/149/18 129/150/18 127/146/18
f 130/151/19 131/149/19 123/152/19
f 130/153/20 126/145/20 132/154/20
f 126/145/101 129/144/101 132/154/101
f 136/155/22 137/156/22 133/157/22
f 140/158/23 138/159/23 136/160/23
f 139/161/24 140/158/24 134/162/24
f 143/163/25 141/164/25 139/161/25
f 142/165/26 143/163/26 135/166/26
f 137/167/27 144/168/27 142/165/27
f 138/159/102 141/164/102 144/168/102
f 148/169/29 149/170/29 145/171/29
f 148/169/30 153/172/30 150/173/30
f 151/174/31 152/175/31 146/176/31
f 155/177/32 153/172/32 151/174/32
f 154/178/33 155/177/33 147/179/33
f 154/178/34 150/173/34 156/180/34
f 150/173/103 153/172/103 156/180/103
f 160/181/36 161/182/36 157/183/36
f 164/184/37 162/185/37 160/181/37
f 163/186/38 164/184/38 158/187/38
f 167/188/39 165/189/39 163/186/39
f 166/190/40 167/188/40 159/191/40
f 161/182/41 168/192/41 166/190/41
f 162/185/104 165/189/104 168/192/104
f 172/193/43 173/194/43 169/195/43
f 176/196/44 174/197/44 172/193/44
f 175/198/45 176/196/45 170/199/45
f 179/200/46 177/201/46 175/198/46
f 178/202/47 179/200/47 171/203/47
f 173/194/48 180/204/48 178/202/48
f 174/197/105 177/201/105 180/204/105
f 184/205/50 185/206/50 181/207/50
f 184/205/51 189/208/51 186/209/51
f 187/210/52 188/211/52 182/212/52
f 191/213/53 189/208/53 187/210/53
f 190/214/54 191/213/54 183/215/54
f 190/214/55 186/209/55 192/216/55
f 186/209/106 189/208/106 192/216/106
f 97/113/107 124/141/107 121/143/107
f 101/112/58 128/217/58 124/141/58
f 106/121/59 122/148/59 128/147/59
f 109/128/60 103/116/60 98/118/60
f 113/139/61 107/119/61 103/120/61
f 107/119/62 111/138/62 99/122/62
f 133/157/63 115/131/63 110/133/63
f 137/167/64 119/137/64 115/134/64
f 142/165/65 111/138/65 119/137/65
f 134/162/66 131/149/66 139/161/66
f 131/149/67 143/163/67 139/161/67
f 127/146/68 135/166/68 143/163/68
f 121/143/69 172/193/69 169/195/69
f 125/142/70 176/196/70 172/193/70
f 130/151/71 170/199/71 176/196/71
f 181/207/72 136/155/72 133/157/72
f 185/206/73 140/158/73 136/160/73
f 190/214/74 134/162/74 140/158/74
f 182/212/75 179/200/75 187/210/75
f 179/200/76 191/213/76 187/210/76
f 175/198/77 183/215/77 191/213/77
f 169/195/108 148/169/108 145/171/108
f 173/194/79 152/175/79 148/169/79
f 178/202/80 146/176/80 152/175/80
f 157/183/81 184/205/81 181/207/81
f 161/182/82 188/211/82 184/205/82
f 166/190/83 182/212/83 188/211/83
f 158/187/84 155/177/84 163/186/84
f 155/177/85 167/188/85 163/186/85
f 151/174/86 159/191/86 167/188/86
f 145/171/87 100/111/87 97/113/87
f 149/170/88 104/114/88 100/111/88
f 154/178/89 98/118/89 104/117/89
f 110/133/90 160/181/90 157/183/90
f 116/218/91 164/184/91 160/181/91
f 112/126/92 158/187/92 164/184/92
f 169/195/93 97/113/93 121/143/93
f 111/138/94 122/148/94 99/122/94
f 158/187/95 98/118/95 147/179/95
f 133/157/96 157/183/96 181/207/96
f 134/162/97 170/199/97 123/152/97
f 182/212/98 146/176/98 171/203/98
f 100/111/362 102/115/362 101/112/362
f 104/114/2 105/125/2 102/115/2
f 103/116/363 105/747/363 104/117/363
f 107/119/4 108/748/4 105/10/4
f 106/121/364 108/748/364 107/119/364
f 101/112/6 102/115/6 108/123/6
f 112/126/365 114/130/365 113/127/365
f 112/126/9 116/218/9 117/129/9
f 115/131/366 117/749/366 116/132/366
f 115/134/11 119/137/11 120/135/11
f 118/136/367 120/135/367 119/137/367
f 113/139/13 114/750/13 120/135/13
f 124/141/368 126/145/368 125/142/368
f 124/141/16 128/217/16 129/144/16
f 127/146/369 129/150/369 128/147/369
f 131/149/18 132/751/18 129/150/18
f 130/151/370 132/751/370 131/149/370
f 130/153/20 125/142/20 126/145/20
f 136/155/371 138/752/371 137/156/371
f 140/158/23 141/164/23 138/159/23
f 139/161/372 141/164/372 140/158/372
f 143/163/25 144/168/25 141/164/25
f 142/165/373 144/168/373 143/163/373
f 137/167/27 138/159/27 144/168/27
f 148/169/374 150/173/374 149/170/374
f 148/169/30 152/175/30 153/172/30
f 151/174/375 153/172/375 152/175/375
f 155/177/32 156/180/32 153/172/32
f 154/178/376 156/180/376 155/177/376
f 154/178/34 149/170/34 150/173/34
f 160/181/377 162/185/377 161/182/377
f 164/184/37 165/189/37 162/185/37
f 163/186/378 165/189/378 164/184/378
f 167/188/39 168/192/39 165/189/39
f 166/190/379 168/192/379 167/188/379
f 161/182/41 162/185/41 168/192/41
f 172/193/380 174/197/380 173/194/380
f 176/196/44 177/201/44 174/197/44
f 175/198/381 177/201/381 176/196/381
f 179/200/46 180/204/46 177/201/46
f 178/202/382 180/204/382 179/200/382
f 173/194/48 174/197/48 180/204/48
f 184/205/383 186/209/383 185/206/383
f 184/205/51 188/211/51 189/208/51
f 187/210/384 189/208/384 188/211/384
f 191/213/53 192/216/53 189/208/53
f 190/214/385 192/216/385 191/213/385
f 190/214/55 185/206/55 186/209/55
f 97/113/57 101/112/57 124/141/57
f 101/112/58 106/124/58 128/217/58
f 106/121/59 99/122/59 122/148/59
f 109/128/60 113/127/60 103/116/60
f 113/139/61 118/136/61 107/119/61
f 107/119/62 118/136/62 111/138/62
f 133/157/63 137/156/63 115/131/63
f 137/167/64 142/165/64 119/137/64
f 142/165/65 135/166/65 111/138/65
f 134/162/66 123/152/66 131/149/66
f 131/149/67 127/146/67 143/163/67
f 127/146/68 122/148/68 135/166/68
f 121/143/69 125/142/69 172/193/69
f 125/142/70 130/153/70 176/196/70
f 130/151/71 123/152/71 170/199/71
f 181/207/72 185/206/72 136/155/72
f 185/206/73 190/214/73 140/158/73
f 190/214/74 183/215/74 134/162/74
f 182/212/75 171/203/75 179/200/75
f 179/200/76 175/198/76 191/213/76
f 175/198/77 170/199/77 183/215/77
f 169/195/78 173/194/78 148/169/78
f 173/194/79 178/202/79 152/175/79
f 178/202/80 171/203/80 146/176/80
f 157/183/81 161/182/81 184/205/81
f 161/182/82 166/190/82 188/211/82
f 166/190/83 159/191/83 182/212/83
f 158/187/84 147/179/84 155/177/84
f 155/177/85 151/174/85 167/188/85
f 151/174/86 146/176/86 159/191/86
f 145/171/87 149/170/87 100/111/87
f 149/170/88 154/178/88 104/114/88
f 154/178/89 147/179/89 98/118/89
f 110/133/90 116/132/90 160/181/90
f 116/218/91 112/126/91 164/184/91
f 112/126/92 109/128/92 158/187/92
f 169/195/93 145/171/93 97/113/93
f 111/138/94 135/166/94 122/148/94
f 158/187/95 109/128/95 98/118/95
f 133/157/96 110/133/96 157/183/96
f 134/162/97 183/215/97 170/199/97
f 182/212/98 159/191/98 146/176/98
usemtl Cream
f 200/219/109 195/220/109 194/221/109
f 195/222/110 199/223/110 193/224/110
f 197/225/111 204/226/111 203/227/111
f 198/228/112 202/229/112 204/230/112
f 200/219/113 207/231/113 201/232/113
f 201/233/114 205/234/114 199/223/114
f 203/227/115 210/235/115 209/236/115
f 210/237/116 202/229/116 208/238/116
f 206/239/117 213/240/117 207/231/117
f 207/241/118 211/242/118 205/234/118
f 209/236/119 216/243/119 215/244/119
f 216/245/120 208/238/120 214/246/120
f 218/247/121 213/240/121 212/248/121
f 213/249/122 217/250/122 211/242/122
f 215/244/123 222/251/123 221/252/123
f 222/253/124 214/246/124 220/254/124
f 224/255/125 219/256/125 218/247/125
f 225/257/126 217/250/126 219/258/126
f 227/259/127 222/251/127 228/260/127
f 222/253/128 226/261/128 228/262/128
f 230/263/129 225/264/129 224/255/129
f 225/257/130 229/265/130 223/266/130
f 233/267/131 228/260/131 234/268/131
f 228/262/132 232/269/132 234/270/132
f 236/271/133 231/272/133 230/263/133
f 237/273/134 229/265/134 231/274/134
f 239/275/135 234/268/135 240/276/135
f 240/277/136 232/269/136 238/278/136
f 242/279/137 237/280/137 236/271/137
f 243/281/138 235/282/138 237/273/138
f 245/283/139 240/276/139 246/284/139
f 246/285/140 238/278/140 244/286/140
f 242/279/141 249/287/141 243/288/141
f 243/281/142 247/289/142 241/290/142
f 245/283/143 252/291/143 251/292/143
f 246/285/144 250/293/144 252/294/144
f 248/295/145 255/296/145 249/287/145
f 249/297/146 253/298/146 247/289/146
f 251/292/147 258/299/147 257/300/147
f 252/294/148 256/301/148 258/302/148
f 254/303/149 261/304/149 255/296/149
f 261/305/150 253/298/150 255/306/150
f 257/300/151 264/307/151 263/308/151
f 264/309/152 256/301/152 262/310/152
f 260/311/153 267/312/153 261/304/153
f 261/305/154 265/313/154 259/314/154
f 263/308/155 270/315/155 269/316/155
f 270/317/156 262/310/156 268/318/156
f 272/319/157 267/312/157 266/320/157
f 273/321/158 265/313/158 267/322/158
f 275/323/159 270/315/159 276/324/159
f 276/325/160 268/318/160 274/326/160
f 278/327/161 273/328/161 272/319/161
f 279/329/162 271/330/162 273/321/162
f 281/331/163 276/324/163 282/332/163
f 276/325/164 280/333/164 282/334/164
f 284/335/165 279/336/165 278/327/165
f 285/337/166 277/338/166 279/329/166
f 287/339/167 282/332/167 288/340/167
f 288/341/168 280/333/168 286/342/168
f 290/343/169 285/344/169 284/335/169
f 291/345/170 283/346/170 285/337/170
f 287/339/171 294/347/171 293/348/171
f 294/349/172 286/342/172 292/350/172
f 296/351/173 291/352/173 290/343/173
f 291/345/174 295/353/174 289/354/174
f 293/348/175 300/355/175 299/356/175
f 294/349/176 298/357/176 300/358/176
f 296/351/177 303/359/177 297/360/177
f 303/361/178 295/353/178 297/362/178
f 299/356/179 306/363/179 305/364/179
f 300/358/180 304/365/180 306/366/180
f 308/367/181 303/359/181 302/368/181
f 309/369/182 301/370/182 303/361/182
f 305/364/183 312/371/183 311/372/183
f 306/366/184 310/373/184 312/374/184
f 308/367/185 315/375/185 309/376/185
f 309/369/186 313/377/186 307/378/186
f 311/372/187 318/379/187 317/380/187
f 312/374/188 316/381/188 318/382/188
f 320/383/189 315/375/189 314/384/189
f 321/385/190 313/377/190 315/386/190
f 317/380/191 324/387/191 323/388/191
f 324/389/192 316/381/192 322/390/192
f 326/391/193 321/392/193 320/383/193
f 327/393/194 319/394/194 321/385/194
f 329/395/195 324/387/195 330/396/195
f 324/389/196 328/397/196 330/398/196
f 332/399/197 327/400/197 326/391/197
f 333/401/198 325/402/198 327/393/198
f 335/403/199 330/396/199 336/404/199
f 336/405/200 328/397/200 334/406/200
f 338/407/201 333/408/201 332/399/201
f 339/409/202 331/410/202 333/401/202
f 341/411/203 336/404/203 342/412/203
f 342/413/204 334/406/204 340/414/204
f 338/407/205 345/415/205 339/416/205
f 339/409/206 343/417/206 337/418/206
f 341/411/207 348/419/207 347/420/207
f 342/413/208 346/421/208 348/422/208
f 344/423/209 351/424/209 345/415/209
f 345/425/210 349/426/210 343/417/210
f 347/420/211 354/427/211 353/428/211
f 348/422/212 352/429/212 354/430/212
f 356/431/213 351/424/213 350/432/213
f 357/433/214 349/426/214 351/434/214
f 359/435/215 354/427/215 360/436/215
f 354/430/216 358/437/216 360/438/216
f 362/439/217 357/440/217 356/431/217
f 363/441/218 355/442/218 357/433/218
f 359/435/219 366/443/219 365/444/219
f 360/438/220 364/445/220 366/446/220
f 368/447/221 363/448/221 362/439/221
f 369/449/222 361/450/222 363/441/222
f 371/451/223 366/443/223 372/452/223
f 372/453/224 364/445/224 370/454/224
f 368/447/225 375/455/225 369/456/225
f 369/449/226 373/457/226 367/458/226
f 377/459/227 372/452/227 378/460/227
f 372/453/228 376/461/228 378/462/228
f 380/463/229 375/455/229 374/464/229
f 375/465/230 379/466/230 373/457/230
f 383/467/231 378/460/231 384/468/231
f 384/469/232 376/461/232 382/470/232
f 194/471/233 381/472/233 380/463/233
f 195/222/234 379/466/234 381/473/234
f 383/467/235 198/474/235 197/475/235
f 198/228/236 382/470/236 196/476/236
f 283/346/94 331/410/94 379/466/94
f 197/225/237 200/219/237 194/221/237
f 383/467/238 194/471/238 380/463/238
f 304/365/98 256/301/98 208/238/98
f 203/227/239 206/239/239 200/219/239
f 209/236/240 212/248/240 206/239/240
f 215/244/241 218/247/241 212/248/241
f 221/252/242 224/255/242 218/247/242
f 227/259/243 230/263/243 224/255/243
f 233/267/244 236/271/244 230/263/244
f 239/275/245 242/279/245 236/271/245
f 245/283/246 248/295/246 242/279/246
f 251/292/247 254/303/247 248/295/247
f 257/300/248 260/311/248 254/303/248
f 263/308/249 266/320/249 260/311/249
f 269/316/250 272/319/250 266/320/250
f 275/323/251 278/327/251 272/319/251
f 281/331/252 284/335/252 278/327/252
f 287/339/253 290/343/253 284/335/253
f 293/348/254 296/351/254 290/343/254
f 299/356/255 302/368/255 296/351/255
f 305/364/256 308/367/256 302/368/256
f 311/372/257 314/384/257 308/367/257
f 317/380/258 320/383/258 314/384/258
f 323/388/259 326/391/259 320/383/259
f 329/395/260 332/399/260 326/391/260
f 335/403/261 338/407/261 332/399/261
f 341/411/262 344/423/262 338/407/262
f 347/420/263 350/432/263 344/423/263
f 353/428/264 356/431/264 350/432/264
f 359/435/265 362/439/265 356/431/265
f 365/444/266 368/447/266 362/439/266
f 371/451/267 374/464/267 368/447/267
f 377/459/268 380/463/268 374/464/268
f 386/477/269 393/478/269 387/479/269
f 387/480/270 391/481/270 385/482/270
f 395/483/271 390/484/271 396/485/271
f 390/486/272 394/487/272 396/488/272
f 398/489/273 393/478/273 392/490/273
f 393/491/274 397/492/274 391/481/274
f 395/483/275 402/493/275 401/494/275
f 396/488/276 400/495/276 402/496/276
f 404/497/277 399/498/277 398/489/277
f 405/499/278 397/492/278 399/500/278
f 407/501/279 402/493/279 408/502/279
f 408/503/280 400/495/280 406/504/280
f 404/497/281 411/288/281 405/505/281
f 411/506/282 403/507/282 405/499/282
f 413/508/283 408/502/283 414/284/283
f 408/503/284 412/509/284 414/510/284
f 416/511/285 411/288/285 410/512/285
f 411/506/286 415/513/286 409/514/286
f 413/508/287 420/515/287 419/516/287
f 414/510/288 418/517/288 420/518/288
f 422/519/289 417/520/289 416/511/289
f 423/521/290 415/513/290 417/522/290
f 419/516/291 426/315/291 425/523/291
f 420/518/292 424/524/292 426/525/292
f 428/526/293 423/527/293 422/519/293
f 429/528/294 421/529/294 423/521/294
f 431/530/295 426/315/295 432/531/295
f 426/525/296 430/532/296 432/533/296
f 434/534/297 429/535/297 428/526/297
f 435/536/298 427/537/298 429/528/298
f 437/538/299 432/531/299 438/539/299
f 438/540/300 430/532/300 436/541/300
f 440/542/301 435/543/301 434/534/301
f 441/544/302 433/545/302 435/536/302
f 437/538/303 444/546/303 443/547/303
f 438/540/304 442/548/304 444/549/304
f 440/542/305 447/550/305 441/551/305
f 441/544/306 445/552/306 439/553/306
f 443/547/307 450/554/307 449/555/307
f 450/556/308 442/548/308 448/557/308
f 446/558/309 453/559/309 447/550/309
f 453/560/310 445/552/310 447/561/310
f 449/555/311 456/562/311 455/563/311
f 456/564/312 448/557/312 454/565/312
f 458/566/313 453/559/313 452/567/313
f 453/560/314 457/568/314 451/569/314
f 461/570/315 456/562/315 462/571/315
f 456/564/316 460/572/316 462/573/316
f 464/574/317 459/575/317 458/566/317
f 465/576/318 457/568/318 459/577/318
f 461/570/319 468/578/319 467/579/319
f 462/573/320 466/580/320 468/581/320
f 470/582/321 465/583/321 464/574/321
f 471/584/322 463/585/322 465/576/322
f 467/579/323 474/586/323 473/587/323
f 468/581/324 472/588/324 474/589/324
f 476/590/325 471/591/325 470/582/325
f 477/592/326 469/593/326 471/584/326
f 479/594/327 474/586/327 480/595/327
f 480/596/328 472/588/328 478/597/328
f 386/598/329 477/455/329 476/590/329
f 387/480/330 475/599/330 477/592/330
f 479/594/331 390/600/331 389/601/331
f 390/486/332 478/597/332 388/602/332
f 427/537/94 451/569/94 475/599/94
f 389/603/333 392/490/333 386/477/333
f 479/594/334 386/598/334 476/590/334
f 448/557/98 424/524/98 400/495/98
f 395/483/335 398/489/335 392/490/335
f 401/494/336 404/497/336 398/489/336
f 407/501/337 410/512/337 404/497/337
f 413/508/338 416/511/338 410/512/338
f 419/516/339 422/519/339 416/511/339
f 425/523/340 428/526/340 422/519/340
f 431/530/341 434/534/341 428/526/341
f 437/538/342 440/542/342 434/534/342
f 443/547/343 446/558/343 440/542/343
f 449/555/344 452/567/344 446/558/344
f 455/563/345 458/566/345 452/567/345
f 461/570/346 464/574/346 458/566/346
f 467/579/347 470/582/347 464/574/347
f 470/582/348 479/594/348 476/590/348
f 200/219/109 201/232/109 195/220/109
f 195/222/110 201/233/110 199/223/110
f 197/225/111 198/753/111 204/226/111
f 198/228/112 196/476/112 202/229/112
f 200/219/113 206/239/113 207/231/113
f 201/233/114 207/241/114 205/234/114
f 203/227/115 204/226/115 210/235/115
f 210/237/116 204/230/116 202/229/116
f 206/239/117 212/248/117 213/240/117
f 207/241/118 213/249/118 211/242/118
f 209/236/119 210/235/119 216/243/119
f 216/245/120 210/237/120 208/238/120
f 218/247/121 219/256/121 213/240/121
f 213/249/122 219/258/122 217/250/122
f 215/244/123 216/243/123 222/251/123
f 222/253/124 216/245/124 214/246/124
f 224/255/125 225/264/125 219/256/125
f 225/257/126 223/266/126 217/250/126
f 227/259/127 221/252/127 222/251/127
f 222/253/128 220/254/128 226/261/128
f 230/263/129 231/272/129 225/264/129
f 225/257/130 231/274/130 229/265/130
f 233/267/131 227/259/131 228/260/131
f 228/262/132 226/261/132 232/269/132
f 236/271/133 237/280/133 231/272/133
f 237/273/134 235/282/134 229/265/134
f 239/275/135 233/267/135 234/268/135
f 240/277/136 234/270/136 232/269/136
f 242/279/137 243/288/137 237/280/137
f 243/281/138 241/290/138 235/282/138
f 245/283/139 239/275/139 240/276/139
f 246/285/140 240/277/140 238/278/140
f 242/279/141 248/295/141 249/287/141
f 243/281/142 249/297/142 247/289/142
f 245/283/143 246/284/143 252/291/143
f 246/285/144 244/286/144 250/293/144
f 248/295/145 254/303/145 255/296/145
f 249/297/146 255/306/146 253/298/146
f 251/292/147 252/291/147 258/299/147
f 252/294/148 250/293/148 256/301/148
f 254/303/149 260/311/149 261/304/149
f 261/305/150 259/314/150 253/298/150
f 257/300/151 258/299/151 264/307/151
f 264/309/152 258/302/152 256/301/152
f 260/311/153 266/320/153 267/312/153
f 261/305/154 267/322/154 265/313/154
f 263/308/155 264/307/155 270/315/155
f 270/317/156 264/309/156 262/310/156
f 272/319/157 273/328/157 267/312/157
f 273/321/158 271/330/158 265/313/158
f 275/323/159 269/316/159 270/315/159
f 276/325/160 270/317/160 268/318/160
f 278/327/161 279/336/161 273/328/161
f 279/329/162 277/338/162 271/330/162
f 281/331/163 275/323/163 276/324/163
f 276/325/164 274/326/164 280/333/164
f 284/335/165 285/344/165 279/336/165
f 285/337/166 283/346/166 277/338/166
f 287/339/167 281/331/167 282/332/167
f 288/341/168 282/334/168 280/333/168
f 290/343/169 291/352/169 285/344/169
f 291/345/170 289/354/170 283/346/170
f 287/339/171 288/340/171 294/347/171
f 294/349/172 288/341/172 286/342/172
f 296/351/173 297/360/173 291/352/173
f 291/345/174 297/362/174 295/353/174
f 293/348/175 294/347/175 300/355/175
f 294/349/176 292/350/176 298/357/176
f 296/351/177 302/368/177 303/359/177
f 303/361/178 301/370/178 295/353/178
f 299/356/179 300/355/179 306/363/179
f 300/358/180 298/357/180 304/365/180
f 308/367/181 309/376/181 303/359/181
f 309/369/182 307/378/182 301/370/182
f 305/364/183 306/363/183 312/371/183
f 306/366/184 304/365/184 310/373/184
f 308/367/185 314/384/185 315/375/185
f 309/369/186 315/386/186 313/377/186
f 311/372/187 312/371/187 318/379/187
f 312/374/188 310/373/188 316/381/188
f 320/383/189 321/392/189 315/375/189
f 321/385/190 319/394/190 313/377/190
f 317/380/191 318/379/191 324/387/191
f 324/389/192 318/382/192 316/381/192
f 326/391/193 327/400/193 321/392/193
f 327/393/194 325/402/194 319/394/194
f 329/395/195 323/388/195 324/387/195
f 324/389/196 322/390/196 328/397/196
f 332/399/197 333/408/197 327/400/197
f 333/401/198 331/410/198 325/402/198
f 335/403/199 329/395/199 330/396/199
f 336/405/200 330/398/200 328/397/200
f 338/407/201 339/416/201 333/408/201
f 339/409/202 337/418/202 331/410/202
f 341/411/203 335/403/203 336/404/203
f 342/413/204 336/405/204 334/406/204
f 338/407/205 344/423/205 345/415/205
f 339/409/206 345/425/206 343/417/206
f 341/411/207 342/412/207 348/419/207
f 342/413/208 340/414/208 346/421/208
f 344/423/209 350/432/209 351/424/209
f 345/425/210 351/434/210 349/426/210
f 347/420/211 348/419/211 354/427/211
f 348/422/212 346/421/212 352/429/212
f 356/431/213 357/440/213 351/424/213
f 357/433/214 355/442/214 349/426/214
f 359/435/215 353/428/215 354/427/215
f 354/430/216 352/429/216 358/437/216
f 362/439/217 363/448/217 357/440/217
f 363/441/218 361/450/218 355/442/218
f 359/435/219 360/436/219 366/443/219
f 360/438/220 358/437/220 364/445/220
f 368/447/221 369/456/221 363/448/221
f 369/449/222 367/458/222 361/450/222
f 371/451/223 365/444/223 366/443/223
f 372/453/224 366/446/224 364/445/224
f 368/447/225 374/464/225 375/455/225
f 369/449/226 375/465/226 373/457/226
f 377/459/227 371/451/227 372/452/227
f 372/453/228 370/454/228 376/461/228
f 380/463/229 381/472/229 375/455/229
f 375/465/230 381/473/230 379/466/230
f 383/467/231 377/459/231 378/460/231
f 384/469/232 378/462/232 376/461/232
f 194/471/233 195/754/233 381/472/233
f 195/222/234 193/224/234 379/466/234
f 383/467/235 384/468/235 198/474/235
f 198/228/236 384/469/236 382/470/236
f 379/466/94 193/224/94 199/223/94
f 199/223/94 205/234/94 211/242/94
f 211/242/94 217/250/94 223/266/94
f 223/266/94 229/265/94 235/282/94
f 235/282/94 241/290/94 247/289/94
f 247/289/94 253/298/94 259/314/94
f 259/314/94 265/313/94 271/330/94
f 271/330/94 277/338/94 283/346/94
f 283/346/94 289/354/94 295/353/94
f 295/353/94 301/370/94 307/378/94
f 307/378/94 313/377/94 319/394/94
f 319/394/94 325/402/94 331/410/94
f 331/410/94 337/418/94 343/417/94
f 343/417/94 349/426/94 355/442/94
f 355/442/94 361/450/94 367/458/94
f 367/458/94 373/457/94 379/466/94
f 379/466/94 199/223/94 211/242/94
f 211/242/94 223/266/94 235/282/94
f 235/282/94 247/289/94 259/314/94
f 259/314/94 271/330/94 283/346/94
f 283/346/94 295/353/94 307/378/94
f 307/378/94 319/394/94 331/410/94
f 331/410/94 343/417/94 355/442/94
f 355/442/94 367/458/94 379/466/94
f 379/466/94 211/242/94 235/282/94
f 235/282/94 259/314/94 283/346/94
f 283/346/94 307/378/94 331/410/94
f 331/410/94 355/442/94 379/466/94
f 379/466/94 235/282/94 283/346/94
f 197/225/237 203/227/237 200/219/237
f 383/467/238 197/475/238 194/471/238
f 208/238/98 202/229/98 196/476/98
f 196/476/98 382/470/98 376/461/98
f 376/461/98 370/454/98 364/445/98
f 364/445/98 358/437/98 352/429/98
f 352/429/98 346/421/98 340/414/98
f 340/414/98 334/406/98 328/397/98
f 328/397/98 322/390/98 316/381/98
f 316/381/98 310/373/98 304/365/98
f 304/365/98 298/357/98 292/350/98
f 292/350/98 286/342/98 280/333/98
f 280/333/98 274/326/98 268/318/98
f 268/318/98 262/310/98 256/301/98
f 256/301/98 250/293/98 244/286/98
f 244/286/98 238/278/98 232/269/98
f 232/269/98 226/261/98 220/254/98
f 220/254/98 214/246/98 208/238/98
f 208/238/98 196/476/98 376/461/98
f 376/461/98 364/445/98 352/429/98
f 352/429/98 340/414/98 328/397/98
f 328/397/98 316/381/98 304/365/98
f 304/365/98 292/350/98 280/333/98
f 280/333/98 268/318/98 256/301/98
f 256/301/98 244/286/98 232/269/98
f 232/269/98 220/254/98 208/238/98
f 208/238/98 376/461/98 352/429/98
f 352/429/98 328/397/98 304/365/98
f 304/365/98 280/333/98 256/301/98
f 256/301/98 232/269/98 208/238/98
f 208/238/98 352/429/98 304/365/98
f 203/227/239 209/236/239 206/239/239
f 209/236/240 215/244/240 212/248/240
f 215/244/241 221/252/241 218/247/241
f 221/252/242 227/259/242 224/255/242
f 227/259/243 233/267/243 230/263/243
f 233/267/244 239/275/244 236/271/244
f 239/275/245 245/283/245 242/279/245
f 245/283/246 251/292/246 248/295/246
f 251/292/247 257/300/247 254/303/247
f 257/300/248 263/308/248 260/311/248
f 263/308/249 269/316/249 266/320/249
f 269/316/250 275/323/250 272/319/250
f 275/323/251 281/331/251 278/327/251
f 281/331/252 287/339/252 284/335/252
f 287/339/253 293/348/253 290/343/253
f 293/348/254 299/356/254 296/351/254
f 299/356/255 305/364/255 302/368/255
f 305/364/256 311/372/256 308/367/256
f 311/372/257 317/380/257 314/384/257
f 317/380/258 323/388/258 320/383/258
f 323/388/259 329/395/259 326/391/259
f 329/395/260 335/403/260 332/399/260
f 335/403/261 341/411/261 338/407/261
f 341/411/262 347/420/262 344/423/262
f 347/420/263 353/428/263 350/432/263
f 353/428/264 359/435/264 356/431/264
f 359/435/265 365/444/265 362/439/265
f 365/444/266 371/451/266 368/447/266
f 371/451/267 377/459/267 374/464/267
f 377/459/268 383/467/268 380/463/268
f 386/477/269 392/490/269 393/478/269
f 387/480/386 393/491/386 391/481/386
f 395/483/271 389/603/271 390/484/271
f 390/486/387 388/602/387 394/487/387
f 398/489/273 399/498/273 393/478/273
f 393/491/274 399/500/274 397/492/274
f 395/483/275 396/485/275 402/493/275
f 396/488/388 394/487/388 400/495/388
f 404/497/277 405/505/277 399/498/277
f 405/499/389 403/507/389 397/492/389
f 407/501/279 401/494/279 402/493/279
f 408/503/280 402/496/280 400/495/280
f 404/497/281 410/512/281 411/288/281
f 411/506/390 409/514/390 403/507/390
f 413/508/283 407/501/283 408/502/283
f 408/503/284 406/504/284 412/509/284
f 416/511/285 417/520/285 411/288/285
f 411/506/391 417/522/391 415/513/391
f 413/508/287 414/284/287 420/515/287
f 414/510/288 412/509/288 418/517/288
f 422/519/289 423/527/289 417/520/289
f 423/521/392 421/529/392 415/513/392
f 419/516/291 420/515/291 426/315/291
f 420/518/292 418/517/292 424/524/292
f 428/526/293 429/535/293 423/527/293
f 429/528/294 427/537/294 421/529/294
f 431/530/295 425/523/295 426/315/295
f 426/525/393 424/524/393 430/532/393
f 434/534/297 435/543/297 429/535/297
f 435/536/394 433/545/394 427/537/394
f 437/538/299 431/530/299 432/531/299
f 438/540/395 432/533/395 430/532/395
f 440/542/301 441/551/301 435/543/301
f 441/544/396 439/553/396 433/545/396
f 437/538/303 438/539/303 444/546/303
f 438/540/397 436/541/397 442/548/397
f 440/542/305 446/558/305 447/550/305
f 441/544/306 447/561/306 445/552/306
f 443/547/307 444/546/307 450/554/307
f 450/556/398 444/549/398 442/548/398
f 446/558/309 452/567/309 453/559/309
f 453/560/399 451/569/399 445/552/399
f 449/555/311 450/554/311 456/562/311
f 456/564/400 450/556/400 448/557/400
f 458/566/313 459/575/313 453/559/313
f 453/560/401 459/577/401 457/568/401
f 461/570/315 455/563/315 456/562/315
f 456/564/316 454/565/316 460/572/316
f 464/574/317 465/583/317 459/575/317
f 465/576/402 463/585/402 457/568/402
f 461/570/319 462/571/319 468/578/319
f 462/573/320 460/572/320 466/580/320
f 470/582/321 471/591/321 465/583/321
f 471/584/403 469/593/403 463/585/403
f 467/579/323 468/578/323 474/586/323
f 468/581/404 466/580/404 472/588/404
f 476/590/325 477/455/325 471/591/325
f 477/592/326 475/599/326 469/593/326
f 479/594/327 473/587/327 474/586/327
f 480/596/405 474/589/405 472/588/405
f 386/598/329 387/755/329 477/455/329
f 387/480/406 385/482/406 475/599/406
f 479/594/331 480/595/331 390/600/331
f 390/486/407 480/596/407 478/597/407
f 475/599/94 385/482/94 391/481/94
f 391/481/94 397/492/94 403/507/94
f 403/507/94 409/514/94 415/513/94
f 415/513/94 421/529/94 427/537/94
f 427/537/94 433/545/94 439/553/94
f 439/553/94 445/552/94 451/569/94
f 451/569/94 457/568/94 463/585/94
f 463/585/94 469/593/94 475/599/94
f 475/599/94 391/481/94 403/507/94
f 403/507/94 415/513/94 427/537/94
f 427/537/94 439/553/94 451/569/94
f 451/569/94 463/585/94 475/599/94
f 475/599/94 403/507/94 427/537/94
f 389/603/333 395/483/333 392/490/333
f 479/594/334 389/601/334 386/598/334
f 400/495/98 394/487/98 388/602/98
f 388/602/98 478/597/98 472/588/98
f 472/588/98 466/580/98 460/572/98
f 460/572/98 454/565/98 448/557/98
f 448/557/98 442/548/98 436/541/98
f 436/541/98 430/532/98 424/524/98
f 424/524/98 418/517/98 412/509/98
f 412/509/98 406/504/98 400/495/98
f 400/495/98 388/602/98 472/588/98
f 472/588/98 460/572/98 448/557/98
f 448/557/98 436/541/98 424/524/98
f 424/524/98 412/509/98 400/495/98
f 400/495/98 472/588/98 448/557/98
f 395/483/335 401/494/335 398/489/335
f 401/494/336 407/501/336 404/497/336
f 407/501/337 413/508/337 410/512/337
f 413/508/338 419/516/338 416/511/338
f 419/516/339 425/523/339 422/519/339
f 425/523/340 431/530/340 428/526/340
f 431/530/341 437/538/341 434/534/341
f 437/538/342 443/547/342 440/542/342
f 443/547/343 449/555/343 446/558/343
f 449/555/344 455/563/344 452/567/344
f 455/563/345 461/570/345 458/566/345
f 461/570/346 467/579/346 464/574/346
f 467/579/347 473/587/347 470/582/347
f 470/582/348 473/587/348 479/594/348
usemtl Black
f 484/604/1 485/605/1 481/606/1
f 488/607/2 486/608/2 484/604/2
f 487/609/3 488/610/3 482/611/3
f 491/612/4 489/10/4 487/613/4
f 490/614/5 491/612/5 483/615/5
f 485/605/6 492/616/6 490/617/6
f 486/608/349 489/618/349 492/616/349
f 496/619/8 497/620/8 493/621/8
f 496/619/9 501/622/9 498/623/9
f 499/624/10 500/625/10 494/626/10
f 499/134/11 504/627/11 501/26/11
f 502/628/12 503/629/12 495/630/12
f 502/628/13 498/631/13 504/627/13
f 498/623/350 501/622/350 504/632/350
f 508/633/15 509/634/15 505/635/15
f 508/633/16 513/144/16 510/636/16
f 511/637/17 512/638/17 506/639/17
f 511/637/18 516/640/18 513/150/18
f 514/641/19 515/642/19 507/643/19
f 514/644/20 510/636/20 516/645/20
f 510/636/351 513/144/351 516/645/351
f 520/646/22 521/647/22 517/648/22
f 524/649/23 522/650/23 520/651/23
f 523/652/24 524/649/24 518/653/24
f 527/654/25 525/655/25 523/652/25
f 526/656/26 527/654/26 519/657/26
f 521/658/27 528/659/27 526/656/27
f 522/650/352 525/655/352 528/659/352
f 532/660/29 533/661/29 529/662/29
f 532/660/30 537/663/30 534/664/30
f 535/665/31 536/666/31 530/667/31
f 535/665/32 540/668/32 537/663/32
f 538/669/33 539/670/33 531/671/33
f 538/669/34 534/664/34 540/668/34
f 534/664/103 537/663/103 540/668/103
f 544/672/36 545/673/36 541/674/36
f 548/675/37 546/676/37 544/672/37
f 547/677/38 548/675/38 542/678/38
f 551/679/39 549/680/39 547/677/39
f 550/681/40 551/679/40 543/682/40
f 545/673/41 552/683/41 550/681/41
f 546/676/104 549/680/104 552/683/104
f 556/684/43 557/685/43 553/686/43
f 560/687/44 558/688/44 556/684/44
f 559/689/45 560/687/45 554/690/45
f 563/691/46 561/692/46 559/689/46
f 562/693/47 563/691/47 555/694/47
f 557/685/48 564/695/48 562/693/48
f 558/688/105 561/692/105 564/695/105
f 568/696/50 569/697/50 565/698/50
f 568/696/51 573/699/51 570/700/51
f 571/701/52 572/702/52 566/703/52
f 571/701/53 576/704/53 573/699/53
f 574/705/54 575/706/54 567/707/54
f 574/705/55 570/700/55 576/704/55
f 570/700/106 573/699/106 576/704/106
f 481/606/57 508/633/57 505/635/57
f 485/605/58 512/217/58 508/633/58
f 490/614/59 506/639/59 512/638/59
f 493/621/60 487/609/60 482/611/60
f 497/708/61 491/612/61 487/613/61
f 502/628/62 483/615/62 491/612/62
f 517/648/63 499/624/63 494/626/63
f 521/658/64 503/629/64 499/134/64
f 526/656/65 495/630/65 503/629/65
f 507/643/66 523/652/66 518/653/66
f 515/642/67 527/654/67 523/652/67
f 511/637/68 519/657/68 527/654/68
f 505/635/69 556/684/69 553/686/69
f 509/634/70 560/687/70 556/684/70
f 514/641/71 554/690/71 560/687/71
f 565/698/72 520/646/72 517/648/72
f 569/697/73 524/649/73 520/651/73
f 574/705/74 518/653/74 524/649/74
f 555/694/75 571/701/75 566/703/75
f 563/691/76 575/706/76 571/701/76
f 559/689/77 567/707/77 575/706/77
f 553/686/78 532/660/78 529/662/78
f 557/685/79 536/666/79 532/660/79
f 562/693/80 530/667/80 536/666/80
f 541/674/81 568/696/81 565/698/81
f 545/673/82 572/702/82 568/696/82
f 550/681/83 566/703/83 572/702/83
f 531/671/84 547/677/84 542/678/84
f 539/670/85 551/679/85 547/677/85
f 535/665/353 543/682/353 551/679/353
f 529/662/87 484/604/87 481/606/87
f 533/661/88 488/607/88 484/604/88
f 538/669/89 482/611/89 488/610/89
f 494/626/90 544/672/90 541/674/90
f 500/709/91 548/675/91 544/672/91
f 496/619/92 542/678/92 548/675/92
f 553/686/93 481/606/93 505/635/93
f 495/630/94 506/639/94 483/615/94
f 542/678/95 482/611/95 531/671/95
f 517/648/96 541/674/96 565/698/96
f 518/653/97 554/690/97 507/643/97
f 566/703/98 530/667/98 555/694/98
f 484/604/362 486/608/362 485/605/362
f 488/607/2 489/618/2 486/608/2
f 487/609/363 489/756/363 488/610/363
f 491/612/4 492/748/4 489/10/4
f 490/614/364 492/748/364 491/612/364
f 485/605/6 486/608/6 492/616/6
f 496/619/365 498/623/365 497/620/365
f 496/619/9 500/709/9 501/622/9
f 499/624/366 501/757/366 500/625/366
f 499/134/11 503/629/11 504/627/11
f 502/628/367 504/627/367 503/629/367
f 502/628/13 497/708/13 498/631/13
f 508/633/368 510/636/368 509/634/368
f 508/633/16 512/217/16 513/144/16
f 511/637/369 513/150/369 512/638/369
f 511/637/18 515/642/18 516/640/18
f 514/641/370 516/640/370 515/642/370
f 514/644/20 509/634/20 510/636/20
f 520/646/371 522/758/371 521/647/371
f 524/649/23 525/655/23 522/650/23
f 523/652/372 525/655/372 524/649/372
f 527/654/25 528/659/25 525/655/25
f 526/656/373 528/659/373 527/654/373
f 521/658/27 522/650/27 528/659/27
f 532/660/374 534/664/374 533/661/374
f 532/660/30 536/666/30 537/663/30
f 535/665/375 537/663/375 536/666/375
f 535/665/32 539/670/32 540/668/32
f 538/669/376 540/668/376 539/670/376
f 538/669/34 533/661/34 534/664/34
f 544/672/377 546/676/377 545/673/377
f 548/675/37 549/680/37 546/676/37
f 547/677/378 549/680/378 548/675/378
f 551/679/39 552/683/39 549/680/39
f 550/681/379 552/683/379 551/679/379
f 545/673/41 546/676/41 552/683/41
f 556/684/380 558/688/380 557/685/380
f 560/687/44 561/692/44 558/688/44
f 559/689/381 561/692/381 560/687/381
f 563/691/46 564/695/46 561/692/46
f 562/693/382 564/695/382 563/691/382
f 557/685/48 558/688/48 564/695/48
f 568/696/383 570/700/383 569/697/383
f 568/696/51 572/702/51 573/699/51
f 571/701/384 573/699/384 572/702/384
f 571/701/53 575/706/53 576/704/53
f 574/705/385 576/704/385 575/706/385
f 574/705/55 569/697/55 570/700/55
f 481/606/57 485/605/57 508/633/57
f 485/605/58 490/617/58 512/217/58
f 490/614/59 483/615/59 506/639/59
f 493/621/60 497/620/60 487/609/60
f 497/708/61 502/628/61 491/612/61
f 502/628/62 495/630/62 483/615/62
f 517/648/63 521/647/63 499/624/63
f 521/658/64 526/656/64 503/629/64
f 526/656/65 519/657/65 495/630/65
f 507/643/66 515/642/66 523/652/66
f 515/642/67 511/637/67 527/654/67
f 511/637/68 506/639/68 519/657/68
f 505/635/69 509/634/69 556/684/69
f 509/634/70 514/644/70 560/687/70
f 514/641/71 507/643/71 554/690/71
f 565/698/72 569/697/72 520/646/72
f 569/697/73 574/705/73 524/649/73
f 574/705/74 567/707/74 518/653/74
f 555/694/408 563/691/408 571/701/408
f 563/691/76 559/689/76 575/706/76
f 559/689/77 554/690/77 567/707/77
f 553/686/78 557/685/78 532/660/78
f 557/685/79 562/693/79 536/666/79
f 562/693/80 555/694/80 530/667/80
f 541/674/81 545/673/81 568/696/81
f 545/673/82 550/681/82 572/702/82
f 550/681/83 543/682/83 566/703/83
f 531/671/84 539/670/84 547/677/84
f 539/670/85 535/665/85 551/679/85
f 535/665/86 530/667/86 543/682/86
f 529/662/87 533/661/87 484/604/87
f 533/661/88 538/669/88 488/607/88
f 538/669/89 531/671/89 482/611/89
f 494/626/90 500/625/90 544/672/90
f 500/709/91 496/619/91 548/675/91
f 496/619/92 493/621/92 542/678/92
f 553/686/93 529/662/93 481/606/93
f 495/630/94 519/657/94 506/639/94
f 542/678/95 493/621/95 482/611/95
f 517/648/96 494/626/96 541/674/96
f 518/653/97 567/707/97 554/690/97
f 566/703/98 543/682/98 530/667/98
usemtl Brown
f 578/710/354 579/711/354 577/712/354
f 580/713/70 581/714/70 579/711/70
f 582/715/355 583/716/355 581/714/355
f 584/717/356 585/718/356 583/716/356
f 586/719/88 587/720/88 585/718/88
f 588/721/357 589/722/357 587/720/357
f 590/723/358 591/724/358 589/722/358
f 592/725/91 593/726/91 591/724/91
f 594/727/359 595/728/359 593/726/359
f 596/729/360 597/730/360 595/728/360
f 598/731/98 590/732/98 582/733/98
f 598/734/73 599/735/73 597/730/73
f 600/736/361 577/737/361 599/735/361
f 583/738/94 591/739/94 599/740/94
f 578/710/354 580/713/354 579/711/354
f 580/713/70 582/715/70 581/714/70
f 582/715/355 584/717/355 583/716/355
f 584/717/356 586/719/356 585/718/356
f 586/719/88 588/721/88 587/720/88
f 588/721/357 590/723/357 589/722/357
f 590/723/358 592/725/358 591/724/358
f 592/725/91 594/727/91 593/726/91
f 594/727/359 596/729/359 595/728/359
f 596/729/360 598/734/360 597/730/360
f 582/733/98 580/759/98 578/760/98
f 578/760/98 600/761/98 598/731/98
f 598/731/98 596/762/98 594/763/98
f 594/763/98 592/764/98 590/732/98
f 590/732/98 588/765/98 586/766/98
f 586/766/98 584/767/98 582/733/98
f 582/733/98 578/760/98 598/731/98
f 598/731/98 594/763/98 590/732/98
f 590/732/98 586/766/98 582/733/98
f 598/734/73 600/736/73 599/735/73
f 600/736/361 578/768/361 577/737/361
f 599/740/94 577/769/94 579/770/94
f 579/770/94 581/771/94 583/738/94
f 583/738/94 585/772/94 587/773/94
f 587/773/94 589/774/94 591/739/94
f 591/739/94 593/775/94 595/776/94
f 595/776/94 597/777/94 599/740/94
f 599/740/94 579/770/94 583/738/94
f 583/738/94 587/773/94 591/739/94
f 591/739/94 595/776/94 599/740/94
usemtl Red
f 602/710/354 603/711/354 601/712/354
f 604/713/70 605/714/70 603/711/70
f 606/715/355 607/716/355 605/714/355
f 608/717/356 609/718/356 607/716/356
f 610/719/88 611/720/88 609/718/88
f 612/721/357 613/722/357 611/720/357
f 614/723/358 615/724/358 613/722/358
f 616/725/91 617/726/91 615/724/91
f 618/727/359 619/728/359 617/726/359
f 620/729/360 621/730/360 619/728/360
f 622/731/98 614/732/98 606/733/98
f 622/734/73 623/735/73 621/730/73
f 624/736/361 601/737/361 623/735/361
f 607/738/94 615/739/94 623/740/94
f 602/710/354 604/713/354 603/711/354
f 604/713/70 606/715/70 605/714/70
f 606/715/355 608/717/355 607/716/355
f 608/717/356 610/719/356 609/718/356
f 610/719/88 612/721/88 611/720/88
f 612/721/357 614/723/357 613/722/357
f 614/723/358 616/725/358 615/724/358
f 616/725/91 618/727/91 617/726/91
f 618/727/359 620/729/359 619/728/359
f 620/729/360 622/734/360 621/730/360
f 606/733/98 604/759/98 602/760/98
f 602/760/98 624/761/98 622/731/98
f 622/731/98 620/762/98 618/763/98
f 618/763/98 616/764/98 614/732/98
f 614/732/98 612/765/98 610/766/98
f 610/766/98 608/767/98 606/733/98
f 606/733/98 602/760/98 622/731/98
f 622/731/98 618/763/98 614/732/98
f 614/732/98 610/766/98 606/733/98
f 622/734/73 624/736/73 623/735/73
f 624/736/361 602/768/361 601/737/361
f 623/740/94 601/769/94 603/770/94
f 603/770/94 605/771/94 607/738/94
f 607/738/94 609/772/94 611/773/94
f 611/773/94 613/774/94 615/739/94
f 615/739/94 617/775/94 619/776/94
f 619/776/94 621/777/94 623/740/94
f 623/740/94 603/770/94 607/738/94
f 607/738/94 611/773/94 615/739/94
f 615/739/94 619/776/94 623/740/94
usemtl Orange
f 626/710/354 627/711/354 625/712/354
f 628/713/70 629/714/70 627/711/70
f 630/715/355 631/716/355 629/714/355
f 632/717/356 633/718/356 631/716/356
f 634/719/88 635/720/88 633/718/88
f 636/721/357 637/722/357 635/720/357
f 638/723/358 639/724/358 637/722/358
f 640/725/91 641/726/91 639/724/91
f 642/727/359 643/728/359 641/726/359
f 644/729/360 645/730/360 643/728/360
f 646/731/98 638/732/98 630/733/98
f 646/734/73 647/735/73 645/730/73
f 648/736/361 625/737/361 647/735/361
f 631/738/94 639/739/94 647/740/94
f 626/710/354 628/713/354 627/711/354
f 628/713/70 630/715/70 629/714/70
f 630/715/355 632/717/355 631/716/355
f 632/717/356 634/719/356 633/718/356
f 634/719/88 636/721/88 635/720/88
f 636/721/357 638/723/357 637/722/357
f 638/723/358 640/725/358 639/724/358
f 640/725/91 642/727/91 641/726/91
f 642/727/359 644/729/359 643/728/359
f 644/729/360 646/734/360 645/730/360
f 630/733/98 628/759/98 626/760/98
f 626/760/98 648/761/98 646/731/98
f 646/731/98 644/762/98 642/763/98
f 642/763/98 640/764/98 638/732/98
f 638/732/98 636/765/98 634/766/98
f 634/766/98 632/767/98 630/733/98
f 630/733/98 626/760/98 646/731/98
f 646/731/98 642/763/98 638/732/98
f 638/732/98 634/766/98 630/733/98
f 646/734/73 648/736/73 647/735/73
f 648/736/361 626/768/361 625/737/361
f 647/740/94 625/769/94 627/770/94
f 627/770/94 629/771/94 631/738/94
f 631/738/94 633/772/94 635/773/94
f 635/773/94 637/774/94 639/739/94
f 639/739/94 641/775/94 643/776/94
f 643/776/94 645/777/94 647/740/94
f 647/740/94 627/770/94 631/738/94
f 631/738/94 635/773/94 639/739/94
f 639/739/94 643/776/94 647/740/94
