# Generated learning hardware envelope; regenerate from make_learning_parts.gd
mtllib tb6612_driver.mtl
usemtl BoardBody
v -0.020000000 0.004000000 0.014000000
v 0.020000000 0.004000000 -0.014000000
v 0.020000000 0.004000000 0.014000000
v -0.020000000 0.004000000 -0.014000000
v -0.020000000 -0.004000000 0.014000000
v 0.020000000 -0.004000000 -0.014000000
v 0.020000000 -0.004000000 0.014000000
v -0.020000000 -0.004000000 -0.014000000
v 0.020000000 0.004000000 0.014000000
v -0.020000000 0.004000000 -0.014000000
v 0.020000000 0.004000000 -0.014000000
v -0.020000000 0.004000000 0.014000000
v 0.020000000 -0.004000000 0.014000000
v -0.020000000 -0.004000000 -0.014000000
v 0.020000000 -0.004000000 -0.014000000
v -0.020000000 -0.004000000 0.014000000
v 0.020000000 0.004000000 0.014000000
v -0.020000000 -0.004000000 0.014000000
v -0.020000000 0.004000000 0.014000000
v 0.020000000 -0.004000000 0.014000000
v 0.020000000 0.004000000 -0.014000000
v -0.020000000 -0.004000000 -0.014000000
v -0.020000000 0.004000000 -0.014000000
v 0.020000000 -0.004000000 -0.014000000
vn -0.000015259 -0.000015259 1.000000000
vn 0.000000000 0.000000000 -1.000000000
vn -0.000015259 -0.000015259 1.000000000
vn 0.000000000 0.000000000 -1.000000000
vn -0.000015259 -0.000015259 1.000000000
vn 0.000000000 0.000000000 -1.000000000
vn -0.000015259 -0.000015259 1.000000000
vn 0.000000000 0.000000000 -1.000000000
vn 1.000000000 0.000000000 -0.000015259
vn -1.000000000 0.000000000 -0.000015259
vn 1.000000000 0.000000000 -0.000015259
vn -1.000000000 0.000000000 -0.000015259
vn 1.000000000 0.000000000 -0.000015259
vn -1.000000000 0.000000000 -0.000015259
vn 1.000000000 0.000000000 -0.000015259
vn -1.000000000 0.000000000 -0.000015259
vn 0.000000000 1.000000000 -0.000015259
vn 0.000000000 -1.000000000 -0.000015259
vn 0.000000000 1.000000000 -0.000015259
vn 0.000000000 -1.000000000 -0.000015259
vn 0.000000000 1.000000000 -0.000015259
vn 0.000000000 -1.000000000 -0.000015259
vn 0.000000000 1.000000000 -0.000015259
vn 0.000000000 -1.000000000 -0.000015259
vt 0.000000000 0.000000000
vt 0.666666687 0.000000000
vt 0.333333343 0.000000000
vt 1.000000000 0.000000000
vt 0.000000000 0.500000000
vt 0.666666687 0.500000000
vt 0.333333343 0.500000000
vt 1.000000000 0.500000000
vt 0.333333343 0.000000000
vt 0.000000000 0.500000000
vt 0.666666687 0.000000000
vt 0.333333343 0.500000000
vt 0.333333343 0.500000000
vt 0.000000000 1.000000000
vt 0.666666687 0.500000000
vt 0.333333343 1.000000000
vt 0.333333343 0.500000000
vt 0.666666687 0.500000000
vt 0.666666687 0.500000000
vt 1.000000000 0.500000000
vt 0.333333343 1.000000000
vt 0.666666687 1.000000000
vt 0.666666687 1.000000000
vt 1.000000000 1.000000000
f 5/5/5 3/3/3 1/1/1
f 5/5/5 7/7/7 3/3/3
f 6/6/6 4/4/4 2/2/2
f 6/6/6 8/8/8 4/4/4
f 13/13/13 11/11/11 9/9/9
f 13/13/13 15/15/15 11/11/11
f 14/14/14 12/12/12 10/10/10
f 14/14/14 16/16/16 12/12/12
f 21/21/21 19/19/19 17/17/17
f 21/21/21 23/23/23 19/19/19
f 22/22/22 20/20/20 18/18/18
f 22/22/22 24/24/24 20/20/20
