# Blender 5.2.1 LTS
# www.blender.org
mtllib tt_motor.mtl
o tt_motor
v -0.031000 0.001500 0.007100
v -0.012000 0.001500 0.007100
v -0.033800 -0.011000 0.007800
v -0.031000 0.001500 -0.007100
v -0.011536 0.001427 0.007100
v -0.012000 0.001500 -0.007100
v -0.030536 0.001427 0.007100
v -0.011118 0.001214 0.007100
v -0.033800 -0.009800 0.009000
v -0.011536 0.001427 -0.007100
v -0.010786 0.000882 0.007100
v -0.030118 0.001214 0.007100
v -0.035000 -0.009800 0.007800
v -0.010573 0.000464 0.007100
v -0.033800 -0.010840 0.008399
v -0.029786 0.000882 0.007100
v -0.010500 0.000000 0.007100
v -0.030536 0.001427 -0.007100
v -0.010573 -0.000464 0.007100
v -0.029573 0.000464 0.007100
v -0.011118 0.001214 -0.007100
v -0.010786 -0.000882 0.007100
v -0.034399 -0.010840 0.007800
v -0.029500 0.000000 0.007100
v -0.011118 -0.001214 0.007100
v -0.010786 0.000882 -0.007100
v -0.034374 -0.010684 0.008374
v -0.011536 -0.001427 0.007100
v -0.030118 0.001214 -0.007100
v -0.029573 -0.000464 0.007100
v -0.012000 -0.001500 0.007100
v -0.034399 -0.009800 0.008840
v -0.010573 0.000464 -0.007100
v -0.029786 -0.000882 0.007100
v -0.012464 -0.001427 0.007100
v -0.033800 -0.010399 0.008840
v -0.029786 0.000882 -0.007100
v -0.012882 -0.001214 0.007100
v -0.030118 -0.001214 0.007100
v -0.010500 0.000000 -0.007100
v -0.013214 -0.000882 0.007100
v -0.030536 -0.001427 0.007100
v -0.034374 -0.010374 0.008684
v -0.013427 -0.000464 0.007100
v -0.034840 -0.010399 0.007800
v -0.031000 -0.001500 0.007100
v -0.013500 0.000000 0.007100
v -0.010573 -0.000464 -0.007100
v -0.013427 0.000464 0.007100
v -0.029573 0.000464 -0.007100
v -0.031464 -0.001427 0.007100
v -0.010786 -0.000882 -0.007100
v -0.013214 0.000882 0.007100
v -0.034840 -0.009800 0.008399
v -0.012882 0.001214 0.007100
v -0.031882 -0.001214 0.007100
v -0.029500 0.000000 -0.007100
v -0.012464 0.001427 0.007100
v -0.034684 -0.010374 0.008374
v -0.011118 -0.001214 -0.007100
v -0.032214 -0.000882 0.007100
v -0.033800 0.009800 0.009000
v -0.032427 -0.000464 0.007100
v -0.033800 0.011000 0.007800
v -0.011536 -0.001427 -0.007100
v -0.032500 0.000000 0.007100
v -0.029573 -0.000464 -0.007100
v -0.035000 0.009800 0.007800
v -0.012000 -0.001500 -0.007100
v -0.032427 0.000464 0.007100
v -0.029786 -0.000882 -0.007100
v -0.012464 -0.001427 -0.007100
v -0.032214 0.000882 0.007100
v -0.033800 0.010399 0.008840
v -0.031882 0.001214 0.007100
v -0.034399 0.009800 0.008840
v -0.030118 -0.001214 -0.007100
v -0.012882 -0.001214 -0.007100
v -0.031464 0.001427 0.007100
v -0.034374 0.010374 0.008684
v -0.013214 -0.000882 -0.007100
v -0.034399 0.010840 0.007800
v -0.030536 -0.001427 -0.007100
v -0.033800 0.010840 0.008399
v -0.013427 -0.000464 -0.007100
v -0.034374 0.010684 0.008374
v -0.034840 0.009800 0.008399
v -0.013500 0.000000 -0.007100
v -0.031000 -0.001500 -0.007100
v -0.013427 0.000464 -0.007100
v -0.034840 0.010399 0.007800
v -0.031464 -0.001427 -0.007100
v -0.034684 0.010374 0.008374
v -0.013214 0.000882 -0.007100
v -0.033800 -0.011000 -0.007800
v -0.012882 0.001214 -0.007100
v -0.035000 -0.009800 -0.007800
v -0.031882 -0.001214 -0.007100
v -0.012464 0.001427 -0.007100
v -0.033800 -0.009800 -0.009000
v -0.032214 -0.000882 -0.007100
v -0.034399 -0.010840 -0.007800
v -0.033800 -0.010840 -0.008399
v -0.032427 -0.000464 -0.007100
v -0.034374 -0.010684 -0.008374
v -0.034840 -0.009800 -0.008399
v -0.032500 0.000000 -0.007100
v -0.034840 -0.010399 -0.007800
v -0.034684 -0.010374 -0.008374
v -0.033800 -0.010399 -0.008840
v -0.032427 0.000464 -0.007100
v -0.034399 -0.009800 -0.008840
v -0.032214 0.000882 -0.007100
v -0.034374 -0.010374 -0.008684
v -0.033800 0.011000 -0.007800
v -0.033800 0.009800 -0.009000
v -0.031882 0.001214 -0.007100
v -0.035000 0.009800 -0.007800
v -0.031464 0.001427 -0.007100
v -0.033800 0.010840 -0.008399
v -0.034399 0.010840 -0.007800
v -0.034374 0.010684 -0.008374
v -0.034399 0.009800 -0.008840
v -0.033800 0.010399 -0.008840
v -0.034374 0.010374 -0.008684
v -0.034840 0.010399 -0.007800
v -0.034840 0.009800 -0.008399
v -0.034684 0.010374 -0.008374
v 0.000800 -0.011000 0.007800
v 0.002000 -0.009800 0.007800
v 0.000800 -0.009800 0.009000
v 0.001399 -0.010840 0.007800
v 0.000800 -0.010840 0.008399
v 0.001374 -0.010684 0.008374
v 0.001840 -0.009800 0.008399
v 0.001840 -0.010399 0.007800
v 0.001684 -0.010374 0.008374
v 0.000800 -0.010399 0.008840
v 0.001399 -0.009800 0.008840
v 0.001374 -0.010374 0.008684
v 0.000800 0.011000 0.007800
v 0.000800 0.009800 0.009000
v 0.002000 0.009800 0.007800
v 0.000800 0.010840 0.008399
v 0.001399 0.010840 0.007800
v 0.001374 0.010684 0.008374
v 0.001399 0.009800 0.008840
v 0.000800 0.010399 0.008840
v 0.001374 0.010374 0.008684
v 0.001840 0.010399 0.007800
v 0.001840 0.009800 0.008399
v 0.001684 0.010374 0.008374
v 0.000800 -0.011000 -0.007800
v 0.000800 -0.009800 -0.009000
v 0.002000 -0.009800 -0.007800
v 0.000800 -0.010840 -0.008399
v 0.001399 -0.010840 -0.007800
v 0.001374 -0.010684 -0.008374
v 0.001399 -0.009800 -0.008840
v 0.000800 -0.010399 -0.008840
v 0.001374 -0.010374 -0.008684
v 0.001840 -0.010399 -0.007800
v 0.001840 -0.009800 -0.008399
v 0.001684 -0.010374 -0.008374
v 0.000800 0.011000 -0.007800
v 0.002000 0.009800 -0.007800
v 0.000800 0.009800 -0.009000
v 0.001399 0.010840 -0.007800
v 0.000800 0.010840 -0.008399
v 0.001374 0.010684 -0.008374
v 0.001840 0.009800 -0.008399
v 0.001840 0.010399 -0.007800
v 0.001684 0.010374 -0.008374
v 0.000800 0.010399 -0.008840
v 0.001399 0.009800 -0.008840
v 0.001374 0.010374 -0.008684
v -0.032500 0.000000 -0.009000
v -0.032214 -0.000882 -0.009000
v -0.032427 -0.000464 -0.009000
v -0.032427 0.000464 -0.009000
v -0.031464 -0.001427 -0.009000
v -0.031464 0.001427 -0.009000
v -0.031882 -0.001214 -0.009000
v -0.031882 0.001214 -0.009000
v -0.032214 0.000882 -0.009000
v -0.030118 -0.001214 -0.009000
v -0.030536 -0.001427 -0.009000
v -0.030536 0.001427 -0.009000
v -0.029786 0.000882 -0.009000
v -0.029500 0.000000 -0.009000
v -0.029573 -0.000464 -0.009000
v -0.029573 0.000464 -0.009000
v -0.029786 -0.000882 -0.009000
v -0.030118 0.001214 -0.009000
v -0.031000 -0.001500 -0.009000
v -0.031000 0.001500 -0.009000
v -0.013427 -0.000464 -0.009000
v -0.013500 0.000000 -0.009000
v -0.013214 -0.000882 -0.009000
v -0.013427 0.000464 -0.009000
v -0.013214 0.000882 -0.009000
v -0.012882 -0.001214 -0.009000
v -0.012464 0.001427 -0.009000
v -0.012464 -0.001427 -0.009000
v -0.012882 0.001214 -0.009000
v -0.011118 -0.001214 -0.009000
v -0.011118 0.001214 -0.009000
v -0.011536 -0.001427 -0.009000
v -0.011536 0.001427 -0.009000
v -0.010500 0.000000 -0.009000
v -0.010573 0.000464 -0.009000
v -0.010786 -0.000882 -0.009000
v -0.010573 -0.000464 -0.009000
v -0.010786 0.000882 -0.009000
v -0.012000 0.001500 -0.009000
v -0.012000 -0.001500 -0.009000
v -0.032500 0.000000 0.009000
v -0.032214 -0.000882 0.009000
v -0.032427 -0.000464 0.009000
v -0.032427 0.000464 0.009000
v -0.031464 -0.001427 0.009000
v -0.031464 0.001427 0.009000
v -0.031882 -0.001214 0.009000
v -0.031882 0.001214 0.009000
v -0.032214 0.000882 0.009000
v -0.030118 0.001214 0.009000
v -0.030536 -0.001427 0.009000
v -0.030536 0.001427 0.009000
v -0.029786 -0.000882 0.009000
v -0.029500 0.000000 0.009000
v -0.029573 -0.000464 0.009000
v -0.029573 0.000464 0.009000
v -0.029786 0.000882 0.009000
v -0.030118 -0.001214 0.009000
v -0.031000 -0.001500 0.009000
v -0.031000 0.001500 0.009000
v -0.013427 -0.000464 0.009000
v -0.013500 0.000000 0.009000
v -0.013214 -0.000882 0.009000
v -0.013427 0.000464 0.009000
v -0.013214 0.000882 0.009000
v -0.012882 0.001214 0.009000
v -0.012464 -0.001427 0.009000
v -0.012882 -0.001214 0.009000
v -0.012464 0.001427 0.009000
v -0.011118 -0.001214 0.009000
v -0.011118 0.001214 0.009000
v -0.011536 -0.001427 0.009000
v -0.011536 0.001427 0.009000
v -0.010500 0.000000 0.009000
v -0.010573 0.000464 0.009000
v -0.010786 -0.000882 0.009000
v -0.010573 -0.000464 0.009000
v -0.010786 0.000882 0.009000
v -0.012000 0.001500 0.009000
v -0.012000 -0.001500 0.009000
v 0.002000 0.000000 -0.009196
v 0.002800 0.000000 -0.010000
v 0.002234 0.000000 -0.009765
v 0.035000 0.000000 -0.009196
v 0.034200 0.000000 -0.010000
v 0.034766 0.000000 -0.009765
v 0.002000 -0.001794 -0.009019
v 0.002800 -0.001951 -0.009808
v 0.002234 -0.001905 -0.009577
v 0.035000 -0.001794 -0.009019
v 0.034200 -0.001951 -0.009808
v 0.034766 -0.001905 -0.009577
v 0.002000 -0.003519 -0.008496
v 0.002800 -0.003827 -0.009239
v 0.002234 -0.003737 -0.009021
v 0.035000 -0.003519 -0.008496
v 0.034200 -0.003827 -0.009239
v 0.034766 -0.003737 -0.009021
v 0.002000 -0.005109 -0.007646
v 0.002800 -0.005556 -0.008315
v 0.002234 -0.005425 -0.008119
v 0.035000 -0.005109 -0.007646
v 0.034200 -0.005556 -0.008315
v 0.034766 -0.005425 -0.008119
v 0.002000 -0.006503 -0.006503
v 0.002800 -0.007071 -0.007071
v 0.002234 -0.006905 -0.006905
v 0.035000 -0.006503 -0.006503
v 0.034200 -0.007071 -0.007071
v 0.034766 -0.006905 -0.006905
v 0.002000 -0.007646 -0.005109
v 0.002800 -0.008315 -0.005556
v 0.002234 -0.008119 -0.005425
v 0.035000 -0.007646 -0.005109
v 0.034200 -0.008315 -0.005556
v 0.034766 -0.008119 -0.005425
v 0.002000 -0.008496 -0.003519
v 0.002800 -0.009239 -0.003827
v 0.002234 -0.009021 -0.003737
v 0.035000 -0.008496 -0.003519
v 0.034200 -0.009239 -0.003827
v 0.034766 -0.009021 -0.003737
v 0.002000 -0.009019 -0.001794
v 0.002800 -0.009808 -0.001951
v 0.002234 -0.009577 -0.001905
v 0.035000 -0.009019 -0.001794
v 0.034200 -0.009808 -0.001951
v 0.034766 -0.009577 -0.001905
v 0.002000 -0.009196 0.000000
v 0.002800 -0.010000 0.000000
v 0.002234 -0.009765 0.000000
v 0.035000 -0.009196 0.000000
v 0.034200 -0.010000 0.000000
v 0.034766 -0.009765 0.000000
v 0.002000 -0.009019 0.001794
v 0.002800 -0.009808 0.001951
v 0.002234 -0.009577 0.001905
v 0.035000 -0.009019 0.001794
v 0.034200 -0.009808 0.001951
v 0.034766 -0.009577 0.001905
v 0.002000 -0.008496 0.003519
v 0.002800 -0.009239 0.003827
v 0.002234 -0.009021 0.003737
v 0.035000 -0.008496 0.003519
v 0.034200 -0.009239 0.003827
v 0.034766 -0.009021 0.003737
v 0.002000 -0.007646 0.005109
v 0.002800 -0.008315 0.005556
v 0.002234 -0.008119 0.005425
v 0.035000 -0.007646 0.005109
v 0.034200 -0.008315 0.005556
v 0.034766 -0.008119 0.005425
v 0.002000 -0.006503 0.006503
v 0.002800 -0.007071 0.007071
v 0.002234 -0.006905 0.006905
v 0.035000 -0.006503 0.006503
v 0.034200 -0.007071 0.007071
v 0.034766 -0.006905 0.006905
v 0.002000 -0.005109 0.007646
v 0.002800 -0.005556 0.008315
v 0.002234 -0.005425 0.008119
v 0.035000 -0.005109 0.007646
v 0.034200 -0.005556 0.008315
v 0.034766 -0.005425 0.008119
v 0.002000 -0.003519 0.008496
v 0.002800 -0.003827 0.009239
v 0.002234 -0.003737 0.009021
v 0.035000 -0.003519 0.008496
v 0.034200 -0.003827 0.009239
v 0.034766 -0.003737 0.009021
v 0.002000 -0.001794 0.009019
v 0.002800 -0.001951 0.009808
v 0.002234 -0.001905 0.009577
v 0.035000 -0.001794 0.009019
v 0.034200 -0.001951 0.009808
v 0.034766 -0.001905 0.009577
v 0.002000 0.000000 0.009196
v 0.002800 0.000000 0.010000
v 0.002234 0.000000 0.009765
v 0.035000 0.000000 0.009196
v 0.034200 0.000000 0.010000
v 0.034766 0.000000 0.009765
v 0.002000 0.001794 0.009019
v 0.002800 0.001951 0.009808
v 0.002234 0.001905 0.009577
v 0.035000 0.001794 0.009019
v 0.034200 0.001951 0.009808
v 0.034766 0.001905 0.009577
v 0.002000 0.003519 0.008496
v 0.002800 0.003827 0.009239
v 0.002234 0.003737 0.009021
v 0.035000 0.003519 0.008496
v 0.034200 0.003827 0.009239
v 0.034766 0.003737 0.009021
v 0.002000 0.005109 0.007646
v 0.002800 0.005556 0.008315
v 0.002234 0.005425 0.008119
v 0.035000 0.005109 0.007646
v 0.034200 0.005556 0.008315
v 0.034766 0.005425 0.008119
v 0.002000 0.006503 0.006503
v 0.002800 0.007071 0.007071
v 0.002234 0.006905 0.006905
v 0.035000 0.006503 0.006503
v 0.034200 0.007071 0.007071
v 0.034766 0.006905 0.006905
v 0.002000 0.007646 0.005109
v 0.002800 0.008315 0.005556
v 0.002234 0.008119 0.005425
v 0.035000 0.007646 0.005109
v 0.034200 0.008315 0.005556
v 0.034766 0.008119 0.005425
v 0.002000 0.008496 0.003519
v 0.002800 0.009239 0.003827
v 0.002234 0.009021 0.003737
v 0.035000 0.008496 0.003519
v 0.034200 0.009239 0.003827
v 0.034766 0.009021 0.003737
v 0.002000 0.009019 0.001794
v 0.002800 0.009808 0.001951
v 0.002234 0.009577 0.001905
v 0.035000 0.009019 0.001794
v 0.034200 0.009808 0.001951
v 0.034766 0.009577 0.001905
v 0.002000 0.009196 0.000000
v 0.002800 0.010000 0.000000
v 0.002234 0.009765 0.000000
v 0.035000 0.009196 0.000000
v 0.034200 0.010000 0.000000
v 0.034766 0.009765 0.000000
v 0.002000 0.009019 -0.001794
v 0.002800 0.009808 -0.001951
v 0.002234 0.009577 -0.001905
v 0.035000 0.009019 -0.001794
v 0.034200 0.009808 -0.001951
v 0.034766 0.009577 -0.001905
v 0.002000 0.008496 -0.003519
v 0.002800 0.009239 -0.003827
v 0.002234 0.009021 -0.003737
v 0.035000 0.008496 -0.003519
v 0.034200 0.009239 -0.003827
v 0.034766 0.009021 -0.003737
v 0.002000 0.007646 -0.005109
v 0.002800 0.008315 -0.005556
v 0.002234 0.008119 -0.005425
v 0.035000 0.007646 -0.005109
v 0.034200 0.008315 -0.005556
v 0.034766 0.008119 -0.005425
v 0.002000 0.006503 -0.006503
v 0.002800 0.007071 -0.007071
v 0.002234 0.006905 -0.006905
v 0.035000 0.006503 -0.006503
v 0.034200 0.007071 -0.007071
v 0.034766 0.006905 -0.006905
v 0.002000 0.005109 -0.007646
v 0.002800 0.005556 -0.008315
v 0.002234 0.005425 -0.008119
v 0.035000 0.005109 -0.007646
v 0.034200 0.005556 -0.008315
v 0.034766 0.005425 -0.008119
v 0.002000 0.003519 -0.008496
v 0.002800 0.003827 -0.009239
v 0.002234 0.003737 -0.009021
v 0.035000 0.003519 -0.008496
v 0.034200 0.003827 -0.009239
v 0.034766 0.003737 -0.009021
v 0.002000 0.001794 -0.009019
v 0.002800 0.001951 -0.009808
v 0.002234 0.001905 -0.009577
v 0.035000 0.001794 -0.009019
v 0.034200 0.001951 -0.009808
v 0.034766 0.001905 -0.009577
v 0.034500 0.000000 -0.006000
v 0.036500 0.000000 -0.006000
v 0.034500 -0.001553 -0.005796
v 0.036500 -0.001553 -0.005796
v 0.034500 -0.003000 -0.005196
v 0.036500 -0.003000 -0.005196
v 0.034500 -0.004243 -0.004243
v 0.036500 -0.004243 -0.004243
v 0.034500 -0.005196 -0.003000
v 0.036500 -0.005196 -0.003000
v 0.034500 -0.005796 -0.001553
v 0.036500 -0.005796 -0.001553
v 0.034500 -0.006000 0.000000
v 0.036500 -0.006000 0.000000
v 0.034500 -0.005796 0.001553
v 0.036500 -0.005796 0.001553
v 0.034500 -0.005196 0.003000
v 0.036500 -0.005196 0.003000
v 0.034500 -0.004243 0.004243
v 0.036500 -0.004243 0.004243
v 0.034500 -0.003000 0.005196
v 0.036500 -0.003000 0.005196
v 0.034500 -0.001553 0.005796
v 0.036500 -0.001553 0.005796
v 0.034500 0.000000 0.006000
v 0.036500 0.000000 0.006000
v 0.034500 0.001553 0.005796
v 0.036500 0.001553 0.005796
v 0.034500 0.003000 0.005196
v 0.036500 0.003000 0.005196
v 0.034500 0.004243 0.004243
v 0.036500 0.004243 0.004243
v 0.034500 0.005196 0.003000
v 0.036500 0.005196 0.003000
v 0.034500 0.005796 0.001553
v 0.036500 0.005796 0.001553
v 0.034500 0.006000 0.000000
v 0.036500 0.006000 0.000000
v 0.034500 0.005796 -0.001553
v 0.036500 0.005796 -0.001553
v 0.034500 0.005196 -0.003000
v 0.036500 0.005196 -0.003000
v 0.034500 0.004243 -0.004243
v 0.036500 0.004243 -0.004243
v 0.034500 0.003000 -0.005196
v 0.036500 0.003000 -0.005196
v 0.034500 0.001553 -0.005796
v 0.036500 0.001553 -0.005796
v 0.034500 -0.009000 0.000300
v 0.034500 -0.006000 0.000300
v 0.034500 -0.009000 -0.000300
v 0.034500 -0.006000 -0.000300
v 0.036500 -0.009000 0.000300
v 0.036500 -0.006000 0.000300
v 0.036500 -0.009000 -0.000300
v 0.036500 -0.006000 -0.000300
v 0.034500 0.006000 0.000300
v 0.034500 0.009000 0.000300
v 0.034500 0.006000 -0.000300
v 0.034500 0.009000 -0.000300
v 0.036500 0.006000 0.000300
v 0.036500 0.009000 0.000300
v 0.036500 0.006000 -0.000300
v 0.036500 0.009000 -0.000300
v -0.024000 0.002700 -0.009000
v -0.023301 0.002608 -0.009000
v -0.022650 0.002338 -0.009000
v -0.022091 0.001909 -0.018000
v -0.022091 0.001909 -0.009000
v -0.021662 0.001350 -0.018000
v -0.021662 0.001350 -0.009000
v -0.021392 0.000699 -0.018000
v -0.021392 0.000699 -0.009000
v -0.021300 0.000000 -0.018000
v -0.021300 0.000000 -0.009000
v -0.021392 -0.000699 -0.018000
v -0.021392 -0.000699 -0.009000
v -0.021662 -0.001350 -0.018000
v -0.021662 -0.001350 -0.009000
v -0.022091 -0.001909 -0.018000
v -0.022091 -0.001909 -0.009000
v -0.022650 -0.002338 -0.018000
v -0.022650 -0.002338 -0.009000
v -0.023301 -0.002608 -0.018000
v -0.023301 -0.002608 -0.009000
v -0.024000 -0.002700 -0.018000
v -0.024000 -0.002700 -0.009000
v -0.024699 -0.002608 -0.018000
v -0.024699 -0.002608 -0.009000
v -0.025350 -0.002338 -0.018000
v -0.025350 -0.002338 -0.009000
v -0.025909 -0.001909 -0.018000
v -0.025909 -0.001909 -0.009000
v -0.026338 -0.001350 -0.018000
v -0.026338 -0.001350 -0.009000
v -0.026608 -0.000699 -0.018000
v -0.026608 -0.000699 -0.009000
v -0.026700 0.000000 -0.018000
v -0.026700 0.000000 -0.009000
v -0.026608 0.000699 -0.018000
v -0.026608 0.000699 -0.009000
v -0.026338 0.001350 -0.018000
v -0.026338 0.001350 -0.009000
v -0.025909 0.001909 -0.018000
v -0.025909 0.001909 -0.009000
v -0.025350 0.002338 -0.009000
v -0.024699 0.002608 -0.009000
v -0.024000 0.002700 -0.011400
v -0.023301 0.002608 -0.011400
v -0.022650 0.002338 -0.011400
v -0.022339 0.002100 -0.011400
v -0.022339 0.002100 -0.018000
v -0.025661 0.002100 -0.011400
v -0.025661 0.002100 -0.018000
v -0.025350 0.002338 -0.011400
v -0.024699 0.002608 -0.011400
v -0.024000 0.002700 0.009000
v -0.023301 0.002608 0.009000
v -0.022650 0.002338 0.009000
v -0.022091 0.001909 0.009000
v -0.022091 0.001909 0.018000
v -0.021662 0.001350 0.009000
v -0.021662 0.001350 0.018000
v -0.021392 0.000699 0.009000
v -0.021392 0.000699 0.018000
v -0.021300 0.000000 0.009000
v -0.021300 0.000000 0.018000
v -0.021392 -0.000699 0.009000
v -0.021392 -0.000699 0.018000
v -0.021662 -0.001350 0.009000
v -0.021662 -0.001350 0.018000
v -0.022091 -0.001909 0.009000
v -0.022091 -0.001909 0.018000
v -0.022650 -0.002338 0.009000
v -0.022650 -0.002338 0.018000
v -0.023301 -0.002608 0.009000
v -0.023301 -0.002608 0.018000
v -0.024000 -0.002700 0.009000
v -0.024000 -0.002700 0.018000
v -0.024699 -0.002608 0.009000
v -0.024699 -0.002608 0.018000
v -0.025350 -0.002338 0.009000
v -0.025350 -0.002338 0.018000
v -0.025909 -0.001909 0.009000
v -0.025909 -0.001909 0.018000
v -0.026338 -0.001350 0.009000
v -0.026338 -0.001350 0.018000
v -0.026608 -0.000699 0.009000
v -0.026608 -0.000699 0.018000
v -0.026700 0.000000 0.009000
v -0.026700 0.000000 0.018000
v -0.026608 0.000699 0.009000
v -0.026608 0.000699 0.018000
v -0.026338 0.001350 0.009000
v -0.026338 0.001350 0.018000
v -0.025909 0.001909 0.009000
v -0.025909 0.001909 0.018000
v -0.025350 0.002338 0.009000
v -0.024699 0.002608 0.009000
v -0.024000 0.002700 0.011400
v -0.023301 0.002608 0.011400
v -0.022650 0.002338 0.011400
v -0.022339 0.002100 0.018000
v -0.022339 0.002100 0.011400
v -0.025661 0.002100 0.018000
v -0.025661 0.002100 0.011400
v -0.025350 0.002338 0.011400
v -0.024699 0.002608 0.011400
v -0.031500 -0.000275 -0.009020
v -0.031500 0.000275 -0.009020
v -0.031500 -0.000275 -0.009220
v -0.031500 0.000275 -0.009220
v -0.000500 -0.000275 -0.009020
v -0.000500 0.000275 -0.009020
v -0.000500 -0.000275 -0.009220
v -0.000500 0.000275 -0.009220
v -0.030000 0.006850 -0.009340
v -0.030000 0.006850 -0.009100
v -0.029575 0.006736 -0.009340
v -0.029575 0.006736 -0.009100
v -0.029264 0.006425 -0.009340
v -0.029264 0.006425 -0.009100
v -0.029150 0.006000 -0.009340
v -0.029150 0.006000 -0.009100
v -0.029264 0.005575 -0.009340
v -0.029264 0.005575 -0.009100
v -0.029575 0.005264 -0.009340
v -0.029575 0.005264 -0.009100
v -0.030000 0.005150 -0.009340
v -0.030000 0.005150 -0.009100
v -0.030425 0.005264 -0.009340
v -0.030425 0.005264 -0.009100
v -0.030736 0.005575 -0.009340
v -0.030736 0.005575 -0.009100
v -0.030850 0.006000 -0.009340
v -0.030850 0.006000 -0.009100
v -0.030736 0.006425 -0.009340
v -0.030736 0.006425 -0.009100
v -0.030425 0.006736 -0.009340
v -0.030425 0.006736 -0.009100
v -0.030574 0.005898 -0.009336
v -0.030574 0.006102 -0.009336
v -0.030574 0.005898 -0.009360
v -0.030574 0.006102 -0.009360
v -0.029426 0.005898 -0.009336
v -0.029426 0.006102 -0.009336
v -0.029426 0.005898 -0.009360
v -0.029426 0.006102 -0.009360
v -0.013000 0.006850 -0.009340
v -0.013000 0.006850 -0.009100
v -0.012575 0.006736 -0.009340
v -0.012575 0.006736 -0.009100
v -0.012264 0.006425 -0.009340
v -0.012264 0.006425 -0.009100
v -0.012150 0.006000 -0.009340
v -0.012150 0.006000 -0.009100
v -0.012264 0.005575 -0.009340
v -0.012264 0.005575 -0.009100
v -0.012575 0.005264 -0.009340
v -0.012575 0.005264 -0.009100
v -0.013000 0.005150 -0.009340
v -0.013000 0.005150 -0.009100
v -0.013425 0.005264 -0.009340
v -0.013425 0.005264 -0.009100
v -0.013736 0.005575 -0.009340
v -0.013736 0.005575 -0.009100
v -0.013850 0.006000 -0.009340
v -0.013850 0.006000 -0.009100
v -0.013736 0.006425 -0.009340
v -0.013736 0.006425 -0.009100
v -0.013425 0.006736 -0.009340
v -0.013425 0.006736 -0.009100
v -0.013574 0.005898 -0.009336
v -0.013574 0.006102 -0.009336
v -0.013574 0.005898 -0.009360
v -0.013574 0.006102 -0.009360
v -0.012426 0.005898 -0.009336
v -0.012426 0.006102 -0.009336
v -0.012426 0.005898 -0.009360
v -0.012426 0.006102 -0.009360
v -0.031500 -0.000275 0.009220
v -0.031500 0.000275 0.009220
v -0.031500 -0.000275 0.009020
v -0.031500 0.000275 0.009020
v -0.000500 -0.000275 0.009220
v -0.000500 0.000275 0.009220
v -0.000500 -0.000275 0.009020
v -0.000500 0.000275 0.009020
v -0.030000 0.006850 0.009100
v -0.030000 0.006850 0.009340
v -0.029575 0.006736 0.009100
v -0.029575 0.006736 0.009340
v -0.029264 0.006425 0.009100
v -0.029264 0.006425 0.009340
v -0.029150 0.006000 0.009100
v -0.029150 0.006000 0.009340
v -0.029264 0.005575 0.009100
v -0.029264 0.005575 0.009340
v -0.029575 0.005264 0.009100
v -0.029575 0.005264 0.009340
v -0.030000 0.005150 0.009100
v -0.030000 0.005150 0.009340
v -0.030425 0.005264 0.009100
v -0.030425 0.005264 0.009340
v -0.030736 0.005575 0.009100
v -0.030736 0.005575 0.009340
v -0.030850 0.006000 0.009100
v -0.030850 0.006000 0.009340
v -0.030736 0.006425 0.009100
v -0.030736 0.006425 0.009340
v -0.030425 0.006736 0.009100
v -0.030425 0.006736 0.009340
v -0.030574 0.005898 0.009360
v -0.030574 0.006102 0.009360
v -0.030574 0.005898 0.009336
v -0.030574 0.006102 0.009336
v -0.029426 0.005898 0.009360
v -0.029426 0.006102 0.009360
v -0.029426 0.005898 0.009336
v -0.029426 0.006102 0.009336
v -0.013000 0.006850 0.009100
v -0.013000 0.006850 0.009340
v -0.012575 0.006736 0.009100
v -0.012575 0.006736 0.009340
v -0.012264 0.006425 0.009100
v -0.012264 0.006425 0.009340
v -0.012150 0.006000 0.009100
v -0.012150 0.006000 0.009340
v -0.012264 0.005575 0.009100
v -0.012264 0.005575 0.009340
v -0.012575 0.005264 0.009100
v -0.012575 0.005264 0.009340
v -0.013000 0.005150 0.009100
v -0.013000 0.005150 0.009340
v -0.013425 0.005264 0.009100
v -0.013425 0.005264 0.009340
v -0.013736 0.005575 0.009100
v -0.013736 0.005575 0.009340
v -0.013850 0.006000 0.009100
v -0.013850 0.006000 0.009340
v -0.013736 0.006425 0.009100
v -0.013736 0.006425 0.009340
v -0.013425 0.006736 0.009100
v -0.013425 0.006736 0.009340
v -0.013574 0.005898 0.009360
v -0.013574 0.006102 0.009360
v -0.013574 0.005898 0.009336
v -0.013574 0.006102 0.009336
v -0.012426 0.005898 0.009360
v -0.012426 0.006102 0.009360
v -0.012426 0.005898 0.009336
v -0.012426 0.006102 0.009336
v -0.018840 0.001500 0.009290
v -0.018840 0.001660 0.009450
v -0.019000 0.001660 0.009290
v -0.018840 0.007340 0.009450
v -0.018840 0.007500 0.009290
v -0.019000 0.007340 0.009290
v -0.018840 0.001500 0.009210
v -0.019000 0.001660 0.009210
v -0.018840 0.001660 0.009050
v -0.018840 0.007500 0.009210
v -0.018840 0.007340 0.009050
v -0.019000 0.007340 0.009210
v -0.009160 0.001500 0.009290
v -0.009000 0.001660 0.009290
v -0.009160 0.001660 0.009450
v -0.009160 0.007500 0.009290
v -0.009160 0.007340 0.009450
v -0.009000 0.007340 0.009290
v -0.009160 0.001500 0.009210
v -0.009160 0.001660 0.009050
v -0.009000 0.001660 0.009210
v -0.009160 0.007500 0.009210
v -0.009000 0.007340 0.009210
v -0.009160 0.007340 0.009050
v -0.017250 0.003200 0.009580
v -0.017250 0.003800 0.009580
v -0.017250 0.003200 0.009460
v -0.017250 0.003800 0.009460
v -0.010750 0.003200 0.009580
v -0.010750 0.003800 0.009580
v -0.010750 0.003200 0.009460
v -0.010750 0.003800 0.009460
v -0.017250 0.005200 0.009580
v -0.017250 0.005800 0.009580
v -0.017250 0.005200 0.009460
v -0.017250 0.005800 0.009460
v -0.010750 0.005200 0.009580
v -0.010750 0.005800 0.009580
v -0.010750 0.005200 0.009460
v -0.010750 0.005800 0.009460
v 0.006650 0.010050 0.000000
v 0.006650 0.009708 0.002601
v 0.006650 0.008704 0.005025
v 0.006650 0.007106 0.007106
v 0.006650 0.005025 0.008704
v 0.006650 0.002601 0.009708
v 0.006650 0.000000 0.010050
v 0.006650 -0.002601 0.009708
v 0.006650 -0.005025 0.008704
v 0.006650 -0.007106 0.007106
v 0.006650 -0.008704 0.005025
v 0.006650 -0.009708 0.002601
v 0.006650 -0.010050 0.000000
v 0.006650 -0.009708 -0.002601
v 0.006650 -0.008704 -0.005025
v 0.006650 -0.007106 -0.007106
v 0.006650 -0.005025 -0.008704
v 0.006650 -0.002601 -0.009708
v 0.006650 0.000000 -0.010050
v 0.006650 0.002601 -0.009708
v 0.006650 0.005025 -0.008704
v 0.006650 0.007106 -0.007106
v 0.006650 0.008704 -0.005025
v 0.006650 0.009708 -0.002601
v 0.006650 0.009700 0.000000
v 0.006650 0.009369 0.002511
v 0.006650 0.008400 0.004850
v 0.006650 0.006859 0.006859
v 0.006650 0.004850 0.008400
v 0.006650 0.002511 0.009369
v 0.006650 0.000000 0.009700
v 0.006650 -0.002511 0.009369
v 0.006650 -0.004850 0.008400
v 0.006650 -0.006859 0.006859
v 0.006650 -0.008400 0.004850
v 0.006650 -0.009369 0.002511
v 0.006650 -0.009700 0.000000
v 0.006650 -0.009369 -0.002511
v 0.006650 -0.008400 -0.004850
v 0.006650 -0.006859 -0.006859
v 0.006650 -0.004850 -0.008400
v 0.006650 -0.002511 -0.009369
v 0.006650 0.000000 -0.009700
v 0.006650 0.002511 -0.009369
v 0.006650 0.004850 -0.008400
v 0.006650 0.006859 -0.006859
v 0.006650 0.008400 -0.004850
v 0.006650 0.009369 -0.002511
v 0.007350 0.010050 0.000000
v 0.007350 0.009708 0.002601
v 0.007350 0.008704 0.005025
v 0.007350 0.007106 0.007106
v 0.007350 0.005025 0.008704
v 0.007350 0.002601 0.009708
v 0.007350 0.000000 0.010050
v 0.007350 -0.002601 0.009708
v 0.007350 -0.005025 0.008704
v 0.007350 -0.007106 0.007106
v 0.007350 -0.008704 0.005025
v 0.007350 -0.009708 0.002601
v 0.007350 -0.010050 0.000000
v 0.007350 -0.009708 -0.002601
v 0.007350 -0.008704 -0.005025
v 0.007350 -0.007106 -0.007106
v 0.007350 -0.005025 -0.008704
v 0.007350 -0.002601 -0.009708
v 0.007350 0.000000 -0.010050
v 0.007350 0.002601 -0.009708
v 0.007350 0.005025 -0.008704
v 0.007350 0.007106 -0.007106
v 0.007350 0.008704 -0.005025
v 0.007350 0.009708 -0.002601
v 0.007350 0.009700 0.000000
v 0.007350 0.009369 0.002511
v 0.007350 0.008400 0.004850
v 0.007350 0.006859 0.006859
v 0.007350 0.004850 0.008400
v 0.007350 0.002511 0.009369
v 0.007350 0.000000 0.009700
v 0.007350 -0.002511 0.009369
v 0.007350 -0.004850 0.008400
v 0.007350 -0.006859 0.006859
v 0.007350 -0.008400 0.004850
v 0.007350 -0.009369 0.002511
v 0.007350 -0.009700 0.000000
v 0.007350 -0.009369 -0.002511
v 0.007350 -0.008400 -0.004850
v 0.007350 -0.006859 -0.006859
v 0.007350 -0.004850 -0.008400
v 0.007350 -0.002511 -0.009369
v 0.007350 0.000000 -0.009700
v 0.007350 0.002511 -0.009369
v 0.007350 0.004850 -0.008400
v 0.007350 0.006859 -0.006859
v 0.007350 0.008400 -0.004850
v 0.007350 0.009369 -0.002511
v 0.029650 0.010050 0.000000
v 0.029650 0.009708 0.002601
v 0.029650 0.008704 0.005025
v 0.029650 0.007106 0.007106
v 0.029650 0.005025 0.008704
v 0.029650 0.002601 0.009708
v 0.029650 0.000000 0.010050
v 0.029650 -0.002601 0.009708
v 0.029650 -0.005025 0.008704
v 0.029650 -0.007106 0.007106
v 0.029650 -0.008704 0.005025
v 0.029650 -0.009708 0.002601
v 0.029650 -0.010050 0.000000
v 0.029650 -0.009708 -0.002601
v 0.029650 -0.008704 -0.005025
v 0.029650 -0.007106 -0.007106
v 0.029650 -0.005025 -0.008704
v 0.029650 -0.002601 -0.009708
v 0.029650 0.000000 -0.010050
v 0.029650 0.002601 -0.009708
v 0.029650 0.005025 -0.008704
v 0.029650 0.007106 -0.007106
v 0.029650 0.008704 -0.005025
v 0.029650 0.009708 -0.002601
v 0.029650 0.009700 0.000000
v 0.029650 0.009369 0.002511
v 0.029650 0.008400 0.004850
v 0.029650 0.006859 0.006859
v 0.029650 0.004850 0.008400
v 0.029650 0.002511 0.009369
v 0.029650 0.000000 0.009700
v 0.029650 -0.002511 0.009369
v 0.029650 -0.004850 0.008400
v 0.029650 -0.006859 0.006859
v 0.029650 -0.008400 0.004850
v 0.029650 -0.009369 0.002511
v 0.029650 -0.009700 0.000000
v 0.029650 -0.009369 -0.002511
v 0.029650 -0.008400 -0.004850
v 0.029650 -0.006859 -0.006859
v 0.029650 -0.004850 -0.008400
v 0.029650 -0.002511 -0.009369
v 0.029650 0.000000 -0.009700
v 0.029650 0.002511 -0.009369
v 0.029650 0.004850 -0.008400
v 0.029650 0.006859 -0.006859
v 0.029650 0.008400 -0.004850
v 0.029650 0.009369 -0.002511
v 0.030350 0.010050 0.000000
v 0.030350 0.009708 0.002601
v 0.030350 0.008704 0.005025
v 0.030350 0.007106 0.007106
v 0.030350 0.005025 0.008704
v 0.030350 0.002601 0.009708
v 0.030350 0.000000 0.010050
v 0.030350 -0.002601 0.009708
v 0.030350 -0.005025 0.008704
v 0.030350 -0.007106 0.007106
v 0.030350 -0.008704 0.005025
v 0.030350 -0.009708 0.002601
v 0.030350 -0.010050 0.000000
v 0.030350 -0.009708 -0.002601
v 0.030350 -0.008704 -0.005025
v 0.030350 -0.007106 -0.007106
v 0.030350 -0.005025 -0.008704
v 0.030350 -0.002601 -0.009708
v 0.030350 0.000000 -0.010050
v 0.030350 0.002601 -0.009708
v 0.030350 0.005025 -0.008704
v 0.030350 0.007106 -0.007106
v 0.030350 0.008704 -0.005025
v 0.030350 0.009708 -0.002601
v 0.030350 0.009700 0.000000
v 0.030350 0.009369 0.002511
v 0.030350 0.008400 0.004850
v 0.030350 0.006859 0.006859
v 0.030350 0.004850 0.008400
v 0.030350 0.002511 0.009369
v 0.030350 0.000000 0.009700
v 0.030350 -0.002511 0.009369
v 0.030350 -0.004850 0.008400
v 0.030350 -0.006859 0.006859
v 0.030350 -0.008400 0.004850
v 0.030350 -0.009369 0.002511
v 0.030350 -0.009700 0.000000
v 0.030350 -0.009369 -0.002511
v 0.030350 -0.008400 -0.004850
v 0.030350 -0.006859 -0.006859
v 0.030350 -0.004850 -0.008400
v 0.030350 -0.002511 -0.009369
v 0.030350 0.000000 -0.009700
v 0.030350 0.002511 -0.009369
v 0.030350 0.004850 -0.008400
v 0.030350 0.006859 -0.006859
v 0.030350 0.008400 -0.004850
v 0.030350 0.009369 -0.002511
v 0.036300 -0.000500 -0.003650
v 0.036300 0.003500 -0.003650
v 0.036300 -0.000500 -0.004350
v 0.036300 0.003500 -0.004350
v 0.036460 -0.000500 -0.003650
v 0.036460 0.003500 -0.003650
v 0.036460 -0.000500 -0.004350
v 0.036460 0.003500 -0.004350
v 0.036300 -0.000500 0.000350
v 0.036300 0.003500 0.000350
v 0.036300 -0.000500 -0.000350
v 0.036300 0.003500 -0.000350
v 0.036460 -0.000500 0.000350
v 0.036460 0.003500 0.000350
v 0.036460 -0.000500 -0.000350
v 0.036460 0.003500 -0.000350
v 0.036300 -0.000500 0.004350
v 0.036300 0.003500 0.004350
v 0.036300 -0.000500 0.003650
v 0.036300 0.003500 0.003650
v 0.036460 -0.000500 0.004350
v 0.036460 0.003500 0.004350
v 0.036460 -0.000500 0.003650
v 0.036460 0.003500 0.003650
vn -0.2489 -0.9318 0.2641
vn -0.2176 -0.6902 0.6902
vn -0.2641 -0.2489 0.9318
vn -0.6902 -0.2176 0.6902
vn -0.9318 -0.2641 0.2489
vn -0.6902 -0.6902 0.2176
vn -0.5774 -0.5774 0.5774
vn -0.2489 0.2641 0.9318
vn -0.2176 0.6902 0.6902
vn -0.2641 0.9318 0.2489
vn -0.6902 0.6902 0.2176
vn -0.9318 0.2489 0.2641
vn -0.6902 0.2176 0.6902
vn -0.5774 0.5774 0.5774
vn -0.2641 -0.9318 -0.2489
vn -0.6902 -0.6902 -0.2176
vn -0.9318 -0.2489 -0.2641
vn -0.6902 -0.2176 -0.6902
vn -0.2489 -0.2641 -0.9318
vn -0.2176 -0.6902 -0.6902
vn -0.5774 -0.5774 -0.5774
vn -0.2489 0.9318 -0.2641
vn -0.2176 0.6902 -0.6902
vn -0.2641 0.2489 -0.9318
vn -0.6902 0.2176 -0.6902
vn -0.9318 0.2641 -0.2489
vn -0.6902 0.6902 -0.2176
vn -0.5774 0.5774 -0.5774
vn 0.2641 -0.9318 0.2489
vn 0.6902 -0.6902 0.2176
vn 0.9318 -0.2489 0.2641
vn 0.6902 -0.2176 0.6902
vn 0.2489 -0.2641 0.9318
vn 0.2176 -0.6902 0.6902
vn 0.5774 -0.5774 0.5774
vn 0.2489 0.9318 0.2641
vn 0.2176 0.6902 0.6902
vn 0.2641 0.2489 0.9318
vn 0.6902 0.2176 0.6902
vn 0.9318 0.2641 0.2489
vn 0.6902 0.6902 0.2176
vn 0.5774 0.5774 0.5774
vn 0.2489 -0.9318 -0.2641
vn 0.2176 -0.6902 -0.6902
vn 0.2641 -0.2489 -0.9318
vn 0.6902 -0.2176 -0.6902
vn 0.9318 -0.2641 -0.2489
vn 0.6902 -0.6902 -0.2176
vn 0.5774 -0.5774 -0.5774
vn 0.2641 0.9318 -0.2489
vn 0.6902 0.6902 -0.2176
vn 0.9318 0.2489 -0.2641
vn 0.6902 0.2176 -0.6902
vn 0.2489 0.2641 -0.9318
vn 0.2176 0.6902 -0.6902
vn 0.5774 0.5774 -0.5774
vn -0.2581 -0.9661 -0.0000
vn -0.7071 -0.7071 -0.0000
vn -0.9661 -0.2581 -0.0000
vn -0.2581 -0.0000 0.9661
vn -0.7071 -0.0000 0.7071
vn -0.9661 -0.0000 0.2581
vn -0.2581 0.9661 -0.0000
vn -0.7071 0.7071 -0.0000
vn -0.9661 0.2581 -0.0000
vn -0.2581 -0.0000 -0.9661
vn -0.7071 -0.0000 -0.7071
vn -0.9661 -0.0000 -0.2581
vn -0.0000 -0.9661 -0.2581
vn -0.0000 -0.7071 -0.7071
vn -0.0000 -0.2581 -0.9661
vn -0.0000 0.9661 -0.2581
vn -0.0000 0.7071 -0.7071
vn -0.0000 0.2581 -0.9661
vn 0.9661 -0.0000 -0.2581
vn 0.7071 -0.0000 -0.7071
vn 0.2581 -0.0000 -0.9661
vn 0.2581 -0.9661 -0.0000
vn 0.7071 -0.7071 -0.0000
vn 0.9661 -0.2581 -0.0000
vn 0.2581 0.9661 -0.0000
vn 0.7071 0.7071 -0.0000
vn 0.9661 0.2581 -0.0000
vn 0.2581 -0.0000 0.9661
vn 0.7071 -0.0000 0.7071
vn 0.9661 -0.0000 0.2581
vn -0.0000 -0.9661 0.2581
vn -0.0000 -0.7071 0.7071
vn -0.0000 -0.2581 0.9661
vn -0.0000 0.9661 0.2581
vn -0.0000 0.7071 0.7071
vn -0.0000 0.2581 0.9661
vn -0.0000 -1.0000 -0.0000
vn -1.0000 -0.0000 -0.0000
vn -0.0000 -0.0000 1.0000
vn -0.0000 1.0000 -0.0000
vn -0.0000 -0.0000 -1.0000
vn 1.0000 -0.0000 -0.0000
vn -0.1554 -0.9878 -0.0000
vn -0.4540 -0.8910 -0.0000
vn -0.8910 -0.4540 -0.0000
vn -0.9878 -0.1554 -0.0000
vn -0.9878 0.1554 -0.0000
vn -0.8910 0.4540 -0.0000
vn -0.4540 0.8910 -0.0000
vn -0.1554 0.9878 -0.0000
vn 0.1554 0.9878 -0.0000
vn 0.4540 0.8910 -0.0000
vn 0.8910 0.4540 -0.0000
vn 0.9879 0.1554 -0.0000
vn 0.9879 -0.1554 -0.0000
vn 0.8910 -0.4540 -0.0000
vn 0.4540 -0.8910 -0.0000
vn 0.1554 -0.9878 -0.0000
vn 0.9878 0.1554 -0.0000
vn 0.9878 -0.1554 -0.0000
vn -0.3819 -0.0908 -0.9197
vn -0.9242 -0.0375 -0.3801
vn 0.3826 -0.0907 -0.9194
vn 0.9242 -0.0375 -0.3801
vn -0.3826 -0.2683 -0.8841
vn -0.9242 -0.1108 -0.3655
vn 0.3831 -0.2683 -0.8839
vn 0.9241 -0.1109 -0.3658
vn -0.3830 -0.4354 -0.8147
vn -0.9241 -0.1802 -0.3371
vn 0.3829 -0.4354 -0.8148
vn 0.9242 -0.1801 -0.3369
vn -0.3829 -0.5859 -0.7142
vn -0.9242 -0.2422 -0.2954
vn 0.3815 -0.5862 -0.7147
vn 0.9241 -0.2423 -0.2956
vn -0.3815 -0.7147 -0.5862
vn -0.9241 -0.2956 -0.2423
vn 0.3829 -0.7142 -0.5859
vn 0.9242 -0.2954 -0.2422
vn -0.3829 -0.8148 -0.4354
vn -0.9242 -0.3369 -0.1801
vn 0.3830 -0.8147 -0.4353
vn 0.9241 -0.3371 -0.1802
vn -0.3831 -0.8839 -0.2683
vn -0.9241 -0.3658 -0.1109
vn 0.3826 -0.8841 -0.2683
vn 0.9242 -0.3655 -0.1108
vn -0.3826 -0.9194 -0.0907
vn -0.9242 -0.3801 -0.0375
vn 0.3819 -0.9197 -0.0908
vn 0.9242 -0.3801 -0.0375
vn -0.3819 -0.9197 0.0908
vn -0.9242 -0.3801 0.0375
vn 0.3826 -0.9194 0.0907
vn 0.9242 -0.3801 0.0375
vn -0.3826 -0.8841 0.2683
vn -0.9242 -0.3655 0.1108
vn 0.3831 -0.8839 0.2683
vn 0.9241 -0.3658 0.1109
vn -0.3830 -0.8147 0.4354
vn -0.9241 -0.3371 0.1802
vn 0.3829 -0.8148 0.4354
vn 0.9242 -0.3369 0.1801
vn -0.3829 -0.7142 0.5859
vn -0.9242 -0.2954 0.2422
vn 0.3815 -0.7147 0.5862
vn 0.9241 -0.2956 0.2423
vn -0.3815 -0.5862 0.7147
vn -0.9241 -0.2423 0.2956
vn 0.3829 -0.5859 0.7142
vn 0.9242 -0.2422 0.2954
vn -0.3829 -0.4354 0.8148
vn -0.9242 -0.1801 0.3369
vn 0.3830 -0.4354 0.8147
vn 0.9241 -0.1802 0.3371
vn -0.3831 -0.2683 0.8839
vn -0.9241 -0.1109 0.3658
vn 0.3826 -0.2683 0.8841
vn 0.9242 -0.1108 0.3655
vn -0.3826 -0.0907 0.9194
vn -0.9242 -0.0375 0.3801
vn 0.3819 -0.0908 0.9197
vn 0.9242 -0.0375 0.3801
vn -0.3819 0.0908 0.9197
vn -0.9242 0.0375 0.3801
vn 0.3826 0.0907 0.9194
vn 0.9242 0.0375 0.3801
vn -0.3826 0.2683 0.8841
vn -0.9242 0.1108 0.3655
vn 0.3831 0.2683 0.8839
vn 0.9241 0.1109 0.3658
vn -0.3830 0.4354 0.8147
vn -0.9241 0.1802 0.3371
vn 0.3829 0.4354 0.8148
vn 0.9242 0.1801 0.3369
vn -0.3829 0.5859 0.7142
vn -0.9242 0.2422 0.2954
vn 0.3815 0.5862 0.7147
vn 0.9241 0.2423 0.2956
vn -0.3815 0.7147 0.5862
vn -0.9241 0.2956 0.2423
vn 0.3829 0.7142 0.5859
vn 0.9242 0.2954 0.2422
vn -0.3829 0.8148 0.4354
vn -0.9242 0.3369 0.1801
vn 0.3830 0.8147 0.4353
vn 0.9241 0.3371 0.1802
vn -0.3831 0.8839 0.2683
vn -0.9241 0.3658 0.1109
vn 0.3826 0.8841 0.2683
vn 0.9242 0.3655 0.1108
vn -0.3826 0.9194 0.0907
vn -0.9242 0.3801 0.0375
vn 0.3819 0.9197 0.0908
vn 0.9242 0.3801 0.0375
vn -0.3819 0.9197 -0.0908
vn -0.9242 0.3801 -0.0375
vn 0.3826 0.9194 -0.0907
vn 0.9242 0.3801 -0.0375
vn -0.3826 0.8841 -0.2683
vn -0.9242 0.3655 -0.1108
vn 0.3831 0.8839 -0.2683
vn 0.9241 0.3658 -0.1109
vn -0.3830 0.8147 -0.4354
vn -0.9241 0.3371 -0.1802
vn 0.3829 0.8148 -0.4354
vn 0.9242 0.3369 -0.1801
vn -0.3829 0.7142 -0.5859
vn -0.9242 0.2954 -0.2422
vn 0.3815 0.7147 -0.5862
vn 0.9241 0.2956 -0.2423
vn -0.3815 0.5862 -0.7147
vn -0.9241 0.2423 -0.2956
vn 0.3829 0.5859 -0.7142
vn 0.9242 0.2422 -0.2954
vn -0.3829 0.4354 -0.8148
vn -0.9242 0.1801 -0.3369
vn 0.3830 0.4354 -0.8147
vn 0.9241 0.1802 -0.3371
vn -0.3831 0.2683 -0.8839
vn -0.9241 0.1109 -0.3658
vn 0.3826 0.2683 -0.8841
vn 0.9242 0.1108 -0.3655
vn -0.3826 0.0907 -0.9194
vn -0.9242 0.0375 -0.3801
vn 0.3819 0.0908 -0.9197
vn 0.9242 0.0375 -0.3801
vn -0.0000 -0.0979 -0.9952
vn -0.0000 0.0979 -0.9952
vn -0.0000 -0.2902 -0.9570
vn -0.0000 -0.4713 -0.8820
vn -0.0000 -0.6346 -0.7728
vn -0.0000 -0.7728 -0.6346
vn -0.0000 -0.8820 -0.4713
vn -0.0000 -0.9570 -0.2902
vn -0.0000 -0.9952 -0.0979
vn -0.0000 -0.9952 0.0979
vn -0.0000 -0.9570 0.2902
vn -0.0000 -0.8820 0.4713
vn -0.0000 -0.7728 0.6346
vn -0.0000 -0.6346 0.7728
vn -0.0000 -0.4713 0.8820
vn -0.0000 -0.2902 0.9570
vn -0.0000 -0.0979 0.9952
vn -0.0000 0.0979 0.9952
vn -0.0000 0.2902 0.9570
vn -0.0000 0.4713 0.8820
vn -0.0000 0.6346 0.7728
vn -0.0000 0.7728 0.6346
vn -0.0000 0.8820 0.4713
vn -0.0000 0.9570 0.2902
vn -0.0000 0.9952 0.0979
vn -0.0000 0.9952 -0.0979
vn -0.0000 0.9570 -0.2902
vn -0.0000 0.8820 -0.4713
vn -0.0000 0.7728 -0.6346
vn -0.0000 0.6346 -0.7728
vn -0.0000 0.4713 -0.8820
vn -0.0000 0.2902 -0.9570
vn -0.0000 -0.1302 -0.9915
vn -0.0000 -0.3830 -0.9237
vn -0.0000 -0.6084 -0.7936
vn -0.0000 -0.7936 -0.6084
vn -0.0000 -0.9237 -0.3830
vn -0.0000 -0.9915 -0.1302
vn -0.0000 -0.9915 0.1302
vn -0.0000 -0.9237 0.3830
vn -0.0000 -0.7936 0.6084
vn -0.0000 -0.6084 0.7936
vn -0.0000 -0.3830 0.9237
vn -0.0000 -0.1302 0.9915
vn -0.0000 0.1302 0.9915
vn -0.0000 0.3830 0.9237
vn -0.0000 0.6084 0.7936
vn -0.0000 0.7936 0.6084
vn -0.0000 0.9237 0.3830
vn -0.0000 0.9915 0.1302
vn -0.0000 0.9915 -0.1302
vn -0.0000 0.9237 -0.3830
vn -0.0000 0.7936 -0.6084
vn -0.0000 0.6084 -0.7936
vn -0.0000 0.3830 -0.9237
vn -0.0000 0.1302 -0.9915
vn 0.1305 0.9914 -0.0000
vn 0.3831 0.9237 -0.0000
vn 0.6102 0.7923 -0.0000
vn 0.7933 0.6088 -0.0000
vn 0.9237 0.3831 -0.0000
vn 0.9914 0.1305 -0.0000
vn 0.9914 -0.1305 -0.0000
vn 0.9237 -0.3831 -0.0000
vn 0.7933 -0.6088 -0.0000
vn 0.6088 -0.7933 -0.0000
vn 0.3831 -0.9237 -0.0000
vn 0.1305 -0.9914 -0.0000
vn -0.1305 -0.9914 -0.0000
vn -0.3831 -0.9237 -0.0000
vn -0.6088 -0.7933 -0.0000
vn -0.7933 -0.6088 -0.0000
vn -0.9237 -0.3831 -0.0000
vn -0.9914 -0.1305 -0.0000
vn -0.9914 0.1305 -0.0000
vn -0.9237 0.3831 -0.0000
vn -0.7933 0.6088 -0.0000
vn -0.6077 0.7941 0.0004
vn -0.3831 0.9237 -0.0000
vn -0.1305 0.9914 -0.0000
vn 0.6077 0.7941 -0.0004
vn -0.6102 0.7923 -0.0000
vn 0.2591 0.9659 -0.0000
vn 0.9659 0.2591 -0.0000
vn 0.9659 -0.2591 -0.0000
vn 0.2591 -0.9659 -0.0000
vn -0.2591 -0.9659 -0.0000
vn -0.9659 -0.2591 -0.0000
vn -0.9659 0.2591 -0.0000
vn -0.2591 0.9659 -0.0000
vn -0.5774 -0.5773 0.5774
vn -0.5773 0.5773 0.5774
vn -0.5774 -0.5773 -0.5774
vn -0.5773 0.5773 -0.5774
vn 0.5774 -0.5773 0.5774
vn 0.5773 0.5773 0.5774
vn 0.5773 -0.5774 -0.5774
vn 0.5773 0.5774 -0.5774
vn -0.0000 0.9915 0.1304
vn -0.0000 -0.9914 -0.1307
vn -0.0000 0.9239 0.3827
vn -0.0000 -0.9239 -0.3827
vn -0.0000 0.7931 0.6090
vn -0.0000 -0.7935 -0.6086
vn -0.0000 0.6090 0.7931
vn -0.0000 -0.6086 -0.7935
vn -0.0000 0.3827 0.9239
vn -0.0000 -0.3827 -0.9239
vn -0.0000 0.1304 0.9915
vn -0.0000 -0.1307 -0.9914
vn -0.0000 -0.1304 0.9915
vn -0.0000 0.1307 -0.9914
vn -0.0000 -0.3827 0.9239
vn -0.0000 0.3827 -0.9239
vn -0.0000 -0.6090 0.7931
vn -0.0000 0.6086 -0.7935
vn -0.0000 -0.7931 0.6090
vn -0.0000 0.7935 -0.6086
vn -0.0000 -0.9239 0.3827
vn -0.0000 0.9239 -0.3827
vn -0.0000 -0.9915 0.1304
vn -0.0000 0.9914 -0.1307
vn -0.0000 -0.9915 -0.1304
vn -0.0000 0.9914 0.1307
vn -0.0000 -0.7931 -0.6090
vn -0.0000 0.7935 0.6086
vn -0.0000 -0.6090 -0.7931
vn -0.0000 0.6086 0.7935
vn -0.0000 -0.1304 -0.9915
vn -0.0000 0.1307 0.9914
vn -0.0000 0.1304 -0.9915
vn -0.0000 -0.1307 0.9914
vn -0.0000 0.6090 -0.7931
vn -0.0000 -0.6086 0.7935
vn -0.0000 0.7931 -0.6090
vn -0.0000 -0.7935 0.6086
vn -0.0000 0.9915 -0.1304
vn -0.0000 -0.9914 0.1307
vn -0.2641 -0.9318 0.2489
vn -0.2489 -0.2641 0.9318
vn -0.9318 -0.2489 0.2641
vn -0.2641 0.2489 0.9318
vn -0.2489 0.9318 0.2641
vn -0.9318 0.2641 0.2489
vn -0.2489 -0.9318 -0.2641
vn -0.9318 -0.2641 -0.2489
vn -0.2641 -0.2489 -0.9318
vn -0.2641 0.9318 -0.2489
vn -0.2489 0.2641 -0.9318
vn -0.9318 0.2489 -0.2641
vn 0.2489 -0.9318 0.2641
vn 0.9318 -0.2641 0.2489
vn 0.2641 -0.2489 0.9318
vn 0.2641 0.9318 0.2489
vn 0.2489 0.2641 0.9318
vn 0.9318 0.2489 0.2641
vn 0.2641 -0.9318 -0.2489
vn 0.2489 -0.2641 -0.9318
vn 0.9318 -0.2489 -0.2641
vn 0.2489 0.9318 -0.2641
vn 0.9318 0.2641 -0.2489
vn 0.2641 0.2489 -0.9318
vn -0.3826 -0.0905 -0.9195
vn 0.3819 -0.0905 -0.9198
vn -0.3831 -0.2681 -0.8839
vn -0.9241 -0.1110 -0.3658
vn 0.3826 -0.2682 -0.8841
vn 0.9242 -0.1109 -0.3655
vn -0.3829 -0.4354 -0.8147
vn -0.9242 -0.1800 -0.3369
vn 0.3830 -0.4354 -0.8147
vn 0.9241 -0.1801 -0.3371
vn -0.3816 -0.5866 -0.7144
vn -0.9241 -0.2424 -0.2955
vn 0.3829 -0.5862 -0.7139
vn 0.9242 -0.2423 -0.2953
vn -0.3829 -0.7139 -0.5862
vn -0.9242 -0.2953 -0.2423
vn 0.3816 -0.7144 -0.5866
vn 0.9241 -0.2955 -0.2424
vn -0.3830 -0.8147 -0.4354
vn -0.9241 -0.3371 -0.1801
vn 0.3829 -0.8147 -0.4354
vn 0.9242 -0.3369 -0.1800
vn -0.3826 -0.8841 -0.2682
vn -0.9242 -0.3655 -0.1109
vn 0.3831 -0.8839 -0.2681
vn 0.9241 -0.3658 -0.1110
vn -0.3819 -0.9198 -0.0905
vn 0.3826 -0.9195 -0.0905
vn -0.3826 -0.9195 0.0905
vn 0.3819 -0.9198 0.0905
vn -0.3831 -0.8839 0.2681
vn -0.9241 -0.3658 0.1110
vn 0.3826 -0.8841 0.2682
vn 0.9242 -0.3655 0.1109
vn -0.3829 -0.8147 0.4354
vn -0.9242 -0.3369 0.1800
vn 0.3830 -0.8147 0.4354
vn 0.9241 -0.3371 0.1801
vn -0.3816 -0.7144 0.5866
vn -0.9241 -0.2955 0.2424
vn 0.3829 -0.7139 0.5862
vn 0.9242 -0.2953 0.2423
vn -0.3829 -0.5862 0.7139
vn -0.9242 -0.2423 0.2953
vn 0.3816 -0.5866 0.7144
vn 0.9241 -0.2424 0.2955
vn -0.3830 -0.4354 0.8147
vn -0.9241 -0.1801 0.3371
vn 0.3829 -0.4354 0.8147
vn 0.9242 -0.1800 0.3369
vn -0.3826 -0.2682 0.8841
vn -0.9242 -0.1109 0.3655
vn 0.3831 -0.2681 0.8839
vn 0.9241 -0.1110 0.3658
vn -0.3819 -0.0905 0.9198
vn 0.3826 -0.0905 0.9195
vn -0.3826 0.0905 0.9195
vn 0.3819 0.0905 0.9198
vn -0.3831 0.2681 0.8839
vn -0.9241 0.1110 0.3658
vn 0.3826 0.2682 0.8841
vn 0.9242 0.1109 0.3655
vn -0.3829 0.4354 0.8147
vn -0.9242 0.1800 0.3369
vn 0.3830 0.4354 0.8147
vn 0.9241 0.1801 0.3371
vn -0.3816 0.5866 0.7144
vn -0.9241 0.2424 0.2955
vn 0.3829 0.5862 0.7139
vn 0.9242 0.2423 0.2953
vn -0.3829 0.7139 0.5862
vn -0.9242 0.2953 0.2423
vn 0.3816 0.7144 0.5866
vn 0.9241 0.2955 0.2424
vn -0.3830 0.8147 0.4354
vn -0.9241 0.3371 0.1801
vn 0.3829 0.8147 0.4354
vn 0.9242 0.3369 0.1800
vn -0.3826 0.8841 0.2682
vn -0.9242 0.3655 0.1109
vn 0.3831 0.8839 0.2681
vn 0.9241 0.3658 0.1110
vn -0.3819 0.9198 0.0905
vn 0.3826 0.9195 0.0905
vn -0.3826 0.9195 -0.0905
vn 0.3819 0.9198 -0.0905
vn -0.3831 0.8839 -0.2681
vn -0.9241 0.3658 -0.1110
vn 0.3826 0.8841 -0.2682
vn 0.9242 0.3655 -0.1109
vn -0.3829 0.8147 -0.4354
vn -0.9242 0.3369 -0.1800
vn 0.3830 0.8147 -0.4354
vn 0.9241 0.3371 -0.1801
vn -0.3816 0.7144 -0.5866
vn -0.9241 0.2955 -0.2424
vn 0.3829 0.7139 -0.5862
vn 0.9242 0.2953 -0.2423
vn -0.3829 0.5862 -0.7139
vn -0.9242 0.2423 -0.2953
vn 0.3816 0.5866 -0.7144
vn 0.9241 0.2424 -0.2955
vn -0.3830 0.4354 -0.8147
vn -0.9241 0.1801 -0.3371
vn 0.3829 0.4354 -0.8147
vn 0.9242 0.1800 -0.3369
vn -0.3826 0.2682 -0.8841
vn -0.9242 0.1109 -0.3655
vn 0.3831 0.2681 -0.8839
vn 0.9241 0.1110 -0.3658
vn -0.3819 0.0905 -0.9198
vn 0.3826 0.0905 -0.9195
vn 0.6088 0.7933 -0.0000
vn 0.6077 0.7941 0.0004
vn -0.6088 0.7933 -0.0000
vn -0.6077 0.7941 -0.0004
vn -0.0000 0.6091 0.7931
vn -0.0000 -0.6091 0.7931
vn -0.0000 -0.6091 -0.7931
vn -0.0000 0.6091 -0.7931
s 0
usemtl TtYellow
f 3//1 27//1 23//1
f 15//2 43//2 27//2
f 9//3 43//3 36//3
f 32//4 59//4 43//4
f 13//5 59//5 54//5
f 45//6 27//6 59//6
f 27//7 43//7 59//7
f 62//8 80//8 76//8
f 74//9 86//9 80//9
f 64//10 86//10 84//10
f 82//11 93//11 86//11
f 68//12 93//12 91//12
f 87//13 80//13 93//13
f 80//14 86//14 93//14
f 95//15 105//15 103//15
f 102//16 109//16 105//16
f 97//17 109//17 108//17
f 106//18 114//18 109//18
f 100//19 114//19 112//19
f 110//20 105//20 114//20
f 105//21 109//21 114//21
f 115//22 122//22 121//22
f 120//23 125//23 122//23
f 116//24 125//24 124//24
f 123//25 128//25 125//25
f 118//26 128//26 127//26
f 126//27 122//27 128//27
f 122//28 125//28 128//28
f 129//29 134//29 133//29
f 132//30 137//30 134//30
f 130//31 137//31 136//31
f 135//32 140//32 137//32
f 131//33 140//33 139//33
f 138//34 134//34 140//34
f 134//35 137//35 140//35
f 141//36 146//36 145//36
f 144//37 149//37 146//37
f 142//38 149//38 148//38
f 147//39 152//39 149//39
f 143//40 152//40 151//40
f 150//41 146//41 152//41
f 146//42 149//42 152//42
f 153//43 158//43 157//43
f 156//44 161//44 158//44
f 154//45 161//45 160//45
f 159//46 164//46 161//46
f 155//47 164//47 163//47
f 162//48 158//48 164//48
f 158//49 161//49 164//49
f 165//50 170//50 169//50
f 168//51 173//51 170//51
f 166//52 173//52 172//52
f 171//53 176//53 173//53
f 167//54 176//54 175//54
f 174//55 170//55 176//55
f 170//56 173//56 176//56
f 95//57 23//57 102//57
f 102//58 45//58 108//58
f 108//59 13//59 97//59
f 9//60 76//60 32//60
f 32//61 87//61 54//61
f 54//62 68//62 13//62
f 64//63 121//63 82//63
f 82//64 126//64 91//64
f 91//65 118//65 68//65
f 116//66 112//66 123//66
f 123//67 106//67 127//67
f 127//68 97//68 118//68
f 153//69 103//69 156//69
f 156//70 110//70 160//70
f 160//71 100//71 154//71
f 115//72 169//72 120//72
f 120//73 174//73 124//73
f 124//74 167//74 116//74
f 166//75 163//75 171//75
f 171//76 159//76 175//76
f 175//77 154//77 167//77
f 129//78 157//78 132//78
f 132//79 162//79 136//79
f 136//80 155//80 130//80
f 165//81 145//81 168//81
f 168//82 150//82 172//82
f 172//83 143//83 166//83
f 142//84 139//84 147//84
f 147//85 135//85 151//85
f 151//86 130//86 143//86
f 3//87 133//87 15//87
f 15//88 138//88 36//88
f 36//89 131//89 9//89
f 141//90 84//90 144//90
f 144//91 74//91 148//91
f 148//92 62//92 142//92
f 95//93 129//93 3//93
f 13//94 118//94 97//94
f 245//95 255//95 142//95
f 131//95 251//95 250//95
f 62//95 9//95 217//95
f 165//96 64//96 141//96
f 100//97 116//97 177//97
f 204//97 216//97 154//97
f 167//97 213//97 210//97
f 155//98 143//98 130//98
f 18//99 196//99 188//99
f 29//100 188//100 194//100
f 37//58 194//58 189//58
f 50//101 189//101 192//101
f 57//102 192//102 190//102
f 67//103 190//103 191//103
f 71//104 191//104 193//104
f 186//64 71//64 193//64
f 187//105 77//105 186//105
f 195//106 83//106 187//106
f 181//107 89//107 195//107
f 183//108 92//108 181//108
f 178//82 98//82 183//82
f 104//109 178//109 179//109
f 107//110 179//110 177//110
f 111//111 177//111 180//111
f 113//112 180//112 185//112
f 117//79 185//79 184//79
f 67//97 104//97 117//97
f 119//113 184//113 182//113
f 4//114 182//114 196//114
f 3//383 15//383 27//383
f 15//2 36//2 43//2
f 9//384 32//384 43//384
f 32//4 54//4 59//4
f 13//385 45//385 59//385
f 45//6 23//6 27//6
f 62//386 74//386 80//386
f 74//9 84//9 86//9
f 64//387 82//387 86//387
f 82//11 91//11 93//11
f 68//388 87//388 93//388
f 87//13 76//13 80//13
f 95//389 102//389 105//389
f 102//16 108//16 109//16
f 97//390 106//390 109//390
f 106//18 112//18 114//18
f 100//391 110//391 114//391
f 110//20 103//20 105//20
f 115//392 120//392 122//392
f 120//23 124//23 125//23
f 116//393 123//393 125//393
f 123//25 127//25 128//25
f 118//394 126//394 128//394
f 126//27 121//27 122//27
f 129//395 132//395 134//395
f 132//30 136//30 137//30
f 130//396 135//396 137//396
f 135//32 139//32 140//32
f 131//397 138//397 140//397
f 138//34 133//34 134//34
f 141//398 144//398 146//398
f 144//37 148//37 149//37
f 142//399 147//399 149//399
f 147//39 151//39 152//39
f 143//400 150//400 152//400
f 150//41 145//41 146//41
f 153//401 156//401 158//401
f 156//44 160//44 161//44
f 154//402 159//402 161//402
f 159//46 163//46 164//46
f 155//403 162//403 164//403
f 162//48 157//48 158//48
f 165//404 168//404 170//404
f 168//51 172//51 173//51
f 166//405 171//405 173//405
f 171//53 175//53 176//53
f 167//406 174//406 176//406
f 174//55 169//55 170//55
f 95//57 3//57 23//57
f 102//58 23//58 45//58
f 108//59 45//59 13//59
f 9//60 62//60 76//60
f 32//61 76//61 87//61
f 54//62 87//62 68//62
f 64//63 115//63 121//63
f 82//64 121//64 126//64
f 91//65 126//65 118//65
f 116//66 100//66 112//66
f 123//67 112//67 106//67
f 127//68 106//68 97//68
f 153//69 95//69 103//69
f 156//70 103//70 110//70
f 160//71 110//71 100//71
f 115//72 165//72 169//72
f 120//73 169//73 174//73
f 124//74 174//74 167//74
f 166//75 155//75 163//75
f 171//76 163//76 159//76
f 175//77 159//77 154//77
f 129//78 153//78 157//78
f 132//79 157//79 162//79
f 136//80 162//80 155//80
f 165//81 141//81 145//81
f 168//82 145//82 150//82
f 172//83 150//83 143//83
f 142//84 131//84 139//84
f 147//85 139//85 135//85
f 151//86 135//86 130//86
f 3//87 129//87 133//87
f 15//88 133//88 138//88
f 36//89 138//89 131//89
f 141//90 64//90 84//90
f 144//91 84//91 74//91
f 148//92 74//92 62//92
f 95//93 153//93 129//93
f 13//94 68//94 118//94
f 235//95 221//95 9//95
f 131//95 252//95 246//95
f 131//95 246//95 248//95
f 235//95 9//95 131//95
f 227//95 235//95 131//95
f 131//95 248//95 256//95
f 131//95 256//95 243//95
f 234//95 227//95 131//95
f 229//95 234//95 131//95
f 131//95 243//95 244//95
f 229//95 131//95 244//95
f 231//95 229//95 244//95
f 231//95 244//95 239//95
f 230//95 231//95 239//95
f 230//95 239//95 237//95
f 232//95 230//95 237//95
f 232//95 237//95 238//95
f 233//95 232//95 238//95
f 233//95 238//95 240//95
f 226//95 233//95 240//95
f 226//95 240//95 241//95
f 228//95 226//95 241//95
f 228//95 241//95 242//95
f 62//95 222//95 236//95
f 236//95 228//95 242//95
f 236//95 242//95 245//95
f 142//95 62//95 236//95
f 247//95 254//95 142//95
f 249//95 247//95 142//95
f 142//95 236//95 245//95
f 255//95 249//95 142//95
f 253//95 252//95 131//95
f 131//95 142//95 254//95
f 131//95 254//95 251//95
f 250//95 253//95 131//95
f 224//95 222//95 62//95
f 9//95 221//95 223//95
f 9//95 223//95 218//95
f 225//95 224//95 62//95
f 220//95 225//95 62//95
f 9//95 218//95 219//95
f 217//95 220//95 62//95
f 9//95 219//95 217//95
f 165//96 115//96 64//96
f 183//97 181//97 100//97
f 116//97 182//97 184//97
f 116//97 184//97 185//97
f 178//97 183//97 100//97
f 179//97 178//97 100//97
f 116//97 185//97 180//97
f 177//97 179//97 100//97
f 116//97 180//97 177//97
f 196//97 182//97 116//97
f 167//97 214//97 207//97
f 167//97 207//97 209//97
f 196//97 116//97 167//97
f 188//97 196//97 167//97
f 167//97 209//97 215//97
f 167//97 215//97 203//97
f 194//97 188//97 167//97
f 189//97 194//97 167//97
f 167//97 203//97 205//97
f 189//97 167//97 205//97
f 192//97 189//97 205//97
f 192//97 205//97 201//97
f 190//97 192//97 201//97
f 190//97 201//97 200//97
f 191//97 190//97 200//97
f 191//97 200//97 198//97
f 193//97 191//97 198//97
f 193//97 198//97 197//97
f 186//97 193//97 197//97
f 186//97 197//97 199//97
f 187//97 186//97 199//97
f 187//97 199//97 202//97
f 100//97 181//97 195//97
f 195//97 187//97 202//97
f 195//97 202//97 204//97
f 154//97 100//97 195//97
f 206//97 212//97 154//97
f 208//97 206//97 154//97
f 154//97 195//97 204//97
f 216//97 208//97 154//97
f 211//97 214//97 167//97
f 167//97 154//97 212//97
f 167//97 212//97 213//97
f 210//97 211//97 167//97
f 155//98 166//98 143//98
f 18//99 4//99 196//99
f 29//100 18//100 188//100
f 37//58 29//58 194//58
f 50//101 37//101 189//101
f 57//102 50//102 192//102
f 67//103 57//103 190//103
f 71//104 67//104 191//104
f 186//64 77//64 71//64
f 187//105 83//105 77//105
f 195//106 89//106 83//106
f 181//107 92//107 89//107
f 183//108 98//108 92//108
f 178//82 101//82 98//82
f 104//109 101//109 178//109
f 107//110 104//110 179//110
f 111//111 107//111 177//111
f 113//112 111//112 180//112
f 117//79 113//79 185//79
f 117//97 119//97 4//97
f 4//97 18//97 29//97
f 29//97 37//97 50//97
f 50//97 57//97 67//97
f 67//97 71//97 77//97
f 77//97 83//97 89//97
f 89//97 92//97 98//97
f 98//97 101//97 104//97
f 104//97 107//97 111//97
f 111//97 113//97 117//97
f 117//97 4//97 29//97
f 29//97 50//97 67//97
f 67//97 77//97 89//97
f 89//97 98//97 104//97
f 104//97 111//97 117//97
f 117//97 29//97 67//97
f 67//97 89//97 104//97
f 119//113 117//113 184//113
f 4//114 119//114 182//114
usemtl Temporary_cutter
f 10//99 215//99 209//99
f 21//100 209//100 207//100
f 26//58 207//58 214//58
f 33//101 214//101 211//101
f 40//102 211//102 210//102
f 48//103 210//103 213//103
f 52//104 213//104 212//104
f 60//64 212//64 206//64
f 208//105 60//105 206//105
f 216//106 65//106 208//106
f 204//107 69//107 216//107
f 202//108 72//108 204//108
f 81//82 202//82 199//82
f 85//109 199//109 197//109
f 88//115 197//115 198//115
f 90//116 198//116 200//116
f 94//112 200//112 201//112
f 96//79 201//79 205//79
f 40//97 81//97 94//97
f 99//113 205//113 203//113
f 6//114 203//114 215//114
f 236//99 7//99 228//99
f 228//100 12//100 226//100
f 226//58 16//58 233//58
f 233//101 20//101 232//101
f 232//102 24//102 230//102
f 230//103 30//103 231//103
f 231//104 34//104 229//104
f 229//64 39//64 234//64
f 234//105 42//105 227//105
f 227//106 46//106 235//106
f 235//107 51//107 221//107
f 221//108 56//108 223//108
f 223//82 61//82 218//82
f 218//109 63//109 219//109
f 219//110 66//110 217//110
f 217//111 70//111 220//111
f 220//112 73//112 225//112
f 225//79 75//79 224//79
f 224//113 79//113 222//113
f 222//114 1//114 236//114
f 24//95 73//95 61//95
f 255//99 5//99 249//99
f 249//100 8//100 247//100
f 247//58 11//58 254//58
f 254//101 14//101 251//101
f 251//102 17//102 250//102
f 250//103 19//103 253//103
f 253//104 22//104 252//104
f 252//64 25//64 246//64
f 246//105 28//105 248//105
f 248//106 31//106 256//106
f 256//107 35//107 243//107
f 243//108 38//108 244//108
f 244//82 41//82 239//82
f 239//109 44//109 237//109
f 237//115 47//115 238//115
f 238//116 49//116 240//116
f 240//112 53//112 241//112
f 241//79 55//79 242//79
f 242//113 58//113 245//113
f 245//114 2//114 255//114
f 8//95 44//95 31//95
f 10//99 6//99 215//99
f 21//100 10//100 209//100
f 26//58 21//58 207//58
f 33//101 26//101 214//101
f 40//102 33//102 211//102
f 48//103 40//103 210//103
f 52//104 48//104 213//104
f 60//64 52//64 212//64
f 208//105 65//105 60//105
f 216//106 69//106 65//106
f 204//107 72//107 69//107
f 202//108 78//108 72//108
f 81//82 78//82 202//82
f 85//109 81//109 199//109
f 88//115 85//115 197//115
f 90//116 88//116 198//116
f 94//112 90//112 200//112
f 96//79 94//79 201//79
f 94//97 96//97 99//97
f 99//97 6//97 10//97
f 10//97 21//97 26//97
f 26//97 33//97 40//97
f 40//97 48//97 52//97
f 52//97 60//97 65//97
f 65//97 69//97 72//97
f 72//97 78//97 81//97
f 81//97 85//97 88//97
f 88//97 90//97 94//97
f 94//97 99//97 10//97
f 10//97 26//97 40//97
f 40//97 52//97 65//97
f 65//97 72//97 81//97
f 81//97 88//97 94//97
f 94//97 10//97 40//97
f 40//97 65//97 81//97
f 99//113 96//113 205//113
f 6//114 99//114 203//114
f 236//99 1//99 7//99
f 228//100 7//100 12//100
f 226//58 12//58 16//58
f 233//101 16//101 20//101
f 232//102 20//102 24//102
f 230//103 24//103 30//103
f 231//104 30//104 34//104
f 229//64 34//64 39//64
f 234//105 39//105 42//105
f 227//106 42//106 46//106
f 235//107 46//107 51//107
f 221//108 51//108 56//108
f 223//82 56//82 61//82
f 218//109 61//109 63//109
f 219//110 63//110 66//110
f 217//111 66//111 70//111
f 220//112 70//112 73//112
f 225//79 73//79 75//79
f 224//113 75//113 79//113
f 222//114 79//114 1//114
f 61//95 56//95 51//95
f 51//95 46//95 42//95
f 42//95 39//95 34//95
f 34//95 30//95 24//95
f 24//95 20//95 16//95
f 16//95 12//95 7//95
f 7//95 1//95 79//95
f 79//95 75//95 73//95
f 73//95 70//95 66//95
f 66//95 63//95 61//95
f 61//95 51//95 42//95
f 42//95 34//95 24//95
f 24//95 16//95 7//95
f 7//95 79//95 73//95
f 73//95 66//95 61//95
f 61//95 42//95 24//95
f 24//95 7//95 73//95
f 255//99 2//99 5//99
f 249//100 5//100 8//100
f 247//58 8//58 11//58
f 254//101 11//101 14//101
f 251//102 14//102 17//102
f 250//103 17//103 19//103
f 253//104 19//104 22//104
f 252//64 22//64 25//64
f 246//105 25//105 28//105
f 248//106 28//106 31//106
f 256//107 31//107 35//107
f 243//108 35//108 38//108
f 244//82 38//82 41//82
f 239//109 41//109 44//109
f 237//115 44//115 47//115
f 238//116 47//116 49//116
f 240//112 49//112 53//112
f 241//79 53//79 55//79
f 242//113 55//113 58//113
f 245//114 58//114 2//114
f 31//95 28//95 25//95
f 25//95 22//95 19//95
f 19//95 17//95 14//95
f 14//95 11//95 8//95
f 8//95 5//95 2//95
f 2//95 58//95 55//95
f 55//95 53//95 49//95
f 49//95 47//95 44//95
f 44//95 41//95 38//95
f 38//95 35//95 31//95
f 31//95 25//95 19//95
f 19//95 14//95 8//95
f 8//95 2//95 55//95
f 55//95 49//95 44//95
f 44//95 38//95 31//95
f 31//95 19//95 8//95
f 8//95 55//95 44//95
usemtl Silver
f 258//117 265//117 259//117
f 259//118 263//118 257//118
f 267//119 262//119 268//119
f 268//120 260//120 266//120
f 264//121 271//121 265//121
f 265//122 269//122 263//122
f 273//123 268//123 274//123
f 274//124 266//124 272//124
f 270//125 277//125 271//125
f 271//126 275//126 269//126
f 279//127 274//127 280//127
f 280//128 272//128 278//128
f 276//129 283//129 277//129
f 277//130 281//130 275//130
f 285//131 280//131 286//131
f 286//132 278//132 284//132
f 282//133 289//133 283//133
f 283//134 287//134 281//134
f 291//135 286//135 292//135
f 292//136 284//136 290//136
f 288//137 295//137 289//137
f 289//138 293//138 287//138
f 297//139 292//139 298//139
f 298//140 290//140 296//140
f 294//141 301//141 295//141
f 295//142 299//142 293//142
f 303//143 298//143 304//143
f 304//144 296//144 302//144
f 300//145 307//145 301//145
f 301//146 305//146 299//146
f 309//147 304//147 310//147
f 310//148 302//148 308//148
f 306//149 313//149 307//149
f 307//150 311//150 305//150
f 315//151 310//151 316//151
f 316//152 308//152 314//152
f 312//153 319//153 313//153
f 313//154 317//154 311//154
f 321//155 316//155 322//155
f 322//156 314//156 320//156
f 318//157 325//157 319//157
f 319//158 323//158 317//158
f 327//159 322//159 328//159
f 328//160 320//160 326//160
f 324//161 331//161 325//161
f 325//162 329//162 323//162
f 333//163 328//163 334//163
f 334//164 326//164 332//164
f 330//165 337//165 331//165
f 331//166 335//166 329//166
f 339//167 334//167 340//167
f 340//168 332//168 338//168
f 336//169 343//169 337//169
f 337//170 341//170 335//170
f 345//171 340//171 346//171
f 346//172 338//172 344//172
f 342//173 349//173 343//173
f 343//174 347//174 341//174
f 351//175 346//175 352//175
f 352//176 344//176 350//176
f 348//177 355//177 349//177
f 349//178 353//178 347//178
f 357//179 352//179 358//179
f 358//180 350//180 356//180
f 354//181 361//181 355//181
f 355//182 359//182 353//182
f 363//183 358//183 364//183
f 364//184 356//184 362//184
f 360//185 367//185 361//185
f 361//186 365//186 359//186
f 369//187 364//187 370//187
f 370//188 362//188 368//188
f 366//189 373//189 367//189
f 367//190 371//190 365//190
f 375//191 370//191 376//191
f 376//192 368//192 374//192
f 372//193 379//193 373//193
f 373//194 377//194 371//194
f 381//195 376//195 382//195
f 382//196 374//196 380//196
f 378//197 385//197 379//197
f 379//198 383//198 377//198
f 387//199 382//199 388//199
f 388//200 380//200 386//200
f 384//201 391//201 385//201
f 385//202 389//202 383//202
f 393//203 388//203 394//203
f 394//204 386//204 392//204
f 390//205 397//205 391//205
f 391//206 395//206 389//206
f 399//207 394//207 400//207
f 400//208 392//208 398//208
f 396//209 403//209 397//209
f 397//210 401//210 395//210
f 405//211 400//211 406//211
f 406//212 398//212 404//212
f 402//213 409//213 403//213
f 403//214 407//214 401//214
f 411//215 406//215 412//215
f 412//216 404//216 410//216
f 408//217 415//217 409//217
f 409//218 413//218 407//218
f 417//219 412//219 418//219
f 418//220 410//220 416//220
f 414//221 421//221 415//221
f 415//222 419//222 413//222
f 423//223 418//223 424//223
f 424//224 416//224 422//224
f 420//225 427//225 421//225
f 421//226 425//226 419//226
f 429//227 424//227 430//227
f 430//228 422//228 428//228
f 426//229 433//229 427//229
f 427//230 431//230 425//230
f 435//231 430//231 436//231
f 436//232 428//232 434//232
f 432//233 439//233 433//233
f 433//234 437//234 431//234
f 441//235 436//235 442//235
f 442//236 434//236 440//236
f 438//237 445//237 439//237
f 439//238 443//238 437//238
f 447//239 442//239 448//239
f 448//240 440//240 446//240
f 444//241 259//241 445//241
f 445//242 257//242 443//242
f 261//243 448//243 262//243
f 262//244 446//244 260//244
f 347//94 395//94 443//94
f 258//245 267//245 264//245
f 444//246 261//246 258//246
f 368//98 320//98 272//98
f 264//247 273//247 270//247
f 270//248 279//248 276//248
f 276//249 285//249 282//249
f 282//250 291//250 288//250
f 288//251 297//251 294//251
f 294//252 303//252 300//252
f 300//253 309//253 306//253
f 306//254 315//254 312//254
f 312//255 321//255 318//255
f 318//256 327//256 324//256
f 324//257 333//257 330//257
f 330//258 339//258 336//258
f 336//259 345//259 342//259
f 342//260 351//260 348//260
f 348//261 357//261 354//261
f 354//262 363//262 360//262
f 360//263 369//263 366//263
f 366//264 375//264 372//264
f 372//265 381//265 378//265
f 378//266 387//266 384//266
f 384//267 393//267 390//267
f 390//268 399//268 396//268
f 396//269 405//269 402//269
f 402//270 411//270 408//270
f 408//271 417//271 414//271
f 414//272 423//272 420//272
f 420//273 429//273 426//273
f 426//274 435//274 432//274
f 432//275 441//275 438//275
f 438//276 447//276 444//276
f 497//94 500//94 499//94
f 499//97 504//97 503//97
f 503//98 502//98 501//98
f 501//95 498//95 497//95
f 499//93 501//93 497//93
f 504//96 498//96 502//96
f 505//94 508//94 507//94
f 507//97 512//97 511//97
f 511//98 510//98 509//98
f 509//95 506//95 505//95
f 507//93 509//93 505//93
f 512//96 506//96 510//96
f 556//301 514//301 557//301
f 557//302 515//302 558//302
f 517//303 560//303 559//303
f 516//304 519//304 518//304
f 518//305 521//305 520//305
f 520//306 523//306 522//306
f 522//307 525//307 524//307
f 524//308 527//308 526//308
f 526//309 529//309 528//309
f 528//310 531//310 530//310
f 530//311 533//311 532//311
f 532//312 535//312 534//312
f 534//313 537//313 536//313
f 536//314 539//314 538//314
f 538//315 541//315 540//315
f 540//316 543//316 542//316
f 542//317 545//317 544//317
f 544//318 547//318 546//318
f 546//319 549//319 548//319
f 548//320 551//320 550//320
f 550//321 553//321 552//321
f 553//322 563//322 561//322
f 541//95 525//95 555//95
f 563//323 555//323 564//323
f 564//324 513//324 556//324
f 516//97 532//97 548//97
f 557//97 559//97 563//97
f 561//96 560//96 562//96
f 566//301 608//301 609//301
f 567//302 609//302 610//302
f 568//325 610//325 612//325
f 568//304 571//304 570//304
f 570//305 573//305 572//305
f 572//306 575//306 574//306
f 574//307 577//307 576//307
f 576//308 579//308 578//308
f 578//309 581//309 580//309
f 580//310 583//310 582//310
f 582//311 585//311 584//311
f 584//312 587//312 586//312
f 586//313 589//313 588//313
f 588//314 591//314 590//314
f 590//315 593//315 592//315
f 592//316 595//316 594//316
f 594//317 597//317 596//317
f 596//318 599//318 598//318
f 598//319 601//319 600//319
f 600//320 603//320 602//320
f 602//321 605//321 604//321
f 604//326 613//326 614//326
f 605//95 589//95 573//95
f 607//323 615//323 616//323
f 565//324 616//324 608//324
f 574//97 590//97 606//97
f 614//95 610//95 608//95
f 611//96 614//96 613//96
f 625//327 628//327 627//327
f 627//82 630//82 629//82
f 629//328 632//328 631//328
f 631//329 634//329 633//329
f 633//79 636//79 635//79
f 635//330 638//330 637//330
f 637//331 640//331 639//331
f 639//58 642//58 641//58
f 641//332 644//332 643//332
f 643//333 646//333 645//333
f 646//95 638//95 630//95
f 645//64 648//64 647//64
f 647//334 626//334 625//334
f 631//97 639//97 647//97
f 657//327 660//327 659//327
f 659//82 662//82 661//82
f 661//328 664//328 663//328
f 663//329 666//329 665//329
f 665//79 668//79 667//79
f 667//330 670//330 669//330
f 669//331 672//331 671//331
f 671//58 674//58 673//58
f 673//332 676//332 675//332
f 675//333 678//333 677//333
f 678//95 670//95 662//95
f 677//64 680//64 679//64
f 679//334 658//334 657//334
f 663//97 671//97 679//97
f 697//327 700//327 699//327
f 699//82 702//82 701//82
f 701//328 704//328 703//328
f 703//329 706//329 705//329
f 705//79 708//79 707//79
f 707//330 710//330 709//330
f 709//331 712//331 711//331
f 711//58 714//58 713//58
f 713//332 716//332 715//332
f 715//333 718//333 717//333
f 718//95 710//95 702//95
f 717//64 720//64 719//64
f 719//334 698//334 697//334
f 703//97 711//97 719//97
f 729//327 732//327 731//327
f 731//82 734//82 733//82
f 733//328 736//328 735//328
f 735//329 738//329 737//329
f 737//79 740//79 739//79
f 739//330 742//330 741//330
f 741//331 744//331 743//331
f 743//58 746//58 745//58
f 745//332 748//332 747//332
f 747//333 750//333 749//333
f 750//95 742//95 734//95
f 749//64 752//64 751//64
f 751//334 730//334 729//334
f 735//97 743//97 751//97
f 258//407 264//407 265//407
f 259//118 265//118 263//118
f 267//408 261//408 262//408
f 268//120 262//120 260//120
f 264//409 270//409 271//409
f 265//410 271//410 269//410
f 273//411 267//411 268//411
f 274//412 268//412 266//412
f 270//413 276//413 277//413
f 271//414 277//414 275//414
f 279//415 273//415 274//415
f 280//416 274//416 272//416
f 276//417 282//417 283//417
f 277//418 283//418 281//418
f 285//419 279//419 280//419
f 286//420 280//420 278//420
f 282//421 288//421 289//421
f 283//422 289//422 287//422
f 291//423 285//423 286//423
f 292//424 286//424 284//424
f 288//425 294//425 295//425
f 289//426 295//426 293//426
f 297//427 291//427 292//427
f 298//428 292//428 290//428
f 294//429 300//429 301//429
f 295//430 301//430 299//430
f 303//431 297//431 298//431
f 304//432 298//432 296//432
f 300//433 306//433 307//433
f 301//146 307//146 305//146
f 309//434 303//434 304//434
f 310//148 304//148 302//148
f 306//435 312//435 313//435
f 307//150 313//150 311//150
f 315//436 309//436 310//436
f 316//152 310//152 308//152
f 312//437 318//437 319//437
f 313//438 319//438 317//438
f 321//439 315//439 316//439
f 322//440 316//440 314//440
f 318//441 324//441 325//441
f 319//442 325//442 323//442
f 327//443 321//443 322//443
f 328//444 322//444 320//444
f 324//445 330//445 331//445
f 325//446 331//446 329//446
f 333//447 327//447 328//447
f 334//448 328//448 326//448
f 330//449 336//449 337//449
f 331//450 337//450 335//450
f 339//451 333//451 334//451
f 340//452 334//452 332//452
f 336//453 342//453 343//453
f 337//454 343//454 341//454
f 345//455 339//455 340//455
f 346//456 340//456 338//456
f 342//457 348//457 349//457
f 343//458 349//458 347//458
f 351//459 345//459 346//459
f 352//460 346//460 344//460
f 348//461 354//461 355//461
f 349//178 355//178 353//178
f 357//462 351//462 352//462
f 358//180 352//180 350//180
f 354//463 360//463 361//463
f 355//182 361//182 359//182
f 363//464 357//464 358//464
f 364//184 358//184 356//184
f 360//465 366//465 367//465
f 361//466 367//466 365//466
f 369//467 363//467 364//467
f 370//468 364//468 362//468
f 366//469 372//469 373//469
f 367//470 373//470 371//470
f 375//471 369//471 370//471
f 376//472 370//472 368//472
f 372//473 378//473 379//473
f 373//474 379//474 377//474
f 381//475 375//475 376//475
f 382//476 376//476 374//476
f 378//477 384//477 385//477
f 379//478 385//478 383//478
f 387//479 381//479 382//479
f 388//480 382//480 380//480
f 384//481 390//481 391//481
f 385//482 391//482 389//482
f 393//483 387//483 388//483
f 394//484 388//484 386//484
f 390//485 396//485 397//485
f 391//486 397//486 395//486
f 399//487 393//487 394//487
f 400//488 394//488 392//488
f 396//489 402//489 403//489
f 397//210 403//210 401//210
f 405//490 399//490 400//490
f 406//212 400//212 398//212
f 402//491 408//491 409//491
f 403//214 409//214 407//214
f 411//492 405//492 406//492
f 412//216 406//216 404//216
f 408//493 414//493 415//493
f 409//494 415//494 413//494
f 417//495 411//495 412//495
f 418//496 412//496 410//496
f 414//497 420//497 421//497
f 415//498 421//498 419//498
f 423//499 417//499 418//499
f 424//500 418//500 416//500
f 420//501 426//501 427//501
f 421//502 427//502 425//502
f 429//503 423//503 424//503
f 430//504 424//504 422//504
f 426//505 432//505 433//505
f 427//506 433//506 431//506
f 435//507 429//507 430//507
f 436//508 430//508 428//508
f 432//509 438//509 439//509
f 433//510 439//510 437//510
f 441//511 435//511 436//511
f 442//512 436//512 434//512
f 438//513 444//513 445//513
f 439//514 445//514 443//514
f 447//515 441//515 442//515
f 448//516 442//516 440//516
f 444//517 258//517 259//517
f 445//242 259//242 257//242
f 261//518 447//518 448//518
f 262//244 448//244 446//244
f 443//94 257//94 263//94
f 263//94 269//94 275//94
f 275//94 281//94 287//94
f 287//94 293//94 299//94
f 299//94 305//94 311//94
f 311//94 317//94 323//94
f 323//94 329//94 335//94
f 335//94 341//94 347//94
f 347//94 353//94 359//94
f 359//94 365//94 371//94
f 371//94 377//94 383//94
f 383//94 389//94 395//94
f 395//94 401//94 407//94
f 407//94 413//94 419//94
f 419//94 425//94 431//94
f 431//94 437//94 443//94
f 443//94 263//94 275//94
f 275//94 287//94 299//94
f 299//94 311//94 323//94
f 323//94 335//94 347//94
f 347//94 359//94 371//94
f 371//94 383//94 395//94
f 395//94 407//94 419//94
f 419//94 431//94 443//94
f 443//94 275//94 299//94
f 299//94 323//94 347//94
f 347//94 371//94 395//94
f 395//94 419//94 443//94
f 443//94 299//94 347//94
f 258//245 261//245 267//245
f 444//246 447//246 261//246
f 272//98 266//98 260//98
f 260//98 446//98 440//98
f 440//98 434//98 428//98
f 428//98 422//98 416//98
f 416//98 410//98 404//98
f 404//98 398//98 392//98
f 392//98 386//98 380//98
f 380//98 374//98 368//98
f 368//98 362//98 356//98
f 356//98 350//98 344//98
f 344//98 338//98 332//98
f 332//98 326//98 320//98
f 320//98 314//98 308//98
f 308//98 302//98 296//98
f 296//98 290//98 284//98
f 284//98 278//98 272//98
f 272//98 260//98 440//98
f 440//98 428//98 416//98
f 416//98 404//98 392//98
f 392//98 380//98 368//98
f 368//98 356//98 344//98
f 344//98 332//98 320//98
f 320//98 308//98 296//98
f 296//98 284//98 272//98
f 272//98 440//98 416//98
f 416//98 392//98 368//98
f 368//98 344//98 320//98
f 320//98 296//98 272//98
f 272//98 416//98 368//98
f 264//247 267//247 273//247
f 270//248 273//248 279//248
f 276//249 279//249 285//249
f 282//250 285//250 291//250
f 288//251 291//251 297//251
f 294//252 297//252 303//252
f 300//253 303//253 309//253
f 306//254 309//254 315//254
f 312//255 315//255 321//255
f 318//256 321//256 327//256
f 324//257 327//257 333//257
f 330//258 333//258 339//258
f 336//259 339//259 345//259
f 342//260 345//260 351//260
f 348//261 351//261 357//261
f 354//262 357//262 363//262
f 360//263 363//263 369//263
f 366//264 369//264 375//264
f 372//265 375//265 381//265
f 378//266 381//266 387//266
f 384//267 387//267 393//267
f 390//268 393//268 399//268
f 396//269 399//269 405//269
f 402//270 405//270 411//270
f 408//271 411//271 417//271
f 414//272 417//272 423//272
f 420//273 423//273 429//273
f 426//274 429//274 435//274
f 432//275 435//275 441//275
f 438//276 441//276 447//276
f 497//94 498//94 500//94
f 499//97 500//97 504//97
f 503//98 504//98 502//98
f 501//95 502//95 498//95
f 499//93 503//93 501//93
f 504//96 500//96 498//96
f 505//94 506//94 508//94
f 507//97 508//97 512//97
f 511//98 512//98 510//98
f 509//95 510//95 506//95
f 507//93 511//93 509//93
f 512//96 508//96 506//96
f 556//301 513//301 514//301
f 557//302 514//302 515//302
f 558//519 515//519 517//519
f 517//303 516//303 560//303
f 559//520 558//520 517//520
f 516//304 517//304 519//304
f 518//305 519//305 521//305
f 520//306 521//306 523//306
f 522//307 523//307 525//307
f 524//308 525//308 527//308
f 526//309 527//309 529//309
f 528//310 529//310 531//310
f 530//311 531//311 533//311
f 532//312 533//312 535//312
f 534//313 535//313 537//313
f 536//314 537//314 539//314
f 538//315 539//315 541//315
f 540//316 541//316 543//316
f 542//317 543//317 545//317
f 544//318 545//318 547//318
f 546//319 547//319 549//319
f 548//320 549//320 551//320
f 550//321 551//321 553//321
f 562//326 552//326 553//326
f 553//521 554//521 563//521
f 561//326 562//326 553//326
f 555//95 554//95 553//95
f 553//95 551//95 549//95
f 549//95 547//95 545//95
f 545//95 543//95 541//95
f 541//95 539//95 537//95
f 537//95 535//95 533//95
f 533//95 531//95 529//95
f 529//95 527//95 525//95
f 525//95 523//95 521//95
f 521//95 519//95 517//95
f 517//95 515//95 514//95
f 514//95 513//95 555//95
f 555//95 553//95 549//95
f 549//95 545//95 541//95
f 541//95 537//95 533//95
f 533//95 529//95 525//95
f 525//95 521//95 517//95
f 517//95 514//95 555//95
f 555//95 549//95 541//95
f 541//95 533//95 525//95
f 525//95 517//95 555//95
f 563//323 554//323 555//323
f 564//324 555//324 513//324
f 562//97 560//97 516//97
f 516//97 518//97 520//97
f 520//97 522//97 524//97
f 524//97 526//97 528//97
f 528//97 530//97 532//97
f 532//97 534//97 536//97
f 536//97 538//97 540//97
f 540//97 542//97 544//97
f 544//97 546//97 548//97
f 548//97 550//97 552//97
f 552//97 562//97 516//97
f 516//97 520//97 524//97
f 524//97 528//97 532//97
f 532//97 536//97 540//97
f 540//97 544//97 548//97
f 548//97 552//97 516//97
f 516//97 524//97 532//97
f 532//97 540//97 548//97
f 564//97 556//97 557//97
f 557//97 558//97 559//97
f 559//97 561//97 563//97
f 563//97 564//97 557//97
f 561//96 559//96 560//96
f 566//301 565//301 608//301
f 567//302 566//302 609//302
f 611//303 569//303 568//303
f 568//519 567//519 610//519
f 612//303 611//303 568//303
f 568//304 569//304 571//304
f 570//305 571//305 573//305
f 572//306 573//306 575//306
f 574//307 575//307 577//307
f 576//308 577//308 579//308
f 578//309 579//309 581//309
f 580//310 581//310 583//310
f 582//311 583//311 585//311
f 584//312 585//312 587//312
f 586//313 587//313 589//313
f 588//314 589//314 591//314
f 590//315 591//315 593//315
f 592//316 593//316 595//316
f 594//317 595//317 597//317
f 596//318 597//318 599//318
f 598//319 599//319 601//319
f 600//320 601//320 603//320
f 602//321 603//321 605//321
f 615//521 606//521 604//521
f 604//326 605//326 613//326
f 614//522 615//522 604//522
f 611//95 613//95 605//95
f 605//95 603//95 601//95
f 601//95 599//95 597//95
f 597//95 595//95 593//95
f 593//95 591//95 589//95
f 589//95 587//95 585//95
f 585//95 583//95 581//95
f 581//95 579//95 577//95
f 577//95 575//95 573//95
f 573//95 571//95 569//95
f 569//95 611//95 605//95
f 605//95 601//95 597//95
f 597//95 593//95 589//95
f 589//95 585//95 581//95
f 581//95 577//95 573//95
f 573//95 569//95 605//95
f 605//95 597//95 589//95
f 589//95 581//95 573//95
f 607//323 606//323 615//323
f 565//324 607//324 616//324
f 606//97 607//97 565//97
f 565//97 566//97 567//97
f 567//97 568//97 570//97
f 570//97 572//97 574//97
f 574//97 576//97 578//97
f 578//97 580//97 582//97
f 582//97 584//97 586//97
f 586//97 588//97 590//97
f 590//97 592//97 594//97
f 594//97 596//97 598//97
f 598//97 600//97 602//97
f 602//97 604//97 606//97
f 606//97 565//97 567//97
f 567//97 570//97 574//97
f 574//97 578//97 582//97
f 582//97 586//97 590//97
f 590//97 594//97 598//97
f 598//97 602//97 606//97
f 606//97 567//97 574//97
f 574//97 582//97 590//97
f 590//97 598//97 606//97
f 616//95 615//95 614//95
f 614//95 612//95 610//95
f 610//95 609//95 608//95
f 608//95 616//95 614//95
f 611//96 612//96 614//96
f 625//327 626//327 628//327
f 627//82 628//82 630//82
f 629//328 630//328 632//328
f 631//329 632//329 634//329
f 633//79 634//79 636//79
f 635//330 636//330 638//330
f 637//331 638//331 640//331
f 639//58 640//58 642//58
f 641//332 642//332 644//332
f 643//333 644//333 646//333
f 630//95 628//95 626//95
f 626//95 648//95 646//95
f 646//95 644//95 642//95
f 642//95 640//95 638//95
f 638//95 636//95 634//95
f 634//95 632//95 630//95
f 630//95 626//95 646//95
f 646//95 642//95 638//95
f 638//95 634//95 630//95
f 645//64 646//64 648//64
f 647//334 648//334 626//334
f 647//97 625//97 627//97
f 627//97 629//97 631//97
f 631//97 633//97 635//97
f 635//97 637//97 639//97
f 639//97 641//97 643//97
f 643//97 645//97 647//97
f 647//97 627//97 631//97
f 631//97 635//97 639//97
f 639//97 643//97 647//97
f 657//327 658//327 660//327
f 659//82 660//82 662//82
f 661//328 662//328 664//328
f 663//329 664//329 666//329
f 665//79 666//79 668//79
f 667//330 668//330 670//330
f 669//331 670//331 672//331
f 671//58 672//58 674//58
f 673//332 674//332 676//332
f 675//333 676//333 678//333
f 662//95 660//95 658//95
f 658//95 680//95 678//95
f 678//95 676//95 674//95
f 674//95 672//95 670//95
f 670//95 668//95 666//95
f 666//95 664//95 662//95
f 662//95 658//95 678//95
f 678//95 674//95 670//95
f 670//95 666//95 662//95
f 677//64 678//64 680//64
f 679//334 680//334 658//334
f 679//97 657//97 659//97
f 659//97 661//97 663//97
f 663//97 665//97 667//97
f 667//97 669//97 671//97
f 671//97 673//97 675//97
f 675//97 677//97 679//97
f 679//97 659//97 663//97
f 663//97 667//97 671//97
f 671//97 675//97 679//97
f 697//327 698//327 700//327
f 699//82 700//82 702//82
f 701//328 702//328 704//328
f 703//329 704//329 706//329
f 705//79 706//79 708//79
f 707//330 708//330 710//330
f 709//331 710//331 712//331
f 711//58 712//58 714//58
f 713//332 714//332 716//332
f 715//333 716//333 718//333
f 702//95 700//95 698//95
f 698//95 720//95 718//95
f 718//95 716//95 714//95
f 714//95 712//95 710//95
f 710//95 708//95 706//95
f 706//95 704//95 702//95
f 702//95 698//95 718//95
f 718//95 714//95 710//95
f 710//95 706//95 702//95
f 717//64 718//64 720//64
f 719//334 720//334 698//334
f 719//97 697//97 699//97
f 699//97 701//97 703//97
f 703//97 705//97 707//97
f 707//97 709//97 711//97
f 711//97 713//97 715//97
f 715//97 717//97 719//97
f 719//97 699//97 703//97
f 703//97 707//97 711//97
f 711//97 715//97 719//97
f 729//327 730//327 732//327
f 731//82 732//82 734//82
f 733//328 734//328 736//328
f 735//329 736//329 738//329
f 737//79 738//79 740//79
f 739//330 740//330 742//330
f 741//331 742//331 744//331
f 743//58 744//58 746//58
f 745//332 746//332 748//332
f 747//333 748//333 750//333
f 734//95 732//95 730//95
f 730//95 752//95 750//95
f 750//95 748//95 746//95
f 746//95 744//95 742//95
f 742//95 740//95 738//95
f 738//95 736//95 734//95
f 734//95 730//95 750//95
f 750//95 746//95 742//95
f 742//95 738//95 734//95
f 749//64 750//64 752//64
f 751//334 752//334 730//334
f 751//97 729//97 731//97
f 731//97 733//97 735//97
f 735//97 737//97 739//97
f 739//97 741//97 743//97
f 743//97 745//97 747//97
f 747//97 749//97 751//97
f 751//97 731//97 735//97
f 735//97 739//97 743//97
f 743//97 747//97 751//97
usemtl Black
f 449//277 452//277 451//277
f 451//278 454//278 453//278
f 453//279 456//279 455//279
f 455//280 458//280 457//280
f 457//281 460//281 459//281
f 459//282 462//282 461//282
f 461//283 464//283 463//283
f 463//284 466//284 465//284
f 465//285 468//285 467//285
f 467//286 470//286 469//286
f 469//287 472//287 471//287
f 471//288 474//288 473//288
f 473//289 476//289 475//289
f 475//290 478//290 477//290
f 477//291 480//291 479//291
f 479//292 482//292 481//292
f 481//293 484//293 483//293
f 483//294 486//294 485//294
f 485//295 488//295 487//295
f 487//296 490//296 489//296
f 489//297 492//297 491//297
f 491//298 494//298 493//298
f 486//98 470//98 454//98
f 493//299 496//299 495//299
f 495//300 450//300 449//300
f 463//94 479//94 495//94
f 449//277 450//277 452//277
f 451//278 452//278 454//278
f 453//279 454//279 456//279
f 455//280 456//280 458//280
f 457//281 458//281 460//281
f 459//282 460//282 462//282
f 461//283 462//283 464//283
f 463//284 464//284 466//284
f 465//285 466//285 468//285
f 467//286 468//286 470//286
f 469//287 470//287 472//287
f 471//288 472//288 474//288
f 473//289 474//289 476//289
f 475//290 476//290 478//290
f 477//291 478//291 480//291
f 479//292 480//292 482//292
f 481//293 482//293 484//293
f 483//294 484//294 486//294
f 485//295 486//295 488//295
f 487//296 488//296 490//296
f 489//297 490//297 492//297
f 491//298 492//298 494//298
f 454//98 452//98 450//98
f 450//98 496//98 494//98
f 494//98 492//98 490//98
f 490//98 488//98 486//98
f 486//98 484//98 482//98
f 482//98 480//98 478//98
f 478//98 476//98 474//98
f 474//98 472//98 470//98
f 470//98 468//98 466//98
f 466//98 464//98 462//98
f 462//98 460//98 458//98
f 458//98 456//98 454//98
f 454//98 450//98 494//98
f 494//98 490//98 486//98
f 486//98 482//98 478//98
f 478//98 474//98 470//98
f 470//98 466//98 462//98
f 462//98 458//98 454//98
f 454//98 494//98 486//98
f 486//98 478//98 470//98
f 470//98 462//98 454//98
f 493//299 494//299 496//299
f 495//300 496//300 450//300
f 495//94 449//94 451//94
f 451//94 453//94 455//94
f 455//94 457//94 459//94
f 459//94 461//94 463//94
f 463//94 465//94 467//94
f 467//94 469//94 471//94
f 471//94 473//94 475//94
f 475//94 477//94 479//94
f 479//94 481//94 483//94
f 483//94 485//94 487//94
f 487//94 489//94 491//94
f 491//94 493//94 495//94
f 495//94 451//94 455//94
f 455//94 459//94 463//94
f 463//94 467//94 471//94
f 471//94 475//94 479//94
f 479//94 483//94 487//94
f 487//94 491//94 495//94
f 495//94 455//94 463//94
f 463//94 471//94 479//94
f 479//94 487//94 495//94
usemtl DetailGraphite
f 617//94 620//94 619//94
f 619//97 624//97 623//97
f 623//98 622//98 621//98
f 621//95 618//95 617//95
f 619//93 621//93 617//93
f 624//96 618//96 622//96
f 649//94 652//94 651//94
f 651//97 656//97 655//97
f 655//98 654//98 653//98
f 653//95 650//95 649//95
f 651//93 653//93 649//93
f 656//96 650//96 654//96
f 681//94 684//94 683//94
f 683//97 688//97 687//97
f 687//98 686//98 685//98
f 685//95 682//95 681//95
f 683//93 685//93 681//93
f 688//96 682//96 686//96
f 689//94 692//94 691//94
f 691//97 696//97 695//97
f 695//98 694//98 693//98
f 693//95 690//95 689//95
f 691//93 693//93 689//93
f 696//96 690//96 694//96
f 721//94 724//94 723//94
f 723//97 728//97 727//97
f 727//98 726//98 725//98
f 725//95 722//95 721//95
f 723//93 725//93 721//93
f 728//96 722//96 726//96
f 753//94 756//94 755//94
f 755//97 760//97 759//97
f 759//98 758//98 757//98
f 757//95 754//95 753//95
f 755//93 757//93 753//93
f 760//96 754//96 758//96
f 761//335 762//335 763//335
f 764//336 765//336 766//336
f 767//337 768//337 769//337
f 770//338 771//338 772//338
f 773//339 774//339 775//339
f 776//340 777//340 778//340
f 779//341 780//341 781//341
f 782//342 783//342 784//342
f 767//58 763//58 768//58
f 762//61 766//61 763//61
f 765//64 772//64 766//64
f 771//67 768//67 772//67
f 779//70 769//70 780//70
f 770//73 784//73 771//73
f 783//76 780//76 784//76
f 773//79 781//79 774//79
f 782//82 778//82 783//82
f 777//85 774//85 778//85
f 761//88 775//88 762//88
f 776//91 764//91 777//91
f 767//93 773//93 761//93
f 763//94 772//94 768//94
f 775//95 764//95 762//95
f 782//96 765//96 776//96
f 769//97 784//97 780//97
f 781//98 778//98 774//98
f 617//94 618//94 620//94
f 619//97 620//97 624//97
f 623//98 624//98 622//98
f 621//95 622//95 618//95
f 619//93 623//93 621//93
f 624//96 620//96 618//96
f 649//94 650//94 652//94
f 651//97 652//97 656//97
f 655//98 656//98 654//98
f 653//95 654//95 650//95
f 651//93 655//93 653//93
f 656//96 652//96 650//96
f 681//94 682//94 684//94
f 683//97 684//97 688//97
f 687//98 688//98 686//98
f 685//95 686//95 682//95
f 683//93 687//93 685//93
f 688//96 684//96 682//96
f 689//94 690//94 692//94
f 691//97 692//97 696//97
f 695//98 696//98 694//98
f 693//95 694//95 690//95
f 691//93 695//93 693//93
f 696//96 692//96 690//96
f 721//94 722//94 724//94
f 723//97 724//97 728//97
f 727//98 728//98 726//98
f 725//95 726//95 722//95
f 723//93 727//93 725//93
f 728//96 724//96 722//96
f 753//94 754//94 756//94
f 755//97 756//97 760//97
f 759//98 760//98 758//98
f 757//95 758//95 754//95
f 755//93 759//93 757//93
f 760//96 756//96 754//96
f 767//58 761//58 763//58
f 762//61 764//61 766//61
f 765//64 770//64 772//64
f 771//67 769//67 768//67
f 779//70 767//70 769//70
f 770//73 782//73 784//73
f 783//76 781//76 780//76
f 773//79 779//79 781//79
f 782//82 776//82 778//82
f 777//85 775//85 774//85
f 761//88 773//88 775//88
f 776//91 765//91 764//91
f 767//93 779//93 773//93
f 763//94 766//94 772//94
f 775//95 777//95 764//95
f 782//96 770//96 765//96
f 769//97 771//97 784//97
f 781//98 783//98 778//98
usemtl DetailWhite
f 785//94 788//94 787//94
f 787//97 792//97 791//97
f 791//98 790//98 789//98
f 789//95 786//95 785//95
f 787//93 789//93 785//93
f 792//96 786//96 790//96
f 793//94 796//94 795//94
f 795//97 800//97 799//97
f 799//98 798//98 797//98
f 797//95 794//95 793//95
f 795//93 797//93 793//93
f 800//96 794//96 798//96
f 785//94 786//94 788//94
f 787//97 788//97 792//97
f 791//98 792//98 790//98
f 789//95 790//95 786//95
f 787//93 791//93 789//93
f 792//96 788//96 786//96
f 793//94 794//94 796//94
f 795//97 796//97 800//97
f 799//98 800//98 798//98
f 797//95 798//95 794//95
f 795//93 799//93 797//93
f 800//96 796//96 794//96
usemtl DetailSteel
f 801//94 826//94 802//94
f 849//98 874//98 873//98
f 801//343 850//343 849//343
f 826//344 873//344 874//344
f 802//94 827//94 803//94
f 850//98 875//98 874//98
f 802//345 851//345 850//345
f 827//346 874//346 875//346
f 803//94 828//94 804//94
f 851//98 876//98 875//98
f 803//347 852//347 851//347
f 828//348 875//348 876//348
f 804//94 829//94 805//94
f 852//98 877//98 876//98
f 804//349 853//349 852//349
f 829//350 876//350 877//350
f 805//94 830//94 806//94
f 853//98 878//98 877//98
f 805//351 854//351 853//351
f 830//352 877//352 878//352
f 806//94 831//94 807//94
f 854//98 879//98 878//98
f 806//353 855//353 854//353
f 831//354 878//354 879//354
f 807//94 832//94 808//94
f 855//98 880//98 879//98
f 807//355 856//355 855//355
f 832//356 879//356 880//356
f 808//94 833//94 809//94
f 856//98 881//98 880//98
f 808//357 857//357 856//357
f 833//358 880//358 881//358
f 809//94 834//94 810//94
f 857//98 882//98 881//98
f 809//359 858//359 857//359
f 834//360 881//360 882//360
f 810//94 835//94 811//94
f 858//98 883//98 882//98
f 810//361 859//361 858//361
f 835//362 882//362 883//362
f 811//94 836//94 812//94
f 859//98 884//98 883//98
f 811//363 860//363 859//363
f 836//364 883//364 884//364
f 812//94 837//94 813//94
f 860//98 885//98 884//98
f 812//365 861//365 860//365
f 837//366 884//366 885//366
f 813//94 838//94 814//94
f 861//98 886//98 885//98
f 813//367 862//367 861//367
f 838//368 885//368 886//368
f 814//94 839//94 815//94
f 862//98 887//98 886//98
f 814//346 863//346 862//346
f 839//345 886//345 887//345
f 815//94 840//94 816//94
f 863//98 888//98 887//98
f 815//369 864//369 863//369
f 840//370 887//370 888//370
f 816//94 841//94 817//94
f 864//98 889//98 888//98
f 816//371 865//371 864//371
f 841//372 888//372 889//372
f 817//94 842//94 818//94
f 865//98 890//98 889//98
f 817//352 866//352 865//352
f 842//351 889//351 890//351
f 818//94 843//94 819//94
f 866//98 891//98 890//98
f 818//373 867//373 866//373
f 843//374 890//374 891//374
f 819//94 844//94 820//94
f 867//98 892//98 891//98
f 819//375 868//375 867//375
f 844//376 891//376 892//376
f 820//94 845//94 821//94
f 868//98 893//98 892//98
f 820//358 869//358 868//358
f 845//357 892//357 893//357
f 821//94 846//94 822//94
f 869//98 894//98 893//98
f 821//377 870//377 869//377
f 846//378 893//378 894//378
f 822//94 847//94 823//94
f 870//98 895//98 894//98
f 822//379 871//379 870//379
f 847//380 894//380 895//380
f 823//94 848//94 824//94
f 871//98 896//98 895//98
f 823//364 872//364 871//364
f 848//363 895//363 896//363
f 824//94 825//94 801//94
f 872//98 873//98 896//98
f 824//381 849//381 872//381
f 825//382 896//382 873//382
f 897//94 922//94 898//94
f 945//98 970//98 969//98
f 897//343 946//343 945//343
f 922//344 969//344 970//344
f 898//94 923//94 899//94
f 946//98 971//98 970//98
f 898//345 947//345 946//345
f 923//346 970//346 971//346
f 899//94 924//94 900//94
f 947//98 972//98 971//98
f 899//347 948//347 947//347
f 924//348 971//348 972//348
f 900//94 925//94 901//94
f 948//98 973//98 972//98
f 900//349 949//349 948//349
f 925//350 972//350 973//350
f 901//94 926//94 902//94
f 949//98 974//98 973//98
f 901//351 950//351 949//351
f 926//352 973//352 974//352
f 902//94 927//94 903//94
f 950//98 975//98 974//98
f 902//353 951//353 950//353
f 927//354 974//354 975//354
f 903//94 928//94 904//94
f 951//98 976//98 975//98
f 903//355 952//355 951//355
f 928//356 975//356 976//356
f 904//94 929//94 905//94
f 952//98 977//98 976//98
f 904//357 953//357 952//357
f 929//358 976//358 977//358
f 905//94 930//94 906//94
f 953//98 978//98 977//98
f 905//359 954//359 953//359
f 930//360 977//360 978//360
f 906//94 931//94 907//94
f 954//98 979//98 978//98
f 906//361 955//361 954//361
f 931//362 978//362 979//362
f 907//94 932//94 908//94
f 955//98 980//98 979//98
f 907//363 956//363 955//363
f 932//364 979//364 980//364
f 908//94 933//94 909//94
f 956//98 981//98 980//98
f 908//365 957//365 956//365
f 933//366 980//366 981//366
f 909//94 934//94 910//94
f 957//98 982//98 981//98
f 909//367 958//367 957//367
f 934//368 981//368 982//368
f 910//94 935//94 911//94
f 958//98 983//98 982//98
f 910//346 959//346 958//346
f 935//345 982//345 983//345
f 911//94 936//94 912//94
f 959//98 984//98 983//98
f 911//369 960//369 959//369
f 936//370 983//370 984//370
f 912//94 937//94 913//94
f 960//98 985//98 984//98
f 912//371 961//371 960//371
f 937//372 984//372 985//372
f 913//94 938//94 914//94
f 961//98 986//98 985//98
f 913//352 962//352 961//352
f 938//351 985//351 986//351
f 914//94 939//94 915//94
f 962//98 987//98 986//98
f 914//373 963//373 962//373
f 939//374 986//374 987//374
f 915//94 940//94 916//94
f 963//98 988//98 987//98
f 915//375 964//375 963//375
f 940//376 987//376 988//376
f 916//94 941//94 917//94
f 964//98 989//98 988//98
f 916//358 965//358 964//358
f 941//357 988//357 989//357
f 917//94 942//94 918//94
f 965//98 990//98 989//98
f 917//377 966//377 965//377
f 942//378 989//378 990//378
f 918//94 943//94 919//94
f 966//98 991//98 990//98
f 918//379 967//379 966//379
f 943//380 990//380 991//380
f 919//94 944//94 920//94
f 967//98 992//98 991//98
f 919//364 968//364 967//364
f 944//363 991//363 992//363
f 920//94 921//94 897//94
f 968//98 969//98 992//98
f 920//381 945//381 968//381
f 921//382 992//382 969//382
f 993//94 996//94 995//94
f 995//97 1000//97 999//97
f 999//98 998//98 997//98
f 997//95 994//95 993//95
f 995//93 997//93 993//93
f 1000//96 994//96 998//96
f 1001//94 1004//94 1003//94
f 1003//97 1008//97 1007//97
f 1007//98 1006//98 1005//98
f 1005//95 1002//95 1001//95
f 1003//93 1005//93 1001//93
f 1008//96 1002//96 1006//96
f 1009//94 1012//94 1011//94
f 1011//97 1016//97 1015//97
f 1015//98 1014//98 1013//98
f 1013//95 1010//95 1009//95
f 1011//93 1013//93 1009//93
f 1016//96 1010//96 1014//96
f 801//94 825//94 826//94
f 849//98 850//98 874//98
f 801//343 802//343 850//343
f 826//344 825//344 873//344
f 802//94 826//94 827//94
f 850//98 851//98 875//98
f 802//345 803//345 851//345
f 827//346 826//346 874//346
f 803//94 827//94 828//94
f 851//98 852//98 876//98
f 803//347 804//347 852//347
f 828//348 827//348 875//348
f 804//94 828//94 829//94
f 852//98 853//98 877//98
f 804//349 805//349 853//349
f 829//350 828//350 876//350
f 805//94 829//94 830//94
f 853//98 854//98 878//98
f 805//351 806//351 854//351
f 830//352 829//352 877//352
f 806//94 830//94 831//94
f 854//98 855//98 879//98
f 806//353 807//353 855//353
f 831//354 830//354 878//354
f 807//94 831//94 832//94
f 855//98 856//98 880//98
f 807//355 808//355 856//355
f 832//356 831//356 879//356
f 808//94 832//94 833//94
f 856//98 857//98 881//98
f 808//357 809//357 857//357
f 833//358 832//358 880//358
f 809//94 833//94 834//94
f 857//98 858//98 882//98
f 809//359 810//359 858//359
f 834//360 833//360 881//360
f 810//94 834//94 835//94
f 858//98 859//98 883//98
f 810//361 811//361 859//361
f 835//362 834//362 882//362
f 811//94 835//94 836//94
f 859//98 860//98 884//98
f 811//363 812//363 860//363
f 836//364 835//364 883//364
f 812//94 836//94 837//94
f 860//98 861//98 885//98
f 812//365 813//365 861//365
f 837//366 836//366 884//366
f 813//94 837//94 838//94
f 861//98 862//98 886//98
f 813//367 814//367 862//367
f 838//368 837//368 885//368
f 814//94 838//94 839//94
f 862//98 863//98 887//98
f 814//346 815//346 863//346
f 839//345 838//345 886//345
f 815//94 839//94 840//94
f 863//98 864//98 888//98
f 815//369 816//369 864//369
f 840//370 839//370 887//370
f 816//94 840//94 841//94
f 864//98 865//98 889//98
f 816//371 817//371 865//371
f 841//372 840//372 888//372
f 817//94 841//94 842//94
f 865//98 866//98 890//98
f 817//352 818//352 866//352
f 842//351 841//351 889//351
f 818//94 842//94 843//94
f 866//98 867//98 891//98
f 818//373 819//373 867//373
f 843//374 842//374 890//374
f 819//94 843//94 844//94
f 867//98 868//98 892//98
f 819//375 820//375 868//375
f 844//376 843//376 891//376
f 820//94 844//94 845//94
f 868//98 869//98 893//98
f 820//358 821//358 869//358
f 845//357 844//357 892//357
f 821//94 845//94 846//94
f 869//98 870//98 894//98
f 821//377 822//377 870//377
f 846//378 845//378 893//378
f 822//94 846//94 847//94
f 870//98 871//98 895//98
f 822//379 823//379 871//379
f 847//380 846//380 894//380
f 823//94 847//94 848//94
f 871//98 872//98 896//98
f 823//364 824//364 872//364
f 848//363 847//363 895//363
f 824//94 848//94 825//94
f 872//98 849//98 873//98
f 824//381 801//381 849//381
f 825//382 848//382 896//382
f 897//94 921//94 922//94
f 945//98 946//98 970//98
f 897//343 898//343 946//343
f 922//344 921//344 969//344
f 898//94 922//94 923//94
f 946//98 947//98 971//98
f 898//345 899//345 947//345
f 923//346 922//346 970//346
f 899//94 923//94 924//94
f 947//98 948//98 972//98
f 899//347 900//347 948//347
f 924//348 923//348 971//348
f 900//94 924//94 925//94
f 948//98 949//98 973//98
f 900//523 901//523 949//523
f 925//350 924//350 972//350
f 901//94 925//94 926//94
f 949//98 950//98 974//98
f 901//351 902//351 950//351
f 926//352 925//352 973//352
f 902//94 926//94 927//94
f 950//98 951//98 975//98
f 902//353 903//353 951//353
f 927//354 926//354 974//354
f 903//94 927//94 928//94
f 951//98 952//98 976//98
f 903//355 904//355 952//355
f 928//356 927//356 975//356
f 904//94 928//94 929//94
f 952//98 953//98 977//98
f 904//357 905//357 953//357
f 929//358 928//358 976//358
f 905//94 929//94 930//94
f 953//98 954//98 978//98
f 905//524 906//524 954//524
f 930//360 929//360 977//360
f 906//94 930//94 931//94
f 954//98 955//98 979//98
f 906//361 907//361 955//361
f 931//362 930//362 978//362
f 907//94 931//94 932//94
f 955//98 956//98 980//98
f 907//363 908//363 956//363
f 932//364 931//364 979//364
f 908//94 932//94 933//94
f 956//98 957//98 981//98
f 908//365 909//365 957//365
f 933//366 932//366 980//366
f 909//94 933//94 934//94
f 957//98 958//98 982//98
f 909//367 910//367 958//367
f 934//368 933//368 981//368
f 910//94 934//94 935//94
f 958//98 959//98 983//98
f 910//346 911//346 959//346
f 935//345 934//345 982//345
f 911//94 935//94 936//94
f 959//98 960//98 984//98
f 911//369 912//369 960//369
f 936//370 935//370 983//370
f 912//94 936//94 937//94
f 960//98 961//98 985//98
f 912//525 913//525 961//525
f 937//372 936//372 984//372
f 913//94 937//94 938//94
f 961//98 962//98 986//98
f 913//352 914//352 962//352
f 938//351 937//351 985//351
f 914//94 938//94 939//94
f 962//98 963//98 987//98
f 914//373 915//373 963//373
f 939//374 938//374 986//374
f 915//94 939//94 940//94
f 963//98 964//98 988//98
f 915//375 916//375 964//375
f 940//376 939//376 987//376
f 916//94 940//94 941//94
f 964//98 965//98 989//98
f 916//358 917//358 965//358
f 941//357 940//357 988//357
f 917//94 941//94 942//94
f 965//98 966//98 990//98
f 917//526 918//526 966//526
f 942//378 941//378 989//378
f 918//94 942//94 943//94
f 966//98 967//98 991//98
f 918//379 919//379 967//379
f 943//380 942//380 990//380
f 919//94 943//94 944//94
f 967//98 968//98 992//98
f 919//364 920//364 968//364
f 944//363 943//363 991//363
f 920//94 944//94 921//94
f 968//98 945//98 969//98
f 920//381 897//381 945//381
f 921//382 944//382 992//382
f 993//94 994//94 996//94
f 995//97 996//97 1000//97
f 999//98 1000//98 998//98
f 997//95 998//95 994//95
f 995//93 999//93 997//93
f 1000//96 996//96 994//96
f 1001//94 1002//94 1004//94
f 1003//97 1004//97 1008//97
f 1007//98 1008//98 1006//98
f 1005//95 1006//95 1002//95
f 1003//93 1007//93 1005//93
f 1008//96 1004//96 1002//96
f 1009//94 1010//94 1012//94
f 1011//97 1012//97 1016//97
f 1015//98 1016//98 1014//98
f 1013//95 1014//95 1010//95
f 1011//93 1015//93 1013//93
f 1016//96 1012//96 1010//96
